<?xml version="1.0" encoding="utf-8"?>
<!-- Generator: Adobe Illustrator 27.3.1, SVG Export Plug-In . SVG Version: 6.00 Build 0)  -->
<svg version="1.1" id="Calque_1" xmlns="http://www.w3.org/2000/svg" xmlns:xlink="http://www.w3.org/1999/xlink" x="0px" y="0px"
	 viewBox="0 0 24 24" style="enable-background:new 0 0 24 24;" xml:space="preserve">
<path d="M20.1,4.9C19.9,3.3,18.6,2,17,2H7C5.3,2,4,3.3,4,5v15.1c0,0.9,0.6,1.5,1.5,1.5c0.4,0,0.7-0.2,0.9-0.4l5.1-2.9
	c0.3-0.2,0.6-0.2,1,0l5.3,3c0.7,0.3,1.5,0.1,2-0.5c0-0.1,0.1-0.1,0.1-0.2c0.1-0.2,0.2-0.3,0.2-0.5L20.1,4.9z M16.5,9.2L14.7,11
	l0.5,2.5c0,0.2,0,0.5-0.2,0.6c-0.2,0.1-0.3,0.1-0.6,0L12.2,13L10,14.1c-0.2,0.1-0.5,0.1-0.6,0c-0.2-0.1-0.2-0.3-0.2-0.6L9.6,11
	L7.6,9.2C7.4,9.1,7.4,8.8,7.4,8.6c0.1-0.2,0.2-0.3,0.5-0.3l2.5-0.3l1.2-2.3c0.1-0.2,0.2-0.3,0.5-0.3c0.2,0,0.5,0.1,0.5,0.3l1.2,2.3
	l2.5,0.3c0.2,0,0.3,0.2,0.5,0.3C16.7,8.8,16.7,9.1,16.5,9.2z"/>
</svg>
