<?xml version="1.0" encoding="utf-8"?>
<!-- Generator: $$$/GeneralStr/196=Adobe Illustrator 27.6.0, SVG Export Plug-In . SVG Version: 6.00 Build 0)  -->
<svg version="1.1" id="Calque_1" xmlns="http://www.w3.org/2000/svg" xmlns:xlink="http://www.w3.org/1999/xlink" x="0px" y="0px"
	 viewBox="0 0 24 24" style="enable-background:new 0 0 24 24;" xml:space="preserve">
<path d="M19.1,3h-14C3.7,3,2.6,4.1,2.6,5.5v16l4.3-3.2C7.1,18.1,7.4,18,7.7,18H19c1.4,0,2.5-1.1,2.5-2.5v-10C21.6,4.1,20.5,3,19.1,3
	z M17.3,10.7l-4.5,4.5c-0.3,0.3-0.8,0.3-1.1,0c-0.1-0.1-0.2-0.3-0.2-0.5c0-0.2,0.1-0.4,0.2-0.5l3.2-3.2H7c-0.4,0-0.8-0.3-0.8-0.8
	c0-0.4,0.3-0.8,0.8-0.8h8l-3.2-3.2c-0.3-0.3-0.3-0.8,0-1.1c0.3-0.3,0.8-0.3,1.1,0l4.5,4.5C17.6,9.9,17.6,10.4,17.3,10.7z"/>
</svg>
