<?xml version="1.0" encoding="utf-8"?>
<!-- Generator: Adobe Illustrator 27.3.1, SVG Export Plug-In . SVG Version: 6.00 Build 0)  -->
<svg version="1.1" id="Calque_1" xmlns="http://www.w3.org/2000/svg" xmlns:xlink="http://www.w3.org/1999/xlink" x="0px" y="0px"
	 viewBox="0 0 24 24" style="enable-background:new 0 0 24 24;" xml:space="preserve">
<path d="M19,3H5C3.3,3,2,4.3,2,6v15c0,0.4,0.2,0.7,0.6,0.9C2.7,22,2.8,22,3,22c0.2,0,0.4-0.1,0.6-0.2l3.5-2.6c0,0,0.1-0.1,0.1-0.1
	c0,0,0.1-0.1,0.5-0.1H19c1.7,0,3-1.3,3-3V6C22,4.3,20.7,3,19,3z M16.6,9.5L12,14.1c-0.2,0.2-0.5,0.3-0.7,0.3s-0.5-0.1-0.7-0.3
	l-2.3-2.3c-0.4-0.4-0.4-1,0-1.4s1-0.4,1.4,0l1.6,1.6l3.9-3.9c0.4-0.4,1-0.4,1.4,0S17,9.1,16.6,9.5z"/>
</svg>
