<?xml version="1.0" encoding="utf-8"?>
<!-- Generator: Adobe Illustrator 27.3.1, SVG Export Plug-In . SVG Version: 6.00 Build 0)  -->
<svg version="1.1" id="Calque_1" xmlns="http://www.w3.org/2000/svg" xmlns:xlink="http://www.w3.org/1999/xlink" x="0px" y="0px"
	 viewBox="0 0 24 24" style="enable-background:new 0 0 24 24;" xml:space="preserve">
<path d="M12,0C5.4,0,0,5.4,0,12s5.4,12,12,12s12-5.4,12-12S18.6,0,12,0z M5,16.4c-0.4,0-0.7-0.1-0.9-0.3c-0.5-0.5-0.4-1.3,0.2-1.9
	L14,4.5c0.6-0.6,1.4-0.7,1.9-0.2c0.5,0.5,0.4,1.3-0.2,1.9L6,15.9C5.7,16.2,5.4,16.3,5,16.4z M13.3,16.5l-0.3,0.3c0,0,0,0,0,0L9.8,20
	c-0.2,0.2-0.6,0.4-0.9,0.4c-0.3,0-0.6-0.1-0.9-0.4c-0.5-0.5-0.5-1.3,0-1.8l3.2-3.2c0,0,0,0,0,0l0.3-0.3c0.5-0.5,1.3-0.5,1.7,0
	c0.2,0.2,0.4,0.5,0.4,0.9C13.7,16,13.6,16.3,13.3,16.5z M19.9,10l-3.2,3.2c-0.2,0.2-0.6,0.4-0.9,0.4c-0.3,0-0.6-0.1-0.9-0.4
	c-0.5-0.5-0.5-1.3,0-1.8l3.2-3.2c0.5-0.5,1.3-0.5,1.8,0C20.4,8.8,20.4,9.6,19.9,10z"/>
</svg>
