<?xml version="1.0" encoding="utf-8"?>
<!-- Generator: Adobe Illustrator 27.3.1, SVG Export Plug-In . SVG Version: 6.00 Build 0)  -->
<svg xmlns="http://www.w3.org/2000/svg" viewBox="0 0 24 24" fill="none">

<path stroke="currentColor" stroke-linecap="round" stroke-linejoin="round" stroke-width="2" d="M17,3H7C5.9,3,5,3.9,5,5v15.1c0,0.3,0.2,0.5,0.5,0.5c0.1,0,0.2,0,0.2-0.1l5.3-3c0.6-0.4,1.4-0.4,2,0l5.3,3
	c0.2,0.1,0.5,0.1,0.7-0.2c0-0.1,0.1-0.2,0.1-0.2V5C19,3.9,18.1,3,17,3z M15.9,9.5l-1.6,1.6l0.4,2.2c0,0.2,0,0.4-0.2,0.5
	c-0.2,0.1-0.3,0.1-0.5,0l-1.9-1l-1.9,1c-0.2,0.1-0.4,0.1-0.5,0c-0.2-0.1-0.2-0.3-0.2-0.5l0.4-2.2L8.1,9.5C8,9.4,8,9.2,8,9
	c0.1-0.2,0.2-0.3,0.4-0.3l2.2-0.3l1-2c0.1-0.2,0.2-0.3,0.4-0.3s0.4,0.1,0.4,0.3l1,2l2.2,0.3c0.2,0,0.3,0.2,0.4,0.3
	C16,9.2,16,9.4,15.9,9.5z"/>
</svg>
