<svg xmlns="http://www.w3.org/2000/svg" viewBox="0 0 24 24" fill="none">
<path stroke="currentColor" stroke-linecap="round" stroke-linejoin="round" stroke-width="2" d="M19,4H5C3.9,4,3,4.9,3,6v15l3.5-2.6C6.8,18.1,7.2,18,7.7,18H19c1.1,0,2-0.9,2-2V6C21,4.9,20.1,4,19,4z M12.2,11
	v3.3V11H8.9H12.2V7.7V11h3.3H12.2z"/>
</svg>

<svg xmlns="http://www.w3.org/2000/svg" viewBox="0 0 24 24" fill="none"><path stroke="currentColor" stroke-linecap="round" stroke-linejoin="round" stroke-width="2" d="M19 4H5a2 2 0 0 0-2 2v15l3.467-2.6a2 2 0 0 1 1.2-.4H19a2 2 0 0 0 2-2V6a2 2 0 0 0-2-2z"/></svg>
