<?xml version="1.0" encoding="utf-8"?>
<!-- Generator: $$$/GeneralStr/196=Adobe Illustrator 27.6.0, SVG Export Plug-In . SVG Version: 6.00 Build 0)  -->
<svg version="1.1" id="Calque_1" xmlns="http://www.w3.org/2000/svg" xmlns:xlink="http://www.w3.org/1999/xlink" x="0px" y="0px"
	 viewBox="0 0 512 512" style="enable-background:new 0 0 512 512;" xml:space="preserve">
<g>
</g>
<g>
	<path d="M137.3,329.3l-128,128c-12.5,12.5-12.5,32.8,0,45.3c12.5,12.5,32.8,12.5,45.3,0l128-128c12.5-12.5,12.5-32.8,0-45.3
		S149.8,316.8,137.3,329.3z"/>
	<path d="M240,208c17.7,0,32,14.3,32,32c0,13.3,10.7,24,24,24s24-10.7,24-24c0-44.2-35.8-80-80-80s-80,35.8-80,80
		c0,13.3,10.7,24,24,24s24-10.7,24-24C208,222.3,222.3,208,240,208z"/>
	<path d="M502.6,9.3c-12.5-12.5-32.8-12.5-45.3,0l-40,40c-12.5,12.5-12.5,32.8,0,45.3s32.8,12.5,45.3,0l40-40
		C515.1,42.1,515.1,21.8,502.6,9.3z"/>
	<path d="M240,64c-90.6,0-165.2,68.5-174.9,156.5c-1.9,17.5,10.8,33.4,28.3,35.3s33.4-10.7,35.3-28.3c6.2-55.9,53.7-99.5,111.3-99.5
		c61.9,0,112,50.1,112,112c0,29.3-11.2,55.9-29.6,75.9c-17,18.4-34.4,45.1-34.4,78v6.1c0,26.5-21.5,48-48,48c-17.7,0-32,14.3-32,32
		s14.3,32,32,32c61.9,0,112-50.1,112-112v-6c0-9.9,5.4-21.7,17.4-34.7C398.3,327.9,416,286,416,240C416,142.8,337.2,64,240,64z"/>
</g>
</svg>
