<?xml version="1.0" encoding="utf-8"?>
<!-- Generator: $$$/GeneralStr/196=Adobe Illustrator 27.6.0, SVG Export Plug-In . SVG Version: 6.00 Build 0)  -->
<svg version="1.1" id="Calque_1" xmlns="http://www.w3.org/2000/svg" xmlns:xlink="http://www.w3.org/1999/xlink" x="0px" y="0px"
	 viewBox="0 0 24 24" style="enable-background:new 0 0 24 24;" xml:space="preserve">
<g>
	<path d="M10.6,21.7l-0.1-0.1l-7.9-7.3c-1.4-1.3-2.2-3.1-2.2-5V9.2c0-3.2,2.2-5.9,5.4-6.5c1.8-0.3,3.6,0.1,5,1.1
		c0.4,0.3,0.8,0.6,1.1,1c0.2-0.2,0.4-0.4,0.6-0.6c0.2-0.1,0.3-0.3,0.5-0.4l0,0c1.4-1,3.3-1.4,5-1.1c3.1,0.6,5.4,3.3,5.4,6.5v0.1
		c0,1.9-0.8,3.7-2.2,5l-7.9,7.3l-0.1,0.1c-0.4,0.3-0.9,0.5-1.4,0.5S11,22.1,10.6,21.7L10.6,21.7z M11.2,7.2
		C11.2,7.2,11.2,7.2,11.2,7.2l-0.8-0.9l0,0l0,0c-1-1.2-2.6-1.7-4.1-1.4C4.2,5.3,2.7,7.1,2.7,9.2v0.1c0,1.3,0.5,2.5,1.5,3.4l7.9,7.3
		l7.9-7.3c0.9-0.9,1.5-2.1,1.5-3.4V9.2c0-2.1-1.5-4-3.6-4.4c-1.5-0.3-3.1,0.2-4.1,1.4c0,0,0,0,0,0c0,0,0,0,0,0l-0.8,0.9c0,0,0,0,0,0
		c-0.2,0.2-0.5,0.3-0.8,0.3S11.4,7.4,11.2,7.2L11.2,7.2z"/>
</g>
</svg>
