<?xml version="1.0" encoding="utf-8"?>
<!-- Generator: $$$/GeneralStr/196=Adobe Illustrator 27.6.0, SVG Export Plug-In . SVG Version: 6.00 Build 0)  -->
<svg version="1.1" id="Calque_1" xmlns="http://www.w3.org/2000/svg" xmlns:xlink="http://www.w3.org/1999/xlink" x="0px" y="0px"
	 viewBox="0 0 24 24" style="enable-background:new 0 0 24 24;" xml:space="preserve">
<g>
	<g>
		<path d="M12,21.9c-5.4,0-9.9-4.4-9.9-9.9S6.6,2.1,12,2.1s9.9,4.4,9.9,9.9S17.4,21.9,12,21.9z M12,3.9c-4.5,0-8.1,3.7-8.1,8.1
			c0,4.5,3.7,8.1,8.1,8.1c4.5,0,8.1-3.7,8.1-8.1C20.1,7.5,16.5,3.9,12,3.9z"/>
	</g>
	<g>
		<path d="M12,16c-0.6,0-1-0.4-1-1v-3c0-0.6,0.4-1,1-1s1,0.4,1,1v3C13,15.6,12.6,16,12,16z"/>
	</g>
	<g>
		<path d="M12,10c-0.1,0-0.1,0-0.2,0c-0.1,0-0.1,0-0.2-0.1c-0.1,0-0.1-0.1-0.2-0.1c-0.1,0-0.1-0.1-0.2-0.1C11.1,9.5,11,9.3,11,9
			c0-0.1,0-0.3,0.1-0.4c0.1-0.1,0.1-0.2,0.2-0.3c0,0,0.1-0.1,0.2-0.1c0.1,0,0.1-0.1,0.2-0.1c0.1,0,0.1,0,0.2-0.1
			c0.3-0.1,0.7,0,0.9,0.3C12.9,8.4,13,8.5,13,8.6c0,0.2,0,0.3,0,0.4c0,0.3-0.1,0.5-0.3,0.7S12.3,10,12,10z"/>
	</g>
</g>
</svg>
