<?xml version="1.0" encoding="utf-8"?>
<!-- Generator: $$$/GeneralStr/196=Adobe Illustrator 27.6.0, SVG Export Plug-In . SVG Version: 6.00 Build 0)  -->
<svg version="1.1" id="Calque_1" xmlns="http://www.w3.org/2000/svg" xmlns:xlink="http://www.w3.org/1999/xlink" x="0px" y="0px"
	 viewBox="0 0 24 24" style="enable-background:new 0 0 24 24;" xml:space="preserve">
<g>
	<path d="M21.9,14.7c-0.2-0.2-0.5-0.3-0.8-0.3h-5.7l4-4c0.5-0.5,0.5-1.2,0-1.6l-4-4c-0.2-0.2-0.5-0.3-0.8-0.3
		c-0.3,0-0.6,0.1-0.8,0.3l-4,4V3c0-0.6-0.5-1.1-1.1-1.1H3C2.4,1.9,1.9,2.4,1.9,3v18c0,0.6,0.5,1.1,1.1,1.1l18,0
		c0.6,0,1.1-0.5,1.1-1.1v-5.6C22.2,15.2,22.1,14.9,21.9,14.7z M17.7,15.7v5.2h-1.8v-5.2H17.7z M11.3,18.3v2.5H9.8v-1L11.3,18.3z
		 M11.6,16.2L9.8,18v-3.6L11.6,16.2z M14.5,15.7v5.2h-1.8V17l1.3-1.3H14.5z M13.8,14l-1.3,1.3l-2.7-2.7v-1.8l0.3-0.3L13.8,14z
		 M13.3,7.1l1.3-1.3l3.6,3.7L17,10.8L13.3,7.1z M16,11.7L14.8,13l-3.7-3.7l1.3-1.3L16,11.7z M20.8,15.7v5.2H19v-5.2H20.8z M8.5,15.9
		v5l-5.2,0v-4.9H8.5z M3.3,5.1V3.3l5.2,0v1.8H3.3z M3.3,8.2V6.4h5.2v1.8H3.3z M3.3,11.4V9.6h5.2v1.8H3.3z M3.3,14.5v-1.8h5.2v1.8
		H3.3z"/>
	<path d="M5.8,19.8c0.8,0,1.4-0.6,1.4-1.4c0-0.4-0.1-0.7-0.4-1c-0.3-0.3-0.6-0.4-1-0.4c-0.8,0-1.4,0.6-1.4,1.4S5.1,19.8,5.8,19.8z"
		/>
</g>
</svg>
