<?xml version="1.0" encoding="utf-8"?>
<!-- Generator: $$$/GeneralStr/196=Adobe Illustrator 27.6.0, SVG Export Plug-In . SVG Version: 6.00 Build 0)  -->
<svg version="1.1" id="Calque_1" xmlns="http://www.w3.org/2000/svg" xmlns:xlink="http://www.w3.org/1999/xlink" x="0px" y="0px"
	 viewBox="0 0 24 24" style="enable-background:new 0 0 24 24;" xml:space="preserve">
<path d="M11.9,4.9l1.9,3.9l0.4,0.8l0.9,0.1l4.4,0.7l-3.2,3.1l-0.7,0.7l0.2,0.9l0.7,4.4l-3.8-2.1L12,17l-0.9,0.5l-3.9,2.1l0.8-4.4
	l0.2-0.9l-0.7-0.7l-3.2-3.1l4.3-0.6l0.9-0.1L10,8.8L11.9,4.9 M12,2c-0.4,0-0.7,0.2-0.9,0.5L8.4,8l-6,0.9C2.1,9,1.8,9.2,1.7,9.5
	c-0.1,0.4-0.1,0.8,0.2,1l4.4,4.3l-1.1,6.1c0,0.3,0.1,0.7,0.4,0.9C5.8,21.9,6,22,6.2,22c0.1,0,0.3,0,0.4-0.1L12,19l5.3,2.9
	c0.1,0,0.3,0.1,0.4,0.1c0.2,0,0.4,0,0.6-0.2c0.3-0.2,0.5-0.5,0.4-0.9l-1-6.1l4.4-4.3c0.2-0.3,0.3-0.7,0.2-1
	c-0.2-0.3-0.4-0.5-0.8-0.6l-6-0.9l-2.7-5.5C12.7,2.2,12.4,2,12,2L12,2z"/>
</svg>
