<?xml version="1.0" encoding="utf-8"?>
<!-- Generator: Adobe Illustrator 27.5.0, SVG Export Plug-In . SVG Version: 6.00 Build 0)  -->
<svg version="1.1" id="Calque_1" xmlns="http://www.w3.org/2000/svg" xmlns:xlink="http://www.w3.org/1999/xlink" x="0px" y="0px"
	 viewBox="0 0 24 24" style="enable-background:new 0 0 24 24;" xml:space="preserve">
<path d="M19.1,3h-14C3.7,3,2.6,4.1,2.6,5.5v16l4.3-3.2C7.1,18.1,7.4,18,7.7,18h11.3c1.4,0,2.5-1.1,2.5-2.5v-10
	C21.6,4.1,20.5,3,19.1,3z M12.4,11l-3.1,3.1c-0.1,0.1-0.3,0.2-0.4,0.2c-0.2,0-0.3-0.1-0.4-0.2c-0.2-0.2-0.2-0.6,0-0.9l2.7-2.7
	L8.4,7.8c-0.2-0.2-0.2-0.6,0-0.9s0.6-0.2,0.9,0l3.1,3.1C12.6,10.3,12.6,10.7,12.4,11z M16.7,10.8L14.5,13c-0.1,0.1-0.2,0.1-0.3,0.1
	c-0.1,0-0.2,0-0.3-0.1c-0.2-0.2-0.2-0.5,0-0.6l1.9-1.9l-1.9-1.9c-0.2-0.2-0.2-0.5,0-0.6c0.2-0.2,0.5-0.2,0.6,0l2.2,2.2
	C16.9,10.4,16.9,10.6,16.7,10.8z"/>
</svg>
