<?xml version="1.0" encoding="utf-8"?>
<!-- Generator: $$$/GeneralStr/196=Adobe Illustrator 27.6.0, SVG Export Plug-In . SVG Version: 6.00 Build 0)  -->
<svg version="1.1" id="Calque_1" xmlns="http://www.w3.org/2000/svg" xmlns:xlink="http://www.w3.org/1999/xlink" x="0px" y="0px"
	 viewBox="0 0 24 24" style="enable-background:new 0 0 24 24;" xml:space="preserve">
<g>
	<path d="M10.4,3.7c0.6,0.1,1.1,0.7,1,1.4L11,7.2h3.5L15,4.6c0.1-0.6,0.7-1.1,1.4-1c0.6,0.1,1.1,0.7,1,1.4L17,7.2h2.2
		c0.7,0,1.2,0.5,1.2,1.2s-0.5,1.2-1.2,1.2h-2.6l-0.8,4.8H18c0.7,0,1.2,0.5,1.2,1.2c0,0.7-0.5,1.2-1.2,1.2h-2.6L15,19.3
		c-0.1,0.6-0.7,1.1-1.4,1c-0.6-0.1-1.1-0.7-1-1.4l0.4-2.2H9.4L9,19.4c-0.1,0.6-0.7,1.1-1.4,1c-0.6-0.1-1.1-0.7-1-1.4L7,16.8H4.8
		c-0.7,0-1.2-0.5-1.2-1.2s0.5-1.2,1.2-1.2h2.6l0.8-4.8H6c-0.7,0-1.2-0.5-1.2-1.2S5.4,7.2,6,7.2h2.6L9,4.6C9.1,4,9.8,3.6,10.4,3.7
		L10.4,3.7z M10.6,9.6l-0.8,4.8h3.5l0.8-4.8H10.6L10.6,9.6z"/>
</g>
</svg>
