<?xml version="1.0" encoding="utf-8"?>
<!-- Generator: $$$/GeneralStr/196=Adobe Illustrator 27.6.0, SVG Export Plug-In . SVG Version: 6.00 Build 0)  -->
<svg version="1.1" id="Calque_1" xmlns="http://www.w3.org/2000/svg" xmlns:xlink="http://www.w3.org/1999/xlink" x="0px" y="0px"
	 viewBox="0 0 24 24" style="enable-background:new 0 0 24 24;" xml:space="preserve">
<path d="M12,2C6.5,2,2,6.5,2,12s4.5,10,10,10s10-4.5,10-10S17.5,2,12,2z M13,15c0,0.6-0.4,1-1,1s-1-0.4-1-1v-3c0-0.6,0.4-1,1-1
	s1,0.4,1,1V15z M12,10c-0.6,0-1-0.4-1-1s0.4-1,1-1s1,0.4,1,1S12.6,10,12,10z"/>
</svg>
