<?xml version="1.0" encoding="utf-8"?>
<!-- Generator: $$$/GeneralStr/196=Adobe Illustrator 27.6.0, SVG Export Plug-In . SVG Version: 6.00 Build 0)  -->
<svg version="1.1" id="Calque_1" xmlns="http://www.w3.org/2000/svg" xmlns:xlink="http://www.w3.org/1999/xlink" x="0px" y="0px"
	 viewBox="0 0 24 24" style="enable-background:new 0 0 24 24;" xml:space="preserve">
<path d="M21.9,14.7c-0.2-0.2-0.5-0.3-0.8-0.3h-5.7l4-4c0.5-0.5,0.5-1.2,0-1.6l-4-4c-0.2-0.2-0.5-0.3-0.8-0.3c-0.3,0-0.6,0.1-0.8,0.3
	l-4,4V3c0-0.6-0.5-1.1-1.1-1.1H3C2.4,1.9,1.9,2.4,1.9,3v18c0,0.6,0.5,1.1,1.1,1.1l18,0c0.6,0,1.1-0.5,1.1-1.1v-5.6
	C22.2,15.2,22.1,14.9,21.9,14.7z M5.8,19.8c-0.8,0-1.4-0.6-1.4-1.4S5.1,17,5.8,17c0.4,0,0.7,0.2,1,0.4c0.3,0.3,0.4,0.6,0.4,1
	C7.2,19.1,6.6,19.8,5.8,19.8z M8.4,5.1H3.3V3.3l5.2,0V5.1z M14.6,5.8l3.6,3.7L17,10.8l-3.6-3.7L14.6,5.8z M20.8,20.9H19v-5.2h1.8
	V20.9z"/>
</svg>
