<?xml version="1.0" encoding="utf-8"?>
<!-- Generator: $$$/GeneralStr/196=Adobe Illustrator 27.6.0, SVG Export Plug-In . SVG Version: 6.00 Build 0)  -->
<svg version="1.1" id="Calque_1" xmlns="http://www.w3.org/2000/svg" xmlns:xlink="http://www.w3.org/1999/xlink" x="0px" y="0px"
	 viewBox="0 0 24 24" style="enable-background:new 0 0 24 24;" xml:space="preserve">
<style type="text/css">
	.st0{fill:#0F0F0F;}
</style>
<path class="st0" d="M13.1,2.7C12.9,2.3,12.5,2,12,2c-0.5,0-0.9,0.3-1.1,0.7L8.4,7.9L2.8,8.7c-0.5,0.1-0.9,0.4-1,0.8
	c-0.1,0.4,0,0.9,0.3,1.3l4.1,4l-1,5.7c-0.1,0.5,0.1,0.9,0.5,1.2C6.1,22,6.6,22,7,21.8l5-2.7l5,2.7c0.4,0.2,0.9,0.2,1.3-0.1
	c0.4-0.3,0.6-0.8,0.5-1.2l-1-5.7l4.1-4c0.3-0.3,0.5-0.8,0.3-1.3c-0.1-0.4-0.5-0.8-1-0.8l-5.6-0.8L13.1,2.7z"/>
</svg>
