<svg width="212" height="212" viewBox="0 0 212 212" fill="none" xmlns="http://www.w3.org/2000/svg">
<circle cx="106" cy="106" r="106" fill="#EDE7E1"/>
<mask id="mask0_684_3725" style="mask-type:alpha" maskUnits="userSpaceOnUse" x="0" y="0" width="212" height="212">
<circle cx="106" cy="106" r="106" fill="#EDE7E1"/>
</mask>
<g mask="url(#mask0_684_3725)">
<path d="M181.574 182.924C181.574 182.924 181.526 182.805 181.503 182.734C179.727 180.828 177.596 179.376 175.395 178.042C174.234 178.042 173.074 177.851 171.938 178.232C171.867 178.256 171.748 178.256 171.677 178.232C171.086 177.923 170.423 178.09 169.783 178.066C167.96 178.042 166.114 178.066 164.267 178.066C163.983 178.066 163.651 178.113 163.391 178.018C162.633 177.709 161.852 177.851 161.094 177.804C160.668 177.804 160.242 177.756 159.84 177.709C159.461 177.661 159.082 177.542 158.703 177.566C157.661 177.566 156.691 177.161 155.649 177.232C155.507 177.256 155.341 177.113 155.176 177.066C154.797 176.994 154.442 176.923 154.063 176.827C153.589 177.137 153.163 176.827 152.737 176.685C152.405 176.589 152.074 176.542 151.743 176.494C151.056 176.399 150.393 176.303 149.754 176.089C149.257 175.946 148.783 175.732 148.286 175.637C147.907 175.565 147.505 175.518 147.197 175.351C146.321 174.851 145.374 174.636 144.427 174.374C142.722 173.874 141.136 173.017 139.384 172.588C138.65 171.993 137.679 171.874 136.874 171.398C135.951 170.85 134.98 170.421 134.057 169.873C133.181 169.35 132.258 168.921 131.358 168.445C131.192 168.373 131.026 168.278 130.861 168.278C130.15 168.206 129.464 167.944 128.754 167.802C127.854 167.635 126.978 167.23 126.031 167.206C125.865 167.206 125.628 167.325 125.557 166.968C126.765 166.968 127.972 166.944 129.156 166.992C130.269 167.039 131.358 166.897 132.4 166.468C132.684 166.349 132.968 166.254 133.252 166.206C134.246 166.039 135.099 165.515 136.022 165.206C136.211 165.134 136.401 165.015 136.543 164.872C137.632 163.848 138.65 162.753 139.455 161.443C139.786 160.895 139.999 160.3 139.999 159.633C139.999 158.704 139.857 157.752 140.473 156.918C140.662 155.799 141.183 154.799 141.657 153.798C141.775 153.536 141.941 153.274 142.012 152.989C142.533 151.06 143.409 149.297 144.143 147.487C144.403 146.892 144.64 146.297 144.9 145.725C145.397 144.582 145.895 143.439 146.416 142.32C146.605 141.891 146.889 141.51 147.078 141.081C147.647 139.795 148.215 138.509 148.736 137.199C148.996 136.58 149.399 136.009 149.635 135.389C150.251 133.889 150.819 132.365 151.316 130.817C151.861 129.15 152.429 127.507 152.926 125.816C153.4 124.268 153.826 122.72 154.205 121.148C154.347 120.577 154.228 120.005 154.418 119.505C154.655 118.814 154.631 118.147 154.631 117.457C154.584 115.623 154.844 113.765 154.394 111.956C154.442 111.217 154.276 110.503 154.11 109.812C153.731 108.383 153.376 106.978 152.666 105.692C152.5 105.406 152.405 105.073 152.287 104.74C152.05 104.144 151.814 103.549 151.553 102.977C151.032 101.834 150.796 100.62 150.559 99.405C150.488 99.0478 150.606 98.6429 150.653 98.2619C150.677 98.0714 150.819 97.8094 150.748 97.6427C150.559 97.1902 150.748 96.7377 150.725 96.2853C150.677 95.547 150.819 94.8802 150.985 94.1657C151.08 93.6656 151.364 93.2131 151.458 92.713C151.577 91.9033 151.885 91.1651 152.027 90.3792C152.121 89.9029 152.334 89.4266 152.121 88.8788C151.932 88.4263 152.027 87.8548 152.098 87.3308C152.263 87.2356 152.405 87.0927 152.571 87.0927C153.447 87.0451 153.992 86.4021 154.655 85.9734C155.081 85.6876 155.389 85.2589 155.838 84.997C156.194 84.8065 156.336 84.3778 156.407 84.0206C156.549 82.9965 156.383 82.0677 155.673 81.258C155.176 80.6627 154.631 80.1387 153.897 79.8291C154.015 79.4243 154.134 79.0671 154.228 78.686C154.442 77.8287 154.749 76.9713 154.844 76.0902C154.962 75.1614 154.962 74.185 154.868 73.2562C154.749 72.3274 154.631 71.3986 154.584 70.446C154.56 70.0888 154.347 69.7316 154.228 69.3506C154.181 69.2077 154.134 69.041 154.086 68.8743C154.063 68.7076 153.873 68.5647 154.063 68.3742C154.205 68.3027 154.347 68.2074 154.513 68.1598C155.341 67.9217 156.052 67.4692 156.809 67.0643C157.59 66.6595 158.017 65.8736 158.703 65.3735C158.845 65.2782 158.916 65.1115 158.987 64.9686C159.556 64.0636 160.029 63.0872 160.432 62.1108C160.692 61.4678 160.976 60.8486 161.236 60.2294C161.355 59.9437 161.45 59.6579 161.568 59.3959C162.112 58.1099 162.255 56.7525 162.539 55.4188C162.633 54.9187 162.562 54.3948 162.61 53.8708C162.633 53.5136 162.823 53.1088 162.752 52.7515C162.657 52.3705 162.562 52.0133 162.586 51.6322C162.633 50.9178 162.397 50.2748 162.136 49.6318C161.994 49.2746 161.757 48.965 161.639 48.6077C161 47.0121 159.698 46.0357 158.443 44.9879C158.395 44.9402 158.301 44.8926 158.23 44.8688C157.377 44.7259 156.738 44.0115 155.838 44.0115C155.767 44.0115 155.673 43.94 155.602 43.9162C155.176 43.7495 154.915 43.4875 154.868 42.9636C154.82 42.2492 154.702 41.5347 154.252 40.9155C154.11 40.7488 154.11 40.4392 154.11 40.1773C154.11 38.8198 153.731 37.5814 152.903 36.4621C152.263 35.5572 151.624 34.676 150.796 33.8901C150.322 33.4138 149.848 32.9613 149.138 32.7708C148.499 32.5803 147.907 32.1992 147.244 32.0087C146.392 31.7468 145.516 31.6039 144.593 31.6515C143.077 31.7706 141.515 31.461 140.023 31.9135C139.928 31.9135 139.857 31.9135 139.763 31.9135C139.029 31.8658 138.342 32.1278 137.656 32.3183C136.614 32.5803 135.69 33.128 134.838 33.7234C134.649 33.6758 134.53 33.652 134.412 33.6281C133.062 33.2709 131.713 32.8899 130.269 32.9375C129.558 32.9375 128.848 33.1042 128.138 32.9375C127.949 32.8899 127.712 32.9613 127.499 33.009C126.197 33.2709 124.871 33.5567 123.498 33.8663C123.284 33.5091 123.071 33.1995 122.882 32.8661C122.764 32.6755 122.693 32.4136 122.527 32.3421C121.982 32.104 121.769 31.5562 121.414 31.1514C121.106 30.818 120.751 30.6036 120.372 30.4131C119.804 30.175 119.236 30.0083 118.715 29.6987C118.218 29.4129 117.579 29.3653 117.105 28.9366C117.034 28.8652 116.797 28.8652 116.655 28.9128C116.419 28.9842 116.253 28.9366 116.04 28.9128C115.282 28.7461 114.524 28.7937 113.767 28.9128C112.796 29.0795 111.849 29.3176 110.855 29.3176C110.002 29.2938 108.345 29.651 107.516 30.0083C107.256 30.1273 106.972 30.2226 106.688 30.3417C106.049 30.6036 105.433 30.8656 104.936 31.3657C104.628 31.6515 104.226 31.8182 103.894 32.0325C103.208 31.4848 102.568 30.9132 101.905 30.3893C101.148 29.8416 100.461 29.1748 99.5615 28.8652C98.0936 28.365 96.6257 27.9364 95.0631 28.0078C93.6663 28.0554 92.2694 27.8887 90.8725 28.246C90.186 28.4365 89.452 28.4841 88.7417 28.6032C88.3392 28.6985 87.9131 28.7937 87.5343 28.9604C86.4689 29.4367 85.4035 29.8892 84.3854 30.4131C83.4147 30.9132 82.4203 31.4848 81.6864 32.3183C81.0945 32.9613 80.4316 33.6043 80.3132 34.5569C79.745 34.414 79.1531 34.295 78.6322 34.0806C78.064 33.8425 77.4248 34.0806 76.8803 33.7472C76.7856 33.6996 76.5961 33.6996 76.5014 33.7472C76.0043 34.0092 75.5307 33.9616 75.0336 33.7472C74.9152 33.6996 74.7731 33.7234 74.6547 33.7472C73.6604 33.9616 72.666 34.1759 71.719 34.5569C70.8666 34.938 69.967 35.1999 69.091 35.5333C68.8069 35.6524 68.5228 35.7715 68.3097 35.962C67.6941 36.5098 66.9602 36.8908 66.4393 37.5338C66.2736 37.7243 66.0605 37.891 65.8711 38.0339C65.3739 38.3911 64.2138 39.5581 63.906 40.0106C63.0537 41.3442 62.2487 42.7016 62.1303 44.3449C61.7989 45.1069 61.8462 45.8452 62.1303 46.6073C62.225 46.8216 62.225 47.1074 61.8936 47.3694H59.1709C58.7684 47.3694 58.3896 47.3694 58.0108 47.4408C57.0164 47.679 56.0457 47.8933 55.0987 48.2982C54.0806 48.7268 53.2046 49.2746 52.447 50.0605C52.2103 50.2986 51.9498 50.5129 51.7367 50.7987C51.5473 51.0131 51.2632 51.2988 51.2869 51.537C51.3343 52.0133 50.9318 52.0609 50.766 52.2991C50.695 52.4181 50.624 52.5372 50.624 52.6563C50.6477 53.1088 50.3872 53.3707 50.1505 53.6803C49.5586 54.4424 49.1798 55.2997 49.0851 56.2523C49.0377 56.9668 49.0141 57.7289 49.1088 58.4433C49.1561 59.0149 49.1798 59.5388 48.943 60.0627C48.7773 60.3723 48.7536 60.7296 48.943 61.0392C49.3218 61.6822 49.3692 62.4204 49.5823 63.0396C49.5349 63.1825 49.5112 63.3016 49.4639 63.3492C48.8483 63.8969 48.4458 64.6114 48.0907 65.3497C47.8539 65.8498 47.4988 66.2546 47.4515 66.85C47.4278 67.1358 47.191 67.3977 47.0727 67.6597C46.9543 67.8978 46.8596 68.136 46.7885 68.3742C46.6228 68.9219 46.4571 69.4458 46.315 69.9698C46.0309 71.0891 45.7468 72.2084 45.5101 73.3277C45.3917 73.8278 45.4627 74.3279 45.3207 74.8518C44.9655 76.114 44.9418 77.4476 44.7288 78.7575C44.563 79.7339 44.8708 80.7341 44.5157 81.6867C44.492 81.7343 44.492 81.782 44.5157 81.8296C44.8945 82.8775 44.6341 83.9491 44.6814 85.0208C44.7051 85.5209 44.7761 86.0448 44.5157 86.545C44.4683 86.6402 44.4447 86.8069 44.492 86.9022C44.7761 87.3785 44.6104 87.8071 44.492 88.2596C44.421 88.4501 44.421 88.7121 44.492 88.9026C44.9182 89.9029 44.492 91.046 44.9418 92.0462C44.8708 93.0464 45.0366 94.0229 45.226 94.9754C45.3917 95.7613 45.439 96.571 45.6521 97.3569C46.0546 98.762 46.1967 100.215 46.7175 101.572C46.7412 101.62 46.7412 101.667 46.7412 101.691C46.9543 103.144 47.2621 104.549 47.9723 105.859C47.996 105.859 47.996 105.93 48.0197 105.978C48.6352 107.693 49.3692 109.383 50.1742 111.051C50.3399 111.432 50.4583 111.836 50.6477 112.241C50.8844 112.694 51.0975 113.17 51.3816 113.575C51.5947 113.908 51.9262 114.123 51.9262 114.575C52.4944 115.575 53.0152 116.599 53.4651 117.647C53.5361 117.838 53.6308 118.052 53.7492 118.219C54.7199 119.791 55.5248 121.434 56.4008 123.053C56.756 123.696 57.0401 124.363 57.4662 124.958C57.8451 125.482 58.1765 126.054 58.4369 126.626C59.3129 128.674 60.6625 130.484 61.5148 132.532C62.225 133.341 62.2487 134.556 63.101 135.27C63.1484 135.318 63.1484 135.366 63.1484 135.389C63.4088 135.985 63.6693 136.58 63.9297 137.152C64.2611 137.89 64.6163 138.628 64.9004 139.367C65.4686 140.891 65.9658 142.439 66.7708 143.868C67.1022 144.511 67.41 145.177 67.7415 145.844C68.0966 146.559 68.4754 147.273 68.9963 147.916C69.6829 148.797 70.3695 149.631 71.4112 150.107C71.4112 150.631 71.4585 151.107 71.4112 151.56C71.3638 152.084 71.6716 152.56 71.4349 153.084C71.3875 153.227 71.4112 153.441 71.4822 153.584C71.719 154.06 71.6479 154.584 71.6716 155.108C71.6716 155.918 71.6243 156.751 71.719 157.561C71.7663 158.037 71.7663 158.466 71.4112 158.919C71.1744 158.919 70.8666 158.942 70.5825 158.919C69.7065 158.823 68.8779 159.061 68.0729 159.3C66.3209 159.824 64.8767 160.895 63.5272 162.086C62.6512 162.848 61.8462 163.682 60.9466 164.372C59.2656 165.634 57.5373 166.778 55.8563 168.04C54.4594 169.088 52.8969 169.85 51.3579 170.683C51.1212 170.802 50.8844 170.921 50.6477 170.993C49.3929 171.493 48.1144 172.017 46.9069 172.66C45.8415 173.208 44.7524 173.66 43.616 174.041C42.6216 174.398 41.6509 174.827 40.6329 175.184C39.0703 175.732 37.5077 176.232 35.9214 176.756C35.732 176.827 35.519 176.946 35.3295 176.97C34.9271 176.97 34.5956 177.185 34.2405 177.328C33.8853 177.494 33.5302 177.637 33.1751 177.78C32.157 178.185 31.139 178.614 30.1209 179.042C28.3689 179.733 26.6406 180.495 24.8649 181.066C22.4737 181.876 20.2245 182.972 17.9043 183.9C17.3834 184.115 16.8862 184.377 16.4127 184.663C15.5367 185.21 14.6371 185.687 13.6664 186.044C13.4059 186.139 13.1218 186.282 12.8614 186.425C12.4589 186.663 12.0801 186.925 11.6539 187.139C10.9437 187.52 10.186 187.83 9.47578 188.259C9.42842 188.282 9.3574 188.306 9.31005 188.33C9.23902 188.544 9.16799 188.759 9.14432 188.949C8.69448 191.521 9.33372 193.784 10.5412 195.808C11.8907 197.046 13.2402 198.237 14.6134 199.428C55.0277 208.978 165.403 230.506 182 185.377C181.858 184.543 181.716 183.734 181.598 182.876L181.574 182.924Z" fill="#807C76"/>
</g>
</svg>
