<?xml version="1.0" encoding="utf-8"?>
<!-- Generator: Adobe Illustrator 27.5.0, SVG Export Plug-In . SVG Version: 6.00 Build 0)  -->
<svg version="1.1" id="Calque_1" xmlns="http://www.w3.org/2000/svg" xmlns:xlink="http://www.w3.org/1999/xlink" x="0px" y="0px"
	 viewBox="0 0 160 205" style="enable-background:new 0 0 160 205;" xml:space="preserve">
<style type="text/css">
	.st0{clip-path:url(#SVGID_00000067943078441212695640000011533857591131117498_);}
	.st1{fill:#CCCCCC;}
	.st2{fill:#333333;}
</style>
<g>
	<g>
		<g>
			<defs>
				<rect id="SVGID_1_" width="160" height="205"/>
			</defs>
			<clipPath id="SVGID_00000178187076684032051260000007797002883120033469_">
				<use xlink:href="#SVGID_1_"  style="overflow:visible;"/>
			</clipPath>
			<g style="clip-path:url(#SVGID_00000178187076684032051260000007797002883120033469_);">
				<path class="st1" d="M45.6,21.2c0,0,16.9-26.9,34.4-2.8c0,0,4.4-17.7,24.5-16c20.1,1.8,20.7,11.1,20.7,11.1s6.5-11.8,24.4,1.3
					c0,0,10.4,12,1.2,20.8c0,0,11.4,3.1,3.8,16.6c0,0-7.6,5.4-11,4.4c0,0-11.2,15.5-23.6,0.1c0,0-15.9,13.7-28.7,6.8
					s-8.8-10.8-8.8-10.8S73.4,68,62.1,65C50.8,62.1,48,54.6,48,54.6s-9.4,12-15.6,2S30.3,43,30.3,43S18.8,34.8,29,26.2
					C39.2,17.7,45.6,21.2,45.6,21.2L45.6,21.2z"/>
				<path d="M38.9,167.8c0,0,18.5,21.9,58,18.8c39.5-3.1,48.8-16.1,48.8-16.1s5.2,26.5-22,30.3s-66.3,1.8-78.1-8.8
					C33.9,181.5,38.9,167.8,38.9,167.8L38.9,167.8z"/>
				<path class="st2" d="M12.2,76.4c0,0-6.4,29.9,0,35.5c6.4,5.5,25.7,17,25.7,17v-5.3c0,0-25.5-14.8-22.8-23.2S20,83.2,20,83.2
					L12.2,76.4L12.2,76.4z"/>
				<g>
					<path d="M116.1,24.2c0.1-0.4,0-0.9,0-1.3c0.1-1.1,0.1-2.1-0.2-3c0-0.2,0-0.5-0.1-0.7c-0.3-0.3-0.7-0.5-1-0.8
						c-0.1-0.1-0.3,0-0.4,0c-0.4,0-1.4,0.7-1.8,1.1c-0.3,0.4-0.2,0.7-0.2,1.1c0,0.3-0.1,0.7,0,1.1c0.1,0.5-0.3,0.8-0.4,1.2
						c-0.1,0.6-0.1,1.1,0,1.7c0,0.6-0.7,0.9-0.4,1.5c-0.3,0.2-0.2,0.7-0.5,0.9c-0.4,0.4-0.6,1-0.9,1.5c-0.1,0.1,0,0.2-0.1,0.3
						c-0.3,0.3-0.6,0.6-0.9,0.9c-0.3,0.2-0.5,0.5-0.6,0.9c-0.1,0.5-0.7,0.5-1,0.7c-0.5,0.4-0.9,0.8-1.3,1.3
						c-0.5,0.6-1.2,0.7-1.6,1.2c-0.6,0.7-1.3,1.1-2,1.6c-0.7,0.5-1.5,0.8-2.2,1.4c-0.3,0.3-0.9,0.3-1.2,0.6
						c-0.4,0.4-0.8,0.6-1.3,0.5c0,0-0.1,0-0.1,0.1c-0.3,0.4-0.8,0.7-1.4,0.6c-0.4-0.1-0.5,0.3-0.8,0.4c-0.4,0.1-0.7,0-1.1,0.1
						c-0.1,0-0.2,0.4-0.5,0.1c-0.3-0.4-0.4,0.3-0.7,0.2c-0.3-0.1-0.5,0.3-0.9,0.4c-0.4,0.1-0.1,0.6-0.2,1c0,0.2-0.1,0.4-0.2,0.5
						c-0.1,0.1-0.1,0.2,0,0.3c0.3,0.3,0.5,0.7,0.8,0.8c0.4,0.1,0.6,0.3,0.6,0.7l0.1,0.1c0.5,0,1,0.3,1.4-0.2c0.1-0.2,0.2-0.1,0.3,0
						c0.2,0.1,0.4,0.2,0.5,0.2c0.2-0.1,0.4-0.3,0.6-0.4c0.3-0.1,0.7,0.1,0.9-0.2c0.4-0.4,1,0.1,1.3-0.5c0.4,0,0.7,0,1.1,0
						c0.2,0,0.4,0,0.6,0c0.6,0,1.2,0.2,1.7,0c0.5-0.2,0.9-0.5,1.4-0.7c0.7-0.4,1.5-0.7,2.3-1.1c0.3-0.2,0.5-0.4,0.7-0.6
						c0.1-0.1,0.3-0.1,0.5-0.2c0.2,0,0.4,0,0.5-0.1c0.7-0.9,1.8-1.2,2.5-2.1c0.1-0.2,0.3-0.4,0.4-0.4c0.8,0,1-0.8,1.5-1.2
						c0.5-0.5,1-1,1.4-1.5c0.3-0.4,0.6-0.8,0.8-1.2c0.3-0.4,0.6-0.8,0.8-1.2c0.2-0.5,0.7-0.9,0.5-1.5c-0.1-0.6,0.4-1,0.4-1.5
						c0-0.7,0-1.3,0-1.9C116.5,26,116,25.1,116.1,24.2z"/>
					<path d="M146.9,26.1c-0.1-0.3,0-0.7,0-1.1c0-0.5-0.1-0.9,0-1.5c0.1-0.5-0.3-0.8-0.4-1.2c-0.1-0.3,0-0.7,0-1.1
						c0-0.4-0.6-0.6-0.4-1c0.1-0.4-0.3-0.5-0.4-0.8c-0.1-0.2,0.1-0.6,0-0.9c0-0.1-0.2-0.3-0.3-0.4c-0.4-0.3-0.7-0.8-1.1-1
						c-0.3-0.1-0.7,0.1-1-0.3c0-0.1-0.2-0.2-0.3-0.1c-0.4,0.4-1.2,0.4-1.4,1.2c-0.2,0.8-0.3,0.8-0.3,1.2c0,0.4-0.2,0.9,0.3,1.2
						c0,0.5,0,1,0,1.5c0,0.3,0.1,0.7-0.1,0.9c-0.2,0.4-0.2,0.9-0.6,1.1c-0.3,0.2-0.3,0.6-0.5,0.9c-0.6,0-0.6,0.3-0.7,0.7l-0.1,0.1
						c-0.7-0.1-0.8,0.7-1.4,0.8c-0.3,0.1-0.6,0.6-1,0.7c-0.4,0.2-0.6,0.5-0.9,0.7s-0.7,0.3-1,0.7c-0.3,0.4-0.6,0.8-1.2,0.6
						c-0.4,0.3-0.9,0.3-1.3,0.8c0,0.2-0.2,0.4-0.4,0.3c-0.4-0.1-0.8,0.1-1,0.4c-0.5-0.2-0.6,0.3-0.9,0.5c-0.1,0.1-0.2,0.2-0.3,0.2
						c-0.6-0.1-1.1,0.3-1.7,0.4c-0.1,0-0.4,0-0.5-0.1c-0.4-0.5-0.9-0.2-1.4-0.3c0,0-0.1,0-0.1,0.1c-0.1,0.2-0.1,0.5-0.3,0.6
						c-0.2,0.1-0.5,0-0.6,0.3c-0.2,0.5-0.5,0.9-0.4,1.5c0,0.2,0,0.6,0.1,0.7c0.2,0.2,0.6,0.1,0.8,0.4c0.1,0.1,0.3,0.1,0.5,0.1
						c0.5,0,1,0.2,1.4-0.3c0.6,0,1.2,0,1.8,0c0.2,0,0.2,0.2,0.3,0.4c0.1,0.4,0.4,0.8,0.9,0.7c0.8-0.2,1.6,0.3,2.3-0.4
						c0.4,0,0.9-0.1,1.3,0c0.6,0.1,0.9-0.5,1.4-0.4c0.3,0,0.7,0,1-0.3c0.2-0.3,0.9,0.1,1.1-0.4c0.8-0.1,1.4-0.9,2.3-0.8
						c0.1,0,0.2-0.2,0.3-0.2c0.9-0.3,1.5-1.2,2.4-1.4c0.3-0.1,0.4-0.6,0.8-0.7c0.5-0.1,0.7-0.5,1-0.8s0.3-0.8,0.7-1
						c0.5-0.3,0.5-0.9,0.9-1.3C146.3,27.3,147,26.8,146.9,26.1z"/>
					<path d="M80.9,38.2c-0.3,0-0.6,0-0.9,0c-0.1,0-0.1,0-0.2,0c-0.3,0-0.8,0.5-0.8,0.7c-0.1,0.6,0.1,1.2-0.1,1.7
						c-0.2,0.5-0.5,0.9-0.7,1.4c0,0.1,0.1,0.3,0,0.4c-0.2,0.4-0.5,0.8-0.4,1.3c-0.8,0.3-0.6,1.7-1.7,1.7c-0.2,0.2-0.1,0.7-0.5,0.9
						c-0.2,0.1-0.6,0.2-0.7,0.4c-0.1,0.4-0.1,0.5-0.5,0.6c-0.3,0.1-0.6,0.5-0.9,0.8c-0.4,0.3-0.9,0.3-1.2,0.8
						c-0.2,0.4-0.5,0.7-1,0.7c-0.2,0.4-0.7,0.1-0.9,0.5c-0.2,0.4-0.8,0.4-1,0.7c-0.3,0.5-0.9,0.5-1.3,0.9c-0.7-0.1-0.8,0.9-1.5,0.8
						c-0.5,0.5-1.2,0.6-1.8,1c-0.6,0.4-1.2,0.4-1.8,0.7c0,0,0,0.1-0.1,0.1c-0.4,0-0.8,0-1.3,0s-0.7,0.5-1.2,0.4
						c-0.3-0.1-0.7,0-1.1,0c-0.8,0-0.8,0-1.6-0.6C57.6,54,57.4,54,57.2,54c-0.1,0-0.2,0.2-0.3,0.2c-0.5,0-0.8,0.3-0.7,0.8
						c0,0.1,0,0.2,0,0.2c-0.1,0.8,0.1,1.3,0.8,1.4c0.3,0.1,0.4,0.5,0.8,0.4c0.2,0.2,0.2,0.5,0,0.4c0.2,0.3,0.5,0.6,0.8,0.7
						c0.2,0.1,0.4,0.2,0.6,0.3c0.3,0.1,0.6,0.1,0.9,0.1c0.2,0,0.6,0,0.7,0.1c0.4,0.5,1,0.2,1.4,0.3c0.5,0.2,0.7-0.5,1.2-0.4
						s1,0,1.5,0c0.3-0.6,1-0.1,1.3-0.5c0.3-0.3,0.9-0.2,1.1-0.6c0.5,0,0.8-0.6,1.4-0.4c0.1,0,0.3-0.2,0.4-0.3
						c0.2-0.1,0.4-0.3,0.6-0.4c0.5-0.3,1.2-0.4,1.6-1c0.8,0,1-0.9,1.7-0.9c0.3-0.3,0.6-0.6,0.9-0.9c0.2-0.3,0.5-0.5,0.9-0.6
						c0.5-0.1,0.5-0.7,0.7-1c0.4-0.5,0.9-0.9,1.3-1.3c0.5-0.5,1-1,1.5-1.4c0.5-0.4,0.5-1.1,1.1-1.4c0.5-0.3,0.4-1,0.9-1.3
						c-0.1-0.4,0.5-0.6,0.5-1.1c0-0.3,0.5-0.6,0.6-1c0.2-0.6,0.6-1,0.5-1.7c-0.1-0.6,0-1.1,0-1.7c0.4-0.2,0.4-0.7,0.4-1.1
						c0-0.5-0.1-0.9-0.5-1.3C81.6,38.4,81.3,38.1,80.9,38.2z"/>
					<path d="M57.5,38.2h1.3c0.8,0,1.8,0,2.4,0.1c0.3,0,0.4-0.5,0.8-0.4c0.1,0,0.4,0,0.5-0.1c0.6-0.4,1.3-0.6,2-1
						c0.1,0,0.2,0,0.3-0.1c0.3-0.5,0.9-0.5,1.3-0.9c0.4-0.4,0.8-0.8,1.2-1.2c0.7,0.1,0.9-0.6,1.3-0.9c0.3-0.2,0.6-0.5,0.8-0.8
						c0.3-0.3,0.5-0.7,0.7-1c0.2-0.3,0.5-0.6,0.8-0.8c0.5-0.3,0.3-0.8,0.7-1.1c0.7-0.6,0.7-1.5,1.1-2.2c0.2-0.4,0.1-0.7,0.1-1.1
						c0-0.7-0.1-1.4,0-2.1c0.1-1.6-0.4-1.8-1.8-1.7c-0.2,0-0.5,0-0.7,0.1c-0.3,0.1-1.3,1.5-1.2,1.9c0.1,0.6-0.4,1.1-0.4,1.7
						c-0.1,0.6-1.1,0.9-0.8,1.7c0.1,0.1-0.1,0.2-0.2,0.3c-0.7,0.7-1.4,1.4-2.1,2.1c-0.4,0.4-1.1,0.4-1.4,1c-0.1,0.2-0.4,0-0.5,0.1
						c-0.3,0.4-0.8,0.4-1.2,0.7c-0.3,0.3-0.8,0.3-1.1,0.5c-0.4,0.3-0.8,0.5-1.2,0.7c-0.4,0.2-0.8,0.6-1.3,0.4
						c-0.4,0.6-1,0.4-1.5,0.4c-0.3,0-0.7,0-1.1,0c-0.2,0-0.5,0.1-0.7,0c-0.2-0.1-0.3-0.4-0.6-0.4c-0.1,0-0.2-0.2-0.4-0.3
						c-0.2-0.1-0.5,0-0.7-0.1c-0.2,0-0.4-0.2-0.6-0.4S53,33,52.7,33s-0.6,0-0.9,0c-0.4,0-0.8,0.5-0.8,1c0,0.3,0.2,0.4,0.4,0.5
						c0,0.2-0.3,0.4-0.3,0.6s0.1,0.3,0.2,0.5c0.2,0.3,0.7,0.2,0.9,0.5c0.2,0.3,0.5,0.8,0.9,0.9c0.3,0.1,0.6,0.4,0.8,0.4
						c0.5,0.1,0.8,0.3,1.2,0.4c0.3,0.1,0.7,0.3,1.1,0.4C56.6,38.3,57.1,38.2,57.5,38.2z"/>
					<path d="M141.7,45.2c-0.3-0.2-0.1-0.5-0.2-0.7c-0.1-0.3-0.3-0.5-0.4-0.8c-0.2-0.8-0.2-0.8-0.9-0.8c-0.5,0-0.9,0.6-1.5,0.4
						c-0.1,0-0.3,0.3-0.5,0.5c-0.3,0.2-0.5,0.5-0.7,0.7c-0.2,0.3-0.4,0.7-0.5,1.1c-0.3,1.1-0.4,1.3-0.9,1.9
						c-0.6,0.7-1.4,0.9-2.1,1.3c-0.3,0.2-0.6,0.2-0.8,0.4c-0.3,0.3-0.6,0.1-0.9,0.2c-0.3,0.1-0.4,0.5-0.8,0.4c-0.3-0.1-0.6,0-0.9,0
						c-0.4,0-0.9-0.2-1.2,0.2c-0.1,0.1-0.2,0.1-0.3,0c-0.4-0.3-0.4-0.3-1.4-0.3c-0.2,0-0.3-0.1-0.5-0.2c-0.5-0.2-0.8-0.2-1.1,0.1
						c-0.4,0.4-0.7,0.8-0.9,1.3c-0.1,0.3,0,0.5,0.1,0.8c0.3,0.8,1,1.2,1.5,1.8c0,0,0.1,0,0.2,0c0.4,0.1,0.7,0.3,1.1,0.5
						c0,0,0,0.1,0.1,0.1s0.1,0.1,0.2,0.1c0.4,0.1,0.8-0.2,1.2,0.2c0.4,0.4,0.9,0.1,1.4,0.2c0.4,0.1,0.8,0.1,1,0
						c0.5,0,0.7-0.5,1.2-0.4c0.4,0.1,0.8,0.1,1-0.3c0.5,0.1,0.6-0.4,1-0.4c0.4,0,0.7-0.6,1.2-0.4c0.1,0.1,0.2,0,0.3-0.1
						c0.3-0.3,0.5-0.7,1-0.7c0.4-0.4,0.8-0.7,1.3-0.9c0.4-0.2,0.2-0.7,0.5-0.9c0.3-0.3,0.6-0.6,0.9-0.9c0,0,0-0.1,0-0.2
						c0-0.7,0.5-1,0.7-1.6c0.2-0.6,0.7-1,0.5-1.7c0-0.2,0.1-0.4,0.2-0.5C142,45.4,141.8,45.3,141.7,45.2z"/>
				</g>
				<g>
					<path d="M160,46.2c0-1.3,0-2.6,0-4c0-0.4-0.1-0.9,0-1.3c0.1-0.5-0.5-0.6-0.4-1.2c0.1-0.5-0.6-0.8-0.4-1.3
						c0-0.1-0.3-0.3-0.3-0.4c-0.1-0.5-0.5-0.9-0.7-1.4s-0.5-1-0.8-1.5c-0.3-0.7-0.7-1.2-1.5-1.4c-0.1,0-0.2-0.2-0.3-0.2
						c-0.3-0.2-0.1-0.3,0-0.5c0.1-0.4,0-0.9,0.2-1.2c0.2-0.3,0.4-0.6,0.3-1c-0.1-0.4,0.3-0.7,0.4-1c0.1-0.5,0.1-1,0-1.5
						c-0.2-0.6,0.4-0.9,0.4-1.4s0-1,0-1.5c0-0.4,0.1-0.9-0.4-1.2c0-0.5,0-1,0-1.5c0-0.1-0.1-0.1-0.1-0.1c-0.5-0.4-0.1-1.1-0.6-1.5
						c-0.1-0.1,0-0.5,0-0.7c0-0.3-0.2-0.4-0.3-0.7c-0.2-0.3-0.3-0.7-0.5-1.1c-0.2-0.4-0.4-0.8-0.6-1c-0.3-0.3-0.5-0.7-0.7-1.1
						c-0.2-0.5-0.5-0.9-0.9-1.3c-1.2-1.2-2.5-2.4-3.7-3.7c-0.4-0.4-0.9-0.6-1.3-0.9c-0.3-0.2-0.7-0.2-0.9-0.5
						c-0.2-0.4-0.7-0.2-0.9-0.5s-0.5-0.5-0.8-0.8c-0.1-0.1-0.2-0.1-0.3-0.1c-0.4,0.1-0.7-0.3-1-0.4c-0.4-0.1-0.6-0.4-0.9-0.6
						c-0.1-0.1-0.3-0.2-0.5-0.2c-0.7,0.1-1.2-0.4-1.8-0.6c-0.5-0.2-1-0.7-1.7-0.5c-0.2,0.1-0.4,0-0.5-0.1c-0.4-0.5-1-0.7-1.7-0.6
						c-0.7,0.1-1.4,0-2,0c-0.7,0-1.4-0.2-1.9,0.4c-0.5,0-1,0.1-1.5,0c-0.6-0.2-0.9,0.5-1.5,0.4c-0.4-0.1-0.8-0.2-1.2,0.2
						c-0.4,0.4-0.8,0.1-1.2,0.2c-0.1,0-0.1,0.1-0.1,0.1c-0.2,0.4-0.7,0.1-1,0.3c-0.4,0.2-0.7,0.5-1.1,0.7c-0.3,0.2-0.7,0.2-1-0.1
						c-0.1-0.1-0.1-0.1-0.1-0.1c-0.4-0.4-0.8-0.8-1.2-1.2c-0.5-0.4-0.8-0.9-1.4-1.1c-0.5-0.2-0.8-0.7-1.2-1.1
						c-0.2-0.2-0.6-0.2-0.8-0.4c-0.3-0.3-0.7-0.2-1-0.4c-0.3-0.1-0.5-0.5-0.8-0.7c-0.1-0.1-0.2-0.1-0.4,0C117,2.8,116.6,2,116,2.3
						c-0.3-0.7-1.1-0.1-1.4-0.7c-0.6,0-1.1,0-1.7-0.1c-0.2,0-0.4-0.1-0.5-0.2c-0.4-0.4-1,0.1-1.3-0.5c-0.4,0-1,0.1-1.2-0.2
						c-0.5-0.4-0.9-0.2-1.4-0.2c-1.1,0-2.1,0-3.2,0c-0.5,0-1,0.1-1.3-0.4c-0.1-0.1-0.3-0.1-0.4,0c-0.2,0.2-0.4,0.4-0.8,0.4
						c-0.4-0.1-0.7,0.1-1-0.3c-0.1-0.1-0.6-0.2-0.7-0.1c-0.5,0.5-1.1,0.3-1.7,0.4c-0.3,0-0.7-0.1-0.9,0c-0.2,0-0.4,0.4-0.6,0.3
						c-0.6-0.2-0.8,0.4-1.4,0.4s-1.2-0.2-1.8,0.2c-0.5,0.4-1.3-0.2-1.7,0.5c-0.3,0-0.6,0-0.9,0c-0.4,0.1-0.5,0.5-1,0.4
						c-0.5-0.1-0.8,0.6-1.3,0.4C89.6,2.9,89.3,3,89,3.2c-0.2,0.1-0.4,0.2-0.7,0.3c-0.2,0-0.3,0.3-0.6,0.4c-0.9,0.4-1.8,0.8-2.6,1.5
						c-0.5,0-0.7,0.5-1,0.8c-0.4,0.3-0.8,0.6-1.2,0.7c-0.7,0.3-1.2,0.8-1.6,1.4c-0.3,0.4-0.5,0.9-0.4,1.5c0,0.1,0,0.1,0,0.2
						c-0.1,0.1-0.1,0.2-0.2,0.2c-1-0.1-1.3,0.4-1.3,1.3c0,0.2-0.3,0.4-0.5,0.5c-0.1,0-0.3-0.2-0.4-0.3c-0.2-0.3-0.5-0.4-0.6-0.9
						c-0.1-0.3-0.4-0.7-0.7-0.8c-0.7-0.3-1.2-0.8-1.7-1.4c-0.2-0.2-0.5-0.3-0.8-0.4c-0.4-0.1-0.7-0.6-1-0.6c-0.5,0-0.7-0.6-1.1-0.5
						c-0.3-0.4-0.7-0.4-1.2-0.4c-0.3-0.4-0.8-0.5-1.2-0.7c-0.4-0.2-1-0.1-1.5-0.1c-0.1,0-0.3,0-0.3-0.1C68,5.5,67.5,5.7,67,5.7
						c-1.8,0-3.6,0-5.4,0c-0.5,0-1-0.2-1.4,0.4c-0.4,0-0.8,0.1-1.1,0C58.6,6,58.4,6.7,58,6.5c-0.5-0.2-0.9,0.2-1.4,0.4
						c-0.4,0.1-0.5,0.5-0.9,0.4c-0.4-0.1-0.6,0.4-1,0.4c-0.8,0.1-1.5,0.7-2.2,0.9c-0.2,0.5-0.8,0.4-1.2,0.8c-0.6,0-0.8,0.8-1.3,0.8
						c-0.6,0.1-0.7,0.9-1.4,0.8c-0.1,0.2-0.1,0.5-0.3,0.7c-0.3,0.3-1,0.5-1,1.3c0,0.1-0.1,0.1-0.1,0.1c-0.6,0-0.8,0.5-1.2,0.8
						c-0.2,0.2-0.2,0.5-0.4,0.8c-0.2,0.2-0.5,0.4-0.5,0.5c0,0.3-0.3,0.5-0.4,0.8c-0.1,0.2-0.2,0.4-0.3,0.6c-0.1,0.2,0,0.7-0.2,0.8
						c-0.2,0.3-0.4,0.5,0,0.7c-0.1,0.1-0.1,0.2-0.2,0.2c-0.4,0.1-0.5-0.3-0.8-0.4c-0.4-0.1-0.7,0-1.1-0.1c-0.4-0.5-0.9-0.3-1.4-0.3
						c-0.6,0-1.1,0-1.7,0.1c-0.2,0.4-0.7,0.4-1,0.3c-0.5-0.2-0.7,0.5-1.2,0.4c-0.4-0.1-0.9-0.1-1.1,0.4c-0.4,0-0.9,0-1.2,0.4
						c-0.5-0.1-0.8,0.7-1.3,0.4c-0.4,0.2-0.8,0.3-1.1,0.6c-0.3,0.4-0.8,0.5-1.2,0.8c-0.3,0.2-0.7,0.2-0.9,0.5
						c-0.2,0.4-0.7,0.2-0.9,0.5c-0.3,0.4-0.8,0.6-0.8,1.2c-0.2,0.2-0.3,0.5-0.7,0.5c-0.4,0-0.6,0.4-0.8,0.7
						c-0.3,0.7-0.4,0.7-0.4,1.5c0,0.5-0.1,0.7-0.6,0.9c-0.3,0.1-0.6,0.4-0.5,0.9c0.1,0.3-0.1,0.4-0.3,0.6c-0.5,0.4-0.7,0.9-0.8,1.5
						c-0.1,0.3,0,0.7-0.1,0.9c-0.3,0.3-0.1,0.7-0.5,0.9c-0.1,0.1-0.2,0.4-0.1,0.5c0.2,0.2,0.3,0.4,0.1,0.7c-0.2,0.3-0.1,0.8-0.2,1.2
						c-0.5,0.4-0.3,0.9-0.3,1.4c0,0.2,0.1,0.5,0,0.7c-0.2,0.3-0.5,0.5,0,0.8c0.1,0,0,0.4-0.1,0.5c-0.3,0.2-0.1,0.4,0.1,0.5
						c0,0,0,0.2-0.1,0.2c-0.2,0.2-0.2,0.3,0,0.4c0.2,0.1,0.5,0.1,0.5,0.2c-0.1,0.6,0.5,1,0.4,1.5c0,0.5,0,1,0.5,1.3
						c0.4,0.3,0.6,0.7,0.8,1.2c0.1,0.1,0.2,0.2,0.2,0.3c0,0.4,0.3,0.5,0.5,0.7c0.2,0.2,0.4,0.4,0.5,0.5c0.2,0.2,0.5,0.4,0.5,0.7
						c0.1,0.2,0.3,0.6,0.5,0.7c0.4,0.1,0.6,0.2,0.8,0.4c0.1,0.1,0.1,0.2,0.1,0.3c-0.4,0.3-0.3,0.8-0.2,1.2c0.1,0.5-0.5,0.8-0.4,1.4
						c0,0.4,0,0.9,0,1.3c0,0.5-0.1,1,0.4,1.3c0.1,0.5-0.2,1.1,0.2,1.6c0.4,0.5,0.2,1.1,0.2,1.6c0.1,0.7,0.7,1.2,0.4,1.9
						c0,0.1,0.1,0.2,0.2,0.3c0.4,0.3,0.5,0.7,0.7,1.1c0.2,0.3,0.5,0.4,0.9,0.5c0.2,0.9,1.1,1.3,1.6,2c0.4,0.6,1.2,0.6,1.6,1.2
						c0.2,0.3,0.6,0,0.9,0.2c0.4,0.2,0.7,0.4,1,0.7c0.1,0.1,0.2,0.3,0.3,0.4c0.1,0.3,0,0.6,0,0.9c-0.7,0.5-0.3,1.1-0.4,1.7
						c0,0.3,0,0.6,0,0.9c0,0.1-0.1,0.1-0.1,0.1s-0.1,0-0.1-0.1c-0.4-0.4-0.7-0.9-1.2-1.2c-0.4-0.3-0.9-0.5-1.4-0.7
						c-0.2-0.1-0.3-0.2-0.4-0.4c-0.3-0.4-0.9-0.3-1.2-0.8c-0.3-0.3-0.8-0.4-1.2-0.7c-0.4-0.2-0.8-0.5-1.2-0.7
						c-0.6,0.2-1-0.4-1.5-0.4c-0.4-0.6-1.2-0.1-1.6-0.7c-0.5-0.1-1,0.2-1.4-0.3c-0.6,0-1.1-0.1-1.7-0.1c-0.4,0-0.9,0-1.3,0
						c-0.2,0-0.4,0-0.5-0.1c-0.3-0.4-0.8-0.3-1.2-0.3c-0.4,0-0.9,0-1.3,0c-0.5,0-1,0.1-1.5,0c-0.5-0.1-0.7,0.5-1.2,0.4
						c-0.5-0.2-0.9,0.3-1.3,0.3c-0.5,0-0.8,0.5-1.4,0.4c-0.2,0.2-0.4,0.4-0.8,0.4c-0.2,0-0.4,0.1-0.5,0.2c-0.4,0.3-0.6,0.8-1.1,0.9
						C10,63,9.9,63.5,9.5,63.8c-0.5,0.3-0.8,0.9-1.5,1c-0.1,0-0.4,0.2-0.4,0.4c-0.1,0.5-0.4,0.9-0.8,1.1c-0.5,0.4-0.4,1-0.9,1.3
						c-0.4,0.2-0.6,0.7-0.8,1.1c-0.3,0.5-0.4,1.2-0.9,1.7c0.2,0.4-0.4,0.6-0.4,1c0.1,0.4-0.1,0.7-0.4,0.9c-0.2,0.2-0.3,0.3-0.4,0.6
						c-0.1,0.5,0.1,1.1-0.3,1.6C2.4,75,3,75.8,2.4,76.1c-0.1,0.5,0.2,1.2-0.2,1.6C1.7,78.3,2,78.9,2,79.5c0,0.4,0,0.8-0.4,1.2
						c-0.2,0.2,0,0.7-0.3,1c-0.2,0.3-0.1,0.8-0.1,1.2c0,0.3,0.1,0.7,0,0.9c-0.5,0.8-0.3,1.7-0.4,2.5c0,0.1,0,0.3-0.1,0.4
						c-0.5,0.3-0.3,0.8-0.3,1.2c0,0.4,0,0.9,0,1.3C-0.3,90,0,91,0,91.9c-0.1,3.6-0.1,7.2,0,10.8c0,0.7-0.3,1.4,0.4,1.9v1.5
						c0.5,0.4,0.4,0.9,0.4,1.4c0.1,0.6-0.1,1.2,0.4,1.7c0.2,0.2,0.1,0.7,0.1,1.1c0.6,0.3,0.1,0.9,0.5,1.3c0.4,0.3,0,1,0.5,1.3
						c-0.1,0.5,0.2,0.9,0.4,1.3c-0.2,1,0.6,1.7,0.9,2.6c0.5,0.3,0.5,1,0.9,1.3c-0.1,0.7,0.7,0.8,0.8,1.4c0,0.2,0.4,0.5,0.5,0.7
						c0.2,0.2,0.3,0.5,0.4,0.8c0.2,0.5,0.4,0.8,0.8,1.2c0.3,0.3,0.6,0.6,0.9,0.9c0.3,0.3,0.6,0.6,0.9,0.9c0.4,0.4,0.7,0.7,1.1,1.1
						c0.5-0.1,0.8,0.4,1,0.7c0.3,0.4,0.8,0.4,1.1,0.7c0.5,0.4,0.8,0.9,1.4,1.1c0.4,0.6,1.2,0.6,1.6,1.2c0.2,0.3,0.7,0.2,0.9,0.5
						c0.2,0.4,0.7,0.4,1.1,0.6c0.3,0.3,0.7,0.4,1.1,0.5c0.5,0.1,0.6,0.8,1.2,0.8c0.3,0.3,0.7,0.6,0.9,0.9c0.2,0.2,0.5,0.2,0.6,0.3
						c0.3,0.4,0.9,0.3,1.2,0.8c0.3,0.4,0.8,0.4,1.2,0.8c0.4,0.4,0.9,0.5,1.3,0.9c0.2,0.2,0.6,0.1,0.8,0.4c1,0.4,1.8,0.9,2.8,1.4
						c0.9,0.4,1.9,0.9,2.8,1.4c0.6,0.3,1.2,0.7,1.9,1c0.7,0.4,1.4,0.1,2.2,0.1c0.2,0,0.4,0.1,0.4,0.3V164c0,0.5,0.1,0.9,0,1.3
						c-0.1,0.5,0.4,0.8,0.4,1.1c0.1,1.3,0,2.6,0,3.9c-0.7,0.7-0.3,1.5-0.4,2.3c-0.1,1,0,2,0,3v3c0,0.5,0,1,0,1.5
						c-0.1,0.5,0.5,0.8,0.4,1.4c-0.1,0.4,0,0.8,0,1.3c0.5,0.4,0.3,0.9,0.4,1.4c0,0.1,0,0.1,0.1,0.2c0,0.1,0.1,0.1,0.1,0.1
						c0.5,0.9,0.9,1.8,1.3,2.7c0,0,0,0.1,0,0.2c0.3,0.4,0.6,0.7,0.8,1.2s0.7,0.8,1.1,1.2c0.4,0.3,0.7,0.7,0.8,1.2
						c0.5-0.1,0.6,0.3,0.7,0.7c0,0.1,0.2,0.1,0.3,0.1c0.3,0,0.4,0.3,0.6,0.4c0.2,0.1,0.3,0.3,0.4,0.4c0.3,0,0.4,0.2,0.6,0.3
						c0.2,0.2,0.2,0.4,0.3,0.6c0.2,0.3,0.5,0.5,0.8,0.8c0.2,0.2,0.5,0.7,0.8,0.8c0.5,0.1,0.8,0.5,1.2,0.8c0.4-0.1,0.6,0.4,0.9,0.4
						c0.4,0,0.5,0.5,1,0.4c0.1,0,0.3,0.2,0.4,0.4c0.2,0.3,0.5,0.4,0.8,0.4c0.1,0,0.4,0.1,0.5,0.2c0.5,0.4,0.8,1.1,1.7,0.9
						c0.1,0,0.2,0.1,0.3,0.2c0.3,0.2,0.5,0.6,0.9,0.5c0.5-0.1,0.6,0.5,1.1,0.4c0.4-0.1,0.8-0.1,1,0.3c0.6-0.1,1,0.5,1.5,0.4
						c0.6-0.1,1,0.4,1.5,0.4c0.4,0,0.8,0,1.2,0.4c0.2,0.2,0.7,0,1,0.3c0.3,0.2,0.8,0.1,1.2,0.1c0.2,0,0.6-0.1,0.7,0.1
						c0.5,0.5,1,0.2,1.5,0.3c0.2,0,0.6-0.1,0.7,0.1c0.4,0.4,0.8,0.2,1.2,0.3c0.6,0.1,1.2-0.2,1.7,0.4c0.4,0,0.9,0.1,1.3,0
						c0.6-0.1,0.8,0.4,1.3,0.4c0.7,0,1.4-0.3,1.9,0.4c0.5,0,1,0.1,1.5,0c0.5-0.1,0.9,0.3,1.3,0.4c0.5,0.1,1-0.2,1.4,0.2
						c0.5,0.4,1.1,0.1,1.6,0.2c0.5,0,1,0,1.5,0c0.2,0,0.5,0,0.5,0.1c0.3,0.4,0.8,0.3,1.2,0.3H83c0.4,0,0.7,0,1,0.3
						c0.1,0.2,0.4,0,0.6-0.2c0.1-0.1,0.4-0.2,0.5-0.1c0.3,0.4,0.6,0.4,1,0.4c0.7,0.1,1.5-0.3,2.1,0.4c0.1,0.1,0.3,0,0.4,0
						c0.2-0.4,0.6-0.3,1-0.3h6.2c0.2,0,0.6-0.1,0.7,0.1c0.4,0.4,0.8,0.3,1.2,0.3c1-0.1,2.1,0.3,3-0.4c0.2-0.1,0.6,0,0.9,0
						c0.5,0.6,1.1,0.3,1.7,0.4c0.3,0,0.5-0.4,0.8-0.4c0.7,0.1,1.5-0.3,2.1,0.4c0.4,0,0.7,0,1.1,0c0.3-0.5,0.8-0.3,1.2-0.3
						c0.4,0,0.8,0,1.1,0s0.6,0,0.9,0c0.3-0.1,0.5-0.5,0.8,0c0.4-0.5,1-0.3,1.5-0.4c0.5-0.1,1.1,0.2,1.5-0.4c0.5,0,1.1,0.1,1.5-0.4
						h1.7c0.4,0,0.9,0,1.3,0c0.4-0.5,0.9-0.3,1.4-0.4c0.2,0,0.4,0,0.5-0.1c0.4-0.5,1-0.1,1.4-0.4c0.5-0.4,1-0.4,1.6-0.3
						c0.4,0,0.5-0.2,0.8-0.4c0.3-0.1,0.7,0.1,1-0.3c0.2-0.2,0.7-0.1,1-0.1c0.2,0,0.5,0.1,0.5,0c0.3-0.4,0.7-0.3,1-0.4
						c0.4-0.1,0.7-0.4,1.1-0.4c0.3,0,0.6-0.3,0.9-0.4c0.2-0.1,0.4-0.3,0.7-0.3c0.7,0.2,1.1-0.3,1.7-0.5c0.2-0.1,0.3-0.2,0.5-0.2
						c0.6-0.2,2-0.7,2.3-1.1c0.3-0.4,0.8-0.3,1.1-0.6c0.2-0.2,0.6-0.2,0.9-0.5c0.3-0.3,0.7-0.5,1-0.7c0.3-0.1,0.6-0.1,0.8-0.4
						c0.2-0.4,0.7-0.3,0.9-0.5c0.6-0.5,1.1-1,1.6-1.6c0.5-0.5,1.3-0.6,1.7-1.3c0.6-0.2,0.4-1,0.9-1.3c0.4-0.3,0.9-0.7,0.8-1.4
						c0-0.1,0.3-0.4,0.5-0.5c0.2-0.2,0.3-0.4,0.3-0.6c-0.1-0.3,0.1-0.4,0.2-0.6c0.2-0.5,0.6-0.9,0.5-1.5c0-0.2,0.3-0.4,0.4-0.6
						c0.1-0.3,0-0.6,0.2-0.9c0.4-0.6,0.7-1.2,0.6-2c0-0.2,0-0.4,0.1-0.5c0.4-0.4,0.2-0.8,0.3-1.2c0.1-0.5,0.5-0.8,0.4-1.4
						c-0.1-0.5,0-1.1,0-1.7v-1.3c0.7-0.5,0.3-1.3,0.4-1.9c0.1-0.9,0-1.9,0-2.8c0-0.7,0.2-1.5-0.4-2.1c0-0.4,0-0.7,0.1-1.1
						c0.5-0.3,0.3-0.8,0.3-1.2c0-1.2,0-2.5,0-3.7c0-0.4,0-0.7,0.4-1c0.1-0.1,0.1-0.3,0-0.4c-0.6-0.5-0.4-1.3-0.4-1.9
						c0-3,0-6.1,0-9.2c0-0.5-0.1-0.9,0.4-1.4c0.1-0.1,0.1-0.6,0-0.7c-0.4-0.3-0.4-0.8-0.4-1.2V140c0-0.6-0.1-1.2,0-1.8
						c0.2-0.7-0.4-1-0.4-1.5c0.1-0.8,0-1.6,0-2.4c0-0.3,0.1-0.6,0.3-0.8c0.1-0.1,0.1-0.4,0-0.5c-0.3-0.2-0.3-0.5-0.3-0.8
						c0-1.1,0-2.2,0-3.4c0-0.4,0-0.7,0.4-1c0.1,0,0-0.4-0.1-0.5c-0.2-0.2-0.4-0.5-0.2-0.6c0.3-0.3,0.4-0.6,0.3-1
						c0-1.7-0.1-3.5,0-5.2c0-0.9-0.4-2,0.4-2.8c0.1-0.1,0-0.3-0.1-0.3c-0.5-0.6-0.3-1.3-0.2-1.9c0.4-0.2,0.1-0.4-0.1-0.7
						c-0.1-0.1,0-0.4,0-0.6v-1.3c0-0.5,0.1-1,0-1.5c-0.1-0.5,0.5-0.6,0.4-1.2c-0.1-0.6,0-1.2,0-1.9v-5.8c0-0.7,0.1-1.4,0-2.1
						c-0.1-0.7,0.5-1.1,0.4-1.7c-0.1-0.5,0-1,0-1.5V85.1c0-0.5,0-1,0-1.5c0.7-0.4-0.3-0.8-0.1-1.2c0.1-0.2,0-0.6,0.1-0.7
						c0.4-0.3,0.3-0.7,0.3-1V64.4c0-0.7,0.1-1.4,0-2c-0.2-0.7,0.6-1.2,0.4-1.9c-0.1-0.5,0-1.1,0-1.7c0-0.4,0.2-0.4,0.5-0.4
						c0.2,0,0.5,0,0.7-0.2c0.2-0.2,0.3-0.6,0.7-0.5c0.4,0,0.5-0.6,1-0.4c0.5-0.5,1.2-0.5,1.7-0.9c0.5-0.4,0.8-1.1,1.5-1.3
						c0.7-0.3,1-0.9,1.5-1.3c0.3-0.2,0.6-0.5,0.7-0.8c0.1-0.2,0.2-0.4,0.4-0.6c0.1-0.4-0.1-0.9,0.4-1.1c0-0.3,0-0.6,0-0.9
						c0-0.5-0.2-1,0.4-1.4c0.1-0.4-0.2-0.9,0.2-1.2C160.2,47.2,159.9,46.7,160,46.2z M35.4,91.8c-0.2,0.3-0.1,0.6-0.1,0.9v26.7
						c0,0-0.1,0.2-0.1,0.3c-0.1-0.1-0.2-0.1-0.2-0.1c-0.5-0.4-0.9-0.9-1.3-1.3c-0.6,0.1-0.8-0.5-1.2-0.8c-0.1-0.1-0.1-0.5-0.3-0.6
						c-0.2-0.1-0.4-0.1-0.7-0.3c-0.2-0.2-0.5-0.2-0.7-0.4c-0.5-0.5-1.1-0.9-1.5-1.6c-0.5-0.8-0.8-1-1.7-1.5
						c-0.3-0.1-0.5-0.4-0.8-0.4c-0.3-0.6-1.2-0.1-1.6-0.8c-0.3-0.5-1-0.6-1.5-0.8c-0.5-0.3-1.1-0.5-1.5-0.8
						c-0.2-0.1-0.3-0.2-0.5-0.2c-0.6,0.1-0.7-0.3-0.7-0.8c0.1-0.4-0.5-0.5-0.4-1c-0.6-0.4-0.7-1.1-1.2-1.6c-0.4-0.4-0.6-0.9-0.7-1.6
						c-0.1-0.4-0.5-0.8-0.4-1.3c-0.4-0.2-0.4-0.6-0.4-1c0-0.5,0.1-1-0.4-1.3v-3.9c0.7-0.7,0.3-1.6,0.4-2.5c0-0.4,0.5-0.5,0.4-0.9
						c-0.1-0.4,0-0.8,0-1.1c0.5-0.3,0.4-0.8,0.4-1.3c0-0.4,0.5-0.7,0.4-1.2c-0.1-0.4,0.5-0.5,0.4-0.9c0.3-0.2,0.4-0.4,0.4-0.8
						c0-0.2,0.1-0.4,0.2-0.5c0.8-0.9,1.1-2,1.7-3.1c0.2-0.4,0.4-0.4,0.7-0.2c0.7,0.4,1.4,0.7,2,1s1.2,0.7,1.8,0.9
						c0.1,0.1,0.2,0.2,0.3,0.2c0.5-0.1,0.8,0.4,1.1,0.4c0.7-0.1,1.1,0.7,1.7,0.4c0.4,0.4,0.9,0.5,1.4,0.8s1.1,0.4,1.5,1
						c0.5,0.1,0.9,0.6,1.5,0.5c0.4,0,0.8,0.3,1.1,0.5c0.3,0.2,0.5,0.5,0.8,0.8L35.4,91.8z M35.8,73.4c0,1.5,0,3.1,0,4.7
						c0,0.4-0.1,0.7-0.4,1c0.4,0.8,0.2,1.3,0.3,1.8c0.1,0.6-0.5,1.1-0.4,1.7c0.1,0.7,0,1.4,0,2.1v1.9l-0.1,0.1
						c-0.1,0.2-0.1,0.1-0.3,0c-0.4-0.4-0.7-1-1.4-1c-0.5,0-1-0.4-1.5-0.4c-0.1,0-0.3,0-0.3-0.1c-0.2-0.4-0.7-0.2-0.9-0.5
						c-0.2-0.3-0.7,0.1-1-0.3c-0.2-0.3-0.7-0.1-0.9-0.5c-0.6,0.1-1-0.3-1.5-0.4c-0.1,0-1.4-0.6-1.4-0.6c-0.3-0.2-0.5-0.6-0.9-0.5
						c-0.2-0.4-0.6-0.3-1-0.4c-0.4-0.1-0.5-0.4-1-0.4c-0.2,0-0.5-0.3-0.8-0.4c-0.4-0.1-0.6-0.4-0.9-0.6c-0.3-0.2-0.7-0.2-0.9-0.5
						c-0.8,0.1-1.4-0.5-2.1-0.8c-0.3-0.1-0.7-0.4-0.7-0.8c0-0.2-0.1-0.3-0.4-0.3c-0.4,0.1-0.7-0.1-0.9-0.4c-0.7-0.7-1.3-1.3-2-2
						c-0.1-0.8-0.8-1.1-1.2-1.5c-0.3-0.3-0.8-0.3-1.1,0c-0.4,0.4-0.5,0.9-0.2,1.3c0.1,0.2,0.3,0.3,0.4,0.4c0.2,0.2,0,0.3-0.1,0.4
						c-0.1,0.1-0.2,0.4-0.1,0.5c0.1,0.2,0.5,0.4,0.4,0.8c0.6,0.9,2.9,3.4,3.6,3.9c0.7-0.1,0.8,0.9,1.5,0.8c0.4,0.4,0.9,0.5,1.4,0.7
						c0.2,0.1,0.3,0.5,0.2,0.6c-0.1,0.1-0.2,0.2-0.3,0.2c-0.5,0.6-1.2,1-1.6,1.8c-0.3,0.7-0.6,1.2-0.9,1.8c-0.1,0.2-0.1,0.4-0.1,0.5
						c0,0.2,0,0.5-0.3,0.6c-0.7,0.4-0.3,1.3-0.9,1.7c-0.1,0.5,0.2,1-0.3,1.4c0,0.4-0.1,0.8-0.1,1.3c0.1,0.6-0.5,1.1-0.4,1.7
						c0.1,0.6,0,1.2,0,1.9c-0.7,0.7-0.3,1.5-0.4,2.3c0,0.2-0.1,0.4-0.2,0.7c-0.2,0.3-0.2,0.4,0,0.6c0.2,0.2,0.2,0.4,0.2,0.7
						c0.1,0.6-0.3,1.2,0.3,1.8c0,0.6,0,1.2,0.1,1.8c0.1,0.4,0.5,0.7,0.4,1.2c-0.2,0.5,0.4,0.7,0.4,1.2c0.1,0.3,0.4,0.5,0.4,0.9
						c0,0.1,0.1,0.2,0.1,0.3c0.2,0.4,0.8,0.5,0.6,1c-0.2,0.4-0.8,0.1-1.2,0.2c-0.2,0-0.5,0-0.5,0.1c-0.3,0.5-0.8,0.1-1.2,0.4
						c-0.1,0.1-0.2,0.2-0.3,0.2c-1.1-0.1-1.4,0.8-2,1.4c0,0,0.3,0.3,0.2,0.4c0,0.2-0.4,0.2-0.1,0.5c0.5,0.4,0.9,0.9,1.4,1.3
						c0.3,0.2,0.7,0.5,1.1,0.5c0.4,0.1,0.8,0.1,1.2-0.2c0.4-0.3,1-0.4,1.5-0.5c0.5-0.1,1.1-0.1,1.7,0.1c0.2,0.1,0.5,0.3,0.8,0.3
						s0.6,0,0.9,0c0.1,0,0.1,0,0.2,0.1c0.2,0.5,0.8,0.1,1.1,0.4c0.2,0.3,0.6,0.2,0.8,0.4c0.4,0.3,0.9,0.4,1.2,0.8
						c0.3,0.3,0.8,0.4,1.2,0.7c0.4,0.3,0.8,0.6,1.1,1c0.2,0.2,0.6,0.1,0.8,0.4c0.2,0.5,0.8,0.4,1.2,0.8c0.4,0.4,0.7,0.7,1.1,1.1
						c0.1,0,0.1,0.1,0.1,0.1c0.6-0.1,0.7,0.6,1.2,0.8c0.2,0.1,0.4,0.1,0.5,0.2c1.3,1.1,1.8,1.4,3.8,2.1c0.3,0.1,0.6,0.3,0.9,0.5
						c0.3,0.2,0.5,0.5,0.5,0.9c-0.1,1.9,0,3.8,0,5.8v5.4c0,0.3,0.1,0.7-0.2,0.9c-0.2-0.2-0.3-0.4-0.5-0.5c-0.1-0.1-0.3-0.1-0.5-0.2
						c-0.4-0.2-0.8-0.3-1.1-0.6c-0.4-0.4-0.8-0.5-1.2-0.8c-0.4-0.2-0.7-0.4-1.1-0.7c-0.4-0.3-0.9-0.5-1.3-0.9
						c-0.6,0-0.8-0.5-1.2-0.8c-0.7,0.2-0.8-0.8-1.4-0.8c-0.2,0-0.4-0.3-0.6-0.4c-0.3-0.2-0.5-0.6-1-0.7c-0.4-0.1-0.5-0.6-1-0.8
						c-0.4-0.1-0.7-0.6-1-0.7c-0.4-0.1-0.6-0.4-0.9-0.6c-0.2-0.1-0.4-0.5-0.5-0.5c-0.5,0-0.7-0.5-1.1-0.7c-0.3-0.1-0.6-0.4-0.9-0.4
						c-0.4,0-0.5-0.5-0.9-0.4c-0.4-0.5-1-0.6-1.4-1c-0.4-0.4-0.9-0.4-1.2-0.8c-0.3-0.4-0.7-0.8-1.1-1c-0.4-0.2-0.8-0.3-1-0.7
						c-0.3-0.3-0.6-0.7-1-0.7c-1-1-2-1.9-2.9-2.9c0-0.1-0.1-0.1-0.1-0.1c-0.2-0.5-0.4-1-0.7-1.4c-0.3-0.4-0.8-0.8-1.2-1.2
						c-0.1-0.2-0.2-0.4-0.3-0.6c-0.1-0.2-0.1-0.5-0.3-0.7c-0.2-0.2-0.5-0.4-0.6-0.7c-0.1-0.4,0-0.8-0.4-1.1c0.1-0.4-0.1-0.8-0.3-1.2
						c-0.2-0.3,0-0.7-0.3-1c-0.3-0.3,0.1-0.9-0.4-1.1c0-0.4,0.1-0.9-0.1-1.1c-0.5-0.6-0.4-1.2-0.3-1.7c0.1-0.5-0.3-0.8-0.4-1.2
						c-0.1-0.4,0.1-0.8-0.2-1.2c-0.1-0.1-0.1-0.4-0.1-0.7c0-1.4,0-2.9,0-4.3c0-0.5,0.1-1.1-0.4-1.5c0-0.3-0.1-0.6,0.2-0.9
						c0.2-0.1,0.1-0.2,0-0.4c-0.3-0.5-0.3-0.6,0-1.1c0.1-0.1,0.2-0.2,0-0.3c-0.3-0.2-0.2-0.5-0.2-0.8c0-0.4,0.5-0.5,0.4-1
						c-0.1-0.3,0-0.6,0-0.9v-1.1c0-0.2,0-0.4,0-0.5c-0.2-1,0.5-1.2,0.3-1.8c-0.1-0.5,0-1,0-1.5c0.6-0.6,0.4-1.4,0.4-2.1
						c0-0.4,0.5-0.7,0.4-1.2c-0.1-0.4,0-0.9,0-1.3c0.6-0.5,0.4-1.2,0.4-1.9c0-0.5,0.5-0.8,0.4-1.4c-0.1-0.4,0-0.9,0-1.3
						c0.6-0.2,0.1-0.9,0.5-1.3c0.2-0.2,0.2-0.4,0.2-0.7c0-0.5,0-1,0.1-1.5c0.5-0.4,0.2-0.9,0.4-1.4c0.1-0.3,0.4-0.5,0.4-1
						c0-0.2,0.3-0.5,0.3-0.8c0-0.3,0.2-0.4,0.4-0.6c0.2-0.3,0.9-0.1,0.8-0.8c0.2-0.3,0.6-0.5,0.8-1c0.1-0.4,0.5-0.8,0.8-0.9
						c0.6-0.2,0.9-0.5,1.3-1c0.4-0.5,1-0.6,1.5-1c0.1-0.1,0.4-0.1,0.5-0.2c0.4-0.4,0.7-0.7,1.2-0.6c0.3-0.4,0.7-0.4,1.2-0.4
						c0.6,0.1,0.9-0.6,1.5-0.4c0.5,0.1,1,0.1,1.5,0c0.3,0,0.5,0.1,0.7,0.3s0.4,0.2,0.7-0.1c0.1-0.1,0.2-0.2,0.2-0.2
						c0.6,0.7,1.3,0.2,1.9,0.3c0.6,0.1,1.2,0,1.9,0c0.5,0,0.8,0.2,1.1,0.5c0.6,0.5,1.3,0.7,2,1c0.4-0.1,0.7,0.1,0.9,0.4
						c0.4,0.5,1,0.8,1.6,1.1c0.1,0,0.3,0.1,0.3,0.1c0,0.5,0.5,0.5,0.8,0.8c0.4,0.2,0.6,0.6,0.9,0.9c0.3,0.3,0.6,0.6,0.9,0.9
						c0.2,0.2,0.4,0.5,0.7,0.6c0.5,0.1,0.8,0.5,1.2,0.6V73.4z M143.1,180.8c0.1,0.4,0.2,0.8-0.2,1.1c-0.1,0.1-0.1,0.2-0.1,0.3
						c0,0.3,0,0.6-0.1,0.9c0,0.1-0.2,0.2-0.2,0.3c0,0.7-0.6,1.3-0.5,2c-0.4,0.5-0.5,1-0.8,1.5c-0.1,0.2-0.1,0.5-0.3,0.6
						c-0.4,0.4-0.5,0.9-0.7,1.4c-0.1,0.1-0.1,0.2-0.2,0.3c-0.4,0.4-0.8,0.8-1.2,1.2c-0.4,0.4-0.8,0.7-1.1,1.1s-0.9,0.4-1.2,0.8
						c-0.3,0.4-0.8,0.6-1.2,0.7c-0.5,0.1-0.7,0.7-1.2,0.8c-0.6,0.1-1.1,0.5-1.5,0.9c-0.1,0.1-0.3,0.2-0.5,0.2
						c-0.4,0-0.6,0.1-0.8,0.4c-0.2,0.2-0.3,0.5-0.6,0.4c-0.3,0-0.4,0.3-0.6,0.4c-0.1,0-0.3-0.2-0.4-0.3c-0.3,0.6-1.1,0.1-1.4,0.7
						c-0.6,0.1-1.1,0.5-1.7,0.5c-0.2,0-0.5,0.3-0.8,0.3c-0.3,0.1-0.6,0-1,0c-0.1,0-0.2,0.2-0.2,0.3c0,0.4-0.1,0.6-0.5,0.2
						c-0.1-0.1-0.3-0.1-0.5-0.1c-0.1,0-0.2,0.2-0.3,0.3c-0.3,0.4-0.7,0.5-1.1,0.4c-0.2,0-0.5,0-0.7,0.2c-0.2,0.3-0.3,0-0.4-0.1
						c-0.6-0.3-0.8-0.2-1.1,0.4c-0.1,0.1-0.1,0.1-0.1,0.1c-0.3,0.1-0.7,0-0.9,0.2c-0.3,0.2-0.4,0.4-0.7,0.1c-0.2-0.1-0.6,0-0.9,0
						l-0.1,0.1c-0.3,0.3-0.5,0.2-0.8,0c-0.3-0.3-0.5-0.2-0.6-0.1c-0.4,0.4-0.8,0.8-1.4,0.6c-0.4-0.1-0.6,0.4-1,0.4
						c-0.4,0-0.8-0.1-1.1,0c-0.9,0.6-1.9,0.2-2.9,0.4c-0.4,0.1-0.7-0.7-1,0c-0.4,0-0.9,0-1.3,0c-0.2,0-0.3,0.2-0.5,0.2
						c-0.2,0.1-0.4,0.1-0.6,0l-0.3-0.2c-0.5,0.7-1,0.2-1.6,0c-0.2-0.1-0.6-0.1-0.8,0.2c-0.1,0.1-0.4,0.2-0.5,0.2
						c-0.7-0.7-1.5-0.3-2.3-0.4c-0.7-0.1-1.5,0-2.2,0c-0.4,0.6-0.7,0.3-1.2,0c-0.4-0.2-1,0.2-1.4-0.3c-0.5,0-1-0.1-1.5-0.1
						c-0.3,0-0.6,0.1-0.8,0.3c-0.1,0.1-0.3,0.1-0.3,0.1c-0.5-0.5-1.1-0.3-1.7-0.4c-0.4,0-0.7,0-0.9,0.4c-0.1-0.1-0.3-0.2-0.4-0.4
						c-0.5,0.6-1.1,0.3-1.7,0.3c-0.2,0-0.4-0.2-0.6-0.3c-0.1,0-0.3,0.3-0.4,0.3c-0.5,0-1,0.2-1.4-0.3c-0.5,0.6-1.3,0.3-1.9,0.4
						c-0.7-0.7-1.5-0.2-2.3-0.4c-0.2,0-0.4,0.1-0.5,0.2c-0.2,0.1-0.2,0.2-0.4,0.1c-0.1-0.2-0.4-0.2-0.6-0.3
						c-0.6-0.3-1.1-0.2-1.5,0.2c0,0-0.1,0.1-0.5,0c-0.1,0-0.1-0.1-0.1-0.1c-0.6,0.1-1.2-0.2-1.7-0.4c-0.5-0.1-1.1-0.1-1.7,0
						c-0.5,0-0.8-0.2-1.2-0.4c-0.5-0.2-0.9-0.5-1.5-0.4c-0.9,0.1-1.7,0-2.6,0c-0.5,0.1-0.8-0.3-1.2-0.4c-0.4-0.1-0.9,0.2-1.2-0.2
						c-0.1-0.1-0.3-0.1-0.5-0.1c-0.6,0-1.2,0-1.9,0c-0.3,0-0.5-0.1-0.7-0.3c-0.3-0.4-0.6-0.5-1.1-0.5c-0.5,0.1-0.9-0.1-1.4-0.3
						s-1.2,0.2-1.7-0.4c-0.1,0-0.2,0.1-0.3,0.2c-0.3,0.2-0.4,0.2-0.6,0c-0.2-0.3-0.7-0.2-0.9-0.5c-0.1-0.2-0.6-0.1-0.9-0.1
						c-0.1,0-0.1,0-0.2,0c-0.4-0.2-0.8-0.3-1.1-0.6c-0.4-0.3-1,0.1-1.3-0.5c-0.5,0.1-0.7-0.6-1.2-0.4c0,0-0.1-0.3-0.2-0.4
						c-0.1-0.1-0.1-0.3-0.2-0.3c-0.5,0.2-0.9-0.3-1.4-0.4c-0.8-0.1-1.5-0.6-2.2-1c-0.4-0.2-0.7-0.4-1.1-0.6
						c-0.3-0.2-0.5-0.5-0.8-0.8c-0.3-0.2-0.4-0.6-0.9-0.6c-0.2,0-0.2-0.2-0.3-0.4c-0.2-0.5-0.5-0.8-1.1-0.7c-0.4,0-0.7-0.3-0.7-0.7
						c-0.1-0.4,0-0.8-0.6-0.9c-0.2,0-0.5-0.4-0.5-0.5c0.1-0.7-0.8-0.7-0.8-1.4c-0.4-0.4-0.7-0.9-1.1-1.2c-0.5-0.4-0.8-0.9-0.8-1.5
						c0-0.4-0.5-0.8-0.7-1.2c-0.1-0.3-0.1-0.7-0.3-1c-0.2-0.2-0.1-0.7-0.1-1.1c0.1-0.5-0.5-0.8-0.4-1.3c0.1-0.4,0-0.9,0-1.3
						c-0.7-0.6-0.3-1.4-0.4-2.1c-0.1-0.6,0.1-1.2-0.4-1.7c-0.2-0.2-0.1-0.6,0-0.9c0-0.1,0.1-0.2,0.2-0.3c0.1,0.1,0.1,0.1,0.1,0.1
						c0.5,0.4,0.9,0.9,1.3,1.3c0.7,0.1,1,0.7,1.4,1.1c0.5,0.4,0.9,0.8,1.3,1.3c0.3,0.3,0.7,0.2,0.9,0.5c0.2,0.3,0.5,0.5,0.9,0.6
						c0.3,0.1,0.5,0.6,0.8,0.7c0.3,0.1,0.6,0.3,0.7,0.5c0.2,0.3,0.5,0.2,0.8,0.4c0.3,0.2,0.4,0.6,0.9,0.6c0.4,0,0.5,0.4,0.9,0.5
						c0.4,0.1,0.8,0.4,1,0.6c0.3,0.3,0.6,0.4,0.9,0.5c0.8,0.4,1.6,0.7,2.3,1.2c0.2,0.1,0.4,0.2,0.7,0.2c0.2,0,0.6-0.1,0.7,0.1
						c0.3,0.5,1,0,1.3,0.5c0.1,0.1,0.3,0.2,0.5,0.2c0.2,0,0.5,0,0.6,0.2c0.3,0.5,0.8,0.5,1.3,0.5c0.4,0,0.7,0,1.1,0
						c0.3,0.6,0.9,0.1,1.3,0.5c0.3,0.4,0.8,0,1.2,0.4c0.2,0.4,0.7,0.1,1,0.2c0.2,0,0.6,0,0.7,0.1c0.3,0.5,1,0,1.3,0.5
						c0.2,0.3,0.6,0,0.8,0.2c0.3,0.2,0.5,0.4,0.8,0.3c0.4-0.1,0.5,0.3,0.8,0.4c0.1,0,0.2,0,0.4,0c0.5,0.1,1-0.2,1.4,0.3
						c0.1,0.2,0.6,0.1,0.9,0.1l1.5,0.1c0.3,0.6,1,0,1.3,0.5c0,0.1,0.1,0.1,0.1,0.1c0.4,0,0.9,0.1,1.3,0c0.5-0.1,0.8,0.4,1.2,0.4
						c0.4,0,0.9,0.1,1.3,0c0.6-0.1,0.9,0.3,1.4,0.4c0.4,0.1,0.9,0,1.3,0c0.4,0,0.9,0.1,1.3,0c0.6-0.1,0.8,0.5,1.4,0.4
						c0.4-0.1,0.9,0,1.3,0h1.5c0.9,0.7,2,0.3,3,0.4c2.9,0.1,5.9,0.1,8.8,0c0.7,0,1.5,0.4,2.1-0.3c0.1,0,0.3,0.3,0.4,0.3
						c0.5-0.1,1,0.2,1.4-0.2c0.1-0.1,0.3-0.1,0.5-0.1c0.7,0,1.5,0,2.2,0c0.3,0,0.7,0.1,0.9-0.2c0.4-0.4,0.5,0.2,0.7,0.2
						c0.1,0,0.2,0,0.4-0.1c0.1-0.1,0.3-0.3,0.4-0.3c0.7,0,1.4,0,2.1,0c0.5-0.6,1.2-0.4,1.9-0.4c0.4,0,0.6-0.4,1-0.4h2.4
						c0.2-0.7,1-0.2,1.3-0.5c0.2-0.2,0.4-0.2,0.7-0.2c0.4,0,0.7,0,1.1-0.1c0.3-0.6,1-0.1,1.3-0.5c0.1-0.1,0.2-0.2,0.3-0.2
						c0.5-0.1,0.9-0.1,1.4-0.1c0.3-0.5,0.8-0.3,1.2-0.3s0.5-0.5,1-0.4c0.4,0.1,0.8,0,1.2-0.3c0.2-0.2,0.7,0.1,1-0.3
						c0.1-0.1,0.3-0.1,0.5-0.1c0.2,0,0.6,0.1,0.7-0.1c0.3-0.5,1-0.1,1.3-0.5c0.2-0.2,0.6-0.2,0.8-0.4c0.3-0.3,0.8,0.1,1-0.3
						c0.2-0.3,0.6-0.2,0.8-0.2c0.6-0.2,1.1-0.6,1.7-0.8c0.2-0.1,0.3-0.3,0.4-0.3c0.7,0.1,1.3-0.1,1.7-0.7c0.4,0,0.9,0.1,1.2-0.4
						c0.7-0.1,1.2-0.6,1.9-0.8c0.4-0.1,0.8-0.4,1-0.6c0.3-0.3,0.7-0.3,0.9-0.5c0.4-0.6,1.2-0.6,1.6-1.2c0.2-0.3,0.4-0.2,0.7-0.2
						s0.5-0.1,0.5-0.4c0-0.1,0.1-0.3,0.2-0.3c0.4-0.1,0.9,0.1,1.1-0.4c0.5,0.1,0.7-0.4,1-0.7c0.1-0.1,0.4-0.1,0.5-0.1
						c0.1,0,0.1,0.2,0.1,0.3v1.9c0,0.6-0.1,1.1,0,1.7C143.6,180.1,142.9,180.3,143.1,180.8z M144.1,69.7c0,1.7,0.1,3.5,0,5.2
						c-0.1,1.2,0.4,2.4-0.3,3.6c-0.2,0.3,0,0.8,0,1.3v22.4c0,0.4,0.1,0.9-0.4,1.2c-0.1,0,0,0.4,0.1,0.5c0.2,0.2,0.2,0.4,0,0.5
						l-0.1,0.1c0.7,0.4,0.2,0.8,0,1.2c-0.1,0.2-0.1,0.6,0.1,0.7c0.4,0.3,0.2,0.7,0.3,1c0.1,0.4-0.7,0.8,0,1.2c0,0.5,0,1,0,1.5
						c0,0.3-0.1,0.4-0.3,0.6c-0.2,0.2-0.1,0.4,0.1,0.7c0.1,0.1,0.2,0.2,0.2,0.2c-0.5,0.4-0.3,1-0.3,1.6c0,8,0,15.9,0,23.9
						c0,0.5,0.2,1-0.3,1.4c-0.1,0.1-0.1,0.3,0,0.4c0.6,0.6,0.3,1.4,0.4,2.1c0.1,1.4,0,2.9,0,4.3c0,0.2-0.1,0.4-0.2,0.7
						c-0.2,0.3-0.2,0.3,0,0.6c0.2,0.2,0.4,0.5,0.2,0.6c-0.4,0.4-0.5,0.7,0,1.1c0.2,0.2,0.1,0.4-0.1,0.7c-0.1,0.1-0.2,0.4-0.2,0.5
						c0.5,0.4,0.4,1,0.4,1.5c0,1.8,0,3.6,0,5.4c0,0.2,0.1,0.5-0.1,0.7c-0.4,0.3-0.4,0.6,0,0.9c0.1,0.1,0.1,0.2-0.1,0.3
						c-0.1,0.1-0.1,0.2-0.1,0.2c0.4,0.2,0.3,0.6,0.3,1v6.2c0.3,0.5-0.4,0.8-0.4,1.3c0,0.4,0.1,0.9-0.1,1.2c-0.1,0.3-0.2,0.5-0.2,0.8
						c0,0.2-0.1,0.3-0.3,0.4c-0.2,0.1-0.4,0.1-0.4,0.2c-0.2,0.6-0.5,1.1-0.8,1.5c-0.4,0.5-1.1,0.6-1.5,1c-0.3,0.3-1,0.4-1.3,0.7
						c-0.4,0.3-0.9,0.7-1.4,0.9c-0.9,0.4-1.9,0.9-2.8,1.4c-0.9,0.4-1.8,0.8-2.6,1.4c-0.5-0.1-0.7,0.5-1.2,0.4
						c-0.4-0.1-0.5,0.5-1,0.4c-0.3,0.4-0.7,0.4-1.1,0.4c-0.3,0.5-0.8,0.2-1.1,0.4c-0.3,0.2-0.7,0.2-0.9,0.5
						c-0.2,0.2-0.4,0.2-0.7,0.2c-0.4,0-0.8-0.1-1,0.3c-0.5,0-0.9,0.1-1.3,0.4c-0.5-0.2-0.8,0.5-1.4,0.4c-0.5-0.1-0.8,0.5-1.4,0.4
						c-0.2-0.1-0.5,0.2-0.8,0.3c-0.2,0.1-0.5,0-0.8,0c-0.3,0.1-0.5,0.5-1,0.4c-0.4-0.1-0.7-0.1-1,0.3c0,0.1-0.1,0.1-0.2,0.1
						c-0.6,0.1-1.2-0.2-1.7,0.4c-0.5,0.1-1.1-0.2-1.5,0.4c0,0.1-0.1,0-0.2,0c-0.6,0.1-1.2-0.3-1.7,0.4c-0.6,0-1.1,0-1.7,0
						c-0.4,0.1-0.7,0.5-1.2,0.4c-0.4-0.1-0.8-0.2-1.1,0c-0.7,0.5-1.5,0.3-2.3,0.4c-0.9,0.7-1.9,0.3-2.8,0.4c-0.5,0-0.8,0.3-1.1,0.4
						c-0.4,0.1-0.9,0-1.3,0H96c-0.5,0.1-0.8,0.5-1.4,0.4c-0.5-0.1-1,0-1.5,0h-4.5c-0.5,0-1,0-1.5,0c-0.3,0-0.5-0.1-0.6-0.3
						c-0.1-0.1-0.2-0.1-0.3,0c-0.1,0.1-0.4,0.3-0.5,0.2c-0.7-0.5-1.4-0.3-2.1-0.4c-0.9-0.1-1.8,0.2-2.7-0.4c-0.4,0-0.9,0-1.3,0
						c-0.6-0.1-1.3,0.2-1.9-0.3c-0.2-0.2-0.6-0.1-0.9-0.1c-0.5,0-1,0.2-1.4-0.4H74c-0.5-0.7-1.1-0.4-1.7-0.3c-0.5,0-0.8-0.5-1.4-0.4
						c-0.5,0-1,0.2-1.4-0.3c-0.1-0.1-0.2-0.1-0.4-0.1c-0.4,0-0.8,0.1-1.2-0.3c-0.2-0.2-0.7,0.1-1-0.3c-0.2-0.3-0.6-0.2-0.9-0.1
						c-0.5,0.1-0.9-0.2-1.3-0.4c-0.1,0-0.2,0-0.2,0c-0.4-0.6-1.1-0.1-1.5-0.4c-0.5-0.3-0.9-0.7-1.4-0.7c-0.7,0-1.2-0.4-1.8-0.7
						c-0.3-0.1-0.6-0.1-0.8-0.4c-0.2-0.3-0.6,0-0.8-0.2c-0.3-0.2-0.5-0.4-0.8-0.4c-0.3,0.1-0.5-0.1-0.6-0.3
						c-0.2-0.3-0.5-0.5-0.9-0.5c-0.1,0-0.2,0-0.4-0.1c-0.3-0.2-0.4-0.6-0.8-0.7c-0.4-0.1-0.8-0.3-1.1-0.5c-0.3-0.2-0.7-0.2-0.9-0.5
						c-0.3-0.3-0.9-0.3-1.2-0.6c-0.4-0.3-0.7-0.6-1.2-0.8c-0.4-0.2-0.6-0.6-1.1-0.7c-0.4-0.1-0.5-0.7-1-0.7c-0.1,0-0.3-0.2-0.4-0.3
						c-0.3-0.5-1-0.7-1.4-1.1c-0.4-0.4-0.7-0.8-1.3-0.9c-0.2-0.1-0.4-0.4-0.5-0.5c-0.5-0.1-0.1-0.9-0.7-0.9c-0.3,0-0.5-0.4-0.8-0.7
						c-0.4-0.3-0.6-0.7-0.8-1.1c-0.2-0.4-0.6-0.6-0.9-0.9c0.2-0.5-0.5-0.6-0.4-1.1c0.1-0.8,0-1.6,0-2.4c0-0.1,0.2-0.3,0.3-0.4
						c0.2-0.4,0.2-0.7-0.1-1c-0.1-0.1-0.2-0.2-0.2-0.2c0.7-0.8,0.2-1.8,0.3-2.7c0.1-0.9,0.1-1.7,0-2.6c0-0.4-0.3-0.7-0.3-1
						c-0.1-0.4,0-0.8,0-1.1c-0.1-0.5,0.5-0.8,0.4-1.3c-0.1-0.5,0-1,0-1.5v-7.7c0-0.4,0.1-0.9-0.4-1.2c-0.1-0.1-0.1-0.3,0-0.4
						c0.1-0.2,0.4-0.3,0.4-0.6c0-0.7,0-1.4-0.1-2.1c0-0.2-0.5-0.4-0.3-0.6c0.6-0.8,0.3-1.8,0.3-2.7c0-0.4,0.2-0.9-0.3-1.2
						c0-0.5-0.1-0.9,0.1-1.4c0.3-0.5,0.4-1-0.1-1.5c-0.1-0.1-0.1-0.1-0.1-0.1c0.9-0.5-0.1-1,0-1.6c0.2-0.9-0.3-1.8,0.4-2.7
						c0-1.2,0-2.4,0-3.5c0-0.1-0.2-0.3-0.3-0.4s-0.1-0.3-0.1-0.4c0.5-0.4,0.4-1,0.4-1.5s0.2-1.1-0.4-1.5c0.1-0.5-0.2-1,0.3-1.4
						c0.1-0.1,0.1-0.3,0.1-0.5v-6.2c0-0.3,0-0.6-0.3-0.8c0,0,0.1-0.2,0.1-0.3c0.4-0.6,0.2-1.2,0.1-1.8c-0.4-0.2-0.2-0.5,0.1-0.7
						c0-1.4,0-2.7,0-4.1c-0.5-0.4-0.5-0.8,0-1.2c0-0.8,0-1.5,0-2.2c-0.6-0.4-0.3-1-0.4-1.5c0-0.4,0-0.7-0.3-1
						c-0.2-0.2-0.2-0.7,0.1-1c0.3-0.3,0.2-0.5-0.1-0.8c-0.1-0.1-0.2-0.2,0-0.3c0.1-0.1,0.2-0.2,0.2-0.3c0-0.4,0.1-0.8,0-1.1
						c-0.1-0.4,0.4-0.6,0.4-1c0-0.4,0-0.9,0-1.3c-0.6-0.2-0.1-0.9-0.5-1.3c-0.2-0.2-0.1-0.4-0.2-0.7c-0.1-0.4,0.5-0.5,0.3-0.7
						c-0.2-0.3-0.2-0.5-0.3-0.8c0-0.4,0.1-0.7,0.4-1c0.5-0.3,0.5-0.8,0.2-1.3c-0.3-0.5-0.3-0.6,0-1.1c0.3-0.6,0.3-0.6-0.1-1.1
						c-0.2-0.3-0.1-0.5,0.1-0.8c0.1-0.1,0.2-0.4,0.1-0.5c-0.4-0.3-0.4-0.8-0.4-1.2v-2c0-0.3,0-0.6-0.3-0.8c-0.1-0.7-0.3-1.3,0.2-1.9
						c0.1-0.1,0-0.4,0.1-0.5c0.2-0.4-0.7-0.7,0-1c0-0.4,0-0.9,0-1.3c0-0.4,0-0.7-0.4-1c-0.1-0.1-0.1-0.3,0-0.4
						c0.3-0.4,0.6-0.7,0.1-1.1c0,0,0-0.2,0.1-0.3c0.2-0.2,0.3-0.4,0.1-0.6c-0.1-0.2-0.3-0.4-0.3-0.6c0-0.7,0-1.4,0-2.1
						c-0.1-0.6,0.2-1.2-0.4-1.7c0-0.5,0-1,0-1.5c0.6-0.4,0.4-1,0.4-1.6V63c0-0.2,0-0.2,0.2-0.2c0.6,0.3,1-0.5,1.5-0.4
						c0.5,0.1,0.6-0.4,1-0.4c0.4,0,0.9,0.2,1.2-0.3c0.4,0,0.6-0.4,0.9-0.4c0.5-0.1,0.6-0.4,0.9-0.7c0.2-0.2,0.6,0,0.8-0.4
						c0.2-0.4,0.7-0.4,1-0.7c0.2-0.2,0.2-0.1,0.4,0c0.3,0.3,0.7,0.3,1,0.7c0.4,0.5,1,1,1.4,1.5c0.4,0.4,0.7,0.9,1.1,1
						c0.5,0.1,0.7,0.5,1,0.7c0.4,0.2,0.9,0.3,1.3,0.5c1,0.6,2.1,1,3.1,1.6c0.1,0.1,0.3,0.2,0.5,0.2c0.6-0.1,1,0.2,1.5,0.4
						c0.3,0.1,0.5,0.5,0.8,0c0-0.1,0.4,0,0.5,0.1c0.2,0.3,0.7,0.2,0.9,0.5c0.2,0.2,0.7,0.1,1,0.1c0.4,0.1,0.9-0.2,1.2,0.3
						c0.1,0.1,0.3,0.1,0.5,0.1c0.4,0,0.8,0.1,1-0.3c0.3,0.1,0.4,0.4,0.8,0.3c0.2,0,0.5-0.1,0.7-0.2c0.3-0.2,0.4-0.2,0.6,0
						s0.5,0.4,0.7,0.2c0.3-0.3,0.6-0.3,1-0.4c0.4-0.1,0.5-0.5,1-0.4c0.1,0,0.1,0,0.2,0c0.5-0.3,1-0.6,1.5-0.7c0.3-0.7,1-0.2,1.5-0.6
						c0.3-0.3,0.8-0.4,1.2-0.5c0.1,0,0.1-0.1,0.1-0.1c0.3-0.6,1.1-0.5,1.4-1.1c0.2-0.4,0.8-0.2,1-0.7c0.2-0.4,0.6-0.6,0.9-0.9
						c1.1-1.1,2.2-2.2,3.3-3.3c0.2-0.2,0.4-0.3,0.4,0.1c0,0.1,0.1,0.2,0.1,0.3c0.7,0.5,0.9,1.4,1.6,2c0.4,1,1.3,1.6,2,2.4
						c0.3,0.3,0.7,0.4,1.1,0.6c0.2,0.2,0.7,0,1,0.3c0.2,0.2,0.6,0.1,0.8,0.4c0.6-0.1,1.1,0.2,1.4,0.7c0.1,0.1,0.2,0.2,0.3,0.1
						c0.5-0.2,0.8,0.5,1.3,0.4s0.7,0.5,1.2,0.4c0.5-0.1,0.8,0.6,1.3,0.4c0.4,0.4,0.9,0.5,1.4,0.4c0.5-0.1,0.8,0.3,1.1,0.4
						c0.4,0.1,0.9-0.2,1.2,0.2c0.1,0.1,0.3,0.1,0.5,0.1c1.1,0,2.2,0,3.4,0c0.5,0,0.8-0.5,1.4-0.4c0.4,0.1,0.8,0,1.3,0
						c0.3-0.5,0.8-0.4,1.2-0.3c0.5,0,0.7-0.6,1.2-0.4c0.1,0,0.2,0,0.3-0.1c0.4-0.2,0.7-0.6,1.1-0.6c0.4-0.1,0.6-0.5,1-0.4
						c0.5,0.1,0.8-0.3,1.1-0.4c1.1-0.5,2.2-1.1,3.3-1.6c0.4-0.2,0.9-0.3,1.2-0.8s0.9-0.5,1.3-0.9c0.3-0.3,0.6-0.8,1.2-0.8
						c0.3-0.3,0.6-0.6,0.9-0.9c-0.1-0.6,0.5-0.8,0.8-1.2c0.2-0.3,0.3,0,0.4,0.1c0.4,0.4,0.4,0.4,0.1,0.9c-0.1,0.1-0.2,0.2,0,0.3
						c0.6,0.1,1,0.4,1,1c0.7,0.5,1.1,1.3,1.9,1.7c0.3,0.1,0.6,0.4,0.8,0.7c0.3,0.4,0.6,0.4,1,0.4c0.4,0,0.5,0.5,1,0.4
						c0.4-0.1,0.8,0.1,1.2,0.3c0.3,0.2,0.7,0,1,0.3c0.1,0.1,0.4,0.1,0.5,0.1c0.5,0.1,1-0.2,1.4,0.3c0.1,0.2,0.6,0,0.9,0.1
						c0.7,0.1,1.5-0.3,2.1,0.4c0.6,0,1.2,0,1.9,0c0.2-0.4,0.5-0.4,0.8,0c0.4-0.5,0.9-0.3,1.4-0.4c1,0,1,0,2.2-0.6
						c0.3-0.2,0.6-0.1,0.9-0.2c0.2-0.1,0.4-0.3,0.6-0.4c0.4,0,0.5-0.5,1-0.4c0.4-0.6,1.2-0.8,1.7-1.3c0.5-0.6,1.1-1.1,1.7-1.7
						c0.1-0.1,0.2,0,0.4,0.1c0,0.5,0,0.6-0.1,0.7c-0.1,0.1-0.2,0.3-0.2,0.4v5.4c0,0.3,0.1,0.5,0.3,0.7c0,0,0.1,0.4,0.1,0.5
						C144,69,144.1,69.3,144.1,69.7z M154.1,44c0,0.8-0.6,1-0.5,1.5c0.1,0.5,0,1,0,1.5c0,0.4,0,0.9,0,1.3c0,0.3-0.2,0.5-0.4,0.8
						c-0.1,0.2,0.1,0.5-0.2,0.7c-0.2,0.2-0.2,0.4-0.2,0.7c0,0.2-0.1,0.4-0.2,0.5c-0.5,0.4-0.8,1.1-1.6,1.2c-0.1,0-0.1,0.5-0.3,0.6
						c-0.2,0.2-0.4,0.2-0.6,0.3c-0.3,0.2-0.5,0.7-0.9,0.5c-0.2-0.1-0.3-0.5-0.4-0.7c-0.1-0.2-0.1-0.4-0.2-0.5
						c-0.2-0.2-0.4-0.4-0.6-0.6c-0.2,0.2-0.5,0.3-0.5,0.7s-0.2,0.3-0.4,0.1c-0.1-0.1-0.4-0.2-0.5-0.1c-0.3,0.4-0.8,0.3-1.1,0.6
						c-0.2,0.2-0.4,0.1-0.6-0.1c-0.3-0.2-0.4-0.5-0.9-0.6c-0.3-0.1-0.6-0.4-1-0.4c-0.4,0-0.5,0.5-1,0.4c-0.1,0-0.2,0.2-0.2,0.3
						c0,0.5-0.2,0.5-0.6,0.5c-0.5-0.1-0.6,0.3-0.9,0.5c0.2,0.7-0.6,1.2-0.4,1.9c0.1,0.4,0.2,0.8-0.1,1.2c-0.4,0.6-0.5,1.4-1.2,2
						c-0.3,0.2-0.5,0.5-0.8,0.8c-0.7,0.7-1.5,1.1-2.8,1.4c-0.3,0.1-0.5,0.5-1,0.4c-0.3-0.1-0.6,0-0.9,0c-0.8,0-1.6,0-2.4,0
						c-0.5,0-0.6-0.5-1.1-0.4c-0.4,0.1-1,0.2-1.3,0c-0.4-0.3-0.9-0.3-1.4-0.4c-0.5-0.1-0.8-0.5-1.3-0.4c-0.2-0.2-0.5-0.3-0.8-0.4
						c-0.3-0.1-0.5-0.5-0.8-0.8c-0.1-0.1-0.1-0.2-0.1-0.3c0-0.2,0-0.5,0-0.8c0-0.6,0.2-1.3-0.1-1.8c-0.4-0.5-0.1-1.1-0.2-1.6
						c0-0.2-0.2-0.3-0.3-0.4c-0.2-0.6-0.6-1.1-0.8-1.7c-0.2-0.7-0.8-0.7-1.2-1c-0.4-0.4-0.8-0.1-1.2-0.2c-0.1,0-0.2,0.2-0.3,0.2
						c-0.2,0.1-0.5,0.1-0.6,0.3c-0.2,0.2-0.4,0.2-0.7,0.3c-0.2,0.1-0.4,0.3-0.8,0.4c-0.3,0.1-0.5,0.4-0.7,0.6l-4.6,4.6
						c-0.3,0.4-0.7,0.6-1.1,0.8c-0.4,0.2-0.7,0.7-1.1,1c-0.6-0.1-0.7,0.7-1.2,0.8c-0.4,0.1-0.8,0.3-1.1,0.5
						c-0.4,0.2-0.8,0.4-1.2,0.6c-0.4,0.3-0.9,0.5-1.4,0.8c-0.6-0.2-0.9,0.5-1.5,0.4c-0.4-0.1-0.5,0.5-1,0.4c-0.3-0.1-0.6-0.1-0.9,0
						c-0.4,0.1-0.8,0.5-1.4,0.4c-0.5-0.1-1.1,0-1.7,0c-0.5,0-1-0.1-1.5,0c-0.5,0.1-0.8-0.5-1.3-0.4c-0.5,0.1-1,0-1.5,0
						c-0.4-0.5-0.9-0.2-1.4-0.4s-0.8-0.5-1.2-0.7c-0.4-0.1-0.9,0.1-1.1-0.4c-0.5,0.1-0.9-0.2-1.4-0.4c-0.4-0.2-0.9-0.3-1.2-0.7
						c-0.7-0.1-1-0.8-1.6-1.2c-0.4-0.3-0.5-0.8-0.8-1.2c-0.1-0.1-0.2-0.2-0.1-0.3c0.2-0.5-0.4-0.7-0.4-1.1c0-0.5,0.1-1,0-1.5
						c-0.1-0.5-0.5-0.8-0.4-1.4c-0.3-1-0.8-2-1.6-2.7c-0.5,0-0.9-0.1-1.3-0.4c-0.3-0.2-0.5,0.4-0.9,0.4c-0.4,0-0.5,0.6-1,0.8
						c-0.3,0.1-0.6,0.4-0.8,0.7c-0.3,0.3-0.6,0.6-0.9,0.9c-0.3,0.2-0.3,0.7-0.5,0.9c-0.4,0.4-0.5,0.9-0.9,1.3
						c-0.4,0.4-0.4,0.8-0.8,1.2c-0.4,0.4-0.8,0.8-1.2,1.2L73.9,59c-0.4,0.4-0.8,0.8-1.2,1.2c-0.3,0.3-0.8,0.3-1.1,0.7
						c-0.2,0.3-0.4,0.6-0.8,0.7c-0.4,0.1-0.8,0.3-1.1,0.5c-0.4,0.4-1,0-1.3,0.5c-0.1,0.1-0.5,0.1-0.7,0.1c-0.7-0.2-1.2,0.5-1.9,0.4
						c-0.6-0.1-1.3-0.1-1.9,0c-0.6,0.1-1-0.4-1.5-0.4h-1.5c-0.2-0.5-0.8-0.2-1.1-0.4s-0.7-0.2-0.9-0.5c-0.2-0.3-0.6-0.1-0.8-0.2
						c-0.2-0.1-0.4-0.3-0.6-0.5c-0.1-0.1-0.3-0.2-0.5-0.3c-0.3-0.1-0.5,0-0.8-0.2c-0.4-0.3-1-0.4-1.4-0.7c-0.5-0.5-1.2-0.7-1.7-1.3
						c-0.2-0.3-0.5-0.5-0.8-0.8s-0.8-0.6-0.9-0.9c-0.1-0.4-0.2-0.8-0.4-1.1c-0.1-0.4-0.1-0.8-0.4-1.1c0.2-0.6-0.3-0.9-0.6-1.3
						c-0.1-0.2-0.1-0.5-0.3-0.6c-0.2-0.1-0.5-0.1-0.7-0.1c-0.3-0.1-0.5-0.5-0.8-0.4c-0.6,0.4-1.3,0.5-1.8,1
						c-0.8,0.7-1.5,1.5-2.3,2.2c-0.2,0.2-0.2,0.5-0.4,0.8c-0.4,0.7-1.3,0.8-1.8,1.5c-0.2,0.2-0.4,0.1-0.5,0.1
						c-0.4,0.1-0.9-0.2-1.2,0.2c-0.4,0.3-0.6,0.3-0.9-0.1c-0.1-0.2-0.2-0.3-0.4-0.4c-0.2-0.2-0.4-0.4-0.5-0.4
						c-0.4,0-0.8-0.2-1.2,0.2c-0.3,0.3-0.8,0.3-1.1-0.1c-0.7-0.7-1.4-1.4-2.1-2.1c-0.5-0.5-0.7-1.1-0.8-1.7
						c-0.1-0.3-0.3-0.5-0.4-0.8c-0.1-0.3,0-0.6,0-0.9c-0.5-0.3-0.4-0.7-0.4-1.1C31.7,50,32,49.4,31.9,49c0.1-0.5-0.1-0.9,0.3-1.2
						c0.2-0.2,0.1-0.5-0.1-0.6c-0.2-0.2-0.3-0.4-0.1-0.7c0.4-0.4,0.4-0.8,0-1.3c-0.1-0.1-0.2-0.2,0-0.3c0.4-0.2,0.2-0.7,0.5-0.9
						c0.1-0.1,0.1-0.4,0-0.5c-0.3-0.3-0.2-0.4,0-0.7s0-0.6-0.4-0.6c-0.6,0-1.1-0.1-1.5-0.6c-0.2-0.2-0.4-0.4-0.7-0.7
						c-0.1-0.1,0-0.2-0.1-0.3C29.3,40,29,39,28.5,38.2c-0.2-0.4-0.7-0.7-0.4-1.1c0.5-0.7,0.4-1.4,0.3-2.1c-0.1-0.6,0.4-0.9,0.4-1.4
						c0-0.4-0.1-0.9,0.4-1.2c-0.2-0.6,0.4-1,0.4-1.5c0-0.3,0-0.5,0.2-0.6c0.4-0.2,0.4-0.7,0.7-1s0.5-0.6,0.7-1
						c0.1-0.3,0.3-0.5,0.2-0.8c0-0.3,0.2-0.4,0.4-0.4s0.3-0.1,0.3-0.4c0-0.1,0.2-0.3,0.2-0.4c0.2-0.4,0.7-0.2,0.9-0.5
						c0.2-0.2,0.3-0.5,0.7-0.5c0.3,0,0.4-0.3,0.6-0.4c0.2-0.2,0.3-0.4,0.6-0.4c0.4,0.1,0.7-0.2,0.9-0.4c0.5-0.4,0.9-0.7,1.6-0.7
						c0.4,0,0.5-0.5,1-0.4c0.3,0.1,0.8,0.2,1-0.2l0.1-0.1c0.2,0.4,0.6,0.3,1,0.3c0.4,0,0.9,0,1.3,0.1c0.4,0.5,1.1,0.8,1.3,1.5
						c0.1,0.2,0.3,0.5,0.5,0.5c0.8,0.2,1.2,1,1.8,1.5c0.1,0.1,0.4,0.2,0.5,0.1c0.3-0.4,0.8-0.4,1.2-0.4c0.4,0,0.7-0.2,0.8-0.4
						c0.2-0.5,0.7-0.9,0.5-1.5c-0.2-0.5,0.5-0.8,0.4-1.4c-0.1-0.4,0-0.9,0-1.3c0-0.1,0-0.2,0-0.2c0.6-0.4,0.1-1.1,0.4-1.5
						c0.3-0.4,0.4-1,0.7-1.4c0.4-0.5,0.7-1,1-1.5c0.3-0.4,0.9-0.7,0.9-1.3c0-0.2,0.2-0.4,0.4-0.4c0.6-0.1,0.9-0.6,1.3-1
						c0.2-0.3,0.6-0.1,0.8-0.4s0.6-0.2,0.8-0.4c0.2-0.2,0.4-0.6,0.7-0.6c0.4-0.1,0.6-0.4,0.9-0.6c0.3-0.3,0.8,0.1,1-0.2
						c0.2-0.4,0.7-0.2,0.9-0.5c0.1-0.1,0.2-0.1,0.3-0.1c0.5,0,1,0.1,1.3-0.4c0.8,0.3,1.5-0.5,2.3-0.4c0.3,0.1,0.4-0.2,0.6-0.3
						s0.5-0.1,0.7-0.1c0.3,0.1,0.5,0.5,0.8,0c0-0.1,0.3-0.1,0.4,0c0.3,0.4,0.7,0.4,1.2,0.4c0.3,0,0.5,0.1,0.7,0.3
						c0.2,0.2,0.4,0.2,0.6-0.1c0.1-0.1,0.2-0.1,0.2-0.1c0.2,0.3,0.5,0.4,0.8,0.3c0.3-0.1,0.4,0.2,0.6,0.3c0.3,0.1,0.6,0.1,0.9,0.2
						c0.2,0.1,0.4,0.3,0.7,0.2c0.2,0,0.4,0,0.5,0.1c0.3,0.4,0.8,0.6,1.2,0.8c0.4,0.2,0.6,0.6,1.1,0.7c0.1,0,0.2,0.1,0.2,0.2
						c0.4,0.8,1.1,1.4,1.4,2.2c0.1,0.3,0.3,0.5,0.4,0.8c0.1,0.3,0.3,0.4,0.4,0.6c0.5,0.6,0.7,1.3,1,2c0.2,0.3,0.6,0.5,0.4,0.9
						c0.2,0.1,0.6,0.1,0.6,0.3c0.2,0.6,0.7,1,1.1,1.4c0.3,0.3,0.6,0.4,1,0.4c0.1,0,0.3,0.2,0.4,0.3c0.2,0.1,0.4,0.1,0.5,0
						c0.3-0.4,0.5-0.3,0.7,0c0.3-0.4,0.7-0.4,1.1-0.4c0.1,0,0.2-0.2,0.2-0.3c0-0.4,0-0.9,0-1.3c0.7-0.7,0.4-1.5,0.4-2.3
						c0-0.5,0.5-0.8,0.4-1.4c-0.1-0.4,0-0.9,0-1.3c0-0.1,0.1-0.1,0.1-0.1c0.5-0.3,0.1-0.8,0.4-1.2c0.2-0.2,0.2-0.6,0.4-0.7
						c0.5-0.3,0.5-1,0.9-1.3c0-0.7,0.6-0.9,0.9-1.3c0.6,0,0.9-0.6,1.3-0.9c0.4-0.4,0.8-0.6,1.2-0.8c0.4-0.2,0.6-0.7,0.9-0.9
						c0.4-0.2,0.8-0.4,1.3-0.6c0.4-0.1,0.7-0.5,1.1-0.6c0.5-0.1,0.8-0.7,1.3-0.4c0.4-0.4,0.9-0.4,1.4-0.4c0.4,0,0.7-0.5,1.2-0.4
						c0.4,0.1,0.7,0,1-0.3c0.1-0.1,0.4-0.1,0.5,0c0.5,0.2,0.7-0.4,1.1-0.4c0.4,0,0.9,0,1.3,0c0.4-0.6,1-0.3,1.5-0.3
						c0.4-0.1,0.8-0.1,1,0.3h1.2c0.5-0.6,1.2-0.2,1.7-0.3c0.5,0.5,1.1,0.4,1.7,0.4c0.4,0,0.7,0.1,1,0.4c0.1,0.1,0.3-0.1,0.5-0.1
						c0.1-0.1,0.2-0.3,0.4-0.1c0.1,0.1,0.2,0.2,0.3,0.2c0.6-0.1,1.1,0.5,1.7,0.4c0.4-0.1,0.6,0.3,1,0.4c0.4,0.1,0.8,0,1.1,0.1
						c0.2,0.1,0.4,0.3,0.6,0.3c0.5,0,1.1-0.2,1.5,0c0.4,0.2,0.7,0.7,1.1,1c0.1,0.1,0.3,0.4,0.4,0.4c0.7,0,0.8,0.8,1.4,0.8
						s0.7,0.9,1.4,0.8c0.1,0,0.1,0.1,0.1,0.1c-0.1,0.5,0.4,0.7,0.7,1c0.2,0.2-0.2,0.3-0.2,0.4c0,0.7,0,1.3,0,2
						c0,0.1,0.2,0.1,0.3,0.1c0.2,0,0.3,0.1,0.4,0.3c0.2,0.6,0.7,1.1,0.8,1.7c0,0.1,0.3,0.2,0.5,0.2c0.7-0.1,0.8-0.2,1.4,0.3
						c0.3,0.2,0.3-0.1,0.4-0.1c0.1,0,0.1-0.1,0.1-0.1c0.3,0.6,0.6,0.1,0.8,0c0.1,0,0.1,0,0.2,0c0.4,0.1,0.8-0.2,0.9-0.5
						c0.2-0.4,0.4-0.7,0.7-1c0.8-0.7,1.5-1.5,2.3-2.2c0.4,0.1,0.5-0.3,0.8-0.4c0.5-0.1,1,0.2,1.4-0.3c0.4,0,0.8-0.1,1.3-0.1
						c0.5-0.1,0.9,0.1,1.4-0.3c0.4-0.3,1.4-0.1,2.6,0.2c0.1,0,0.2,0.1,0.4,0c0.6-0.2,1,0.4,1.5,0.4c0.2,0.4,0.6,0.4,1,0.4
						c0.4,0,0.5,0.4,1,0.4s0.9,0.5,1.5,0.4c0.4,0.4,1,0.4,1.3,0.9c0.1,0.1,0.3,0.1,0.5,0.2c0.2,0,0.4,0,0.5,0.1
						c0.5,0.6,1.4,0.7,1.8,1.4c0.3,0.4,0.9,0.3,1.2,0.8c0.2,0.4,0.7,0.7,1,1.1c0.4,0.4,0.7,0.7,1.1,1.1c0.4,0.5,1.1,0.8,1,1.7
						l0.1,0.1c0.2,0.1,0.4,0.2,0.6,0.3c-0.3,0.7,0.5,1.1,0.4,1.7c-0.1,0.6,0,1.1,0.6,1.5c0.2,0.2,0.3,0.4,0.1,0.6
						c-0.2,0.2-0.3,0.4-0.3,0.6c0.1,0.4,0.1,0.9-0.3,1.2c-0.1,0,0,0.4,0.1,0.5c0.4,0.4,0.3,0.6,0,0.9c-0.2,0.2,0.3,0.3,0.2,0.5
						c-0.1,0.2-0.3,0.4-0.5,0.5c-0.3,0.2,0,0.3,0.1,0.4l0.1,0.1c0,0.1-0.1,0.1-0.1,0.1c-0.2,0.2-0.4,0.3-0.5,0.5
						c-0.1,0.1,0.2,0.5,0.2,0.5c-0.3,0.2-0.2,0.6-0.4,0.8c-0.4,0.4-0.8,1-1.4,1.2c-0.3,0.1-0.5,0.3-0.7,0.5
						c-0.2,0.3-0.6,0.1-0.8,0.4c-0.2,0.2-0.5,0.4-0.4,0.8c0,0.4,0,0.8,0,1.1c0,0.1,0.2,0.2,0.2,0.2c0.5,0,0.5,0.2,0.5,0.6
						c0,0.2,0,0.4,0.1,0.5c0.2,0.3,0.5,0.5,0.8,0.8c0.6-0.3,1,0.5,1.5,0.4s1,0.2,1.4-0.3c0.2-0.2,0.2,0.1,0.4,0.2
						c0.2,0.1,0.7-0.1,0.6,0.4c0,0.2,0.1,0.4,0.3,0.4c0.5,0.1,0.4,0.2,0.1,0.5c-0.1,0.1-0.1,0.4,0,0.5c0.3,0.2,0.2,0.6,0.4,0.8
						s0.3,0.5,0.3,0.8C154.1,41.9,154,42.9,154.1,44z"/>
					<path d="M119.5,92.9c-0.1-0.1,0-0.3,0.1-0.4c0.4-0.2,0.3-0.6,0.3-1v-1.9c0-0.6-0.1-1.1,0-1.7c0.1-0.7-0.3-1.1-0.4-1.7
						c-0.1-0.8,0.2-1.7-0.4-2.5c-0.1,0,0-0.2,0.1-0.3c0.1-0.1,0.2-0.2,0.3-0.3c-0.5-0.3-0.4-0.7-0.4-1.2c0.1-0.7-0.3-1.2-0.7-1.8
						c-0.2-0.3-0.5-0.5-0.5-0.9c0-0.1,0-0.2-0.1-0.3c-0.7-0.7-1.3-1.3-2-2c-0.5-0.1-1-0.4-1.4-0.7c-0.3-0.2-0.9,0.1-1.1-0.4
						c-0.3,0-0.6-0.1-0.9-0.1c-0.5,0-0.9,0-1.3,0c-0.2,0-0.4,0-0.5,0.1c-0.2,0.1-0.3,0.3-0.4,0.3c-0.6,0-0.7,0.9-1.4,0.8l-0.1,0.1
						c-0.1,0.2-0.1,0.4-0.2,0.7c-0.2,0.3-0.4,0.7-0.5,1.1c-0.1,0.5,0.1,1-0.4,1.4c-0.1,0,0,0.4,0.1,0.5c0.5,0.4-0.1,1,0.5,1.3v0.1
						c-0.6,0.6-0.2,1.3-0.3,1.9c-0.1,0.4,0,0.9,0,1.3c-0.7,0.7-0.3,1.7-0.4,2.5c-0.1,1.5,0,3,0,4.5c0,0.2,0,0.5-0.1,0.7
						c-0.4,0.4-0.2,0.8-0.3,1.2c0,0.3,0.4,0.4,0.4,0.6c-0.1,0.2-0.4,0.3-0.4,0.6c0,0.8,0,1.5,0,2.2c0,0.2,0.3,0.5,0.3,0.5
						c-0.5,0.5-0.3,1.1-0.3,1.6c0,2,0,3.9,0,5.8v1.5c0,0.5-0.1,1,0,1.5c0.1,0.5-0.2,0.9-0.4,1.3c-0.1,0.5,0,1.1,0,1.7
						c-0.5,0.4-0.4,0.9-0.4,1.4v1.7c0,0.2,0,0.4,0,0.5c-0.1,0.2-0.2,0.3-0.3,0.5c-0.1,0.1-0.1,0.2,0.1,0.3c0.2,0.2,0.4,0.5,0.2,0.6
						c-0.4,0.3-0.3,0.6-0.3,1v2c0,0.7,0.1,1.4-0.4,1.9v2.8c-0.5,0.4-0.4,0.9-0.4,1.4v3c0,0.2,0.1,0.4,0,0.5c-0.5,0.5-0.5,1.1,0,1.6
						c0.1,0.1,0.1,0.3,0,0.4c-0.4,0.2-0.4,0.6-0.4,1v3.5c0,0.2,0.1,0.6-0.1,0.7c-0.5,0.5-0.3,1-0.3,1.5c0,5.5,0,11,0,16.4
						c0,1-0.4,2.1,0.4,3v3.2c0,0.5,0.1,1.1-0.1,1.5c-0.2,0.5,0.8,0.8,0.1,1.2c0.7,0.7,0.2,1.5,0.4,2.3c0.1,0.4,0,0.7,0.2,1
						s0.1,0.8,0.2,1.2c0.5,0.3,0.2,0.9,0.4,1.1c0.2,0.3,0.2,0.7,0.5,0.9c0.4,0.2,0.4,0.7,0.7,1c0.4,0.5,0.8,1,1.7,0.8
						c0.7-0.1,1.4-0.1,2,0c0.6,0.1,1-0.4,1.5-0.4c1-0.5,1.8-1.3,2.3-2.3c0.2-0.4,0.3-0.9,0.6-1.3c0.2-0.3,0.3-0.5,0.3-0.8
						c-0.1-0.5,0.1-0.8,0.5-1.1c0.1-0.1,0.2-0.3,0.2-0.5c0.1-0.5-0.2-1.1,0.3-1.6l0.1-1.6c0,0,0-0.3,0.1-0.4c0.5-0.4,0.3-1,0.3-1.6
						c0-0.7,0-1.5,0-2.2c0-0.3,0.2-0.5,0.3-0.8c-0.5-0.4-0.3-0.7,0.1-1.1c0.1-0.1,0-0.4-0.1-0.5c-0.2-0.2-0.4-0.5-0.2-0.7
						c0.3-0.3,0.4-0.6,0.4-1v-9c0-0.4,0.1-0.8,0-1.1c-0.2-0.5,0.5-0.7,0.2-1.1c-0.3-0.3-0.1-0.7-0.2-1.1c-0.1-0.5,0.3-0.8,0.4-1.1
						c0.1-0.6,0-1.1,0-1.7c0.1-0.5-0.2-1.1,0.4-1.5c-0.1-0.2-0.4-0.3-0.4-0.6c0.1-0.8-0.3-1.7,0.4-2.4c0-0.9,0-1.9,0-2.8
						c0-0.3-0.1-0.7,0-0.9c0.5-0.5,0.3-1,0.3-1.6c0-0.9,0-1.7,0-2.6c0-0.2-0.1-0.6,0.1-0.7c0.5-0.4,0.3-0.9,0.3-1.4c0-1.5,0-3,0-4.5
						c0-0.4-0.1-0.9,0.3-1.2c0-0.5,0.2-1-0.2-1.4c-0.1-0.1-0.2-0.2,0-0.3c0.4-0.2,0.3-0.5,0.3-0.8v-9c0-2.6,0-5.1,0-7.7
						c0-0.8-0.4-1.6,0.4-2.3c0,0,0.1-0.8,0-1.5C119.8,94.4,120.2,93.6,119.5,92.9z M116.1,91.8c0,0.7-0.5,1.2-0.4,1.9
						c0.1,0.7,0,1.4,0,2.1v8c0,0.7,0,1.4,0,2.1c-0.1,0.6,0.2,1.2-0.3,1.8c-0.2,0.2-0.1,0.6-0.1,0.9v10.8c0,0.4-0.1,0.9,0,1.3
						c0.1,0.5-0.4,0.6-0.4,1c0,0.1,0,0.2,0,0.4c0,0.7-0.1,1.4,0,2.1c0.2,0.7-0.5,1.1-0.4,1.7c0.1,0.7,0,1.4,0,2.1c0,0.6,0,1.2,0,1.9
						c0,0.5-0.5,0.9-0.4,1.5c0.1,0.5,0,1.1,0,1.7v5.3c0,0.4,0.1,0.8-0.3,1.2c-0.1,0.1-0.1,0.5-0.1,0.7v5c0,0.5,0.2,0.9-0.3,1.4
						c-0.2,0.1-0.1,0.6-0.1,0.9c0,3.1,0,6.2,0,9.3c0,0.6,0.2,1.2-0.3,1.7c-0.1,0.1-0.1,0.2-0.1,0.4v2.2c-0.7,0.6-0.3,1.4-0.4,2.1
						c-0.1,0.4-0.5,0.5-0.4,1c0.1,0.3,0.1,0.7-0.2,1c-0.1,0.1-0.2,0.4-0.1,0.5c0.2,0.5-0.2,0.9-0.4,1.3c-0.2,0.4-0.5,0.7-0.8,0.9
						l-0.2-0.1c0-0.3-0.1-0.4-0.3-0.7c-0.1-0.2-0.2-0.4-0.3-0.6s-0.2-0.3-0.2-0.5c0.2-0.7-0.5-1.2-0.4-1.9c0.1-0.6,0-1.2,0-1.9
						c0-0.3,0.1-0.7,0-0.9c-0.2-0.6-0.4-1.2-0.4-1.9c0.1-0.7,0-1.4,0-2.1c0-0.7,0-1.4,0-2.1c0-0.4,0.2-0.8-0.2-1.2
						c-0.3-0.3,0.4-0.5,0.2-0.9c-0.1-0.4,0-0.9,0-1.3c0-0.4-0.1-0.7-0.4-0.9c0.7-0.6,0.2-1.4,0.3-2.1c0.1-0.7,0-1.5,0-2.2v-2.2
						c0-0.8,0-1.5,0-2.2c0-0.3,0-0.6-0.3-0.8c-0.1-0.1-0.1-0.3-0.1-0.4c0.7-0.9,0.3-2,0.4-3c0.1-1.8,0-3.6,0-5.4
						c0-0.6-0.2-1.2,0.3-1.8c0.1-0.1,0-0.5,0-0.7c0-1.1-0.1-2.2,0-3.4c0.1-0.8-0.4-1.6,0.3-2.3c0.2-0.2,0-0.6,0-0.9c0-0.5,0-1,0-1.5
						s-0.2-1,0.1-1.4c0.4-0.4,0.2-0.8,0.2-1.2c0-0.5,0-1,0-1.5c0-0.2,0.2-0.3,0.3-0.4c0.1-0.2,0.1-0.5-0.1-0.7
						c-0.2-0.2-0.3-0.4-0.1-0.6c0.1-0.2,0.3-0.4,0.3-0.6c0.1-0.7-0.2-1.5,0.2-2.2c0.4-0.7,0.1-1.4,0.1-2.2c0.1-0.8,0-1.5,0-2.2v-2.2
						c0-0.2,0-0.4,0-0.5c-0.1-0.6,0.6-0.9,0.4-1.5c-0.1-0.5,0-1.1,0-1.7V98c0-0.6,0.1-1.1,0-1.7c-0.1-0.5,0.2-0.9-0.2-1.4
						c-0.3-0.3-0.1-0.8-0.1-1.2c0-0.5,0-1,0-1.5v-5.4c0-0.4,0-0.8,0-1.1s0-0.6,0.3-0.8l-0.1-0.2c-0.1-0.2-0.2-0.3-0.2-0.5
						c0-0.4-0.2-0.7,0.2-1.1c0.4-0.3-0.3-0.4-0.2-0.7c0,0,0-0.1,0-0.2c0.6-0.5,0.3-1.1,0.4-1.7c0-0.3,0.2-0.4,0.4-0.6
						c0.4-0.3,1.2-0.2,1.5,0.1l0.5,0.5c0.2,0.2,0.1,0.9,0.8,0.8c0,0,0.1,0.2,0.1,0.3c0,0.3-0.1,0.7,0.3,0.8c0.5,0.2,0.5,0.8,0.8,1.2
						c0.2,0.2,0.1,0.7,0.1,1.1v1.7c0,0.5,0,1.1,0,1.7c0,0.4-0.2,0.9,0.3,1.2c0.1,0.1,0.1,0.4,0.1,0.5
						C116.1,90.1,116.2,90.9,116.1,91.8z"/>
					<path d="M85.7,96.9c-0.2-0.2-0.3-0.5-0.2-0.6c0.4-0.3,0.3-0.7,0.3-1V80c0-0.3,0-0.6-0.1-0.9c-0.1-0.2-0.3-0.3-0.3-0.6
						c0-0.2,0-0.4-0.1-0.5c-0.2-0.2-0.3-0.4-0.3-0.7c0-0.2-0.3-0.3-0.4-0.6c-0.2-0.7-0.9-1-1.3-1.5c0,0-0.1,0-0.2,0
						c-0.5,0-1,0.1-1.3-0.4c-0.6,0-1.1,0.1-1.7,0c-0.6-0.1-0.9,0.7-1.5,0.4c-0.6,0.5-1.5,0.9-1.4,2c0,0.2,0,0.5-0.2,0.7
						c-0.2,0.2-0.2,0.5-0.4,0.8c-0.3,0.4-0.1,0.7-0.1,1.1c-0.1,0.3-0.3,0.5-0.4,0.8c-0.1,0.5,0.1,1-0.4,1.3c0.1,0.7-0.2,1.2-0.3,1.7
						c-0.1,0.8-0.1,1.6,0,2.4c0.1,0.8-0.3,1.6,0.4,2.3v3.9c-0.7,0.8-0.2,1.8-0.4,2.7c0,0.2,0,0.4-0.1,0.5c-0.4,0.3-0.2,0.8-0.3,1.2
						c-0.1,0.4-0.2,0.5-0.8,0.2c-0.1-0.1-0.2-0.1-0.2-0.1c-0.4,0.2-0.6,0.7-0.3,1c0.2,0.2,0.4,0.5,0.7,0.7c0.4,0.2,0.2,0.7,0.5,0.9
						c0.1,0.1,0.2,0.4,0.1,0.5c-0.5,0.4-0.3,1-0.4,1.5c0,1.4-0.1,2.7,0,4.1c0.1,0.6-0.5,0.9-0.4,1.5c0,0.6,0,1.2,0,1.9v1.3
						c0,0.2,0.1,0.5-0.1,0.5c-0.4,0.4-0.4,0.7,0,1.1c0,0.9,0,1.8,0,2.7c-0.4,0.3-0.1,0.5,0.1,0.7c0.1,0.1,0.1,0.3,0,0.4
						c-0.4,0.3-0.4,0.7-0.4,1.2c0,0.4,0,0.7,0,1.1c-0.7,0.5-0.3,1.2-0.4,1.9c-0.1,1.2,0,2.4,0,3.5c-0.8,1.1-0.3,2.3-0.4,3.4
						c-0.1,1.6,0,3.1,0,4.7v0.4c0,0.3,0,0.6,0,0.9c0,0,0,0,0,0.1c0,0.4-0.1,0.7-0.3,1c-0.1,0.1,0,0.5,0.1,0.7
						c0.1,0.2,0.4,0.3,0.1,0.5c-0.1,0.1-0.2,0.3-0.2,0.5v2.8c0,0.4-0.1,0.9,0,1.3c0.1,0.5-0.3,0.9-0.4,1.4c-0.1,0.4-0.1,0.9,0,1.3
						c0.1,0.5-0.4,0.9-0.4,1.3c0,0.7-0.2,1.5,0.3,2.1c0.2,0.3-0.3,0.5-0.3,0.8c0,0.6,0,1.2,0,1.9c0,0.4,0.1,0.7-0.3,1
						c-0.1,0.1,0,0.4,0.1,0.5c0.4,0.4,0.2,0.9,0.2,1.4c-0.7,0.7-0.2,1.5-0.4,2.3c-0.1,0.5,0.1,1.1-0.4,1.5c-0.1,0.1-0.1,0.6,0.1,0.7
						c0.3,0.3,0.3,0.7,0.3,1c0,1.4,0,2.7,0,4.1c0,0.3-0.1,0.6-0.3,0.8c-0.1,0.1-0.1,0.4,0,0.5c0.3,0.2,0.3,0.5,0.3,0.8
						c0,1.1,0,2.2,0,3.4c0,0.4,0,0.8,0.4,1c-0.2,0.7,0.6,1.2,0.4,1.9c0,0.1,0,0.3,0,0.4c0.4,0.3,0.4,0.8,0.7,1.2
						c0.1,0.2,0.2,0.4,0.3,0.6c0.5,0.5,0.9,0.9,1.3,1.3c0.1,0,0.1,0.1,0.2,0.1c0.5-0.1,0.8,0.4,1.2,0.3c0.5,0,0.8,0.4,1.2,0.4
						c0.1,0,0.2,0,0.4,0c0.3,0,0.4-0.4,0.6-0.4c0.3-0.1,0.6,0,0.9,0c0.1,0,0.2-0.1,0.3-0.1c0.6-0.5,1.2-1.2,1.5-2
						c0.3-0.6,0.6-1.3,0.9-1.9c0.1-0.2,0.2-0.3,0.3-0.5c0.1-0.6-0.3-1.2,0.4-1.7c0-0.5,0.1-1.1,0-1.7c-0.1-0.6,0.5-1.1,0.4-1.7
						c0-0.9-0.4-1.8,0.3-2.7c0.1-0.2,0-0.5,0-0.7c0-1.2,0-2.5,0-3.7c0-0.4,0.3-0.8,0.4-1.2c0-0.1,0.1-0.2,0-0.4
						c-0.1-0.5,0-1.1,0-1.6V153c0,0,0-0.1,0-0.2c0.7-0.8,0.3-1.8,0.4-2.7c0.1-0.8,0-1.5,0-2.2c0-0.4-0.1-0.9,0.4-1.2
						c0-0.4,0.2-0.7-0.2-1C84,145.3,84,145,84,145c0.4-0.3,0.4-0.8,0.4-1.2v-2.1c0-0.3,0-0.6,0.3-0.8c0.4-0.4-0.3-0.7-0.2-0.9
						c0.3-0.3,0.2-0.7,0.2-1c0-0.7,0-1.4,0-2.1v-20.6c0-0.4-0.1-0.9,0-1.3c0.1-0.3,0.5-0.5,0-0.8c-0.1,0-0.1-0.4,0.1-0.5
						c0.3-0.2,0.2-0.4,0-0.5c0,0,0-0.2,0.1-0.2c0.2-0.2,0.3-0.4,0.1-0.6c-0.1-0.2-0.3-0.3-0.3-0.5c0-1.3,0-2.6,0-3.9
						c0.7-0.8,0.2-1.8,0.4-2.7c0.1-0.5-0.2-1.1,0.1-1.5c0.2-0.4,0.4-0.8,0.3-1.2v-3.5c0-0.5-0.1-1,0.4-1.3
						C85.8,97.5,86,97.2,85.7,96.9z M82.4,93.9c-0.1,0.2-0.2,0.3-0.3,0.5c0,0.5,0,1,0,1.5v1.5c0,0.4-0.5,0.7-0.4,1.2
						c0.1,0.5,0,1,0,1.5c0,1.5,0,3.1,0,4.7c0,0.5-0.3,0.9-0.4,1.4c-0.1,0.4,0,0.8,0,1.3c-0.6,0.5-0.3,1.2-0.4,1.7
						c0.7,1,0.4,2.1,0.4,3.2c0,7.8,0,15.6,0,23.4c0,0.9,0.4,2-0.4,2.8c-0.1,0.1,0,0.4,0,0.5c0,0.3-0.1,0.7,0,0.9
						c0.1,0.4-0.6,0.5-0.2,0.9c0.3,0.2,0.1,0.6,0.1,0.9c0,0.6,0,1.2,0,1.9c-0.6,0.5-0.4,1.1-0.4,1.7c0,0.5,0,1.1,0,1.6
						c0,0,0,0.2,0,0.3c0,0.2-0.2,0.5-0.3,0.7c0,0,0,0,0,0.1c-0.1,0.2,0.1,0.5-0.2,0.7c-0.1,0.1-0.3,0.2,0,0.4c0.3,0.2,0.3,0.5,0,0.8
						c-0.1,0.1-0.1,0.2-0.1,0.2c0.6,0.5,0.2,1.2,0.3,1.8c-0.7,0.6-0.3,1.5-0.4,2.3c-0.1,0.5-0.6,0.9-0.4,1.5c0.1,0.5,0,1,0,1.5
						c0,0.6,0,1.1,0,1.7c0,0.2-0.3,0.4-0.3,0.6c0,0.1,0.2,0.2,0.3,0.4c0.1,0.1,0,0.2,0,0.4c0,0.5-0.5,0.8-0.4,1.4
						c0.1,0.5,0.1,1,0,1.5c-0.1,0.6,0.2,1.2-0.2,1.8c-0.4,0.5-0.1,1.1-0.2,1.6c-0.6,0.2-0.2,0.9-0.5,1.3c-0.2,0.2-0.3,0.4-0.2,0.7
						c0.1,0.4-0.2,0.5-0.4,0.8c-0.2,0.2-0.5,0.2-0.7,0c-0.1-0.2-0.3-0.4-0.4-0.6c-0.1-0.2-0.3-0.5-0.4-0.8c0-0.4-0.1-0.7-0.4-1
						c-0.2-0.2,0-0.6-0.1-0.9c-0.1-0.7,0.4-1.5-0.4-2.1v-5c0-1-0.1-2,0-3c0.1-0.8-0.3-1.7,0.4-2.5c0.1-0.1,0-0.4,0-0.5
						c0-1.1-0.1-2.1,0-3.2c0.1-0.9-0.4-1.8,0.4-2.7c0.1-0.1,0-0.5,0-0.7c0-1.4,0-2.9,0-4.3c0-0.7-0.3-1.4,0.3-2
						c0.1-0.1-0.3-0.4-0.3-0.5c0-0.1,0-0.2,0-0.3c0-0.5-0.1-1,0-1.5v-0.1c0.1-0.5,0.4-1,0.4-1.5s0-1,0-1.5v-1.7c0-0.5-0.1-1,0-1.5
						c0.1-0.8-0.4-1.6,0.4-2.3c0.1-0.1,0-0.4,0-0.6V125c0-0.5,0.1-1,0-1.5c-0.1-0.5,0.4-0.8,0.4-1.2c0-1.4,0-2.7,0-4.1
						c0-0.8-0.3-1.7,0.4-2.5c-0.1-0.6,0.3-1.2-0.3-1.8c0,0,0.2-0.2,0.2-0.4c0.1-0.4,0.1-0.7,0.1-1.1c0-4.4,0-8.7,0-13.1
						c0-0.5-0.2-1.1,0.3-1.5c0-0.4,0-0.7,0-1.1c0.1-0.8-0.4-1.6,0.4-2.3c0.1-0.1,0-0.4,0-0.5c0-0.8-0.1-1.6,0-2.4
						c0.1-0.8-0.4-1.6,0.4-2.3v-3c-0.7-0.5-0.3-1.1-0.4-1.7c0.6-0.8,0.4-1.6,0.4-2.5c0-0.5,0.6-0.7,0.4-1.2c0-0.1,0.9-2,1-2
						c0.4-0.5,1.1-0.5,1.4,0c0.3,0.5,0.8,1,0.6,1.6c-0.1,0.4,0.4,0.7,0.2,0.9c-0.3,0.5-0.3,0.8,0,1.3c0.1,0.1,0.1,0.2,0.1,0.3
						c0,1.1,0,2.2,0,3.4h0.1c0,0.4-0.5,0.7-0.4,1.2c0.2,0.1,0.2,0.4,0.2,0.8c0,0.4,0,0.9,0,1.3c0,0.3,0.1,0.5,0.3,0.7
						c0.1,0.1,0.1,0.4,0.1,0.5c-0.5,0.4-0.3,0.9-0.3,1.4c0,0.4-0.1,0.9,0.3,1.2C82.6,93.5,82.5,93.7,82.4,93.9z"/>
					<path d="M141.4,93.7c0.3-0.3,0.3-0.6,0.3-1V80.3c0-0.4,0-0.9,0-1.3c0.1-0.5-0.4-0.7-0.4-1.2h-0.1c0-0.5-0.3-1-0.5-1.5
						c-0.1-0.3-0.2-0.5-0.2-0.8c-0.1-0.3-0.4-0.5-0.3-0.8c0.1-0.6-0.3-1.1-0.6-1.4c-0.3-0.5-0.8-0.9-1.4-1.2
						c-0.6-0.4-1.1-0.3-1.7-0.3c-0.2,0-0.6-0.1-0.7,0.1c-0.3,0.3-0.7,0.2-1,0.5c-0.3,0.3-0.6,0.6-0.9,0.9c-0.1,0.1-0.1,0.2-0.1,0.3
						c-0.1,0.4,0.1,0.8-0.2,1.1c-0.3,0.4-0.2,0.7-0.2,1c0,1.3,0,2.6,0,3.9c0,0.2,0.1,0.5,0,0.5c-0.7,0.7-0.3,1.5-0.4,2.3
						c-0.1,1.7,0,3.5,0,5.2c0,0.2,0.1,0.6,0,0.7c-0.6,0.6-0.3,1.3-0.4,1.9c0,0.8,0,1.6,0,2.4c0,0.2,0.1,0.5-0.1,0.5
						c-0.5,0.4-0.3,1-0.3,1.5c-0.1,1.6,0,3.3,0,4.9c0,0.2,0.1,0.6-0.1,0.7c-0.5,0.4-0.3,0.9-0.3,1.4c0,1.4,0,2.7,0,4.1
						c0,0.2,0.1,0.6,0,0.7c-0.7,0.8-0.3,1.8-0.4,2.7c-0.1,1.4,0,2.7,0,4.1c0,0.2,0.1,0.6,0,0.7c-0.7,0.8-0.3,1.7-0.4,2.5
						c-0.1,1,0,2,0,3c0,0.2-0.1,0.4-0.2,0.5c-0.1,0.1-0.1,0.2,0,0.3c0.2,0.2,0.4,0.4,0.2,0.6c-0.2,0.2-0.4,0.5-0.3,0.8
						c0,0.5,0,1,0,1.5v1.5c0,0.5,0,1-0.1,1.5c-0.6,0.4,0.2,0.8,0.1,1.2c-0.2,0.5,0.2,1.2-0.4,1.7l0.1,0.1c0.4,0.3,0.3,0.6,0,0.9
						l-0.1,0.1c0.6,0.6,0.4,1.3,0,2c-0.1,0.2-0.1,0.6,0.1,0.7c0.4,0.3,0.2,0.7,0.3,1c0.1,0.4-0.1,0.6-0.4,0.8
						c0.1,0.1,0.2,0.2,0.4,0.4c-0.2,0.2-0.4,0.4-0.4,0.8v14.8c0,0.2-0.1,0.5,0.1,0.5c0.5,0.4,0.3,0.9,0.3,1.4c0,0.6,0,1.2,0,1.9
						c-0.1,0.6,0.5,1.1,0.4,1.7c-0.1,0.4,0.7,1.4,1.1,1.8c0.4,0.3,0.7,0.1,1.1,0.2c0.4,0,0.8,0.1,1.1,0c0.6-0.2,1.3-0.4,1.6-1
						c0.1-0.4,0.5-0.8,0.4-1.4c-0.1-0.3-0.1-0.7,0.1-0.9c0.3-0.3,0.3-0.7,0.2-1c-0.1-0.5,0.5-0.6,0.4-1.2c-0.1-0.6-0.3-1.4,0.3-1.9
						v-1.3c0.7-0.9,0.3-2,0.4-3c0-0.2-0.1-0.6,0-0.7c0.5-0.7,0.3-1.4,0.4-2.1c0-0.1,0-0.1,0-0.2c0.7-0.8,0.2-1.8,0.4-2.7
						c0-0.2,0-0.4,0-0.5c0-0.4,0-0.8,0.4-1c-0.1-0.5,0.3-0.9,0.4-1.4c0.1-0.5,0-1,0-1.5s0.1-1,0-1.5c-0.1-0.5,0.5-0.8,0.4-1.3
						c-0.1-0.6,0-1.1,0-1.7v-1.7c0-0.6,0.1-1.3,0-1.9c-0.1-0.7,0.5-1,0.4-1.5c-0.1-0.5,0.2-1-0.3-1.4c0-0.5,0-1.1,0.1-1.6
						c0-0.2,0.2-0.2,0.1-0.5c-0.4-0.6-0.1-1.3-0.2-2c0-0.3,0.1-0.4,0.2-0.7c0.2-0.4,0.2-0.9,0-1.4c-0.2-0.3,0-0.4,0.1-0.5
						c0.1-0.2,0.1-0.5,0.1-0.7v-8c0-0.6,0.1-1.3,0-1.9c-0.2-0.7,0.4-1.2,0.4-1.9V105c0-0.4,0.1-0.9,0-1.3c-0.1-0.5,0.2-0.8,0.4-1.2
						c0-0.1,0-0.1,0-0.2v-1.7c0-0.5-0.1-1,0-1.5c0.1-0.5-0.2-1.1,0.2-1.6c0.3-0.5,0.1-1.1,0.1-1.6c0-0.4,0-0.8,0.4-1.2
						c0,0-0.1-0.4-0.2-0.5C141.4,94.1,141.2,93.8,141.4,93.7z M138,83.5c0,0-0.1,0.5-0.1,0.7v0.9c0,0.2,0.1,0.6,0,0.7
						c-0.5,0.5-0.5,1.1-0.3,1.5c0.4,0.7,0.4,1.2,0,1.8c-0.2,0.4,0,1-0.1,1.4c-0.1,0.5,0.6,0.7,0.4,1.1c-0.2,0.3-0.4,0.6-0.4,1
						c0,0.3,0,0.6,0,0.9v3.7c-0.5,0.3-0.4,0.7-0.4,1.2c0,0.4,0,0.7,0,1.1c-0.6,0.3-0.1,0.5,0,0.8c0,0.1-0.1,0.4-0.2,0.5
						c-0.2,0.2-0.1,0.3,0.1,0.4c0.3,0.3,0.2,0.6-0.1,0.8c-0.1,0.1-0.1,0.2,0,0.3c0.1,0.1,0.4,0.2,0.1,0.4c-0.1,0.1-0.2,0.3-0.2,0.5
						c0,0.8,0,1.5,0,2.2c0,0.4,0.2,0.9-0.3,1.2v2c0.4,0.2,0.3,0.6,0.3,1v8c0,0.4,0,0.7-0.4,1c-0.2,0.1,0,0.4,0.2,0.6
						c0.1,0.1,0.2,0.4,0.1,0.5c-0.4,0.3-0.4,0.6-0.4,1c0,0.3,0,0.6,0.3,0.8c0.1,0.1,0.1,0.4,0.1,0.5c-0.5,0.7-0.5,1.5,0,2.2
						c0.1,0.1,0.1,0.3,0,0.4c-0.7,0.7-0.3,1.5-0.3,2.3c-0.1,1.1,0,2.2-0.1,3.4c-0.1,0.8,0.4,1.6-0.3,2.3c-0.1,0.1,0,0.5,0,0.7v1.7
						c0,0.5,0.1,1-0.4,1.4v1.7c-0.7,0.9-0.3,1.9-0.4,2.8c-0.1,0.5-0.6,0.8-0.4,1.4c0.1,0.5,0,1,0,1.5c-0.7,0.8-0.2,1.8-0.4,2.7
						c0,0.1-0.1,0.1-0.2,0.2l-0.1-0.1c0-0.4,0-0.7,0-1.1v-10.8c0-3.4,0-6.7,0-10.1c0-0.8-0.4-1.6,0.3-2.3c0.1-0.1,0-0.4,0-0.5v-3.4
						c0-0.4,0-0.9,0-1.3c0-0.5,0-0.9,0.4-1.2c0-0.6-0.1-1.1,0-1.7c0.1-0.9-0.4-2,0.4-2.8c0.1-0.2,0-0.5,0-0.7c0-1.3,0-2.6,0-3.9
						c0-0.4-0.2-0.9,0.3-1.2c0.1-0.1,0.1-0.5,0.1-0.7c0-1.2,0-2.4,0-3.5c0-0.5-0.2-1,0.3-1.4c0-0.5,0-1.1,0-1.6
						c-0.6-0.5-0.2-1.2-0.3-1.7c0.7-0.7,0.4-1.5,0.4-2.3c0.1-4.9,0-9.8,0-14.8c0-0.4,0-0.8,0.4-0.9c0.5-0.3,0.3-0.8,0.4-1.2
						c0-0.1,0.1-0.1,0.1-0.1l0.1,0.1c0.2,0.4,0,0.8,0.4,1.2c0.2,0.2,0,0.8,0.4,1.1c0.1,0.1,0,0.5,0,0.7c0,0.9,0,1.7,0,2.6
						C137.9,83.1,138.5,83.2,138,83.5z"/>
					<path d="M56.9,85.3c-0.1-0.2-0.1-0.4,0-0.5c0.1-0.8,0.4-1.3-0.2-1.9c-0.1-0.1-0.1-0.4,0-0.5c0.4-0.4,0.4-0.7,0-1.1
						c-0.2-0.2,0-0.5,0.2-0.6c0.2-0.1,0.2-0.2,0-0.2c-0.3-0.2-0.3-0.5-0.2-0.8c0.1-0.6-0.1-1-0.4-1.5c-0.4-0.8-0.5-0.8-0.4-1.4
						c0.2-0.8-0.5-1.4-0.4-2.1c-0.4-0.4-0.6-0.9-0.7-1.4c-0.1-0.3-0.4-0.5-0.6-0.7c-0.3-0.3-0.5-0.7-1-0.8c-0.2,0-0.3-0.2-0.4-0.3
						c-0.1,0-0.1-0.1-0.1-0.1c-0.6,0-1.2-0.2-1.7,0c-0.5,0.2-1.2,0.3-1.5,1.1c-0.1,0.4-0.3,0.9-0.7,1.2c-0.4,0.3-0.5,0.7-0.4,1.1
						c0.2,0.7-0.2,1.3-0.6,1.8c-0.3,0.3-0.4,0.6-0.5,0.9v0.1V78c0,0.5,0.2,1.1-0.4,1.5c-0.1,0,0,0.3,0,0.3c0.3,0.2,0.4,0.4,0,0.7
						c-0.1,0.1-0.1,0.4,0,0.5c0.3,0.3,0.4,0.5-0.1,0.5c-0.1,0-0.5,0-0.2,0.3c0.4,0.4,0.3,0.7,0.1,1.1c-0.6,1.2-0.6,1.2-0.6,2.2
						c-0.1,0.9,0.3,1.8-0.4,2.7c0,1.3,0,2.6,0,3.9c0,0.1,0.3,0.3,0.3,0.4c0.1,0.3,0.2,0.7-0.2,1c-0.1,0.1-0.3,0.2-0.4,0.4
						c-0.2,0.2-0.2,0.3,0,0.7c0.2,0.2,0.2,0.4,0.2,0.7c0.1,0.8-0.3,1.6,0.4,2.3c-0.1,0.4,0.2,0.8-0.2,1.2c-0.1,0.1-0.2,0.3-0.2,0.5
						c0,1.3-0.1,2.6,0,3.9c0.1,1.2-0.4,2.6,0.4,3.8c0.1,0.2-0.3,0.4-0.3,0.6c-0.1,0.4,0,0.7-0.1,1.1c0,0.4,0,0.9,0,1.3
						c0,0.4-0.4,0.5-0.4,1c0.1,1.3,0,2.6,0,3.9c0,0.1,0.1,0.3,0.2,0.4c0.1,0.1,0.1,0.2,0,0.3c-0.5,0-0.7,0.2-0.6,0.6
						c0.1,0.8-0.3,1.6,0.4,2.3c0,0.4,0.1,0.8-0.1,1.1c-0.1,0.3-0.3,0.5-0.3,0.8v5.2c0,0.5-0.8,0.9,0,1.4c-0.1,0.1-0.2,0.2-0.2,0.3
						c-0.1,0.2-0.2,0.4-0.1,0.5c0.4,0.3,0.4,0.6,0.4,1c0,0.4,0,0.9,0,1.3c0,0.4,0,0.7-0.3,1c-0.4,0.4,0.4,0.7,0.3,1.1
						c-0.1,0.2,0,0.4-0.1,0.5c-0.5,0.4-0.3,0.7,0.1,1.1c0.1,0.1-0.1,0.3-0.1,0.5c0,0.1-0.4,0.2-0.1,0.4c0.4,0.3,0.3,0.4,0.2,1.1
						c0,0.2,0.1,0.4,0.2,0.5c0.1,0.1,0.2,0.2,0.1,0.3c-0.5,0.3,0,1.1-0.7,1.4c0,0,0.1,0.4,0.2,0.5c0.3,0.3,0.3,0.8,0.1,1
						c-0.3,0.3-0.3,0.6-0.3,1v1.5c-0.7,0.9-0.2,2-0.4,3c-0.1,0.6,0,1.2,0,1.9c0,0.4,0.1,0.9-0.3,1.2c0,0.4,0,0.7-0.1,1.1
						c0.5,0.4,0.4,0.9,0.4,1.3c0,0.2,0.1,0.3,0.2,0.5c0.2,0.2,0.4,0.4,0.7,0.7c0.1,0.1,0.2,0.3,0.2,0.5c-0.1,0.4,0.2,0.6,0.5,0.9
						c0.4,0.4,0.6,0.9,0.7,1.4c0,0.3,0,0.5,0.2,0.7c0.2,0.2,0.4,0.6,0.7,0.6c0.4,0.1,0.7,0.3,0.9,0.6c0.4,0.4,0.8,0.7,1.5,0.6
						c0.7,0.4,1.3-0.5,2-0.3c0.4-0.3,0.7-0.7,1.1-1c0.3-0.2,0.2-0.7,0.5-0.9c0.3-0.3,0.6-0.6,0.9-0.9c-0.2-0.4,0.4-0.6,0.4-1
						c0.1-0.5-0.3-1.1,0.3-1.6c0-0.6,0-1.2,0.1-1.8c0-0.1,0-0.1,0.1-0.2c0.1-0.2,0.4-0.3,0.1-0.5c-0.4-0.4,0.2-0.4,0.2-0.7
						c-0.1-0.9,0-1.8,0-2.6c0-0.1-0.2-0.3-0.2-0.5c-0.2-0.6-0.3-1.2,0.3-1.6c0.3-0.2,0.4-0.5,0.4-0.8c0-0.7,0-1.5,0-2.2
						c0-0.4-0.2-0.5-0.5-0.5c-0.3-0.1-0.3-0.6,0-0.7c0.2-0.1,0.5,0,0.5-0.4v-7.8c0-0.9,0.1-1.8,0-2.6c-0.1-0.8,0.4-1.7-0.3-2.5
						c-0.1-0.1,0.3-0.2,0.3-0.6V116c0-0.2-0.2-0.3-0.2-0.5c-0.1-0.2-0.2-0.5-0.1-0.5c0.4-0.3,0.4-0.6,0.4-1v-12.5
						c0-0.2,0.1-0.6-0.1-0.7c-0.4-0.3-0.3-0.8-0.3-1.2c0-0.4,0.2-0.5,0.6-0.5c0.1,0,0.2-0.3,0.2-0.5c0-0.2-0.2-0.3-0.4-0.3
						c-0.1,0-0.2-0.1-0.3-0.1c0.1-0.1,0.1-0.2,0.2-0.2c0.1,0,0.1,0,0.2,0c0.2-0.1,0.3-0.2,0.2-0.3c-0.2-0.2-0.4-0.4-0.5-0.5
						c-0.1-0.1-0.1-0.1,0.4-0.6l0.1-0.1l0.1-0.1c0,0,0.1-0.1,0.2-0.2c0.3-0.4,0.4-0.4,0-0.9c-0.2-0.4,0.1-1-0.5-1.3
						c0,0-0.1-0.3,0-0.4c0.2-0.2,0.4-0.4,0.4-0.8c0.5-0.2,0-0.5,0.1-0.8c0.3-1,0.4-1.9,0.2-2.6c-0.1-0.2-0.3-0.3,0-0.5
						c0.2-0.1,0.3-0.2,0.4-0.4c0.1-0.1,0.1-0.4,0.1-0.5c-0.4-0.4-0.4-0.7-0.1-1.1h0.1c0.2-0.2,0.1-0.7,0-0.8
						C57.1,85.9,57.1,85.6,56.9,85.3z M53.6,81.2c0,1.3,0.1,2.6,0,3.9c0,0.9,0.4,1.9-0.4,2.7c0,0.8,0,1.5,0,2.2v0.4
						c0,0.4,0.1,0.7-0.3,0.9c0,0.3,0.5,0.5,0.3,0.7c-0.7,0.7-0.2,1.5-0.4,2.3c0.9,0.5-0.1,1-0.1,1.5c-0.4,0.4-0.4,0.7,0,1.1
						c0.2,0.1,0.1,0.5,0.3,0.6c0.2,0.2,0,0.3-0.1,0.4c-0.4,0.4,0.1,1.1-0.5,1.3c0.1,0.4,0,0.8-0.4,1.2c-0.1,0.1,0,0.3,0.1,0.3
						c0.2,0.2,0.4,0.5,0.3,0.8c0,0.7,0,1.4,0,2.1c0,0.3-0.1,0.6-0.3,0.8c-0.1,0.1-0.1,0.3-0.1,0.3c0.5,0.5,0.4,1.1,0.4,1.7
						c0,0.3,0.4,0.4,0.4,0.6s-0.4,0.3-0.3,0.6c0.1,0.4-0.2,0.9,0.3,1.2c0,0.1-0.1,0.2-0.1,0.2c-0.1,0.2-0.2,0.3-0.2,0.5
						c0,1.3,0,2.6,0,3.9c0,0.3,0.7,0.6,0.1,1c0,0.4,0,0.7,0,1.1v1.3c0,0.4,0,0.8,0,1.1c0,0.2-0.1,0.3-0.2,0.4
						c-0.2,0.2-0.1,0.5-0.1,0.7c0,0.4,0.5,0.7,0.4,1.2c-0.1,0.4,0,0.8,0,1.1c0,0.2,0.2,0.3,0.3,0.5c0,0.1,0,0.2-0.1,0.2
						c-0.3,0.6-0.4,1.1,0.1,1.7c0.2,0.2,0.1,0.5-0.2,0.6c-0.1,0.1-0.2,0.2,0,0.3c0.4,0.3,0.2,0.5,0,0.9c-0.3,0.7-0.2,1.4,0,2.1
						c0.1,0.2,0.2,0.2,0,0.4c-0.1,0.1-0.2,0.3-0.2,0.5c0,0.4-0.1,0.9,0.3,1.2c-0.3,0.3-0.4,0.7-0.3,1.1c0,0.4,0,0.9,0,1.3
						c0,0.2,0.2,0.3,0.2,0.5c0.2,0.3,0.2,0.4,0,0.7c-0.2,0.2-0.4,0.3-0.5,0.5c-0.1,0.1-0.1,0.4,0,0.5c0.5,0.4,0.3,0.9,0.3,1.4
						c0,0.3-0.5,0.5,0,0.8c0.1,0,0,0.4-0.1,0.5c-0.4,0.3-0.3,0.7-0.2,1c0.4,1.2,0.4,1.2,0.1,2.2c-0.1,0.4,0.1,0.8-0.1,1.1
						c-0.7,1-0.2,2.1-0.3,3.2c0,0.1,0.1,0.4,0.2,0.5c0.3,0.3,0.2,0.6-0.1,0.8c-0.5,0.3-0.6,0.8-0.5,1.3c0.1,0.5-0.1,1,0,1.5
						c0.1,0.8-0.2,1.4-0.5,2c-0.1,0.1-0.2,0.3-0.2,0.5c0.2,0.8-0.4,1.2-0.9,1.7c-0.2,0.2-0.6,0.1-0.6-0.1c0.1-0.5-0.4-0.6-0.4-1
						c0-0.3-0.2-0.5-0.4-0.8c-0.1-0.2-0.2-0.4-0.3-0.6c0-0.1,0.4-0.2,0.2-0.4c-0.3-0.3-0.4-0.6-0.1-0.9c0.1,0,0.1-0.1,0.1-0.1v-2.2
						c-0.7-0.6-0.3-1.4-0.4-2.1c0-0.7-0.2-1.5,0.3-2.1c0.2-0.2,0-0.6,0-0.9c0-1.1,0-2.2,0-3.4c0-0.4-0.2-0.9,0.3-1.2
						c0.1-0.1,0.1-0.4,0.1-0.5V133c0-0.2-0.1-0.5-0.2-0.7c-0.3-0.7-0.3-1.1,0-1.9c0.3-0.7,0.3-1.5,0-2.1c-0.2-0.5-0.4-0.8,0-1.3
						c0.1-0.2,0.1-0.5,0.1-0.7c0-3.2,0-6.3,0-9.5c0-0.7-0.2-1.4,0.4-1.9c-0.1-0.4,0.2-0.8-0.2-1.2c-0.1-0.1-0.1-0.2-0.1-0.3
						c0.6-0.5,0.2-1.2,0.3-1.7c0.1-0.4-0.1-0.6-0.4-0.8c0.2-0.2,0.4-0.4,0.4-0.8c0-3,0-6,0-9c0-0.4-0.2-0.5-0.4-0.8
						c0.6-0.5,0.2-1.2,0.4-1.7c0-0.3-0.1-0.6-0.3-0.8s-0.1-0.5,0.1-0.6c0.2-0.2,0.1-0.5,0.2-0.7c0.1-0.4-0.7-0.7,0-1v-9.2
						c0-0.4,0-0.9,0-1.3c0-0.6,0.6-0.9,0.4-1.5c-0.1-0.4-0.1-0.7-0.1-1.1v-0.1c0,0,0-0.1,0-0.2v-0.4c0.7-1.1,0.3-2.3,0.4-3.4
						c0-0.4,0-0.8,0.6-0.7c0.1,0,0.2-0.2,0.2-0.3c0-0.5,0-1,0-1.5c0.1-0.4,0.3-0.8,0.5-1.1c0.1-0.1,0.2-0.1,0.4-0.1
						c0.1,0,0.4-0.1,0.5,0.1c0.4,0.4,1,0.7,0.9,1.5c0,0.1,0.1,0.2,0.1,0.3c0.2,0.4,0.2,0.8,0.1,1.1L53,77.7c0,0.1,0.1,0.2,0.1,0.3
						c0.4,0.3-0.1,0.9,0.4,1.1c0.1,0.1,0.3,0.2,0.4,0.4c0,0.4,0.1,0.7,0.1,0.7C53.6,80.5,53.6,80.8,53.6,81.2z"/>
					<path d="M128.1,188.2c-0.2-0.3-0.9-0.7-1.2-0.4c-0.4,0.3-0.8,0.3-1.2,0.3c-0.3,0-0.4,0.2-0.6,0.3c-0.3,0.2-0.9-0.1-1.1,0.4
						c-0.5,0-1,0.1-1.3,0.4c-0.5-0.2-0.8,0.3-1.2,0.4c-0.6,0.1-1.2-0.2-1.7,0.4c-0.6,0-1.2,0-1.9,0c-0.3,0-0.5,0.1-0.7,0.3
						c-0.3,0.3-0.7-0.1-1,0.3s-0.7,0.1-1,0.2c-0.2,0-0.6-0.1-0.7,0.1c-0.3,0.4-0.7,0.3-1,0.3c-0.4-0.1-0.6,0.4-1,0.4
						c-0.4,0-0.9,0.1-1.3,0c-0.5-0.1-0.9,0.2-1.4,0.4c-0.4,0.1-0.7,0-1.1,0c-0.3,0-0.6,0.1-0.9,0c-0.5-0.1-0.6,0.4-1,0.4
						c-0.6,0-1.1,0-1.7,0c-0.5,0-1,0.1-1.5,0c-0.7-0.2-1,0.4-1.5,0.4c-0.9,0-1.8,0-2.6,0c-0.2,0-0.6-0.1-0.7,0.1
						c-0.5,0.5-1.1,0.3-1.6,0.3c-1,0-2,0-3,0c-0.3,0-0.7-0.2-0.9,0c-0.8,0.6-1.7,0.2-2.5,0.4c-0.1,0-0.2,0-0.2,0
						c-0.3,0.2-0.5,0.5-0.8,0c0,0-0.1,0-0.2,0c-0.3,0.1-0.5,0.4-0.8,0.4c-0.4,0-0.5-0.4-1-0.4c-0.5,0.1-1.1,0-1.7,0
						c-0.3,0-0.6,0-0.8,0.3c-0.1,0.1-0.4,0.1-0.5,0c-0.3-0.4-0.7-0.3-1-0.3c-0.4,0-0.9,0-1.3,0H81c-0.4,0-0.9-0.1-1.3,0
						c-0.5,0.1-0.9-0.2-1.4-0.4c-0.5-0.1-1,0-1.5,0s-1-0.1-1.5,0c-0.6,0.1-0.8-0.4-1.4-0.4c-0.7,0-1.4,0.3-1.9-0.4c-0.5,0-1,0-1.5,0
						c-0.4-0.6-1-0.3-1.5-0.4c-0.4-0.1-0.7,0-1-0.3c-0.2-0.2-0.7,0-1.1-0.1c-0.3-0.1-0.6-0.5-1-0.4c-0.5,0.2-0.8-0.3-1.2-0.4
						c-0.4-0.1-0.9,0-1.3,0c-0.1,0-0.1-0.1-0.1-0.1c-0.3-0.4-0.8-0.1-1-0.3c-0.3-0.3-0.6-0.3-1-0.4c-0.2,0-0.4-0.3-0.6-0.4
						c-0.3-0.1-0.6,0.1-0.9-0.2c-0.2-0.3-0.6-0.2-0.9-0.5c-0.3-0.2-0.8,0-1.1-0.4c-0.2-0.2-0.7,0.1-1-0.3c-0.2-0.2-0.6-0.1-0.8-0.4
						s-0.7,0-1-0.2c-0.4-0.3-0.4-0.2-0.8,0.3c-0.1,0.2-0.4,0.3-0.1,0.7c0.3,0.4,0.4,1,1.1,1c0.2,0,0.5,0.4,0.5,0.5
						c0,0.5,0.3,0.5,0.7,0.7c0.4,0.1,0.7,0.6,1.1,0.6s0.6,0.4,0.9,0.5c0.4,0.1,0.8,0.2,1.1,0.5c0.4,0.4,0.9,0,1.2,0.4
						c0.3,0.4,0.8,0,1,0.3c0.3,0.5,0.9,0.1,1.1,0.4c0.4,0.4,0.8,0.2,1.2,0.3c0.5,0.1,0.8,0.5,1.4,0.4l0.1,0.1c0.3,0.5,1-0.1,1.3,0.5
						c0.3,0,0.6,0.1,0.9,0.1c0.2,0,0.6-0.1,0.7,0.1c0.3,0.3,0.7,0.4,1,0.3c0.4-0.1,0.7,0.3,1,0.4c0.4,0.1,0.8,0.1,1.1,0
						c0.5-0.1,0.8,0.3,1.2,0.4c0.6,0.1,1.3-0.2,1.8,0.2c0.5,0.4,1.1,0.2,1.6,0.2c0.6,0.1,1.2,0,1.9,0c0.3,0,0.8-0.2,0.9,0
						c0.7,0.7,1.5,0.3,2.3,0.3c2.6,0,5.1,0,7.7,0c0.6,0,1.2,0.2,1.7-0.4c0.3,0.1,0.6-0.1,0.9,0.2c0.2,0.3,0.7,0.3,0.8,0.2
						c0.6-0.5,1.3-0.4,1.9-0.4c1.4,0,2.7,0,4.1,0c0.5,0,0.9-0.7,1.5-0.4l0.1-0.1c0.3-0.2,0.8-0.3,1.5-0.3c0.8,0,1.5,0,2.3,0h0.1
						c0.8,0,1.5,0,2.3,0c0.2,0,0.6,0.1,0.7-0.1c0.4-0.5,0.9-0.3,1.4-0.3s1,0,1.5,0c0.7-0.7,1.5-0.4,2.3-0.3c0.5,0,0.7-0.5,1.2-0.4
						c0.5,0.1,1,0,1.5,0c0.1,0,0.1-0.1,0.1-0.1c0.3-0.4,0.8-0.2,1.2-0.3c0.4-0.1,0.7-0.5,1.2-0.4c0.4,0.1,0.9,0.2,1.2-0.3l1.2-0.1
						c0.3-0.5,0.9-0.1,1.1-0.4c0.3-0.4,0.7-0.3,1-0.3c0.4,0,0.7,0.1,1-0.2c0.4-0.4,0.8-0.1,1.2-0.2c0.1,0,0.1-0.1,0.1-0.1
						c0.2-0.4,0.7-0.2,0.9-0.5c0.2-0.3,0.7,0.1,1-0.3c0.2-0.3,0.7-0.2,0.9-0.5c0.1-0.1,0.3-0.1,0.5-0.1c0.3,0,0.5-0.1,0.5-0.4
						c0-0.6-0.2-1.2,0.4-1.7C128.2,188.5,128.2,188.4,128.1,188.2z"/>
				</g>
			</g>
		</g>
	</g>
</g>
</svg>
