<?xml version="1.0" encoding="utf-8"?>
<!-- Generator: Adobe Illustrator 27.5.0, SVG Export Plug-In . SVG Version: 6.00 Build 0)  -->
<svg version="1.1" id="Calque_1" xmlns="http://www.w3.org/2000/svg" xmlns:xlink="http://www.w3.org/1999/xlink" x="0px" y="0px"
	 viewBox="0 0 160 205" style="enable-background:new 0 0 160 205;" xml:space="preserve">
<style type="text/css">
	.st0{clip-path:url(#SVGID_00000036944648608037627390000013902844608926614145_);}
	.st1{fill:#CCCCCC;}
	.themeColor{fill:var(--voxxrin-event-theme-colors-primary-hex);}
	.st3{fill:#333333;}
</style>
<g>
	<defs>
		<rect id="SVGID_1_" width="160" height="205"/>
	</defs>
	<clipPath id="SVGID_00000064327527907945377250000013289559475481779076_">
		<use xlink:href="#SVGID_1_"  style="overflow:visible;"/>
	</clipPath>
	<g style="clip-path:url(#SVGID_00000064327527907945377250000013289559475481779076_);">
		<path class="st1" d="M45.6,21.2c0,0,16.9-26.9,34.4-2.8c0,0,4.4-17.7,24.5-16c20.1,1.8,20.7,11.1,20.7,11.1s6.5-11.8,24.4,1.3
			c0,0,10.4,12,1.2,20.8c0,0,11.4,3.1,3.8,16.6c0,0-7.6,5.4-11,4.4c0,0-11.2,15.5-23.6,0.1c0,0-15.9,13.7-28.7,6.8
			c-12.8-6.9-8.8-10.8-8.8-10.8S73.4,68,62.1,65C50.8,62.1,48,54.6,48,54.6s-9.4,12-15.6,2c-6.2-10-2.1-13.6-2.1-13.6
			S18.8,34.8,29,26.2C39.2,17.7,45.6,21.2,45.6,21.2L45.6,21.2z"/>
		<path class="themeColor" d="M38.9,167.8c0,0,18.5,21.9,58,18.8c39.5-3.1,48.8-16.1,48.8-16.1s5.2,26.5-22,30.3
			c-27.2,3.8-66.3,1.8-78.1-8.8C33.9,181.5,38.9,167.8,38.9,167.8L38.9,167.8z"/>
		<path class="st3" d="M12.2,76.4c0,0-6.4,29.9,0,35.5c6.4,5.5,25.7,17,25.7,17v-5.3c0,0-25.5-14.8-22.8-23.2
			c2.7-8.4,4.9-17.2,4.9-17.2L12.2,76.4L12.2,76.4z"/>
		<path d="M116.1,22.9c0,0.4,0.1,0.9,0,1.3c-0.1,0.9,0.4,1.8-0.4,2.7c0,0.6,0,1.2,0,1.9c0,0.5-0.5,0.9-0.4,1.5
			c0.2,0.6-0.3,1-0.5,1.5c-0.2,0.4-0.5,0.8-0.8,1.2c-0.2,0.4-0.5,0.8-0.8,1.2c-0.4,0.5-0.9,1-1.4,1.5c-0.5,0.4-0.7,1.2-1.5,1.2
			c-0.1,0-0.3,0.2-0.4,0.4c-0.7,0.9-1.8,1.2-2.5,2.1c-0.1,0.1-0.3,0.1-0.5,0.1c-0.2,0.1-0.4,0.1-0.5,0.2c-0.2,0.2-0.4,0.4-0.7,0.6
			c-0.8,0.4-1.6,0.7-2.3,1.1c-0.5,0.2-0.9,0.5-1.4,0.7c-0.5,0.2-1.1,0-1.7,0c-0.2,0-0.4,0-0.6,0c-0.4,0-0.7,0-1.1,0
			c-0.3,0.6-0.9,0.1-1.3,0.5c-0.2,0.3-0.6,0.1-0.9,0.2c-0.2,0.1-0.4,0.3-0.6,0.4c-0.1,0-0.3-0.1-0.5-0.2c-0.1-0.1-0.2-0.2-0.3,0
			c-0.4,0.5-0.9,0.2-1.4,0.2c0,0-0.1-0.1-0.1-0.1c0-0.4-0.2-0.6-0.6-0.7c-0.3-0.1-0.5-0.5-0.8-0.8c-0.1-0.1-0.1-0.2,0-0.3
			c0.1-0.1,0.2-0.3,0.2-0.5c0.1-0.4-0.2-0.9,0.2-1c0.4-0.1,0.6-0.5,0.9-0.4c0.3,0.1,0.4-0.6,0.7-0.2c0.3,0.3,0.4-0.1,0.5-0.1
			c0.4-0.1,0.7,0,1.1-0.1c0.3-0.1,0.4-0.5,0.8-0.4c0.6,0.1,1.1-0.2,1.4-0.6c0-0.1,0.1-0.1,0.1-0.1c0.5,0.1,0.9-0.1,1.3-0.5
			c0.3-0.3,0.9-0.3,1.2-0.6c0.7-0.6,1.5-0.9,2.2-1.4c0.7-0.5,1.4-0.9,2-1.6c0.4-0.5,1.1-0.6,1.6-1.2c0.4-0.5,0.8-0.9,1.3-1.3
			c0.3-0.2,0.9-0.2,1-0.7c0.1-0.4,0.3-0.7,0.6-0.9c0.3-0.3,0.6-0.6,0.9-0.9c0.1-0.1,0-0.2,0.1-0.3c0.3-0.5,0.5-1.1,0.9-1.5
			c0.3-0.2,0.2-0.7,0.5-0.9c-0.3-0.6,0.4-0.9,0.4-1.5c-0.1-0.6-0.1-1.1,0-1.7c0.1-0.4,0.5-0.7,0.4-1.2c-0.1-0.4,0-0.8,0-1.1
			c0-0.4-0.1-0.7,0.2-1.1c0.4-0.4,1.4-1.1,1.8-1.1c0.1,0,0.3-0.1,0.4,0c0.3,0.3,0.7,0.5,1,0.8c0.1,0.2,0.1,0.5,0.1,0.7
			C116.2,20.8,116.2,21.8,116.1,22.9L116.1,22.9z"/>
		<path d="M146.9,25c0,0.4-0.1,0.8,0,1.1c0.1,0.7-0.6,1.2-0.4,1.9c-0.4,0.4-0.4,1-0.9,1.3c-0.4,0.2-0.4,0.7-0.7,1
			c-0.3,0.3-0.5,0.7-1,0.8c-0.4,0.1-0.5,0.6-0.8,0.7c-0.9,0.2-1.5,1.1-2.4,1.4c-0.1,0-0.2,0.2-0.3,0.2c-0.9-0.1-1.5,0.7-2.3,0.8
			c-0.2,0.5-0.9,0.1-1.1,0.4c-0.3,0.3-0.7,0.3-1,0.3c-0.5-0.1-0.8,0.5-1.4,0.4c-0.4-0.1-0.9,0-1.3,0c-0.7,0.7-1.5,0.2-2.3,0.4
			c-0.5,0.1-0.8-0.3-0.9-0.7c-0.1-0.2-0.1-0.4-0.3-0.4c-0.6,0-1.2,0-1.8,0c-0.4,0.5-0.9,0.3-1.4,0.3c-0.2,0-0.4,0-0.5-0.1
			c-0.2-0.3-0.6-0.2-0.8-0.4c-0.1-0.1-0.1-0.5-0.1-0.7c-0.1-0.6,0.2-1,0.4-1.5c0.1-0.3,0.4-0.2,0.6-0.3c0.2-0.1,0.2-0.4,0.3-0.6
			c0-0.1,0.1-0.1,0.1-0.1c0.5,0.1,1-0.2,1.4,0.3c0.1,0.1,0.4,0.1,0.5,0.1c0.6-0.1,1.1-0.5,1.7-0.4c0.1,0,0.2-0.1,0.3-0.2
			c0.3-0.2,0.4-0.7,0.9-0.5c0.2-0.3,0.6-0.5,1-0.4c0.2,0.1,0.4-0.1,0.4-0.3c0.4-0.5,0.9-0.5,1.3-0.8c0.6,0.2,0.9-0.2,1.2-0.6
			c0.3-0.4,0.7-0.5,1-0.7c0.3-0.2,0.5-0.5,0.9-0.7c0.4-0.1,0.7-0.6,1-0.7c0.6-0.1,0.7-0.9,1.4-0.8c0,0,0.1-0.1,0.1-0.1
			c0.1-0.4,0.1-0.7,0.7-0.7c0.2-0.3,0.2-0.7,0.5-0.9c0.4-0.2,0.4-0.7,0.6-1.1c0.2-0.2,0.1-0.6,0.1-0.9c0-0.5,0-1,0-1.5
			c-0.5-0.3-0.3-0.8-0.3-1.2c0-0.4,0.1-0.4,0.3-1.2c0.2-0.8,1-0.8,1.4-1.2c0.1-0.1,0.3,0,0.3,0.1c0.3,0.4,0.7,0.2,1,0.3
			c0.4,0.2,0.7,0.7,1.1,1c0.1,0.1,0.3,0.3,0.3,0.4c0.1,0.3-0.1,0.7,0,0.9c0.1,0.3,0.5,0.4,0.4,0.8c-0.2,0.4,0.4,0.6,0.4,1
			c0,0.4-0.1,0.8,0,1.1c0.1,0.4,0.5,0.7,0.4,1.2C146.8,24.1,146.9,24.5,146.9,25L146.9,25z"/>
		<path d="M56.2,55.2c0,0,0-0.1,0-0.2c-0.1-0.5,0.2-0.8,0.7-0.8c0.1,0,0.2-0.2,0.3-0.2c0.2,0,0.4,0,0.5,0.1c0.8,0.6,0.8,0.6,1.6,0.6
			c0.4,0,0.8-0.1,1.1,0c0.5,0.1,0.7-0.4,1.2-0.4s0.9,0,1.3,0c0.1,0,0.1-0.1,0.1-0.1c0.6-0.3,1.2-0.3,1.8-0.7c0.6-0.4,1.3-0.5,1.8-1
			c0.7,0.1,0.8-0.9,1.5-0.8c0.4-0.4,1-0.4,1.3-0.9c0.2-0.3,0.8-0.3,1-0.7c0.2-0.4,0.7-0.1,0.9-0.5c0.5,0,0.8-0.3,1-0.7
			c0.3-0.5,0.8-0.5,1.2-0.8c0.3-0.3,0.6-0.7,0.9-0.8c0.4-0.1,0.4-0.2,0.5-0.6c0.1-0.2,0.5-0.3,0.7-0.4c0.4-0.2,0.3-0.7,0.5-0.9
			c1.1,0,0.9-1.4,1.7-1.7c-0.1-0.5,0.2-0.9,0.4-1.3c0.1-0.1,0-0.3,0-0.4c0.2-0.5,0.5-0.9,0.7-1.4c0.2-0.5,0-1.1,0.1-1.7
			c0-0.2,0.5-0.7,0.8-0.7c0.1,0,0.1,0,0.2,0c0.3,0,0.6,0,0.9,0c0.4-0.1,0.7,0.2,0.9,0.4c0.4,0.4,0.5,0.8,0.5,1.3
			c0,0.4,0,0.9-0.4,1.1c0,0.6-0.1,1.1,0,1.7c0.1,0.7-0.3,1.1-0.5,1.7c-0.1,0.4-0.6,0.7-0.6,1c0,0.5-0.6,0.7-0.5,1.1
			c-0.5,0.3-0.4,1-0.9,1.3c-0.6,0.3-0.6,1-1.1,1.4c-0.5,0.4-1,0.9-1.5,1.4c-0.4,0.4-0.9,0.8-1.3,1.3c-0.2,0.3-0.2,0.9-0.7,1
			c-0.4,0.1-0.7,0.3-0.9,0.6c-0.3,0.3-0.6,0.6-0.9,0.9c-0.7,0-0.9,0.9-1.7,0.9c-0.4,0.6-1.1,0.7-1.6,1c-0.2,0.1-0.4,0.3-0.6,0.4
			c-0.1,0.1-0.3,0.3-0.4,0.3c-0.6-0.2-0.9,0.4-1.4,0.4c-0.2,0.4-0.8,0.3-1.1,0.6c-0.3,0.4-1-0.1-1.3,0.5c-0.5,0-1,0.1-1.5,0
			c-0.5-0.1-0.7,0.6-1.2,0.4c-0.4-0.1-1,0.2-1.4-0.3c-0.1-0.1-0.5-0.1-0.7-0.1c-0.3,0-0.6,0-0.9-0.1c-0.2-0.1-0.4-0.2-0.6-0.3
			c-0.3-0.1-0.6-0.4-0.8-0.7C58,57.5,58,57.2,57.8,57c-0.4,0.1-0.5-0.3-0.8-0.4C56.3,56.5,56.1,56,56.2,55.2L56.2,55.2z"/>
		<path d="M58.8,38.2h-1.3c-0.4,0-0.9,0.1-1.3,0c-0.4-0.1-0.8-0.3-1.1-0.4c-0.4-0.1-0.7-0.3-1.2-0.4c-0.2,0-0.5-0.3-0.8-0.4
			c-0.4-0.1-0.7-0.6-0.9-0.9c-0.2-0.3-0.7-0.2-0.9-0.5c-0.1-0.2-0.2-0.3-0.2-0.5c0-0.2,0.3-0.4,0.3-0.6C51.2,34.4,51,34.3,51,34
			c0-0.5,0.4-1,0.8-1c0.3,0,0.6,0,0.9,0c0.3,0,0.4,0.1,0.6,0.3c0.2,0.2,0.4,0.4,0.6,0.4c0.2,0.1,0.5,0,0.7,0.1
			c0.2,0.1,0.3,0.3,0.4,0.3c0.3,0,0.4,0.3,0.6,0.4c0.2,0.1,0.5,0,0.7,0c0.4,0,0.8,0,1.1,0c0.5,0,1.1,0.2,1.5-0.4
			c0.5,0.2,0.9-0.2,1.3-0.4c0.4-0.2,0.8-0.4,1.2-0.7c0.3-0.2,0.8-0.2,1.1-0.5c0.4-0.3,0.9-0.3,1.2-0.7c0.1-0.1,0.4,0.1,0.5-0.1
			c0.3-0.6,1-0.6,1.4-1c0.7-0.7,1.4-1.4,2.1-2.1c0.1-0.1,0.3-0.2,0.2-0.3c-0.3-0.8,0.7-1.1,0.8-1.7c0-0.6,0.5-1.1,0.4-1.7
			c-0.1-0.4,0.9-1.8,1.2-1.9c0.2-0.1,0.5-0.1,0.7-0.1c1.4-0.1,1.9,0.1,1.8,1.7c-0.1,0.7,0,1.4,0,2.1c0,0.4,0.1,0.7-0.1,1.1
			c-0.4,0.7-0.4,1.6-1.1,2.2c-0.4,0.3-0.2,0.8-0.7,1.1c-0.3,0.2-0.6,0.5-0.8,0.8c-0.2,0.3-0.4,0.7-0.7,1c-0.2,0.3-0.5,0.6-0.8,0.8
			c-0.4,0.3-0.6,1-1.3,0.9c-0.4,0.4-0.8,0.8-1.2,1.2c-0.4,0.4-1,0.4-1.3,0.9c-0.1,0.1-0.2,0.1-0.3,0.1c-0.7,0.4-1.4,0.6-2,1
			c-0.1,0.1-0.4,0.1-0.5,0.1c-0.4-0.1-0.5,0.4-0.8,0.4C60.6,38.2,59.6,38.2,58.8,38.2L58.8,38.2z"/>
		<path d="M131,54.6c-0.5-0.1-1,0.2-1.4-0.2c-0.4-0.4-0.8-0.1-1.2-0.2c-0.1,0-0.1-0.1-0.2-0.1c-0.1,0-0.1-0.1-0.1-0.1
			c-0.4-0.2-0.7-0.4-1.1-0.5c-0.1,0-0.2,0-0.2,0c-0.5-0.6-1.2-1-1.5-1.8c-0.1-0.3-0.2-0.5-0.1-0.8c0.2-0.5,0.5-0.9,0.9-1.3
			c0.3-0.3,0.6-0.3,1.1-0.1c0.2,0.1,0.3,0.2,0.5,0.2c1,0,1,0,1.4,0.3c0.1,0.1,0.2,0.1,0.3,0c0.3-0.4,0.8-0.2,1.2-0.2
			c0.3,0,0.6-0.1,0.9,0c0.4,0.1,0.5-0.3,0.8-0.4c0.3-0.1,0.6,0.1,0.9-0.2c0.2-0.2,0.5-0.2,0.8-0.4c0.7-0.4,1.5-0.6,2.1-1.3
			c0.5-0.6,0.6-0.8,0.9-1.9c0.1-0.4,0.3-0.8,0.5-1.1c0.2-0.2,0.4-0.5,0.7-0.7c0.2-0.2,0.4-0.5,0.5-0.5c0.6,0.2,1-0.4,1.5-0.4
			c0.7,0,0.7,0,0.9,0.8c0.1,0.3,0.3,0.5,0.4,0.8c0.1,0.2-0.1,0.5,0.2,0.7c0.1,0.1,0.3,0.2,0.1,0.4c-0.1,0.1-0.2,0.3-0.2,0.5
			c0.2,0.7-0.3,1.1-0.5,1.7s-0.7,0.9-0.7,1.6c0,0.1,0,0.2,0,0.2c-0.3,0.3-0.6,0.6-0.9,0.9c-0.3,0.2-0.1,0.7-0.5,0.9
			c-0.5,0.2-0.9,0.5-1.3,0.9c-0.5,0-0.7,0.4-1,0.7c-0.1,0.1-0.2,0.2-0.3,0.1c-0.5-0.2-0.8,0.4-1.2,0.4c-0.4,0-0.5,0.5-1,0.4
			c-0.2,0.4-0.6,0.4-1,0.3c-0.5-0.1-0.7,0.4-1.2,0.4C131.8,54.7,131.4,54.7,131,54.6L131,54.6z"/>
		<g>
			<path d="M160,46.2L160,46.2c0-1.3,0-2.6,0-4c0-0.4-0.1-0.9,0-1.3c0.1-0.5-0.5-0.6-0.4-1.2c0.1-0.5-0.6-0.8-0.4-1.3
				c0-0.1-0.3-0.3-0.3-0.4c-0.1-0.5-0.5-0.9-0.7-1.4c-0.2-0.5-0.5-1-0.8-1.5c-0.3-0.7-0.7-1.2-1.5-1.4c-0.1,0-0.2-0.2-0.3-0.2
				c-0.3-0.2-0.1-0.3,0-0.5c0.1-0.4,0-0.9,0.2-1.2c0.2-0.3,0.4-0.6,0.3-1c-0.1-0.4,0.3-0.7,0.4-1c0.1-0.5,0.1-1,0-1.5
				c-0.2-0.6,0.4-0.9,0.4-1.4c0-0.5,0-1,0-1.5c0-0.4,0.1-0.9-0.4-1.2c0-0.5,0-1,0-1.5c0-0.1-0.1-0.1-0.1-0.1
				c-0.5-0.4-0.1-1.1-0.6-1.5c-0.1-0.1,0-0.5,0-0.7c0-0.3-0.2-0.4-0.3-0.7c-0.2-0.3-0.3-0.7-0.5-1.1c-0.2-0.4-0.4-0.8-0.6-1
				c-0.3-0.3-0.5-0.7-0.7-1.1c-0.2-0.5-0.5-0.9-0.9-1.3c-1.2-1.2-2.5-2.4-3.7-3.7c-0.4-0.4-0.9-0.6-1.3-0.9
				c-0.3-0.2-0.7-0.2-0.9-0.5c-0.2-0.4-0.7-0.2-0.9-0.5c-0.2-0.3-0.5-0.5-0.8-0.8c-0.1-0.1-0.2-0.1-0.3-0.1c-0.4,0.1-0.7-0.3-1-0.4
				c-0.4-0.1-0.6-0.4-0.9-0.6c-0.1-0.1-0.3-0.2-0.5-0.2c-0.7,0.1-1.2-0.4-1.8-0.6c-0.5-0.2-1-0.7-1.7-0.5c-0.2,0.1-0.4,0-0.5-0.1
				c-0.4-0.5-1-0.7-1.7-0.6c-0.7,0.1-1.4,0-2,0c-0.7,0-1.4-0.2-1.9,0.4c-0.5,0-1,0.1-1.5,0c-0.6-0.2-0.9,0.5-1.5,0.4
				c-0.4-0.1-0.8-0.2-1.2,0.2c-0.4,0.4-0.8,0.1-1.2,0.2c-0.1,0-0.1,0.1-0.1,0.1c-0.2,0.4-0.7,0.1-1,0.3c-0.4,0.2-0.7,0.5-1.1,0.7
				c-0.3,0.2-0.7,0.2-1-0.1c-0.1-0.1-0.1-0.1-0.1-0.1c-0.4-0.4-0.8-0.8-1.2-1.2c-0.5-0.4-0.8-0.9-1.4-1.1c-0.5-0.2-0.8-0.7-1.2-1.1
				c-0.2-0.2-0.6-0.2-0.8-0.4c-0.3-0.3-0.7-0.2-1-0.4c-0.3-0.1-0.5-0.5-0.8-0.7c-0.1-0.1-0.2-0.1-0.4,0C117,2.8,116.6,2,116,2.3
				c-0.3-0.7-1.1-0.1-1.4-0.7c-0.6,0-1.1,0-1.7-0.1c-0.2,0-0.4-0.1-0.5-0.2c-0.4-0.4-1,0.1-1.3-0.5c-0.4,0-1,0.1-1.2-0.2
				c-0.5-0.4-0.9-0.2-1.4-0.2c-1.1,0-2.1,0-3.2,0c-0.5,0-1,0.1-1.3-0.4c-0.1-0.1-0.3-0.1-0.4,0c-0.2,0.2-0.4,0.4-0.8,0.4
				c-0.4-0.1-0.7,0.1-1-0.3c-0.1-0.1-0.6-0.2-0.7-0.1c-0.5,0.5-1.1,0.3-1.7,0.4c-0.3,0-0.7-0.1-0.9,0c-0.2,0-0.4,0.4-0.6,0.3
				c-0.6-0.2-0.8,0.4-1.4,0.4c-0.6,0-1.2-0.2-1.8,0.2c-0.5,0.4-1.3-0.2-1.7,0.5c-0.3,0-0.6,0-0.9,0c-0.4,0.1-0.5,0.5-1,0.4
				c-0.5-0.1-0.8,0.6-1.3,0.4C89.6,2.9,89.3,3,89,3.2c-0.2,0.1-0.4,0.2-0.7,0.3c-0.2,0-0.3,0.3-0.6,0.4c-0.9,0.4-1.8,0.8-2.6,1.5
				c-0.5,0-0.7,0.5-1,0.8c-0.4,0.3-0.8,0.6-1.2,0.7c-0.7,0.3-1.2,0.8-1.6,1.4c-0.3,0.4-0.5,0.9-0.4,1.5c0,0.1,0,0.1,0,0.2
				c-0.1,0.1-0.1,0.2-0.2,0.2c-1-0.1-1.3,0.4-1.3,1.3c0,0.2-0.3,0.4-0.5,0.5c-0.1,0-0.3-0.2-0.4-0.3c-0.2-0.3-0.5-0.4-0.6-0.9
				c-0.1-0.3-0.4-0.7-0.7-0.8c-0.7-0.3-1.2-0.8-1.7-1.4c-0.2-0.2-0.5-0.3-0.8-0.4c-0.4-0.1-0.7-0.6-1-0.6c-0.5,0-0.7-0.6-1.1-0.5
				c-0.3-0.4-0.7-0.4-1.2-0.4c-0.3-0.4-0.8-0.5-1.2-0.7c-0.4-0.2-1-0.1-1.5-0.1c-0.1,0-0.3,0-0.3-0.1C68,5.5,67.5,5.7,67,5.7
				c-1.8,0-3.6,0-5.4,0c-0.5,0-1-0.2-1.4,0.4c-0.4,0-0.8,0.1-1.1,0c-0.5-0.1-0.7,0.6-1.1,0.4c-0.5-0.2-0.9,0.2-1.4,0.4
				c-0.4,0.1-0.5,0.5-0.9,0.4c-0.4-0.1-0.6,0.4-1,0.4c-0.8,0.1-1.5,0.7-2.2,0.9c-0.2,0.5-0.8,0.4-1.2,0.8c-0.6,0-0.8,0.8-1.3,0.8
				c-0.6,0.1-0.7,0.9-1.4,0.8c-0.1,0.2-0.1,0.5-0.3,0.7C48,12,47.3,12.2,47.3,13c0,0.1-0.1,0.1-0.1,0.1c-0.6,0-0.8,0.5-1.2,0.8
				c-0.2,0.2-0.2,0.5-0.4,0.8c-0.2,0.2-0.5,0.4-0.5,0.5c0,0.3-0.3,0.5-0.4,0.8c-0.1,0.2-0.2,0.4-0.3,0.6c-0.1,0.2,0,0.7-0.2,0.8
				c-0.2,0.3-0.4,0.5,0,0.7c-0.1,0.1-0.1,0.2-0.2,0.2c-0.4,0.1-0.5-0.3-0.8-0.4c-0.4-0.1-0.7,0-1.1-0.1c-0.4-0.5-0.9-0.3-1.4-0.3
				c-0.6,0-1.1,0-1.7,0.1c-0.2,0.4-0.7,0.4-1,0.3c-0.5-0.2-0.7,0.5-1.2,0.4c-0.4-0.1-0.9-0.1-1.1,0.4c-0.4,0-0.9,0-1.2,0.4
				c-0.5-0.1-0.8,0.7-1.3,0.4c-0.4,0.2-0.8,0.3-1.1,0.6c-0.3,0.4-0.8,0.5-1.2,0.8c-0.3,0.2-0.7,0.2-0.9,0.5
				c-0.2,0.4-0.7,0.2-0.9,0.5c-0.3,0.4-0.8,0.6-0.8,1.2c-0.2,0.2-0.3,0.5-0.7,0.5c-0.4,0-0.6,0.4-0.8,0.7c-0.3,0.7-0.4,0.7-0.4,1.5
				c0,0.5-0.1,0.7-0.6,0.9c-0.3,0.1-0.6,0.4-0.5,0.9c0.1,0.3-0.1,0.4-0.3,0.6c-0.5,0.4-0.7,0.9-0.8,1.5c-0.1,0.3,0,0.7-0.1,0.9
				c-0.3,0.3-0.1,0.7-0.5,0.9c-0.1,0.1-0.2,0.4-0.1,0.5c0.2,0.2,0.3,0.4,0.1,0.7c-0.2,0.3-0.1,0.8-0.2,1.2c-0.5,0.4-0.3,0.9-0.3,1.4
				c0,0.2,0.1,0.5,0,0.7c-0.2,0.3-0.5,0.5,0,0.8c0.1,0,0,0.4-0.1,0.5c-0.3,0.2-0.1,0.4,0.1,0.5c0,0,0,0.2-0.1,0.2
				c-0.2,0.2-0.2,0.3,0,0.4c0.2,0.1,0.5,0.1,0.5,0.2c-0.1,0.6,0.5,1,0.4,1.5c0,0.5,0,1,0.5,1.3c0.4,0.3,0.6,0.7,0.8,1.2
				c0.1,0.1,0.2,0.2,0.2,0.3c0,0.4,0.3,0.5,0.5,0.7c0.2,0.2,0.4,0.4,0.5,0.5c0.2,0.2,0.5,0.4,0.5,0.7c0.1,0.2,0.3,0.6,0.5,0.7
				c0.4,0.1,0.6,0.2,0.8,0.4c0.1,0.1,0.1,0.2,0.1,0.3c-0.4,0.3-0.3,0.8-0.2,1.2c0.1,0.5-0.5,0.8-0.4,1.4c0,0.4,0,0.9,0,1.3
				c0,0.5-0.1,1,0.4,1.3c0.1,0.5-0.2,1.1,0.2,1.6c0.4,0.5,0.2,1.1,0.2,1.6c0.1,0.7,0.7,1.2,0.4,1.9c0,0.1,0.1,0.2,0.2,0.3
				c0.4,0.3,0.5,0.7,0.7,1.1c0.2,0.3,0.5,0.4,0.9,0.5c0.2,0.9,1.1,1.3,1.6,2c0.4,0.6,1.2,0.6,1.6,1.2c0.2,0.3,0.6,0,0.9,0.2
				c0.4,0.2,0.7,0.4,1,0.7c0.1,0.1,0.2,0.3,0.3,0.4c0.1,0.3,0,0.6,0,0.9c-0.7,0.5-0.3,1.1-0.4,1.7c0,0.3,0,0.6,0,0.9
				c0,0.1-0.1,0.1-0.1,0.1c0,0-0.1,0-0.1-0.1c-0.4-0.4-0.7-0.9-1.2-1.2c-0.4-0.3-0.9-0.5-1.4-0.7c-0.2-0.1-0.3-0.2-0.4-0.4
				c-0.3-0.4-0.9-0.3-1.2-0.8c-0.3-0.3-0.8-0.4-1.2-0.7c-0.4-0.2-0.8-0.5-1.2-0.7c-0.6,0.2-1-0.4-1.5-0.4c-0.4-0.6-1.2-0.1-1.6-0.7
				c-0.5-0.1-1,0.2-1.4-0.3c-0.6,0-1.1-0.1-1.7-0.1c-0.4,0-0.9,0-1.3,0c-0.2,0-0.4,0-0.5-0.1c-0.3-0.4-0.8-0.3-1.2-0.3
				c-0.4,0-0.9,0-1.3,0c-0.5,0-1,0.1-1.5,0c-0.5-0.1-0.7,0.5-1.2,0.4c-0.5-0.2-0.9,0.3-1.3,0.3c-0.5,0-0.8,0.5-1.4,0.4
				c-0.2,0.2-0.4,0.4-0.8,0.4c-0.2,0-0.4,0.1-0.5,0.2c-0.4,0.3-0.6,0.8-1.1,0.9C10,63,9.9,63.5,9.5,63.8C9,64.1,8.7,64.7,8,64.8
				c-0.1,0-0.4,0.2-0.4,0.4c-0.1,0.5-0.4,0.9-0.8,1.1c-0.5,0.4-0.4,1-0.9,1.3c-0.4,0.2-0.6,0.7-0.8,1.1c-0.3,0.5-0.4,1.2-0.9,1.7
				c0.2,0.4-0.4,0.6-0.4,1c0.1,0.4-0.1,0.7-0.4,0.9c-0.2,0.2-0.3,0.3-0.4,0.6c-0.1,0.5,0.1,1.1-0.3,1.6C2.4,75,3,75.8,2.4,76.1
				c-0.1,0.5,0.2,1.2-0.2,1.6C1.7,78.3,2,78.9,2,79.5c0,0.4,0,0.8-0.4,1.2c-0.2,0.2,0,0.7-0.3,1c-0.2,0.3-0.1,0.8-0.1,1.2
				c0,0.3,0.1,0.7,0,0.9c-0.5,0.8-0.3,1.7-0.4,2.5c0,0.1,0,0.3-0.1,0.4c-0.5,0.3-0.3,0.8-0.3,1.2c0,0.4,0,0.9,0,1.3
				c-0.7,0.8-0.4,1.8-0.4,2.7c-0.1,3.6-0.1,7.2,0,10.8c0,0.7-0.3,1.4,0.4,1.9v1.5c0.5,0.4,0.4,0.9,0.4,1.4c0.1,0.6-0.1,1.2,0.4,1.7
				c0.2,0.2,0.1,0.7,0.1,1.1c0.6,0.3,0.1,0.9,0.5,1.3c0.4,0.3,0,1,0.5,1.3c-0.1,0.5,0.2,0.9,0.4,1.3c-0.2,1,0.6,1.7,0.9,2.6
				c0.5,0.3,0.5,1,0.9,1.3c-0.1,0.7,0.7,0.8,0.8,1.4c0,0.2,0.4,0.5,0.5,0.7c0.2,0.2,0.3,0.5,0.4,0.8c0.2,0.5,0.4,0.8,0.8,1.2
				c0.3,0.3,0.6,0.6,0.9,0.9c0.3,0.3,0.6,0.6,0.9,0.9c0.4,0.4,0.7,0.7,1.1,1.1c0.5-0.1,0.8,0.4,1,0.7c0.3,0.4,0.8,0.4,1.1,0.7
				c0.5,0.4,0.8,0.9,1.4,1.1c0.4,0.6,1.2,0.6,1.6,1.2c0.2,0.3,0.7,0.2,0.9,0.5c0.2,0.4,0.7,0.4,1.1,0.6c0.3,0.3,0.7,0.4,1.1,0.5
				c0.5,0.1,0.6,0.8,1.2,0.8c0.3,0.3,0.7,0.6,0.9,0.9c0.2,0.2,0.5,0.2,0.6,0.3c0.3,0.4,0.9,0.3,1.2,0.8c0.3,0.4,0.8,0.4,1.2,0.8
				c0.4,0.4,0.9,0.5,1.3,0.9c0.2,0.2,0.6,0.1,0.8,0.4c1,0.4,1.8,0.9,2.8,1.4c0.9,0.4,1.9,0.9,2.8,1.4c0.6,0.3,1.2,0.7,1.9,1
				c0.7,0.4,1.4,0.1,2.2,0.1c0.2,0,0.4,0.1,0.4,0.3V164c0,0.5,0.1,0.9,0,1.3c-0.1,0.5,0.4,0.8,0.4,1.1c0.1,1.3,0,2.6,0,3.9
				c-0.7,0.7-0.3,1.5-0.4,2.3c-0.1,1,0,2,0,3v3c0,0.5,0,1,0,1.5c-0.1,0.5,0.5,0.8,0.4,1.4c-0.1,0.4,0,0.8,0,1.3
				c0.5,0.4,0.3,0.9,0.4,1.4c0,0.1,0,0.1,0.1,0.2c0,0.1,0.1,0.1,0.1,0.1c0.5,0.9,0.9,1.8,1.3,2.7c0,0,0,0.1,0,0.2
				c0.3,0.4,0.6,0.7,0.8,1.2c0.2,0.5,0.7,0.8,1.1,1.2c0.4,0.3,0.7,0.7,0.8,1.2c0.5-0.1,0.6,0.3,0.7,0.7c0,0.1,0.2,0.1,0.3,0.1
				c0.3,0,0.4,0.3,0.6,0.4c0.2,0.1,0.3,0.3,0.4,0.4c0.3,0,0.4,0.2,0.6,0.3c0.2,0.2,0.2,0.4,0.3,0.6c0.2,0.3,0.5,0.5,0.8,0.8
				c0.2,0.2,0.5,0.7,0.8,0.8c0.5,0.1,0.8,0.5,1.2,0.8c0.4-0.1,0.6,0.4,0.9,0.4c0.4,0,0.5,0.5,1,0.4c0.1,0,0.3,0.2,0.4,0.4
				c0.2,0.3,0.5,0.4,0.8,0.4c0.1,0,0.4,0.1,0.5,0.2c0.5,0.4,0.8,1.1,1.7,0.9c0.1,0,0.2,0.1,0.3,0.2c0.3,0.2,0.5,0.6,0.9,0.5
				c0.5-0.1,0.6,0.5,1.1,0.4c0.4-0.1,0.8-0.1,1,0.3c0.6-0.1,1,0.5,1.5,0.4c0.6-0.1,1,0.4,1.5,0.4c0.4,0,0.8,0,1.2,0.4
				c0.2,0.2,0.7,0,1,0.3c0.3,0.2,0.8,0.1,1.2,0.1c0.2,0,0.6-0.1,0.7,0.1c0.5,0.5,1,0.2,1.5,0.3c0.2,0,0.6-0.1,0.7,0.1
				c0.4,0.4,0.8,0.2,1.2,0.3c0.6,0.1,1.2-0.2,1.7,0.4c0.4,0,0.9,0.1,1.3,0c0.6-0.1,0.8,0.4,1.3,0.4c0.7,0,1.4-0.3,1.9,0.4
				c0.5,0,1,0.1,1.5,0c0.5-0.1,0.9,0.3,1.3,0.4c0.5,0.1,1-0.2,1.4,0.2c0.5,0.4,1.1,0.1,1.6,0.2c0.5,0,1,0,1.5,0c0.2,0,0.5,0,0.5,0.1
				c0.3,0.4,0.8,0.3,1.2,0.3h2.6c0.4,0,0.7,0,1,0.3c0.1,0.2,0.4,0,0.6-0.2c0.1-0.1,0.4-0.2,0.5-0.1c0.3,0.4,0.6,0.4,1,0.4
				c0.7,0.1,1.5-0.3,2.1,0.4c0.1,0.1,0.3,0,0.4,0c0.2-0.4,0.6-0.3,1-0.3h6.2c0.2,0,0.6-0.1,0.7,0.1c0.4,0.4,0.8,0.3,1.2,0.3
				c1-0.1,2.1,0.3,3-0.4c0.2-0.1,0.6,0,0.9,0c0.5,0.6,1.1,0.3,1.7,0.4c0.3,0,0.5-0.4,0.8-0.4c0.7,0.1,1.5-0.3,2.1,0.4
				c0.4,0,0.7,0,1.1,0c0.3-0.5,0.8-0.3,1.2-0.3c0.4,0,0.8,0,1.1,0c0.3,0,0.6,0,0.9,0c0.3-0.1,0.5-0.5,0.8,0c0.4-0.5,1-0.3,1.5-0.4
				c0.5-0.1,1.1,0.2,1.5-0.4c0.5,0,1.1,0.1,1.5-0.4h1.7c0.4,0,0.9,0,1.3,0c0.4-0.5,0.9-0.3,1.4-0.4c0.2,0,0.4,0,0.5-0.1
				c0.4-0.5,1-0.1,1.4-0.4c0.5-0.4,1-0.4,1.6-0.3c0.4,0,0.5-0.2,0.8-0.4c0.3-0.1,0.7,0.1,1-0.3c0.2-0.2,0.7-0.1,1-0.1
				c0.2,0,0.5,0.1,0.5,0c0.3-0.4,0.7-0.3,1-0.4c0.4-0.1,0.7-0.4,1.1-0.4c0.3,0,0.6-0.3,0.9-0.4c0.2-0.1,0.4-0.3,0.7-0.3
				c0.7,0.2,1.1-0.3,1.7-0.5c0.2-0.1,0.3-0.2,0.5-0.2c0.6-0.2,2-0.7,2.3-1.1c0.3-0.4,0.8-0.3,1.1-0.6c0.2-0.2,0.6-0.2,0.9-0.5
				c0.3-0.3,0.7-0.5,1-0.7c0.3-0.1,0.6-0.1,0.8-0.4c0.2-0.4,0.7-0.3,0.9-0.5c0.6-0.5,1.1-1,1.6-1.6c0.5-0.5,1.3-0.6,1.7-1.3
				c0.6-0.2,0.4-1,0.9-1.3c0.4-0.3,0.9-0.7,0.8-1.4c0-0.1,0.3-0.4,0.5-0.5c0.2-0.2,0.3-0.4,0.3-0.6c-0.1-0.3,0.1-0.4,0.2-0.6
				c0.2-0.5,0.6-0.9,0.5-1.5c0-0.2,0.3-0.4,0.4-0.6c0.1-0.3,0-0.6,0.2-0.9c0.4-0.6,0.7-1.2,0.6-2c0-0.2,0-0.4,0.1-0.5
				c0.4-0.4,0.2-0.8,0.3-1.2c0.1-0.5,0.5-0.8,0.4-1.4c-0.1-0.5,0-1.1,0-1.7v-1.3c0.7-0.5,0.3-1.3,0.4-1.9c0.1-0.9,0-1.9,0-2.8
				c0-0.7,0.2-1.5-0.4-2.1c0-0.4,0-0.7,0.1-1.1c0.5-0.3,0.3-0.8,0.3-1.2c0-1.2,0-2.5,0-3.7c0-0.4,0-0.7,0.4-1c0.1-0.1,0.1-0.3,0-0.4
				c-0.6-0.5-0.4-1.3-0.4-1.9c0-3,0-6.1,0-9.2c0-0.5-0.1-0.9,0.4-1.4c0.1-0.1,0.1-0.6,0-0.7c-0.4-0.3-0.4-0.8-0.4-1.2V140
				c0-0.6-0.1-1.2,0-1.8c0.2-0.7-0.4-1-0.4-1.5c0.1-0.8,0-1.6,0-2.4c0-0.3,0.1-0.6,0.3-0.8c0.1-0.1,0.1-0.4,0-0.5
				c-0.3-0.2-0.3-0.5-0.3-0.8c0-1.1,0-2.2,0-3.4c0-0.4,0-0.7,0.4-1c0.1,0,0-0.4-0.1-0.5c-0.2-0.2-0.4-0.5-0.2-0.6
				c0.3-0.3,0.4-0.6,0.3-1c0-1.7-0.1-3.5,0-5.2c0-0.9-0.4-2,0.4-2.8c0.1-0.1,0-0.3-0.1-0.3c-0.5-0.6-0.3-1.3-0.2-1.9
				c0.4-0.2,0.1-0.4-0.1-0.7c-0.1-0.1,0-0.4,0-0.6v-1.3c0-0.5,0.1-1,0-1.5c-0.1-0.5,0.5-0.6,0.4-1.2c-0.1-0.6,0-1.2,0-1.9v-5.8
				c0-0.7,0.1-1.4,0-2.1c-0.1-0.7,0.5-1.1,0.4-1.7c-0.1-0.5,0-1,0-1.5V85.1c0-0.5,0-1,0-1.5c0.7-0.4-0.3-0.8-0.1-1.2
				c0.1-0.2,0-0.6,0.1-0.7c0.4-0.3,0.3-0.7,0.3-1V64.4c0-0.7,0.1-1.4,0-2c-0.2-0.7,0.6-1.2,0.4-1.9c-0.1-0.5,0-1.1,0-1.7
				c0-0.4,0.2-0.4,0.5-0.4c0.2,0,0.5,0,0.7-0.2c0.2-0.2,0.3-0.6,0.7-0.5c0.4,0,0.5-0.6,1-0.4c0.5-0.5,1.2-0.5,1.7-0.9
				c0.5-0.4,0.8-1.1,1.5-1.3c0.7-0.3,1-0.9,1.5-1.3c0.3-0.2,0.6-0.5,0.7-0.8c0.1-0.2,0.2-0.4,0.4-0.6c0.1-0.4-0.1-0.9,0.4-1.1
				c0-0.3,0-0.6,0-0.9c0-0.5-0.2-1,0.4-1.4c0.1-0.4-0.2-0.9,0.2-1.2C160.2,47.2,159.9,46.7,160,46.2z M35.4,91.8
				c-0.2,0.3-0.1,0.6-0.1,0.9v26.7c0,0-0.1,0.2-0.1,0.3c-0.1-0.1-0.2-0.1-0.2-0.1c-0.5-0.4-0.9-0.9-1.3-1.3
				c-0.6,0.1-0.8-0.5-1.2-0.8c-0.1-0.1-0.1-0.5-0.3-0.6c-0.2-0.1-0.4-0.1-0.7-0.3c-0.2-0.2-0.5-0.2-0.7-0.4
				c-0.5-0.5-1.1-0.9-1.5-1.6c-0.5-0.8-0.8-1-1.7-1.5c-0.3-0.1-0.5-0.4-0.8-0.4c-0.3-0.6-1.2-0.1-1.6-0.8c-0.3-0.5-1-0.6-1.5-0.8
				c-0.5-0.3-1.1-0.5-1.5-0.8c-0.2-0.1-0.3-0.2-0.5-0.2c-0.6,0.1-0.7-0.3-0.7-0.8c0.1-0.4-0.5-0.5-0.4-1c-0.6-0.4-0.7-1.1-1.2-1.6
				c-0.4-0.4-0.6-0.9-0.7-1.6c-0.1-0.4-0.5-0.8-0.4-1.3c-0.4-0.2-0.4-0.6-0.4-1c0-0.5,0.1-1-0.4-1.3v-3.9c0.7-0.7,0.3-1.6,0.4-2.5
				c0-0.4,0.5-0.5,0.4-0.9c-0.1-0.4,0-0.8,0-1.1c0.5-0.3,0.4-0.8,0.4-1.3c0-0.4,0.5-0.7,0.4-1.2c-0.1-0.4,0.5-0.5,0.4-0.9
				c0.3-0.2,0.4-0.4,0.4-0.8c0-0.2,0.1-0.4,0.2-0.5c0.8-0.9,1.1-2,1.7-3.1c0.2-0.4,0.4-0.4,0.7-0.2c0.7,0.4,1.4,0.7,2,1
				c0.6,0.3,1.2,0.7,1.8,0.9c0.1,0.1,0.2,0.2,0.3,0.2c0.5-0.1,0.8,0.4,1.1,0.4c0.7-0.1,1.1,0.7,1.7,0.4c0.4,0.4,0.9,0.5,1.4,0.8
				c0.5,0.3,1.1,0.4,1.5,1c0.5,0.1,0.9,0.6,1.5,0.5c0.4,0,0.8,0.3,1.1,0.5c0.3,0.2,0.5,0.5,0.8,0.8L35.4,91.8z M35.7,80.9
				c0.1,0.6-0.5,1.1-0.4,1.7c0.1,0.7,0,1.4,0,2.1v1.9c0,0-0.1,0.1-0.1,0.1c-0.1,0.2-0.1,0.1-0.3,0c-0.4-0.4-0.7-1-1.4-1
				c-0.5,0-1-0.4-1.5-0.4c-0.1,0-0.3,0-0.3-0.1c-0.2-0.4-0.7-0.2-0.9-0.5c-0.2-0.3-0.7,0.1-1-0.3c-0.2-0.3-0.7-0.1-0.9-0.5
				c-0.6,0.1-1-0.3-1.5-0.4c-0.1,0-1.4-0.6-1.4-0.6c-0.3-0.2-0.5-0.6-0.9-0.5c-0.2-0.4-0.6-0.3-1-0.4c-0.4-0.1-0.5-0.4-1-0.4
				c-0.2,0-0.5-0.3-0.8-0.4c-0.4-0.1-0.6-0.4-0.9-0.6s-0.7-0.2-0.9-0.5c-0.8,0.1-1.4-0.5-2.1-0.8c-0.3-0.1-0.7-0.4-0.7-0.8
				c0-0.2-0.1-0.3-0.4-0.3c-0.4,0.1-0.7-0.1-0.9-0.4c-0.7-0.7-1.3-1.3-2-2c-0.1-0.8-0.8-1.1-1.2-1.5c-0.3-0.3-0.8-0.3-1.1,0
				c-0.4,0.4-0.5,0.9-0.2,1.3c0.1,0.2,0.3,0.3,0.4,0.4c0.2,0.2,0,0.3-0.1,0.4c-0.1,0.1-0.2,0.4-0.1,0.5c0.1,0.2,0.5,0.4,0.4,0.8
				c0.6,0.9,2.9,3.4,3.6,3.9c0.7-0.1,0.8,0.9,1.5,0.8c0.4,0.4,0.9,0.5,1.4,0.7c0.2,0.1,0.3,0.5,0.2,0.6c-0.1,0.1-0.2,0.2-0.3,0.2
				c-0.5,0.6-1.2,1-1.6,1.8c-0.3,0.7-0.6,1.2-0.9,1.8c-0.1,0.2-0.1,0.4-0.1,0.5c0,0.2,0,0.5-0.3,0.6c-0.7,0.4-0.3,1.3-0.9,1.7
				c-0.1,0.5,0.2,1-0.3,1.4c0,0.4-0.1,0.8-0.1,1.3c0.1,0.6-0.5,1.1-0.4,1.7c0.1,0.6,0,1.2,0,1.9c-0.7,0.7-0.3,1.5-0.4,2.3
				c0,0.2-0.1,0.4-0.2,0.7c-0.2,0.3-0.2,0.4,0,0.6c0.2,0.2,0.2,0.4,0.2,0.7c0.1,0.6-0.3,1.2,0.3,1.8c0,0.6,0,1.2,0.1,1.8
				c0.1,0.4,0.5,0.7,0.4,1.2c-0.2,0.5,0.4,0.7,0.4,1.2c0.1,0.3,0.4,0.5,0.4,0.9c0,0.1,0.1,0.2,0.1,0.3c0.2,0.4,0.8,0.5,0.6,1
				c-0.2,0.4-0.8,0.1-1.2,0.2c-0.2,0-0.5,0-0.5,0.1c-0.3,0.5-0.8,0.1-1.2,0.4c-0.1,0.1-0.2,0.2-0.3,0.2c-1.1-0.1-1.4,0.8-2,1.4
				c0,0,0.3,0.3,0.2,0.4c0,0.2-0.4,0.2-0.1,0.5c0.5,0.4,0.9,0.9,1.4,1.3c0.3,0.2,0.7,0.5,1.1,0.5c0.4,0.1,0.8,0.1,1.2-0.2
				c0.4-0.3,1-0.4,1.5-0.5c0.5-0.1,1.1-0.1,1.7,0.1c0.2,0.1,0.5,0.3,0.8,0.3c0.3,0,0.6,0,0.9,0c0.1,0,0.1,0,0.2,0.1
				c0.2,0.5,0.8,0.1,1.1,0.4c0.2,0.3,0.6,0.2,0.8,0.4c0.4,0.3,0.9,0.4,1.2,0.8c0.3,0.3,0.8,0.4,1.2,0.7c0.4,0.3,0.8,0.6,1.1,1
				c0.2,0.2,0.6,0.1,0.8,0.4c0.2,0.5,0.8,0.4,1.2,0.8c0.4,0.4,0.7,0.7,1.1,1.1c0.1,0,0.1,0.1,0.1,0.1c0.6-0.1,0.7,0.6,1.2,0.8
				c0.2,0.1,0.4,0.1,0.5,0.2c1.3,1.1,1.8,1.4,3.8,2.1c0.3,0.1,0.6,0.3,0.9,0.5c0.3,0.2,0.5,0.5,0.5,0.9c-0.1,1.9,0,3.8,0,5.8v5.4
				c0,0.3,0.1,0.7-0.2,0.9c-0.2-0.2-0.3-0.4-0.5-0.5c-0.1-0.1-0.3-0.1-0.5-0.2c-0.4-0.2-0.8-0.3-1.1-0.6c-0.4-0.4-0.8-0.5-1.2-0.8
				c-0.4-0.2-0.7-0.4-1.1-0.7c-0.4-0.3-0.9-0.5-1.3-0.9c-0.6,0-0.8-0.5-1.2-0.8c-0.7,0.2-0.8-0.8-1.4-0.8c-0.2,0-0.4-0.3-0.6-0.4
				c-0.3-0.2-0.5-0.6-1-0.7c-0.4-0.1-0.5-0.6-1-0.8c-0.4-0.1-0.7-0.6-1-0.7c-0.4-0.1-0.6-0.4-0.9-0.6c-0.2-0.1-0.4-0.5-0.5-0.5
				c-0.5,0-0.7-0.5-1.1-0.7c-0.3-0.1-0.6-0.4-0.9-0.4c-0.4,0-0.5-0.5-0.9-0.4c-0.4-0.5-1-0.6-1.4-1c-0.4-0.4-0.9-0.4-1.2-0.8
				c-0.3-0.4-0.7-0.8-1.1-1c-0.4-0.2-0.8-0.3-1-0.7c-0.3-0.3-0.6-0.7-1-0.7c-1-1-2-1.9-2.9-2.9c0-0.1-0.1-0.1-0.1-0.1
				c-0.2-0.5-0.4-1-0.7-1.4c-0.3-0.4-0.8-0.8-1.2-1.2c-0.1-0.2-0.2-0.4-0.3-0.6c-0.1-0.2-0.1-0.5-0.3-0.7c-0.2-0.2-0.5-0.4-0.6-0.7
				c-0.1-0.4,0-0.8-0.4-1.1c0.1-0.4-0.1-0.8-0.3-1.2c-0.2-0.3,0-0.7-0.3-1c-0.3-0.3,0.1-0.9-0.4-1.1c0-0.4,0.1-0.9-0.1-1.1
				c-0.5-0.6-0.4-1.2-0.3-1.7c0.1-0.5-0.3-0.8-0.4-1.2c-0.1-0.4,0.1-0.8-0.2-1.2c-0.1-0.1-0.1-0.4-0.1-0.7c0-1.4,0-2.9,0-4.3
				c0-0.5,0.1-1.1-0.4-1.5c0-0.3-0.1-0.6,0.2-0.9c0.2-0.1,0.1-0.2,0-0.4c-0.3-0.5-0.3-0.6,0-1.1c0.1-0.1,0.2-0.2,0-0.3
				c-0.3-0.2-0.2-0.5-0.2-0.8c0-0.4,0.5-0.5,0.4-1c-0.1-0.3,0-0.6,0-0.9v-1.1c0-0.2,0-0.4,0-0.5C4.5,89.8,5.2,89.6,5,89
				c-0.1-0.5,0-1,0-1.5c0.6-0.6,0.4-1.4,0.4-2.1c0-0.4,0.5-0.7,0.4-1.2c-0.1-0.4,0-0.9,0-1.3c0.6-0.5,0.4-1.2,0.4-1.9
				c0-0.5,0.5-0.8,0.4-1.4c-0.1-0.4,0-0.9,0-1.3c0.6-0.2,0.1-0.9,0.5-1.3c0.2-0.2,0.2-0.4,0.2-0.7c0-0.5,0-1,0.1-1.5
				c0.5-0.4,0.2-0.9,0.4-1.4c0.1-0.3,0.4-0.5,0.4-1c0-0.2,0.3-0.5,0.3-0.8c0-0.3,0.2-0.4,0.4-0.6c0.2-0.3,0.9-0.1,0.8-0.8
				c0.2-0.3,0.6-0.5,0.8-1c0.1-0.4,0.5-0.8,0.8-0.9c0.6-0.2,0.9-0.5,1.3-1c0.4-0.5,1-0.6,1.5-1c0.1-0.1,0.4-0.1,0.5-0.2
				c0.4-0.4,0.7-0.7,1.2-0.6c0.3-0.4,0.7-0.4,1.2-0.4c0.6,0.1,0.9-0.6,1.5-0.4c0.5,0.1,1,0.1,1.5,0c0.3,0,0.5,0.1,0.7,0.3
				c0.2,0.2,0.4,0.2,0.7-0.1c0.1-0.1,0.2-0.2,0.2-0.2c0.6,0.7,1.3,0.2,1.9,0.3c0.6,0.1,1.2,0,1.9,0c0.5,0,0.8,0.2,1.1,0.5
				c0.6,0.5,1.3,0.7,2,1c0.4-0.1,0.7,0.1,0.9,0.4c0.4,0.5,1,0.8,1.6,1.1c0.1,0,0.3,0.1,0.3,0.1c0,0.5,0.5,0.5,0.8,0.8
				c0.4,0.2,0.6,0.6,0.9,0.9c0.3,0.3,0.6,0.6,0.9,0.9c0.2,0.2,0.4,0.5,0.7,0.6c0.5,0.1,0.8,0.5,1.2,0.6v1.5c0,1.5,0,3.1,0,4.7
				c0,0.4-0.1,0.7-0.4,1C35.8,79.9,35.6,80.4,35.7,80.9z M143.1,180.8L143.1,180.8c0.1,0.4,0.2,0.8-0.2,1.1
				c-0.1,0.1-0.1,0.2-0.1,0.3c0,0.3,0,0.6-0.1,0.9c0,0.1-0.2,0.2-0.2,0.3c0,0.7-0.6,1.3-0.5,2c-0.4,0.5-0.5,1-0.8,1.5
				c-0.1,0.2-0.1,0.5-0.3,0.6c-0.4,0.4-0.5,0.9-0.7,1.4c-0.1,0.1-0.1,0.2-0.2,0.3c-0.4,0.4-0.8,0.8-1.2,1.2
				c-0.4,0.4-0.8,0.7-1.1,1.1c-0.3,0.4-0.9,0.4-1.2,0.8c-0.3,0.4-0.8,0.6-1.2,0.7c-0.5,0.1-0.7,0.7-1.2,0.8
				c-0.6,0.1-1.1,0.5-1.5,0.9c-0.1,0.1-0.3,0.2-0.5,0.2c-0.4,0-0.6,0.1-0.8,0.4c-0.2,0.2-0.3,0.5-0.6,0.4c-0.3,0-0.4,0.3-0.6,0.4
				c-0.1,0-0.3-0.2-0.4-0.3c-0.3,0.6-1.1,0.1-1.4,0.7c-0.6,0.1-1.1,0.5-1.7,0.5c-0.2,0-0.5,0.3-0.8,0.3c-0.3,0.1-0.6,0-1,0
				c-0.1,0-0.2,0.2-0.2,0.3c0,0.4-0.1,0.6-0.5,0.2c-0.1-0.1-0.3-0.1-0.5-0.1c-0.1,0-0.2,0.2-0.3,0.3c-0.3,0.4-0.7,0.5-1.1,0.4
				c-0.2,0-0.5,0-0.7,0.2c-0.2,0.3-0.3,0-0.4-0.1c-0.6-0.3-0.8-0.2-1.1,0.4c-0.1,0.1-0.1,0.1-0.1,0.1c-0.3,0.1-0.7,0-0.9,0.2
				c-0.3,0.2-0.4,0.4-0.7,0.1c-0.2-0.1-0.6,0-0.9,0c0,0-0.1,0.1-0.1,0.1c-0.3,0.3-0.5,0.2-0.8,0c-0.3-0.3-0.5-0.2-0.6-0.1
				c-0.4,0.4-0.8,0.8-1.4,0.6c-0.4-0.1-0.6,0.4-1,0.4c-0.4,0-0.8-0.1-1.1,0c-0.9,0.6-1.9,0.2-2.9,0.4c-0.4,0.1-0.7-0.7-1,0
				c-0.4,0-0.9,0-1.3,0c-0.2,0-0.3,0.2-0.5,0.2c-0.2,0.1-0.4,0.1-0.6,0l-0.3-0.2c-0.5,0.7-1,0.2-1.6,0c-0.2-0.1-0.6-0.1-0.8,0.2
				c-0.1,0.1-0.4,0.2-0.5,0.2c-0.7-0.7-1.5-0.3-2.3-0.4c-0.7-0.1-1.5,0-2.2,0c-0.4,0.6-0.7,0.3-1.2,0c-0.4-0.2-1,0.2-1.4-0.3
				c-0.5,0-1-0.1-1.5-0.1c-0.3,0-0.6,0.1-0.8,0.3c-0.1,0.1-0.3,0.1-0.3,0.1c-0.5-0.5-1.1-0.3-1.7-0.4c-0.4,0-0.7,0-0.9,0.4
				c-0.1-0.1-0.3-0.2-0.4-0.4c-0.5,0.6-1.1,0.3-1.7,0.3c-0.2,0-0.4-0.2-0.6-0.3c-0.1,0-0.3,0.3-0.4,0.3c-0.5,0-1,0.2-1.4-0.3
				c-0.5,0.6-1.3,0.3-1.9,0.4c-0.7-0.7-1.5-0.2-2.3-0.4c-0.2,0-0.4,0.1-0.5,0.2c-0.2,0.1-0.2,0.2-0.4,0.1c-0.1-0.2-0.4-0.2-0.6-0.3
				c-0.6-0.3-1.1-0.2-1.5,0.2c0,0-0.1,0.1-0.5,0c-0.1,0-0.1-0.1-0.1-0.1c-0.6,0.1-1.2-0.2-1.7-0.4c-0.5-0.1-1.1-0.1-1.7,0
				c-0.5,0-0.8-0.2-1.2-0.4c-0.5-0.2-0.9-0.5-1.5-0.4c-0.9,0.1-1.7,0-2.6,0c-0.5,0.1-0.8-0.3-1.2-0.4c-0.4-0.1-0.9,0.2-1.2-0.2
				c-0.1-0.1-0.3-0.1-0.5-0.1c-0.6,0-1.2,0-1.9,0c-0.3,0-0.5-0.1-0.7-0.3c-0.3-0.4-0.6-0.5-1.1-0.5c-0.5,0.1-0.9-0.1-1.4-0.3
				c-0.5-0.2-1.2,0.2-1.7-0.4c-0.1,0-0.2,0.1-0.3,0.2c-0.3,0.2-0.4,0.2-0.6,0c-0.2-0.3-0.7-0.2-0.9-0.5c-0.1-0.2-0.6-0.1-0.9-0.1
				c-0.1,0-0.1,0-0.2,0c-0.4-0.2-0.8-0.3-1.1-0.6c-0.4-0.3-1,0.1-1.3-0.5c-0.5,0.1-0.7-0.6-1.2-0.4c0,0-0.1-0.3-0.2-0.4
				c-0.1-0.1-0.1-0.3-0.2-0.3c-0.5,0.2-0.9-0.3-1.4-0.4c-0.8-0.1-1.5-0.6-2.2-1c-0.4-0.2-0.7-0.4-1.1-0.6c-0.3-0.2-0.5-0.5-0.8-0.8
				c-0.3-0.2-0.4-0.6-0.9-0.6c-0.2,0-0.2-0.2-0.3-0.4c-0.2-0.5-0.5-0.8-1.1-0.7c-0.4,0-0.7-0.3-0.7-0.7c-0.1-0.4,0-0.8-0.6-0.9
				c-0.2,0-0.5-0.4-0.5-0.5c0.1-0.7-0.8-0.7-0.8-1.4c-0.4-0.4-0.7-0.9-1.1-1.2c-0.5-0.4-0.8-0.9-0.8-1.5c0-0.4-0.5-0.8-0.7-1.2
				c-0.1-0.3-0.1-0.7-0.3-1c-0.2-0.2-0.1-0.7-0.1-1.1c0.1-0.5-0.5-0.8-0.4-1.3c0.1-0.4,0-0.9,0-1.3c-0.7-0.6-0.3-1.4-0.4-2.1
				c-0.1-0.6,0.1-1.2-0.4-1.7c-0.2-0.2-0.1-0.6,0-0.9c0-0.1,0.1-0.2,0.2-0.3c0.1,0.1,0.1,0.1,0.1,0.1c0.5,0.4,0.9,0.9,1.3,1.3
				c0.7,0.1,1,0.7,1.4,1.1c0.5,0.4,0.9,0.8,1.3,1.3c0.3,0.3,0.7,0.2,0.9,0.5c0.2,0.3,0.5,0.5,0.9,0.6c0.3,0.1,0.5,0.6,0.8,0.7
				c0.3,0.1,0.6,0.3,0.7,0.5c0.2,0.3,0.5,0.2,0.8,0.4c0.3,0.2,0.4,0.6,0.9,0.6c0.4,0,0.5,0.4,0.9,0.5c0.4,0.1,0.8,0.4,1,0.6
				c0.3,0.3,0.6,0.4,0.9,0.5c0.8,0.4,1.6,0.7,2.3,1.2c0.2,0.1,0.4,0.2,0.7,0.2c0.2,0,0.6-0.1,0.7,0.1c0.3,0.5,1,0,1.3,0.5
				c0.1,0.1,0.3,0.2,0.5,0.2c0.2,0,0.5,0,0.6,0.2c0.3,0.5,0.8,0.5,1.3,0.5c0.4,0,0.7,0,1.1,0c0.3,0.6,0.9,0.1,1.3,0.5
				c0.3,0.4,0.8,0,1.2,0.4c0.2,0.4,0.7,0.1,1,0.2c0.2,0,0.6,0,0.7,0.1c0.3,0.5,1,0,1.3,0.5c0.2,0.3,0.6,0,0.8,0.2
				c0.3,0.2,0.5,0.4,0.8,0.3c0.4-0.1,0.5,0.3,0.8,0.4c0.1,0,0.2,0,0.4,0c0.5,0.1,1-0.2,1.4,0.3c0.1,0.2,0.6,0.1,0.9,0.1l1.5,0.1
				c0.3,0.6,1,0,1.3,0.5c0,0.1,0.1,0.1,0.1,0.1c0.4,0,0.9,0.1,1.3,0c0.5-0.1,0.8,0.4,1.2,0.4c0.4,0,0.9,0.1,1.3,0
				c0.6-0.1,0.9,0.3,1.4,0.4c0.4,0.1,0.9,0,1.3,0s0.9,0.1,1.3,0c0.6-0.1,0.8,0.5,1.4,0.4c0.4-0.1,0.9,0,1.3,0h1.5
				c0.9,0.7,2,0.3,3,0.4c2.9,0.1,5.9,0.1,8.8,0c0.7,0,1.5,0.4,2.1-0.3c0.1,0,0.3,0.3,0.4,0.3c0.5-0.1,1,0.2,1.4-0.2
				c0.1-0.1,0.3-0.1,0.5-0.1c0.7,0,1.5,0,2.2,0c0.3,0,0.7,0.1,0.9-0.2c0.4-0.4,0.5,0.2,0.7,0.2c0.1,0,0.2,0,0.4-0.1
				c0.1-0.1,0.3-0.3,0.4-0.3c0.7,0,1.4,0,2.1,0c0.5-0.6,1.2-0.4,1.9-0.4c0.4,0,0.6-0.4,1-0.4h2.4c0.2-0.7,1-0.2,1.3-0.5
				c0.2-0.2,0.4-0.2,0.7-0.2c0.4,0,0.7,0,1.1-0.1c0.3-0.6,1-0.1,1.3-0.5c0.1-0.1,0.2-0.2,0.3-0.2c0.5-0.1,0.9-0.1,1.4-0.1
				c0.3-0.5,0.8-0.3,1.2-0.3c0.4,0,0.5-0.5,1-0.4c0.4,0.1,0.8,0,1.2-0.3c0.2-0.2,0.7,0.1,1-0.3c0.1-0.1,0.3-0.1,0.5-0.1
				c0.2,0,0.6,0.1,0.7-0.1c0.3-0.5,1-0.1,1.3-0.5c0.2-0.2,0.6-0.2,0.8-0.4c0.3-0.3,0.8,0.1,1-0.3c0.2-0.3,0.6-0.2,0.8-0.2
				c0.6-0.2,1.1-0.6,1.7-0.8c0.2-0.1,0.3-0.3,0.4-0.3c0.7,0.1,1.3-0.1,1.7-0.7c0.4,0,0.9,0.1,1.2-0.4c0.7-0.1,1.2-0.6,1.9-0.8
				c0.4-0.1,0.8-0.4,1-0.6c0.3-0.3,0.7-0.3,0.9-0.5c0.4-0.6,1.2-0.6,1.6-1.2c0.2-0.3,0.4-0.2,0.7-0.2c0.3,0,0.5-0.1,0.5-0.4
				c0-0.1,0.1-0.3,0.2-0.3c0.4-0.1,0.9,0.1,1.1-0.4c0.5,0.1,0.7-0.4,1-0.7c0.1-0.1,0.4-0.1,0.5-0.1c0.1,0,0.1,0.2,0.1,0.3v1.9
				c0,0.6-0.1,1.1,0,1.7C143.6,180.1,142.9,180.3,143.1,180.8z M144.2,61.7c-0.1,0.1-0.2,0.3-0.2,0.4v5.4c0,0.3,0.1,0.5,0.3,0.7h0
				c0,0,0.1,0.4,0.1,0.5c-0.4,0.3-0.3,0.6-0.3,1c0,1.7,0.1,3.5,0,5.2c-0.1,1.2,0.4,2.4-0.3,3.6c-0.2,0.3,0,0.8,0,1.3v22.4
				c0,0.4,0.1,0.9-0.4,1.2c-0.1,0,0,0.4,0.1,0.5c0.2,0.2,0.2,0.4,0,0.5c0,0-0.1,0.1-0.1,0.1c0.7,0.4,0.2,0.8,0,1.2
				c-0.1,0.2-0.1,0.6,0.1,0.7c0.4,0.3,0.2,0.7,0.3,1c0.1,0.4-0.7,0.8,0,1.2c0,0.5,0,1,0,1.5c0,0.3-0.1,0.4-0.3,0.6
				c-0.2,0.2-0.1,0.4,0.1,0.7c0.1,0.1,0.2,0.2,0.2,0.2c-0.5,0.4-0.3,1-0.3,1.6c0,8,0,15.9,0,23.9c0,0.5,0.2,1-0.3,1.4
				c-0.1,0.1-0.1,0.3,0,0.4c0.6,0.6,0.3,1.4,0.4,2.1c0.1,1.4,0,2.9,0,4.3c0,0.2-0.1,0.4-0.2,0.7c-0.2,0.3-0.2,0.3,0,0.6
				c0.2,0.2,0.4,0.5,0.2,0.6c-0.4,0.4-0.5,0.7,0,1.1c0.2,0.2,0.1,0.4-0.1,0.7c-0.1,0.1-0.2,0.4-0.2,0.5c0.5,0.4,0.4,1,0.4,1.5
				c0,1.8,0,3.6,0,5.4c0,0.2,0.1,0.5-0.1,0.7c-0.4,0.3-0.4,0.6,0,0.9c0.1,0.1,0.1,0.2-0.1,0.3c-0.1,0.1-0.1,0.2-0.1,0.2
				c0.4,0.2,0.3,0.6,0.3,1v6.2c0.3,0.5-0.4,0.8-0.4,1.3c0,0.4,0.1,0.9-0.1,1.2c-0.1,0.3-0.2,0.5-0.2,0.8c0,0.2-0.1,0.3-0.3,0.4
				c-0.2,0.1-0.4,0.1-0.4,0.2c-0.2,0.6-0.5,1.1-0.8,1.5c-0.4,0.5-1.1,0.6-1.5,1c-0.3,0.3-1,0.4-1.3,0.7c-0.4,0.3-0.9,0.7-1.4,0.9
				c-0.9,0.4-1.9,0.9-2.8,1.4c-0.9,0.4-1.8,0.8-2.6,1.4c-0.5-0.1-0.7,0.5-1.2,0.4c-0.4-0.1-0.5,0.5-1,0.4c-0.3,0.4-0.7,0.4-1.1,0.4
				c-0.3,0.5-0.8,0.2-1.1,0.4c-0.3,0.2-0.7,0.2-0.9,0.5c-0.2,0.2-0.4,0.2-0.7,0.2c-0.4,0-0.8-0.1-1,0.3c-0.5,0-0.9,0.1-1.3,0.4
				c-0.5-0.2-0.8,0.5-1.4,0.4c-0.5-0.1-0.8,0.5-1.4,0.4c-0.2-0.1-0.5,0.2-0.8,0.3c-0.2,0.1-0.5,0-0.8,0c-0.3,0.1-0.5,0.5-1,0.4
				c-0.4-0.1-0.7-0.1-1,0.3c0,0.1-0.1,0.1-0.2,0.1c-0.6,0.1-1.2-0.2-1.7,0.4c-0.5,0.1-1.1-0.2-1.5,0.4c0,0.1-0.1,0-0.2,0
				c-0.6,0.1-1.2-0.3-1.7,0.4c-0.6,0-1.1,0-1.7,0c-0.4,0.1-0.7,0.5-1.2,0.4c-0.4-0.1-0.8-0.2-1.1,0c-0.7,0.5-1.5,0.3-2.3,0.4
				c-0.9,0.7-1.9,0.3-2.8,0.4c-0.5,0-0.8,0.3-1.1,0.4c-0.4,0.1-0.9,0-1.3,0H96c-0.5,0.1-0.8,0.5-1.4,0.4c-0.5-0.1-1,0-1.5,0h-4.5
				c-0.5,0-1,0-1.5,0c-0.3,0-0.5-0.1-0.6-0.3c-0.1-0.1-0.2-0.1-0.3,0c-0.1,0.1-0.4,0.3-0.5,0.2c-0.7-0.5-1.4-0.3-2.1-0.4
				c-0.9-0.1-1.8,0.2-2.7-0.4c-0.4,0-0.9,0-1.3,0c-0.6-0.1-1.3,0.2-1.9-0.3c-0.2-0.2-0.6-0.1-0.9-0.1c-0.5,0-1,0.2-1.4-0.4H74
				c-0.5-0.7-1.1-0.4-1.7-0.3c-0.5,0-0.8-0.5-1.4-0.4c-0.5,0-1,0.2-1.4-0.3c-0.1-0.1-0.2-0.1-0.4-0.1c-0.4,0-0.8,0.1-1.2-0.3
				c-0.2-0.2-0.7,0.1-1-0.3c-0.2-0.3-0.6-0.2-0.9-0.1c-0.5,0.1-0.9-0.2-1.3-0.4c-0.1,0-0.2,0-0.2,0c-0.4-0.6-1.1-0.1-1.5-0.4
				c-0.5-0.3-0.9-0.7-1.4-0.7c-0.7,0-1.2-0.4-1.8-0.7c-0.3-0.1-0.6-0.1-0.8-0.4c-0.2-0.3-0.6,0-0.8-0.2c-0.3-0.2-0.5-0.4-0.8-0.4
				c-0.3,0.1-0.5-0.1-0.6-0.3c-0.2-0.3-0.5-0.5-0.9-0.5c-0.1,0-0.2,0-0.4-0.1c-0.3-0.2-0.4-0.6-0.8-0.7c-0.4-0.1-0.8-0.3-1.1-0.5
				c-0.3-0.2-0.7-0.2-0.9-0.5c-0.3-0.3-0.9-0.3-1.2-0.6c-0.4-0.3-0.7-0.6-1.2-0.8c-0.4-0.2-0.6-0.6-1.1-0.7c-0.4-0.1-0.5-0.7-1-0.7
				c-0.1,0-0.3-0.2-0.4-0.3c-0.3-0.5-1-0.7-1.4-1.1c-0.4-0.4-0.7-0.8-1.3-0.9c-0.2-0.1-0.4-0.4-0.5-0.5c-0.5-0.1-0.1-0.9-0.7-0.9
				c-0.3,0-0.5-0.4-0.8-0.7c-0.4-0.3-0.6-0.7-0.8-1.1c-0.2-0.4-0.6-0.6-0.9-0.9c0.2-0.5-0.5-0.6-0.4-1.1c0.1-0.8,0-1.6,0-2.4
				c0-0.1,0.2-0.3,0.3-0.4c0.2-0.4,0.2-0.7-0.1-1c-0.1-0.1-0.2-0.2-0.2-0.2c0.7-0.8,0.2-1.8,0.3-2.7c0.1-0.9,0.1-1.7,0-2.6
				c0-0.4-0.3-0.7-0.3-1c-0.1-0.4,0-0.8,0-1.1c-0.1-0.5,0.5-0.8,0.4-1.3c-0.1-0.5,0-1,0-1.5v-7.7c0-0.4,0.1-0.9-0.4-1.2
				c-0.1-0.1-0.1-0.3,0-0.4c0.1-0.2,0.4-0.3,0.4-0.6c0-0.7,0-1.4-0.1-2.1c0-0.2-0.5-0.4-0.3-0.6c0.6-0.8,0.3-1.8,0.3-2.7
				c0-0.4,0.2-0.9-0.3-1.2c0-0.5-0.1-0.9,0.1-1.4c0.3-0.5,0.4-1-0.1-1.5c-0.1-0.1-0.1-0.1-0.1-0.1c0.9-0.5-0.1-1,0-1.6
				c0.2-0.9-0.3-1.8,0.4-2.7c0-1.2,0-2.4,0-3.5c0-0.1-0.2-0.3-0.3-0.4c-0.1-0.1-0.1-0.3-0.1-0.4c0.5-0.4,0.4-1,0.4-1.5
				c0-0.5,0.2-1.1-0.4-1.5c0.1-0.5-0.2-1,0.3-1.4c0.1-0.1,0.1-0.3,0.1-0.5v-6.2c0-0.3,0-0.6-0.3-0.8c0,0,0.1-0.2,0.1-0.3
				c0.4-0.6,0.2-1.2,0.1-1.8c-0.4-0.2-0.2-0.5,0.1-0.7c0-1.4,0-2.7,0-4.1c-0.5-0.4-0.5-0.8,0-1.2c0-0.8,0-1.5,0-2.2
				c-0.6-0.4-0.3-1-0.4-1.5c0-0.4,0-0.7-0.3-1c-0.2-0.2-0.2-0.7,0.1-1c0.3-0.3,0.2-0.5-0.1-0.8c-0.1-0.1-0.2-0.2,0-0.3
				c0.1-0.1,0.2-0.2,0.2-0.3c0-0.4,0.1-0.8,0-1.1c-0.1-0.4,0.4-0.6,0.4-1c0-0.4,0-0.9,0-1.3c-0.6-0.2-0.1-0.9-0.5-1.3
				c-0.2-0.2-0.1-0.4-0.2-0.7c-0.1-0.4,0.5-0.5,0.3-0.7c-0.2-0.3-0.2-0.5-0.3-0.8c0-0.4,0.1-0.7,0.4-1c0.5-0.3,0.5-0.8,0.2-1.3
				c-0.3-0.5-0.3-0.6,0-1.1c0.3-0.6,0.3-0.6-0.1-1.1c-0.2-0.3-0.1-0.5,0.1-0.8c0.1-0.1,0.2-0.4,0.1-0.5c-0.4-0.3-0.4-0.8-0.4-1.2v-2
				c0-0.3,0-0.6-0.3-0.8c-0.1-0.7-0.3-1.3,0.2-1.9c0.1-0.1,0-0.4,0.1-0.5c0.2-0.4-0.7-0.7,0-1c0-0.4,0-0.9,0-1.3c0-0.4,0-0.7-0.4-1
				c-0.1-0.1-0.1-0.3,0-0.4c0.3-0.4,0.6-0.7,0.1-1.1c0,0,0-0.2,0.1-0.3c0.2-0.2,0.3-0.4,0.1-0.6c-0.1-0.2-0.3-0.4-0.3-0.6
				c0-0.7,0-1.4,0-2.1c-0.1-0.6,0.2-1.2-0.4-1.7c0-0.5,0-1,0-1.5c0.6-0.4,0.4-1,0.4-1.6v-0.3c0-0.2,0-0.2,0.2-0.2
				c0.6,0.3,1-0.5,1.5-0.4c0.5,0.1,0.6-0.4,1-0.4s0.9,0.2,1.2-0.3c0.4,0,0.6-0.4,0.9-0.4c0.5-0.1,0.6-0.4,0.9-0.7
				c0.2-0.2,0.6,0,0.8-0.4c0.2-0.4,0.7-0.4,1-0.7c0.2-0.2,0.2-0.1,0.4,0c0.3,0.3,0.7,0.3,1,0.7c0.4,0.5,1,1,1.4,1.5
				c0.4,0.4,0.7,0.9,1.1,1c0.5,0.1,0.7,0.5,1,0.7c0.4,0.2,0.9,0.3,1.3,0.5c1,0.6,2.1,1,3.1,1.6c0.1,0.1,0.3,0.2,0.5,0.2
				c0.6-0.1,1,0.2,1.5,0.4c0.3,0.1,0.5,0.5,0.8,0c0-0.1,0.4,0,0.5,0.1c0.2,0.3,0.7,0.2,0.9,0.5c0.2,0.2,0.7,0.1,1,0.1
				c0.4,0.1,0.9-0.2,1.2,0.3c0.1,0.1,0.3,0.1,0.5,0.1c0.4,0,0.8,0.1,1-0.3c0.3,0.1,0.4,0.4,0.8,0.3c0.2,0,0.5-0.1,0.7-0.2
				c0.3-0.2,0.4-0.2,0.6,0c0.2,0.2,0.5,0.4,0.7,0.2c0.3-0.3,0.6-0.3,1-0.4c0.4-0.1,0.5-0.5,1-0.4c0.1,0,0.1,0,0.2,0
				c0.5-0.3,1-0.6,1.5-0.7c0.3-0.7,1-0.2,1.5-0.6c0.3-0.3,0.8-0.4,1.2-0.5c0.1,0,0.1-0.1,0.1-0.1c0.3-0.6,1.1-0.5,1.4-1.1
				c0.2-0.4,0.8-0.2,1-0.7c0.2-0.4,0.6-0.6,0.9-0.9c1.1-1.1,2.2-2.2,3.3-3.3c0.2-0.2,0.4-0.3,0.4,0.1c0,0.1,0.1,0.2,0.1,0.3
				c0.7,0.5,0.9,1.4,1.6,2c0.4,1,1.3,1.6,2,2.4c0.3,0.3,0.7,0.4,1.1,0.6c0.2,0.2,0.7,0,1,0.3c0.2,0.2,0.6,0.1,0.8,0.4
				c0.6-0.1,1.1,0.2,1.4,0.7c0.1,0.1,0.2,0.2,0.3,0.1c0.5-0.2,0.8,0.5,1.3,0.4c0.5-0.1,0.7,0.5,1.2,0.4c0.5-0.1,0.8,0.6,1.3,0.4
				c0.4,0.4,0.9,0.5,1.4,0.4c0.5-0.1,0.8,0.3,1.1,0.4c0.4,0.1,0.9-0.2,1.2,0.2c0.1,0.1,0.3,0.1,0.5,0.1c1.1,0,2.2,0,3.4,0
				c0.5,0,0.8-0.5,1.4-0.4c0.4,0.1,0.8,0,1.3,0c0.3-0.5,0.8-0.4,1.2-0.3c0.5,0,0.7-0.6,1.2-0.4c0.1,0,0.2,0,0.3-0.1
				c0.4-0.2,0.7-0.6,1.1-0.6c0.4-0.1,0.6-0.5,1-0.4c0.5,0.1,0.8-0.3,1.1-0.4c1.1-0.5,2.2-1.1,3.3-1.6c0.4-0.2,0.9-0.3,1.2-0.8
				c0.3-0.5,0.9-0.5,1.3-0.9c0.3-0.3,0.6-0.8,1.2-0.8c0.3-0.3,0.6-0.6,0.9-0.9c-0.1-0.6,0.5-0.8,0.8-1.2c0.2-0.3,0.3,0,0.4,0.1
				c0.4,0.4,0.4,0.4,0.1,0.9c-0.1,0.1-0.2,0.2,0,0.3c0.6,0.1,1,0.4,1,1c0.7,0.5,1.1,1.3,1.9,1.7c0.3,0.1,0.6,0.4,0.8,0.7
				c0.3,0.4,0.6,0.4,1,0.4c0.4,0,0.5,0.5,1,0.4c0.4-0.1,0.8,0.1,1.2,0.3c0.3,0.2,0.7,0,1,0.3c0.1,0.1,0.4,0.1,0.5,0.1
				c0.5,0.1,1-0.2,1.4,0.3c0.1,0.2,0.6,0,0.9,0.1c0.7,0.1,1.5-0.3,2.1,0.4c0.6,0,1.2,0,1.9,0c0.2-0.4,0.5-0.4,0.8,0
				c0.4-0.5,0.9-0.3,1.4-0.4c1,0,1,0,2.2-0.6c0.3-0.2,0.6-0.1,0.9-0.2c0.2-0.1,0.4-0.3,0.6-0.4c0.4,0,0.5-0.5,1-0.4
				c0.4-0.6,1.2-0.8,1.7-1.3c0.5-0.6,1.1-1.1,1.7-1.7c0.1-0.1,0.2,0,0.4,0.1C144.3,61.5,144.3,61.6,144.2,61.7z M153.6,45.5
				c0.1,0.5,0,1,0,1.5c0,0.4,0,0.9,0,1.3c0,0.3-0.2,0.5-0.4,0.8c-0.1,0.2,0.1,0.5-0.2,0.7c-0.2,0.2-0.2,0.4-0.2,0.7
				c0,0.2-0.1,0.4-0.2,0.5c-0.5,0.4-0.8,1.1-1.6,1.2c-0.1,0-0.1,0.5-0.3,0.6c-0.2,0.2-0.4,0.2-0.6,0.3c-0.3,0.2-0.5,0.7-0.9,0.5
				c-0.2-0.1-0.3-0.5-0.4-0.7c-0.1-0.2-0.1-0.4-0.2-0.5c-0.2-0.2-0.4-0.4-0.6-0.6c-0.2,0.2-0.5,0.3-0.5,0.7c0,0.4-0.2,0.3-0.4,0.1
				c-0.1-0.1-0.4-0.2-0.5-0.1c-0.3,0.4-0.8,0.3-1.1,0.6c-0.2,0.2-0.4,0.1-0.6-0.1c-0.3-0.2-0.4-0.5-0.9-0.6c-0.3-0.1-0.6-0.4-1-0.4
				c-0.4,0-0.5,0.5-1,0.4c-0.1,0-0.2,0.2-0.2,0.3c0,0.5-0.2,0.5-0.6,0.5c-0.5-0.1-0.6,0.3-0.9,0.5c0.2,0.7-0.6,1.2-0.4,1.9
				c0.1,0.4,0.2,0.8-0.1,1.2c-0.4,0.6-0.5,1.4-1.2,2c-0.3,0.2-0.5,0.5-0.8,0.8c-0.7,0.7-1.5,1.1-2.8,1.4c-0.3,0.1-0.5,0.5-1,0.4
				c-0.3-0.1-0.6,0-0.9,0c-0.8,0-1.6,0-2.4,0c-0.5,0-0.6-0.5-1.1-0.4c-0.4,0.1-1,0.2-1.3,0c-0.4-0.3-0.9-0.3-1.4-0.4
				c-0.5-0.1-0.8-0.5-1.3-0.4c-0.2-0.2-0.5-0.3-0.8-0.4c-0.3-0.1-0.5-0.5-0.8-0.8c-0.1-0.1-0.1-0.2-0.1-0.3c0-0.2,0-0.5,0-0.8
				c0-0.6,0.2-1.3-0.1-1.8c-0.4-0.5-0.1-1.1-0.2-1.6c0-0.2-0.2-0.3-0.3-0.4c-0.2-0.6-0.6-1.1-0.8-1.7c-0.2-0.7-0.8-0.7-1.2-1
				c-0.4-0.4-0.8-0.1-1.2-0.2c-0.1,0-0.2,0.2-0.3,0.2c-0.2,0.1-0.5,0.1-0.6,0.3c-0.2,0.2-0.4,0.2-0.7,0.3c-0.2,0.1-0.4,0.3-0.8,0.4
				c-0.3,0.1-0.5,0.4-0.7,0.6l-4.6,4.6c-0.3,0.4-0.7,0.6-1.1,0.8c-0.4,0.2-0.7,0.7-1.1,1c-0.6-0.1-0.7,0.7-1.2,0.8
				c-0.4,0.1-0.8,0.3-1.1,0.5c-0.4,0.2-0.8,0.4-1.2,0.6c-0.4,0.3-0.9,0.5-1.4,0.8c-0.6-0.2-0.9,0.5-1.5,0.4c-0.4-0.1-0.5,0.5-1,0.4
				c-0.3-0.1-0.6-0.1-0.9,0c-0.4,0.1-0.8,0.5-1.4,0.4c-0.5-0.1-1.1,0-1.7,0c-0.5,0-1-0.1-1.5,0c-0.5,0.1-0.8-0.5-1.3-0.4
				c-0.5,0.1-1,0-1.5,0c-0.4-0.5-0.9-0.2-1.4-0.4s-0.8-0.5-1.2-0.7c-0.4-0.1-0.9,0.1-1.1-0.4c-0.5,0.1-0.9-0.2-1.4-0.4
				c-0.4-0.2-0.9-0.3-1.2-0.7c-0.7-0.1-1-0.8-1.6-1.2c-0.4-0.3-0.5-0.8-0.8-1.2c-0.1-0.1-0.2-0.2-0.1-0.3c0.2-0.5-0.4-0.7-0.4-1.1
				c0-0.5,0.1-1,0-1.5c-0.1-0.5-0.5-0.8-0.4-1.4c-0.3-1-0.8-2-1.6-2.7c-0.5,0-0.9-0.1-1.3-0.4c-0.3-0.2-0.5,0.4-0.9,0.4
				c-0.4,0-0.5,0.6-1,0.8c-0.3,0.1-0.6,0.4-0.8,0.7c-0.3,0.3-0.6,0.6-0.9,0.9c-0.3,0.2-0.3,0.7-0.5,0.9c-0.4,0.4-0.5,0.9-0.9,1.3
				c-0.4,0.4-0.4,0.8-0.8,1.2c-0.4,0.4-0.8,0.8-1.2,1.2l-1.1,1.1c-0.4,0.4-0.8,0.8-1.2,1.2c-0.3,0.3-0.8,0.3-1.1,0.7
				c-0.2,0.3-0.4,0.6-0.8,0.7c-0.4,0.1-0.8,0.3-1.1,0.5c-0.4,0.4-1,0-1.3,0.5c-0.1,0.1-0.5,0.1-0.7,0.1c-0.7-0.2-1.2,0.5-1.9,0.4
				c-0.6-0.1-1.3-0.1-1.9,0c-0.6,0.1-1-0.4-1.5-0.4h-1.5c-0.2-0.5-0.8-0.2-1.1-0.4c-0.3-0.2-0.7-0.2-0.9-0.5
				c-0.2-0.3-0.6-0.1-0.8-0.2c-0.2-0.1-0.4-0.3-0.6-0.5c-0.1-0.1-0.3-0.2-0.5-0.3c-0.3-0.1-0.5,0-0.8-0.2c-0.4-0.3-1-0.4-1.4-0.7
				c-0.5-0.5-1.2-0.7-1.7-1.3c-0.2-0.3-0.5-0.5-0.8-0.8c-0.3-0.3-0.8-0.6-0.9-0.9c-0.1-0.4-0.2-0.8-0.4-1.1
				c-0.1-0.4-0.1-0.8-0.4-1.1c0.2-0.6-0.3-0.9-0.6-1.3c-0.1-0.2-0.1-0.5-0.3-0.6c-0.2-0.1-0.5-0.1-0.7-0.1c-0.3-0.1-0.5-0.5-0.8-0.4
				c-0.6,0.4-1.3,0.5-1.8,1c-0.8,0.7-1.5,1.5-2.3,2.2c-0.2,0.2-0.2,0.5-0.4,0.8c-0.4,0.7-1.3,0.8-1.8,1.5c-0.2,0.2-0.4,0.1-0.5,0.1
				c-0.4,0.1-0.9-0.2-1.2,0.2c-0.4,0.3-0.6,0.3-0.9-0.1c-0.1-0.2-0.2-0.3-0.4-0.4c-0.2-0.2-0.4-0.4-0.5-0.4c-0.4,0-0.8-0.2-1.2,0.2
				c-0.3,0.3-0.8,0.3-1.1-0.1c-0.7-0.7-1.4-1.4-2.1-2.1c-0.5-0.5-0.7-1.1-0.8-1.7c-0.1-0.3-0.3-0.5-0.4-0.8c-0.1-0.3,0-0.6,0-0.9
				c-0.5-0.3-0.4-0.7-0.4-1.1C31.7,50,32,49.4,31.9,49c0.1-0.5-0.1-0.9,0.3-1.2c0.2-0.2,0.1-0.5-0.1-0.6c-0.2-0.2-0.3-0.4-0.1-0.7
				c0.4-0.4,0.4-0.8,0-1.3c-0.1-0.1-0.2-0.2,0-0.3c0.4-0.2,0.2-0.7,0.5-0.9c0.1-0.1,0.1-0.4,0-0.5c-0.3-0.3-0.2-0.4,0-0.7
				c0.2-0.3,0-0.6-0.4-0.6c-0.6,0-1.1-0.1-1.5-0.6c-0.2-0.2-0.4-0.4-0.7-0.7c-0.1-0.1,0-0.2-0.1-0.3C29.3,40,29,39,28.5,38.2
				c-0.2-0.4-0.7-0.7-0.4-1.1c0.5-0.7,0.4-1.4,0.3-2.1c-0.1-0.6,0.4-0.9,0.4-1.4c0-0.4-0.1-0.9,0.4-1.2c-0.2-0.6,0.4-1,0.4-1.5
				c0-0.3,0-0.5,0.2-0.6c0.4-0.2,0.4-0.7,0.7-1c0.3-0.3,0.5-0.6,0.7-1c0.1-0.3,0.3-0.5,0.2-0.8c0-0.3,0.2-0.4,0.4-0.4
				c0.2,0,0.3-0.1,0.3-0.4c0-0.1,0.2-0.3,0.2-0.4c0.2-0.4,0.7-0.2,0.9-0.5c0.2-0.2,0.3-0.5,0.7-0.5c0.3,0,0.4-0.3,0.6-0.4
				c0.2-0.2,0.3-0.4,0.6-0.4c0.4,0.1,0.7-0.2,0.9-0.4c0.5-0.4,0.9-0.7,1.6-0.7c0.4,0,0.5-0.5,1-0.4c0.3,0.1,0.8,0.2,1-0.2
				c0,0,0.1-0.1,0.1-0.1c0.2,0.4,0.6,0.3,1,0.3c0.4,0,0.9,0,1.3,0.1c0.4,0.5,1.1,0.8,1.3,1.5c0.1,0.2,0.3,0.5,0.5,0.5
				c0.8,0.2,1.2,1,1.8,1.5c0.1,0.1,0.4,0.2,0.5,0.1c0.3-0.4,0.8-0.4,1.2-0.4c0.4,0,0.7-0.2,0.8-0.4c0.2-0.5,0.7-0.9,0.5-1.5
				c-0.2-0.5,0.5-0.8,0.4-1.4c-0.1-0.4,0-0.9,0-1.3c0-0.1,0-0.2,0-0.2c0.6-0.4,0.1-1.1,0.4-1.5c0.3-0.4,0.4-1,0.7-1.4
				c0.4-0.5,0.7-1,1-1.5c0.3-0.4,0.9-0.7,0.9-1.3c0-0.2,0.2-0.4,0.4-0.4c0.6-0.1,0.9-0.6,1.3-1c0.2-0.3,0.6-0.1,0.8-0.4
				c0.2-0.3,0.6-0.2,0.8-0.4c0.2-0.2,0.4-0.6,0.7-0.6c0.4-0.1,0.6-0.4,0.9-0.6c0.3-0.3,0.8,0.1,1-0.2c0.2-0.4,0.7-0.2,0.9-0.5
				c0.1-0.1,0.2-0.1,0.3-0.1c0.5,0,1,0.1,1.3-0.4c0.8,0.3,1.5-0.5,2.3-0.4c0.3,0.1,0.4-0.2,0.6-0.3c0.2-0.1,0.5-0.1,0.7-0.1
				c0.3,0.1,0.5,0.5,0.8,0c0-0.1,0.3-0.1,0.4,0c0.3,0.4,0.7,0.4,1.2,0.4c0.3,0,0.5,0.1,0.7,0.3c0.2,0.2,0.4,0.2,0.6-0.1
				c0.1-0.1,0.2-0.1,0.2-0.1c0.2,0.3,0.5,0.4,0.8,0.3c0.3-0.1,0.4,0.2,0.6,0.3c0.3,0.1,0.6,0.1,0.9,0.2c0.2,0.1,0.4,0.3,0.7,0.2
				c0.2,0,0.4,0,0.5,0.1c0.3,0.4,0.8,0.6,1.2,0.8c0.4,0.2,0.6,0.6,1.1,0.7c0.1,0,0.2,0.1,0.2,0.2c0.4,0.8,1.1,1.4,1.4,2.2
				c0.1,0.3,0.3,0.5,0.4,0.8c0.1,0.3,0.3,0.4,0.4,0.6c0.5,0.6,0.7,1.3,1,2c0.2,0.3,0.6,0.5,0.4,0.9c0.2,0.1,0.6,0.1,0.6,0.3
				c0.2,0.6,0.7,1,1.1,1.4c0.3,0.3,0.6,0.4,1,0.4c0.1,0,0.3,0.2,0.4,0.3c0.2,0.1,0.4,0.1,0.5,0c0.3-0.4,0.5-0.3,0.7,0
				c0.3-0.4,0.7-0.4,1.1-0.4c0.1,0,0.2-0.2,0.2-0.3c0-0.4,0-0.9,0-1.3c0.7-0.7,0.4-1.5,0.4-2.3c0-0.5,0.5-0.8,0.4-1.4
				c-0.1-0.4,0-0.9,0-1.3c0-0.1,0.1-0.1,0.1-0.1c0.5-0.3,0.1-0.8,0.4-1.2c0.2-0.2,0.2-0.6,0.4-0.7c0.5-0.3,0.5-1,0.9-1.3
				c0-0.7,0.6-0.9,0.9-1.3c0.6,0,0.9-0.6,1.3-0.9c0.4-0.4,0.8-0.6,1.2-0.8c0.4-0.2,0.6-0.7,0.9-0.9c0.4-0.2,0.8-0.4,1.3-0.6
				c0.4-0.1,0.7-0.5,1.1-0.6c0.5-0.1,0.8-0.7,1.3-0.4c0.4-0.4,0.9-0.4,1.4-0.4c0.4,0,0.7-0.5,1.2-0.4c0.4,0.1,0.7,0,1-0.3
				c0.1-0.1,0.4-0.1,0.5,0c0.5,0.2,0.7-0.4,1.1-0.4c0.4,0,0.9,0,1.3,0c0.4-0.6,1-0.3,1.5-0.3c0.4-0.1,0.8-0.1,1,0.3h1.2
				c0.5-0.6,1.2-0.2,1.7-0.3c0.5,0.5,1.1,0.4,1.7,0.4c0.4,0,0.7,0.1,1,0.4c0.1,0.1,0.3-0.1,0.5-0.1c0.1-0.1,0.2-0.3,0.4-0.1
				c0.1,0.1,0.2,0.2,0.3,0.2c0.6-0.1,1.1,0.5,1.7,0.4c0.4-0.1,0.6,0.3,1,0.4c0.4,0.1,0.8,0,1.1,0.1c0.2,0.1,0.4,0.3,0.6,0.3
				c0.5,0,1.1-0.2,1.5,0c0.4,0.2,0.7,0.7,1.1,1c0.1,0.1,0.3,0.4,0.4,0.4c0.7,0,0.8,0.8,1.4,0.8s0.7,0.9,1.4,0.8
				c0.1,0,0.1,0.1,0.1,0.1c-0.1,0.5,0.4,0.7,0.7,1c0.2,0.2-0.2,0.3-0.2,0.4c0,0.7,0,1.3,0,2c0,0.1,0.2,0.1,0.3,0.1
				c0.2,0,0.3,0.1,0.4,0.3c0.2,0.6,0.7,1.1,0.8,1.7c0,0.1,0.3,0.2,0.5,0.2c0.7-0.1,0.8-0.2,1.4,0.3c0.3,0.2,0.3-0.1,0.4-0.1
				c0.1,0,0.1-0.1,0.1-0.1c0.3,0.6,0.6,0.1,0.8,0c0.1,0,0.1,0,0.2,0c0.4,0.1,0.8-0.2,0.9-0.5c0.2-0.4,0.4-0.7,0.7-1
				c0.8-0.7,1.5-1.5,2.3-2.2c0.4,0.1,0.5-0.3,0.8-0.4c0.5-0.1,1,0.2,1.4-0.3c0.4,0,0.8-0.1,1.3-0.1c0.5-0.1,0.9,0.1,1.4-0.3
				c0.4-0.3,1.4-0.1,2.6,0.2c0.1,0,0.2,0.1,0.4,0c0.6-0.2,1,0.4,1.5,0.4c0.2,0.4,0.6,0.4,1,0.4c0.4,0,0.5,0.4,1,0.4
				c0.5,0,0.9,0.5,1.5,0.4c0.4,0.4,1,0.4,1.3,0.9c0.1,0.1,0.3,0.1,0.5,0.2c0.2,0,0.4,0,0.5,0.1c0.5,0.6,1.4,0.7,1.8,1.4
				c0.3,0.4,0.9,0.3,1.2,0.8c0.2,0.4,0.7,0.7,1,1.1c0.4,0.4,0.7,0.7,1.1,1.1c0.4,0.5,1.1,0.8,1,1.7c0,0,0.1,0.1,0.1,0.1
				c0.2,0.1,0.4,0.2,0.6,0.3c-0.3,0.7,0.5,1.1,0.4,1.7c-0.1,0.6,0,1.1,0.6,1.5c0.2,0.2,0.3,0.4,0.1,0.6c-0.2,0.2-0.3,0.4-0.3,0.6
				c0.1,0.4,0.1,0.9-0.3,1.2c-0.1,0,0,0.4,0.1,0.5c0.4,0.4,0.3,0.6,0,0.9c-0.2,0.2,0.3,0.3,0.2,0.5s-0.3,0.4-0.5,0.5
				c-0.3,0.2,0,0.3,0.1,0.4c0,0,0.1,0.1,0.1,0.1c0,0.1-0.1,0.1-0.1,0.1c-0.2,0.2-0.4,0.3-0.5,0.5c-0.1,0.1,0.2,0.5,0.2,0.5
				c-0.3,0.2-0.2,0.6-0.4,0.8c-0.4,0.4-0.8,1-1.4,1.2c-0.3,0.1-0.5,0.3-0.7,0.5c-0.2,0.3-0.6,0.1-0.8,0.4c-0.2,0.2-0.5,0.4-0.4,0.8
				c0,0.4,0,0.8,0,1.1c0,0.1,0.2,0.2,0.2,0.2c0.5,0,0.5,0.2,0.5,0.6c0,0.2,0,0.4,0.1,0.5c0.2,0.3,0.5,0.5,0.8,0.8
				c0.6-0.3,1,0.5,1.5,0.4c0.5-0.1,1,0.2,1.4-0.3c0.2-0.2,0.2,0.1,0.4,0.2c0.2,0.1,0.7-0.1,0.6,0.4c0,0.2,0.1,0.4,0.3,0.4
				c0.5,0.1,0.4,0.2,0.1,0.5c-0.1,0.1-0.1,0.4,0,0.5c0.3,0.2,0.2,0.6,0.4,0.8c0.2,0.2,0.3,0.5,0.3,0.8c0,1.1-0.1,2.1,0,3.2
				C154.1,44.8,153.5,45,153.6,45.5z"/>
			<path d="M119.9,95.2c-0.1-0.8,0.3-1.6-0.4-2.3c-0.1-0.1,0-0.3,0.1-0.4c0.4-0.2,0.3-0.6,0.3-1v-1.9c0-0.6-0.1-1.1,0-1.7
				c0.1-0.7-0.3-1.1-0.4-1.7c-0.1-0.8,0.2-1.7-0.4-2.5c-0.1,0,0-0.2,0.1-0.3c0.1-0.1,0.2-0.2,0.3-0.3c-0.5-0.3-0.4-0.7-0.4-1.2
				c0.1-0.7-0.3-1.2-0.7-1.8c-0.2-0.3-0.5-0.5-0.5-0.9c0-0.1,0-0.2-0.1-0.3c-0.7-0.7-1.3-1.3-2-2c-0.5-0.1-1-0.4-1.4-0.7
				c-0.3-0.2-0.9,0.1-1.1-0.4c-0.3,0-0.6-0.1-0.9-0.1c-0.5,0-0.9,0-1.3,0c-0.2,0-0.4,0-0.5,0.1c-0.2,0.1-0.3,0.3-0.4,0.3
				c-0.6,0-0.7,0.9-1.4,0.8c0,0-0.1,0.1-0.1,0.1c-0.1,0.2-0.1,0.4-0.2,0.7c-0.2,0.3-0.4,0.7-0.5,1.1c-0.1,0.5,0.1,1-0.4,1.4
				c-0.1,0,0,0.4,0.1,0.5c0.5,0.4-0.1,1,0.5,1.3c0,0,0,0.1,0,0.1c-0.6,0.6-0.2,1.3-0.3,1.9c-0.1,0.4,0,0.9,0,1.3
				c-0.7,0.7-0.3,1.7-0.4,2.5c-0.1,1.5,0,3,0,4.5c0,0.2,0,0.5-0.1,0.7c-0.4,0.4-0.2,0.8-0.3,1.2c0,0.3,0.4,0.4,0.4,0.6
				c-0.1,0.2-0.4,0.3-0.4,0.6c0,0.8,0,1.5,0,2.2c0,0.2,0.3,0.5,0.3,0.5c-0.5,0.5-0.3,1.1-0.3,1.6c0,2,0,3.9,0,5.8v1.5
				c0,0.5-0.1,1,0,1.5c0.1,0.5-0.2,0.9-0.4,1.3c-0.1,0.5,0,1.1,0,1.7c-0.5,0.4-0.4,0.9-0.4,1.4v1.7c0,0.2,0,0.4,0,0.5
				c-0.1,0.2-0.2,0.3-0.3,0.5c-0.1,0.1-0.1,0.2,0.1,0.3c0.2,0.2,0.4,0.5,0.2,0.6c-0.4,0.3-0.3,0.6-0.3,1v2c0,0.7,0.1,1.4-0.4,1.9
				v2.8c-0.5,0.4-0.4,0.9-0.4,1.4v3c0,0.2,0.1,0.4,0,0.5c-0.5,0.5-0.5,1.1,0,1.6c0.1,0.1,0.1,0.3,0,0.4c-0.4,0.2-0.4,0.6-0.4,1v3.5
				c0,0.2,0.1,0.6-0.1,0.7c-0.5,0.5-0.3,1-0.3,1.5c0,5.5,0,11,0,16.4c0,1-0.4,2.1,0.4,3v3.2c0,0.5,0.1,1.1-0.1,1.5
				c-0.2,0.5,0.8,0.8,0.1,1.2c0.7,0.7,0.2,1.5,0.4,2.3c0.1,0.4,0,0.7,0.2,1c0.2,0.3,0.1,0.8,0.2,1.2c0.5,0.3,0.2,0.9,0.4,1.1
				c0.2,0.3,0.2,0.7,0.5,0.9c0.4,0.2,0.4,0.7,0.7,1c0.4,0.5,0.8,1,1.7,0.8c0.7-0.1,1.4-0.1,2,0c0.6,0.1,1-0.4,1.5-0.4
				c1-0.5,1.8-1.3,2.3-2.3c0.2-0.4,0.3-0.9,0.6-1.3c0.2-0.3,0.3-0.5,0.3-0.8c-0.1-0.5,0.1-0.8,0.5-1.1c0.1-0.1,0.2-0.3,0.2-0.5
				c0.1-0.5-0.2-1.1,0.3-1.6l0.1-1.6c0,0,0-0.3,0.1-0.4c0.5-0.4,0.3-1,0.3-1.6c0-0.7,0-1.5,0-2.2c0-0.3,0.2-0.5,0.3-0.8
				c-0.5-0.4-0.3-0.7,0.1-1.1c0.1-0.1,0-0.4-0.1-0.5c-0.2-0.2-0.4-0.5-0.2-0.7c0.3-0.3,0.4-0.6,0.4-1v-9c0-0.4,0.1-0.8,0-1.1
				c-0.2-0.5,0.5-0.7,0.2-1.1c-0.3-0.3-0.1-0.7-0.2-1.1c-0.1-0.5,0.3-0.8,0.4-1.1c0.1-0.6,0-1.1,0-1.7c0.1-0.5-0.2-1.1,0.4-1.5
				c-0.1-0.2-0.4-0.3-0.4-0.6c0.1-0.8-0.3-1.7,0.4-2.4c0-0.9,0-1.9,0-2.8c0-0.3-0.1-0.7,0-0.9c0.5-0.5,0.3-1,0.3-1.6
				c0-0.9,0-1.7,0-2.6c0-0.2-0.1-0.6,0.1-0.7c0.5-0.4,0.3-0.9,0.3-1.4c0-1.5,0-3,0-4.5c0-0.4-0.1-0.9,0.3-1.2c0-0.5,0.2-1-0.2-1.4
				c-0.1-0.1-0.2-0.2,0-0.3c0.4-0.2,0.3-0.5,0.3-0.8v-9c0-2.6,0-5.1,0-7.7c0-0.8-0.4-1.6,0.4-2.3C119.9,96.7,120,95.9,119.9,95.2
				L119.9,95.2z M116.1,91.8c0,0.7-0.5,1.2-0.4,1.9c0.1,0.7,0,1.4,0,2.1v8c0,0.7,0,1.4,0,2.1c-0.1,0.6,0.2,1.2-0.3,1.8
				c-0.2,0.2-0.1,0.6-0.1,0.9v10.8c0,0.4-0.1,0.9,0,1.3c0.1,0.5-0.4,0.6-0.4,1c0,0.1,0,0.2,0,0.4c0,0.7-0.1,1.4,0,2.1
				c0.2,0.7-0.5,1.1-0.4,1.7c0.1,0.7,0,1.4,0,2.1c0,0.6,0,1.2,0,1.9c0,0.5-0.5,0.9-0.4,1.5c0.1,0.5,0,1.1,0,1.7v5.3
				c0,0.4,0.1,0.8-0.3,1.2c-0.1,0.1-0.1,0.5-0.1,0.7v5c0,0.5,0.2,0.9-0.3,1.4c-0.2,0.1-0.1,0.6-0.1,0.9c0,3.1,0,6.2,0,9.3
				c0,0.6,0.2,1.2-0.3,1.7c-0.1,0.1-0.1,0.2-0.1,0.4v2.2c-0.7,0.6-0.3,1.4-0.4,2.1c-0.1,0.4-0.5,0.5-0.4,1c0.1,0.3,0.1,0.7-0.2,1
				c-0.1,0.1-0.2,0.4-0.1,0.5c0.2,0.5-0.2,0.9-0.4,1.3c-0.2,0.4-0.5,0.7-0.8,0.9c0,0-0.2-0.1-0.2-0.1c0-0.3-0.1-0.4-0.3-0.7
				c-0.1-0.2-0.2-0.4-0.3-0.6c-0.1-0.2-0.2-0.3-0.2-0.5c0.2-0.7-0.5-1.2-0.4-1.9c0.1-0.6,0-1.2,0-1.9c0-0.3,0.1-0.7,0-0.9
				c-0.2-0.6-0.4-1.2-0.4-1.9c0.1-0.7,0-1.4,0-2.1c0-0.7,0-1.4,0-2.1c0-0.4,0.2-0.8-0.2-1.2c-0.3-0.3,0.4-0.5,0.2-0.9
				c-0.1-0.4,0-0.9,0-1.3c0-0.4-0.1-0.7-0.4-0.9c0.7-0.6,0.2-1.4,0.3-2.1c0.1-0.7,0-1.5,0-2.2v-2.2c0-0.8,0-1.5,0-2.2
				c0-0.3,0-0.6-0.3-0.8c-0.1-0.1-0.1-0.3-0.1-0.4c0.7-0.9,0.3-2,0.4-3c0.1-1.8,0-3.6,0-5.4c0-0.6-0.2-1.2,0.3-1.8
				c0.1-0.1,0-0.5,0-0.7c0-1.1-0.1-2.2,0-3.4c0.1-0.8-0.4-1.6,0.3-2.3c0.2-0.2,0-0.6,0-0.9c0-0.5,0-1,0-1.5c0-0.5-0.2-1,0.1-1.4
				c0.4-0.4,0.2-0.8,0.2-1.2c0-0.5,0-1,0-1.5c0-0.2,0.2-0.3,0.3-0.4c0.1-0.2,0.1-0.5-0.1-0.7c-0.2-0.2-0.3-0.4-0.1-0.6
				c0.1-0.2,0.3-0.4,0.3-0.6c0.1-0.7-0.2-1.5,0.2-2.2c0.4-0.7,0.1-1.4,0.1-2.2c0.1-0.8,0-1.5,0-2.2v-2.2c0-0.2,0-0.4,0-0.5
				c-0.1-0.6,0.6-0.9,0.4-1.5c-0.1-0.5,0-1.1,0-1.7v-5.2c0-0.6,0.1-1.1,0-1.7c-0.1-0.5,0.2-0.9-0.2-1.4c-0.3-0.3-0.1-0.8-0.1-1.2
				c0-0.5,0-1,0-1.5v-5.4c0-0.4,0-0.8,0-1.1c0-0.3,0-0.6,0.3-0.8c0,0-0.1-0.2-0.1-0.2c-0.1-0.2-0.2-0.3-0.2-0.5
				c0-0.4-0.2-0.7,0.2-1.1c0.4-0.3-0.3-0.4-0.2-0.7c0,0,0-0.1,0-0.2c0.6-0.5,0.3-1.1,0.4-1.7c0-0.3,0.2-0.4,0.4-0.6
				c0.4-0.3,1.2-0.2,1.5,0.1l0.5,0.5c0.2,0.2,0.1,0.9,0.8,0.8c0,0,0.1,0.2,0.1,0.3c0,0.3-0.1,0.7,0.3,0.8c0.5,0.2,0.5,0.8,0.8,1.2
				c0.2,0.2,0.1,0.7,0.1,1.1v1.7c0,0.5,0,1.1,0,1.7c0,0.4-0.2,0.9,0.3,1.2c0.1,0.1,0.1,0.4,0.1,0.5
				C116.1,90.1,116.2,90.9,116.1,91.8L116.1,91.8z"/>
			<path d="M85.7,96.9c-0.2-0.2-0.3-0.5-0.2-0.6c0.4-0.3,0.3-0.7,0.3-1V80c0-0.3,0-0.6-0.1-0.9c-0.1-0.2-0.3-0.3-0.3-0.6
				c0-0.2,0-0.4-0.1-0.5c-0.2-0.2-0.3-0.4-0.3-0.7c0-0.2-0.3-0.3-0.4-0.6c-0.2-0.7-0.9-1-1.3-1.5c0,0-0.1,0-0.2,0
				c-0.5,0-1,0.1-1.3-0.4c-0.6,0-1.1,0.1-1.7,0c-0.6-0.1-0.9,0.7-1.5,0.4c-0.6,0.5-1.5,0.9-1.4,2c0,0.2,0,0.5-0.2,0.7
				c-0.2,0.2-0.2,0.5-0.4,0.8c-0.3,0.4-0.1,0.7-0.1,1.1c-0.1,0.3-0.3,0.5-0.4,0.8c-0.1,0.5,0.1,1-0.4,1.3c0.1,0.7-0.2,1.2-0.3,1.7
				c-0.1,0.8-0.1,1.6,0,2.4c0.1,0.8-0.3,1.6,0.4,2.3v3.9c-0.7,0.8-0.2,1.8-0.4,2.7c0,0.2,0,0.4-0.1,0.5c-0.4,0.3-0.2,0.8-0.3,1.2
				c-0.1,0.4-0.2,0.5-0.8,0.2c-0.1-0.1-0.2-0.1-0.2-0.1c-0.4,0.2-0.6,0.7-0.3,1c0.2,0.2,0.4,0.5,0.7,0.7c0.4,0.2,0.2,0.7,0.5,0.9
				c0.1,0.1,0.2,0.4,0.1,0.5c-0.5,0.4-0.3,1-0.4,1.5c0,1.4-0.1,2.7,0,4.1c0.1,0.6-0.5,0.9-0.4,1.5c0,0.6,0,1.2,0,1.9v1.3
				c0,0.2,0.1,0.5-0.1,0.5c-0.4,0.4-0.4,0.7,0,1.1c0,0.9,0,1.8,0,2.7c-0.4,0.3-0.1,0.5,0.1,0.7c0.1,0.1,0.1,0.3,0,0.4
				c-0.4,0.3-0.4,0.7-0.4,1.2c0,0.4,0,0.7,0,1.1c-0.7,0.5-0.3,1.2-0.4,1.9c-0.1,1.2,0,2.4,0,3.5c-0.8,1.1-0.3,2.3-0.4,3.4
				c-0.1,1.6,0,3.1,0,4.7v0.4c0,0.3,0,0.6,0,0.9c0,0,0,0,0,0.1c0,0.4-0.1,0.7-0.3,1c-0.1,0.1,0,0.5,0.1,0.7c0.1,0.2,0.4,0.3,0.1,0.5
				c-0.1,0.1-0.2,0.3-0.2,0.5v2.8c0,0.4-0.1,0.9,0,1.3c0.1,0.5-0.3,0.9-0.4,1.4c-0.1,0.4-0.1,0.9,0,1.3c0.1,0.5-0.4,0.9-0.4,1.3
				c0,0.7-0.2,1.5,0.3,2.1c0.2,0.3-0.3,0.5-0.3,0.8c0,0.6,0,1.2,0,1.9c0,0.4,0.1,0.7-0.3,1c-0.1,0.1,0,0.4,0.1,0.5
				c0.4,0.4,0.2,0.9,0.2,1.4c-0.7,0.7-0.2,1.5-0.4,2.3c-0.1,0.5,0.1,1.1-0.4,1.5c-0.1,0.1-0.1,0.6,0.1,0.7c0.3,0.3,0.3,0.7,0.3,1
				c0,1.4,0,2.7,0,4.1c0,0.3-0.1,0.6-0.3,0.8c-0.1,0.1-0.1,0.4,0,0.5c0.3,0.2,0.3,0.5,0.3,0.8c0,1.1,0,2.2,0,3.4c0,0.4,0,0.8,0.4,1
				c-0.2,0.7,0.6,1.2,0.4,1.9c0,0.1,0,0.3,0,0.4c0.4,0.3,0.4,0.8,0.7,1.2c0.1,0.2,0.2,0.4,0.3,0.6c0.5,0.5,0.9,0.9,1.3,1.3
				c0.1,0,0.1,0.1,0.2,0.1c0.5-0.1,0.8,0.4,1.2,0.3c0.5,0,0.8,0.4,1.2,0.4c0.1,0,0.2,0,0.4,0c0.3,0,0.4-0.4,0.6-0.4
				c0.3-0.1,0.6,0,0.9,0c0.1,0,0.2-0.1,0.3-0.1c0.6-0.5,1.2-1.2,1.5-2c0.3-0.6,0.6-1.3,0.9-1.9c0.1-0.2,0.2-0.3,0.3-0.5
				c0.1-0.6-0.3-1.2,0.4-1.7c0-0.5,0.1-1.1,0-1.7c-0.1-0.6,0.5-1.1,0.4-1.7c0-0.9-0.4-1.8,0.3-2.7c0.1-0.2,0-0.5,0-0.7
				c0-1.2,0-2.5,0-3.7c0-0.4,0.3-0.8,0.4-1.2c0-0.1,0.1-0.2,0-0.4c-0.1-0.5,0-1.1,0-1.6v-0.2c0,0,0-0.1,0-0.2
				c0.7-0.8,0.3-1.8,0.4-2.7c0.1-0.8,0-1.5,0-2.2c0-0.4-0.1-0.9,0.4-1.2c0-0.4,0.2-0.7-0.2-1C84,145.3,84,145,84,145
				c0.4-0.3,0.4-0.8,0.4-1.2v-2.1c0-0.3,0-0.6,0.3-0.8c0.4-0.4-0.3-0.7-0.2-0.9c0.3-0.3,0.2-0.7,0.2-1c0-0.7,0-1.4,0-2.1v-20.6
				c0-0.4-0.1-0.9,0-1.3c0.1-0.3,0.5-0.5,0-0.8c-0.1,0-0.1-0.4,0.1-0.5c0.3-0.2,0.2-0.4,0-0.5c0,0,0-0.2,0.1-0.2
				c0.2-0.2,0.3-0.4,0.1-0.6c-0.1-0.2-0.3-0.3-0.3-0.5c0-1.3,0-2.6,0-3.9c0.7-0.8,0.2-1.8,0.4-2.7c0.1-0.5-0.2-1.1,0.1-1.5
				c0.2-0.4,0.4-0.8,0.3-1.2v-3.5c0-0.5-0.1-1,0.4-1.3C85.8,97.5,86,97.2,85.7,96.9z M82.1,88.3c0,0.4,0,0.9,0,1.3
				c0,0.3,0.1,0.5,0.3,0.7c0.1,0.1,0.1,0.4,0.1,0.5c-0.5,0.4-0.3,0.9-0.3,1.4c0,0.4-0.1,0.9,0.3,1.2c0.1,0.1,0,0.3-0.1,0.5
				c-0.1,0.2-0.2,0.3-0.3,0.5c0,0.5,0,1,0,1.5v1.5c0,0.4-0.5,0.7-0.4,1.2c0.1,0.5,0,1,0,1.5c0,1.5,0,3.1,0,4.7
				c0,0.5-0.3,0.9-0.4,1.4c-0.1,0.4,0,0.8,0,1.3c-0.6,0.5-0.3,1.2-0.4,1.7c0.7,1,0.4,2.1,0.4,3.2c0,7.8,0,15.6,0,23.4
				c0,0.9,0.4,2-0.4,2.8c-0.1,0.1,0,0.4,0,0.5c0,0.3-0.1,0.7,0,0.9c0.1,0.4-0.6,0.5-0.2,0.9c0.3,0.2,0.1,0.6,0.1,0.9
				c0,0.6,0,1.2,0,1.9c-0.6,0.5-0.4,1.1-0.4,1.7c0,0.5,0,1.1,0,1.6c0,0,0,0.2,0,0.3c0,0.2-0.2,0.5-0.3,0.7c0,0,0,0,0,0.1
				c-0.1,0.2,0.1,0.5-0.2,0.7c-0.1,0.1-0.3,0.2,0,0.4c0.3,0.2,0.3,0.5,0,0.8c-0.1,0.1-0.1,0.2-0.1,0.2c0.6,0.5,0.2,1.2,0.3,1.8
				c-0.7,0.6-0.3,1.5-0.4,2.3c-0.1,0.5-0.6,0.9-0.4,1.5c0.1,0.5,0,1,0,1.5c0,0.6,0,1.1,0,1.7c0,0.2-0.3,0.4-0.3,0.6
				c0,0.1,0.2,0.2,0.3,0.4c0.1,0.1,0,0.2,0,0.4c0,0.5-0.5,0.8-0.4,1.4c0.1,0.5,0.1,1,0,1.5c-0.1,0.6,0.2,1.2-0.2,1.8
				c-0.4,0.5-0.1,1.1-0.2,1.6c-0.6,0.2-0.2,0.9-0.5,1.3c-0.2,0.2-0.3,0.4-0.2,0.7c0.1,0.4-0.2,0.5-0.4,0.8c-0.2,0.2-0.5,0.2-0.7,0
				c-0.1-0.2-0.3-0.4-0.4-0.6c-0.1-0.2-0.3-0.5-0.4-0.8c0-0.4-0.1-0.7-0.4-1c-0.2-0.2,0-0.6-0.1-0.9c-0.1-0.7,0.4-1.5-0.4-2.1v-5
				c0-1-0.1-2,0-3c0.1-0.8-0.3-1.7,0.4-2.5c0.1-0.1,0-0.4,0-0.5c0-1.1-0.1-2.1,0-3.2c0.1-0.9-0.4-1.8,0.4-2.7c0.1-0.1,0-0.5,0-0.7
				c0-1.4,0-2.9,0-4.3c0-0.7-0.3-1.4,0.3-2c0.1-0.1-0.3-0.4-0.3-0.5c0-0.1,0-0.2,0-0.3c0-0.5-0.1-1,0-1.5v-0.1
				c0.1-0.5,0.4-1,0.4-1.5c0-0.5,0-1,0-1.5v-1.7c0-0.5-0.1-1,0-1.5c0.1-0.8-0.4-1.6,0.4-2.3c0.1-0.1,0-0.4,0-0.6v-3.7
				c0-0.5,0.1-1,0-1.5c-0.1-0.5,0.4-0.8,0.4-1.2c0-1.4,0-2.7,0-4.1c0-0.8-0.3-1.7,0.4-2.5c-0.1-0.6,0.3-1.2-0.3-1.8
				c0,0,0.2-0.2,0.2-0.4c0.1-0.4,0.1-0.7,0.1-1.1c0-4.4,0-8.7,0-13.1c0-0.5-0.2-1.1,0.3-1.5c0-0.4,0-0.7,0-1.1
				c0.1-0.8-0.4-1.6,0.4-2.3c0.1-0.1,0-0.4,0-0.5c0-0.8-0.1-1.6,0-2.4c0.1-0.8-0.4-1.6,0.4-2.3v-3c-0.7-0.5-0.3-1.1-0.4-1.7
				c0.6-0.8,0.4-1.6,0.4-2.5c0-0.5,0.6-0.7,0.4-1.2c0-0.1,0.9-2,1-2c0.4-0.5,1.1-0.5,1.4,0c0.3,0.5,0.8,1,0.6,1.6
				c-0.1,0.4,0.4,0.7,0.2,0.9c-0.3,0.5-0.3,0.8,0,1.3c0.1,0.1,0.1,0.2,0.1,0.3c0,1.1,0,2.2,0,3.4h0.1c0,0.4-0.5,0.7-0.4,1.2
				C82.1,87.6,82.1,87.9,82.1,88.3z"/>
			<path d="M141.4,93.7c0.3-0.3,0.3-0.6,0.3-1V80.3c0-0.4,0-0.9,0-1.3c0.1-0.5-0.4-0.7-0.4-1.2h-0.1c0-0.5-0.3-1-0.5-1.5
				c-0.1-0.3-0.2-0.5-0.2-0.8c-0.1-0.3-0.4-0.5-0.3-0.8c0.1-0.6-0.3-1.1-0.6-1.4c-0.3-0.5-0.8-0.9-1.4-1.2c-0.6-0.4-1.1-0.3-1.7-0.3
				c-0.2,0-0.6-0.1-0.7,0.1c-0.3,0.3-0.7,0.2-1,0.5c-0.3,0.3-0.6,0.6-0.9,0.9c-0.1,0.1-0.1,0.2-0.1,0.3c-0.1,0.4,0.1,0.8-0.2,1.1
				c-0.3,0.4-0.2,0.7-0.2,1c0,1.3,0,2.6,0,3.9c0,0.2,0.1,0.5,0,0.5c-0.7,0.7-0.3,1.5-0.4,2.3c-0.1,1.7,0,3.5,0,5.2
				c0,0.2,0.1,0.6,0,0.7c-0.6,0.6-0.3,1.3-0.4,1.9c0,0.8,0,1.6,0,2.4c0,0.2,0.1,0.5-0.1,0.5c-0.5,0.4-0.3,1-0.3,1.5
				c-0.1,1.6,0,3.3,0,4.9c0,0.2,0.1,0.6-0.1,0.7c-0.5,0.4-0.3,0.9-0.3,1.4c0,1.4,0,2.7,0,4.1c0,0.2,0.1,0.6,0,0.7
				c-0.7,0.8-0.3,1.8-0.4,2.7c-0.1,1.4,0,2.7,0,4.1c0,0.2,0.1,0.6,0,0.7c-0.7,0.8-0.3,1.7-0.4,2.5c-0.1,1,0,2,0,3
				c0,0.2-0.1,0.4-0.2,0.5c-0.1,0.1-0.1,0.2,0,0.3c0.2,0.2,0.4,0.4,0.2,0.6c-0.2,0.2-0.4,0.5-0.3,0.8c0,0.5,0,1,0,1.5v1.5
				c0,0.5,0,1-0.1,1.5c-0.6,0.4,0.2,0.8,0.1,1.2c-0.2,0.5,0.2,1.2-0.4,1.7c0,0,0.1,0.1,0.1,0.1c0.4,0.3,0.3,0.6,0,0.9
				c0,0-0.1,0.1-0.1,0.1c0.6,0.6,0.4,1.3,0,2c-0.1,0.2-0.1,0.6,0.1,0.7c0.4,0.3,0.2,0.7,0.3,1c0.1,0.4-0.1,0.6-0.4,0.8
				c0.1,0.1,0.2,0.2,0.4,0.4c-0.2,0.2-0.4,0.4-0.4,0.8v14.8c0,0.2-0.1,0.5,0.1,0.5c0.5,0.4,0.3,0.9,0.3,1.4c0,0.6,0,1.2,0,1.9
				c-0.1,0.6,0.5,1.1,0.4,1.7c-0.1,0.4,0.7,1.4,1.1,1.8c0.4,0.3,0.7,0.1,1.1,0.2c0.4,0,0.8,0.1,1.1,0c0.6-0.2,1.3-0.4,1.6-1
				c0.1-0.4,0.5-0.8,0.4-1.4c-0.1-0.3-0.1-0.7,0.1-0.9c0.3-0.3,0.3-0.7,0.2-1c-0.1-0.5,0.5-0.6,0.4-1.2c-0.1-0.6-0.3-1.4,0.3-1.9
				v-1.3c0.7-0.9,0.3-2,0.4-3c0-0.2-0.1-0.6,0-0.7c0.5-0.7,0.3-1.4,0.4-2.1c0-0.1,0-0.1,0-0.2c0.7-0.8,0.2-1.8,0.4-2.7
				c0-0.2,0-0.4,0-0.5c0-0.4,0-0.8,0.4-1c-0.1-0.5,0.3-0.9,0.4-1.4c0.1-0.5,0-1,0-1.5c0-0.5,0.1-1,0-1.5c-0.1-0.5,0.5-0.8,0.4-1.3
				c-0.1-0.6,0-1.1,0-1.7v-1.7c0-0.6,0.1-1.3,0-1.9c-0.1-0.7,0.5-1,0.4-1.5c-0.1-0.5,0.2-1-0.3-1.4c0-0.5,0-1.1,0.1-1.6
				c0-0.2,0.2-0.2,0.1-0.5c-0.4-0.6-0.1-1.3-0.2-2c0-0.3,0.1-0.4,0.2-0.7c0.2-0.4,0.2-0.9,0-1.4c-0.2-0.3,0-0.4,0.1-0.5
				c0.1-0.2,0.1-0.5,0.1-0.7v-8c0-0.6,0.1-1.3,0-1.9c-0.2-0.7,0.4-1.2,0.4-1.9V105c0-0.4,0.1-0.9,0-1.3c-0.1-0.5,0.2-0.8,0.4-1.2
				c0-0.1,0-0.1,0-0.2v-1.7c0-0.5-0.1-1,0-1.5c0.1-0.5-0.2-1.1,0.2-1.6c0.3-0.5,0.1-1.1,0.1-1.6c0-0.4,0-0.8,0.4-1.2
				c0,0-0.1-0.4-0.2-0.5C141.4,94.1,141.2,93.8,141.4,93.7z M138,83.5c0,0-0.1,0.5-0.1,0.7v0.9c0,0.2,0.1,0.6,0,0.7
				c-0.5,0.5-0.5,1.1-0.3,1.5c0.4,0.7,0.4,1.2,0,1.8c-0.2,0.4,0,1-0.1,1.4c-0.1,0.5,0.6,0.7,0.4,1.1c-0.2,0.3-0.4,0.6-0.4,1
				c0,0.3,0,0.6,0,0.9v3.7c-0.5,0.3-0.4,0.7-0.4,1.2c0,0.4,0,0.7,0,1.1c-0.6,0.3-0.1,0.5,0,0.8c0,0.1-0.1,0.4-0.2,0.5
				c-0.2,0.2-0.1,0.3,0.1,0.4c0.3,0.3,0.2,0.6-0.1,0.8c-0.1,0.1-0.1,0.2,0,0.3c0.1,0.1,0.4,0.2,0.1,0.4c-0.1,0.1-0.2,0.3-0.2,0.5
				c0,0.8,0,1.5,0,2.2c0,0.4,0.2,0.9-0.3,1.2v2c0.4,0.2,0.3,0.6,0.3,1v8c0,0.4,0,0.7-0.4,1c-0.2,0.1,0,0.4,0.2,0.6
				c0.1,0.1,0.2,0.4,0.1,0.5c-0.4,0.3-0.4,0.6-0.4,1c0,0.3,0,0.6,0.3,0.8c0.1,0.1,0.1,0.4,0.1,0.5c-0.5,0.7-0.5,1.5,0,2.2
				c0.1,0.1,0.1,0.3,0,0.4c-0.7,0.7-0.3,1.5-0.3,2.3c-0.1,1.1,0,2.2-0.1,3.4c-0.1,0.8,0.4,1.6-0.3,2.3c-0.1,0.1,0,0.5,0,0.7v1.7
				c0,0.5,0.1,1-0.4,1.4v1.7c-0.7,0.9-0.3,1.9-0.4,2.8c-0.1,0.5-0.6,0.8-0.4,1.4c0.1,0.5,0,1,0,1.5c-0.7,0.8-0.2,1.8-0.4,2.7
				c0,0.1-0.1,0.1-0.2,0.2c0,0-0.1-0.1-0.1-0.1c0-0.4,0-0.7,0-1.1v-10.8c0-3.4,0-6.7,0-10.1c0-0.8-0.4-1.6,0.3-2.3
				c0.1-0.1,0-0.4,0-0.5v-3.4c0-0.4,0-0.9,0-1.3c0-0.5,0-0.9,0.4-1.2c0-0.6-0.1-1.1,0-1.7c0.1-0.9-0.4-2,0.4-2.8
				c0.1-0.2,0-0.5,0-0.7c0-1.3,0-2.6,0-3.9c0-0.4-0.2-0.9,0.3-1.2c0.1-0.1,0.1-0.5,0.1-0.7c0-1.2,0-2.4,0-3.5c0-0.5-0.2-1,0.3-1.4
				c0-0.5,0-1.1,0-1.6c-0.6-0.5-0.2-1.2-0.3-1.7c0.7-0.7,0.4-1.5,0.4-2.3c0.1-4.9,0-9.8,0-14.8c0-0.4,0-0.8,0.4-0.9
				c0.5-0.3,0.3-0.8,0.4-1.2c0-0.1,0.1-0.1,0.1-0.1c0,0,0.1,0.1,0.1,0.1c0.2,0.4,0,0.8,0.4,1.2c0.2,0.2,0,0.8,0.4,1.1
				c0.1,0.1,0,0.5,0,0.7c0,0.9,0,1.7,0,2.6C137.9,83.1,138.5,83.2,138,83.5z"/>
			<path d="M56.7,82.9c-0.1-0.1-0.1-0.4,0-0.5c0.4-0.4,0.4-0.7,0-1.1c-0.2-0.2,0-0.5,0.2-0.6c0.2-0.1,0.2-0.2,0-0.2
				c-0.3-0.2-0.3-0.5-0.2-0.8c0.1-0.6-0.1-1-0.4-1.5c-0.4-0.8-0.5-0.8-0.4-1.4c0.2-0.8-0.5-1.4-0.4-2.1c-0.4-0.4-0.6-0.9-0.7-1.4
				c-0.1-0.3-0.4-0.5-0.6-0.7c-0.3-0.3-0.5-0.7-1-0.8c-0.2,0-0.3-0.2-0.4-0.3c-0.1,0-0.1-0.1-0.1-0.1c-0.6,0-1.2-0.2-1.7,0
				c-0.5,0.2-1.2,0.3-1.5,1.1c-0.1,0.4-0.3,0.9-0.7,1.2c-0.4,0.3-0.5,0.7-0.4,1.1c0.2,0.7-0.2,1.3-0.6,1.8c-0.3,0.3-0.4,0.6-0.5,0.9
				c0,0,0,0.1,0,0.1V78c0,0.5,0.2,1.1-0.4,1.5c-0.1,0,0,0.3,0,0.3c0.3,0.2,0.4,0.4,0,0.7c-0.1,0.1-0.1,0.4,0,0.5
				c0.3,0.3,0.4,0.5-0.1,0.5c-0.1,0-0.5,0-0.2,0.3c0.4,0.4,0.3,0.7,0.1,1.1c-0.6,1.2-0.6,1.2-0.6,2.2c-0.1,0.9,0.3,1.8-0.4,2.7
				c0,1.3,0,2.6,0,3.9c0,0.1,0.3,0.3,0.3,0.4c0.1,0.3,0.2,0.7-0.2,1c-0.1,0.1-0.3,0.2-0.4,0.4c-0.2,0.2-0.2,0.3,0,0.7
				c0.2,0.2,0.2,0.4,0.2,0.7c0.1,0.8-0.3,1.6,0.4,2.3c-0.1,0.4,0.2,0.8-0.2,1.2c-0.1,0.1-0.2,0.3-0.2,0.5c0,1.3-0.1,2.6,0,3.9
				c0.1,1.2-0.4,2.6,0.4,3.8c0.1,0.2-0.3,0.4-0.3,0.6c-0.1,0.4,0,0.7-0.1,1.1c0,0.4,0,0.9,0,1.3c0,0.4-0.4,0.5-0.4,1
				c0.1,1.3,0,2.6,0,3.9c0,0.1,0.1,0.3,0.2,0.4c0.1,0.1,0.1,0.2,0,0.3c-0.5,0-0.7,0.2-0.6,0.6c0.1,0.8-0.3,1.6,0.4,2.3
				c0,0.4,0.1,0.8-0.1,1.1c-0.1,0.3-0.3,0.5-0.3,0.8v5.2c0,0.5-0.8,0.9,0,1.4c-0.1,0.1-0.2,0.2-0.2,0.3c-0.1,0.2-0.2,0.4-0.1,0.5
				c0.4,0.3,0.4,0.6,0.4,1c0,0.4,0,0.9,0,1.3c0,0.4,0,0.7-0.3,1c-0.4,0.4,0.4,0.7,0.3,1.1c-0.1,0.2,0,0.4-0.1,0.5
				c-0.5,0.4-0.3,0.7,0.1,1.1c0.1,0.1-0.1,0.3-0.1,0.5c0,0.1-0.4,0.2-0.1,0.4c0.4,0.3,0.3,0.4,0.2,1.1c0,0.2,0.1,0.4,0.2,0.5
				c0.1,0.1,0.2,0.2,0.1,0.3c-0.5,0.3,0,1.1-0.7,1.4c0,0,0.1,0.4,0.2,0.5c0.3,0.3,0.3,0.8,0.1,1c-0.3,0.3-0.3,0.6-0.3,1v1.5
				c-0.7,0.9-0.2,2-0.4,3c-0.1,0.6,0,1.2,0,1.9c0,0.4,0.1,0.9-0.3,1.2c0,0.4,0,0.7-0.1,1.1c0.5,0.4,0.4,0.9,0.4,1.3
				c0,0.2,0.1,0.3,0.2,0.5c0.2,0.2,0.4,0.4,0.7,0.7c0.1,0.1,0.2,0.3,0.2,0.5c-0.1,0.4,0.2,0.6,0.5,0.9c0.4,0.4,0.6,0.9,0.7,1.4
				c0,0.3,0,0.5,0.2,0.7c0.2,0.2,0.4,0.6,0.7,0.6c0.4,0.1,0.7,0.3,0.9,0.6c0.4,0.4,0.8,0.7,1.5,0.6c0.7,0.4,1.3-0.5,2-0.3
				c0.4-0.3,0.7-0.7,1.1-1c0.3-0.2,0.2-0.7,0.5-0.9c0.3-0.3,0.6-0.6,0.9-0.9c-0.2-0.4,0.4-0.6,0.4-1c0.1-0.5-0.3-1.1,0.3-1.6
				c0-0.6,0-1.2,0.1-1.8c0-0.1,0-0.1,0.1-0.2c0.1-0.2,0.4-0.3,0.1-0.5c-0.4-0.4,0.2-0.4,0.2-0.7c-0.1-0.9,0-1.8,0-2.6
				c0-0.1-0.2-0.3-0.2-0.5c-0.2-0.6-0.3-1.2,0.3-1.6c0.3-0.2,0.4-0.5,0.4-0.8c0-0.7,0-1.5,0-2.2c0-0.4-0.2-0.5-0.5-0.5
				c-0.3-0.1-0.3-0.6,0-0.7c0.2-0.1,0.5,0,0.5-0.4v-7.8c0-0.9,0.1-1.8,0-2.6c-0.1-0.8,0.4-1.7-0.3-2.5c-0.1-0.1,0.3-0.2,0.3-0.6
				v-8.9c0-0.2-0.2-0.3-0.2-0.5c-0.1-0.2-0.2-0.5-0.1-0.5c0.4-0.3,0.4-0.6,0.4-1v-12.5c0-0.2,0.1-0.6-0.1-0.7
				c-0.4-0.3-0.3-0.8-0.3-1.2c0-0.4,0.2-0.5,0.6-0.5c0.1,0,0.2-0.3,0.2-0.5c0-0.2-0.2-0.3-0.4-0.3c-0.1,0-0.2-0.1-0.3-0.1
				c0.1-0.1,0.1-0.2,0.2-0.2c0.1,0,0.1,0,0.2,0c0.2-0.1,0.3-0.2,0.2-0.3c-0.2-0.2-0.4-0.4-0.5-0.5c-0.1-0.1-0.1-0.1,0.4-0.6l0.1-0.1
				l0.1-0.1c0,0,0.1-0.1,0.2-0.2c0.3-0.4,0.4-0.4,0-0.9c-0.2-0.4,0.1-1-0.5-1.3c0,0-0.1-0.3,0-0.4c0.2-0.2,0.4-0.4,0.4-0.8
				c0.5-0.2,0-0.5,0.1-0.8c0.3-1,0.4-1.9,0.2-2.6c-0.1-0.2-0.3-0.3,0-0.5c0.2-0.1,0.3-0.2,0.4-0.4c0.1-0.1,0.1-0.4,0.1-0.5
				c-0.4-0.4-0.4-0.7-0.1-1.1h0.1c0.2-0.2,0.1-0.7,0-0.8c-0.2-0.2-0.2-0.5-0.4-0.8c-0.1-0.2-0.1-0.4,0-0.5
				C57,84,57.3,83.5,56.7,82.9z M54,80.2c-0.4,0.3-0.4,0.6-0.4,1c0,1.3,0.1,2.6,0,3.9C53.6,86,54,87,53.2,87.8c0,0.8,0,1.5,0,2.2
				v0.4l0,0c0,0.4,0.1,0.7-0.3,0.9c0,0.3,0.5,0.5,0.3,0.7c-0.7,0.7-0.2,1.5-0.4,2.3c0.9,0.5-0.1,1-0.1,1.5c-0.4,0.4-0.4,0.7,0,1.1
				c0.2,0.1,0.1,0.5,0.3,0.6c0.2,0.2,0,0.3-0.1,0.4c-0.4,0.4,0.1,1.1-0.5,1.3c0.1,0.4,0,0.8-0.4,1.2c-0.1,0.1,0,0.3,0.1,0.3
				c0.2,0.2,0.4,0.5,0.3,0.8c0,0.7,0,1.4,0,2.1c0,0.3-0.1,0.6-0.3,0.8c-0.1,0.1-0.1,0.3-0.1,0.3c0.5,0.5,0.4,1.1,0.4,1.7
				c0,0.3,0.4,0.4,0.4,0.6c0,0.2-0.4,0.3-0.3,0.6c0.1,0.4-0.2,0.9,0.3,1.2c0,0.1-0.1,0.2-0.1,0.2c-0.1,0.2-0.2,0.3-0.2,0.5
				c0,1.3,0,2.6,0,3.9c0,0.3,0.7,0.6,0.1,1c0,0.4,0,0.7,0,1.1v1.3c0,0.4,0,0.8,0,1.1c0,0.2-0.1,0.3-0.2,0.4
				c-0.2,0.2-0.1,0.5-0.1,0.7c0,0.4,0.5,0.7,0.4,1.2c-0.1,0.4,0,0.8,0,1.1c0,0.2,0.2,0.3,0.3,0.5c0,0.1,0,0.2-0.1,0.2
				c-0.3,0.6-0.4,1.1,0.1,1.7c0.2,0.2,0.1,0.5-0.2,0.6c-0.1,0.1-0.2,0.2,0,0.3c0.4,0.3,0.2,0.5,0,0.9c-0.3,0.7-0.2,1.4,0,2.1
				c0.1,0.2,0.2,0.2,0,0.4c-0.1,0.1-0.2,0.3-0.2,0.5c0,0.4-0.1,0.9,0.3,1.2c-0.3,0.3-0.4,0.7-0.3,1.1c0,0.4,0,0.9,0,1.3
				c0,0.2,0.2,0.3,0.2,0.5c0.2,0.3,0.2,0.4,0,0.7c-0.2,0.2-0.4,0.3-0.5,0.5c-0.1,0.1-0.1,0.4,0,0.5c0.5,0.4,0.3,0.9,0.3,1.4
				c0,0.3-0.5,0.5,0,0.8c0.1,0,0,0.4-0.1,0.5c-0.4,0.3-0.3,0.7-0.2,1c0.4,1.2,0.4,1.2,0.1,2.2c-0.1,0.4,0.1,0.8-0.1,1.1
				c-0.7,1-0.2,2.1-0.3,3.2c0,0.1,0.1,0.4,0.2,0.5c0.3,0.3,0.2,0.6-0.1,0.8c-0.5,0.3-0.6,0.8-0.5,1.3c0.1,0.5-0.1,1,0,1.5
				c0.1,0.8-0.2,1.4-0.5,2c-0.1,0.1-0.2,0.3-0.2,0.5c0.2,0.8-0.4,1.2-0.9,1.7c-0.2,0.2-0.6,0.1-0.6-0.1c0.1-0.5-0.4-0.6-0.4-1
				c0-0.3-0.2-0.5-0.4-0.8c-0.1-0.2-0.2-0.4-0.3-0.6c0-0.1,0.4-0.2,0.2-0.4c-0.3-0.3-0.4-0.6-0.1-0.9c0.1,0,0.1-0.1,0.1-0.1v-2.2
				c-0.7-0.6-0.3-1.4-0.4-2.1c0-0.7-0.2-1.5,0.3-2.1c0.2-0.2,0-0.6,0-0.9c0-1.1,0-2.2,0-3.4c0-0.4-0.2-0.9,0.3-1.2
				c0.1-0.1,0.1-0.4,0.1-0.5v-3.5c0-0.2-0.1-0.5-0.2-0.7c-0.3-0.7-0.3-1.1,0-1.9c0.3-0.7,0.3-1.5,0-2.1c-0.2-0.5-0.4-0.8,0-1.3
				c0.1-0.2,0.1-0.5,0.1-0.7c0-3.2,0-6.3,0-9.5c0-0.7-0.2-1.4,0.4-1.9c-0.1-0.4,0.2-0.8-0.2-1.2c-0.1-0.1-0.1-0.2-0.1-0.3
				c0.6-0.5,0.2-1.2,0.3-1.7c0.1-0.4-0.1-0.6-0.4-0.8c0.2-0.2,0.4-0.4,0.4-0.8c0-3,0-6,0-9c0-0.4-0.2-0.5-0.4-0.8
				c0.6-0.5,0.2-1.2,0.4-1.7c0-0.3-0.1-0.6-0.3-0.8c-0.2-0.2-0.1-0.5,0.1-0.6c0.2-0.2,0.1-0.5,0.2-0.7c0.1-0.4-0.7-0.7,0-1v-9.2
				c0-0.4,0-0.9,0-1.3c0-0.6,0.6-0.9,0.4-1.5c-0.1-0.4-0.1-0.7-0.1-1.1v-0.1c0,0,0-0.1,0-0.2v-0.4c0.7-1.1,0.3-2.3,0.4-3.4
				c0-0.4,0-0.8,0.6-0.7c0.1,0,0.2-0.2,0.2-0.3c0-0.5,0-1,0-1.5c0.1-0.4,0.3-0.8,0.5-1.1c0.1-0.1,0.2-0.1,0.4-0.1
				c0.1,0,0.4-0.1,0.5,0.1c0.4,0.4,1,0.7,0.9,1.5c0,0.1,0.1,0.2,0.1,0.3c0.2,0.4,0.2,0.8,0.1,1.1c0,0-0.1,0.1-0.1,0.1
				c0,0.1,0.1,0.2,0.1,0.3c0.4,0.3-0.1,0.9,0.4,1.1c0.1,0.1,0.3,0.2,0.4,0.4C53.9,79.9,54,80.2,54,80.2z"/>
			<path d="M126.9,187.8c-0.4,0.3-0.8,0.3-1.2,0.3c-0.3,0-0.4,0.2-0.6,0.3c-0.3,0.2-0.9-0.1-1.1,0.4c-0.5,0-1,0.1-1.3,0.4
				c-0.5-0.2-0.8,0.3-1.2,0.4c-0.6,0.1-1.2-0.2-1.7,0.4c-0.6,0-1.2,0-1.9,0c-0.3,0-0.5,0.1-0.7,0.3c-0.3,0.3-0.7-0.1-1,0.3
				c-0.3,0.4-0.7,0.1-1,0.2c-0.2,0-0.6-0.1-0.7,0.1c-0.3,0.4-0.7,0.3-1,0.3c-0.4-0.1-0.6,0.4-1,0.4c-0.4,0-0.9,0.1-1.3,0
				c-0.5-0.1-0.9,0.2-1.4,0.4c-0.4,0.1-0.7,0-1.1,0c-0.3,0-0.6,0.1-0.9,0c-0.5-0.1-0.6,0.4-1,0.4c-0.6,0-1.1,0-1.7,0
				c-0.5,0-1,0.1-1.5,0c-0.7-0.2-1,0.4-1.5,0.4c-0.9,0-1.8,0-2.6,0c-0.2,0-0.6-0.1-0.7,0.1c-0.5,0.5-1.1,0.3-1.6,0.3c-1,0-2,0-3,0
				c-0.3,0-0.7-0.2-0.9,0c-0.8,0.6-1.7,0.2-2.5,0.4c-0.1,0-0.2,0-0.2,0c-0.3,0.2-0.5,0.5-0.8,0c0,0-0.1,0-0.2,0
				c-0.3,0.1-0.5,0.4-0.8,0.4c-0.4,0-0.5-0.4-1-0.4c-0.5,0.1-1.1,0-1.7,0c-0.3,0-0.6,0-0.8,0.3c-0.1,0.1-0.4,0.1-0.5,0
				c-0.3-0.4-0.7-0.3-1-0.3c-0.4,0-0.9,0-1.3,0H81c-0.4,0-0.9-0.1-1.3,0c-0.5,0.1-0.9-0.2-1.4-0.4c-0.5-0.1-1,0-1.5,0
				c-0.5,0-1-0.1-1.5,0c-0.6,0.1-0.8-0.4-1.4-0.4c-0.7,0-1.4,0.3-1.9-0.4c-0.5,0-1,0-1.5,0c-0.4-0.6-1-0.3-1.5-0.4
				c-0.4-0.1-0.7,0-1-0.3c-0.2-0.2-0.7,0-1.1-0.1c-0.3-0.1-0.6-0.5-1-0.4c-0.5,0.2-0.8-0.3-1.2-0.4c-0.4-0.1-0.9,0-1.3,0
				c-0.1,0-0.1-0.1-0.1-0.1c-0.3-0.4-0.8-0.1-1-0.3c-0.3-0.3-0.6-0.3-1-0.4c-0.2,0-0.4-0.3-0.6-0.4c-0.3-0.1-0.6,0.1-0.9-0.2
				c-0.2-0.3-0.6-0.2-0.9-0.5c-0.3-0.2-0.8,0-1.1-0.4c-0.2-0.2-0.7,0.1-1-0.3c-0.2-0.2-0.6-0.1-0.8-0.4c-0.2-0.3-0.7,0-1-0.2
				c-0.4-0.3-0.4-0.2-0.8,0.3c-0.1,0.2-0.4,0.3-0.1,0.7c0.3,0.4,0.4,1,1.1,1c0.2,0,0.5,0.4,0.5,0.5c0,0.5,0.3,0.5,0.7,0.7
				c0.4,0.1,0.7,0.6,1.1,0.6c0.4,0,0.6,0.4,0.9,0.5c0.4,0.1,0.8,0.2,1.1,0.5c0.4,0.4,0.9,0,1.2,0.4c0.3,0.4,0.8,0,1,0.3
				c0.3,0.5,0.9,0.1,1.1,0.4c0.4,0.4,0.8,0.2,1.2,0.3c0.5,0.1,0.8,0.5,1.4,0.4c0,0,0.1,0.1,0.1,0.1c0.3,0.5,1-0.1,1.3,0.5
				c0.3,0,0.6,0.1,0.9,0.1c0.2,0,0.6-0.1,0.7,0.1c0.3,0.3,0.7,0.4,1,0.3c0.4-0.1,0.7,0.3,1,0.4c0.4,0.1,0.8,0.1,1.1,0
				c0.5-0.1,0.8,0.3,1.2,0.4c0.6,0.1,1.3-0.2,1.8,0.2c0.5,0.4,1.1,0.2,1.6,0.2c0.6,0.1,1.2,0,1.9,0c0.3,0,0.8-0.2,0.9,0
				c0.7,0.7,1.5,0.3,2.3,0.3c2.6,0,5.1,0,7.7,0c0.6,0,1.2,0.2,1.7-0.4c0.3,0.1,0.6-0.1,0.9,0.2c0.2,0.3,0.7,0.3,0.8,0.2
				c0.6-0.5,1.3-0.4,1.9-0.4c1.4,0,2.7,0,4.1,0c0.5,0,0.9-0.7,1.5-0.4c0,0,0.1-0.1,0.1-0.1c0.3-0.2,0.8-0.3,1.5-0.3
				c0.8,0,1.5,0,2.3,0l0.1,0c0.8,0,1.5,0,2.3,0c0.2,0,0.6,0.1,0.7-0.1c0.4-0.5,0.9-0.3,1.4-0.3c0.5,0,1,0,1.5,0
				c0.7-0.7,1.5-0.4,2.3-0.3c0.5,0,0.7-0.5,1.2-0.4c0.5,0.1,1,0,1.5,0c0.1,0,0.1-0.1,0.1-0.1c0.3-0.4,0.8-0.2,1.2-0.3
				c0.4-0.1,0.7-0.5,1.2-0.4c0.4,0.1,0.9,0.2,1.2-0.3l1.2-0.1c0.3-0.5,0.9-0.1,1.1-0.4c0.3-0.4,0.7-0.3,1-0.3c0.4,0,0.7,0.1,1-0.2
				c0.4-0.4,0.8-0.1,1.2-0.2c0.1,0,0.1-0.1,0.1-0.1c0.2-0.4,0.7-0.2,0.9-0.5c0.2-0.3,0.7,0.1,1-0.3c0.2-0.3,0.7-0.2,0.9-0.5
				c0.1-0.1,0.3-0.1,0.5-0.1c0.3,0,0.5-0.1,0.5-0.4c0-0.6-0.2-1.2,0.4-1.7c0-0.1,0-0.2-0.1-0.4C127.9,187.9,127.2,187.5,126.9,187.8
				z"/>
		</g>
	</g>
</g>
</svg>
