<?xml version="1.0" encoding="utf-8"?>
<!-- Generator: Adobe Illustrator 27.5.0, SVG Export Plug-In . SVG Version: 6.00 Build 0)  -->
<svg version="1.1" id="Calque_1" xmlns="http://www.w3.org/2000/svg" xmlns:xlink="http://www.w3.org/1999/xlink" x="0px" y="0px"
	 viewBox="0 0 108 170" style="enable-background:new 0 0 108 170;" xml:space="preserve">
<style type="text/css">
	.themeColor{fill:var(--voxxrin-event-theme-colors-primary-hex);}
	.st1{fill:#CCCCCC;}
	.st2{fill:#333333;}
</style>
<path class="themeColor" d="M51.4,57c-28,0-50.7,6.1-50.7,13.6c0,7.5,22.7,13.6,50.7,13.6c28,0,50.7-6.1,50.7-13.6
	C102.1,63.1,79.4,57,51.4,57z M51.4,78.5c0,0-21-1.1-34.7-3.7c0,0,28.3-15.6,73.9,0C85,76.8,73.8,78.7,51.4,78.5z"/>
<path class="st1" d="M96.5,70.6c0,0,0,2.1-5.8,4.2c-45.7-15.6-73.9,0-73.9,0c-4.9-0.9-8.9-2.1-10.6-3.4c0,0,2.2-9.3,47.6-10.8
	C53.8,60.6,87.5,60.2,96.5,70.6z"/>
<path class="st2" d="M90.7,74.8c-5.7,2-16.9,4-39.3,3.7c0,0-21-1.1-34.7-3.7C16.8,74.8,45,59.1,90.7,74.8z"/>
<path d="M88,150.1c0,0,0.1,0.1,0.1,0.1c0,0-0.1,0-0.1,0C88,150.2,88,150.2,88,150.1L88,150.1z"/>
<path d="M98.7,90.7c0.9,0.2,1.6,0.8,2.2,1.6c0.2,0.3,0.5,0.6,0.8,0.9c0.6,0.6,1.2,1.3,1.5,2.1c0.1,0.3,0.4,0.6,0.6,0.9
	c0.3,0.4,0.6,0.7,0.6,1.2c0,0.1,0.1,0.3,0.3,0.4c0.2,0.3,0.4,0.5,0.5,0.8c0.5,1.6,1.3,3.1,1.5,4.8c0.2,1.2,0.4,2.4,0.7,3.6
	c0.1,0.6,0.1,1.1,0.2,1.6c0.1,1.1,0,2.3,0.2,3.4c0.2,0.9,0.2,1.9-0.1,2.9c-0.1,0.2-0.1,0.5,0,0.7c0.3,1,0.2,2.1,0,3.1
	c-0.3,1.3-0.4,2.7-0.6,4c-0.1,0.6-0.2,1.2-0.3,1.7c-0.3,1.6-0.6,3.1-0.8,4.7c0,0,0,0.1,0,0.1c-0.6,1.7-0.8,3.5-1.6,5.2
	c-0.8,1.8-1.6,3.6-2.3,5.4c0,0,0,0.1-0.1,0.1c-1.1,1.3-1.7,2.9-2.8,4.2c-0.8,0.9-1.6,2-2.8,2.6c-1,0.5-1.9,1.1-2.9,1.6
	c-0.7,0.4-1.5,0.6-2.4,0.6c-0.4,0-0.7,0-1,0.3c-0.1,0.1-0.4,0.2-0.6,0.2c-0.6,0.1-1.1,0.2-1.5,0.5c-0.1,0.1-0.2,0.3-0.2,0.5
	c0,0.8-0.3,1.5-0.7,2.2c-0.4,0.7-0.7,1.5-1,2.2c-0.3,0.5-0.6,0.9-0.9,1.4c-0.2,0.3-0.4,0.6-0.6,0.9c-1.3,2.3-2.9,4.2-5.3,5.4
	c-0.2,0.1-0.4,0.3-0.7,0.5c-0.1,0.1-0.3,0.3-0.4,0.3c-0.8,0.4-1.6,0.8-2.5,1.1c-1.1,0.4-2.3,0.8-3.5,1.2c-0.8,0.3-1.7,0.4-2.5,0.7
	c-0.8,0.2-1.6,0.3-2.4,0.3c-0.4,0-0.7,0.1-1.1,0.3c-1.1,0.5-2.3,0.6-3.5,0.8c-0.9,0.2-1.8,0.2-2.7,0.4c-0.5,0.1-1,0.2-1.5,0.2
	c-0.1,0-0.3,0-0.4,0c-0.7,0-1.4,0.3-2.2,0.3c-0.7,0-1.4-0.1-2,0.1c-0.3,0.1-0.7-0.2-1.1,0c-0.4-0.2-0.9-0.1-1.3,0
	c-1.1,0.2-2.1,0.1-3.1,0.1c-1.2-0.1-2.3-0.2-3.5-0.4c-0.1,0-0.3,0-0.4,0c-0.9,0.1-1.7-0.2-2.6-0.4c-0.4-0.1-0.8-0.2-1.2-0.2
	c-0.9,0-1.7-0.2-2.6-0.4c-1.2-0.4-2.3-0.8-3.6-0.7c-0.2,0-0.4-0.1-0.5-0.1c-1.2-0.5-2.6-0.7-3.8-1.1c-1.4-0.5-2.7-1-4-1.7
	c-0.5-0.2-1-0.5-1.4-0.9c-0.5-0.4-1.2-0.7-1.7-1.1c-1-0.7-1.8-1.5-2.5-2.5c-0.9-1.2-2.8-4.2-3.3-5.2c-0.4-0.8-0.7-1.6-1.1-2.4
	c-0.1-0.1-0.1-0.3-0.1-0.4c0-1.1-0.5-2-1-3c-0.2-0.5-0.3-0.9-0.4-1.4c-0.1-1-0.2-2.1-0.5-3.1c-0.1-0.3-0.1-0.5-0.1-0.8
	c0-0.2,0-0.5,0-0.7c-0.5-2.5-0.2-4.9-0.3-7.4c0-0.6,0.2-1.2,0.1-1.9c-0.1-0.6,0.1-1.3,0-1.9c-0.1-0.6,0-1.2,0-1.8c0-0.6,0-1.3,0-1.9
	c0-0.6,0-1.3,0-1.9c0-0.3,0.1-0.6,0-0.8c-0.4-1.2-0.2-2.4-0.3-3.5c0-0.6,0.1-1.3-0.2-1.9c-0.1-0.2,0-0.4-0.1-0.5c0-1.3,0-2.6-0.3-4
	c-0.1-0.5,0-1.1,0-1.6c0-1,0-2,0-3c0-0.5-0.1-1-0.2-1.5c-0.1-0.6-0.3-1.1-0.1-1.8c-0.3-1,0-2.1-0.4-3.1c-0.1-0.2-0.1-0.4-0.1-0.7
	c0-1.1,0-2.3-0.4-3.4c-0.1-0.2,0-0.4,0-0.5c-0.1-0.6-0.1-1.2-0.3-1.7c-0.7-2.1-1.3-4.3-1.7-6.5c0-0.2-0.1-0.4-0.2-0.7
	c-0.2-0.8-0.6-1.5-0.8-2.3c-0.1-0.5-0.5-1-0.7-1.5c-0.6-1.6-1.2-3.1-1.9-4.7c-0.4-0.9-0.9-1.8-1.3-2.7c-0.1-0.3-0.3-0.6-0.4-0.9
	C4.3,78,4,77.5,3.5,77c-0.5-0.5-1-1-1.6-1.6c-0.6-0.6-1-1.3-1.4-2c-0.1-0.3-0.3-0.6-0.4-0.9C0.1,72.3,0,72.1,0,71.8c0-0.5,0-1,0-1.5
	c-0.1-1.1,0.3-2,1.3-2.5c0.1-0.1,0.2-0.1,0.3-0.3c0.7-0.8,1.6-1.4,2.5-1.9c0.6-0.3,1.1-0.8,1.6-1.2c1.2-0.9,2.5-1.6,4-2.1
	c0.5-0.2,1-0.4,1.5-0.6c0.6-0.3,1.2-0.6,1.9-0.5c0,0,0.1,0,0.1,0c0.4-0.1,0.9-0.3,1.2-0.6c0.5,0.1,0.9-0.1,1.2-0.5
	c0.1-0.1,0.4-0.2,0.6-0.2c0.5,0,1-0.1,1.4-0.5c0.2-0.2,0.5-0.2,0.7-0.3c1.2-0.4,2.4-0.9,3.6-1.3c0.2-0.1,0.4-0.1,0.5-0.1
	c0.6-0.1,1.3-0.2,1.9-0.4c0.8-0.3,1.6-0.4,2.4-0.4c0.8,0,1.6-0.1,2.4-0.3c0.7-0.2,1.3-0.2,2-0.2c0.9-0.1,1.8-0.2,2.7-0.4
	c0.7-0.1,1.4-0.2,2.2-0.2c1,0,1.9,0,2.9,0c0.5,0,1,0.1,1.5-0.2c0.1-0.1,0.3-0.1,0.4-0.1c0.9,0.3,1.7-0.1,2.6,0c0.8,0.1,1.6,0,2.5,0
	c0.2,0,0.5,0,0.7,0c1.2-0.3,2.4-0.2,3.5-0.2c0.6,0,1.3,0.1,1.9-0.2c0.1-0.1,0.3-0.1,0.4,0c1.4,0.3,2.8,0.2,4.2,0.2
	c0.7,0,1.4-0.1,2,0.2c0.3,0.1,0.6,0.1,1,0.1c1-0.1,2,0,3,0c1,0,1.9,0,2.9,0c0.3,0,0.7,0,1,0.1c0.6,0.2,1.3,0.2,1.9,0.2
	c1.3-0.1,2.5,0.2,3.8,0.4c0.3,0.1,0.6,0.1,0.9,0.1c0.6,0,1.2,0,1.8,0.2c0.2,0.1,0.4,0,0.5,0.1c2.3,0.1,4.4,0.6,6.5,1.3
	c1.2,0.4,2.4,0.9,3.6,1.2c0.2,0,0.4,0.1,0.5,0.3c0.4,0.3,0.7,0.6,1.2,0.4c0.1,0,0.3,0,0.4,0.1c0.4,0.4,0.8,0.7,1.3,0.6
	c0.6,0.5,1.3,0.5,2.1,0.5c0.2,0,0.4,0.1,0.6,0.2c1.1,0.5,2.2,0.9,3.3,1.3c1,0.4,1.9,0.9,2.7,1.5c0.8,0.6,1.7,1.3,2.6,1.8
	c0.9,0.5,1.4,1.3,2.2,1.8c0.4,0.3,0.6,0.6,0.8,0.9c0.1,0.2,0.2,0.4,0.3,0.6c0.1,0.4,0.2,0.9,0.2,1.3c0,0.5,0,1.1-0.2,1.6
	c-0.5,1.3-1.1,2.6-2.2,3.5c-1.3,1.2-2.3,2.6-3,4.2c-0.8,1.7-1.6,3.5-2.3,5.3c-0.3,0.9-0.7,1.7-1.1,2.5c-0.4,0.9-0.4,0.9,0.6,1.2
	c0.7,0.3,1.4,0.6,2.1,0.9c0.4,0.2,0.7,0.4,0.9,0.9C98.8,90.7,98.8,90.7,98.7,90.7c0,0.1,0,0.1,0,0.1c0,0,0.1-0.1,0.1-0.1L98.7,90.7z
	 M17,135.8c0.1,1.3-0.1,2.8,0,4.3c0.1,1.5,0.1,2.9,0.2,4.4c0.2,1.8,0.6,3.6,1.2,5.3c0.4,1.2,0.8,2.3,1.4,3.4
	c0.3,0.6,0.5,1.3,0.9,1.8c0.6,0.8,1.1,1.5,1.7,2.3c0.7,1.1,1.7,1.9,2.8,2.6c0.7,0.4,1.4,0.9,2.1,1.3c1.1,0.8,2.4,1.3,3.7,1.7
	c0.8,0.3,1.7,0.5,2.5,0.7c0.2,0.1,0.4,0.1,0.7,0.2c1,0.2,2.1,0.4,3,0.7c1.3,0.4,2.6,0.7,4,0.7c0.4,0,0.8,0.1,1.2,0.1
	c0.9,0.1,1.7,0.3,2.6,0.4c1.4,0.1,2.8,0.4,4.2,0.3c0.2,0,0.4,0.1,0.5,0.1c0.7,0.2,1.4,0.2,2.2,0c0.4-0.1,0.7-0.1,1.1-0.1
	c0.8,0,1.6,0,2.5,0c0.4,0,0.7-0.1,1.1-0.1c0.4-0.1,0.8-0.1,1.2-0.2c0.4-0.1,0.8-0.1,1.2-0.2c1.1-0.1,2.2-0.4,3.4-0.4
	c1,0,2-0.2,3-0.4c2.4-0.6,4.8-1.1,7.2-1.8c1.5-0.4,3-1,4.3-2c0.6-0.4,1.1-0.8,1.7-1.1c1-0.5,1.8-1.2,2.4-2c0.9-1.1,1.6-2.3,2.4-3.5
	c0.6-0.9,1-1.9,1.4-2.8c0.1-0.2,0.1-0.4,0.1-0.7c0-0.1-0.1-0.2-0.2-0.2c-0.3,0-0.6,0.1-0.9,0c-0.3-0.1-0.6-0.1-0.9,0
	c-0.3,0.1-0.5,0.1-0.8,0.1c-0.8,0.1-1.6-0.2-2.4-0.2c-0.6-0.1-1.3-0.2-1.9-0.4c-1.4-0.4-2.6-1.3-3.9-2c-0.2-0.1-0.4-0.3-0.6-0.6
	c-0.4-0.5-0.8-1-1.1-1.5c-0.3-0.5-0.7-1-0.8-1.6c-0.5-1.4-0.9-2.9-0.8-4.4c0-0.7,0-1.4,0-2.1c0-0.7,0.1-1.4,0.4-2
	c0.4-1,0.9-2,1.6-2.9c0.3-0.4,0.7-0.9,1.1-1.2c0.9-0.7,1.9-1.4,2.9-2c0.1-0.1,0.3-0.2,0.5-0.2c0.7-0.2,1.5-0.5,2.2-0.6
	c0.9-0.1,1.7-0.1,2.6,0.3c0.9,0.4,1.7,0.9,2.4,1.5c0.7,0.6,1.1,1.3,1.6,2c0.5,0.7,0.9,1.4,0.7,2.3c0,0.2,0,0.4,0,0.6
	c0,0.2,0.1,0.4,0.2,0.5c0.1,0.1,0.2,0.2,0.3,0.3c0-0.1,0.1-0.2,0.1-0.3c0-2,0-3.9,0-5.9c0-0.9-0.1-1.8,0.2-2.7
	c0.1-0.2,0.1-0.4,0-0.6c-0.1-1.1,0.1-2.2,0-3.3c0-0.2,0-0.5,0-0.7c0.3-1,0.2-2.1,0.2-3.1c0-0.5-0.1-0.9,0.1-1.4
	c0.2-0.8,0.2-1.5,0.2-2.3c0-0.7-0.1-1.4,0.1-2.1c0.2-0.7,0.2-1.4,0.2-2.2c0-0.3,0-0.7,0.1-1c0.2-0.6,0.2-1.2,0.2-1.8
	c0-0.5,0-1,0.1-1.5c0.2-0.6,0.2-1.2,0.2-1.8c0-0.3,0.1-0.6,0.1-0.9c0.1-0.4,0.1-0.7,0.1-1.1c0-0.5,0-0.9,0.2-1.4
	c0.1-0.2,0-0.4,0-0.7c0,0-0.1-0.1-0.1-0.1c-0.1,0-0.2,0-0.2,0.1c-0.1,0.2-0.2,0.4-0.3,0.6c-0.5,1.2-1,2.4-1.9,3.5
	c-0.6,0.6-1.3,1.1-2.1,1.5c-0.7,0.3-1.5,0.3-2.3,0.3c-2.3,0.1-4.2-1-5.5-2.8c-1.1-1.5-1.7-3.3-1.6-5.3c0.1-0.8,0.2-1.5,0.3-2.3
	c0-0.2,0.1-0.5,0.3-0.6c0.8-1,1.1-2.3,1.6-3.5c0.1-0.2,0.2-0.4,0.4-0.6c1.2-1.3,2.7-2.4,4.3-3c1.5-0.5,3-0.9,4.7-0.9
	c0.2,0,0.5,0,0.7,0c1-0.3,2-0.2,3-0.2c0.5,0,0.9,0,1.4,0c0.4,0,0.6-0.1,0.7-0.5c0.1-0.5,0.3-0.9,0.5-1.4c0.6-1.5,1.2-3,1.8-4.5
	c0.4-1.1,0.7-2.3,1.5-3.2c0.1-0.2,0.2-0.4,0.3-0.6c0-0.1,0-0.2,0-0.3c0-0.1-0.2-0.1-0.2-0.1c-0.8,0.3-1.6,0.7-2.4,1
	c-1,0.4-1.9,0.9-3,1c-0.2,0-0.4,0.1-0.6,0.2c-0.9,0.4-1.7,0.7-2.5,1.1c-0.3,0.1-0.6,0.3-0.9,0.3c-0.9,0-1.8,0.4-2.7,0.4
	c-0.4,0-0.7-0.1-1.1,0c-0.4,0.1-0.6,0.5-1.1,0.6c-0.3,0.1-0.5,0.1-0.8,0.2c-0.5,0-1,0.1-1.5,0.2c-1.5,0.2-2.9,0.7-4.5,0.6
	c-0.2,0-0.4,0-0.6,0.1c-0.9,0.1-1.8,0.4-2.7,0.4c-1.2,0.1-2.4,0.3-3.7,0.4c-1,0.1-2.1,0.2-3.1,0.2c-0.1,0-0.3,0-0.4,0.1
	c-0.6,0.3-1.2,0.2-1.8,0.2c-1.5,0-3,0-4.5,0.1c-0.9,0.1-1.9,0.2-2.8,0.2c-0.7,0-1.4-0.3-2,0.2c0,0-0.1,0-0.1,0
	c-0.6-0.2-1.2,0.1-1.8,0.1c-0.6-0.1-1.3,0-1.9,0.1c-0.6,0.1-1.2,0.1-1.8,0.1c-2.4,0-4.9,0-7.3,0c-0.2,0-0.5,0-0.7,0
	c-0.8-0.3-1.5-0.2-2.3-0.2c-1.6-0.1-3.1-0.2-4.6-0.3c-0.1,0-0.3,0-0.4-0.1c-0.5-0.3-1-0.4-1.6-0.2c-0.3,0.1-0.6,0.1-0.8,0
	c-0.5-0.2-1.1-0.2-1.6-0.2c-1.1,0-2.1-0.2-3.1-0.5c-1.6-0.4-3.2-0.8-4.8-1.2c-2.4-0.5-4.8-1.1-7.1-2.1c-1-0.4-2.1-0.7-2.8-1.7
	c0-0.1-0.2-0.1-0.2-0.1c-0.6,0.2-1-0.1-1.5-0.3c-0.6-0.3-1.2-0.5-1.8-0.8c0,0-0.1,0-0.1,0c0,0-0.1,0.1-0.1,0.1
	c0.1,0.3,0.2,0.5,0.3,0.8c0.5,1.2,1.1,2.3,1.6,3.5c0.4,1.2,1,2.4,1.4,3.5c0.5,1.3,1,2.6,1.4,4c0.5,1.7,1,3.5,1.4,5.3
	c0.2,1.1,0.6,2.1,0.7,3.2c0,0.6,0.2,1.3,0.3,1.9c0.2,1.1,0.5,2.2,0.5,3.4c0,0.2,0.1,0.4,0.1,0.5c0.1,1.1,0.4,2.3,0.4,3.4
	c0.1,1.3,0.4,2.6,0.3,4c0,0.1,0.1,0.3,0.1,0.4c0.1,0.4,0.1,0.8,0.1,1.2c0.1,2.3,0.2,4.6,0.3,7c0,0.1,0,0.2,0,0.3
	c0.3,0.9,0.2,1.8,0.2,2.7c0,0.2,0,0.5,0.1,0.7c0.3,0.9,0.2,1.8,0.2,2.7c0,0.6-0.1,1.3,0.1,1.9c0.1,0.6,0.2,1.2,0.1,1.7
	c-0.1,0.7-0.2,1.4,0.1,2.1c0.1,0.2,0,0.5,0,0.7C16.9,134,16.9,134.8,17,135.8L17,135.8z M97.9,117.3c0,1.4,0.2,2.8-0.3,4.2
	c0,0.1,0,0.3,0,0.4c0.1,0.8-0.1,1.6-0.3,2.3c-0.3,1.4-0.6,2.8-1.1,4.2c-0.6,1.9-1.1,3.9-2.3,5.5c-1.1,1.5-2.2,3-4,3.9
	c-0.2,0.1-0.3,0.2-0.4,0.4c-0.7,0.5-1.4,0.9-2.2,1.1c-1.1,0.2-2.2,0.4-3.3,0.4c-0.5,0-1.1-0.1-1.6-0.3c-1.3-0.4-2.3-1.3-3.2-2.3
	c-0.5-0.6-1-1.4-1.1-2.2c-0.1-0.5,0.1-1,0.5-1.3c0.2-0.1,0.5-0.1,0.6,0c0.3,0.3,0.6,0.6,0.8,0.9c0.5,0.9,1.3,1.3,2.1,1.6
	c0.4,0.2,0.8,0.2,1.2,0.4c0.3,0.1,0.6,0.1,0.9,0.2c0.1-0.4-0.3-0.5-0.5-0.7c-0.2-0.5-0.6-0.9-0.8-1.4c-0.2-0.6-0.5-1.3-1.1-1.7
	c-1.3-0.9-2.7-1.1-4.2-0.9c-0.1,0-0.3,0.1-0.4,0.1c-0.4,0.2-0.9,0.5-1.3,0.8c-0.7,0.5-1.5,0.9-1.9,1.7c-0.7,1.2-1.2,2.5-1.2,4
	c0,1.3,0,2.7,0.5,3.9c0,0.1,0,0.2,0,0.3c0.7,1.9,1.7,3.4,3.8,4c0.9,0.3,1.8,0.6,2.8,0.8c0.3,0.1,0.7,0,1.1-0.1
	c0.6-0.2,1.3-0.2,1.9,0c0.4,0.1,0.7,0.1,1.1,0.2c0.3,0,0.7-0.1,0.9,0.1c0.5,0.2,0.6-0.3,1-0.3c1.7-0.3,3.3-0.7,4.9-1.4
	c0.3-0.1,0.6-0.2,0.9-0.3c1.3-0.2,2.3-1.1,3.5-1.6c0.8-0.9,1.8-1.5,2.4-2.6c0.7-1.3,1.5-2.6,2.2-3.9c0.4-0.8,0.8-1.6,1.1-2.5
	c0.6-1.6,1.4-3.3,1.6-5.1c0.1-0.7,0.3-1.3,0.4-2c0.2-1.1,0.4-2.1,0.6-3.2c0.3-1.4,0.5-2.9,0.8-4.3c0.1-0.9,0.4-1.8,0.4-2.7
	c0-0.8,0-1.6,0-2.5c0-0.9,0-1.7,0-2.6c0-0.8,0-1.6,0-2.4c-0.1-1.3,0.1-2.7-0.3-4c-0.1-0.2,0-0.5,0-0.7c0-0.2,0-0.5-0.1-0.7
	c-0.4-1.7-0.8-3.5-1.5-5.1c-0.6-1.3-1-2.7-2.2-3.7c-0.2-0.1-0.3-0.4-0.4-0.6c-0.6-0.7-1-1.4-1.7-2c-1.1-0.9-2-1.9-3.4-2.2
	c-0.8-0.6-1.8-0.7-2.7-0.7c-0.5,0-1,0.1-1.5,0c-0.9-0.2-1.7,0-2.6,0.1c-0.8,0.1-1.6,0.2-2.4,0.2c-1.8-0.1-3.4,0.4-5,1.3
	c-1.4,0.9-2.4,2-2.6,3.8c-0.1,1.3-0.4,2.5-0.5,3.8c-0.1,0.4-0.2,0.8-0.5,1.1c-0.1,0.1-0.2,0.3-0.2,0.5c0.4,1.7,1.5,2.9,3.1,3.6
	c1.5,0.6,2.9,0.3,4-0.8c0.2-0.2,0.3-0.4,0.5-0.5c0.4-0.3,0.3-0.6,0.2-1c-0.1-0.2-0.1-0.3-0.4-0.3c-0.7,0.2-1.4,0.5-2.1,0.6
	c-0.3,0.1-0.5,0.2-0.6,0.5c-0.2,0.4-0.6,0.6-1,0.8c-0.1,0.1-0.4,0-0.5-0.1c-0.1-0.1-0.2-0.3-0.2-0.5c0.3-0.9,0.6-1.8,1.7-2.2
	c0.2-0.1,0.3-0.2,0.4-0.3c0.5-0.3,1.1-0.7,1.6-1c0.5-0.2,1-0.5,1.5-0.6c0.5-0.1,1-0.4,1.6-0.2c0.6,0.2,1-0.4,1.6-0.3
	c0.2,0,0.4,0,0.6,0c0.8,0.2,1.7,0.4,2.4,0.9c0.6,0.4,1,0.8,1.3,1.4c0.1,0.3,0.4,0.5,0.5,0.8c1.1,1.5,2.1,3.1,2.6,4.9
	c0.1,0.4,0.3,0.8,0.4,1.3c0.3,0.9,0.6,1.8,0.6,2.8c0.1,0.8,0.2,1.6,0.4,2.4c0.1,0.4,0.1,0.8,0.1,1.2
	C97.9,115.7,97.9,116.5,97.9,117.3L97.9,117.3z M76.9,81.2c0.5,0,1.1-0.1,1.7-0.2c1-0.2,1.9-0.4,3-0.4c0.7,0,1.5-0.1,2.1-0.4
	c0.8-0.4,1.6-0.5,2.4-0.5c0.7,0,1.3-0.2,1.9-0.6c0.4-0.3,0.8-0.4,1.3-0.5c0.6-0.1,1.2,0,1.6-0.6c0.1-0.1,0.2-0.1,0.4-0.1
	c0.4-0.1,0.8-0.2,1.1-0.4c1.1-0.6,2.4-0.9,3.5-1.6c0.2-0.1,0.5-0.1,0.8-0.2c0.2-0.1,0.4-0.1,0.5-0.2c0.4-0.6,1.2-0.6,1.7-1.1
	c1.2-0.4,1.8-1.3,2.4-2.3c0.4-0.8,0.3-1.5-0.3-2.2c-0.4-0.4-0.8-0.8-1.2-1.1c-0.8-0.6-1.6-1.1-2.3-1.7c-0.8-0.7-1.8-1.1-2.6-1.8
	c-0.1-0.1-0.3-0.2-0.5-0.2c-0.7-0.3-1.5-0.6-2.2-1c-1-0.6-2-0.8-3.1-1.2c-1.5-0.5-3-0.8-4.5-1.2c-1.1-0.3-2.2-0.5-3.3-0.9
	c-1.5-0.5-3.1-0.9-4.7-1c-0.6-0.3-1.1-0.1-1.7-0.2c-1.2-0.2-2.4-0.3-3.7-0.4c-0.2,0-0.5,0-0.7,0c-0.9-0.3-1.9-0.2-2.9-0.3
	c-0.2,0-0.5,0-0.7-0.1c-0.7-0.3-1.3-0.2-2-0.2c-0.6,0-1.2,0.1-1.8,0c-1.2-0.3-2.4-0.2-3.5-0.2c-0.4,0-0.8,0.1-1.1-0.1
	C57.9,58,57.3,58,56.6,58c-1.1-0.1-2.2,0.1-3.3-0.2c-0.3-0.1-0.7-0.1-1,0c-1.3,0.4-2.6,0.2-4,0.3c-0.3,0-0.6,0-0.8,0.1
	c-0.5,0.2-1,0.1-1.5,0.2c-0.3,0-0.7,0-0.9,0.1c-0.8,0.3-1.6,0.2-2.5,0.1c-0.4,0-0.8-0.1-1.2,0c-0.7,0.1-1.5-0.1-2.2,0.2
	c-0.7-0.1-1.4,0-2.1,0.1c-1.1,0.1-2.2,0.1-3.3,0.2c-1.2,0.2-2.4,0.4-3.7,0.4c-0.2,0-0.4,0-0.5,0.1c-0.4,0.1-0.9,0.2-1.3,0.2
	c-1.1,0-2.1,0.3-3.1,0.4c-0.5,0.1-1.1,0.2-1.6,0.4c-2.4,0.8-4.8,1.3-7.3,2c-1.7,0.4-3.4,0.9-4.9,1.8c-0.2,0.1-0.4,0.2-0.6,0.3
	c-1.1,0.4-2.2,0.9-3.1,1.7c-0.2,0.1-0.4,0.2-0.6,0.3c-0.2,0.1-0.5,0.3-0.7,0.5c-0.8,0.7-1.6,1.3-2.5,1.8c-0.6,0.4-1.1,0.9-1.5,1.4
	c-0.4,0.5-0.5,1.1-0.1,1.8c0.3,0.5,0.6,1,1,1.5c0.3,0.3,0.7,0.6,1,1c0.4,0.4,0.9,0.7,1.5,0.9c0.9,0.4,1.9,0.6,2.8,1.1
	c0.5,0.3,1.1,0.7,1.7,0.8c0.2,0,0.3,0.2,0.5,0.3c0.2,0.1,0.4,0.2,0.6,0.2c0.9,0.1,1.6,0.4,2.3,0.8c1.1,0.6,2.3,1.1,3.5,1.4
	c1.2,0.3,2.4,0.6,3.6,0.9c1.1,0.3,2.1,0.5,3.2,0.8c1.1,0.3,2.3,0.6,3.5,0.6c0.2,0,0.4,0,0.5,0.1c0.5,0.2,1.1,0.2,1.6,0.2
	c0.3,0,0.6,0,0.8,0.1c0.5,0.2,1.1,0.2,1.6,0.2c0.3,0,0.6,0,0.8,0.1c0.7,0.3,1.3,0.2,2,0.2c0.5,0,0.9,0,1.4,0.1
	c0.6,0.1,1.2,0.2,1.9,0.3c1.4,0.2,2.7,0.1,4.1,0.1c0.9,0,1.7,0,2.6,0c1.9,0.1,3.8,0,5.6,0c0.4,0,0.7-0.1,1.1-0.1
	c1.1,0,2.2,0.1,3.3,0.1c0.3,0,0.6,0.1,0.8-0.1c0.6-0.3,1.3-0.2,1.9-0.3c0.5-0.1,1,0,1.4-0.3c0.2-0.1,0.4-0.1,0.6,0
	c0.6,0.2,1.2,0.1,1.8,0c0.4-0.1,0.9-0.1,1.3-0.2c0.4,0,0.8,0.1,1.1,0c0.9-0.3,1.9-0.2,2.9-0.2c0.6,0,1.1,0,1.6-0.2
	c0.3-0.1,0.6-0.1,1-0.1c0.5,0,1-0.1,1.5-0.2c0.9-0.2,1.9-0.3,2.8-0.4c0.7,0,1.4-0.1,2-0.4c0.4-0.1,0.7-0.3,1.2-0.1L76.9,81.2z
	 M95.4,117.8c-0.1-1.2,0.1-2.4-0.2-3.6c-0.1-0.3,0-0.6,0-0.8c0-0.3,0-0.6,0-0.8c-0.4-1.6-0.6-3.3-1.2-4.9c-0.5-1.4-1.3-2.5-2.1-3.6
	c0-0.1-0.2-0.1-0.2-0.1c-0.1,0-0.1,0.1-0.1,0.2c-0.2,1-0.4,2.1-0.3,3.1c0,0.2,0,0.5-0.1,0.7c-0.3,1-0.2,2-0.2,3c0,0.4,0.1,0.8,0,1.2
	c-0.3,0.9-0.2,1.8-0.2,2.7c0,0.8,0.1,1.7-0.1,2.5c-0.2,0.9-0.2,1.7-0.2,2.6c-0.1,1.2,0.1,2.4-0.3,3.5c0,0.1,0,0.3,0,0.4
	c0,0.8-0.3,1.7,0,2.6c0.1,0.2,0,0.4-0.1,0.5c-0.1,0.4-0.2,0.8-0.2,1.2c0,1-0.2,1.9,0.1,2.9c-0.2,1-0.2,2-0.1,3
	c0,0.1,0.1,0.3,0.1,0.4c0,0.2,0.3,0.3,0.4,0.2c0.1-0.1,0.2-0.2,0.3-0.3c1-1,1.6-2.2,2.3-3.4c0.1-0.1,0.1-0.3,0.1-0.4
	c0.6-2,1.2-4,1.7-6c0.2-0.8,0.5-1.7,0.5-2.6c0-0.3,0.1-0.5,0.1-0.8c0.1-0.5,0.1-1,0.2-1.5C95.5,119,95.4,118.4,95.4,117.8
	L95.4,117.8z"/>
<path d="M60.5,16.7c-0.1,1.1,0.1,1.9-0.2,2.6c-0.1,0.1-0.1,0.3,0,0.4c0.1,1.4-0.2,2.7-0.3,4.1c0,0.5-0.2,1-0.3,1.5
	c-0.4,1.8-0.7,3.7-1.4,5.4c-0.1,0.1-0.1,0.3-0.1,0.4c-0.6,0.9-0.8,2.1-1.2,3c-0.6,1.4-1.1,2.9-1.6,4.4c-0.3,0.9-0.6,1.8-0.8,2.8
	c-0.1,0.2-0.1,0.4-0.1,0.5c0,1.4,0,2.8,0.1,4.1c0,0.4-0.1,0.8-0.3,1.2c-0.1,0.1-0.2,0.2-0.3,0.2c-0.2,0-0.3-0.1-0.5-0.2
	c-0.1-0.1-0.1-0.2-0.2-0.4c-0.3-1.1-0.6-2.1-0.6-3.2c0-0.5-0.1-0.9-0.1-1.4c0-0.7,0.2-1.4,0.4-2.1c0.5-2.1,1.4-4.2,2.1-6.2
	c0.3-0.8,0.6-1.6,0.9-2.4c0.4-1.2,0.9-2.4,1.1-3.7c0.2-1.3,0.6-2.7,0.7-4c0.1-1,0.4-2.1,0.4-3.1c0.1-1.3,0-2.7,0-4
	c-0.3-0.7-0.2-1.4-0.2-2.2c0-0.8-0.1-1.5-0.3-2.3c-0.3-1.3-0.6-2.6-0.8-4c-0.2-1.7-0.7-3.4-1.4-5c-0.3-0.5-0.5-1.1-0.6-1.7
	c-0.1-0.3-0.1-0.5-0.1-0.8c0-0.2,0.1-0.4,0.4-0.5C55.4,0.1,55.7,0,56,0c0.3,0,0.5,0,0.6,0.3c0.5,0.9,1,1.8,1.3,2.9
	c0,0.1,0.1,0.3,0.1,0.4c0.6,1.7,1.1,3.5,1.3,5.3c0.1,0.9,0.4,1.7,0.5,2.5c0.2,0.9,0.4,1.9,0.4,2.8C60.4,15.1,60.6,16.1,60.5,16.7
	L60.5,16.7z"/>
<path d="M32.4,20.3c0,1,0.1,2.1-0.3,3.1c-0.1,0.2,0,0.4,0,0.6c0,1.7-0.4,3.3-0.9,5c-0.4,1.4-0.9,2.8-1.3,4.2
	c-0.4,1.3-0.9,2.7-1.6,3.9c-0.1,0.2-0.2,0.4-0.3,0.6c-0.3,1.2-1,2.1-1.6,3.2c-0.6,1.3-1.2,2.6-1.5,4c-0.1,0.6-0.1,1.2-0.1,1.8
	c0,0.9,0,1.8-0.3,2.7c0,0.1-0.1,0.2-0.1,0.2c-0.1-0.1-0.1-0.2-0.2-0.3c-0.1-0.3-0.2-0.5-0.6-0.5c-0.3,0-0.5-0.2-0.4-0.4
	c0.1-1-0.2-2,0-3c0.3-1.4,0.4-2.8,1-4.1c0.8-1.6,1.6-3.3,2.3-5c0.5-1.3,1.1-2.7,1.4-4.1c0.1-0.6,0.4-1.2,0.6-1.8
	c0.4-1.4,0.7-2.8,1.1-4.2c0.1-0.2,0.1-0.4,0.1-0.5c-0.1-1,0.3-2,0.3-3c0-0.2,0-0.4,0-0.6c0.4-0.9,0.1-1.9,0.1-2.8
	c0-1.3-0.5-2.4-0.7-3.6c-0.2-1-0.2-2.1-0.5-3.1c-0.1-0.2,0-0.5-0.1-0.7c-0.5-1.1-0.5-2.4-0.9-3.6C28,7.8,28,7.4,28,7
	c0-0.6,0.3-0.8,0.9-0.9c0.4,0,0.7,0,0.9,0.5c0.2,0.6,0.6,1,0.6,1.7c0,0.4,0.2,0.7,0.3,1.1c0.5,1.5,0.9,3,1,4.5c0.1,1,0.3,2,0.5,3
	C32.5,18,32.4,19.1,32.4,20.3L32.4,20.3z"/>
<path d="M83.6,19c-0.1,0.9,0.1,1.9-0.2,3c-0.1,0.1,0,0.3,0,0.4c0,1-0.1,1.9-0.5,2.8c-0.4,1.1-0.6,2.4-0.9,3.6
	c-0.1,0.2-0.1,0.4-0.2,0.7c-0.9,2.7-1.8,5.5-2.9,8.1c-0.2,0.6-0.6,1.1-0.8,1.7c-0.7,1.8-1.2,3.7-1.1,5.6c0.1,1,0.2,1.9,0.5,2.8
	c0.2,0.8,0.4,1.6,0.6,2.4c0,0.2,0.1,0.4,0,0.5C78,50.8,77.9,51,77.7,51c-0.1,0-0.3-0.1-0.5-0.1c-0.1,0-0.1-0.1-0.2-0.2
	c-0.7-1.3-1.3-2.5-1.5-3.9c-0.2-1.3-0.3-2.6-0.2-4c0-0.4,0.1-0.7,0.2-1.1c0.4-1.8,1-3.6,1.7-5.4c0.5-1.3,1-2.6,1.5-3.8
	c0.9-2.6,1.8-5.1,2.3-7.7c0.2-1.1,0.5-2.1,0.5-3.2c0-0.2,0-0.4,0-0.6c0.5-1.7,0.2-3.3-0.2-5c-0.1-0.2-0.1-0.4-0.1-0.7
	c0-1.1-0.3-2.1-0.4-3.1c-0.1-0.9-0.3-1.7-0.4-2.6C80.2,9,80.2,8.4,80,7.7c-0.1-0.5-0.1-1.1,0.4-1.5c0.4-0.4,0.9-0.3,1.2,0.1
	c0.2,0.4,0.4,0.9,0.6,1.4c0.3,1.2,0.5,2.5,0.7,3.8c0.2,1.6,0.3,3.2,0.7,4.7c0.1,0.3,0.1,0.6,0.1,0.9C83.6,17.7,83.6,18.3,83.6,19
	L83.6,19z"/>
<path d="M59.4,79.4c-0.2,0-0.5,0.1-0.7,0c-1.3-0.4-2.7-0.2-4.1-0.2c-0.4,0-0.7,0.2-1.1,0.2c-1-0.2-2.1,0.3-3.1-0.2
	c-0.6,0-1.3,0-1.9,0c-0.8,0-1.6,0-2.5,0c-0.3,0-0.6,0.1-0.8,0c-0.9-0.3-1.8-0.2-2.7-0.2c-0.8,0-1.6,0.1-2.4-0.2
	c-0.3-0.1-0.6,0-1-0.1c-0.6,0-1.1,0.1-1.6-0.2c-0.1,0-0.2-0.1-0.3,0c-1.1,0.1-2.3-0.3-3.4-0.3c-0.4,0-0.9-0.2-1.3-0.2
	c-1.3-0.2-2.5-0.3-3.8-0.5c-0.9-0.1-1.7-0.2-2.6-0.3c-0.9-0.1-1.7-0.3-2.6-0.4c-0.9-0.1-1.7-0.3-2.6-0.4c-1.9-0.3-3.8-0.5-5.7-0.8
	c-2.5-0.5-5-1-7.4-1.9c-0.8-0.3-1.4-0.7-2-1.2c-0.3-0.2-0.4-0.5-0.4-0.8c0-0.3,0-0.6,0-1c0-0.2,0.1-0.4,0.3-0.3
	c0.5,0.1,0.8-0.2,0.9-0.6c0.1-0.6,0.5-0.9,1-1.1c0.4-0.2,0.9-0.4,1.2-0.9c0.1-0.1,0.2-0.2,0.3-0.2c0.9-0.2,1.5-0.9,2.2-1.3
	c0.3-0.1,0.6-0.4,1-0.5c0.5-0.2,0.9-0.4,1.3-0.7c0.3-0.3,0.6-0.3,1-0.4c0.6-0.1,1.3,0.1,1.8-0.3c0.8-0.5,1.7-0.8,2.7-0.9
	c1-0.2,2.1-0.4,3.1-0.6c0.1,0,0.3,0,0.4,0c0.8,0,1.6-0.2,2.4-0.3c0.8-0.1,1.6-0.4,2.4-0.5c1-0.1,2-0.4,3-0.4c0.5,0,1,0,1.5-0.2
	c0.2-0.1,0.4-0.1,0.5-0.1c1,0,2-0.3,3-0.5c0.9-0.1,1.7-0.2,2.6-0.4c1.3-0.3,2.6-0.1,3.8-0.3c1.3-0.2,2.6-0.2,4-0.2
	c0.6,0,1.2-0.2,1.8-0.2c0.7-0.1,1.4,0,2.1,0c0.7,0,1.5,0.1,2.2-0.2c0.1-0.1,0.4,0,0.5,0c1,0.1,2,0.2,3,0.2c2.4,0,4.9,0,7.3,0
	c0.4,0,0.9,0,1.3,0.1c0.4,0.1,0.9-0.3,1.3,0.1c0.9,0.1,1.9,0.2,2.8,0.3c0.4,0.1,0.8,0.2,1.2,0.2c1.8,0.3,3.6,0.6,5.4,0.9
	c0.2,0,0.4,0.1,0.6,0.2c0.6,0.2,1.2,0.3,1.9,0.4c0.7,0,1.4,0.2,2.1,0.4c0.6,0.2,1.1,0.4,1.7,0.4c0.4,0,0.9,0.1,1.3,0.2
	c1.1,0.2,2.3,0.4,3.3,1c1,0.2,1.9,0.6,2.8,1c1.6,0.7,3.3,1.2,4.6,2.3c0.4,0.3,0.9,0.6,1.4,0.8c1.1,0.4,1.9,1.1,2.8,1.7
	c0.6,0.4,0.8,1.3,0.5,2c-0.1,0.3-0.4,0.6-0.6,0.9c-0.8,0.9-1.7,1.6-2.9,2.1c-0.6,0.2-1.2,0.4-1.7,0.8c0,0-0.1,0.1-0.1,0.1
	C91,76,89.5,76.8,87.8,77c-1,0.1-2,0.4-2.9,0.6c-0.4,0.1-0.7,0.1-1.1,0.1c-0.7,0.1-1.4,0-2,0.2c-0.3,0.1-0.6,0-1,0.1
	c-0.4,0.1-0.9,0.1-1.3,0.2c-0.3,0-0.6,0.1-1,0.1c-0.8,0-1.6,0-2.3,0c-0.4,0-0.9,0.1-1.3,0.1c-0.3,0-0.5,0.1-0.8,0.1
	c-0.7,0-1.4,0.1-2.2,0.2c-0.7,0.1-1.4,0.1-2.1,0.1c-0.8,0-1.6-0.1-2.3,0.2c-0.3,0.1-0.6,0-1,0c-1.3,0-2.6,0-3.8,0
	c-0.9,0-1.8-0.1-2.7,0.2c-0.2,0.1-0.5,0-0.7,0L59.4,79.4z M95.8,71c0,0-0.1-0.2-0.2-0.2c-0.3-0.2-0.6-0.3-0.8-0.5
	c-1.2-0.7-2.6-1.1-3.6-2c-0.1-0.1-0.2-0.1-0.2-0.1c-2.3-1-4.7-1.9-7.2-2.8c-0.7-0.2-1.4-0.5-2.1-0.6c-1.3-0.1-2.5-0.4-3.8-0.8
	c-0.2,0-0.4-0.1-0.5-0.1c-0.8,0.1-1.5-0.2-2.3-0.4c-0.3-0.1-0.5-0.2-0.8-0.2c-0.6,0-1.2-0.2-1.8-0.3c-0.4-0.1-0.7-0.2-1.1-0.3
	c-1.6-0.2-3.3-0.4-4.9-0.6c-0.7-0.1-1.4-0.2-2.1-0.2c-1.1-0.1-2.1,0.1-3.1-0.2c-0.2-0.1-0.4,0-0.6,0c-3.8,0-7.6,0-11.4,0
	c-0.3,0-0.7,0-0.9,0.1c-0.5,0.2-1,0.1-1.5,0.2c-1,0-2,0-3,0c-0.3,0-0.6,0-0.8,0.1c-0.8,0.3-1.5,0.2-2.3,0.2c-0.4,0-0.8,0-1.1,0.1
	c-0.5,0.2-1.1,0.2-1.6,0.2c-0.6,0-1.1,0-1.6,0.2c-0.5,0.2-1,0.3-1.5,0.3c-1.1,0.1-2.1,0.3-3.1,0.4c-0.9,0.1-1.7,0.2-2.6,0.2
	c-0.2,0-0.4,0.1-0.5,0.1c-1.4,0.4-2.9,0.5-4.3,0.6c-0.9,0.1-1.8,0.3-2.7,0.4c-0.4,0.1-0.9,0.1-1.3,0.3c-1.2,0.3-2.5,0.4-3.7,1
	c-0.4,0.2-0.9,0.2-1.3,0.4c-0.9,0.2-1.8,0.5-2.5,1c-0.6,0.4-1.2,0.7-1.8,0.9c-0.7,0.3-1.4,0.6-2.1,1c-0.6,0.4-1.2,0.9-1.7,1.3
	c-0.3,0.2-0.3,0.2,0,0.4c0.3,0.2,0.6,0.4,1,0.5c1.1,0.4,2.3,0.7,3.4,1c1.1,0.3,2.3,0.7,3.5,0.7c0.5,0.3,0.9,0.1,1.3-0.1
	c1.5-0.8,3-1.4,4.6-1.9c1.1-0.3,2.1-0.7,3.2-0.9c1.2-0.2,2.3-0.7,3.4-0.9c1.2-0.2,2.3-0.8,3.5-0.6c1.5-0.3,3-0.8,4.6-0.9
	c0.9-0.1,1.8-0.4,2.7-0.4c1.2-0.1,2.3-0.4,3.5-0.3c0.2,0,0.4,0,0.5-0.1c0.6-0.3,1.3-0.2,1.9-0.2c0.8,0,1.6,0,2.3,0
	c0.8,0,1.6,0,2.4-0.1c0.6-0.1,1.2-0.2,1.8-0.2c3.1,0,6.2,0,9.4,0c0.4,0,0.8,0.1,1.2,0.1c0.3,0,0.6,0.1,0.9,0.1c0.4,0,0.8,0,1.1,0.1
	c1.1,0.4,2.4,0.1,3.5,0.5c1.5,0,2.9,0.3,4.3,0.6c1.8,0.4,3.7,0.7,5.5,1.1c1.1,0.2,2.1,0.6,3.2,0.9c0.5,0.1,1,0.2,1.5,0.3
	c2.7,0.9,5.4,1.7,8.1,2.6c0.6,0.2,1.2,0.9,1.9,0.7c0.7-0.2,1.4-0.5,2-0.8c0.9-0.4,1.7-0.9,2.4-1.6C95.7,71.2,95.8,71.1,95.8,71
	L95.8,71z M51.7,69C51.7,69,51.7,69,51.7,69c-1.8,0-3.7,0-5.5,0c-0.3,0-0.6-0.1-0.8,0c-0.8,0.3-1.5,0.2-2.3,0.2
	c-0.4,0-0.8,0.1-1.2,0.2c-0.9,0.1-1.7,0.3-2.6,0.3c-1.2,0-2.4,0.4-3.7,0.3c-0.2,0-0.4,0.1-0.5,0.1c-0.8,0.1-1.6,0.3-2.4,0.4
	c-0.8,0.1-1.6,0.3-2.4,0.5c-1.9,0.5-3.8,0.9-5.7,1.4c-0.8,0.2-1.7,0.5-2.5,0.8c-0.6,0.2-1.3,0.4-1.9,0.6C20.1,74,20,74,20,74.1
	c0.1,0,0.2,0.1,0.2,0.1c1.1,0.2,2.1,0.5,3.2,0.7c0.3,0.1,0.5,0.1,0.8,0.1c0.5,0,1,0.1,1.5,0.2c1,0.2,2.1,0.4,3.1,0.4
	c1.1-0.1,2.3,0.2,3.4,0.4c1.3,0.2,2.5,0.5,3.8,0.5c0.4,0,0.7,0.1,1.1,0.1c0.3,0,0.6,0.1,0.9,0.1c1.6,0.1,3.2,0.4,4.8,0.3
	c0.1,0,0.2,0,0.3,0c0.7,0.3,1.4,0.2,2.2,0.2c1.5,0,2.9,0,4.4,0c0.4,0,0.8,0.1,1.2,0.1c0.8,0.1,1.6,0.2,2.4,0
	c0.6-0.2,1.2-0.2,1.8-0.1c0.9,0.2,1.7,0.2,2.6,0.2c1.6,0,3.1,0.1,4.6-0.2c0.2,0,0.5,0,0.7,0c0.2,0,0.4,0.1,0.5,0.1
	c1,0,1.9-0.1,2.9-0.1c0.9,0,1.9-0.3,2.8-0.1c0.2,0.1,0.5,0,0.8-0.1c0.4-0.1,0.7-0.1,1.1-0.2c0.4-0.1,0.9-0.1,1.3-0.2
	c1.1-0.1,2.1-0.4,3.3-0.4c1.1,0,2.1,0,3.1-0.1c1.1-0.1,2.3-0.2,3.4-0.4c0.1,0,0.3,0,0.4,0c0.5,0.2,0.9,0,1.3-0.1
	c0.5-0.1,1-0.2,1.5-0.4c0.7-0.2,1.4-0.4,2.1-0.6c-0.5-0.6-1.3-0.4-2-0.7C85.4,74.1,85.2,74,85,74c-0.6-0.2-1.2-0.4-1.8-0.6
	c-0.5-0.1-1-0.2-1.5-0.4c-1.4-0.6-2.9-0.9-4.3-1.2c-0.5-0.1-1-0.2-1.4-0.4c-0.2-0.1-0.5-0.1-0.8-0.2c-0.3-0.1-0.6,0-0.8-0.1
	c-1.7-0.6-3.4-0.7-5.1-1c-0.8-0.2-1.6-0.1-2.4-0.3c-0.7-0.1-1.4-0.2-2.2-0.2c-0.3,0-0.6,0.1-0.8,0c-1.1-0.4-2.2,0-3.3-0.5
	c-1.4,0.1-2.8-0.1-4.2-0.1C54.8,69,53.2,69,51.7,69L51.7,69z"/>
</svg>
