<svg width="119" height="24" viewBox="0 0 119 24" fill="none" xmlns="http://www.w3.org/2000/svg">
<path fill-rule="evenodd" clip-rule="evenodd" d="M3.86817 1.5C3.06615 1.5 2.41599 2.17157 2.41599 3V21C2.41599 21.8284 3.06615 22.5 3.86817 22.5H11.1291C11.9311 22.5 12.5813 21.8284 12.5813 21V3C12.5813 2.17157 11.9311 1.5 11.1291 1.5H10.1515C10.1006 1.55884 10.0425 1.61422 9.97764 1.66526C9.7053 1.87959 9.33593 2 8.95079 2H6.04642C5.66128 2 5.29191 1.87959 5.01958 1.66526C4.95472 1.61422 4.89663 1.55884 4.84576 1.5H3.86817ZM11.1291 0H11.1291H3.86817C2.26413 0 0.963806 1.34315 0.963806 3V21C0.963806 22.6569 2.26413 24 3.86817 24H11.1291C12.7331 24 14.0334 22.6569 14.0334 21V3C14.0334 1.34315 12.7331 0 11.1291 0ZM98.9861 0C97.1839 0 95.7187 1.34531 95.7187 3V21C95.7187 22.6547 97.1839 24 98.9861 24H115.323C117.125 24 118.591 22.6547 118.591 21V3C118.591 1.34531 117.125 0 115.323 0H98.9861ZM107.155 19.5C108.058 19.5 108.788 20.1703 108.788 21C108.788 21.8297 108.058 22.5 107.155 22.5C106.251 22.5 105.521 21.8297 105.521 21C105.521 20.1703 106.251 19.5 107.155 19.5ZM98.9861 3H115.323V18H98.9861V3ZM67.0051 0H43.8362C42.4203 0 41.2619 1.08 41.2619 2.4V16.8C41.2619 18.12 42.4203 19.2 43.8362 19.2H52.8463L50.272 22.8V24H60.5693V22.8L57.995 19.2H67.0051C68.421 19.2 69.5794 18.12 69.5794 16.8V2.4C69.5794 1.08 68.421 0 67.0051 0ZM67.0051 14.4H43.8362V2.4H67.0051V14.4ZM20.0237 13H21.0675C21.3436 13 21.5675 12.7761 21.5675 12.5C21.5675 12.2239 21.3436 12 21.0675 12H20.0237V13ZM23.155 12C22.8788 12 22.655 12.2239 22.655 12.5C22.655 12.7761 22.8788 13 23.155 13H25.2425C25.5186 13 25.7425 12.7761 25.7425 12.5C25.7425 12.2239 25.5186 12 25.2425 12H23.155ZM27.33 12C27.0538 12 26.83 12.2239 26.83 12.5C26.83 12.7761 27.0538 13 27.33 13H29.4175C29.6936 13 29.9175 12.7761 29.9175 12.5C29.9175 12.2239 29.6936 12 29.4175 12H27.33ZM31.505 12C31.2289 12 31.005 12.2239 31.005 12.5C31.005 12.7761 31.2289 13 31.505 13H32.5488V12H31.505ZM75.5697 13H76.6134C76.8896 13 77.1134 12.7761 77.1134 12.5C77.1134 12.2239 76.8896 12 76.6134 12H75.5697V13ZM78.7009 12C78.4248 12 78.2009 12.2239 78.2009 12.5C78.2009 12.7761 78.4248 13 78.7009 13H80.7884C81.0646 13 81.2884 12.7761 81.2884 12.5C81.2884 12.2239 81.0646 12 80.7884 12H78.7009ZM82.8759 12C82.5998 12 82.3759 12.2239 82.3759 12.5C82.3759 12.7761 82.5998 13 82.8759 13H84.9635C85.2396 13 85.4635 12.7761 85.4635 12.5C85.4635 12.2239 85.2396 12 84.9635 12H82.8759ZM87.051 12C86.7748 12 86.551 12.2239 86.551 12.5C86.551 12.7761 86.7748 13 87.051 13H88.0947V12H87.051Z" fill="#807C76"/>
</svg>
