<?xml version="1.0" encoding="utf-8"?>
<!-- Generator: $$$/GeneralStr/196=Adobe Illustrator 27.6.0, SVG Export Plug-In . SVG Version: 6.00 Build 0)  -->
<svg version="1.1" id="Calque_1" xmlns="http://www.w3.org/2000/svg" xmlns:xlink="http://www.w3.org/1999/xlink" x="0px" y="0px"
	 viewBox="0 0 400 400" style="enable-background:new 0 0 400 400;" xml:space="preserve">
<style type="text/css">
	.st0{fill:#B3B3B3;}
	.themeColor{fill:var(--voxxrin-event-theme-colors-primary-hex);}
</style>
<g>
</g>
<g>
	<path class="st0" d="M190.9,55.6l-155,38.6l169.3,35.3l156-48.8L190.9,55.6z M180.9,71.5l17.8-5.6l119.9,18.4l-15.9,5.1L180.9,71.5
		z"/>
	<path class="themeColor" d="M171.8,235.4c0,0-11.6-34.5,19.9-40.6c31.6-6.1,34.6-7.2,34.6-7.2l2.8,20.2l69.3-14.8c0,0,5.3-20,20-14.2
		c14.7,5.8,3.4,17.6,0,18.7C315,198.7,171.8,235.4,171.8,235.4z"/>
	<g>
		<path d="M368.7,94.5c-0.2-0.5-0.3-1-0.2-1.5c0.3-1.2,0.5-2.3,0-3.5c-0.1-0.3,0.1-0.8,0.2-1.2c0.1-0.4,0.2-0.8,0.2-1.2
			c0-1.7,0-3.4,0-5.1c0-0.5-0.1-1.1-0.4-1.4c-0.6-0.9-1.3-1.7-2.1-2.5c-0.3-0.3-0.8-0.4-1.2-0.4c-1.4,0-2.7-0.3-4-0.5
			c-0.9-0.1-1.8-0.8-2.7-0.3c-2.1-0.3-4.2-0.5-6.3-1c-0.8-0.2-1.5-0.4-2.3-0.3c-0.8,0-1.4-0.8-2.2-0.3c-1.5-0.5-3-0.2-4.5-0.6
			c-2.5-0.6-5-0.9-7.5-1.2c-0.8-0.1-1.5-0.6-2.5-0.3c-0.7,0.2-1.6-0.2-2.5-0.3c-0.8-0.1-1.7-0.4-2.5-0.5c-1.3-0.1-2.5-0.2-3.8-0.4
			c-1.3-0.2-2.5-0.4-3.7-0.8c-0.4-0.1-0.8-0.2-1.2,0c-0.9,0.4-1.6,0.3-2.4-0.3c-0.3-0.2-0.8-0.4-1.2-0.4c-1.6,0.2-3.1-1-4.8-0.1
			c-0.2,0.1-0.5,0-0.7-0.1c-1.8-0.8-3.6-0.9-5.5-0.9c-0.4,0-0.9,0-1.3-0.1c-1.3-0.3-2.6-0.6-4-0.9c-1.4-0.3-2.8-0.7-4.3-0.6
			c-0.1,0-0.2,0-0.2-0.1c-0.8-0.5-1.7-0.3-2.5-0.4c-0.5,0-1.1,0.1-1.5-0.1c-1.1-0.5-2.2-0.4-3.3-0.4c-0.6,0-1.3,0.1-1.8-0.1
			c-1.6-0.6-3.4-0.2-5-0.9c-0.5-0.2-1.2-0.1-1.8,0.1c-0.7,0.3-1.3,0.3-1.9-0.3c-0.4-0.4-0.9-0.4-1.4-0.2c-0.2,0.1-0.6,0.1-0.7,0
			c-0.6-0.7-1.4-0.3-2.1-0.5c-2.3-0.5-4.7-0.9-7.1-0.7c-0.2,0-0.3,0-0.5,0c-0.4-0.1-0.9-0.1-1.2-0.4c-0.8-0.7-1.7-0.7-2.6-0.5
			c-0.4,0.1-0.8,0.1-1.2,0c-1.8-0.7-3.7-1.1-5.7-1.1c-0.6,0-1.2-0.1-1.8-0.3c-2.5-0.7-5.2-0.6-7.8-1.1c-0.8,0.6-1.4,0-2.1-0.2
			c-0.9-0.3-1.8-0.7-2.7-0.8c-1.2-0.2-2.4,0-3.5-0.5c-2.4,0-4.7-0.7-7-1c-1.2-0.2-2.3-0.5-3.5-0.5c-0.9,0-1.8-0.5-2.8-0.2
			c-1.1,0.3-2-0.4-3-0.5c-0.8-0.1-1.5,0.3-2.2,0.1c-0.8-0.2-1.6-0.9-2.4-0.8c-1.1,0.1-2.2-0.2-3.2-0.5c-1.1-0.3-2.2,0-3.3-0.6
			c-0.6-0.3-1.3,0.2-2,0c-1.4-0.4-2.9-0.1-4.3-0.6c-0.5-0.2-1.2-0.2-1.8,0c-1,0.3-1.9,0.1-2.7-0.1c-1.7-0.6-3.4-0.4-5.1-0.4
			c-0.9,0-1.5,0.3-1.8,1.1c-0.3,0.7-0.7,0.7-1.4,0.5c-0.6-0.2-1.4,0-2,0.1c-4,0.9-7.9,1.9-11.9,2.8c-4.1,1-8.2,2-12.4,3
			c-2.8,0.7-5.6,1.5-8.4,2c-2.9,0.5-5.8,1.3-8.7,2c-4.2,1-8.5,1.8-12.6,3.1c-2.7,0.2-5.2,1.4-8,1.8c-3.5,0.6-6.9,1.6-10.4,2.4
			c-4,1-8.1,2.1-12.1,3c-2.6,0.6-5.1,1.4-7.7,1.8c-1.8,0.3-3.5,0.5-5.2,1c-3.3,1-6.6,1.6-9.9,2.4c-3.8,1-7.6,1.9-11.4,2.7
			c-1.9,0.4-3.8,1-5.7,1.5c-1,0.3-2,0.4-3,0.7c-1.5,0.4-3,0.8-4.4,1.2c-2.2,0.6-4.5,1-6.7,1.6c-0.8,0.2-1.6,0.4-2.5,0.4
			c-0.9,0-1.7,0-2.6,0c-1,0-1.9-0.3-2.8-0.3c-0.9,0-1.7,0.7-2.6,0.9c-2.3,0.6-4.2,1.8-5.1,4.3c-0.5,1.4-0.9,2.7-1,4.2
			c-0.1,2.3,0.2,4.6-0.5,6.9c-0.1,0.4,0,0.8,0,1.3c0,1.8,0,3.6,0,5.4c0,0.5,0.1,1.1-0.1,1.5c-0.6,1.5-0.4,3-0.4,4.6
			c0,2.7,0,5.5,0,8.2c0,0.6,0.1,1.2-0.1,1.8c-0.2,0.6-0.2,1.1-0.1,1.7c0.1,0.6-0.2,1.3-0.2,2c0,2.7,0,5.5,0,8.2
			c-0.1,2.7,0.3,5.5-0.4,8.1c0.5,0.7,0.1,1.3,0,1.9c-0.1,0.6,0.1,1.3,0.1,2c0,1.1-0.2,2.2-0.2,3.3c0,5.6,0,11.1,0,16.7
			c0,0.8,0.1,1.6-0.1,2.3c-0.3,0.9-0.3,1.8-0.3,2.8c0,2.7,0,5.5,0,8.2c0,2.8-0.3,5.6-0.1,8.4c0.1,0.9,0.1,1.9-0.3,2.8
			c-0.2,0.4-0.2,1-0.2,1.5c0,1.5,0,3.1,0,4.6c0,1.5,0,3.1,0,4.6c0,1.5,0,3.1,0,4.6c0,1.5-0.2,3,0,4.5c0.2,1.3,0,2.5-0.4,3.8
			c0.4,1.5,0,3,0,4.5c0,9.4,0,18.8,0,28.2c0,0.8,0.1,1.6-0.1,2.3c-0.3,1.7-0.4,3.5-0.4,5.3c0,6.4,0,12.8,0,19.2c0,1.6,0,3.2-0.1,4.8
			c-0.1,1.3-0.2,2.6-0.1,4c0,0.3,0.2,0.7,0,1c-0.4,0.8-0.3,1.7-0.3,2.5c0,3.1,0,6.2,0,9.2h0h0c0,3.3,0,6.7,0,10c0,0.9,0.2,1.6,1.2,2
			c0.8,0.3,1.5,1.2,2.4,0.1c0.1-0.1,0.7,0,1,0.1c1.3,0.5,2.6,1,3.8,1.4c4.4,1.6,8.9,2.9,13.3,4.3c4.5,1.4,8.9,2.8,13.4,4.3
			c4,1.4,8.2,2.3,12.2,3.8c0.2,0.1,0.3,0.2,0.5,0.2c2.6,0.5,5,1.5,7.6,2.2c2.5,0.7,5,1.6,7.6,2.3c1.2,0.3,2.4,1,3.6,1.2
			c2.3,0.4,4.4,1.3,6.6,1.9c3.4,0.9,6.8,2.2,10.2,3.1c4.2,1.1,8.3,2.5,12.5,3.8c2.4,0.7,4.8,1.7,7.3,2.3c2.5,0.6,4.8,1.6,7.4,2
			c0.3,0,0.6,0.3,0.9,0.5c0.4,0.2,0.8,0.3,1.2,0.5c0.8,0.2,1.7,0.4,2.5,0.6c2.5,0.7,4.9,2,7.5,2.3c0.2,0,0.3,0.1,0.5,0.2
			c1.4,0.5,2.7,0.9,4.1,1.4c3.3,1,6.6,2.3,10.1,2.8c0.2,0,0.5,0.2,0.7,0.3c3.2,1.6,6.8,2,10.2,3.3c0.2,0.1,0.5,0.2,0.7,0.2
			c2.7,0.2,5,1.6,7.6,2.1c1.5,0.9,3.2,1.2,4.8,1.7c1,0.3,1.9,0.8,2.9,0.9c1,0.2,2,0.4,2.9,0.8c1,0.5,2.1,0.6,3.1,1
			c3.6,1.4,7.4,2.1,11.2,0.4c0.6-0.3,1.3-0.5,2-0.6c0.8-0.1,1.5-0.4,2.2-0.8c1.4-0.7,2.8-1.3,4.4-1.4c0.4,0,0.8-0.3,1.2-0.4
			c0.5-0.2,0.9-0.4,1.4-0.6c1.5-0.4,3-0.8,4.4-1.3c3.2-1.1,6.4-2.3,9.6-3.5c1.1-0.4,2.2-0.9,3.3-1.3c1.7-0.6,3.1-1.8,5-1.7
			c0.2,0,0.4-0.2,0.6-0.4c0.3-0.2,0.5-0.4,0.8-0.5c1.2-0.5,2.7-0.5,3.8-1.5c0.1-0.1,0.3-0.1,0.5-0.1c1.1,0.1,1.9-0.6,2.9-0.8
			c1.1-0.3,2.1-0.6,3.1-1.1c1.8-0.9,3.7-1.7,5.7-2.1c0.8-0.2,1.6-0.6,2.4-0.9c0.3-0.1,0.6-0.4,0.9-0.4c0.6,0.2,1,0.1,1.4-0.3
			c1-0.9,2.3-1.1,3.5-1.5c0.4-0.1,0.9-0.1,1.2-0.3c1-0.4,2.1-0.7,3.1-1.3c1-0.6,2.2-0.3,3.1-1.1c0.9-0.8,2.2-0.2,3.2-0.9
			c0.4-0.3,0.9-0.4,1.4-0.6c0.4-0.2,0.8-0.3,1.2-0.5c0.6-0.2,1.2-0.3,1.7-0.6c1.3-0.7,2.7-1.1,4-1.6c2.3-0.8,4.6-1.4,6.7-2.4
			c1.4-0.7,2.8-1.2,4.2-1.6c0.4-0.1,0.8-0.3,1.1-0.5c0.8-0.6,1.7-0.8,2.5-1.2c1.4-0.6,3-0.5,4.4-1.3c1.3-0.7,2.7-1.1,4-1.6
			c0.9-0.3,1.9-0.4,2.6-0.9c0.7-0.4,1.3-0.7,2.1-0.7c0.5,0,1-0.2,1.4-0.5c1-0.5,2-1,2.9-1.6c0.2-0.1,0.5-0.3,0.7-0.2
			c1.5,0.5,2.6-0.4,3.9-0.9c1-0.4,2-0.9,3.1-1.3c1.6-0.5,3.2-1.1,4.8-1.9c0.3-0.2,0.6-0.3,1-0.3c1-0.1,1.8-0.6,2.6-0.9
			c0.6-0.3,1.3-0.4,1.9-0.7c1.1-0.4,2.4-0.5,3.4-1.2c0.9-0.6,1.7-1,2.8-0.9c0.3,0,0.7-0.1,0.9-0.3c0.8-0.9,1.8-1.2,3-1.2
			c0.5,0,1-0.3,1.5-0.4c0.8-0.3,1.6-0.7,2.4-0.9c0.4-0.1,0.9-0.2,1.2,0c1,0.5,1.7,0,2.2-0.7c0.7-0.9,1.3-1.9,1.4-3.2
			c0.1-1.3,0.2-2.5,0.2-3.8c0.1-1.7-0.2-3.4,0.4-5.1c0.1-0.3,0.1-0.7,0.1-1c0-1.3-0.1-2.6,0.1-3.8c0.2-1.2,0.7-2.5,0.1-3.7
			c0-0.1,0-0.2,0-0.2c0.5-1.1,0.3-2.2,0.3-3.3c0.1-1.9,0-3.9,0.3-5.8c0.1-1,0.2-2,0.2-3c0-1.3,0-2.6,0-3.8c0-1.4,0.2-2.8,0.1-4.3
			c0.6-1.2,0.4-2.5,0.4-3.8c0-1.3-0.2-2.6,0.1-3.8c0.3-1.3,0.3-2.5,0.4-3.8c0-1.7,0-3.4,0-5.1c0-1.8,0.4-3.5,0.5-5.2
			c0-1.5,0.4-3.1-0.3-4.6c-0.1-0.3-0.1-0.7,0-1c0.2-1,0.4-2,0.7-3c0.2-0.7-0.3-1.3,0.1-2c0.1-0.3-0.2-0.8-0.2-1.2
			c-0.1-0.3-0.2-0.7,0-1c0.6-1.2,0.3-2.5,0.4-3.8c0.1-0.8,0-1.7,0.2-2.5c0.3-0.9,0.3-1.9,0.2-2.8c-0.1-0.8-0.2-1.6,0-2.5
			c0.1-0.5,0.2-1.1,0-1.5c-0.4-1.2,0-2.3,0.1-3.5c0-1.2,0.8-2.5,0.1-3.7c-0.1-0.1,0.1-0.3,0.1-0.5c0.1-0.8,0.3-1.5,0.3-2.3
			c0.1-1.7,0-3.4,0-5.1c0-0.5-0.1-1.1,0.1-1.5c0.5-1.1,0.3-2.2,0.4-3.3c0.1-1.5-0.3-3.1,0.4-4.6c-0.4-0.9,0.2-2-0.6-2.8
			c-0.1-0.2-0.1-0.5-0.1-0.7c0-0.1,0.1-0.2,0.1-0.2c0.4-0.8,0.9-1.7,0.4-2.6c0.4-0.9,0.3-1.8,0-2.7c-0.1-0.4-0.1-0.9,0-1.3
			c0.1-0.6,0.3-1.1,0-1.7c-0.1-0.2-0.1-0.6,0.1-0.7c0.8-0.7,0.4-1.5,0.4-2.3c0-1.1,0.1-2.2,0.2-3.3c1-1-0.1-2.3,0.4-3.3
			c0.6-1.4,0.4-2.9,0.4-4.3c0.1-1.1-0.1-2.2,0.4-3.3c0.2-0.6,0.1-1.4-0.1-2c-0.5-1.4-0.4-2.9-0.2-4.3c0.1-1,0.1-2,0.3-3
			c0.3-1,0-2.2,0.1-3.3c0-0.6,0-1.2,0.2-1.8c0.5-1.6,0.4-3.2,0.1-4.8c-0.1-0.3-0.1-0.7,0-1c0.2-0.7,0.4-1.5,0.6-2.2
			c0.2-1.2,0.7-2.5,0.5-3.7c-0.2-1.5-0.5-2.8,0.1-4.2c0.1-0.1,0.1-0.4,0-0.5c-0.7-1,0.1-2,0.1-3c0-0.9,0.1-1.9,0.2-2.8
			c0-0.2,0-0.5-0.1-0.7c-0.7-1-0.4-1.9,0-2.9c0.3-0.8,0.5-1.6,0.5-2.5c0-0.6-0.1-1.2,0.1-1.8c0.4-1,0.3-2,0.4-3
			c0-0.5-0.1-1.1,0.1-1.5c0.6-1.1,0.1-2.4,0.6-3.5c0.5-1.2,0.2-2.5,0.3-3.8c0-0.4,0.1-0.9,0.2-1.2c0.4-0.9,0.4-1.8,0-2.7
			c-0.3-0.7-0.3-1.5,0-2.3c0.3-0.8,0.3-1.7,0.3-2.5c0-1.4,0.3-2.7-0.3-4.1c0.7-1.5,0-3.2,0.7-4.8C369.1,96.1,369,95.3,368.7,94.5z
			 M197.1,57.9c0,0.1,0.1,0.1,0.1,0.2c-0.1-0.1-0.2-0.2-0.2-0.2C197,57.9,197.1,57.9,197.1,57.9z M50.5,95.1
			c0.2-0.2,0.6-0.5,0.8-0.5c2,0,3.8-0.7,5.7-1.2c1.3-0.3,2.6-0.7,4-0.9c1.1-0.2,2.1-0.7,3.2-0.9c1.8-0.4,3.7-0.8,5.5-1
			c1.1-0.1,2.2-0.4,3.2-0.7c1-0.2,2-0.4,3-0.7c3.5-0.9,7.1-1.8,10.6-2.7c1.8,0.1,3.3-0.9,5-1.1c0.6-0.1,1.1-0.4,1.7-0.6
			c0.4-0.1,0.8-0.4,1.2-0.3c2,0.1,3.8-0.7,5.7-1.1c1.1-0.3,2.1-0.5,3.2-0.8c3.5-0.9,6.9-1.8,10.4-2.6c2.7-0.6,5.4-1.4,8.2-2
			c3.5-0.8,6.9-1.9,10.4-2.6c3.3-0.6,6.6-1.4,9.9-2.2c2.4-0.6,4.8-1.2,7.2-1.8c2.2-0.5,4.4-1.3,6.7-1.7c2.3-0.4,4.5-1.1,6.7-1.5
			c3.9-0.8,7.7-2,11.6-2.8c4.7-1,9.4-2.3,14.1-3.4c2.5-0.6,4.9-1.5,7.3-2.4c0.6-0.2,1.3-0.5,1.5-1.3l0,0c1.7,0.2,3.4,0.5,5,0.7
			c1.5,0.2,3,0.6,4.5,0.8c1.8,0.2,3.5,0.7,5.3,0.6c0.8-0.1,1.7,0.4,2.5,0.5c1.2,0.2,2.3,0.6,3.5,0.5c1.2,0,2.3,0.7,3.5,0.5
			c1.3,0.6,2.7,0.4,4,0.5c1.1,0.1,2.2,0.3,3.3,0.5c1.5,0.3,3,0.5,4.5,0.8c0.3,0.1,0.7,0.2,1,0.2c2,0.1,3.9,0.5,5.8,0.9
			c0.5,0.1,1,0.1,1.5,0.1c2.2-0.1,4.2,0.5,6.3,0.8c1.2,0.1,2.4,0.1,3.5,0.4c1.2,0.3,2.3,0.5,3.5,0.4c0.8,0,1.5-0.1,2.3-0.3
			c0.6-0.2,1,0,1.4,0.3c0.3,0.2,0.8,0.3,1.2,0.5c0.7,0.3,1.5-0.7,2.1,0.1c0.6,0.7,1.4,0.5,2.1,0.7c1.4,0.4,2.9,0.4,4.2,0.8
			c1.8,0.5,3.7,0.4,5.5,0.9c1,0.3,2.1,0.2,3.1,0.1c0.8-0.1,1.6-0.3,2.3,0.4c0.1,0.1,0.3,0.1,0.5,0.1c1.4-0.2,2.7,0.4,4,0.6
			c2.2,0.3,4.3,0.9,6.5,1c0.6,0,1.1,0.4,1.7,0.4c1.7,0.2,3.3,0.7,5.1,0.6c1.2,0,2.4,0.3,3.5,0.5c1.4,0.3,2.8,0.5,4.2,0.8
			c0.3,0.1,0.7,0.2,1,0.2c1.9-0.2,3.7,0.7,5.6,0.6c2.9,0.7,5.9,0.6,8.8,1.4c1.6,0.4,3.4,0.3,5,0.7c2.9,0.6,5.9,0.5,8.8,1.4
			c0.2,0.1,0.5,0.1,0.8,0.1c2.1,0,4,0.5,6,0.9c0.3,0.1,0.7,0.2,1,0.1c1.9-0.1,3.7,0.7,5.6,0.6c0.7-0.1,1.5,0.3,2.2,0.4
			c1.5,0.4,3.1,0.3,4.5,0.6c1.4,0.3,2.9,0.4,4.3,0.5c0.1,0,0.2,0.2,0.2,0.3c0,0.1-0.2,0.3-0.3,0.4c-2,0.6-4.1,1.1-6.1,1.7
			c-1,0.3-2,0.5-2.9,0.8c-2.8,0.8-5.5,1.7-8.3,2.6c-1.7,0.6-3.4,1.1-5,1.8c-0.2,0.1-0.5,0.1-0.7,0.1c-1.4,0-2.9,0.3-3.9,0.8
			c-0.4,0.2-0.8,0.3-1.1,0.5c-1.7,0.9-3.6,0.8-5.4,1.4c-1.2,0.4-2.5,0.7-3.6,1.1c-1.8,0.8-3.7,1.1-5.6,1.6c-0.8,0.2-1.6,0.5-2.4,0.7
			c-2.7,0.9-5.4,1.7-8.1,2.4c-0.7,0.2-1.3,0.4-2,0.6c-3.9,1.3-7.8,2.4-11.7,3.6c-1.9,0.6-4,0.9-5.7,2.2c-0.1,0.1-0.3,0.1-0.5,0.1
			c-1.7-0.6-3.1,0.6-4.6,1c-0.9,0.3-1.7,0.6-2.7,0.8c-1.8,0.3-3.5,1.2-5.3,1.6c-3.6,0.9-7.2,2-10.7,3.2c-0.9,0.3-1.9,0.8-3,0.7
			c-0.2,0-0.3,0-0.5,0.1c-2,1.1-4.2,1.4-6.3,2.1c-1.2,0.4-2.5,0.6-3.7,1.1c-2.8,1.2-5.7,1.8-8.5,2.6c-2.9,0.8-5.7,1.9-8.5,2.7
			c-6.7,2-13.3,4.3-19.9,6.5c-0.9,0.3-1.8,0.3-2.7,0.1c-1.7-0.4-3.4-1-5.2-1c-1.3,0-2.6-0.6-3.9-1c-0.2-0.1-0.5-0.3-0.7-0.3
			c-2.4,0.2-4.5-0.9-6.7-1.4c-0.9-0.2-1.9,0.1-2.7-0.4c-0.9-0.5-1.8-0.1-2.7-0.3c-1.3-0.4-2.6-0.7-4-0.6c-0.7,0-1.5-0.3-2.2-0.5
			c-1.4-0.3-2.6-1.1-4.2-0.8c-0.8,0.1-1.6-0.6-2.5-0.5c-0.9,0.1-1.6-0.3-2.4-0.5c-2-0.3-4-1-5.9-1.7c-0.2-0.1-0.3-0.1-0.5-0.1
			c-1.9,0.2-3.7-0.6-5.6-0.6c-0.9,0-1.8-0.4-2.7-0.7c-1.3-0.5-2.6-0.9-4-0.8c-0.5,0-1-0.2-1.5-0.3c-1.4-0.2-2.8-0.9-4.3-0.7
			c-0.3,0-0.7-0.1-1-0.2c-1.4-0.5-2.8-0.8-4.2-1c-1.3-0.2-2.6-0.7-4-0.5c-0.7,0.1-1.4-0.5-2.2-0.7c-0.4-0.2-0.8-0.5-1.2-0.5
			c-1.7,0.1-3.2-0.5-4.7-0.8c-0.2,0-0.5-0.1-0.7-0.2c-1-0.3-2-0.6-2.9-0.9c-1,0.5-2-0.4-3-0.3c-0.2,0-0.5,0-0.7-0.2
			c-1.7-0.9-3.6-1.1-5.4-1.6c-0.3-0.1-0.7-0.3-1-0.2c-1.1,0.6-2,0-2.9-0.3c-1.1-0.3-2.1-0.5-3.2-0.8c-1.1-0.2-2.1-0.7-3.3-0.6
			c-2.4-0.7-4.9-1-7.5-1.1c-0.1,0-0.2,0-0.3,0c-2.5-0.9-5.1-1.1-7.7-1.5c-1.3-0.2-2.7-0.4-4-0.5c-1.1-0.1-2.2-0.5-3.2-0.8
			c-2.9-0.8-5.7-1.6-8.7-1.8c-1.7-0.1-3.3-0.7-5-1c-0.2-0.1-0.5-0.2-0.7-0.3c-0.8-0.7-1.7-0.7-2.6-0.3c-0.1,0.1-0.4,0.1-0.5,0
			c-1-1-2.4-0.2-3.5-0.6c-1.2-0.4-2.5-0.5-3.7-0.8c-0.4-0.1-0.8-0.3-1.2-0.5c-0.2-0.1-0.5-0.2-0.7-0.2c-0.5,0-1.1,0.3-1.5,0.1
			c-1.2-0.6-2.6-0.2-3.8-0.7c-0.5-0.2-1-0.2-1.5-0.3C50.4,95.4,50.2,95.3,50.5,95.1z M37.8,96.7c0,0,0.1,0.1,0.2,0.2
			c-0.1,0-0.1,0.1-0.2,0.1c-0.1,0-0.1,0-0.2-0.1C37.7,96.8,37.7,96.8,37.8,96.7z M205.2,240.3c0.3,1.1,0.3,2.2-0.1,3.3
			c-0.1,0.4-0.2,0.8-0.2,1.3c0,1.1,0.2,2.1,0,3.3c-0.2,1.2-0.1,2.4-0.1,3.6c0,1.1,0,2.2,0,3.3c0,0.5-0.1,1.1,0,1.5
			c0.4,1.5-0.7,2.9-0.2,4.5c0.4,1.4,0.2,3,0.2,4.6c0,1.1,0.1,2.2-0.4,3.3c-0.2,0.5-0.1,1.2-0.1,1.8c0,4.9,0,9.7,0,14.6
			c0,1.4,0.2,2.9-0.4,4.3c-0.2,0.4-0.1,1-0.1,1.5c0,1.7,0,3.4,0,5.1c0,0.7-0.2,1.3-0.3,2c-0.1,0.4-0.2,0.8-0.2,1.2
			c0.1,1.1,0.3,2.1,0,3.2c-0.3,1-0.1,2.2-0.1,3.3c0,0.8-0.1,1.7,0.3,2.5c0.3,0.8-0.3,1.6,0,2.4c-0.5,1.2-0.2,2.5-0.2,3.8
			c-0.1,1.5-0.1,3-0.4,4.6c-0.3,1.8-0.1,3.7,0,5.6c0,0.6,0.3,1.1,0,1.7c-0.2,0.4-0.1,0.8-0.2,1.3c-0.1,0.9,0.4,1.8,0.1,2.8
			c-0.3,0.9-0.1,1.9-0.1,2.8c0,0.9,0.1,1.9-0.1,2.8c-0.2,0.8,0.2,1.6-0.3,2.5c-0.3,0.5-0.1,1.2-0.1,1.8c-0.1,1.1,0.3,2.1,0.1,3.3
			c-0.2,1-0.1,2-0.1,3.1c0,1.1,0,2.2,0,3.3c0,1,0,2.1,0,3.1c0,0.3,0.1,0.7,0,1c-0.7,1.9-0.4,3.9-0.5,5.8c0,0.9,0,0.9-1.1,0.7
			c-0.7-0.2-1.5-0.3-2.2-0.6c-3-0.9-6-2-9-2.8c-4-1-7.8-2.4-11.7-3.6c-6.8-2.1-13.7-4.2-20.4-6.5c-3.5-1.2-7-2.2-10.5-3.3
			c-2.2-0.7-4.4-1.3-6.6-1.9c-0.1,0-0.2,0-0.3,0c-2-1.1-4.4-1.5-6.5-2.2c-3.8-1.2-7.6-2.4-11.4-3.6c-2.4-0.8-4.9-1.5-7.3-2.3
			c-2.4-0.7-4.9-1.4-7.3-2.1c-1.2-0.4-2.4-0.8-3.6-1.2c-6.4-2-12.8-4-19.2-6c-5.7-1.8-11.3-3.7-17.1-5.3c-2.2-0.6-4.5-1.2-6.6-1.9
			c-2.3-0.9-4.8-1.3-7.1-2.1c-2.3-0.8-4.5-1.5-6.8-2.1c-4.1-1.1-8.2-2.2-12.3-3.3c-0.8-0.2-1.1-0.5-0.9-1.2c0.2-1,0.5-1.9,0.3-3
			c-0.2-0.9,0.2-1.8,0.2-2.8c0-4,0-8,0-12.1c0-1.3,0-2.6,0.2-3.8c0.2-0.9,0.2-1.9,0.3-2.8c0.1-1.4-0.3-2.8-0.1-4.3
			c0.2-1.3,0.1-2.7,0.1-4.1c0-1.5,0-2.9,0-4.4c0-1.4,0-2.7,0-4.1c0-0.8,0.2-1.5,0.2-2.3c0.1-0.9-0.2-1.8,0.1-2.7
			c0.3-0.8,0.2-1.7-0.2-2.5c-0.1-0.2-0.1-0.5,0-0.7c0.4-0.9,0.3-1.9,0.3-2.8c0-3.2,0-6.3,0.1-9.5c0-0.8,0.1-1.5,0.2-2.3
			c0-0.2,0.2-0.5,0.1-0.7c-0.6-1.2-0.2-2.3,0.1-3.5c0.2-0.6,0.1-1.2,0.1-1.8c0-4.3,0.1-8.6,0-12.8c0-1.9,0.5-3.9,0.1-5.8
			c0.8-2.2,0.3-4.6,0.4-6.9c0.2-4.1-0.2-8.2,0.3-12.3c-0.3-1-0.2-2,0.1-3c0.2-0.6,0-1.3-0.2-2c-0.2-1-0.3-2,0-3
			c0.2-0.6,0.2-1.3,0.3-2c0-1.1,0.1-2.2-0.1-3.3c-0.2-1,0.1-2,0.2-3c0.1-1.2-0.5-2.3-0.3-3.5c0.2-1.1,0.2-2.2,0.3-3.3
			c0-2.7,0-5.5,0-8.2c0-1.1,0-2.2,0.3-3.3c0.3-1,0.2-2.2,0.1-3.3c-0.1-0.8-0.5-1.6-0.1-2.5c-0.5-0.7,0.1-1.5,0-2.2
			c-0.3-1.6,0.4-3.2-0.1-4.8c-0.1-0.3,0-0.7,0-1c0.2-0.6,0.1-1.2-0.1-1.7c-0.1-0.4-0.3-0.9-0.1-1.2c0.5-1.1,0.4-2.2,0.4-3.3
			c0-4.4,0-8.9,0-13.3c0-1.3-0.1-2.5,0.4-3.8c0.2-0.4,0.1-1,0.1-1.5c0-2.6,0-5.1,0-7.7c0-0.7-0.1-1.3-0.2-2c0-0.2-0.2-0.5-0.1-0.7
			c0.6-3,0.4-5.9,0.2-8.9c0-0.3,0.1-0.7,0.1-1c0.1-1.3,0.2-2.5-0.1-3.8c-0.2-0.6-0.1-1.3-0.2-2c0-1.3-0.3-2.5,0.1-3.8
			c1.4-0.6,2.9-0.5,4.3-0.2c1.8,0.4,3.8,0.3,5.5,1.2c2.8,0.3,5.4,1.4,8.2,1.8c1.7,0.2,3.3,0.7,5,1.1c1.7,0.4,3.5,0.9,5.2,1
			c0.2,0,0.4,0,0.5,0.1c2.5,1.1,5.3,1,7.9,1.9c1.2,0.4,2.5,0.7,3.8,0.6c0.2,0,0.5,0,0.8,0.1c1.5,0.7,3.1,0.8,4.7,1.1
			c1.6,0.3,3.2,0.5,4.7,0.8c2.4,0.5,4.8,1.1,7.2,1.6c2.4,0.5,4.8,1.1,7.2,1.4c0.9,0.1,1.9,0.2,2.7,0.5c2.2,0.7,4.5,0.9,6.7,1.4
			c1.3,0.3,2.7,0.5,4,0.7c1.8,0.2,3.7,0.7,5.5,1.1c1.6,0.4,3.1,0.9,4.8,0.9c0.4,0,0.8,0.2,1.2,0.3c1.4,0.2,2.8,0.9,4.3,0.7
			c0.3,0,0.5,0,0.8,0.1c3.2,1.1,6.7,1.2,9.9,2.3c1.2,0.4,2.5,0.4,3.8,0.7c4.1,0.9,8.4,1.4,12.5,2.5c2.9,0.8,5.8,1.1,8.7,1.7
			c1.5,0.3,3,0.6,4.5,1c2.1,0.5,4.2,0.6,6.2,1.2c2,0.6,4.1,1.2,6.2,1.4c0.9,0.1,1.8,0.5,2.7,0.7c0.4,0.1,0.8,0.2,1.3,0.2
			c0.9,0,1.9,0.1,2.8,0.4c0.5,0.2,1.2,0.1,1.8,0.1c0.4,0,0.9,0,1.2,0.2c1.8,0.9,3.7,1,5.7,1.3c0.8,0.1,1.7,0.3,2.5,0.6
			c2.1,0.6,4.3,1.1,6.5,1c0.4,0,0.5,0.2,0.4,0.7c-0.1,0.5-0.1,1-0.1,1.5c0.1,1.7,0,3.3-0.4,4.9c-0.1,0.6-0.3,1.2-0.2,1.7
			c0.2,1.9,0.1,3.7-0.5,5.5c-0.1,0.5-0.1,1-0.1,1.5c0,1.9,0,3.8,0,5.6c0,1.2,0.1,2.4-0.4,3.5c-0.2,0.4-0.1,1-0.1,1.5
			c0,2.2,0,4.4,0,6.7c0,1,0,2-0.3,3c-0.2,0.7-0.1,1.5-0.1,2.3c0,5.5,0,10.9,0,16.4c0,0.5,0,1,0,1.5c0,0.5-0.3,0.8-0.7,1
			c-1,0.6-2.1,0.6-3,0.2c-1.1-0.5-2-0.1-3,0.2c-1.3,0.5-2.5,1.1-3.9,1c-0.5,0-1.1,0.4-1.6,0.7c-0.5,0.2-0.8,0.6-1.3,0.8
			c-2.1,0.5-4.2,1.4-6.4,1.6c-3.2,0.3-6.1,1.5-8.6,3.5c-1.5,1.2-3,2.5-4.3,3.9c-1.7,1.7-3.1,3.6-4.1,5.8c-0.4,0.9-1.5,4.9-1.6,5.9
			c-0.1,1.1-0.4,2.2-0.5,3.3c-0.1,1,0.2,2.1-0.1,3.1c-0.4,1.7,0,3.3,0,5c0.1,1.6,0,3.3,0.1,4.9c0.1,1.1,0.2,2.2,0.6,3.2
			c0.4,1,0.4,2,0.4,3c-0.1,0.9,0.4,1.7,0.6,2.5c0.1,0.2,0.3,0.4,0.5,0.6c1.3,1.1,2.7,1.8,4.4,1.6c1.3-0.1,2.5-0.2,3.8-0.6
			c1.3-0.5,2.6-0.8,3.9-1.1c1.3-0.2,2.5-0.9,3.8-1.4c3.3-1.3,6.6-2.7,10.1-3.8c2-0.6,3.9-1.2,5.8-1.8c0.9-0.3,1.7-0.7,2.6-1
			c0.4-0.2,0.9,0.1,0.9,0.6c0,1.3,0,2.6,0,4.5l0,0c-0.1,1.1,0.4,2.8-0.3,4.4C204.9,239.7,205.1,240,205.2,240.3z M204.9,223.8
			c-0.4,0-0.8,0.2-1.2,0.4c-1.2,0.5-2.4,0.9-3.6,1.3c-2.7,0.9-5.5,1.8-8.3,2.5c-0.8,0.2-1.6,0.6-2.4,0.9c-1,0.4-2,1-3,1.4
			c-0.9,0.4-1.9,0.7-2.9,1c-1.5,0.5-2.9,0.9-4.4,1.1c-1.3,0.2-2.5,0.6-3.7,0.9c-0.5,0.1-0.7,0-0.8-0.4c0-0.3,0-0.5,0-0.8
			c0-2.2-0.5-4.4-0.9-6.5c-0.1-0.4-0.1-0.8-0.2-1.3c-0.1-1-0.1-2-0.4-3c-0.3-1.1-0.3-2.4,0-3.6c0.2-0.8,0-1.6,0.2-2.5
			c0.2-0.8,0.1-1.7,0.2-2.5c0-0.8,0.2-1.5,0.4-2.2c0.5-1.6,1-3.2,1.8-4.7c1.5-2.5,3.7-4.2,6.1-5.7c0.4-0.3,1-0.3,1.4-0.5
			c2.9-1,5.9-1.4,8.8-2.5c0.5-0.2,1-0.3,1.4-0.6c1.1-0.6,2.3-1,3.6-1.3c1.3-0.2,2.7-0.4,3.9-1.1c0.4-0.2,1-0.2,1.5-0.1
			c3.1,0.2,6.1-0.4,8.9-1.8c0.2-0.1,0.6-0.3,0.7-0.2c1,0.6,1.9,0,2.7-0.2c1.3-0.4,2.5-0.4,3.8-0.4c0.8,0,1.5,0,2.3-0.3
			c0.2-0.1,0.5-0.2,0.7-0.2c2.5,0,2.8-0.4,2.7,2.3c-0.1,1.5-0.1,3.1,0.8,4.4c0.1,0.1,0.1,0.3,0.2,0.5c0.2,1.8,0.4,3.7,0.6,5.6l0,0
			c0.2,1.6-0.5,3-0.8,4.5c-0.1,0.6-0.1,1,0.2,1.4c0.2,0.3,0.4,0.6,0.6,0.8c0.2,0.2,0.6,0.4,0.8,0.5c0.6,0,1.2,0,1.8-0.1
			c2-0.4,4-0.9,5.9-1.4c0.2-0.1,0.5-0.1,0.8-0.1c2.7-0.1,5.4-0.8,8-1.3c2.7-0.4,5.3-1.2,8-1.4c1.9-0.1,3.8-0.7,5.7-1.2
			c2.6-0.7,5.3-1.3,8-1.4c0.5,0,1-0.2,1.5-0.3c3.2-0.8,6.5-1.2,9.7-2.1c1-0.3,2-0.3,3-0.4c2-0.2,3.9-1.1,5.9-1.4
			c0.5-0.1,1-0.2,1.5-0.4c1-0.3,2.1-0.4,2.9-0.9c1.7-1,3.6-1.1,5.2-2c0.3-0.2,0.7-0.2,1-0.2c1.4,0,2.6-0.9,3.8-1.3
			c0.9-0.3,1.5-1.1,1.9-2c0.2-0.6,0.5-1.1,0.6-1.7c0.7-3.5,3-6.1,4.8-8.9c0.8-1.2,2.3-1.8,3.7-2c1.6-0.2,3.3-0.2,4.8,0.6
			c1.4,0.7,2.8,1.4,4,2.3c1.2,1,2,2.3,2.5,3.8c0.7,2.5,0.7,2.4-0.8,4.7c-0.6,0.9-1.1,1.7-2.2,1.9c-0.3,0.1-0.6,0.3-0.9,0.5
			c-0.6,0.5-1.2,1-2,1c-0.2,0-0.3,0.1-0.5,0.1c-1,0.5-2,0.9-3.2,1c-0.6,0-1.2,0.7-1.8,0.8c-0.6,0.1-1.3-0.1-2-0.1
			c-0.5,0-1,0.2-1.4,0.5c-0.4,0.2-0.7,0.8-1.2,0.9c-0.4,0.1-1-0.1-1.5-0.2c-0.2,0-0.4,0-0.5,0.1c-1.8,1.1-3.9,0.9-5.9,1.5
			c-1.4,0.4-2.8,0.7-4.2,1c-0.2,0.1-0.6,0-0.7,0.1c-1.6,1.6-3.8,1.1-5.7,1.4c-1.2,0.2-2.4,0.3-3.3,1.1c-0.4,0.4-0.9,0.5-1.4,0.3
			c-0.5-0.2-1.1-0.1-1.5,0.1c-1,0.6-2.2,0-3.2,0.6c-0.9,0.6-2,0-3,0.4c-0.6,0.3-1.3,0.3-2,0.5c-1.6,0.4-3.2,1.3-5,1.1
			c-0.2,0-0.5,0.1-0.7,0.2c-1.6,0.7-3.3,0.9-4.9,1.2c-1.8,0.3-3.5,0.7-5.2,1.2c-1.6,0.5-3.1,1.2-4.8,1.5c-0.2,0-0.3,0.1-0.5,0.2
			c-1.1,1-2.3,1.4-3.8,1.3c-0.2,0-0.6,0-0.7,0.2c-1.3,1.2-3,0.9-4.6,1.3c-0.8,0.2-1.7,0.1-2.4,0.8c-0.1,0.1-0.5,0.2-0.7,0.1
			c-0.3-0.1-0.6-0.2-1,0.1c-0.3,0.2-0.7,0.4-1.1,0.6c-1.4,0.7-3,0.5-4.4,1.2c-1.2,0.7-2.8,0.6-4.2,0.8c-0.7,0.1-1.3,0.2-1.9,0.6
			c-0.8,0.5-1.6,0.6-2.5,0.5c-1-0.1-1.9,0.1-2.7,0.5c-1.8,0.8-3.8,1.1-5.7,1.5c-2.2,0.5-4.4,1.2-6.6,1.9
			C208.3,223.1,206.6,223.6,204.9,223.8z M363.2,88.3c-0.5,1.3-0.4,2.7-0.4,4c-0.1,1.3,0.1,2.5-0.4,3.8c-0.2,0.6-0.1,1.4-0.1,2
			c-0.1,1.9,0.1,3.9-0.4,5.8c-0.3,1.3-0.1,2.7-0.1,4.1c0,1.1,0.1,2.2-0.4,3.3c-0.2,0.5-0.1,1.2-0.1,1.8c-0.1,2.1,0.1,4.2-0.4,6.4
			c-0.4,1.5-0.1,3.2-0.1,4.9c0,0.9,0,1.9-0.3,2.8c-0.2,0.6-0.2,1.3-0.2,2c0,2.6,0,5.1,0,7.7c0,1.1,0,2.2-0.3,3.3
			c-0.3,0.9-0.1,1.9-0.1,2.8c-0.1,1.3,0.1,2.5-0.4,3.8c-0.2,0.5-0.1,1.2-0.1,1.8c0,1.6,0,3.2,0,4.9c0,1.3,0.1,2.5-0.4,3.8
			c-0.2,0.5-0.1,1.2-0.1,1.8c0,1.8,0,3.6,0,5.4c0,0.7-0.2,1.3-0.2,2c0,0.3,0,0.7,0,1c0,0.4,0.2,0.9,0.1,1.2
			c-0.4,1.7-0.4,3.4-0.4,5.1c-0.3-0.3-0.7-0.5-1.1-0.7c-1.4-0.4-2.9-0.9-4.4,0.2c-0.6,0.5-1.4,0.7-2,1.1c-0.4,0.2-0.9,0.5-1.3,0.9
			c-0.4,0.3-0.5,0.7-0.4,1.3c0.1,0.9,0.2,1.7-0.1,2.7c-0.4,1.2,0.1,2.2,0.8,3.3c1,1.6,2.3,2.4,4.2,2.3v0c1.9,0,2.5-0.2,3.8-1.5
			c0,0.8,0,1.5,0,2.3c0,0.4,0.1,0.9,0,1.3c-0.8,2.9-0.3,5.8-0.5,8.7c-0.1,1,0.1,2-0.4,3c-0.2,0.4-0.1,1-0.1,1.5c0,1.5,0,3.1,0,4.6
			c0,0.4,0.1,0.9,0,1.3c-0.8,2.4-0.3,4.9-0.5,7.4c0,0.8,0,1.7-0.3,2.5c-0.2,0.5-0.2,1.2-0.2,1.8c0,1.8,0,3.6,0,5.4
			c0,1.1,0.1,2.2-0.4,3.3c-0.2,0.4-0.1,1-0.1,1.5c0,1.5,0,2.9,0,4.4c0,0.9,0,1.9-0.3,2.8c-0.2,0.5-0.1,1.2-0.1,1.8
			c0,1.9,0,3.8,0,5.6c0,1.2,0.1,2.4-0.4,3.5c-0.2,0.4-0.1,1-0.1,1.5c0,1.6,0,3.2,0,4.9c0,1.1,0.1,2.2-0.4,3.3
			c-0.2,0.6-0.1,1.4-0.1,2c-0.1,1.9,0.3,3.9-0.5,5.8c0.4,1.3-0.2,2.7-0.1,4c0.1,1,0.1,2.1-0.1,3.1c-0.2,0.9-0.1,1.8-0.3,2.7
			c-0.3,1.5-0.1,3.1-0.1,4.6c0,1.1-0.1,2.2-0.3,3.3c-0.3,2.3-0.2,4.6-0.3,6.9c0,0.9,0.1,1.9-0.3,2.8c-0.2,0.5-0.2,1.2-0.2,1.8
			c0,1.7,0,3.4-0.1,5.1c0,0.8-0.2,1.5-0.3,2.3c-0.1,0.7-0.2,1.3-0.2,2c0,2,0,3.9,0,5.9c0,1-0.2,1.2-1.3,1.6c-5.5,2.1-11,4-16.5,6.3
			c-1.2,0.5-2.5,0.7-3.7,1.1c-4.3,1.5-8.7,3.1-13,4.7c-4.7,1.7-9.4,3.5-14.1,5.2c-3.1,1.1-6.3,2.1-9.4,3.2
			c-5.1,1.8-10.1,3.5-15.2,5.3c-1.9,0.7-3.7,1.7-5.7,2.2c-2.6,0.6-5,1.7-7.5,2.6c-3.4,1.1-6.7,2.5-10.1,3.7
			c-3.5,1.3-7.1,2.5-10.6,3.7c-0.4,0.1-0.8,0.4-1.2,0.5c-0.7,0.3-1.4,0.7-2.1,0.9c-1,0.3-2.1,0.3-3.1,1c-0.9,0.6-2.1,0.6-3.2,1
			c-0.3,0.1-0.7,0.2-1,0.3c-4.5,2.2-9.5,3.3-14.1,5.3c-2.5,1.1-5.1,1.9-7.6,2.9c-1.5,0.6-3,1.3-4.4,2c-0.7,0.3-0.8,0.3-0.8-0.6
			c0-1.5,0-3.1,0-4.6c0,0-0.1,0-0.1,0l0,0c0.1-1.9,0.2-3.7,0.3-5.6c0-0.3-0.1-0.7-0.1-1c0-0.9-0.2-1.8,0.1-2.5
			c0.5-1.3,0.4-2.7,0.4-4c0-3.3,0-6.7,0-10c0-1.5-0.2-3.1,0.4-4.6c0.2-0.5,0.1-1.2,0.1-1.8c0-3.2,0-6.3,0-9.5c0-1.4-0.1-2.7,0.4-4
			c0.2-0.5,0.1-1.2,0.1-1.8c0-4.1,0-8.2,0-12.3c0-0.8,0-1.7,0.3-2.5c0.2-0.6,0.2-1.3,0.2-2c0-2.6,0-5.3,0-7.9c0-1.2-0.1-2.4,0.4-3.5
			c0.2-0.5,0.1-1.2,0.1-1.8c0-2.4,0-4.8,0-7.2c0-0.9-0.1-1.9,0.3-2.8c0.2-0.4,0.1-1-0.1-1.5c-0.1-0.4-0.2-0.8-0.1-1.2
			c0.5-3,0.2-6.1,0.3-9.2c0.1-1.5-0.3-3.1,0.4-4.6c-0.5-1.7,0.2-3.3,0.2-5c-0.1-3.2,0-6.5,0-9.7c0-1.1-0.1-2.2,0.4-3.3
			c0.2-0.6,0.1-1.3,0.1-2c0-2,0-3.9,0.1-5.9c0-0.4,0.2-0.6,0.6-0.7c2.3-0.6,4.5-1.4,6.9-1.7c1.1-0.1,2.1-0.6,3.2-0.9
			c3.7-1.1,7.5-1.7,11.1-2.6c0.3-0.1,0.7-0.2,1-0.3c2.1-1,4.4-1.4,6.6-1.9c1.5-0.4,2.9-1,4.4-1.2c1.5-0.2,3-0.7,4.5-1.1
			c1.5-0.4,3-0.8,4.4-1.3c3.6-1.3,7.3-2.1,11.1-2.9c1.6-0.3,3.1-0.9,4.7-1.1c2.1-0.3,4.1-1.2,6.2-1.5c1-0.1,1.9-0.7,2.9-0.9
			c1.8-0.4,3.7-0.7,5.5-1.1c0.2,0,0.4,0,0.5-0.1c1.5-0.7,3.1-1,4.7-1.2c1.8-0.2,3.4-0.9,5.2-1.3c3-0.6,6-1.1,8.9-2
			c0.6-0.2,1.1-0.3,1.7-0.5c2.3-0.6,4.6-1.3,6.9-1.9c1-0.3,2-0.2,3-0.5c3.8-1.1,7.1-3.2,10.1-5.7c1.1-0.9,1.6-2.2,2.2-3.4
			c1.1-2,1.1-4,0.5-6.1c-0.7-2.5-2.2-4.6-3.6-6.7c-1.2-1.8-3.2-2.5-5.1-3.3c-1.9-0.8-3.8-1.3-5.9-1.2c-0.4,0-0.8-0.1-1.3-0.1
			c-0.3,0-0.7,0-1,0.1c-2.1,0.9-4.1,2-6,3.2c-1.7,1.1-2.9,2.6-3.8,4.4c-0.3,0.7-0.7,1.3-1.2,1.9c-0.9,1.1-1.5,2.3-1.9,3.6
			c-0.2,0.5-0.3,1-0.5,1.4c-0.3,0.8-0.7,1.3-1.7,1.4c-0.3,0-0.7,0.1-1,0.2c-0.9,0.2-1.6,1.4-2.7,0.9c-1,0.4-1.9,0.8-2.9,1.1
			c-1,0.3-2,0.6-2.9,1c-0.5,0.2-0.9,0.4-1.5,0.3c-1.3-0.1-2.2,0.1-3.2,0.5c-0.7,0.3-1.3,0.9-2.1,0.3c-1.2,0.4-2.5,0.4-3.8,0.4
			c-0.1,0-0.2,0.1-0.2,0.1c-0.6,0.2-0.9,0.9-1.8,0.7c-0.6-0.2-1.3,0.1-2,0.2c-1.9,0.1-3.6,0.8-5.5,1.2c-0.7,0.1-1.3,0.3-2,0.3
			c-0.5,0-1,0.2-1.5,0.3c-0.7,0.3-1.3,0.8-2.2,0.4c-1.5,0.8-3.3,0.8-4.9,1.3c-1,0.3-1.9,0.6-2.9,0.9c-0.3,0.1-0.7,0.2-1,0.1
			c-0.9-0.5-1.8,0-2.7,0c-1,0.1-2,0.3-3,0.6c-0.9,0.2-1.8,0.4-2.7,0.5c-1.3,0.2-2.7,0.3-4,0.6c-0.8,0.2-1.7,0.5-2.4,0.9
			c-1.5,0.8-3.2,0.6-4.8,0.5c-0.2,0-0.4-0.3-0.5-0.5c-0.1-0.2-0.1-0.5-0.1-0.8c0.2-2.8-0.3-5.4-1.1-8c-0.4-1.3-0.5-2.7-0.5-4
			c0-0.7,0-1.4,0-2c0-0.9-0.2-1.6-1.1-2.1c-0.6-0.3-0.9-1.1-1.5-1.3c-0.6-0.3-1.4-0.2-2-0.4c-0.8-0.3-1.5-0.2-2.2,0
			c-1.2,0.3-2.5,0.4-3.7,1c-0.3,0.2-0.7,0.2-1,0.2c-2-0.3-3.9,0.7-5.8,0.5c-0.4,0-0.6-0.3-0.6-0.7c0-0.5-0.1-1.1,0.1-1.5
			c0.4-0.9,0.3-1.8,0.3-2.8c0-2,0-3.9,0-5.9c0-0.6,0-1.2,0.2-1.8c0.3-0.9,0.3-1.8,0.1-2.7c-0.2-0.7-0.3-1.6-0.1-2.2
			c0.4-1.2,0.3-2.4,0.3-3.5c0-3.8,0-7.5,0-11.3c0-1.1-0.2-2.2,0.4-3.3c0.1-0.1,0.1-0.4,0.1-0.5c-0.6-1.1-0.1-2.1,0-3.2
			c0.1-0.9-0.3-1.8-0.4-2.7c-0.1-0.8,0.6-1.6,0.4-2.5c-0.3-1.1,0-2.1,0-3.2c0-2.2,0.4-4.4-0.3-6.6c-0.2-0.7-0.1-1.5,0-2.3
			c0-0.2,0.2-0.5,0.4-0.6c0.6-0.2,1.3-0.6,1.9-0.6c1.1,0,1.6-1.1,2.6-1.1c0.8,0,1.7,0,2.5-0.2c3.5-0.9,6.9-1.9,10.3-2.9
			c2.3-0.6,4.6-1.3,6.9-2c2.2-0.6,4.4-1.2,6.6-1.9c4.6-1.3,9.1-2.9,13.7-4.1c2.6-0.7,5.2-1.6,7.8-2.4c0.8-0.2,1.7-0.4,2.5-0.7
			c1.9-0.6,3.9-1.3,5.8-1.8c4.4-1.2,8.8-2.6,13.2-4c0.8-0.3,1.7-0.2,2.4-0.8c0.2-0.2,0.2-0.7,0.4-0.8c0.3-0.1,0.6,0.2,0.9,0.2
			c0.3,0,0.7,0,1-0.1c1.3-0.4,2.6-0.8,3.9-1.2c1.6-0.5,3.3-1,4.9-1.4c1.9-0.6,3.7-1.2,5.6-1.7c3.2-0.9,6.4-1.8,9.6-2.7
			c1-0.3,1.9-0.6,2.9-0.9c3.3-1,6.7-2,9.9-3.4c0.1,0,0.2-0.1,0.2-0.1c2,0.3,3.6-0.9,5.4-1.2c1.7-0.3,3.3-0.9,4.9-1.5
			c1.9-0.7,3.9-1.3,5.8-1.8c3.1-0.8,6.2-1.7,9.3-2.7c1.8-0.6,3.6-1.1,5.4-1.6c0.9-0.3,1.7-0.7,2.6-1c0.7-0.2,1.2,0.2,1.2,0.9
			C363.3,87.3,363.4,87.9,363.2,88.3z M355.1,179.6c-0.4,0.4-0.8,0.8-1.3,1.2c-0.1,0.1-0.3,0.1-0.5,0.2v0c-0.2-0.1-0.4-0.2-0.6-0.3
			c-0.3-0.3-0.5-0.8-0.3-1.1c0.4-0.8,1-1.5,1.9-1.9c0.4-0.2,0.9,0.1,1,0.5C355.4,178.7,355.5,179.2,355.1,179.6z"/>
		<path d="M179.3,73.5c2.8,0.5,5.6,1.2,8.5,1.7c1.3,0.2,2.6,0.2,3.8,0.6c2.5,0.7,5,0.8,7.5,1.3c1.7,0.4,3.5,0.4,5.3,0.6
			c0.6,0.1,1.3,0.5,1.7,0.3c1-0.4,1.8,0,2.7,0.1c1.7,0.2,3.3,0.7,5.1,0.5c0.3,0,0.7,0.1,1,0.2c0.5,0.1,1,0.3,1.5,0.3
			c2.5,0.1,4.9,0.5,7.3,1.1c1.9,0.5,3.9,0.6,5.8,0.9c2,0.3,4,0.9,6.1,0.6c0.2,0,0.5,0,0.7,0.1c0.8,0.4,1.7,0.3,2.5,0.4
			c0.5,0,1.1-0.1,1.5,0.1c1,0.4,2,0.5,3,0.4c1.5-0.2,2.8,0.9,4.3,0.3c0.1,0,0.3,0.1,0.4,0.2c0.6,0.6,1.4,0.6,2.2,0.6
			c1.1,0,2.2,0.1,3.3,0.4c1.3,0.3,2.7,0.2,4,0.6c1-0.4,2,0,3,0.2c0.8,0.2,1.5,0.3,2.3,0.3c0.9,0,1.7-0.1,2.5,0.4
			c1.7-0.1,3.3,0.8,5.1,0.6c0.3,0,0.7,0,1,0.2c0.7,0.4,1.5,0.3,2.3,0.3c0.5,0,1.1-0.1,1.5,0.1c0.9,0.3,1.8,0.4,2.8,0.5
			c1,0.1,2,0.3,3,0.5c0.9,0.1,1.8,0.4,2.8,0.4c2.4-0.1,4.7,0.6,7,0.8c0.9,0.1,1.8,0.5,2.7,0.1c0.2-0.1,0.7,0,1,0.2
			c1,0.6,2.1,0.7,3.2,0.7c1.1,0,2.2,0,3.3,0.4c1,0.4,2.2,0,3.3,0.5c0.3,0.2,0.8,0,1.2-0.1c1.8-0.4,3.7-0.8,5.4-1.4
			c2.8-0.8,5.7-1.1,8.3-2.3c0.3-0.1,0.7-0.2,1-0.2c0.9,0,1.4-0.4,2-0.9c0.5-0.5,1.1-0.8,1.6-1.3c0.4-0.3,0.7-0.8,0.9-1.2
			c0.3-0.4,0.2-0.6-0.2-0.8c-1.7-0.6-3.5-0.6-5.2-1c-0.8-0.2-1.7-0.5-2.5-0.5c-1.7,0.1-3.2-0.4-4.8-0.7c-1.2-0.2-2.3-0.4-3.5-0.4
			c-0.3,0-0.5,0-0.8-0.1c-1.5-0.6-3.2-0.5-4.7-0.9c-1.4-0.4-2.8-0.6-4.3-0.6c-1,0-1.9-0.6-2.9,0c-0.7-0.5-1.7,0.4-2.3-0.7
			c-0.1-0.2-0.5-0.2-0.7-0.2c-1.6,0.1-3.2-0.7-4.8-0.6c-0.7,0.1-1.4-0.5-2.2-0.2c-0.7,0.2-1.5-0.1-2.2-0.3c-2.1-0.5-4.3-1.1-6.5-1
			c-0.3,0-0.7,0-1-0.2c-0.7-0.3-1.3-0.3-2,0c-0.6,0.3-1.5,0.4-1.9,0c-0.7-0.9-1.5-0.4-2.2-0.4c-1.5,0.1-3.1,0-4.4-0.9
			c-1-0.7-1.9-0.8-2.9-0.4c-0.6,0.2-1.1,0.3-1.7,0c-3.1-1.3-3.1-1.3-6.8-1.3c-0.2,0-0.4,0-0.5-0.1c-0.6-0.3-1.3-0.8-1.9-0.7
			c-0.8,0.1-1.6,0-2.2-0.2c-1.8-0.6-3.7-0.3-5.5-1c-1.4,0.2-2.7-0.4-4-0.5c-1.4-0.1-2.7-0.2-4-0.6c-1.4-0.4-2.7-0.4-4-0.4
			c-0.6,0-1.2,0-1.8,0c-1.5,0.1-2.9-0.2-4.2-0.6c-1.6-0.5-3.3-1-5-0.9c-0.4,0-0.9,0-1.3-0.2c-0.7-0.4-1.3-0.1-1.9,0.2
			c-0.4,0.2-0.8,0.4-1.1-0.2c-0.1-0.1-0.2-0.3-0.4-0.3c-2.3-0.4-4.4-1.2-6.8-1.1c-1.4,0.1-2.7-0.5-4-0.8c-0.7-0.8-1.6-0.8-2.7-0.7v0
			c-0.9-0.1-1.9,0-2.6,0.6c-1.5,1-3.2,1.1-4.9,1.4c-2.4,0.4-4.8,1-7.2,1.5c-1.8,0.4-3.6,0.8-5.5,1.1c-1.3,0.2-2.3,0.7-3.3,1.3
			c-0.3,0.2-0.5,0.7-0.6,1c-0.1,0.4,0,0.8,0,1.3C178.5,73.1,178.6,73.3,179.3,73.5z M190.7,71c0.6-0.2,1.1-0.5,1.7-0.5
			c2.1-0.2,4-0.9,5.8-1.8c0.5-0.2,0.9-0.2,1.5-0.1c2.3,0.5,4.6,1.2,7,1.3c0.9,0,1.9,0.2,2.7,0.5c1,0.4,2,0,3,0.2
			c0.9,0.2,1.8,0.5,2.7,0.7c0.3,0.1,0.7,0.1,1,0.1c0.9,0,1.8,0.1,2.8,0.3c1.6,0.4,3.4,0.5,5,0.7c1.1,0.1,2.2,0,3.3,0.4
			c0.5,0.2,1.2,0.1,1.8,0.1c0.6,0,1.2,0.1,1.7,0.5c0.5,0.4,1,0.6,1.6,0.3c0.2-0.1,0.6-0.3,0.7-0.2c0.9,0.6,1.7-0.2,2.5,0
			c0.5,0.1,1,0.3,1.5,0.4c0.1,0,0.2,0,0.2,0.1c1.3,0.8,2.9,0.1,4.3,0.6c1.4,0.5,2.7,1,4.2,0.9c0.7,0,1.5,0.2,2.3,0.3
			c0.2,0,0.4,0.2,0.5,0.1c1.3-0.7,2.5,0.1,3.7,0.4c1.3,0.4,2.6,0.8,4,0.7c1.1,0,2.2,0.1,3.3,0.3c2.2,0.5,4.6,0.5,6.8,1.1
			c0.5,0.1,1,0.1,1.5,0c2.1-0.2,4.1,0.3,6.1,0.7c0.9,0.2,1.8,0.3,2.8,0.4c1.6,0.2,3.2,0.3,4.7,0.5c0.8,0.1,1.7,0.4,2.5,0.5
			c0.8,0.1,1.7,0,2.5,0.4c0.3,0.2,0.8,0,1.2-0.1c0.5-0.1,0.8-0.2,1.2,0.2c0.5,0.5,1.2,0.6,1.9,0.6c1.1,0.1,2.1,0.7,3.3,0.5
			c0.7-0.1,1.3-0.4,1.8,0.3c0.1,0.2,0.7,0.2,1,0.1c1.4-0.7,2.5-0.4,3.8,0.5c0.7,0.5,1.7,0.7,2.7,0.6c1.4-0.1,2.7-0.1,4,0.4
			c0.1,0.1,0.3,0.1,0.5,0c2-0.3,3.9,0.6,5.8,0.6c0.4,0,0.8,0.3,1.2,0.4c0.1,0,0.2,0.2,0.3,0.3c-0.1,0-0.1,0.1-0.2,0.1
			c-2.2,0.5-4.5,1.1-6.7,1.5c-0.8,0.2-1.8,0.2-2.6,0c-1.3-0.3-2.5-0.3-3.8-0.6c-0.8-0.2-1.7-0.3-2.5-0.3c-0.9,0-1.9,0.1-2.8-0.4
			c-0.2-0.1-0.5-0.1-0.8-0.1c-1.4,0-2.7-0.2-4-0.5c-1.5-0.3-3-0.7-4.5-0.6c-0.8,0-1.7-0.4-2.5-0.5c-0.8-0.1-1.7,0-2.5-0.4
			c-0.4-0.2-0.8-0.1-1.3-0.2c-1.1-0.2-2.3,0.6-3.2,0c-1-0.7-2.2-0.3-3.2-0.8c-0.3-0.2-0.7-0.2-1-0.2c-2-0.1-3.9-0.5-5.8-0.9
			c-0.2,0-0.3-0.1-0.5-0.1c-2,0.2-3.8-0.7-5.8-0.6c-0.9,0.1-1.8-0.5-2.7-0.1c-0.2,0.1-0.7-0.1-1-0.2c-1.1-0.3-2.1-0.7-3.2-0.8
			c-1-0.1-2-0.6-3-0.4c-0.9,0.2-1.8-0.4-2.8-0.2c-2.1-0.5-4.2-0.4-6.2-1.1c-0.6-0.2-1.2-0.3-1.7-0.3c-1-0.1-2,0-3-0.4
			c-0.5-0.2-1-0.1-1.5-0.1c-0.6,0-1.2,0-1.8-0.2c-1.1-0.4-2.2-0.4-3.3-0.3c-1,0-1.8-0.1-2.7-0.5c-1-0.4-2.1-0.7-3.2-0.6
			c-1,0.1-2-0.7-3-0.1c-0.9-0.3-1.8-0.5-2.7-0.8c-0.1,0-0.2-0.1-0.2-0.1c-1-0.4-2,0.5-3,0c-0.9-0.5-1.7-0.6-2.7-0.6
			c-0.4,0-0.9,0-1.3-0.1c-0.8-0.4-1.7-0.3-2.5-0.3c-0.9,0-1.9,0.1-2.8-0.4c-0.3-0.2-0.7-0.1-1-0.1c-0.9,0-1.8-0.1-2.8-0.4
			c-0.8-0.2-1.7-0.1-2.6-0.2l0,0c-1.3,0-2.5,0-3.8-0.4c-1.2-0.4-2.4-0.7-3.8-0.6c-0.7,0-1.5-0.3-2.2-0.5c-0.1,0-0.1-0.1-0.2-0.2
			C190.6,71.2,190.7,71,190.7,71z"/>
	</g>
</g>
</svg>
