<?xml version="1.0" encoding="utf-8"?>
<!-- Generator: Adobe Illustrator 27.5.0, SVG Export Plug-In . SVG Version: 6.00 Build 0)  -->
<svg version="1.1" id="Calque_1" xmlns="http://www.w3.org/2000/svg" xmlns:xlink="http://www.w3.org/1999/xlink" x="0px" y="0px"
	 viewBox="0 0 182 116" style="enable-background:new 0 0 182 116;" xml:space="preserve">
<style type="text/css">
	.st0{fill:#C21146;}
	.st1{fill:#B3B3B3;}
	.st2{fill:#333333;}
	.st3{fill:#0F0F0F;}
	.st4{fill:none;stroke:#0F0F0F;}
	.st5{opacity:0.2;}
	.st6{fill:none;stroke:#000000;}
</style>
<path class="st0" d="M46.8,1.8h-37c-4.3,0-7.7,3.4-7.7,7.7v33.6c0,4.3,3.5,7.7,7.7,7.7h37c4.3,0,7.7-3.4,7.7-7.7V9.5
	C54.5,5.3,51,1.8,46.8,1.8z"/>
<path class="st1" d="M176.1,7.8H70.4c-1.5,0-2.7,1.2-2.7,2.7v5.4c0,1.5,1.2,2.7,2.7,2.7h105.7c1.5,0,2.7-1.2,2.7-2.7v-5.4
	C178.8,9,177.6,7.8,176.1,7.8z"/>
<path class="st2" d="M134.1,29.7H70c-2,0-3.7,1.6-3.7,3.7v5.4c0,2,1.7,3.7,3.7,3.7h64.1c2,0,3.7-1.6,3.7-3.7v-5.4
	C137.7,31.4,136.1,29.7,134.1,29.7z"/>
<path d="M180.4,10.7L180.4,10.7c0-0.6,0-1,0-1.5c0-0.8-0.3-1.5-0.9-1.9c-0.9-0.9-2-1.2-3.2-1c-0.5,0.1-1,0.1-1.5,0.1
	l-0.6,0c-0.6,0-1.2,0-1.8,0c-0.5,0-0.9,0-1.4,0c-0.3,0-0.6,0-0.9,0c-0.9,0-1.7,0-2.5,0c-0.2,0-0.5,0-0.7,0c-0.5,0-1,0-1.5,0.1
	c-0.4-0.1-0.8-0.1-1.2-0.1c-0.3,0-0.6,0-0.8,0c-0.6-0.1-1.2-0.1-1.9,0.1c-0.1,0-0.1,0-0.1,0c-0.3-0.2-1.5-0.3-1.9-0.2
	c-0.3,0.1-0.5,0.1-0.7,0.1c-0.2-0.1-0.4-0.1-0.6-0.1c-0.1,0-0.3,0-0.4,0c-0.7-0.2-1.3,0-1.8,0.1c-0.4,0.1-0.6,0.1-0.8,0.1
	c-0.3-0.1-0.6-0.1-0.9-0.1c-0.1,0-0.3,0-0.4,0c-0.1,0-0.2,0-0.3,0c-0.2,0-0.4-0.1-0.6-0.1c-2.5,0-5,0-7.6,0c-0.2,0-0.5,0-0.7,0.1
	c-0.1,0-0.1,0.1-0.2,0.1c-0.4,0.2-0.4,0.2-0.6,0c-0.2-0.2-0.4-0.2-0.6-0.2c-1.2,0-2.4,0-3.5,0.1c-0.1,0-0.2,0-0.2,0
	c-0.1,0-0.1,0-0.2,0c-0.3,0-0.6,0-0.9-0.1l-0.7,0c-0.2,0-0.5,0-0.7,0c-0.3,0-0.6,0.1-0.8,0c-0.2-0.1-0.4,0-0.5,0.1c0,0-0.1,0-0.2,0
	c-0.1,0-0.2,0-0.2,0c-0.5-0.2-0.9-0.2-1.4-0.2l-0.3,0c-2.2,0-4.5,0-6.7,0l-0.1,0c-0.5,0-0.9,0-1.4,0.2c-0.1,0-0.3,0-0.5,0
	c-0.3-0.1-0.6,0-0.8,0c-0.1,0-0.1,0-0.2,0c-0.1,0-0.3-0.1-0.4-0.1c-0.2,0-0.3-0.1-0.5-0.1c-0.2,0-0.3,0-0.3,0.1l-0.1,0
	c0,0-0.1,0-0.1,0c-0.4-0.2-0.8-0.2-1.2-0.2l-1,0c-1,0-1.9,0-2.9,0c-0.2,0-0.4,0-0.5,0c-0.5,0-1-0.1-1.5,0.1
	c-0.4-0.2-0.9-0.2-1.3-0.2c-0.1,0-0.2,0-0.4,0c-0.6,0-1.2,0-1.7,0c-0.4,0-0.8,0-1.1,0c-0.1,0-0.2,0-0.3,0c-0.4,0-0.8,0-1.2,0.2
	c0,0,0,0-0.1,0c-0.7-0.2-1.3-0.2-2-0.2c-0.3,0-0.6,0-0.9,0c-0.1,0-0.3,0-0.5,0.1c-0.4,0.2-0.9,0.2-1.4,0.1c-0.2,0-0.4,0-0.5,0
	c-0.4-0.2-0.8-0.2-1.1-0.2c-0.1,0-0.2,0-0.3,0c-0.7,0-1.4,0-2,0c-1,0-2.1,0-3.1-0.1c-0.1,0-0.3,0-0.4,0.1c-0.2,0.1-0.5,0.1-0.8,0.1
	c-0.1,0-0.2,0-0.3,0c-0.5,0-1,0-1.4,0c-0.1,0-0.3,0-0.4,0c-0.4,0-0.7,0-1.1-0.1c-0.4-0.1-0.7,0-1,0c-0.2,0-0.3,0.1-0.5,0.1
	c-1.2,0-2.5,0-3.7,0l-8.8,0c-0.3,0-0.7,0-1,0c-2,0-4,0-6,0c-0.1,0-0.2,0-0.3,0c-0.2,0-0.4,0-0.5,0l-0.1,0c-0.4-0.1-0.9-0.2-1.3-0.1
	c-0.4,0.1-0.7,0.3-0.9,0.4c-0.1,0.1-0.2,0.1-0.3,0.2l-0.2,0.1C68.2,6.9,68,7,67.8,7.1l-0.1,0.1c-0.3,0.2-0.6,0.4-0.7,0.7l-0.1,0.3
	c-0.3,0.5-0.5,1.1-0.5,1.7c0,1.3-0.1,2.7-0.2,4l-0.1,1.1c0,0.5,0,1-0.2,1.5c-0.2,1,0,1.9,0.8,2.7c0.9,0.8,1.8,1.3,3,1.3
	c0,0,0,0,0.1,0c1.6,0,3.2,0,4.9,0c1,0,2,0,3,0c0.2,0,0.4,0,0.6-0.1c0.4,0,0.8,0,1.2,0c0.2,0,0.4,0,0.7,0c0.7,0,1.3,0,2,0l4.9,0
	c0.6,0,1.1,0,1.7,0c0.5,0,1,0,1.4,0l1.3,0l3.4,0c0.8,0,1.5,0,2.3,0c0.4,0,0.8,0,1.2,0c0.5,0,1,0,1.6,0c0.3,0,0.6,0,0.8-0.1
	c0.2,0,0.4-0.1,0.6-0.1c0.9,0,1.7,0,2.6,0l1.1,0c0,0,0,0,0,0c0.1,0,0.3,0,0.4,0c0.3,0,0.7,0,1,0c0.5-0.1,1.1-0.1,1.6,0
	c0.6,0.1,1.5,0.1,2.3-0.3c0,0,0.1,0,0.2,0l0.3,0.1c0.5,0.1,1,0.2,1.5,0.3c0.7,0,1.4,0,2.1,0l0.5,0c0.2,0,0.6,0,0.9-0.1
	c0.3-0.1,0.4-0.1,0.6,0c0.4,0.2,0.8,0.2,1.2,0.1c0.9-0.2,1.8-0.2,3,0c0.2,0,0.4,0.1,0.6,0c0.7-0.2,1.3-0.2,2-0.1l0.3,0
	c0.5,0,1,0.1,1.5,0.1l0.2,0c0.5,0,1,0,1.5-0.1c0.3,0,0.6-0.1,0.9-0.1c1.6,0,3.1,0,4.6,0l0.2,0c0.5,0,1,0,1.4-0.2
	c0.8,0.2,1.6,0.2,2.3,0.2c0.5,0,1,0,1.5,0c0.3,0,0.6,0,0.9-0.1c0.4-0.1,0.8-0.1,1.2,0c0.2,0,0.3,0,0.4,0c0.1,0,0.3,0,0.4-0.1
	c0.5-0.1,0.9-0.1,1.3,0.1c0.2,0.1,0.4,0.1,0.6,0c0.1,0,0.2,0,0.3-0.1c0.1,0,0.3-0.1,0.4-0.1c0.1,0,0.3,0,0.4,0c0.1,0,0.3,0,0.4,0
	c0.3,0,0.7,0,1,0c0.3,0,0.6,0,0.9,0c0,0,0.1,0,0.1,0c0.1,0,0.2,0,0.3,0c1.2-0.1,2.4-0.1,3.6-0.1l0.7,0c0.4,0,0.7,0,1.1,0
	c0.3,0,0.7,0,1,0l0.5,0c0.6,0,1.2,0,1.7,0c0.2,0,0.3,0,0.5,0c0.4,0,0.8,0.1,1.2-0.1c0,0,0.1,0,0.2,0c0.1,0,0.1,0,0.2,0l0.9,0
	c0.8,0,1.6,0,2.4,0c0.3,0,0.7-0.1,1.1-0.2c0.3-0.1,0.5-0.1,0.6,0c0.5,0.2,1,0.2,1.5,0c0.1,0,0.2,0,0.4,0c0.2,0.1,0.5,0.2,0.8,0.1
	c0.4-0.1,0.7-0.1,1.1,0c0.2,0,0.4,0,0.7,0c0,0,0,0,0,0c0,0,0.2,0,0.3,0c0.3,0,0.6,0.1,1-0.1c0,0,0.1,0,0.2,0c0.1,0,0.2,0,0.3,0
	c0.2,0,0.4,0.1,0.6,0.1c0.4,0,0.8,0,1.2,0c0.8,0,1.7,0,2.6-0.2c0.2,0,0.4,0,0.7,0c0.3,0,0.6,0.1,1,0c0.4,0.2,0.9,0.2,1.4,0
	c0.2-0.1,0.4-0.1,0.7-0.1c0.2,0,0.4,0,0.6,0c0.3,0,0.7-0.1,0.9-0.2c0.8-0.3,1.3-0.6,1.6-1.1c0.4-0.7,0.8-1.5,0.8-2.5
	c0-0.2,0-0.3,0-0.5c0-0.4,0-0.8,0-1.1c0.1-0.7,0.2-1.3,0.2-1.9c0-0.3,0-0.6,0-0.8L180.4,10.7L180.4,10.7z M69.2,17.3
	c-0.3-0.6-0.4-1.1-0.2-1.8c0,0,0-0.1,0-0.1c0-0.1,0.1-0.3,0-0.5c-0.1-0.5-0.1-1,0-1.5c0-0.4,0.1-0.8,0.1-1.2c0-0.6,0-1.2,0-1.8
	c0-0.3,0-0.6,0-1c0-0.1,0-0.2,0.2-0.3c0.4-0.3,0.7-0.4,1-0.5c0.3,0,0.5-0.1,0.8-0.1c0.7-0.1,1.3-0.2,1.9,0c0.3,0.1,0.5,0.1,0.8,0.1
	l0.2,0l14,0c0.4,0,0.7,0,1.1,0c0.9,0,1.8,0,2.7,0c1.2,0.1,2.3,0.1,3.3,0.1c1.6,0,3.2,0,4.7,0l1.5,0c0.1,0,0.2,0,0.3,0
	c0.2,0,0.4,0,0.5-0.1c0.4-0.1,0.7-0.1,1-0.1c0.6,0.1,1.2,0.1,1.7,0.1c0.2,0,0.4,0,0.6,0c0.5,0,1,0,1.5-0.1c0.3,0.1,0.5,0,0.7,0
	c0.3,0,0.4-0.1,0.6,0l0.1,0.1l0.1,0c0.2,0,0.4,0,0.5,0c0.4,0,0.9,0,1.4,0c0.3,0,0.5,0,0.7,0c0.2,0,0.4,0.1,0.6,0
	c0.4-0.1,0.7-0.1,1.1,0c0.2,0,0.4,0,0.6,0l0.5,0c0.4,0,0.9,0,1.3,0c0.4,0,0.7-0.1,1-0.1c0.5-0.1,1-0.1,1.5,0
	c0.4,0.1,0.8,0.2,1.3,0.1c0.2,0,0.5,0,0.7,0c0.5,0,1,0,1.6-0.1c0.1,0,0.1,0,0.2,0c1,0.2,2,0.2,3,0.1c0.4,0,0.8,0,1.2,0l0.1,0l0.1,0
	c0.2-0.1,0.4,0,0.7,0c0.2,0,0.4,0.1,0.7,0.1c0.4,0,0.9,0,1.3,0c0.7,0,1.5,0,2.3-0.1c0.3,0.1,0.6,0.1,0.8,0.1c0.1,0,0.2,0,0.4,0
	c1,0.1,2,0.1,3,0.1l1,0c0.1,0,0.3,0,0.4,0c0.2-0.1,0.4-0.1,0.6,0c0.2,0.1,0.4,0.1,0.6,0l0.2,0l2.1,0c2.4,0,4.8,0,7.1,0
	c1.1,0,2.2,0,3.2,0c1.5,0,3.1,0,4.6,0c0.3,0,0.4-0.1,0.6-0.1c0.2-0.1,0.4-0.1,0.5-0.1C156.6,9,157,9,157.6,9c1.5,0,3,0,4.5,0
	c0.7,0,1.5,0,2.2,0l0.9,0c0,0,0.1,0,0.2,0c0.6,0.1,1.2,0.1,1.8,0c0.3,0,0.7,0,1,0c0.2,0,0.5,0,0.7,0c0.5,0,1,0,1.5,0
	c0.7,0,1.5,0,2.2,0.1c0.8,0.1,1.5,0.1,2.3-0.1c0,0,0.2,0,0.2,0l0.1,0c0.4,0.1,0.9,0.2,1.5,0c0.1,0,0.2-0.1,0.2-0.1c0,0,0,0,0,0
	c0.2,0.1,0.3,0.1,0.3,0.2c0.1,0.3,0.2,0.6,0.2,0.9c0,0.4,0,0.8,0,1.2l0,0.8l0,0l0,0.6c-0.1,1-0.1,2-0.2,3c0,0.2-0.1,0.4-0.2,0.6
	c-0.1,0.3-0.3,0.5-0.7,0.5c-0.4,0-0.8,0.1-1.1,0.1c-0.5,0.1-1,0.1-1.6,0.1c-0.3,0-0.5,0.1-0.8,0.2c0,0-0.1,0-0.1,0
	c-0.3-0.2-0.7-0.2-0.9-0.2l-0.1,0c-0.6,0-1.2,0-1.8,0l-1.7,0c-0.3,0-0.6,0-0.9,0.1c-0.1,0-0.2,0-0.3,0.1c-0.3-0.1-0.5-0.1-0.7,0
	c-0.1,0-0.2,0-0.2,0c-0.7-0.1-1.5-0.2-2.2,0.1c-0.4-0.2-0.7-0.1-1-0.1c-0.1,0-0.2,0-0.3,0c-0.2,0-0.3,0-0.5,0.1
	c-0.4,0.1-0.6,0.1-0.9-0.1c-0.2-0.1-0.5-0.1-0.7-0.1c-0.1,0-0.1,0-0.2,0H160c-2.7,0-5.4,0-8.1,0c-0.2,0-0.3,0-0.5,0
	c-0.3,0-0.6,0-0.8,0c-0.3-0.1-0.6,0-0.8,0.1c-0.3,0.2-0.5,0.1-0.9,0.1c-0.8-0.1-1.5,0-2.2-0.1c-0.3-0.1-0.6,0-0.8,0
	c-0.1,0-0.2,0-0.3,0.1l-0.3,0c-0.2,0-0.5,0.1-0.7,0.1c-0.1,0-0.3,0-0.4,0c-0.2,0-0.4-0.1-0.6-0.1c-0.1,0-0.2,0-0.3,0
	c-0.3,0-0.4,0.1-0.5-0.1c-0.3-0.2-0.7-0.2-0.9-0.1c-0.5,0.1-1,0.1-1.5,0.1l-7.1,0c-1,0-2,0-3,0c-0.1,0-0.2,0-0.4,0
	c-0.4,0-0.8,0-1.3,0.1c0,0-0.2,0-0.2,0c-0.1,0-0.2-0.1-0.4-0.1c-0.6,0-1.3,0-1.9,0h-0.5c-0.9,0-1.7,0-2.6,0c-0.3,0-0.6,0-0.9,0.1
	l-0.4,0c0,0-0.1,0-0.1,0c-0.6-0.2-1.2-0.2-1.7-0.2c-0.2,0-0.5,0-0.7,0c-0.4,0-0.9,0-1.3,0c-0.5,0-1,0-1.5,0c-0.3,0-0.5,0-0.8,0.1
	c-0.3,0-0.5,0.1-0.8,0c-0.4-0.1-0.8-0.1-1.2-0.1c-0.2,0-0.4,0-0.5,0c-0.5,0-1.1,0-1.6,0.3c-0.3-0.3-0.6-0.2-0.7-0.1
	c-0.1,0-0.2,0-0.3-0.1c-0.2,0-0.4-0.1-0.7-0.1c-0.2,0-0.4,0.1-0.6,0.2c-0.1,0.1-0.2,0.1-0.3,0.1c-0.3,0.1-0.4,0-0.5,0
	c-0.4-0.3-0.8-0.4-1.2-0.4c0,0-0.1,0-0.1,0c-0.2,0-0.3,0-0.5,0c-0.4,0-0.8,0-1.2,0c-0.3,0-0.5,0-0.8,0c-0.3,0-0.6,0-0.9,0
	c-0.6,0.1-1.1,0-1.6,0c-0.5-0.1-1.1-0.1-1.6,0c-0.5,0-1,0-1.4,0.1c-0.5,0-0.9,0-1.4,0c-0.7-0.1-1.5-0.1-2.3,0c-1,0.1-2,0.1-3,0.1
	c-0.4,0-0.8,0-1.3,0c-1,0-2,0-2.9,0l-0.7,0c-0.3,0-0.6,0-1,0.1c-0.3-0.1-0.6-0.1-0.9-0.1l-16,0l-0.2,0c-0.1,0-0.2,0-0.3,0
	C69.2,17.4,69.2,17.4,69.2,17.3z"/>
<path d="M55.7,25.8c-0.1,3.4-0.2,6.8-0.2,10.1c0,1.7-0.1,3.3-0.1,5c0,0.3,0,0.6,0,0.9c0,0.4,0.1,0.7,0,1.1
	c-0.2,1.1-0.1,2.2-0.5,3.2c-0.4,1-0.9,1.9-1.7,2.7c-0.7,0.7-1.4,1.4-2.2,1.9c-1.1,0.7-2.3,1-3.5,1.1c-0.2,0-0.4,0-0.5,0.1
	c-0.5,0.2-0.9,0.1-1.4,0c-0.2,0-0.4-0.1-0.5-0.1c-0.4,0.1-0.8,0.2-1.2,0c-0.2-0.1-0.5,0.1-0.7,0.1c-0.9,0-1.8,0.1-2.6-0.2
	c-0.1,0-0.2-0.1-0.2,0c-0.8,0.4-1.8-0.1-2.6,0.3c-0.1,0-0.2,0-0.3,0c-0.5-0.2-1-0.1-1.5,0c-1,0-1.9,0-2.9,0c-2.1,0-4.2-0.1-6.3-0.1
	c-0.6,0-1.2,0.1-1.7,0.1c-0.7,0-1.5,0.1-2.2-0.1c-0.6,0.2-1.1,0-1.6-0.1c-0.2-0.1-0.5,0-0.8,0.1c-0.8,0.1-1.5,0.3-2.3,0.2
	c-0.5,0-1,0-1.5,0c-1.3,0-2.6,0-4-0.1c-0.4,0-0.7-0.1-1.1-0.1c-0.3,0-0.6,0.1-1,0.1c-0.7,0.1-1.5,0-2.3,0.1
	c-0.6,0.1-1.1-0.2-1.7-0.5C6.3,51.3,6,51.2,5.7,51c-1.8-1.1-3.1-2.7-3.8-4.7c-0.4-1.1-0.6-2.2-0.5-3.3c0.1-1.8,0.1-3.5,0.1-5.3
	c0-0.3,0-0.6-0.1-0.9c0-0.1-0.1-0.3-0.1-0.4c0.2-0.7,0-1.4,0-2.2c0.1-0.7,0-1.4,0-2.1c0-0.7,0-1.5,0-2.2c0-0.7,0.1-1.4-0.1-2.1
	c0-0.1,0-0.3,0-0.4c0-2.9,0.1-5.7,0.1-8.6c0-0.4-0.1-0.7-0.1-1.1c0-0.6,0-1.2,0-1.8c0-1-0.1-2-0.3-3.1C1,12.6,1,12.3,1,12
	c0-1,0.1-2,0-3C1,7.9,1.4,6.8,2,5.8c0.2-0.4,0.5-0.7,0.6-1.1c0-0.2,0.2-0.4,0.4-0.5c0.7-0.7,1.5-1.3,2.2-1.9c0.6-0.2,1-0.6,1.5-0.9
	C7.5,1,8.3,0.9,9.1,0.7c0.5-0.1,1-0.1,1.5-0.1c1.1,0,2.1,0,3.2,0.1c0.3,0,0.6,0.1,0.9,0.1c0.2,0.1,0.4,0.1,0.6,0
	c0.3-0.1,0.6-0.1,1-0.1c2.5,0.1,5,0.1,7.5,0.2C25.6,1,27.3,1,29,1C29.3,1,29.5,1,29.8,1c0.3,0,0.5,0,0.8,0c0.3,0.1,0.6,0.1,0.9,0
	c0.2-0.1,0.4-0.1,0.6,0c0.3,0.1,0.5,0,0.8,0c0.6-0.1,1.2,0.2,1.7,0c0.9,0.2,1.7,0,2.6,0.1c0.3,0,0.7,0.1,1,0.1c0.2,0,0.4,0,0.5,0
	c0.7,0,1.3-0.1,2,0.1c0.2,0.1,0.4,0.1,0.7,0c1.2-0.2,2.5-0.1,3.7,0c0.6,0,1.2,0,1.7,0.2c0.2,0.1,0.4,0,0.5-0.1
	c0.5-0.1,1-0.1,1.5,0.1c1.2,0.5,2.5,1,3.5,1.8c0.3,0.2,0.5,0.4,0.7,0.7c0.7,1,1.6,2,2.2,3.1c0.6,1.2,0.9,2.5,0.9,3.8
	c-0.1,3.6-0.2,7.3-0.3,10.9C55.8,23.1,55.7,24.5,55.7,25.8L55.7,25.8L55.7,25.8z M3.2,41.2C3.2,41.2,3.2,41.2,3.2,41.2
	c0,0.6-0.1,1.2,0,1.8c0.2,1.1,0.5,2.1,1,3.1c0.1,0.3,0.3,0.5,0.5,0.7c0.3,0.5,0.6,1,1,1.5c0.1,0.1,0.1,0.2,0.2,0.2
	c0.6,0.2,1.1,0.6,1.7,1C8,49.7,8.4,49.9,8.9,50c0.6,0.1,1.3,0.2,2,0.3c0.3,0,0.6,0.1,0.9,0.2c0.3,0.1,0.5-0.3,0.8-0.3
	c0,0,0.1,0,0.1,0c0.5,0,1-0.1,1.5,0.1c0.2,0.1,0.5,0.1,0.8,0.1c0.5,0,1.1,0.1,1.6-0.2c0.1-0.1,0.3,0,0.4,0c1.4-0.1,2.9,0.2,4.3-0.1
	c0.1,0,0.1,0,0.2,0c0.8,0,1.7,0.1,2.5,0c0.9-0.1,1.7,0.4,2.6,0.1c0,0,0.1,0,0.1,0c0.3,0.2,0.6,0.1,0.9,0c0.4-0.1,0.7-0.1,1,0.1
	c0.2,0.2,0.4,0.1,0.6,0c0.3-0.3,0.7-0.3,1-0.3c0.3,0,0.7,0.1,1,0.1c0.3,0,0.6,0.1,0.9,0c0.5-0.1,0.9-0.1,1.4-0.1c2,0,4,0.2,5.9,0
	c0.3,0.3,0.7-0.2,1,0.2c0,0,0.2,0.1,0.3,0c0.4-0.4,0.8-0.3,1.3-0.3c0.8,0,1.5,0.1,2.3-0.1c0.1,0,0.2,0,0.2,0c0.7,0.2,1.3,0,2,0
	c0.7,0,1.4-0.2,2-0.4c0.4-0.2,0.9-0.3,1.3-0.5c0.5-0.2,1-0.4,1.4-0.7c1.6-1.3,2.1-3.1,2.1-5.1c0-0.4,0-0.8,0-1.2c0-1,0-1.9,0-2.9
	c0-1,0-1.9,0.1-2.9c0-1,0-2,0.1-3c0.1-0.9-0.2-1.9,0-2.8c0-0.1,0-0.2,0-0.3c-0.1-0.3-0.1-0.6,0-1c0.1-0.3-0.1-0.6,0.1-1
	c0.1-0.2,0.1-0.4,0-0.5c-0.1-0.5-0.1-0.9,0-1.4c0.1-0.5-0.1-0.9,0-1.4c0-2.9,0.1-5.7,0.2-8.6c0-0.3,0-0.6,0-0.9
	c-0.1-0.4,0-0.7,0-1.1c0.1-1.5,0.1-3-0.4-4.4c0-0.1,0-0.3-0.1-0.4c-0.1-1.8-1.2-3.1-2.3-4.4c-0.1-0.1-0.2-0.1-0.3-0.2
	c-1-0.9-2.3-1.1-3.5-1.4c-0.4-0.1-0.7-0.1-1.1-0.1c-0.4,0-0.8,0.1-1.2,0.1c-0.4,0-0.9-0.1-1.2,0c-0.4,0.2-0.8-0.1-1.2-0.1
	c-0.6,0-1.2-0.1-1.8,0c-0.4,0.1-0.9,0.1-1.3,0.1c-0.5,0-0.9-0.1-1.4-0.1c-0.4-0.1-0.9,0.1-1.4,0.1c-0.4,0-0.9-0.1-1.3-0.1
	c-0.5,0-0.9,0-1.4-0.1c-0.2-0.1-0.4,0-0.6,0.1c-0.4,0-0.7,0.1-1.1,0c-0.5,0-1.1-0.1-1.6-0.2c-0.4-0.1-0.7,0.1-1.1,0.1
	c-0.4,0-0.7-0.2-1.1-0.1c-0.7,0.1-1.3,0.1-2,0.1c-1.1,0-2.3-0.1-3.4-0.1c-1.2,0-2.3-0.2-3.5,0c-0.1,0-0.1,0-0.2,0
	c-0.5-0.1-0.9-0.2-1.4-0.3c-0.2,0-0.4,0-0.6,0C16.5,3.1,15.8,3,15.1,3c-0.1,0-0.3,0-0.3-0.1c-0.2-0.3-0.3-0.1-0.5,0
	c-0.4,0.2-0.9,0.2-1.3,0c-0.3-0.1-0.6-0.1-0.9,0C11.8,3,11.4,3,11,3.1c-0.8-0.3-1.5,0-2.2,0.2C8.3,3.3,7.9,3.4,7.5,3.5
	C7,3.7,6.6,3.8,6.3,4.2C6.1,4.4,5.9,4.6,5.7,4.7C5.3,4.9,5,5.2,4.8,5.5C4.7,5.7,4.6,5.8,4.5,6C3.8,6.7,3.4,7.6,3.1,8.6
	C3,9,2.8,9.4,3,9.8c0.1,0.2,0,0.4,0,0.7c0,0.7,0,1.4,0,2.1C2.9,13.3,3.3,14,3,14.8c0.2,1.3,0,2.6,0,4c0,0.4-0.1,0.9,0,1.3
	c0.2,0.8,0.1,1.6,0.1,2.4c0,2.6-0.2,5.1,0,7.7c-0.1,1.5,0.1,2.9-0.2,4.4c0,0.1,0,0.2,0,0.3c0,0.3,0.1,0.6,0.1,0.9
	c-0.2,1.2,0.3,2.4,0,3.6c0,0,0,0.1,0,0.1C3.2,40,3.2,40.6,3.2,41.2L3.2,41.2z"/>
<path d="M55.7,25.8c-0.1,3.4-0.2,6.8-0.2,10.1c0,1.7-0.1,3.3-0.1,5c0,0.3,0,0.6,0,0.9c0,0.4,0.1,0.7,0,1.1
	c-0.2,1.1-0.1,2.2-0.5,3.2c-0.4,1-0.9,1.9-1.7,2.7c-0.7,0.7-1.4,1.4-2.2,1.9c-1.1,0.7-2.3,1-3.5,1.1c-0.2,0-0.4,0-0.5,0.1
	c-0.5,0.2-0.9,0.1-1.4,0c-0.2,0-0.4-0.1-0.5-0.1c-0.4,0.1-0.8,0.2-1.2,0c-0.2-0.1-0.5,0.1-0.7,0.1c-0.9,0-1.8,0.1-2.6-0.2
	c-0.1,0-0.2-0.1-0.2,0c-0.8,0.4-1.8-0.1-2.6,0.3c-0.1,0-0.2,0-0.3,0c-0.5-0.2-1-0.1-1.5,0c-1,0-1.9,0-2.9,0c-2.1,0-4.2-0.1-6.3-0.1
	c-0.6,0-1.2,0.1-1.7,0.1c-0.7,0-1.5,0.1-2.2-0.1c-0.6,0.2-1.1,0-1.6-0.1c-0.2-0.1-0.5,0-0.8,0.1c-0.8,0.1-1.5,0.3-2.3,0.2
	c-0.5,0-1,0-1.5,0c-1.3,0-2.6,0-4-0.1c-0.4,0-0.7-0.1-1.1-0.1c-0.3,0-0.6,0.1-1,0.1c-0.7,0.1-1.5,0-2.3,0.1
	c-0.6,0.1-1.1-0.2-1.7-0.5C6.3,51.3,6,51.2,5.7,51c-1.8-1.1-3.1-2.7-3.8-4.7c-0.4-1.1-0.6-2.2-0.5-3.3c0.1-1.8,0.1-3.5,0.1-5.3
	c0-0.3,0-0.6-0.1-0.9c0-0.1-0.1-0.3-0.1-0.4c0.2-0.7,0-1.4,0-2.2c0.1-0.7,0-1.4,0-2.1c0-0.7,0-1.5,0-2.2c0-0.7,0.1-1.4-0.1-2.1
	c0-0.1,0-0.3,0-0.4c0-2.9,0.1-5.7,0.1-8.6c0-0.4-0.1-0.7-0.1-1.1c0-0.6,0-1.2,0-1.8c0-1-0.1-2-0.3-3.1C1,12.6,1,12.3,1,12
	c0-1,0.1-2,0-3C1,7.9,1.4,6.8,2,5.8c0.2-0.4,0.5-0.7,0.6-1.1c0-0.2,0.2-0.4,0.4-0.5c0.7-0.7,1.5-1.3,2.2-1.9c0.6-0.2,1-0.6,1.5-0.9
	C7.5,1,8.3,0.9,9.1,0.7c0.5-0.1,1-0.1,1.5-0.1c1.1,0,2.1,0,3.2,0.1c0.3,0,0.6,0.1,0.9,0.1c0.2,0.1,0.4,0.1,0.6,0
	c0.3-0.1,0.6-0.1,1-0.1c2.5,0.1,5,0.1,7.5,0.2C25.6,1,27.3,1,29,1C29.3,1,29.5,1,29.8,1c0.3,0,0.5,0,0.8,0c0.3,0.1,0.6,0.1,0.9,0
	c0.2-0.1,0.4-0.1,0.6,0c0.3,0.1,0.5,0,0.8,0c0.6-0.1,1.2,0.2,1.7,0c0.9,0.2,1.7,0,2.6,0.1c0.3,0,0.7,0.1,1,0.1c0.2,0,0.4,0,0.5,0
	c0.7,0,1.3-0.1,2,0.1c0.2,0.1,0.4,0.1,0.7,0c1.2-0.2,2.5-0.1,3.7,0c0.6,0,1.2,0,1.7,0.2c0.2,0.1,0.4,0,0.5-0.1
	c0.5-0.1,1-0.1,1.5,0.1c1.2,0.5,2.5,1,3.5,1.8c0.3,0.2,0.5,0.4,0.7,0.7c0.7,1,1.6,2,2.2,3.1c0.6,1.2,0.9,2.5,0.9,3.8
	c-0.1,3.6-0.2,7.3-0.3,10.9C55.8,23.1,55.7,24.5,55.7,25.8L55.7,25.8L55.7,25.8z M3.2,41.2C3.2,41.2,3.2,41.2,3.2,41.2
	c0,0.6-0.1,1.2,0,1.8c0.2,1.1,0.5,2.1,1,3.1c0.1,0.3,0.3,0.5,0.5,0.7c0.3,0.5,0.6,1,1,1.5c0.1,0.1,0.1,0.2,0.2,0.2
	c0.6,0.2,1.1,0.6,1.7,1C8,49.7,8.4,49.9,8.9,50c0.6,0.1,1.3,0.2,2,0.3c0.3,0,0.6,0.1,0.9,0.2c0.3,0.1,0.5-0.3,0.8-0.3
	c0,0,0.1,0,0.1,0c0.5,0,1-0.1,1.5,0.1c0.2,0.1,0.5,0.1,0.8,0.1c0.5,0,1.1,0.1,1.6-0.2c0.1-0.1,0.3,0,0.4,0c1.4-0.1,2.9,0.2,4.3-0.1
	c0.1,0,0.1,0,0.2,0c0.8,0,1.7,0.1,2.5,0c0.9-0.1,1.7,0.4,2.6,0.1c0,0,0.1,0,0.1,0c0.3,0.2,0.6,0.1,0.9,0c0.4-0.1,0.7-0.1,1,0.1
	c0.2,0.2,0.4,0.1,0.6,0c0.3-0.3,0.7-0.3,1-0.3c0.3,0,0.7,0.1,1,0.1c0.3,0,0.6,0.1,0.9,0c0.5-0.1,0.9-0.1,1.4-0.1c2,0,4,0.2,5.9,0
	c0.3,0.3,0.7-0.2,1,0.2c0,0,0.2,0.1,0.3,0c0.4-0.4,0.8-0.3,1.3-0.3c0.8,0,1.5,0.1,2.3-0.1c0.1,0,0.2,0,0.2,0c0.7,0.2,1.3,0,2,0
	c0.7,0,1.4-0.2,2-0.4c0.4-0.2,0.9-0.3,1.3-0.5c0.5-0.2,1-0.4,1.4-0.7c1.6-1.3,2.1-3.1,2.1-5.1c0-0.4,0-0.8,0-1.2c0-1,0-1.9,0-2.9
	c0-1,0-1.9,0.1-2.9c0-1,0-2,0.1-3c0.1-0.9-0.2-1.9,0-2.8c0-0.1,0-0.2,0-0.3c-0.1-0.3-0.1-0.6,0-1c0.1-0.3-0.1-0.6,0.1-1
	c0.1-0.2,0.1-0.4,0-0.5c-0.1-0.5-0.1-0.9,0-1.4c0.1-0.5-0.1-0.9,0-1.4c0-2.9,0.1-5.7,0.2-8.6c0-0.3,0-0.6,0-0.9
	c-0.1-0.4,0-0.7,0-1.1c0.1-1.5,0.1-3-0.4-4.4c0-0.1,0-0.3-0.1-0.4c-0.1-1.8-1.2-3.1-2.3-4.4c-0.1-0.1-0.2-0.1-0.3-0.2
	c-1-0.9-2.3-1.1-3.5-1.4c-0.4-0.1-0.7-0.1-1.1-0.1c-0.4,0-0.8,0.1-1.2,0.1c-0.4,0-0.9-0.1-1.2,0c-0.4,0.2-0.8-0.1-1.2-0.1
	c-0.6,0-1.2-0.1-1.8,0c-0.4,0.1-0.9,0.1-1.3,0.1c-0.5,0-0.9-0.1-1.4-0.1c-0.4-0.1-0.9,0.1-1.4,0.1c-0.4,0-0.9-0.1-1.3-0.1
	c-0.5,0-0.9,0-1.4-0.1c-0.2-0.1-0.4,0-0.6,0.1c-0.4,0-0.7,0.1-1.1,0c-0.5,0-1.1-0.1-1.6-0.2c-0.4-0.1-0.7,0.1-1.1,0.1
	c-0.4,0-0.7-0.2-1.1-0.1c-0.7,0.1-1.3,0.1-2,0.1c-1.1,0-2.3-0.1-3.4-0.1c-1.2,0-2.3-0.2-3.5,0c-0.1,0-0.1,0-0.2,0
	c-0.5-0.1-0.9-0.2-1.4-0.3c-0.2,0-0.4,0-0.6,0C16.5,3.1,15.8,3,15.1,3c-0.1,0-0.3,0-0.3-0.1c-0.2-0.3-0.3-0.1-0.5,0
	c-0.4,0.2-0.9,0.2-1.3,0c-0.3-0.1-0.6-0.1-0.9,0C11.8,3,11.4,3,11,3.1c-0.8-0.3-1.5,0-2.2,0.2C8.3,3.3,7.9,3.4,7.5,3.5
	C7,3.7,6.6,3.8,6.3,4.2C6.1,4.4,5.9,4.6,5.7,4.7C5.3,4.9,5,5.2,4.8,5.5C4.7,5.7,4.6,5.8,4.5,6C3.8,6.7,3.4,7.6,3.1,8.6
	C3,9,2.8,9.4,3,9.8c0.1,0.2,0,0.4,0,0.7c0,0.7,0,1.4,0,2.1C2.9,13.3,3.3,14,3,14.8c0.2,1.3,0,2.6,0,4c0,0.4-0.1,0.9,0,1.3
	c0.2,0.8,0.1,1.6,0.1,2.4c0,2.6-0.2,5.1,0,7.7c-0.1,1.5,0.1,2.9-0.2,4.4c0,0.1,0,0.2,0,0.3c0,0.3,0.1,0.6,0.1,0.9
	c-0.2,1.2,0.3,2.4,0,3.6c0,0,0,0.1,0,0.1C3.2,40,3.2,40.6,3.2,41.2L3.2,41.2z"/>
<g class="st5">
	<path class="st6" d="M55.7,25.8c-0.1,3.4-0.2,6.8-0.2,10.1c0,1.7-0.1,3.3-0.1,5c0,0.3,0,0.6,0,0.9c0,0.4,0.1,0.7,0,1.1
		c-0.2,1.1-0.1,2.2-0.5,3.2c-0.4,1-0.9,1.9-1.7,2.7c-0.7,0.7-1.4,1.4-2.2,1.9c-1.1,0.7-2.3,1-3.5,1.1c-0.2,0-0.4,0-0.5,0.1
		c-0.5,0.2-0.9,0.1-1.4,0c-0.2,0-0.4-0.1-0.5-0.1c-0.4,0.1-0.8,0.2-1.2,0c-0.2-0.1-0.5,0.1-0.7,0.1c-0.9,0-1.8,0.1-2.6-0.2
		c-0.1,0-0.2-0.1-0.2,0c-0.8,0.4-1.8-0.1-2.6,0.3c-0.1,0-0.2,0-0.3,0c-0.5-0.2-1-0.1-1.5,0c-1,0-1.9,0-2.9,0c-2.1,0-4.2-0.1-6.3-0.1
		c-0.6,0-1.2,0.1-1.7,0.1c-0.7,0-1.5,0.1-2.2-0.1c-0.6,0.2-1.1,0-1.6-0.1c-0.2-0.1-0.5,0-0.8,0.1c-0.8,0.1-1.5,0.3-2.3,0.2
		c-0.5,0-1,0-1.5,0c-1.3,0-2.6,0-4-0.1c-0.4,0-0.7-0.1-1.1-0.1c-0.3,0-0.6,0.1-1,0.1c-0.7,0.1-1.5,0-2.3,0.1
		c-0.6,0.1-1.1-0.2-1.7-0.5C6.3,51.3,6,51.2,5.7,51c-1.8-1.1-3.1-2.7-3.8-4.7c-0.4-1.1-0.6-2.2-0.5-3.3c0.1-1.8,0.1-3.5,0.1-5.3
		c0-0.3,0-0.6-0.1-0.9c0-0.1-0.1-0.3-0.1-0.4c0.2-0.7,0-1.4,0-2.2c0.1-0.7,0-1.4,0-2.1c0-0.7,0-1.5,0-2.2c0-0.7,0.1-1.4-0.1-2.1
		c0-0.1,0-0.3,0-0.4c0-2.9,0.1-5.7,0.1-8.6c0-0.4-0.1-0.7-0.1-1.1c0-0.6,0-1.2,0-1.8c0-1-0.1-2-0.3-3.1C1,12.6,1,12.3,1,12
		c0-1,0.1-2,0-3C1,7.9,1.4,6.8,2,5.8c0.2-0.4,0.5-0.7,0.6-1.1c0-0.2,0.2-0.4,0.4-0.5c0.7-0.7,1.5-1.3,2.2-1.9c0.6-0.2,1-0.6,1.5-0.9
		C7.5,1,8.3,0.9,9.1,0.7c0.5-0.1,1-0.1,1.5-0.1c1.1,0,2.1,0,3.2,0.1c0.3,0,0.6,0.1,0.9,0.1c0.2,0.1,0.4,0.1,0.6,0
		c0.3-0.1,0.6-0.1,1-0.1c2.5,0.1,5,0.1,7.5,0.2C25.6,1,27.3,1,29,1C29.3,1,29.5,1,29.8,1c0.3,0,0.5,0,0.8,0c0.3,0.1,0.6,0.1,0.9,0
		c0.2-0.1,0.4-0.1,0.6,0c0.3,0.1,0.5,0,0.8,0c0.6-0.1,1.2,0.2,1.7,0c0.9,0.2,1.7,0,2.6,0.1c0.3,0,0.7,0.1,1,0.1c0.2,0,0.4,0,0.5,0
		c0.7,0,1.3-0.1,2,0.1c0.2,0.1,0.4,0.1,0.7,0c1.2-0.2,2.5-0.1,3.7,0c0.6,0,1.2,0,1.7,0.2c0.2,0.1,0.4,0,0.5-0.1
		c0.5-0.1,1-0.1,1.5,0.1c1.2,0.5,2.5,1,3.5,1.8c0.3,0.2,0.5,0.4,0.7,0.7c0.7,1,1.6,2,2.2,3.1c0.6,1.2,0.9,2.5,0.9,3.8
		c-0.1,3.6-0.2,7.3-0.3,10.9C55.8,23.1,55.7,24.5,55.7,25.8L55.7,25.8L55.7,25.8z M3.2,41.2C3.2,41.2,3.2,41.2,3.2,41.2
		c0,0.6-0.1,1.2,0,1.8c0.2,1.1,0.5,2.1,1,3.1c0.1,0.3,0.3,0.5,0.5,0.7c0.3,0.5,0.6,1,1,1.5c0.1,0.1,0.1,0.2,0.2,0.2
		c0.6,0.2,1.1,0.6,1.7,1C8,49.7,8.4,49.9,8.9,50c0.6,0.1,1.3,0.2,2,0.3c0.3,0,0.6,0.1,0.9,0.2c0.3,0.1,0.5-0.3,0.8-0.3
		c0,0,0.1,0,0.1,0c0.5,0,1-0.1,1.5,0.1c0.2,0.1,0.5,0.1,0.8,0.1c0.5,0,1.1,0.1,1.6-0.2c0.1-0.1,0.3,0,0.4,0c1.4-0.1,2.9,0.2,4.3-0.1
		c0.1,0,0.1,0,0.2,0c0.8,0,1.7,0.1,2.5,0c0.9-0.1,1.7,0.4,2.6,0.1c0,0,0.1,0,0.1,0c0.3,0.2,0.6,0.1,0.9,0c0.4-0.1,0.7-0.1,1,0.1
		c0.2,0.2,0.4,0.1,0.6,0c0.3-0.3,0.7-0.3,1-0.3c0.3,0,0.7,0.1,1,0.1c0.3,0,0.6,0.1,0.9,0c0.5-0.1,0.9-0.1,1.4-0.1c2,0,4,0.2,5.9,0
		c0.3,0.3,0.7-0.2,1,0.2c0,0,0.2,0.1,0.3,0c0.4-0.4,0.8-0.3,1.3-0.3c0.8,0,1.5,0.1,2.3-0.1c0.1,0,0.2,0,0.2,0c0.7,0.2,1.3,0,2,0
		c0.7,0,1.4-0.2,2-0.4c0.4-0.2,0.9-0.3,1.3-0.5c0.5-0.2,1-0.4,1.4-0.7c1.6-1.3,2.1-3.1,2.1-5.1c0-0.4,0-0.8,0-1.2c0-1,0-1.9,0-2.9
		c0-1,0-1.9,0.1-2.9c0-1,0-2,0.1-3c0.1-0.9-0.2-1.9,0-2.8c0-0.1,0-0.2,0-0.3c-0.1-0.3-0.1-0.6,0-1c0.1-0.3-0.1-0.6,0.1-1
		c0.1-0.2,0.1-0.4,0-0.5c-0.1-0.5-0.1-0.9,0-1.4c0.1-0.5-0.1-0.9,0-1.4c0-2.9,0.1-5.7,0.2-8.6c0-0.3,0-0.6,0-0.9
		c-0.1-0.4,0-0.7,0-1.1c0.1-1.5,0.1-3-0.4-4.4c0-0.1,0-0.3-0.1-0.4c-0.1-1.8-1.2-3.1-2.3-4.4c-0.1-0.1-0.2-0.1-0.3-0.2
		c-1-0.9-2.3-1.1-3.5-1.4c-0.4-0.1-0.7-0.1-1.1-0.1c-0.4,0-0.8,0.1-1.2,0.1c-0.4,0-0.9-0.1-1.2,0c-0.4,0.2-0.8-0.1-1.2-0.1
		c-0.6,0-1.2-0.1-1.8,0c-0.4,0.1-0.9,0.1-1.3,0.1c-0.5,0-0.9-0.1-1.4-0.1c-0.4-0.1-0.9,0.1-1.4,0.1c-0.4,0-0.9-0.1-1.3-0.1
		c-0.5,0-0.9,0-1.4-0.1c-0.2-0.1-0.4,0-0.6,0.1c-0.4,0-0.7,0.1-1.1,0c-0.5,0-1.1-0.1-1.6-0.2c-0.4-0.1-0.7,0.1-1.1,0.1
		c-0.4,0-0.7-0.2-1.1-0.1c-0.7,0.1-1.3,0.1-2,0.1c-1.1,0-2.3-0.1-3.4-0.1c-1.2,0-2.3-0.2-3.5,0c-0.1,0-0.1,0-0.2,0
		c-0.5-0.1-0.9-0.2-1.4-0.3c-0.2,0-0.4,0-0.6,0C16.5,3.1,15.8,3,15.1,3c-0.1,0-0.3,0-0.3-0.1c-0.2-0.3-0.3-0.1-0.5,0
		c-0.4,0.2-0.9,0.2-1.3,0c-0.3-0.1-0.6-0.1-0.9,0C11.8,3,11.4,3,11,3.1c-0.8-0.3-1.5,0-2.2,0.2C8.3,3.3,7.9,3.4,7.5,3.5
		C7,3.7,6.6,3.8,6.3,4.2C6.1,4.4,5.9,4.6,5.7,4.7C5.3,4.9,5,5.2,4.8,5.5C4.7,5.7,4.6,5.8,4.5,6C3.8,6.7,3.4,7.6,3.1,8.6
		C3,9,2.8,9.4,3,9.8c0.1,0.2,0,0.4,0,0.7c0,0.7,0,1.4,0,2.1C2.9,13.3,3.3,14,3,14.8c0.2,1.3,0,2.6,0,4c0,0.4-0.1,0.9,0,1.3
		c0.2,0.8,0.1,1.6,0.1,2.4c0,2.6-0.2,5.1,0,7.7c-0.1,1.5,0.1,2.9-0.2,4.4c0,0.1,0,0.2,0,0.3c0,0.3,0.1,0.6,0.1,0.9
		c-0.2,1.2,0.3,2.4,0,3.6c0,0,0,0.1,0,0.1C3.2,40,3.2,40.6,3.2,41.2L3.2,41.2z"/>
</g>
<path d="M138.4,33.7c0,0,0-0.1,0-0.1c0-0.4,0-0.8-0.1-1.2c0-0.2-0.1-0.4-0.1-0.6c0-0.6-0.3-1.1-0.5-1.5
	c-0.4-0.7-1.1-1.1-1.9-1.1c0,0,0,0,0,0l-2.8,0c-0.5,0-1,0-1.4,0c-0.3,0-0.6,0-0.9,0.1c-0.4,0.1-0.8,0.1-1.1,0
	c-0.2-0.1-0.4,0-0.5,0.1c-0.2,0.1-0.3,0.1-0.6,0l-0.1,0c-0.6-0.1-1.3-0.2-1.9,0.1c-0.3-0.2-0.6-0.2-0.9-0.2c-0.1,0-0.3,0-0.4,0.1
	c-0.3,0-0.5,0-0.8,0c-0.2,0-0.4-0.1-0.5-0.1c-0.2,0-0.4,0-0.6,0.1c-0.1,0-0.3,0-0.4,0.1c-0.1,0-0.2,0-0.3,0c-0.3,0-0.5,0.1-0.7,0
	c-0.4-0.1-0.9-0.1-1.3-0.1c-0.8,0-1.6,0-2.5,0l-1.5,0c0,0,0,0,0,0c-0.4,0-0.8,0.1-1.1,0.2c-0.1,0-0.2,0-0.3-0.1
	c-0.2-0.1-0.4-0.1-0.6-0.1c-0.5,0-0.9,0-1.4,0c-0.6,0-1.1,0-1.7,0c-0.1,0-0.2,0-0.3,0c-0.4,0-0.7,0-1.1,0.2
	c-0.4-0.2-0.8-0.2-1.2-0.2l-0.3,0c-1.2,0-2.4,0-3.6,0c-0.3,0-0.6,0-1,0.1c-0.2,0.1-0.4,0-0.6,0c-0.2,0-0.3,0-0.5,0
	c-0.3-0.2-0.6-0.1-0.7-0.1c-0.1,0-0.2,0-0.2,0c-0.3-0.1-0.7-0.1-1-0.1l-0.2,0c-0.3,0-0.6,0-0.9,0c-0.2,0-0.4,0-0.6,0
	c-0.1,0-0.3,0-0.4,0c-0.3,0-0.7,0-1,0.1c-0.2,0.1-0.4,0-0.6,0c-0.2,0-0.4-0.1-0.7-0.1c-0.3,0-0.5,0-0.8,0c-0.4,0-0.9,0-1.3,0.1
	c-0.3,0.1-0.7,0-1,0c-0.3,0-0.6-0.1-1,0c0,0-0.1,0-0.1,0c-0.1,0-0.2,0-0.3,0c-0.2,0-0.4,0.1-0.6,0.3c-0.1,0.1-0.1,0.1-0.4,0
	c-0.1,0-0.3-0.1-0.4-0.1c-0.3-0.1-0.7-0.2-1.1-0.2c-1.4,0-2.9,0-4.3,0c-0.9,0-1.7,0-2.6,0c-0.2,0-0.4,0-0.6,0c-0.6,0-1.2,0-1.9,0.1
	c-0.8-0.1-1.7-0.1-2.5-0.1c-0.6,0-1.2,0.1-1.8,0c-0.2,0-0.4,0-0.5,0c-0.1,0-0.1,0-0.2,0l-0.3,0c-0.2,0-0.4,0.1-0.6,0.1
	c-0.4,0-0.9,0-1.3,0l-3.2,0c-0.5-0.2-1.2-0.2-1.9,0.6c-0.1,0.1-0.2,0.2-0.3,0.3c-0.1,0.1-0.2,0.2-0.3,0.3c-0.1,0.2-0.4,0.4-0.4,0.7
	c0,0.2-0.1,0.3-0.1,0.5c-0.1,0.4-0.2,0.8-0.2,1.2l0,1c0,1.9,0,3.6-0.2,5.3l-0.1,0.5l0.1,0c0,0.2,0,0.3,0,0.4c-0.1,1,0.3,1.9,1.2,2.8
	c0.4,0.4,0.9,0.6,1.5,0.6c0,0,0.1,0,0.1,0c0.4,0,0.8,0,1.2,0l1,0c0.4,0,0.9,0,1.3,0l0.3,0c0.5,0,1,0,1.6-0.1c0.3,0,0.5,0,0.8,0
	c0.3,0,0.6,0.1,0.9,0c0.5,0,1,0,1.5,0c0.3,0,0.5,0,0.8,0l0.2,0c0.2,0,0.4,0,0.7-0.1c0.4-0.1,0.7-0.1,1.2-0.1l0.2,0c2,0,3.9,0,5.9,0
	l2.4,0l0.2,0c0.4,0,0.8,0,1.2-0.2c0.1-0.1,0.3,0,0.5,0l0.1,0c0.4,0.1,0.7,0.1,1.1,0c0.3-0.1,0.5-0.1,0.8-0.1l0.3,0
	c0.3,0,0.7,0,1.1-0.2c0.1-0.1,0.3-0.1,0.4,0c0.5,0.2,1,0.2,1.5,0.2l0.2,0c0.1,0,0.2,0,0.3,0c0.3,0,0.6,0,0.9-0.1
	c0.2-0.1,0.4-0.1,0.6,0c0.1,0,0.2,0,0.3,0.1c0.2,0,0.4,0,0.5-0.1c0.1,0,0.2,0,0.5,0c0.5,0.1,1.1,0.1,1.6,0c0.4-0.1,0.7-0.1,1,0
	c1.1,0.1,2.2,0.2,3.4-0.1c0,0,0.1,0,0.2,0l0.6,0c0.3,0,0.7,0,1,0c0.1,0,0.3,0,0.4,0c0.4,0,0.8,0,1.2-0.1c0.2-0.1,0.4,0,0.7,0
	c0.2,0,0.5,0.1,0.7,0.1c0.3,0,0.6,0,0.9,0c0.2,0,0.3,0,0.5,0c0.1,0,0.3,0,0.4,0c0.4,0,0.8,0,1.1-0.1c0.3-0.1,0.5-0.1,0.8,0
	c0.2,0,0.3,0.1,0.5,0.1c0.1,0,0.3,0,0.4-0.1c0.2-0.1,0.4-0.1,0.7-0.1c0,0,0,0,0,0l0.2,0c0.9,0,1.8,0,2.7,0l2.4,0c1.3,0,2.6,0,3.9,0
	c0.1,0,0.2,0,0.4,0c0.5,0,1,0,1.5-0.2c0,0,0.1,0,0.2,0c0.1,0,0.2,0,0.2,0c0.1,0,0.2,0,0.3,0c0.1,0,0.2,0,0.2,0l0.3,0
	c0.1,0,0.3,0,0.4,0c0.1,0,0.2,0,0.4,0c0.1,0,0.2,0,0.3,0c0.1,0,0.1,0,0.2,0c0.1,0,0.3,0,0.3,0c0.3,0.1,0.7,0.1,1,0.1
	c0.2,0,0.3,0,0.5,0c0.6,0.1,1.2,0.1,1.8-0.1c0.2-0.1,0.5-0.1,0.8-0.1l0.2,0c0.3,0,0.6,0,0.8,0c0.3,0,0.7,0,1,0
	c1.3-0.1,2.3-0.9,2.6-2.1c0.2-0.6,0.3-1.4,0.3-2.2c0-0.3,0-0.7,0-1c0-1.1,0-2.1,0.2-3.1C138.4,33.9,138.4,33.8,138.4,33.7z
	 M132.3,39.7c-0.5,0.1-0.8,0.1-1.1,0c-0.3-0.1-0.6-0.1-0.8,0c-0.4,0.2-0.9,0.2-1.4,0.1c-0.3,0-0.5,0-0.7,0.1c-0.2,0-0.3,0.1-0.4,0
	c-0.5-0.2-1,0-1.3,0.1c-0.7-0.3-1.3-0.3-2-0.2c-0.2,0-0.5,0-0.7,0c-1.1,0-2.2,0-3.3,0l-0.8,0c-0.4,0-0.9,0-1.4,0.2
	c-0.1,0-0.3,0.1-0.8,0c-0.5-0.1-0.9-0.1-1.5,0c-0.4,0.1-0.7,0-1.1,0l-0.1,0c-0.1,0-0.3,0-0.4-0.1c-0.3-0.1-0.7-0.1-1.1,0
	c-0.2,0.1-0.5,0.1-0.9,0c-0.1,0-0.3,0-0.4,0l-1.8,0c-1.1,0-2.2,0-3.3,0c-0.3,0-0.6,0-0.9,0.1l-0.5,0.1c-0.9-0.2-1.7-0.2-2.5-0.1
	c-0.4,0-0.8,0-1.2,0c-0.2,0-0.4,0-0.6,0c-0.3,0-0.6,0-0.9,0c-0.6-0.1-1.1-0.1-1.6,0c-0.1,0-0.3,0-0.4,0c-0.3,0-0.6,0-0.9,0.1
	c-0.1,0-0.2,0-0.3,0c-0.1,0-0.1,0-0.2,0c-0.5-0.1-1.3-0.2-2,0.2c-0.1,0-0.1,0.1-0.2,0c-0.5-0.1-1.1-0.2-1.7,0.1
	c-0.4-0.2-0.8-0.2-1.2-0.2L80,40.4l-0.1,0c-0.2,0-0.5,0-0.7,0.2c-0.4-0.3-0.9-0.2-1.3-0.2c-0.1,0-0.2,0-0.2,0l-0.3,0
	c-0.5,0.1-1,0.1-1.5,0c-0.3-0.1-0.6-0.1-0.8,0c-0.7,0.2-1.5,0.2-2.2,0.1c-0.4,0-0.7,0-1.1,0c-0.7,0-1.4,0-2.1,0l-0.7,0L68.8,40
	c-0.1-0.6-0.1-1.1-0.2-1.7l0-0.1c0-0.2,0-0.4-0.1-0.6c-0.1-0.2-0.1-0.3,0-0.4c0.1-0.2,0-0.4,0-0.6c0,0,0-0.1,0-0.1
	c0.2-0.4,0.2-0.8,0.2-1.2c0-0.3,0-0.6,0.1-0.9c0.1-0.2,0.1-0.4,0-0.6c0-0.1,0-0.1,0-0.2c0,0,0-0.1,0-0.1c0.2-0.3,0.3-0.7,0.4-1
	c0.1-0.2,0.1-0.4,0.2-0.5c0.1-0.2,0.1-0.2,0.2-0.2c0.3,0,0.5,0,0.8,0l0.6,0l0.3,0c0.4,0.1,0.9,0.1,1.3,0.1c0.6,0,1.3,0,1.9,0l1.2,0
	c4,0,8,0,12,0c3.1,0,6.2,0,9.3,0c0.2,0,0.4,0,0.6-0.1c0.1,0,0.2,0,0.4,0l0.2,0c0.1,0,0.3,0,0.3,0c0.4,0.2,0.8,0.2,1.3,0.2l9.7,0
	c3.1,0,6.2,0,9.3,0c0.9,0,1.8,0,2.8,0l0.2,0c0.3,0,0.7,0,1-0.2c0,0,0.1,0,0.1,0c0.4,0.2,0.8,0.2,1.2,0.2l0.1,0c0.3,0,0.6,0,0.9,0
	c0.5,0,1,0,1.5,0c0.1,0,0.2,0,0.3,0c0.3,0,0.7,0,1.1-0.1c0.2-0.1,0.4-0.1,0.6,0c0.9,0.2,1.8,0.2,2.8,0c0.2-0.1,0.3,0,0.3,0
	c0.7,0.2,1.3,0.2,1.9,0.2c0.2,0,0.4,0,0.7,0c0.1,0,0.2,0,0.3,0c0.6,0.2,0.7,0.6,0.7,0.8c0,0.6,0,1.3-0.1,1.9c0,0.3,0,0.6,0,0.8
	l0,0.1c0.1,1.1,0.1,2.2,0.1,3.2c0,0.1-0.1,0.3-0.1,0.5l-0.1,0.2c0,0.1-0.1,0.3-0.1,0.3c0,0-0.2,0-0.3,0c-0.1,0-0.1,0-0.2,0
	c-0.2,0-0.6,0-0.9,0.2C133,39.7,132.6,39.7,132.3,39.7z"/>
<path class="st0" d="M9.3,65.5h38.3c3.8,0,6.9,3.1,6.9,6.9v34.4c0,3.8-3.1,6.9-6.9,6.9H9.3c-3.8,0-6.9-3.1-6.9-6.9V72.4
	C2.3,68.6,5.5,65.5,9.3,65.5z"/>
<path class="st2" d="M70.4,71.4h105.7c0.9,0,1.7,0.9,1.7,1.9v6.2c0,1.1-0.8,1.9-1.7,1.9H70.4c-0.9,0-1.7-0.9-1.7-1.9v-6.2
	C68.7,72.2,69.4,71.4,70.4,71.4z"/>
<path class="st1" d="M134.1,94.1H70c-1.5,0-2.7,1.2-2.7,2.7v5.4c0,1.5,1.2,2.7,2.7,2.7h64.1c1.5,0,2.7-1.2,2.7-2.7v-5.4
	C136.7,95.3,135.5,94.1,134.1,94.1z"/>
<path d="M180.4,73.8c0-0.4,0-0.9,0-1.3c0-0.8-0.3-1.5-0.9-1.9c-0.9-0.9-2-1.2-3.2-1c-0.5,0.1-1,0.1-1.5,0.1l-0.6,0
	c-0.6,0-1.2,0-1.8,0c-0.5,0-0.9,0-1.4,0c-0.3,0-0.6,0-0.9,0c-0.9,0-1.7,0-2.5,0c-0.2,0-0.5,0-0.7,0c-0.5,0-1,0-1.5,0.1
	c-0.4-0.1-0.8-0.1-1.2-0.1c-0.3,0-0.6,0-0.8,0c-0.6-0.1-1.2-0.1-1.9,0.1c-0.1,0-0.1,0-0.1,0c-0.3-0.2-1.5-0.3-1.9-0.2
	c-0.3,0.1-0.5,0.1-0.7,0.1c-0.2-0.1-0.4-0.1-0.6-0.1c-0.1,0-0.3,0-0.4,0c-0.6-0.2-1.3,0-1.8,0.1c-0.4,0.1-0.6,0.1-0.8,0.1
	c-0.4-0.1-0.9-0.1-1.3-0.1c-0.1,0-0.2,0-0.3,0c-0.2,0-0.4-0.1-0.6-0.1c-2.5,0-5,0-7.6,0c-0.2,0-0.5,0-0.7,0.1
	c-0.1,0-0.1,0.1-0.2,0.1c-0.4,0.2-0.4,0.2-0.6,0c-0.2-0.2-0.4-0.2-0.6-0.2c-1.2,0-2.4,0-3.5,0.1c-0.1,0-0.2,0-0.2,0
	c-0.1,0-0.1,0-0.2,0c-0.3,0-0.6,0-0.9-0.1l-0.7,0c-0.2,0-0.5,0-0.7,0c-0.3,0-0.6,0.1-0.8,0c-0.2-0.1-0.4,0-0.5,0.1c0,0-0.1,0-0.2,0
	c-0.1,0-0.1,0-0.2,0c-0.5-0.2-0.9-0.2-1.4-0.2l-0.3,0c-2.2,0-4.5,0-6.7,0H127c-0.5,0-0.9,0-1.4,0.2c-0.1,0-0.3,0-0.5,0
	c-0.3-0.1-0.6,0-0.8,0c-0.1,0-0.1,0.1-0.2,0c-0.1,0-0.3-0.1-0.4-0.1c-0.2,0-0.3-0.1-0.5-0.1c-0.2,0-0.3,0-0.3,0.1l-0.1,0
	c0,0-0.1,0-0.1,0c-0.4-0.2-0.8-0.2-1.2-0.2l-1.1,0c-0.9,0-1.9,0-2.8,0c-0.2,0-0.4,0-0.5,0c-0.5,0-1-0.1-1.5,0.1
	c-0.4-0.2-0.9-0.2-1.3-0.2c-0.1,0-0.2,0-0.4,0c-0.6,0-1.2,0-1.8,0c-0.4,0-0.7,0-1.1,0c-0.1,0-0.2,0-0.3,0c-0.4,0-0.8,0-1.2,0.2
	c0,0,0,0-0.1,0c-0.7-0.2-1.3-0.2-2-0.2c-0.3,0-0.6,0-0.9,0c-0.1,0-0.3,0-0.5,0.1c-0.4,0.2-0.9,0.2-1.4,0.1c-0.2,0-0.4,0-0.5,0
	c-0.4-0.2-0.8-0.2-1.1-0.2c-0.1,0-0.2,0-0.3,0c-0.7,0-1.4,0-2,0c-1,0-2.1,0-3.1-0.1c-0.1,0-0.3,0-0.4,0.1c-0.2,0.1-0.5,0.1-0.8,0.1
	c-0.1,0-0.2,0-0.3,0c-0.5,0-1,0-1.4,0c-0.1,0-0.3,0-0.4,0c-0.4,0-0.7,0-1.1-0.1c-0.4-0.1-0.7,0-1,0c-0.2,0-0.3,0.1-0.5,0.1
	c-1.2,0-2.5,0-3.7,0l-8.8,0c-0.3,0-0.7,0-1,0c-2,0-4,0-6,0c-0.1,0-0.2,0-0.3,0c-0.2,0-0.4,0-0.5,0l-0.1,0c-0.4-0.1-0.9-0.2-1.3-0.1
	c-0.4,0.1-0.7,0.3-0.9,0.4c-0.1,0.1-0.2,0.1-0.3,0.2l-0.2,0.1c-0.2,0.1-0.4,0.2-0.6,0.3l-0.1,0.1c-0.3,0.2-0.6,0.4-0.7,0.7l-0.1,0.3
	c-0.3,0.5-0.5,1.1-0.5,1.7c0,1.3-0.1,2.7-0.2,4l-0.1,1.1c0,0.5,0,1-0.2,1.5c-0.2,1,0,1.9,0.8,2.7c0.9,0.8,1.8,1.3,3,1.3
	c0,0,0,0,0.1,0c1.6,0,3.2,0,4.9,0c0.6,0,1.2,0,1.8,0c0.6,0,1.2,0,1.8-0.1c0.4,0,0.8,0,1.2,0c0.2,0,0.4,0,0.7,0c0.7,0,1.4,0,2,0
	l4.9,0c0.5,0,1.1,0,1.6,0c0.5,0,1,0,1.4,0l1.3,0l3.4,0c0.7,0,1.5,0,2.2,0c0.4,0,0.8,0,1.2,0c0.5,0,1,0,1.6,0c0.3,0,0.6,0,0.9-0.1
	c0.2,0,0.4-0.1,0.6-0.1c0.9,0,1.7,0,2.6,0l1,0c0.1,0,0.3,0,0.4,0c0.3,0,0.7,0,1,0c0.5-0.1,1.1-0.1,1.6,0c0.6,0.1,1.5,0.2,2.3-0.3
	c0,0,0.1,0,0.2,0l0.3,0.1c0.5,0.1,1,0.2,1.5,0.3c0.7,0,1.4,0,2.1,0l0.5,0c0.2,0,0.6,0,0.9-0.1c0.3-0.1,0.4-0.1,0.6,0
	c0.4,0.2,0.8,0.2,1.2,0.1c0.9-0.2,1.8-0.2,3,0c0.2,0,0.4,0.1,0.6,0c0.7-0.2,1.3-0.2,2-0.1l0.3,0c0.5,0,1,0.1,1.5,0.1l0.2,0
	c0.5,0,1,0,1.5-0.1c0.3,0,0.6-0.1,0.9-0.1c1.6-0.1,3.1,0,4.6,0l0.2,0c0.5,0,1,0,1.4-0.2c0.8,0.2,1.6,0.2,2.3,0.2c0.5,0,1,0,1.5,0
	c0.3,0,0.6,0,0.9-0.1c0.4-0.1,0.8-0.1,1.2,0c0.2,0,0.3,0,0.4,0c0.1,0,0.3,0,0.4-0.1c0.5-0.1,0.9-0.1,1.3,0.1c0.2,0.1,0.4,0.1,0.6,0
	c0.1,0,0.2,0,0.3-0.1c0.1,0,0.3-0.1,0.4-0.1c0.1,0,0.3,0,0.4,0c0.1,0,0.3,0,0.4,0c0.4,0,0.7,0,1.1,0c0.3,0,0.6,0,0.9,0
	c0,0,0.1,0,0.1,0c0.1,0,0.2,0,0.3,0c1.2-0.1,2.4-0.1,3.6-0.1l0.7,0c0.4,0,0.7,0,1.1,0c0.3,0,0.7,0,1,0l0.5,0c0.6,0,1.2,0,1.7,0
	c0.2,0,0.3,0,0.5,0c0.4,0,0.8,0.1,1.2-0.1c0,0,0.1,0,0.2,0c0.1,0,0.1,0,0.2,0l0.9,0c0.8,0,1.6,0,2.4,0c0.3,0,0.7-0.1,1.1-0.2
	c0.3-0.1,0.5-0.1,0.6,0c0.5,0.2,1,0.2,1.5,0c0.1,0,0.2,0,0.4,0c0.2,0.1,0.5,0.2,0.8,0.1c0.4-0.1,0.7-0.1,1.1,0c0.2,0,0.5,0,0.7,0
	c0,0,0.2,0,0.3,0c0.3,0,0.6,0.1,1-0.1c0,0,0.1,0,0.2,0c0.1,0,0.2,0,0.3,0c0.2,0,0.4,0.1,0.6,0.1c0.4,0,0.8,0,1.2,0
	c0.8,0,1.7,0,2.6-0.2c0.2,0,0.4,0,0.7,0c0.3,0,0.7,0.1,1,0c0.4,0.2,0.9,0.2,1.4,0c0.2-0.1,0.4-0.1,0.7-0.1c0.2,0,0.4,0,0.6,0
	c0.3,0,0.7-0.1,0.9-0.2c0.8-0.3,1.3-0.6,1.6-1.1c0.4-0.7,0.8-1.5,0.8-2.5c0-0.2,0-0.3,0-0.5c0-0.4,0-0.8,0-1.1
	c0.1-0.7,0.2-1.3,0.2-1.9c0-0.3,0-0.6,0-0.8L180.4,73.8L180.4,73.8z M69.2,80.6c-0.3-0.6-0.4-1.1-0.2-1.8c0,0,0-0.1,0-0.1
	c0-0.1,0.1-0.3,0-0.5c-0.1-0.5-0.1-1,0-1.5c0-0.4,0.1-0.8,0.1-1.2c0-0.6,0-1.2,0-1.8c0-0.3,0-0.6,0-1c0-0.1,0-0.2,0.2-0.3
	c0.4-0.3,0.7-0.4,1-0.5c0.3,0,0.5-0.1,0.8-0.1c0.7-0.1,1.3-0.2,1.9,0c0.3,0.1,0.5,0.1,0.8,0.1l0.2,0l14,0c0.4,0,0.7,0,1.1,0
	c0.9,0,1.8,0,2.8,0c1.2,0.1,2.3,0.1,3.3,0.1c1.5,0,3.1,0,4.6,0l1.6,0c0.1,0,0.2,0,0.3,0c0.2,0,0.4,0,0.5-0.1c0.4-0.1,0.7-0.1,1-0.1
	c0.5,0.1,1.1,0.1,1.7,0.1c0.2,0,0.4,0,0.6,0c0.5,0,1,0,1.5-0.1c0.3,0.1,0.5,0,0.7,0c0.3,0,0.4-0.1,0.6,0l0.1,0.1l0.1,0
	c0.2,0,0.4,0,0.5,0c0.4,0,0.9,0,1.4,0c0.3,0,0.5,0,0.7,0c0.2,0,0.4,0.1,0.6,0c0.4-0.1,0.7-0.1,1.1,0c0.2,0,0.4,0,0.6,0l0.5,0
	c0.4,0,0.9,0,1.3,0c0.4,0,0.7-0.1,1-0.1c0.5-0.1,1-0.1,1.5,0c0.4,0.1,0.8,0.2,1.3,0.1c0.2,0,0.5,0,0.7,0c0.5,0,1,0,1.6-0.1
	c0,0,0.1,0,0.2,0c1,0.2,2,0.2,3,0.1c0.4,0,0.8,0,1.2,0l0.1,0l0.1,0c0.2-0.1,0.4,0,0.7,0c0.2,0,0.4,0.1,0.7,0.1c0.4,0,0.9,0,1.3,0
	c0.7,0,1.5,0,2.3-0.1c0.3,0.1,0.6,0.1,0.8,0.1c0.1,0,0.2,0,0.4,0c1,0.1,2,0.1,3,0.1l1,0c0.1,0,0.3,0,0.4,0c0.2-0.1,0.4-0.1,0.6,0
	c0.2,0.1,0.4,0.1,0.6,0l0.2,0l2,0c2.4,0,4.9,0,7.3,0c1.1,0,2.1,0,3.2,0c1.5,0,3.1,0,4.6,0c0.3,0,0.4-0.1,0.6-0.1
	c0.2-0.1,0.4-0.1,0.5-0.1c0.5,0.2,0.9,0.2,1.4,0.2c1.5,0,3,0,4.5,0c0.7,0,1.5,0,2.2,0l0.9,0c0,0,0.1,0,0.2,0c0.6,0.1,1.2,0.1,1.8,0
	c0.3,0,0.7,0,1,0c0.2,0,0.5,0,0.7,0c0.5,0,1,0,1.5,0c0.7,0,1.5,0,2.2,0.1c0.8,0.1,1.5,0.1,2.3-0.1c0,0,0.2,0,0.2,0l0.1,0
	c0.4,0.1,0.9,0.2,1.5,0c0.1,0,0.2-0.1,0.2-0.1c0,0,0,0,0,0c0.2,0.1,0.3,0.1,0.3,0.2c0.1,0.3,0.2,0.6,0.2,0.9c0,0.4,0,0.8,0,1.2
	l0,0.8l0,0l0,0.6c-0.1,1-0.1,2-0.2,3c0,0.2-0.1,0.4-0.2,0.6c-0.1,0.3-0.3,0.5-0.7,0.5c-0.4,0-0.8,0.1-1.1,0.1
	c-0.5,0.1-1,0.1-1.6,0.1c-0.3,0-0.5,0.1-0.8,0.2c0,0-0.1,0-0.1,0c-0.3-0.2-0.7-0.2-0.9-0.2l-0.1,0c-0.6,0-1.2,0-1.8,0l-1.7,0
	c-0.3,0-0.6,0-0.9,0.1c-0.1,0-0.2,0-0.3,0.1c-0.3-0.1-0.5-0.1-0.7,0c-0.1,0-0.2,0-0.2,0c-0.7-0.1-1.5-0.2-2.2,0.1
	c-0.4-0.2-0.7-0.1-1-0.1c-0.1,0-0.2,0-0.3,0c-0.2,0-0.3,0-0.5,0.1c-0.4,0.1-0.6,0.1-0.9-0.1c-0.2-0.1-0.5-0.1-0.7-0.1
	c-0.1,0-0.1,0-0.2,0c-2.9,0-5.7,0-8.6,0c-0.2,0-0.3,0-0.5,0c-0.3,0-0.6,0-0.8,0c-0.3-0.1-0.6,0-0.8,0.1c-0.3,0.2-0.5,0.1-0.9,0.1
	c-0.8-0.1-1.5,0-2.2-0.1c-0.3-0.1-0.6,0-0.8,0c-0.1,0-0.2,0-0.3,0.1l-0.3,0c-0.2,0-0.5,0.1-0.7,0.1c-0.1,0-0.3,0-0.4,0
	c-0.2,0-0.4-0.1-0.6-0.1c-0.1,0-0.2,0-0.3,0c-0.3,0-0.4,0.1-0.5-0.1c-0.3-0.2-0.7-0.2-0.9-0.1c-0.5,0.1-0.9,0.1-1.5,0.1l-0.4,0
	c-1.1,0-2.3,0-3.4,0l-3.3,0c-1,0-2,0-3,0c-0.1,0-0.2,0-0.4,0c-0.4,0-0.8,0-1.3,0.1c0,0-0.2,0-0.2,0c-0.1,0-0.2-0.1-0.4-0.1
	c-0.6,0-1.3,0-1.9,0h-0.4c-0.9,0-1.8,0-2.7,0c-0.3,0-0.6,0-0.9,0.1l-0.4,0c0,0-0.1,0-0.1,0c-0.6-0.2-1.2-0.2-1.7-0.2
	c-0.2,0-0.5,0-0.7,0c-0.4,0-0.9,0-1.3,0c-0.5,0-1,0-1.5,0c-0.3,0-0.5,0-0.8,0.1c-0.3,0-0.5,0.1-0.8,0c-0.4-0.1-0.8-0.1-1.2-0.1
	c-0.2,0-0.4,0-0.5,0c-0.5,0-1.1,0-1.6,0.3c-0.3-0.3-0.6-0.2-0.7-0.1c-0.1,0-0.2,0-0.3-0.1c-0.2,0-0.4-0.1-0.7-0.1
	c-0.2,0-0.4,0.1-0.6,0.2c-0.1,0.1-0.2,0.1-0.3,0.1c-0.3,0.1-0.4,0-0.5,0c-0.4-0.3-0.8-0.4-1.2-0.4c0,0-0.1,0-0.1,0
	c-0.2,0-0.3,0-0.5,0c-0.4,0-0.8,0-1.2,0c-0.3,0-0.5,0-0.8,0c-0.3,0-0.6,0-0.8,0c-0.6,0.1-1.1,0-1.6,0c-0.5-0.1-1.1-0.1-1.6,0
	c-0.5,0-1,0-1.4,0.1c-0.5,0-0.9,0-1.4,0c-0.7-0.1-1.5-0.1-2.3,0c-1.4,0.2-2.8,0.1-4.2,0.1c-1,0-1.9,0-2.9,0h-0.7c-0.3,0-0.6,0-1,0.1
	c-0.3-0.1-0.6-0.1-0.9-0.1l-16,0l-0.2,0c-0.1,0-0.2,0-0.3,0C69.3,80.8,69.2,80.8,69.2,80.6z"/>
<path d="M55.8,105.1l0-0.3c0-0.2,0-0.4,0-0.5c0-1.7,0-3.3,0.1-5l0.6-25.1c0-1.3-0.3-2.7-0.9-4c-0.4-0.8-1-1.6-1.5-2.3
	c-0.2-0.3-0.5-0.6-0.7-0.9c-0.2-0.3-0.5-0.5-0.8-0.8c-1-0.8-2.2-1.3-3.6-1.9c-0.5-0.2-1.1-0.2-1.7-0.1c-0.1,0-0.1,0-0.2,0
	c-0.1,0-0.1,0-0.2,0c-0.5-0.2-0.9-0.2-1.4-0.2c-0.2,0-0.3,0-0.5,0l-0.6,0c-1-0.1-2.1-0.1-3.2,0c-0.2,0-0.3,0-0.5,0
	c-0.7-0.2-1.5-0.1-2.1-0.1c-0.2,0-0.3,0-0.5,0c-0.3,0-0.6-0.1-1-0.1c-0.4-0.1-0.8,0-1.2,0c-0.5,0-0.9,0.1-1.4-0.1l-0.1,0l-0.1,0
	c-0.2,0.1-0.5,0-0.8,0c-0.3,0-0.6-0.1-0.9,0c-0.2,0-0.4,0.1-0.6,0c-0.3-0.1-0.6-0.1-0.8,0c-0.2,0.1-0.4,0.1-0.7,0
	c-0.2-0.1-0.5,0-0.7,0l-0.1,0c-0.1,0-0.2,0-0.4,0c-0.1,0-0.3,0-0.4,0c-1.7,0-3.5,0-5.2-0.1c-1.1,0-2.2-0.1-3.2-0.1
	c-1.4,0-2.8-0.1-4.3-0.1c-0.3,0-0.7,0-1.1,0.1c-0.2,0-0.3,0-0.4,0c-0.3-0.1-0.6-0.1-1-0.2c-1.1,0-2.1-0.1-3.2-0.1
	c-0.5,0-1,0-1.7,0.1c-0.8,0.1-1.7,0.2-2.5,0.7c-0.2,0.1-0.4,0.2-0.6,0.4c-0.3,0.2-0.6,0.4-0.9,0.5l-0.1,0.1c-0.8,0.6-1.6,1.3-2.3,2
	c-0.2,0.2-0.4,0.4-0.5,0.7c0,0.2-0.2,0.4-0.3,0.6c-0.1,0.1-0.2,0.3-0.2,0.4c-0.5,0.9-1,2.1-1,3.4c0,0.6,0,1.3,0,1.9c0,0.3,0,0.7,0,1
	c0,0.4,0,0.7,0.1,0.9c0.2,1.1,0.3,2,0.3,3c0,0.6,0,1.1,0,1.7l0,0.1c0,0.2,0,0.3,0,0.5c0,0.2,0,0.4,0,0.6c0,2-0.1,4.1-0.1,6.1l0,2.5
	l0,0.1c0,0.1,0,0.3,0,0.4C1.1,91.7,1,92.1,1,92.6c0,0.2,0,0.4,0,0.6c0,0.5,0,1,0,1.4c0,0.3,0,0.5,0,0.8c0,0.2,0,0.5,0,0.7
	c0,0.5,0,0.9,0,1.4c0,0.3,0,0.6,0,0.9c0,0.4,0.1,0.8,0,1.2c-0.1,0.2,0,0.4,0,0.5c0,0,0,0.1,0,0.1l0,0.2c0,0.2,0,0.4,0,0.6l0,1.3
	c0,1.3,0,2.7-0.1,4c-0.1,1.2,0.1,2.3,0.6,3.5c0.8,2,2.1,3.6,4,4.9c0.3,0.2,0.6,0.4,1,0.6l0.1,0c0.4,0.2,0.9,0.5,1.5,0.5
	c0.1,0,0.2,0,0.3,0c0.4-0.1,0.8-0.1,1.2-0.1c0.4,0,0.7,0,1.1,0c0.1,0,0.3,0,0.4-0.1c0.2,0,0.3-0.1,0.5-0.1c0.2,0,0.3,0,0.5,0.1
	c0.2,0,0.4,0.1,0.6,0.1c1.3,0,2.7,0.1,4,0.1h0.3c0.4,0,0.8,0,1.2,0c0.8,0,1.5-0.1,2.4-0.2l0.1,0c0.2,0,0.4-0.1,0.5,0l0.1,0
	c0.5,0.1,1,0.3,1.6,0.1c0.6,0.2,1.2,0.1,1.8,0.1l0.4,0c0.3,0,0.6,0,0.8-0.1c0.3,0,0.6-0.1,0.9-0.1c1.3,0,2.5,0,3.8,0.1
	c0.8,0,1.7,0,2.5,0.1c1,0,1.9,0,2.9,0c0.2,0,0.3,0,0.5,0c0.3,0,0.6-0.1,0.9,0c0.2,0.1,0.4,0.1,0.6,0c0.3-0.2,0.7-0.1,1.1-0.1
	c0.5,0,1,0.1,1.4-0.1c0.7,0.2,1.3,0.2,1.9,0.2c0.3,0,0.5,0,0.8,0c0.2,0,0.3,0,0.5-0.1c0.1,0,0.1,0,0.1-0.1c0.5,0.2,1,0.1,1.4,0
	c0.1,0,0.2,0,0.4,0.1c0.4,0.1,1,0.2,1.6,0c0.1,0,0.2,0,0.3,0l0.1,0c1.4-0.1,2.6-0.4,3.7-1.1c0.8-0.5,1.5-1.1,2.3-2
	c0.7-0.7,1.2-1.6,1.7-2.8c0.3-0.7,0.3-1.4,0.4-2c0-0.4,0.1-0.9,0.1-1.3c0.1-0.3,0-0.6,0-0.9C55.8,105.3,55.8,105.2,55.8,105.1z
	 M5.7,111.7l0.3-0.3c-0.2-0.3-0.4-0.5-0.5-0.8L5,109.9c-0.2-0.2-0.3-0.5-0.4-0.7c-0.6-1-0.8-2.1-1-3c-0.1-0.4-0.1-0.7-0.1-1.1
	c0-0.1,0-0.1,0-0.2h0.1l-0.1-2.2c0,0,0,0,0-0.1c0.2-0.7,0.1-1.4,0-2c-0.1-0.5-0.1-1.1,0-1.6c0-0.2,0-0.5,0-0.7c0-0.1,0-0.2,0-0.3
	l0-0.1c0,0,0-0.1,0-0.1c0.2-1,0.2-1.9,0.2-2.9c0-0.5,0-1.1,0-1.6c-0.2-1.7-0.1-3.4-0.1-5c0-0.9,0.1-1.8,0-2.7c0-0.2,0-0.4,0-0.6
	c0-0.6,0-1.2-0.1-1.9c0-0.2,0-0.5,0-0.8c0-0.2,0-0.3,0-0.5c0-0.4,0-0.9,0-1.3c0-0.9,0-1.7-0.1-2.6c0.1-0.5,0.1-1,0-1.4
	c0-0.3-0.1-0.6-0.1-0.8c0-0.5,0-1,0-1.5l0-0.6c0-0.1,0-0.1,0-0.2c0-0.2,0-0.4-0.1-0.6c-0.1-0.3,0-0.6,0.1-1c0.4-1,0.7-1.8,1.3-2.5
	c0.1-0.2,0.3-0.3,0.4-0.5c0.2-0.3,0.4-0.6,0.7-0.7c0.3-0.1,0.5-0.3,0.7-0.6c0.3-0.3,0.6-0.4,1.1-0.5C8,67.1,8.4,67,8.7,66.9l0.1,0
	c0.1,0,0.3-0.1,0.4-0.1c0.6-0.2,1.1-0.3,1.6-0.1l0.1,0l0.1,0c0.1,0,0.2,0,0.3,0c0.3,0,0.6-0.1,0.8-0.2c0.3-0.1,0.5-0.1,0.7,0
	c0.6,0.2,1.1,0.2,1.6,0c0,0,0,0,0.1,0c0.2,0.2,0.4,0.2,0.5,0.2c0.1,0,0.3,0,0.4,0c0.6,0,1.2,0.1,1.8-0.1c0.1,0,0.3,0,0.5,0
	c0.3,0.1,0.7,0.1,1,0.2l0.4,0.1c0.1,0,0.2,0.1,0.3,0c0.7-0.2,1.4-0.1,2.2-0.1c0.4,0,0.8,0.1,1.2,0.1c0.6,0,1.3,0,1.9,0
	c0.5,0,1,0,1.5,0l0.3,0c0.6,0,1.1,0,1.7-0.1c0.1,0,0.3,0,0.4,0.1c0.2,0,0.4,0.1,0.6,0.1c0.2,0,0.3,0,0.5-0.1c0.2,0,0.3-0.1,0.5-0.1
	c0.5,0.1,1.1,0.2,1.6,0.2c0.3,0,0.6,0,0.9,0l0.2,0c0.1,0,0.2,0,0.3,0c0.1,0,0.2,0,0.2,0c0.5,0.2,1,0.2,1.5,0.1c0.3,0,0.6,0,1,0.1
	l0.3,0c0.3,0,0.6,0,0.8,0c0.2,0,0.4-0.1,0.6,0l0.2,0c0.4,0.1,0.8,0.1,1.2,0.1c0.4,0,0.9,0,1.4-0.1c0.3-0.1,0.6,0,1,0
	c0.2,0,0.5,0,0.7,0c0.1,0,0.2,0,0.3,0.1c0.2,0.1,0.6,0.2,1,0c0.1-0.1,0.4,0,0.6,0c0.2,0,0.3,0,0.5,0c0.2,0,0.4,0,0.5,0
	c0.2,0,0.4,0,0.6,0c0.3,0,0.7,0.1,1,0.1l0.1,0c1.2,0.2,2.3,0.5,3.2,1.2c0,0,0.1,0.1,0.2,0.2c1.2,1.4,2.1,2.5,2.2,4.2
	c0,0.1,0,0.3,0.1,0.5c0.5,1.4,0.5,2.7,0.4,4.3l0,0.3c0,0.3,0,0.6,0,0.9c0,0.2,0,0.4,0,0.6l-0.1,3.3c0,1.8-0.1,3.7-0.1,5.5
	c0,0.2,0,0.4,0,0.6c0,0.3,0.1,0.5,0,0.7c-0.1,0.6-0.1,1.1,0,1.5c0,0.1,0,0.2,0,0.3c-0.1,0.3-0.1,0.6-0.1,0.8c0,0.1,0,0.2,0,0.3
	c-0.1,0.4-0.1,0.8,0,1.2c0,0.1,0,0.1,0,0.1C53,94.4,53,95,53.1,95.6c0,0.4,0.1,0.7,0,1.1c-0.1,0.7-0.1,1.4-0.1,2c0,0.3,0,0.6,0,1
	L53,103c0,0.8,0,1.6,0,2.4c0,0.2,0,0.4,0,0.7c0,0.2,0,0.4,0,0.5c0,2.1-0.6,3.6-2,4.8c-0.3,0.2-0.6,0.4-1,0.5l-0.3,0.1
	c-0.4,0.2-0.8,0.3-1.3,0.5c-0.6,0.2-1.2,0.4-1.9,0.4c-0.3,0-0.5,0-0.8,0c-0.4,0-0.7,0.1-1.1,0c-0.1,0-0.3,0-0.5,0
	c-0.5,0.2-1,0.2-1.5,0.1c-0.2,0-0.4,0-0.6,0c-0.1,0-0.2,0-0.2,0c-0.3,0-0.8,0-1.2,0.3c-0.3-0.2-0.6-0.2-0.8-0.1c-0.1,0-0.2,0-0.2,0
	l-0.1-0.1l-0.2,0c-1.2,0.1-2.4,0-3.6,0c-0.8,0-1.5,0-2.3,0l-0.3,0c-0.4,0-0.8,0-1.2,0.1c-0.1,0-0.3,0-0.5,0l-0.2,0
	c-0.2,0-0.4,0-0.6-0.1l-0.4,0c-0.3,0-0.9,0-1.3,0.3c-0.1,0.1-0.1,0-0.1,0c-0.4-0.3-0.9-0.4-1.4-0.2c-0.3,0.1-0.4,0.1-0.6,0
	c-0.1-0.1-0.3-0.1-0.5-0.1c-0.4,0.2-0.9,0.1-1.4,0c-0.4-0.1-0.7-0.1-1.1-0.1c-0.6,0-1.1,0-1.7,0c-0.3,0-0.5,0-0.8,0
	c-0.1,0-0.2,0-0.3,0c-0.8,0.2-1.7,0.1-2.6,0.1c-0.5,0-1.1,0-1.6,0c0,0-0.1,0-0.1,0c-0.1,0-0.3,0-0.5,0.1c-0.3,0.1-0.6,0.1-1,0.1
	c-0.2,0-0.3,0-0.5,0c-0.2,0-0.4,0-0.6-0.1c-0.4-0.2-0.9-0.2-1.3-0.2c-0.1,0-0.2,0-0.4,0c0,0-0.1,0-0.2,0c-0.2,0-0.4,0.2-0.5,0.2
	c0,0-0.1,0.1-0.1,0.1l-0.2-0.1c-0.2-0.1-0.4-0.1-0.7-0.1c-0.2,0-0.5-0.1-0.7-0.1c-0.4,0-0.8-0.1-1.2-0.2c-0.4-0.1-0.8-0.3-1.2-0.5
	c-0.2-0.1-0.3-0.2-0.5-0.3c-0.4-0.2-0.8-0.5-1.2-0.7L5.7,111.7C5.7,111.7,5.7,111.7,5.7,111.7z"/>
<path d="M138.3,97c0,0,0-0.1,0-0.1c0-0.4,0-0.8-0.1-1.1c0-0.2-0.1-0.4-0.1-0.6v0c0-0.6-0.3-1.1-0.5-1.5
	c-0.4-0.7-1.1-1.1-1.9-1.1c0,0,0,0,0,0l-2.2,0c-0.2,0-0.4,0-0.6,0c-0.5,0-1,0-1.5,0c-0.3,0-0.6,0-0.9,0.1c-0.4,0.1-0.8,0.1-1.1,0
	c-0.2-0.1-0.4,0-0.5,0.1c-0.2,0.1-0.3,0.1-0.6,0l-0.1,0c-0.6-0.1-1.3-0.2-1.9,0.1c-0.3-0.2-0.6-0.2-0.8-0.2c-0.1,0-0.3,0-0.4,0.1
	c-0.3,0-0.5,0-0.8,0c-0.2,0-0.3,0-0.5-0.1c-0.2,0-0.4,0-0.6,0.1c-0.1,0-0.3,0-0.4,0.1c-0.1,0-0.2,0-0.3,0c-0.3,0-0.5,0.1-0.7,0
	c-0.4-0.1-0.8-0.1-1.3-0.1c-0.8,0-1.7,0-2.5,0l-1.4,0c0,0,0,0,0,0c-0.4,0-0.8,0.1-1.1,0.2c-0.1,0-0.2,0-0.4-0.1
	c-0.2-0.1-0.4-0.1-0.6-0.1c-0.5,0-0.9,0-1.4,0c-0.6,0-1.1,0-1.7,0c-0.1,0-0.2,0-0.3,0c-0.3,0-0.7,0-1.1,0.2
	c-0.4-0.2-0.8-0.2-1.2-0.2l-0.3,0c-1.2,0-2.4,0-3.6,0c-0.3,0-0.6,0-0.9,0.1c-0.2,0.1-0.4,0-0.6,0c-0.2,0-0.4,0-0.5,0
	c-0.3-0.2-0.5-0.1-0.7-0.1c-0.1,0-0.2,0-0.2,0c-0.3-0.1-0.7-0.1-1-0.1l-0.2,0c-0.3,0-0.6,0-0.9,0c-0.2,0-0.4,0-0.6,0
	c-0.1,0-0.3,0-0.4,0c-0.3,0-0.7,0-1,0.1c-0.2,0.1-0.4,0-0.7,0c-0.2,0-0.4-0.1-0.7-0.1c-0.3,0-0.5,0-0.8,0c-0.4,0-0.9,0-1.3,0.1
	c-0.3,0.1-0.7,0-1,0c-0.3,0-0.6-0.1-1,0c0,0-0.1,0-0.2,0c-0.1,0-0.2,0-0.3,0c-0.2,0-0.4,0.1-0.6,0.3c-0.1,0.1-0.1,0.1-0.4,0
	c-0.1,0-0.3-0.1-0.4-0.1c-0.3-0.1-0.7-0.2-1.1-0.2c-1.4,0-2.9,0-4.3,0c-0.9,0-1.7,0-2.6,0c-0.2,0-0.4,0-0.6,0c-0.6,0-1.2,0-1.9,0.1
	c-0.8-0.1-1.7-0.1-2.5-0.1c-0.6,0-1.2,0.1-1.9,0c-0.2,0-0.4,0-0.5,0c-0.1,0-0.1,0-0.2,0l-0.3,0c-0.2,0-0.4,0.1-0.6,0.1
	c-0.4,0-0.9,0-1.3,0l-3.2,0c-0.5-0.2-1.2-0.2-1.9,0.6c-0.1,0.1-0.2,0.2-0.3,0.3c-0.1,0.1-0.2,0.2-0.3,0.3c-0.2,0.2-0.4,0.4-0.4,0.7
	c0,0.2-0.1,0.3-0.1,0.5c-0.1,0.4-0.2,0.8-0.2,1.2l0,1c0,1.9,0,3.6-0.2,5.3l-0.1,0.6l0.1,0c0,0.1,0,0.2,0,0.4c-0.1,1,0.3,1.9,1.2,2.8
	c0.4,0.4,0.9,0.6,1.5,0.6c0,0,0.1,0,0.1,0c0.4,0,0.8,0,1.2,0l1,0c0.4,0,0.9,0,1.3,0l0.3,0c0.5,0,1.1,0,1.6-0.1c0.3,0,0.5,0,0.8,0
	c0.3,0,0.6,0.1,0.9,0c0.5,0,1,0,1.5,0c0.3,0,0.5,0,0.8,0c0.1,0,0.1,0,0.2,0c0.2,0,0.4,0,0.7-0.1c0.4-0.1,0.8-0.1,1.2-0.1l0.2,0
	c2.1,0,4.1,0,6.2,0l2.1,0l0.2,0c0.4,0,0.8,0,1.2-0.2c0.1-0.1,0.3,0,0.6,0l0.1,0c0.4,0.1,0.7,0.1,1.1,0c0.3-0.1,0.5-0.1,0.8-0.1
	l0.3,0c0.4,0,0.7,0,1.1-0.2c0.1-0.1,0.3-0.1,0.5,0c0.5,0.2,1,0.2,1.5,0.2l0.2,0c0.1,0,0.2,0,0.3,0c0.3,0,0.6,0,0.9-0.1
	c0.2-0.1,0.4-0.1,0.7,0c0.1,0,0.2,0,0.3,0.1c0.2,0,0.3,0,0.5-0.1c0.1-0.1,0.2,0,0.5,0c0.5,0.1,1.1,0.1,1.6,0c0.4-0.1,0.7-0.1,1.1,0
	c1.1,0.1,2.2,0.2,3.4-0.1c0,0,0.1,0,0.2,0l0.6,0c0.3,0,0.6,0,1,0c0.1,0,0.3,0,0.4,0c0.4,0,0.8,0,1.2-0.1c0.2-0.1,0.5,0,0.7,0
	c0.2,0,0.5,0.1,0.7,0.1c0.3,0,0.6,0,0.9,0c0.2,0,0.3,0,0.5,0c0.1,0,0.3,0,0.4,0c0.4,0,0.8,0,1.1-0.1c0.3-0.1,0.5-0.1,0.8,0
	c0.2,0,0.3,0.1,0.5,0.1c0.1,0,0.3,0,0.4-0.1c0.2-0.1,0.5-0.1,0.7-0.1l0.2,0c0.9,0,1.8,0,2.7,0l2.3,0c1.3,0,2.7,0,4,0
	c0.1,0,0.2,0,0.4,0c0.5,0,1,0,1.5-0.2c0,0,0.1,0,0.2,0c0.1,0,0.2,0,0.2,0c0.1,0,0.2,0,0.3,0c0.1,0,0.2,0,0.2,0l0.2,0
	c0.1,0,0.3,0,0.4,0c0.1,0,0.2,0,0.4,0c0.1,0,0.2,0,0.3,0c0.1,0,0.1,0,0.2,0c0.1,0,0.3,0,0.3,0c0.3,0.1,0.7,0.1,0.9,0.1
	c0.2,0,0.3,0,0.5,0c0.6,0.1,1.2,0.1,1.8-0.1c0.2-0.1,0.5-0.1,0.8-0.1l0.2,0c0.3,0,0.6,0,0.8,0c0.3,0,0.7,0,1,0
	c1.3-0.1,2.2-0.8,2.5-2.1c0.2-0.6,0.3-1.4,0.3-2.2c0-0.3,0-0.7,0-1c0-1,0-2.1,0.2-3.1C138.4,97.2,138.3,97.1,138.3,97z M132.3,103.1
	c-0.5,0.1-0.8,0.1-1.2,0c-0.3-0.1-0.6-0.1-0.8,0c-0.4,0.2-0.9,0.2-1.4,0.1c-0.2,0-0.5,0-0.7,0.1c-0.2,0-0.3,0.1-0.5,0
	c-0.5-0.2-1,0-1.3,0.1c-0.7-0.3-1.3-0.2-1.9-0.2c-0.2,0-0.5,0-0.7,0c-1.1,0-2.2,0-3.3,0l-0.5,0c-0.1,0-0.2,0-0.3,0
	c-0.4,0-0.9,0-1.3,0.2c-0.1,0-0.3,0.1-0.8,0c-0.5-0.1-0.9-0.1-1.5,0c-0.4,0.1-0.7,0-1.1,0l-0.1,0c-0.1,0-0.3,0-0.4-0.1
	c-0.3-0.1-0.7-0.1-1.1,0c-0.2,0.1-0.6,0.1-0.9,0c-0.1,0-0.3,0-0.4,0l-1.7,0c-1.1,0-2.3,0-3.4,0c-0.3,0-0.6,0-0.9,0.1
	c-0.1,0-0.3,0-0.4,0l-0.1,0c-0.9-0.2-1.7-0.2-2.5-0.1c-0.4,0-0.8,0-1.2,0c-0.2,0-0.4,0-0.6,0c-0.3,0-0.6,0-0.9,0
	c-0.6-0.1-1.1-0.1-1.5,0c-0.1,0-0.3,0-0.4,0c-0.3,0-0.6,0-0.9,0.1c-0.1,0-0.2,0-0.3,0c-0.1,0-0.1,0-0.2,0c-0.5-0.1-1.3-0.2-1.9,0.2
	c-0.1,0.1-0.1,0.1-0.3,0c-0.5-0.1-1.1-0.2-1.7,0.1c-0.4-0.2-0.8-0.2-1.1-0.2c-4,0-7.9,0-11.9,0.1l-0.1,0c-0.2,0-0.5,0-0.7,0.2
	c-0.4-0.3-0.9-0.2-1.3-0.2c-0.1,0-0.2,0-0.2,0l-0.3,0c-0.5,0.1-1,0.1-1.5,0c-0.3-0.1-0.6-0.1-0.8,0c-0.7,0.2-1.5,0.2-2.3,0.1
	c-0.4,0-0.7,0-1.1,0c-0.7,0-1.4,0-2.1,0l-0.7,0l-0.1-0.6c-0.1-0.6-0.1-1.1-0.2-1.7l0-0.1c0-0.2,0-0.4-0.1-0.6
	c-0.1-0.2-0.1-0.3,0-0.5c0.1-0.2,0-0.4,0-0.5l0-0.1c0,0,0-0.1,0-0.1c0.2-0.4,0.2-0.8,0.2-1.2c0-0.3,0-0.6,0.1-0.9
	c0.1-0.2,0.1-0.4,0-0.6c0-0.1,0-0.1,0-0.2c0,0,0-0.1,0-0.2c0.2-0.3,0.3-0.7,0.4-1c0.1-0.2,0.1-0.4,0.2-0.5c0.1-0.2,0.1-0.2,0.2-0.2
	c0.3,0,0.5,0,0.8,0l0.3,0l0.2,0l0.4,0c0.4,0.1,0.9,0.1,1.3,0.1c0.6,0,1.3,0,1.9,0l1.7,0c3.8,0,7.6,0,11.4,0c3.1,0,6.2,0,9.3,0
	c0.2,0,0.4,0,0.6-0.1c0.1,0,0.2,0,0.4,0l0.1,0c0.1,0,0.3,0,0.3,0c0.4,0.2,0.8,0.2,1.3,0.2l9.7,0c3.1,0,6.2,0,9.3,0
	c0.9,0,1.8,0,2.8,0l0.2,0c0.3,0,0.7,0,1-0.2c0,0,0.1,0,0.1,0c0.4,0.2,0.8,0.2,1.2,0.2l0.2,0c0.3,0,0.6,0,0.9,0c0.5,0,1,0,1.5,0
	c0.1,0,0.2,0,0.3,0c0.3,0,0.7,0,1.1-0.1c0.2-0.1,0.4-0.1,0.6,0c0.9,0.2,1.8,0.2,2.8,0c0.2-0.1,0.3,0,0.3,0c0.6,0.2,1.3,0.2,1.9,0.2
	c0.2,0,0.4,0,0.7,0c0.1,0,0.2,0,0.3,0c0.6,0.2,0.7,0.6,0.7,0.9c0,0.6,0,1.3-0.1,1.9c0,0.3,0,0.6,0,0.8l0,0.1
	c0.1,1.1,0.1,2.2,0.1,3.2c0,0.1-0.1,0.3-0.1,0.5l-0.1,0.2v0c0,0.1-0.1,0.3-0.1,0.3c0,0-0.2,0-0.4,0c-0.1,0-0.1,0-0.2,0
	c-0.2,0-0.6,0-0.9,0.2C133,103,132.6,103.1,132.3,103.1z"/>
</svg>
