<svg width="141" height="141" viewBox="0 0 141 141" fill="none" xmlns="http://www.w3.org/2000/svg">
<g clip-path="url(#clip0_1282_98)">
<path d="M70.6786 76.3538L78.2528 41.7849L79.7645 43.4058L94.9489 74.7483L130.303 73.448L108.321 98.5405L117.612 129.173L86.7911 114.706L61.4076 136.125C61.4076 136.125 60.7854 133.581 61.4076 130.078C62.0298 126.575 67.1872 101.934 67.1872 101.934L37.1682 82.4961L69.9536 78.4337L70.6786 76.3538Z" fill="#C21146"/>
<path d="M117.191 129.842C116.283 130.014 115.437 129.529 114.573 129.191C112.272 128.288 110.056 127.195 107.86 126.059C106.722 125.472 105.529 124.99 104.377 124.423C102.929 123.713 101.461 123.048 100.045 122.271C98.9494 121.671 97.8207 121.12 96.7049 120.558C95.4605 119.932 94.2444 119.25 92.9898 118.637C91.7968 118.055 90.6142 117.442 89.465 116.778C88.5934 116.275 87.7912 116.291 86.9042 116.729C85.557 117.396 84.4823 118.401 83.3974 119.396C80.8418 121.733 78.5073 124.297 75.9749 126.662C75.0416 127.531 74.0569 128.357 73.1699 129.283C72.6223 129.855 71.995 130.353 71.3856 130.863C69.262 132.65 67.0766 134.348 64.7216 135.833C64.0197 136.277 63.2433 136.531 62.5183 136.903C61.8061 137.267 60.6697 136.538 60.5463 135.71C60.4332 134.941 60.4075 134.179 60.464 133.376C60.6106 131.278 61.2533 129.293 61.5644 127.242C61.8292 125.498 62.3614 123.82 62.6442 122.089C62.9219 120.386 63.4541 118.742 63.7446 117.05C64.048 115.278 64.5673 113.559 64.9093 111.802C65.1201 110.715 65.5263 109.666 65.5572 108.54C65.5649 108.225 65.6909 107.907 65.7989 107.602C66.0662 106.848 66.2436 106.083 66.2025 105.275C66.1896 105.027 66.1974 104.757 66.2822 104.527C66.6447 103.516 66.3002 102.744 65.6317 101.967C64.4954 100.644 63.1327 99.646 61.6724 98.7099C59.8547 97.543 57.9136 96.6172 56.0445 95.5503C54.3913 94.6065 52.6379 93.8422 50.9462 92.9651C50.0566 92.5035 49.1927 91.9803 48.3057 91.5315C47.2851 91.016 46.2747 90.4877 45.2668 89.944C44.2307 89.3849 43.2049 88.813 42.1868 88.2205C40.9707 87.5127 39.86 86.6741 38.739 85.838C38.1271 85.3815 37.5975 84.8378 37.0345 84.3274C36.7182 84.0402 36.5845 83.6888 36.4817 83.299C36.294 82.586 36.474 82.1936 37.163 81.9628C38.2557 81.5961 39.3407 81.1498 40.5362 81.3088C40.9167 81.3601 41.2406 81.1652 41.5929 81.0959C42.521 80.9139 43.4568 80.9113 44.3927 80.8497C45.5728 80.7702 46.7477 80.5574 47.915 80.3445C48.2749 80.2804 48.6271 80.2137 48.9871 80.224C50.1851 80.2522 51.3575 80.0906 52.5248 79.8341C52.769 79.7803 53.0313 79.7828 53.2832 79.7905C54.8849 79.8418 56.4327 79.4366 58.0036 79.2443C58.3609 79.2007 58.7183 79.1289 59.0783 79.1417C60.4229 79.1878 61.7341 78.975 63.0556 78.7647C63.7266 78.657 64.4208 78.5134 65.0893 78.5287C66.6396 78.5646 67.6911 77.626 68.8352 76.8335C68.9149 76.7771 68.9612 76.6617 69.0075 76.5668C69.8662 74.7382 70.5629 72.8609 70.5501 70.8015C70.5424 69.6012 70.9794 68.4728 71.0977 67.293C71.1183 67.0802 71.2031 66.8673 71.1954 66.657C71.1594 65.7517 71.2751 64.8643 71.4268 63.9718C71.7225 62.2048 71.8484 60.4172 72.1955 58.6476C72.54 56.8883 73.0954 55.1597 73.2831 53.3901C73.4296 52.018 73.8769 50.7331 74.0929 49.3867C74.2652 48.3095 74.4426 47.1888 74.8925 46.1552C75.1805 45.4961 75.2627 44.7729 75.4813 44.0881C75.7281 43.3084 76.1369 42.6493 76.5662 41.9953C77.2912 40.8874 78.4225 40.8541 79.3815 41.7927C80.2145 42.6083 80.7133 43.6367 81.302 44.6036C82.1916 46.0706 82.8858 47.6401 83.6185 49.1917C84.3795 50.7998 85.03 52.4565 85.8064 54.0518C86.6523 55.788 87.3722 57.5756 88.1897 59.3221C89.2233 61.5226 90.1951 63.7512 91.2312 65.9491C92.3573 68.3368 93.4937 70.722 94.7381 73.0532C94.9001 73.3558 95.0363 73.4866 95.3603 73.5174C97.0366 73.6816 98.6743 73.997 100.405 73.7893C101.752 73.6277 103.132 73.4507 104.508 73.4969C105.529 73.5302 106.518 73.3379 107.511 73.1532C107.652 73.1276 107.796 73.0737 107.935 73.0789C109.686 73.1584 111.367 72.5762 113.08 72.4813C114.674 72.3915 116.206 71.9043 117.808 71.9504C118.332 71.9658 118.867 71.7632 119.394 71.6427C120.17 71.4657 120.937 71.2477 121.746 71.317C121.89 71.3298 122.045 71.3375 122.178 71.299C123.909 70.7758 125.732 70.7681 127.48 70.3219C128.344 70.1013 129.272 70.15 130.128 70.604C130.879 71.0015 131.251 71.6734 131.092 72.5326C130.871 73.7252 130.29 74.7382 129.562 75.6948C127.937 77.8312 126.184 79.8572 124.418 81.8756C122.15 84.4685 119.831 87.0152 117.584 89.6311C116.044 91.4238 114.437 93.1754 112.799 94.8912C112.259 95.458 111.758 96.076 111.149 96.5608C110.041 97.4404 109.879 98.6433 109.835 99.9076C109.773 101.657 110.236 103.308 110.725 104.973C111.079 106.183 111.527 107.355 112.062 108.479C112.509 109.415 112.861 110.407 113.411 111.284C113.704 111.754 113.853 112.272 114.049 112.749C115.013 115.103 116.157 117.381 117.137 119.73C117.628 120.907 118.119 122.097 118.566 123.284C119.078 124.641 119.543 126.047 119.646 127.537C119.695 128.252 119.33 128.78 119.047 129.345C118.898 129.642 118.556 129.87 118.139 129.85C117.849 129.834 117.558 129.847 117.183 129.847L117.191 129.842ZM38.2891 82.822C38.811 83.022 39.0476 83.5118 39.5078 83.7145C40.5799 84.1889 41.5903 84.8044 42.611 85.3712C44.6472 86.5022 46.7426 87.5153 48.8045 88.5873C51.373 89.9235 53.9954 91.1468 56.551 92.5163C58.8571 93.7525 61.2148 94.8886 63.2381 96.5556C64.6342 97.7046 66.2822 98.6227 67.0124 100.459C67.2952 101.172 67.5163 101.867 67.5831 102.626C67.6397 103.285 67.3517 103.919 67.4006 104.55C67.524 106.212 66.7938 107.714 66.583 109.317C66.4288 110.5 66.2205 111.723 65.7243 112.851C65.6549 113.01 65.6754 113.205 65.6395 113.382C65.4132 114.506 65.2718 115.655 64.9273 116.739C64.5159 118.042 64.5262 119.448 63.9143 120.694C63.8989 120.725 63.9066 120.766 63.9015 120.802C63.6521 122.541 63.4464 124.29 62.8731 125.964C62.8268 126.098 62.8113 126.247 62.8113 126.39C62.8113 127.657 62.4051 128.86 62.1969 130.094C61.9398 131.622 61.5953 133.133 61.7238 134.694C61.7418 134.915 61.5953 135.21 61.9141 135.333C62.6519 134.728 63.3615 134.128 64.0943 133.551C65.9043 132.125 67.6268 130.596 69.298 129.014C71.1671 127.247 72.99 125.434 74.8308 123.636C75.1882 123.287 75.5455 122.936 75.8772 122.564C76.6125 121.738 77.4969 121.053 78.2322 120.24C79.3429 119.007 80.595 117.942 81.8445 116.868C82.7418 116.096 83.7393 115.46 84.6238 114.662C85.3642 113.993 86.2821 113.513 87.3953 113.808C89.2747 114.306 91.0487 115.075 92.7404 115.991C94.2779 116.824 95.8153 117.665 97.3476 118.506C98.5972 119.191 99.8364 119.889 101.117 120.52C102.135 121.022 103.158 121.54 104.135 122.112C105.408 122.859 106.732 123.505 108.022 124.218C109.616 125.098 111.272 125.859 112.889 126.698C114.167 127.36 115.419 128.075 116.954 128.391C116.45 127.126 116.016 125.918 115.486 124.754C115.026 123.746 114.615 122.715 114.175 121.702C113.697 120.604 113.17 119.512 112.802 118.363C112.542 117.552 112.259 116.745 111.902 115.975C111.419 114.934 111.113 113.823 110.64 112.785C110.102 111.608 109.614 110.397 109.19 109.192C108.691 107.779 108.154 106.368 107.716 104.929C107.369 103.788 107.174 102.621 106.966 101.462C106.801 100.551 106.855 99.6024 107.179 98.6817C107.65 97.343 108.496 96.212 109.321 95.1246C110.421 93.6755 111.789 92.4291 113.056 91.1083C114.247 89.8696 115.476 88.6693 116.651 87.4178C117.962 86.0226 119.178 84.5377 120.533 83.1887C122.909 80.8215 125.233 78.4108 127.506 75.9487C128.084 75.3229 128.673 74.6843 129.141 73.7739C127.925 74.1252 126.816 74.0868 125.78 74.2996C124.012 74.6664 122.212 74.7818 120.453 75.1306C119.551 75.3101 118.63 75.1639 117.764 75.387C115.9 75.8666 113.977 75.8615 112.103 76.1949C110.964 76.3975 109.804 76.3283 108.67 76.5924C107.763 76.8053 106.827 77.0284 105.904 77.0284C103.983 77.031 102.081 77.3926 100.16 77.249C98.5817 77.131 96.9851 77.0746 95.6251 76.0975C94.6661 76.0539 94.4604 75.187 94.1365 74.5843C93.1492 72.7608 92.2365 70.8887 91.3624 69.0113C90.6708 67.5264 89.8969 66.0774 89.2438 64.5694C88.6602 63.2255 88.0303 61.8919 87.4339 60.5557C86.9711 59.517 86.5546 58.4373 86.0609 57.414C85.1714 55.5726 84.4181 53.6748 83.5748 51.8154C82.6415 49.7611 81.6877 47.7196 80.6078 45.7423C80.1142 44.837 79.546 43.9676 78.9753 43.0186C78.4842 44.837 78.1371 46.5579 77.6075 48.2351C77.2938 49.2251 76.9802 50.233 76.7899 51.246C76.4891 52.8669 76.1934 54.4852 75.7744 56.0804C75.7281 56.2522 75.6587 56.4292 75.6587 56.6036C75.6638 57.7987 75.2344 58.9246 75.1213 60.112C74.9876 61.4944 74.4734 62.8357 74.548 64.2616C74.5583 64.436 74.4914 64.6155 74.4683 64.7925C74.3269 65.7876 74.0852 66.7698 74.1263 67.7854C74.1392 68.1471 74.1701 68.5189 74.0981 68.8677C73.6764 70.904 73.5633 72.9917 73.0594 75.0177C72.7226 76.377 72.1081 77.5516 71.1723 78.58C70.6272 79.1802 69.9433 79.4058 69.154 79.4597C67.6088 79.5623 66.0997 80.0393 64.5288 79.906C64.4954 79.9034 64.4594 79.9213 64.4234 79.9265C63.2201 80.1701 62.0143 80.3701 60.7777 80.3265C60.5283 80.3189 60.2738 80.3573 60.0244 80.3907C58.2761 80.6138 56.5484 81.0318 54.7692 80.978C54.4839 80.9703 54.1908 80.9959 53.908 81.0472C52.8076 81.2498 51.7098 81.4627 50.5811 81.414C49.7095 81.3755 48.8662 81.6191 48.0075 81.714C46.9354 81.832 45.8787 82.0987 44.7886 82.0679C44.4261 82.0577 44.0533 82.0218 43.7011 82.0859C42.4233 82.3167 41.1455 82.5116 39.8369 82.5168C39.3201 82.5168 38.8059 82.7168 38.2891 82.8271V82.822Z" fill="black"/>
<path d="M106.961 33.6191L108.033 16.8796L108.855 17.5311L118.216 31.1339L134.689 28.0025L126.187 41.3284L132.735 55.0185L117.255 50.438L106.896 62.2841C106.896 62.2841 106.423 61.1377 106.462 59.4502C106.5 57.7627 107.153 45.8499 107.153 45.8499L91.694 38.8817L106.765 34.6398L106.955 33.614L106.961 33.6191Z" fill="#CCCCCC"/>
<path d="M132.591 55.3648C132.177 55.5109 131.745 55.3442 131.318 55.2468C130.174 54.9878 129.058 54.6338 127.948 54.2594C127.372 54.0645 126.778 53.9234 126.199 53.7413C125.469 53.5105 124.734 53.3053 124.014 53.0412C123.459 52.8386 122.891 52.6616 122.328 52.477C121.7 52.2718 121.081 52.0384 120.448 51.8435C119.846 51.6563 119.25 51.4511 118.664 51.2229C118.219 51.0485 117.844 51.1151 117.461 51.3819C116.877 51.7896 116.445 52.3385 116.008 52.8822C114.977 54.1594 114.067 55.5263 113.051 56.8163C112.676 57.2908 112.275 57.7473 111.925 58.2449C111.709 58.5526 111.45 58.8296 111.203 59.1117C110.336 60.1017 109.434 61.0531 108.436 61.9149C108.138 62.1713 107.794 62.3483 107.48 62.574C107.171 62.7945 106.588 62.5355 106.472 62.1559C106.364 61.802 106.297 61.4481 106.266 61.0685C106.184 60.076 106.344 59.0989 106.344 58.1166C106.344 57.2805 106.472 56.4573 106.48 55.6264C106.488 54.8082 106.621 54.0004 106.634 53.1874C106.65 52.3359 106.77 51.4947 106.804 50.6458C106.824 50.1201 106.94 49.5994 106.873 49.0711C106.855 48.9224 106.891 48.7634 106.919 48.6146C106.991 48.2427 107.02 47.8709 106.943 47.4964C106.919 47.381 106.904 47.2528 106.925 47.1399C107.022 46.6398 106.804 46.3039 106.436 45.9858C105.809 45.4473 105.099 45.078 104.348 44.742C103.413 44.324 102.436 44.029 101.484 43.6623C100.644 43.3391 99.7669 43.1032 98.9108 42.8134C98.4609 42.6621 98.0187 42.4774 97.5713 42.3312C97.0571 42.162 96.5455 41.9876 96.0338 41.8055C95.5094 41.6183 94.9875 41.4233 94.4655 41.2182C93.8459 40.972 93.2649 40.6591 92.6787 40.3488C92.3599 40.1795 92.0719 39.9615 91.7711 39.764C91.6014 39.6512 91.514 39.4973 91.4395 39.3229C91.3006 39.0023 91.3572 38.8048 91.6631 38.6484C92.1491 38.3996 92.6247 38.1124 93.198 38.1021C93.3806 38.0996 93.5168 37.9841 93.6788 37.9277C94.1005 37.7764 94.5401 37.7097 94.9746 37.6123C95.5222 37.4917 96.057 37.3071 96.5892 37.125C96.7537 37.0686 96.9131 37.0121 97.0828 36.9916C97.6459 36.9198 98.1858 36.7608 98.7128 36.5556C98.8234 36.512 98.9468 36.4941 99.0651 36.4813C99.8184 36.3915 100.515 36.0914 101.238 35.8888C101.402 35.8427 101.564 35.7837 101.734 35.7632C102.366 35.6888 102.965 35.4964 103.569 35.3015C103.875 35.2041 104.192 35.0861 104.505 35.0451C105.233 34.9502 105.66 34.4372 106.138 33.9833C106.171 33.9525 106.184 33.8935 106.2 33.8448C106.472 32.9267 106.662 31.9983 106.508 31.034C106.418 30.4723 106.542 29.9132 106.513 29.3515C106.508 29.249 106.531 29.1438 106.513 29.0464C106.431 28.6232 106.423 28.2 106.428 27.7717C106.441 26.9228 106.372 26.0765 106.408 25.2225C106.444 24.3736 106.58 23.5247 106.542 22.6809C106.511 22.0269 106.629 21.3935 106.634 20.7472C106.639 20.2291 106.642 19.6905 106.778 19.175C106.865 18.8468 106.853 18.5005 106.907 18.1646C106.966 17.7824 107.112 17.4439 107.264 17.1054C107.524 16.5334 108.053 16.4386 108.57 16.8104C109.02 17.1336 109.326 17.5798 109.67 17.9902C110.192 18.6134 110.629 19.3007 111.085 19.9752C111.555 20.6754 111.979 21.4037 112.457 22.0962C112.979 22.8502 113.442 23.6375 113.951 24.3967C114.591 25.3533 115.208 26.3278 115.851 27.2844C116.55 28.3231 117.252 29.3592 118.003 30.362C118.101 30.4928 118.173 30.5441 118.327 30.5364C119.124 30.4954 119.916 30.5236 120.71 30.3056C121.33 30.1338 121.965 29.9517 122.61 29.8747C123.091 29.8183 123.541 29.6567 123.994 29.5003C124.058 29.4772 124.122 29.4413 124.186 29.4362C125.014 29.349 125.757 28.9566 126.554 28.7899C127.295 28.6334 127.979 28.2975 128.732 28.2026C128.979 28.1718 129.215 28.0385 129.452 27.9461C129.801 27.8076 130.146 27.6512 130.532 27.6255C130.598 27.6204 130.673 27.6153 130.732 27.5845C131.506 27.2152 132.36 27.0818 133.146 26.7484C133.535 26.5843 133.974 26.5407 134.406 26.692C134.787 26.8254 135.008 27.1126 134.995 27.5255C134.977 28.1 134.776 28.6155 134.504 29.1156C133.894 30.2312 133.218 31.3084 132.537 32.3804C131.66 33.7576 130.755 35.1169 129.891 36.5018C129.297 37.4507 128.67 38.3868 128.027 39.3075C127.814 39.6127 127.624 39.9384 127.374 40.2077C126.917 40.7001 126.93 41.2746 126.999 41.8696C127.097 42.6928 127.431 43.434 127.778 44.1803C128.03 44.7215 128.323 45.2395 128.655 45.7294C128.932 46.1372 129.169 46.5757 129.488 46.9476C129.66 47.1451 129.765 47.3784 129.891 47.5887C130.511 48.6249 131.21 49.6071 131.838 50.6381C132.151 51.1536 132.468 51.6768 132.763 52.2025C133.1 52.8001 133.419 53.4284 133.573 54.1183C133.648 54.4492 133.514 54.7236 133.421 55.0083C133.373 55.1596 133.229 55.2904 133.033 55.3083C132.897 55.3212 132.761 55.3494 132.586 55.375L132.591 55.3648ZM92.2493 38.9587C92.509 39.0151 92.6555 39.228 92.8844 39.2896C93.4217 39.4357 93.9385 39.6512 94.4578 39.8435C95.4939 40.2282 96.5481 40.5539 97.5893 40.9078C98.8877 41.3515 100.204 41.7388 101.5 42.1979C102.67 42.6133 103.855 42.9775 104.924 43.6135C105.66 44.0521 106.498 44.365 106.973 45.1728C107.159 45.4883 107.31 45.7961 107.395 46.1474C107.47 46.4526 107.38 46.7706 107.447 47.063C107.624 47.8324 107.39 48.589 107.405 49.3558C107.418 49.92 107.408 50.5099 107.256 51.0715C107.236 51.151 107.256 51.2408 107.256 51.3254C107.231 51.8666 107.246 52.4154 107.164 52.9489C107.063 53.59 107.169 54.2466 106.973 54.8749C106.968 54.8903 106.973 54.9083 106.973 54.9262C106.981 55.7597 107.009 56.5932 106.86 57.419C106.847 57.4857 106.853 57.555 106.86 57.6216C106.95 58.2141 106.847 58.8091 106.837 59.4015C106.827 60.1376 106.773 60.8685 106.945 61.5917C106.968 61.6943 106.922 61.8431 107.079 61.8764C107.38 61.5404 107.67 61.207 107.974 60.8864C108.719 60.0888 109.416 59.2502 110.087 58.3885C110.835 57.4267 111.56 56.447 112.295 55.475C112.437 55.2853 112.581 55.0955 112.709 54.898C112.995 54.4594 113.36 54.0747 113.645 53.6413C114.077 52.9848 114.589 52.3949 115.095 51.8025C115.46 51.3767 115.882 51.0074 116.239 50.5714C116.538 50.2047 116.934 49.9149 117.476 49.9739C118.391 50.0739 119.278 50.3073 120.137 50.615C120.919 50.8946 121.698 51.1793 122.477 51.4665C123.112 51.6973 123.742 51.9358 124.387 52.141C124.901 52.3026 125.415 52.4744 125.917 52.6719C126.567 52.9309 127.233 53.1386 127.889 53.3797C128.698 53.6772 129.529 53.9183 130.346 54.1953C130.992 54.4158 131.632 54.6595 132.372 54.6979C132.046 54.1414 131.755 53.6054 131.424 53.0976C131.136 52.6591 130.868 52.2025 130.591 51.7614C130.287 51.2818 129.963 50.8074 129.709 50.2944C129.529 49.9328 129.339 49.5738 129.118 49.2404C128.817 48.7864 128.593 48.2889 128.297 47.835C127.961 47.322 127.647 46.7886 127.362 46.2551C127.027 45.6294 126.675 45.0062 126.367 44.3624C126.122 43.8521 125.947 43.3186 125.768 42.7903C125.626 42.3748 125.582 41.9286 125.667 41.4721C125.791 40.8104 126.107 40.2205 126.415 39.6537C126.827 38.8972 127.377 38.215 127.878 37.5046C128.346 36.8403 128.837 36.1889 129.297 35.5195C129.812 34.7732 130.274 33.9884 130.814 33.2601C131.758 31.9829 132.673 30.6852 133.563 29.3695C133.789 29.0361 134.02 28.695 134.172 28.2334C133.627 28.4847 133.105 28.5462 132.635 28.7206C131.833 29.0181 130.997 29.2002 130.197 29.49C129.786 29.6388 129.346 29.6362 128.956 29.8029C128.117 30.1594 127.215 30.2953 126.361 30.5851C125.842 30.7621 125.294 30.8108 124.783 31.016C124.371 31.1801 123.95 31.352 123.518 31.4187C122.618 31.5571 121.752 31.8623 120.841 31.9316C120.093 31.988 119.343 32.0752 118.633 31.7162C118.18 31.7649 118.024 31.3725 117.826 31.1135C117.232 30.3287 116.671 29.5182 116.126 28.7001C115.694 28.0538 115.229 27.4306 114.815 26.7689C114.445 26.1816 114.054 25.602 113.679 25.0173C113.388 24.5634 113.116 24.0863 112.81 23.6426C112.262 22.8425 111.771 22.0064 111.244 21.196C110.66 20.2983 110.066 19.411 109.418 18.5621C109.123 18.1723 108.794 17.8055 108.457 17.4029C108.357 18.2902 108.318 19.1212 108.19 19.9444C108.115 20.4317 108.038 20.9267 108.022 21.414C107.997 22.1962 107.976 22.9758 107.894 23.7529C107.886 23.8376 107.863 23.9248 107.876 24.0068C107.963 24.5659 107.845 25.125 107.876 25.6892C107.912 26.3458 107.768 27.0126 107.904 27.6743C107.922 27.7563 107.904 27.8435 107.904 27.9282C107.909 28.4052 107.866 28.8822 107.958 29.3541C107.992 29.5234 108.033 29.6952 108.022 29.8645C107.971 30.8493 108.066 31.8341 107.976 32.819C107.914 33.4806 107.711 34.0756 107.346 34.6245C107.133 34.945 106.829 35.0989 106.464 35.181C105.747 35.34 105.073 35.6708 104.33 35.7196C104.315 35.7196 104.3 35.7324 104.282 35.7375C103.734 35.9376 103.184 36.1171 102.603 36.1838C102.484 36.1966 102.369 36.2351 102.256 36.2684C101.454 36.4992 100.675 36.8172 99.8338 36.9173C99.7001 36.9326 99.5638 36.966 99.4353 37.0121C98.9339 37.184 98.4352 37.3635 97.903 37.4199C97.4916 37.4635 97.1137 37.6379 96.7177 37.7431C96.2241 37.8764 95.7485 38.0739 95.2343 38.138C95.0646 38.1585 94.8872 38.1688 94.7278 38.2227C94.1442 38.4227 93.5605 38.6048 92.9486 38.6997C92.707 38.7382 92.4807 38.8664 92.2468 38.9562L92.2493 38.9587Z" fill="black"/>
<path d="M30.4373 25.8457L40.9578 4.50269L41.6828 5.80296L46.5317 28.695L69.8122 33.5242L51.4167 46.368L52.535 67.8494L34.7566 53.4566L14.7361 63.3587C14.7361 63.3587 14.7387 61.5994 15.7131 59.4118C16.6875 57.2241 24.0278 41.9722 24.0278 41.9722L7.5759 24.471L29.6274 27.087L30.4373 25.8457Z" fill="#C21146"/>
<path d="M52.1571 68.2214C51.5375 68.188 51.0618 67.7341 50.5553 67.375C49.1978 66.4159 47.9303 65.3464 46.6808 64.2539C46.0329 63.6871 45.3311 63.1818 44.6729 62.6279C43.8424 61.9303 42.9914 61.2635 42.1919 60.5274C41.5748 59.9606 40.9269 59.4195 40.2893 58.8732C39.5772 58.2628 38.8933 57.6242 38.1734 57.0241C37.4869 56.4522 36.8159 55.8623 36.1731 55.2443C35.6847 54.7749 35.1602 54.6569 34.5097 54.8006C33.5224 55.0186 32.6586 55.5033 31.7896 55.9777C29.7431 57.0934 27.8071 58.3911 25.7734 59.5272C25.0253 59.9452 24.2488 60.3248 23.5212 60.7864C23.0713 61.0711 22.5802 61.2943 22.102 61.5328C20.4283 62.3586 18.7263 63.1152 16.9523 63.705C16.4227 63.882 15.8751 63.923 15.3403 64.0487C14.8184 64.1718 14.1936 63.5152 14.2451 62.9536C14.2939 62.433 14.4019 61.9328 14.569 61.4174C15.0035 60.0709 15.7439 58.8784 16.2787 57.5909C16.7338 56.4958 17.3508 55.4853 17.8162 54.403C18.2712 53.3362 18.8857 52.3488 19.3485 51.2896C19.8318 50.1816 20.4489 49.143 20.9554 48.053C21.269 47.3785 21.7035 46.7578 21.9041 46.0269C21.9606 45.8217 22.0943 45.6345 22.2126 45.4524C22.5083 45.0036 22.7474 44.5343 22.8502 44.0008C22.8811 43.8367 22.9299 43.6623 23.0225 43.5238C23.4235 42.9237 23.3207 42.3646 23.0096 41.7491C22.4825 40.7027 21.7524 39.8333 20.9528 38.987C19.9553 37.9329 18.8369 37.0173 17.7905 36.0222C16.8649 35.1426 15.8442 34.3603 14.8801 33.5166C14.3736 33.0729 13.8954 32.5907 13.3889 32.1573C12.8053 31.6572 12.232 31.1494 11.6638 30.6339C11.0776 30.103 10.4991 29.5644 9.93091 29.0156C9.25216 28.3591 8.66083 27.6333 8.06436 26.9075C7.73784 26.51 7.48074 26.0714 7.19536 25.6482C7.03339 25.4097 7.0051 25.1584 6.99996 24.8891C6.99225 24.3941 7.17222 24.1659 7.66071 24.1274C8.43458 24.0633 9.2136 23.9453 9.9669 24.2428C10.206 24.3377 10.4502 24.2608 10.6894 24.2736C11.3244 24.3044 11.9363 24.4531 12.5559 24.5634C13.3401 24.7019 14.1396 24.7506 14.9367 24.7993C15.1809 24.8147 15.4226 24.8301 15.6565 24.8917C16.433 25.102 17.2248 25.1866 18.027 25.2045C18.1941 25.2071 18.3664 25.2507 18.5283 25.2969C19.5645 25.5867 20.6417 25.5713 21.6984 25.6995C21.9401 25.7277 22.1843 25.7406 22.4157 25.8047C23.2847 26.0509 24.1768 26.1227 25.0716 26.1971C25.5266 26.2355 26.0023 26.2535 26.4368 26.3689C27.442 26.6407 28.2802 26.1971 29.1543 25.8637C29.216 25.8406 29.2649 25.7713 29.3086 25.7175C30.1647 24.6608 30.9206 23.5504 31.2445 22.2039C31.4348 21.4191 31.9001 20.7523 32.1675 20.0034C32.2164 19.8675 32.3064 19.7419 32.3346 19.6034C32.458 19.0058 32.6766 18.4467 32.9183 17.8876C33.3965 16.7822 33.7667 15.6359 34.2809 14.5382C34.7899 13.4456 35.4327 12.407 35.8389 11.2811C36.1551 10.4091 36.6565 9.64227 37.0139 8.7985C37.3018 8.124 37.5975 7.41873 38.0577 6.8186C38.3508 6.4339 38.523 5.97483 38.775 5.56449C39.063 5.09516 39.4357 4.73098 39.8214 4.37193C40.4744 3.7641 41.2175 3.92568 41.6931 4.69251C42.1045 5.35931 42.2639 6.10819 42.4927 6.83655C42.8372 7.93678 43.0377 9.07292 43.264 10.2014C43.5005 11.3734 43.6573 12.5583 43.9067 13.7252C44.1793 14.9947 44.3592 16.277 44.6112 17.5465C44.93 19.1494 45.2051 20.7574 45.5265 22.3604C45.8761 24.0992 46.2335 25.838 46.668 27.5589C46.7245 27.782 46.7914 27.8897 46.9996 27.9615C48.0666 28.3385 49.0847 28.8079 50.2468 28.9489C51.1518 29.0592 52.0825 29.1669 52.9721 29.4157C53.6328 29.6029 54.309 29.6337 54.9878 29.6747C55.0854 29.6799 55.1857 29.667 55.2783 29.6952C56.4095 30.0286 57.5973 29.9184 58.7311 30.1312C59.7852 30.3287 60.8651 30.2569 61.9038 30.5441C62.2431 30.639 62.6262 30.5903 62.9887 30.598C63.5235 30.6083 64.0583 30.5877 64.5776 30.7621C64.6702 30.7929 64.7704 30.8237 64.863 30.8186C66.0765 30.7544 67.2669 31.0417 68.4804 31.0314C69.0794 31.0263 69.6785 31.2058 70.1618 31.6392C70.5886 32.0214 70.7223 32.5164 70.4806 33.0524C70.1438 33.7961 69.6013 34.3629 68.9714 34.8707C67.5651 36.0017 66.0945 37.0455 64.6162 38.0791C62.7162 39.4076 60.7931 40.6976 58.906 42.0415C57.6102 42.9647 56.281 43.8495 54.9363 44.7061C54.4915 44.9882 54.0648 45.3114 53.5891 45.5294C52.7227 45.9243 52.4245 46.6835 52.1931 47.5016C51.8691 48.6326 51.9051 49.7867 51.9565 50.951C51.9925 51.7974 52.0954 52.636 52.2625 53.4541C52.4039 54.1363 52.4733 54.8416 52.6918 55.5007C52.8075 55.8546 52.8204 56.2163 52.8718 56.5599C53.1212 58.2526 53.4991 59.9196 53.7588 61.6097C53.8899 62.456 54.0185 63.3126 54.1188 64.159C54.2344 65.1258 54.3116 66.1184 54.1367 67.1083C54.0545 67.5828 53.7305 67.87 53.4554 68.1906C53.3089 68.3624 53.0492 68.4547 52.7818 68.3752C52.5967 68.3188 52.4039 68.2803 52.1596 68.2188L52.1571 68.2214ZM8.25461 24.8634C8.56313 25.0789 8.63769 25.4354 8.90765 25.6431C9.5324 26.1253 10.0903 26.6895 10.6662 27.2229C11.8129 28.2873 13.0161 29.2849 14.1885 30.3159C15.6488 31.6008 17.1631 32.8215 18.608 34.1244C19.9141 35.3016 21.269 36.4223 22.3206 37.8354C23.0456 38.81 23.9737 39.6743 24.1537 40.9899C24.2231 41.5003 24.2565 41.9902 24.1768 42.4954C24.1074 42.9339 23.8169 43.3007 23.7475 43.7213C23.5598 44.8267 22.8399 45.6884 22.444 46.7014C22.1509 47.4477 21.8192 48.2146 21.3127 48.8685C21.2408 48.9609 21.2228 49.0917 21.1713 49.2019C20.8422 49.897 20.5646 50.6253 20.1661 51.2793C19.6879 52.0641 19.4668 52.9822 18.8677 53.6978C18.8523 53.7157 18.8523 53.7439 18.842 53.7645C18.3998 54.8596 17.9807 55.9675 17.338 56.9677C17.2865 57.0472 17.2506 57.1421 17.2274 57.2344C17.0217 58.0602 16.5641 58.7809 16.2273 59.5529C15.8108 60.5095 15.3454 61.4379 15.1758 62.4791C15.1526 62.6253 15.0086 62.7946 15.1963 62.9254C15.7748 62.6484 16.3353 62.3714 16.906 62.1124C18.3175 61.4712 19.6879 60.7505 21.0351 59.9888C22.5391 59.1348 24.0226 58.2449 25.5138 57.3678C25.8043 57.1985 26.0922 57.0267 26.3699 56.8369C26.9844 56.4163 27.6708 56.1111 28.2802 55.6982C29.2057 55.0724 30.193 54.5774 31.1828 54.0773C31.8924 53.7183 32.6457 53.4618 33.3528 53.0848C33.9441 52.7668 34.6203 52.6001 35.299 52.972C36.4457 53.5977 37.4792 54.3851 38.4356 55.2545C39.3046 56.0444 40.1711 56.842 41.0375 57.6371C41.7419 58.2834 42.4387 58.9399 43.1714 59.5554C43.755 60.0453 44.3387 60.5505 44.8837 61.0814C45.5933 61.7738 46.3543 62.4073 47.0793 63.0792C47.9766 63.9102 48.9356 64.6719 49.856 65.4798C50.5836 66.1184 51.2855 66.7852 52.2342 67.2365C52.1082 66.3312 52.0208 65.4721 51.864 64.6283C51.7277 63.8974 51.6249 63.1562 51.5015 62.4253C51.3652 61.6328 51.2007 60.8352 51.1441 60.0247C51.1055 59.4554 51.0515 58.8809 50.9436 58.3218C50.797 57.5653 50.7764 56.7907 50.635 56.0367C50.4731 55.1827 50.3522 54.3133 50.27 53.4593C50.1723 52.4565 50.0489 51.4511 49.9974 50.4407C49.9563 49.6405 50.0154 48.848 50.0668 48.0581C50.108 47.4375 50.2931 46.8271 50.6556 46.2782C51.1775 45.4806 51.9128 44.8779 52.6276 44.3009C53.5788 43.5315 54.6715 42.9365 55.7128 42.28C56.6898 41.6619 57.6847 41.0771 58.654 40.4488C59.7338 39.7487 60.7699 38.9741 61.8703 38.3125C63.8012 37.1507 65.7088 35.9478 67.5908 34.7091C68.069 34.3937 68.5575 34.0731 69.0074 33.5525C68.1564 33.5858 67.4417 33.3832 66.7295 33.3576C65.516 33.3114 64.3231 33.0985 63.1173 33.0447C62.4977 33.0165 61.9217 32.7728 61.3201 32.7805C60.0269 32.7933 58.7723 32.483 57.4945 32.3984C56.718 32.3471 55.9724 32.1163 55.1909 32.106C54.5635 32.0983 53.9182 32.0932 53.314 31.947C52.0619 31.6392 50.761 31.57 49.5295 31.1673C48.5191 30.8365 47.4856 30.5441 46.7554 29.6875C46.1358 29.5055 46.1435 28.9053 46.0278 28.4616C45.6781 27.1126 45.385 25.7457 45.1177 24.3787C44.9068 23.299 44.6343 22.2296 44.4518 21.1396C44.2872 20.1701 44.0918 19.1981 43.9196 18.2287C43.7859 17.4773 43.6882 16.7053 43.5314 15.959C43.2485 14.6151 43.0634 13.2559 42.814 11.9069C42.5364 10.4168 42.2433 8.93187 41.8576 7.46745C41.6802 6.79552 41.4514 6.13897 41.2303 5.42856C40.6158 6.53649 40.1119 7.60338 39.4975 8.61129C39.1324 9.20628 38.7647 9.8141 38.4793 10.445C38.0217 11.4555 37.5666 12.4634 37.0344 13.438C36.9779 13.5431 36.9007 13.6457 36.875 13.7611C36.6848 14.5433 36.2246 15.2076 35.9572 15.9641C35.6487 16.8464 35.0933 17.6388 34.9134 18.5801C34.8902 18.6955 34.8208 18.8032 34.7745 18.9135C34.52 19.5392 34.2063 20.1419 34.0675 20.8113C34.0186 21.0498 33.9775 21.2986 33.8747 21.514C33.2705 22.7758 32.8591 24.1197 32.2035 25.361C31.7639 26.1945 31.1725 26.8613 30.3961 27.3819C29.9436 27.6846 29.4603 27.723 28.9358 27.6307C27.9099 27.4486 26.8481 27.5179 25.8454 27.1793C25.8223 27.1716 25.7966 27.1793 25.7734 27.1768C24.9481 27.1409 24.128 27.0793 23.331 26.851C23.169 26.8049 22.9967 26.7921 22.8296 26.7715C21.6521 26.6382 20.4592 26.6331 19.3048 26.3099C19.1197 26.2586 18.9243 26.2278 18.7315 26.2176C17.9807 26.1714 17.23 26.1355 16.5024 25.9226C15.9393 25.7559 15.3506 25.7816 14.7747 25.7047C14.0548 25.6098 13.3246 25.6123 12.6176 25.4174C12.3836 25.3533 12.1445 25.2687 11.9054 25.2558C11.0339 25.202 10.17 25.1225 9.31387 24.9173C8.97706 24.8352 8.60684 24.884 8.25461 24.8711V24.8634Z" fill="black"/>
</g>
<defs>
<clipPath id="clip0_1282_98">
<rect width="128" height="133" fill="white" transform="translate(7 4)"/>
</clipPath>
</defs>
</svg>
