<?xml version="1.0" encoding="utf-8"?>
<!-- Generator: $$$/GeneralStr/196=Adobe Illustrator 27.6.0, SVG Export Plug-In . SVG Version: 6.00 Build 0)  -->
<svg version="1.1" id="Calque_1" xmlns="http://www.w3.org/2000/svg" xmlns:xlink="http://www.w3.org/1999/xlink" x="0px" y="0px"
	 viewBox="0 0 400 400" style="enable-background:new 0 0 400 400;" xml:space="preserve">
<style type="text/css">
	.st0{fill:#FFFFFF;}
	.st1{fill:#333333;}
	.st2{fill:#CCCCCC;}
	.st3{fill:#E80866;}
</style>
<path class="st0" d="M99,92c2.9,68.9-61.5,147.5-92.2,176.8L245.6,299c49.8-33.9,83.9-146.6,94.9-172.2c8.8-20.5,3.7-28.7,0-30.2
	L99,92z"/>
<g>
	<path class="st1" d="M77,312.5l179.1,22.1c0,0,53.1-32.5,107.2-174.9l31.7,5.4c0,0-31.3,122.6-127.5,203.7
		c0,0-155.2-10.5-217.8-23.9C49.7,344.9,73.4,325.7,77,312.5z"/>
	<path class="st2" d="M47.7,275.3c0,0-18.5,24.4-28.9,28.7l237.3,30.6c0,0,60.2-35.5,118.4-206.2l-32.3-6c0,0-30,110-96.2,177.1
		L47.7,275.3z"/>
	<path class="st3" d="M137.9,26.8c0,0-40.8,13.1-37.6,44.1c0,0,9.7,11.1,26.7,7.9l10.9,14c0,0-22.1,25.5,0.9,35.7
		c22.9,10.2,61.2-23,63.4-27.6s23-40-11.6-38.7c0,0-11.3,1.1-17.9,3.7l-12-14.6C160.6,51.2,169.8,22,137.9,26.8z"/>
	<g>
		<path d="M50.8,313c-1.9,0-3.8-0.2-5.6,0.1c-1.2,0.2-1.5-1.3-2.7-1c-1.1,0.3-2.3,0.1-3.5,0.1c-1,0-2,0-3,0c-0.8,0-1.2-1.1-2.2-0.9
			s-2,0-3,0c-0.9,0-1.7-0.1-2.6,0c-1.4,0.1-2.4-1.2-4-0.9c-1.2,0.3-2.6,0.3-3.9,0c-0.9-0.2-1.6-1-2.7-0.8c-1.8-1.2-3.8-2-5.7-3
			c-0.4-0.2-0.8-0.8-0.9-1.3c-0.1-0.3,0.3-0.7,0.5-1c0.1-0.1,0.3-0.2,0.3-0.3c0.2-0.7-0.4-1.5,0.3-2c1.2-0.9,1.8-2.7,3.6-2.8
			c2.1-1.8,5.1-1.7,7.2-3.4c0.9,0.1,1.6-0.1,2.3-0.8c1.1-1.2,2.3-2.3,3.9-3.2c1.3-0.7,2.1-2.5,3.5-3.2c2.3-1.3,3.9-3.3,5.7-5
			c0.5-0.5,1.1-0.8,1.8-0.9c0.2,0,0.3-0.5,0.3-0.7c0.1-0.5-0.3-1-0.7-0.8c-1.3,0.5-2-1-3.1-0.9c-1,0-2,0.2-2.7-0.8
			c-1.4,0-2.9,0-4.3,0c-1,0-2.1,0.4-2.9-0.3c-1-1-2.2-0.2-3.2-0.6c-0.9-0.4-1.6-1-2.4-1.5c-0.6-0.3-1-0.2-1.5,0.2
			c-0.3,0.2-1,0.5-1.1,0.4c-0.9-1-2-0.9-3.1-0.8s-2.3-0.4-3.1,0.8c-1.1-0.2-2.3,0.5-3.2-0.5c-0.2-0.2-0.8-0.3-1.2-0.3
			c-1.4,0-2.9-0.2-4.3,0C1.8,277.2,1,276,0.1,275c-0.2-0.3-0.3-0.8-0.3-1.2c0-1.2-0.3-2.4,0.1-3.4s1.5-1.7,2.4-2.5
			c1.4-1.4,2.8-2.7,4.5-3.8c1.7-1.1,2.9-2.8,4.3-4.2c3.2-1.5,5-4.6,7.6-6.7c0.7-0.6,0.8-1.4,1.3-2c0.4-0.6,1.4-0.6,2.1-1.2
			c0.8-0.7,0.9-1.7,1.5-2.4c0.7-0.9,1.6-1.7,2.4-2.5c0.7-0.7,1.8-1.3,2.1-2.2c0.6-1.6,2.2-2.3,2.7-3.6c0.6-1.4,2-2.1,2.5-3.3
			c0.6-1.5,1.8-2.4,2.8-3.6c-0.3-1.6,2.1-1.9,1.9-3.6c0-0.3,0.6-0.6,0.9-0.9c1-1.2,2.2-2,2.8-3.6c0.5-1.2,2-1.8,2.5-3.3
			c0.2-0.8,1.4-1.4,2.1-2.2c0.6-0.6,0.4-1.7,1.2-2.1c1.1-0.6,0.8-2,1.8-2.7c0.7-0.6,1.5-1.2,1.8-2.3c0.3-1,1.8-1.6,2.2-2.6
			c0.6-1.4,1.6-2.2,2.5-3.3s1-2.8,2.2-3.9c-0.2-0.9,0.8-1.3,0.8-1.8c0-1.1,0.9-1.4,1.3-2.1c0.4-0.6,0.5-1.4,1-1.7
			c1.2-0.8,1.1-2.2,2.1-3.1c1-0.8,1.1-2.1,1.7-3.2c0.2-0.4,0.4-0.8,0.7-1c1.5-0.9,1.7-2.9,3.1-3.9c0.8-0.6,0.6-1.8,1.5-2.4
			c0.7-0.6,1.8-1.1,1.6-2.3c2.5-2.6,3.4-6.1,5.1-9.1c0.4-0.8,1.4-1.5,0.9-2.6c0-0.1-0.1-0.4,0-0.4c1.1-0.9,2-2,1.8-3.6
			c1.1-0.9,1.2-2.4,1.8-3.6c0.2-0.4,0.7-0.7,0.6-1c-0.3-1.1,0.9-1.8,0.9-2.7s0.1-1.7,0.9-2.2c-0.4-1.1,1.3-1.5,0.9-2.7
			c-0.4-1,1.3-1.5,0.9-2.7c-0.1-0.2,0-0.7,0.1-0.8c1.6-1,1.7-2.5,1.6-4.1c1.2-0.8,0.8-2,0.9-3.1c0-0.9,1.1-1.2,0.9-2.2
			c-0.2-0.8-0.3-1.7,0.6-2.3c0.1-0.1,0.2-0.2,0.2-0.3c0.1-1.5-0.4-3.1,0.9-4.4c0-1.2,0-2.3,0-3.5c-0.1-1,1.1-1.5,0.9-2.7
			c-0.2-1-0.5-2.3,0.8-3.1c0-1.1,0-2.3,0-3.4c1.3-0.9,0.8-2.3,0.8-3.5c0-1.3,1.3-2.1,0.9-3.6c-0.3-1.2-0.1-2.6-0.1-3.9s0-2.6,0-3.9
			s0.2-2.6,0-3.9c-0.2-1.4,1.3-2.1,1-3.6c-0.3-1.2,0.1-2.6-0.1-3.9c-0.2-1.4,0.6-2.1,1.4-2.9c0.9-0.9,2.1-1.1,3.2-1.7
			c0.4-0.2,0.7-0.4,0.7-0.9s-0.3-1.2,0.3-1.6c0.3-0.2,0.8-0.1,1.2-0.1c1,0,1.5-1.2,2.7-0.9c0.9,0.2,1.7,0,2.2-0.8
			c1.4,0.2,2.9-0.6,4.1,0.6c0.2,0.2,0.5,0.3,0.7,0.3c1.6,0,3.2,0,4.7,0c0.1,0,0.3-0.3,0.3-0.3c-0.1-0.2-0.3-0.4-0.5-0.5
			c-0.1-0.1-0.3,0-0.4,0c-1,0-2.2,0.3-2.9-0.2c-0.8-0.5-1.7-0.4-2.3-0.7c-1-0.7-2-0.8-3.1-0.8c-0.6,0-1.2-0.5-1.8-0.8
			c-0.6-0.3-1.2-0.7-1.8-0.8c-0.9-0.1-1.2-1.3-2.2-1c-0.5-0.5-1-1-1.5-1.5s-1-1-1.5-1.5c-0.3-0.3-0.7-0.6-0.7-1
			c0-1.2-1.2-1.5-1.7-2.3c0.5-1.4-0.9-2.2-0.9-3.5c0-1.2,0.5-2.6-0.8-3.6c-0.1-0.1-0.1-0.7,0-0.8c0.5-0.5,0.9-1,0.8-1.8
			c-0.1-1.3-0.3-2.7,0.1-3.9c0.3-1,0.6-2,0.9-3.1c0.3-1.5,1-3.1,2-4.3c0.8-1,1.3-2.1,2.1-3.1c0.8-1,1.4-2,2.2-3
			c0.8-1,1.8-1.8,2.7-2.8c0.7-0.7,1.2-1.4,1.6-2.4c0.6-1.6,2.7-1.9,3.9-3.1c1.2-1.2,1.4-3.2,3.1-3.9c1.3-0.5,2-1.4,3-2.2
			c1.2-1.1,3-1.3,4.2-2.4c1.4,0.2,1.7-1.4,2.7-1.7c0.9-0.3,1.9-0.5,2.5-1.1c0.9-0.7,2.2-0.6,2.8-1.8c0.1-0.3,0.7-0.5,1-0.5
			c1.1-0.1,2.1-0.2,3.2-0.8c1.1-0.6,2.8,0.5,4-0.8c1.4,0,2.9-0.2,4.3-0.1c0.9,0.1,1.5-1,2.1-0.6c0.8,0.6,1.4,0.9,2.1,0
			c0.2-0.2,0.5-0.3,0.7-0.3c1.7,0,3.5,0,5.2,0c0.5,0,0.8,0.3,0.8,0.7c0.1,1.2,0.5,1,1.2,0.4c0.2-0.2,0.8-0.3,1.2-0.2
			c0.8,0.2,1.5,0.8,2.2,0.8c1,0,1.6,0.5,2.1,1.2c0.8,0.8,2.1,0.7,2.8,1.8c0.6,1,1.6,1.6,2.4,2.5c0.5,0.5,1.2,0.8,1.1,1.7
			c1.3,1.9,2,3.9,1.8,6.2c-0.1,1.7,0,3.5-0.1,5.2c-0.1,1.1,0.5,2.3-0.5,3.2c-0.8,0.7,0.1,1.9-0.9,2.7c-0.8,0.6-0.2,1.6-0.3,2.4
			c-0.1,0.9,1.2,1.2,0.9,2.2c1.5,1.2,2.6,2.9,4.4,3.9c1.3,0.7,2.4,2,3.5,3.2c1.3,1.4,2.7,1.6,4.1,0.6c1-0.7,2.4,0.1,3-1.2
			c0.9,0,1.7-0.1,2.6-0.1c1,0,1.9,0.1,2.8-0.8c0.6-0.6,2,0.3,2.8-0.4s1.4-0.8,2.1,0.1c0.1,0.1,0.3,0.2,0.3,0.2
			c1.3-1.5,3-0.6,4.4-0.8c0.3,0,0.8,0.2,1.1,0.4c0.6,0.3,0.7,1.2,1.5,1.1c0.6-1.3,2.3,0,3-1.2c0.1-0.2,1-0.4,1.1-0.3
			c0.7,1,2,0.5,2.6,1c0.8,0.6,1.5,0.5,2.3,0.8c1,0.3,2,0.9,2.8,1.6c1.2,1,2.3,2.2,3.4,3.3c1.5,1.5,2.9,4.5,3.2,6.9
			c0.1,1.1,1.2,1.8,0.9,3.1c-0.3,1.1-0.2,2.3,0,3.4c0.1,1.2-1.2,1.8-0.9,3.1c0.2,1,0,2,0,3c-1.5,0.6-0.6,2-1.1,3
			c-0.9,1.5-0.7,1.8,0.6,1.8c5.8,0,11.5,0,17.3,0c1.4,0,2.9-0.1,4.3,0c1.5,0.1,3.2-0.7,4.4,0.8c1.4,0,2.9,0,4.3,0c1.4,0,2.9,0,4.3,0
			c1.2,0,2.6,0.5,3.6-0.8c0.1-0.1,0.7-0.1,0.8,0c0.6,0.8,1.4,0.8,2.3,0.8c2,0,4,0,6.1,0c0.9,0,2-0.4,2.8,0.7
			c0.1,0.2,0.5,0.1,0.8,0.2c1.6,0.1,3.4-0.3,4.9,0.8c0.4,0.3,1.1,0,1.7,0c3.5,0,6.9,0,10.4,0c1.1,0,2.3-0.5,3.1,0.8
			c1.4,0,2.9,0.4,3.8-1.1c0.3-0.6,0.9-0.6,1.5-0.6c4.5,0,8.9,0,13.4,0c0.7,0,1.4-0.1,1.9,0.7c1.5,0.2,3,0.6,4.4-0.5
			c0.2-0.2,0.6-0.2,0.8-0.1c0.7,0.4,1.3,1,2.3,0.9c0.9-0.2,1.6,0,2.3,0.8c0.3,0.3,1.4,0.3,1.6,0c0.9-1.1,2.1-0.8,3.2-0.8
			c2.2,0,4.3,0.1,6.5,0c1.8-0.1,3.7,0.8,5.3-0.8c1.3,0.3,2.8-0.7,4.1,0.6c0.3,0.3,1.1,0.2,1.6,0.2c0.9,0,1.8-0.1,1.6,1.3
			c0,0.1,0.7,0.2,1,0.5c1.1,0.8,2.3,1.6,2.5,3.2c0.7,0.4,0.5,1.3,1,1.8c0.3,0.4,1,0.4,1.4,0.7c0.2,0.1,0.4,0.4,0.6,0.6
			c0.8,0.7-0.2,2,0.9,2.7c0.9,0.5,1.4,1.4,1.1,2.5c1.2,1.3,0.8,2.9,0.9,4.4c-1.5,1.6-0.7,3.5-0.8,5.3c-0.1,0.6,0,1.1-0.5,1.5
			c-0.8,0.8-0.2,1.9-0.3,2.9c0,0.1,0.4,0.5,0.6,0.5c1.5-0.4,2.7,0.6,4,0.8c0.7,0.1,1.3,0.3,1.9,0.8c0.1,0.1,0.8-0.6,1.3-0.7
			c0.7-0.1,1.4,0,2.2,0c0.6,1.5,2.2,0.4,2.9,1.2c0.6,0.7,1.6,0.4,2.1,1.2c0.2,0.4,0.5,1.1,1.2,0.8c0.4-0.1,0.6-0.6,0.9-0.9
			c0.3-0.2,0.7-0.5,1-0.6c0.4-0.1,0.9,0,1.3,0c1.3-0.2,2.2,0.2,3,1.2c0.4,0.5,1,0.8,1.4,0.4c0.9-1,1.5-0.9,2.5,0
			c0.4,0.4,1.5,0,2,0.4c1.2,1,2.5,2,2,3.9c-0.2,0.7-0.1,1.4,0,2.2s-0.2,1.4-0.8,1.8c-0.7,0.6-1,1.2-1,2.2c0.1,1.8-0.1,1.8-0.8,3.6
			c-0.3,0.8-1.3,1.2-1,2.2c-0.9,0.5-0.8,1.4-0.8,2.3c0,0.2-0.2,0.5-0.4,0.7c-1.4,1.2-1.7,3.1-2.8,4.5c-0.6,0.8,0.3,2.1-0.9,2.7
			c-0.1,1,0.1,2.2-0.4,2.8c-0.6,0.8-0.7,1.5-0.7,2.3c0,0.1,0,0.3,0,0.4c0,0.9,0.2,1.1,0.9,1.1c2.5,0,4.9-0.1,7.4,0
			c1.8,0.1,3.8-0.6,5.5,0.3c1.8,0.9,3.6,0.3,5.4,0.5c0.8,0.1,1.2,1.1,2.2,0.9c1.1-0.3,1.8,0.6,2.7,0.8c1,0.2,1.3,1,2,1.5
			c0.2,0.1,0.5,0.2,0.7,0.3c2.5,1.6,2.7,1.7,2.6,4.3c0,1.1,0.5,2.4-0.3,3.3c-0.9,1.1-0.3,2.2-0.6,3.2c-1.4,0.9-0.7,2.3-0.9,3.5
			c-1.3,0.8-0.7,2-0.8,3.1c-0.1,0.7-0.9,1-0.9,1.8c0,1.5-1.3,2.8-0.8,4.4c-1.4,0.9-0.3,3.1-2,4c-0.5,0.3-0.5,1.2-1,1.7
			c-0.4,0.5-0.6,1-0.5,1.5c0.2,1.1-1.2,1.5-0.9,2.7c0.2,1-1.3,1.8-0.8,3.1c-0.9,0.6-0.7,1.7-1.4,2.5c-0.8,0.8,0.2,2.4-1.2,3
			c0.1,1.2-1.5,1.8-0.9,3.1c-1.1,1.2-0.6,3.3-2.2,4.3c-0.4,0.2-0.4,1-0.6,1.4c-0.6,1.1-1.3,2.1-2.1,3.1c-0.7,0.9-1.1,2.1-1.6,3.2
			c-0.2,0.4-0.3,0.8-0.4,1.1c0,0.6,0,1.1-0.6,1.5c-0.8,0.6-1.4,1.4-1.2,2.5c0,0.3-0.6,0.7-0.6,1c-0.1,1.1-1.4,1.8-1.1,3
			c0.2,1-1.2,1.5-0.9,2.7c0.2,0.9-1.2,1.5-0.9,2.7c0.3,0.9-1.2,1.2-0.8,2.2c-0.9,0.4-0.6,1.5-1.2,2.1c-0.7,0.6-0.2,1.4-0.5,1.9
			c-1,1.6-1.3,3.6-2.8,4.9c-0.5,0.4-0.7,0.9-0.6,1.5c0,0.3,0.1,0.7,0,0.8c-1.9,1.2-1.9,3.7-3.4,5.1c-0.6,0.6-0.7,1.6-1.2,2.1
			c-1.1,1-0.1,3-1.8,3.6c-0.4,1.2-1.6,2-2.1,3c-0.9,1.9-1.9,3.8-2.8,5.8c-0.5,1-0.8,2-1.5,2.9c-0.4,0.5-0.4,1.2-0.9,1.8
			c-0.7,0.7-1.6,1.1-1.8,2.3c-0.2,1.1-1.3,1.5-1.8,2.3s-1.4,1.6-1.4,2.4c-0.1,1.6-0.9,2.6-1.9,3.6c-0.7,0.7-1,1.6-1.6,2.4
			c-0.5,0.7-1.6,1.2-1.7,1.9c-0.2,1.2-1,1.6-1.6,2.4c-0.1,0.1-0.3,0.2-0.3,0.3c0.5,2.2-1.4,2.9-2.5,4.2c-0.6,0.7-1,1.2-1,2.2
			c-0.1,0.9-0.5,2-1.1,2.5c-1.3,1-1.3,2.8-2.7,3.7c-0.3,0.2-0.4,0.7-0.4,1.1c0,0.6,0,1.1-0.5,1.5c-1,1-2,2.1-3,3.1
			c0.2,1.5-1.9,1.7-1.8,3.2c0,0.3-0.5,0.7-0.8,0.9c-2.1,1.5-2.9,4.2-4.9,5.8c-0.3,0.2-0.4,0.8-0.3,1.1c0.4,1.2-1.4,1.5-0.9,2.7
			c-0.7,0.7-1.4,1.4-2.1,2.1c-0.6,0.6-0.4,1.6-1.2,2.1c-2.1,1.5-2.9,4.1-4.9,5.8c-0.6,0.5-0.4,1.6-1.2,2.1c-0.6,0.4-0.8,1-1,1.7
			s-1.3,1.2-1.5,1.9c-0.2,0.8-0.7,1.2-1.1,1.7c-0.8,1.1-2.4,1.6-2.5,3.3c-1,1-2.4,1.9-3,3.1c-1.3,2.7-3.7,4.2-5.6,6.3
			c-1.3,1.5-2.9,2.9-4.3,4.3c-1.2,1.2-2.6,2.2-3.1,3.9c-0.3,1.1-2,0.5-2.2,1.6c-0.2,1.2-1.2,1.5-1.8,2.3c-0.6,0.8-1.5,1.1-2.3,1.6
			c-1.3,0.8-2.2,2-3.6,2.8c-1.3,0.7-2.3,2.2-3.4,3.3c-0.3,0.3-0.7,0.6-1,0.6c-1.2-0.2-1.8,0.5-2.5,1.3c-0.8,0.8-1.7,1.6-2.4,2.5
			c-0.6,0.8-1.6,0.4-2.1,1.2c-0.4,0.6-1.1,0.2-1.6,0.3c-0.9,0.1-1.7-0.1-2.6,0c-1.9,0.2-4-0.7-5.7,0.8c-1.3,0-2.6-0.2-3.9,0.1
			c-1.2,0.2-1.7-1-2.7-0.9c-1,0-2-0.1-3-0.1c-0.1,0-0.2-0.2-0.3-0.3c-0.6-0.7-1.2-0.6-1.8,0.1c-0.4,0.5-0.9,0.5-1.5,0.1
			c-0.3-0.2-0.7-0.4-1-0.6c-0.1-0.1-0.3,0-0.4,0c-1.3,0-2.6-0.2-3.9,0c-1.3,0.2-1.9-1.1-3.1-0.9c-1.3,0.1-2.6,0.1-3.9,0
			c-0.8,0-1.2-1.1-2.2-0.9c-0.7,0.2-1.6,0.3-2.1,0c-2.1-1.4-4.4-0.6-6.6-0.8c-1.1-0.1-2.3,0.4-3.2-0.7c-0.3-0.3-1.1-0.1-1.6-0.1
			c-3,0-6.1,0-9.1,0c-0.9,0-2,0.5-2.8-0.5c-0.7-0.7-1.6-0.3-2.4-0.4c-1-0.1-2,0-3,0c-1.5-1.7-3.5-0.5-5.3-0.9
			c-1.1-0.2-2.2,0.4-3.3-0.6c-0.9-0.8-2.2-0.2-3.3-0.3c-1.1-0.1-2.4,0.2-3.4-0.1c-1-0.3-1.9-1-3.1-0.8c-1.1,0.1-2.3,0-3.5,0
			c-1.1,0-1.8-1.3-3.1-0.9c-1.1,0.3-2.3,0.1-3.4,0.1c-2-1.7-4.4-0.7-6.6-0.8c-1.1-0.1-1.9-0.3-2.6-1.2c-0.4-0.5-0.8-0.7-1.5-0.6
			s-1.4,0-2.2,0c-1,0-2,0-3,0s-1.8-0.3-2.7-0.8s-2.3,0-3.4-0.1c-2-0.3-4.3,0.8-6.2-0.8c-0.3-0.3-1.1,0-1.7,0c-2.5,0-4.9,0-7.4,0
			c-0.9,0-2,0.3-2.8-0.7c-0.2-0.3-1.1-0.2-1.6-0.2c-2.7,0-5.5,0.1-8.2,0c-2.3-0.1-4.8,0.7-7-0.8c-1,0-2,0-3,0
			c-1.5-1.6-3.5-0.9-5.3-0.8c-1.6,0.2-2.5-1.2-4-1c-1.3,0.2-2.6,0-3.9,0c-1.2-1.5-2.9-0.8-4.4-0.8c-1.1,0-1.5-1.3-2.7-1
			c-0.8,0.2-1.7,0-2.6,0c-1,0-2,0.1-3,0c-0.5,0-0.9-0.6-1.3-0.6c-0.3,0-0.7,0.4-1,0.6c-0.1,0.1-0.4,0.1-0.4,0
			c-0.8-1.1-2-0.8-3.1-0.9c-0.9-0.1-1.9,0.3-2.8-0.5c-0.8-0.7-1.9-0.2-2.9-0.3c-1.1-1.5-2.8-0.3-3.9-0.9c-1.6-0.9-3.2-0.6-4.9-0.8
			c-1.3-0.2-2.5-1.1-4-0.9c-1.4,0.2-2.9,0-4.3,0c-1.4,0-2.9-0.1-4.3,0c-1.3,0.1-2.1-1.3-3.6-0.9c-1.1,0.3-2.3,0-3.4,0.1
			c-0.8,0.1-1.2-0.5-1.8-0.8s-1.3-0.1-1.3-1.2c0-0.7-1-0.9-0.9-1.8c0-0.4-0.4-0.6-0.9-0.6c-0.8,0-1-0.9-0.7-1.2
			c1.2-1,0.8-2.4,0.8-3.6c0-0.6,0.2-1.1,0.6-1.5c1.4-1.3,2.6-2.7,4-3.9c0.9-0.8,2-1.4,3-2.2c1-0.7,2.2-1.1,3.1-2.1
			c0.8-0.9,2-1.4,3-2.2c0.9-0.7,1.6-1.6,2.5-2.4c0.9-0.9,1.8-1.8,2.8-2.8c0.9-0.9,1.8-1.8,2.8-2.8c0.8-0.8,1.5-1.8,2.9-1.4
			c0.2,0,0.6-0.3,0.6-0.5c0-1.5,1.5-2,2.2-3c0.5-0.7,1.5-1,1.3-2.1c0-0.1-2.6-1.4-2.8-1.4c-2,0-4,0-6.1,0c-0.6,0-1-0.1-1.6-0.4
			c-1.4-0.9-2.9-1.5-4.7-1.3C54,313.1,52.4,313,50.8,313z M225.8,99.1c-4.8,0-9.5,0-14.3,0c-1.5,0-2.8,0-3.2,1.9
			c-0.2,1.1-1.8,1.3-1.8,2.8c0,0.6-1,0.3-1.4,0.7c-1.9,1.8-3.7,3.6-5.5,5.5c-0.1,0.1-0.1,0.6,0,0.8c0.5,0.8,1.4,1.2,1.8,2.3
			c0.3,1,1.5,1.7,2.1,2.6c0.6,0.8,0.8,1.7,1.5,2.4c1.3,1.3,2.7,2.4,3.5,4.2c0.5,1.2,2,2.1,3,3.1c0.2,1.7,1.8,2.5,2.8,3.6
			c0.9,1,1.7,2,2.8,2.7c1.4,1.1,1.6,2.9,3,4c0.4,0.3,0.4,1,0.6,1.4c0.5,1,0.8,2,1.8,2.7c0.7,0.5,1.2,1.3,1.9,1.8
			c0.6,0.4-0.1,1.7,1,1.6c1-0.1,1.3,1.2,2.2,0.9c0.8,0.8,1.5,1.6,2.3,2.5c0.3,0.3,0.3,0.8,0.5,1.1c0.7,0.7,1.4,1.3,1.3,2.5
			c-0.1,0.9,1,1.5,0.9,2.7c-0.2,2-0.2,4.1,0,6c0.2,1.4-1.4,2.2-0.9,3.5c-0.4,0.5-0.9,1.1-1.3,1.6c-0.5,0.5-1,1.4-1.5,1.5
			c-1.1,0.2-1.7,1.3-3,1.2c-2.1-0.2-4.3-0.1-6.5,0c-0.6,0-1-0.1-1.6-0.4c-1.1-0.7-2.3-0.7-3.5,0.1c-0.7,0.5-0.8,0.5-1.5,0
			c-0.9-0.7-2-0.8-2.8-1.8c-0.6-0.9-1.7-1.6-2.4-2.5c-0.8-0.9-1.4-2.1-2.2-3c-0.8-0.8-1.3-1.7-1.9-2.7c-0.5-0.9-1.4-1.5-2.1-2.2
			c-0.7-0.7-1.4-1.4-2.1-2.1c-0.7-0.7-1.4-1.4-2.1-2.1c-0.8-0.8-1.6-1.6-2.4-2.5c-0.7-0.7-1.4-1.5-2.1-2.2c0.4-1.6-1.5-0.9-1.9-1.7
			c-0.3-0.6-1.2-1-1.4-1.6c-0.2-0.7-0.4-1.3-1-1.8c-0.7-0.7-1.4-1.4-2.1-2.1s-1.4-1.4-2.1-2.1c-0.8-0.8-1.7-1.6-2.4-2.5
			c-0.7-0.7-1.3-1.5-1.9-2.2c0.2-1.6-1.8-0.6-2-1.7c-0.1-0.4-0.7-0.5-0.6-1.1c0.1-0.5-0.2-0.8-0.7-0.8c-1.3,0-2.6-0.4-3.5,1.1
			c-0.2,0.3-0.7,0.7-1,0.6c-1.2-0.3-1.8,0.6-2.7,0.9c-1.9,0.7-1.9,0.8-3.1,0.8c-0.6,0-1.2,0.1-1.7,0c-0.7-0.1-1,0.3-1.4,0.7
			c-0.5,0.5-1,1-1.5,1.5c-0.2,0.2-0.5,0.3-0.7,0.4c-1,0-2.2-0.3-3,0.1c-0.9,0.5-1.7,0.9-2.7,0.8c-1.5-0.2-3.2,0.7-4.4-0.9
			c-1.1,0.2-2.3-0.5-3.2,0.7c-2.1,0-4.2,0.1-6.4,0.1c-1-1.3-2.4-0.6-3.6-0.8c-0.7-0.1-1.4,0.2-2-0.4c-0.5-0.6-1.5-0.5-2.1-1.2
			c-0.9-1.1-2-2.1-3-3.1c-0.9-0.9-1.8-1.9-2.8-2.7c-1-0.9-0.9-2.4-2.1-3c-0.6-0.3-0.2-1.3-0.9-1.8c-0.3-0.2-0.3-1-0.3-1.6
			c0-1.7,0-3.5,0-5.2c0-0.4-0.4-0.7-0.6-1c-0.3-0.7,0.7-0.7,0.6-1.3c0-0.9,0.1-1.7,0-2.6c-0.1-1,1.4-1.5,0.9-2.7
			c-0.6-1.4,1.3-2.2,0.9-3.5c-0.2-0.7,0.7-0.9,0.8-1.4c0.4-1.8,1.6-3.1,2.2-4.7c0-0.1,0.3-0.2,0.3-0.3c0-0.2-0.2-0.6-0.3-0.6
			c-1.5-0.2-3.2,0.5-4.6-0.4c-1.5-1-3.1-0.2-4.6-0.5c-0.4-0.1-1,0.1-1.2-0.1c-1.3-1.4-3-0.5-4.5-0.8c-0.8-0.1-1.9,0.2-2.5-0.2
			c-1.9-1.4-3.9-0.3-5.8-0.7c-0.6,0.6-1.4,0.8-2.1,1.1c-0.2,0.1-0.3,0.9-0.1,1.1c1.1,1.1,0.7,2.3,0.6,3.5c-0.9,0.5-0.7,1.5-0.7,2.3
			c0,0.9,0.1,1.8,0,2.6c-0.2,1,0.9,1.4,0.9,2.2c0,1.4,0.1,2.9,0,4.3c-0.1,1.3,0.7,2.9-0.8,4c0,0.9,0,1.7,0,2.6
			c0,0.8,0.3,1.6-0.6,2.4c-0.7,0.6-0.2,1.6-0.3,2.5c-0.1,1.4,0.4,2.9-0.9,4c0,1.2,0.3,2.6-0.9,3.5c0,0.9,0.1,1.8,0,2.6
			s-0.7,1.5-0.8,2.3c-0.2,0.9,0.2,2-0.9,2.7c0,1,0,2-0.1,3c0,0.4-0.4,0.7-0.5,1.1c-0.3,1-1.4,1.8-1.2,3c0.3,1.8-0.5,3.2-1.3,4.7
			c-0.1,0.2-0.4,0.4-0.4,0.7c-0.1,0.9-0.1,1.7,0,2.6c0.1,1-1.2,1.5-0.9,2.7c0.2,0.8,0.1,1.7-0.8,2.2c0.1,0.8-0.8,1.3-0.8,1.8
			c-0.1,0.8-1,1.3-0.9,1.8c0.3,1.3-1,2.1-0.9,3.1c0.1,1.5-1.1,1.9-1.7,2.8c-0.1,0.2-0.1,0.6-0.1,0.8c0.2,1.3-1.5,2.1-0.9,3.5
			c-1.1,1.5-1.8,3.3-2.6,5c-0.2,0.5-0.6,1-1,1.3c-0.7,0.5-0.7,1.2-0.7,1.9c0,0.4-0.3,0.7-0.5,1.1c-0.4,0.7-0.3,1.7-1.2,2.1
			c-0.9,0.4-0.9,1.4-1.2,2.1c-1,2.2-2.2,4.2-4,5.7c-1,0.8-1,2.3-2.1,3.1c-1,0.7-1.9,1.8-2.8,2.7c-0.2,0.2-0.1,0.5-0.3,0.7
			c-0.7,1.3-2.1,2.2-1.9,4c0,0.2-0.4,0.4-0.6,0.6c-1.1,0.9-1.2,2.6-2.4,3.3c-0.2,0.1-0.3,0.5-0.2,0.7c0.2,1-0.2,1.7-1,2.2
			s-0.6,1.5-1.2,2.1s-1.2,1-1.4,2c-0.1,0.7-1.5,1.2-1.6,1.9c-0.2,1.2-1.3,1.5-1.6,2.4c-0.3,0.8-0.6,1.6-1.3,2.1
			c-0.8,0.6-0.6,1.8-1.5,2.4c-0.8,0.6-1.4,1.4-2.2,2.1c-1.4,1.2-2.4,2.7-3,4.4c-0.1,0.4-0.4,0.7-0.6,1c-0.8,0.9-1.7,1.7-2.2,3
			c-0.4,1.1-1.7,1.9-2.7,2.8c-0.5,0.4-0.3,1.1-0.6,1.5c-0.5,0.5-0.6,1.2-0.9,1.8c-0.3,0.6-1,1-1.5,1.6c-0.8,0.8-2,1.5-2.4,2.5
			c-0.6,1.6-1.9,2.4-2.8,3.6c-0.1,1.8-1.9,2.4-2.8,3.6c-0.3,0.4-0.6,0.8-0.8,1.4c-0.2,0.7-0.7,1.5-1.1,2.1c-0.5,0.8-1.3,1.5-2.1,2.2
			c-0.7,0.6-1.8,0.9-2.3,1.6c-0.6,0.9-1,2-1.9,2.7c-0.6,0.4-0.2,1.3-0.9,1.8c-1.5,1.2-2.6,3-4.6,3.6c-0.6,1.3-2.2,1.2-3,2.1
			c-0.4,0.5-0.6,0.8-0.1,0.9c0.3,0.1,0.6,0.1,0.8,0c0.5-0.2,0.7-0.9,1.4-0.9c2.3,0,4.6,0,6.9,0c0.6,0,0.7,0.4,1.1,0.6
			c0.8,0.4,1.7,0.8,2.6,1.1c0.7,0.3,1.3,1.2,2.2,0.9c1.1-0.3,1.8,0.5,2.7,0.8c0.8,0.2,1.7,0.2,2.5,0.2c0.8,1.4,1.2-0.4,2-0.3
			c0.8,0.2,1.7,0.1,2.6,0c0.5,0,0.8,0.3,0.8,0.7c0,0.7,0.2,1.1,1,1c0.7,0,1.5-0.1,2.2,0c0.8,0.2,1.2-0.8,1.8-0.7
			c0.5,0.1,0.8,0.8,1.2,1.2c0.2,0.2,0.5,0.4,0.7,0.4c1,0,2,0,3,0c1.3-1.4,2.9-0.6,4.4-0.9c1-0.2,1.4,0.9,2.2,0.9c1,0,2,0,3,0
			c1.2,0,2.3,0.2,3.5,0s1.5,1.4,2.7,0.9c1-0.3,1.8,0.5,2.7,0.7c0.9,0.3,2.1,2,3.2,0.2c1.1,1.1,2.6,0.7,3.9,0.8
			c0.4,0,0.8,0.3,1.1,0.6c0.5,0.5,1.1,1,1.5,1.5s1,0.4,1.5,0.5c1.1,0.1,1.9-0.2,2.6-1c0.2-0.3,0.6-0.6,1-0.7c1-0.1,2,0,3,0
			c0.8,1.1,2,0.8,3.1,0.9c0.9,0,1.7,0,2.6,0c1.1,0.1,1.4,1.5,2.3,1.7s1.3,0.4,1.2,1.3c0,0.1,0.3,0.3,0.5,0.3c0.1,0,0.3-0.2,0.3-0.3
			c0-0.6-0.1-1.2,0.7-1.3c0.7-0.1,1,0.2,1.1,0.9c0.1,0.6,0.8,1.1,1.1,0.8c0.7-0.6,1.3-1,2.3-0.8c1.3,0.2,2.9-0.6,4,0.9
			c1.3,0,2.6,0.1,3.9,0c1.5-0.2,2.4,1.4,4,0.9c0.7-0.2,1.4,0,2.2,0c1.3-0.1,2.5,0.1,3.4,1.3c0.1,0.2,0.4,0.4,0.7,0.4
			c1.1,0,2.4,0.1,3.3-0.3c0.6-0.3,1.2-0.6,1.9-0.6c1,0,2-0.1,3,0c1.2,0.2,2.1-0.5,3.1-0.9c0.4-0.2,1.1-0.3,1.6,0.2
			c0.2,0.2,0.4,0.5,0.6,0.5c1,0.1,2,0,3,0c1.2,0,2.3-0.1,3.5,0c0.9,0.1,1.6,0.9,2.7,0.9c1.9,0,4-0.8,5.7,0.8c1.2,0,2.3,0,3.5,0
			c0.7,0,1.5-0.1,2.2,0c0.5,0.1,0.9,0.7,1.4,0.8c0.9,0.1,1.5,0.3,2.3,0.8c0.7,0.5,2,0.1,2.9,0.2c0.7,0,0.9-0.5,1.4-0.9
			c1.4,1.7,3.4,0.2,4.8,0.9c2.6,1.4,5.3,0.5,7.9,0.8c0.3,0,0.7-0.1,0.9,0c2.2,1.5,4.7,0.6,7,0.8c0.4,0,1-0.1,1.2,0.2
			c0.9,1.2,2.1,0.6,3.2,0.7c0.7,0.1,1.6-0.1,2,0.3c0.7,0.7,2,0.4,2.5,1.5c0.4,0.9,1.5,0.7,2.1,1.2c0.3,0.3,0.5,0.5,0.9,0.1
			c0.5-0.4,1.2-0.6,1.8-1c1.1-0.8,2.2-0.2,3.3-0.4c0.9-0.1,1.1,0.7,1.7,1.1l2.9,1.5c0.9-0.1,1.9,0.2,2.8-0.6c0.7-0.6,2-0.6,2.6,0.5
			c0.8,1.6,2.9,0.3,3.6,1.8c1.4,0,2.9,0,4.3,0c0.5-0.8,1.4-0.8,2.1-1.2c1.5-0.8,2-0.8,2.9,0.1c0.5,0.5,1.1,1,1.5,1.5
			s0.8,0.2,0.8-0.2c0-0.7,0.3-1,0.7-1.4c0.7-0.7,0.8-0.9,1.8-0.2c0.5,0.4,0.9,0.5,1.5,0.5c2.3,0,4.6,0,6.9,0c0.6,0,1.4-0.2,1.7,0.1
			c1.1,1.2,2.4,0.6,3.6,0.7c0.5,0.1,1.2,0.1,1.6-0.2c0.4-0.2,0.3-1,0.7-1.4c0.7-0.9,1.6-1.7,2.4-2.5c0.7-0.7,1.3-1.6,2.2-2.1
			c1.1-0.7,0.9-2,1.8-2.8c1-0.9,1.8-1.8,2.8-2.7c-0.1-1.6,1.4-2,2.2-3c0.7-0.9,1.7-1.6,2.2-2.6c0.6-1.2,1.7-1.9,2.4-2.9
			c0.2-0.2,0.2-0.5,0.2-0.8c0.2-0.8,0.8-1.4,1.1-2.2c0.3-0.9,1.3-1.5,2-2.2s1.8-1.4,2-2.2c0.2-0.9,0.8-1.4,1.1-2.2
			c0.4-1.1,0.8-2.4,1.9-3.1s1.3-2.1,2.1-3c1-1,1.5-2.3,1.9-3.5c0.2-0.6,0.8-1,0.9-1.8c0.2-1,1.8-1.3,1.7-2.7c0-0.3,0.5-0.7,0.9-0.9
			c2.1-1.5,2.1-4.5,4.2-6.1c0.1-0.1,0-0.6,0-0.8c0.1-0.4,0.1-1,0.4-1.1c1.3-0.8,1.3-2.4,2.4-3.4s1.3-2.6,2.2-3.9
			c0.4-0.7,0.4-1.6,1.3-2.1s0.6-1.5,1.2-2.1s0.4-1.7,1.2-2.1c0-1.2,1-1.9,1.2-3c1.3-0.6,1.1-2.2,2.1-3c-0.2-1.6,2.1-1.9,1.9-3.6
			c0.9-0.9,1.1-2.1,1.7-3.2c0.6-1,1.2-2.1,1.7-3.2c0.6-1.1,0.7-2.3,1.7-3.2c-0.4-1,0.9-1.3,0.9-2.2c0-0.8,0.9-1.2,1-2.2
			c0.1-0.8,1-1.6,1.4-2.4c0.4-0.7-0.2-1.7,0.6-2.4c0.6-0.5,0.4-1.6,1.2-2.1c0.1,0,0-0.3,0-0.4c-0.1-0.9,0.1-1.7,0.9-2.2
			c0.4-0.3,0.9-0.7,0.8-1.4s0.3-1.3,0.6-1.9c0.4-0.7,0.6-1.5,1.3-2.1c0.5-0.4,0.8-0.8,0.7-1.5c-0.1-0.6,0.3-1,0.5-1.5
			c0.9-2.5,2.9-4.6,3.1-7.4c1.4-0.6,0.2-2.2,1.2-3c0.5-0.4,0.6-1.2,1-1.7c0.6-0.8,0.1-1.7,0.3-2.5c0.1-0.3,0.1-0.6,0.3-0.7
			c0.7-0.5,0.5-1.3,0.6-2c0.1-0.8,0.9-1.3,0.9-2.2c0-1.2,1.1-2.2,1-3.5c0.9-0.4,0.5-1.5,1.2-2.1c0.6-0.5,0.4-1.6,1.2-2.1
			c-0.4-1,1-1.3,0.9-2.2c-0.2-1,0.5-1.5,0.8-2.3c0.6-1.5,1.6-2.8,2-4.4c1.3-0.6,0.1-2.2,1.2-3c0.6-0.5,0.9-1.6,1.2-2.5
			c0.3-0.8,1.2-1.2,0.9-2.2c-0.3-1,1.2-1.5,0.9-2.7c-0.3-1,1.1-1.5,0.9-2.7c-0.1-0.5,0.7-1.2,0.8-1.8c0.1-0.9,0.1-1.7,0.9-2.2
			c-0.4-1,0.8-1.4,0.9-2.2c0.1-0.9,1.1-1.6,0.8-2.7c-0.3-1,0.6-1.5,0.8-2.2c0.3-0.9-0.4-2,0.5-2.8s-0.2-2.4,1.2-2.9
			c0-1-0.1-2,0.9-2.7c0-1.3,0.2-2.6,0-3.9c-0.2-1.4,1.2-2.2,1-3.6c-0.2-1.5-0.1-3.1-0.1-4.7c-1-1-2.1-2-3-3.1
			c-0.6-0.7-0.9-0.3-1.6,0c-1,0.4-2.2,0.6-3.2-0.3c-0.2-0.2-0.5-0.3-0.7-0.3c-1.6,0-3.2,0-4.8,0c-1.7,0-3.5,0-5.2,0
			c-1.2-1.6-2.9-0.8-4.4-0.8c-17.2-0.1-34.3,0-51.5-0.1c-1.4,0-2.9,0.5-4-0.8c-0.1-0.1-0.8,0.1-1.1,0.4c-0.7,0.7-1.8,0.8-2.3,0.3
			c-0.8-0.7-1.5-0.7-2.3-0.7c-3.8,0-7.5,0-11.3,0c-0.6,0-1.3,0.2-1.7,0c-2.1-1.6-4.4-0.7-6.6-0.8C232.7,99,229.2,99.1,225.8,99.1z
			 M260,365.8c0.6,0,1.2-0.1,1.8,0c1.1,0.1,2-0.1,2.6-1.1c0.6-0.9,1.8-0.5,2.4-1.5c1-1.6,3.1-1.9,4.2-3.4c2.1,0,2.4-2.8,4.5-2.8
			c0.8-0.8,1.5-1.5,2.7-1.9c1-0.4,1.7-1.5,2.5-2.4c1-1,2-2,3.1-3.1c1-1,2-2,3.1-3.1c0.9-0.9,1.8-1.8,2.8-2.8s1.9-2.2,3.1-3
			c1.2-0.9,1.4-2.4,2.4-3.4c1.6-1.5,3.4-2.8,4.5-4.6c1.2-2,2.8-3.5,4.4-5.1c0.5-0.5,0.5-0.9,0.5-1.5c0-0.4,0.2-0.8,0.4-1.1
			c0.4-0.7,1.2-1,1.4-2c0.1-0.7,1-1.4,1.7-1.9c0.8-0.6,0.6-1.6,1.2-2.1c1.5-1.2,2.3-3.3,4.5-3.7c0.4-0.1,0.8-0.5,0.9-0.9
			c0.3-1.8,2.2-2.5,2.9-4c0.7-1.8,2.5-2.7,3.6-4.2c0.6-0.7,1.3-1.5,1.5-2.4c0.1-0.9,1-1.4,1-2.2c0.1-1,1.2-1.2,1.5-2
			c0.4-1.3,1.3-2.2,2.2-3c0.6-0.5,0.7-1.1,0.7-1.9c0-0.3,0-0.6,0.2-0.8c1.1-0.7,1.4-2.1,2.1-3c0.6-0.8,1.6-1.4,1.9-2.2
			c0.2-0.8,1-1.2,1-2.2c0-0.9,1.4-1.3,1.7-2.3c0.4-1.3,1.1-2.5,2.1-3.5c0.7-0.6,0.6-1.8,1.5-2.4c0.9-0.5,0.5-1.9,1.5-2.4
			c0.3-1.5,1.2-2.7,2.1-3.9c0.6-0.9,0.9-2.1,1.9-2.6c1.2-0.6,0.9-2,1.8-2.8c0.4-0.3,0.9-0.8,1.1-1.3c0.7-1.6,1.5-3.2,2.4-4.6
			c0.4-0.6,0.1-1.1,0.3-1.6c0.1-0.3,0.1-0.6,0.3-0.7c1.2-1,1.5-2.6,2.3-3.8c1.1-1.7,1.4-3.9,3.1-5.2c0.2-0.2,0.2-0.8,0.3-1.2
			c0.1-0.4,0.1-0.9,0.4-1.1c0.9-0.7,1.2-1.9,1.9-2.7c0.8-0.9,1.5-1.7,1.3-3c0-0.3,0.5-0.7,0.8-0.9c1-0.7,1-1.9,1.7-2.8
			c0.4-0.5-0.2-1.4,0.5-2c0.7-0.5,0.4-1.7,1.2-2.1c-0.3-1,0.9-1.4,1-2.2c0.1-1,1-1.5,0.9-2.7c-0.1-0.8,0.6-1.8,1.2-2.5
			c1-1,0-2.2,0.6-3.2c0.1-0.2,0.5-0.4,0.6-0.6c0.6-1.8,1.7-3.4,2.4-5.1c0.8-1.8,1.8-3.6,2.8-5.3c-0.2-1,0.9-1.4,1-2.2
			c0.1-1.2,1.2-1.5,1.8-2.3c0.5-0.8,1.1-1.6,1.5-2.4c0.2-0.5,0.3-1.1,0.2-1.6c-0.4-1.6,1.2-2.8,0.9-4.4c0.5-0.5,1-1,1.4-1.6
			c0.5-0.7,0.4-1.6,1.2-2.1c-0.5-1.3,0.5-2.1,0.9-3.1c0.3-0.9,0.8-1.7,0.9-2.7c0.1-0.9,1-1.6,0.8-2.7c0.9-0.6,0.6-1.8,1.4-2.4
			c0.1-0.1,0.3-0.2,0.3-0.3c-0.2-1.8,1.1-3,1.7-4.5c0.4-1,0.9-2,1.4-2.8c0.8-1.1-0.3-2.5,0.8-3.6c0.9-0.9,0.2-2.2,0.4-3.3
			c0.1-0.5-0.2-1.1,0.3-1.6c0.4-0.4,1-0.9-0.1-1c-1.3-0.1-2.6,0-3.9,0c-1.9-1.7-4.1-0.5-6.1-0.9c-0.6-0.1-1.4,0.2-1.7-0.1
			c-0.8-0.8-1.7-0.9-2.7-0.8c-1,0.1-2,0-3,0c-0.7,0-1.4,0-2.2,0c-0.6-1.2-1.2-0.5-1.9,0c-0.2,0.1-0.6,0-0.8,0
			c-1.3,0.2-1.9,0.8-2,2.2c0,1.2-1.5,1.8-0.9,3.1c0.1,0.2-0.3,0.4-0.4,0.7c-0.5,1.1-1,2.2-1.6,3.2c-0.6,1.1-1.9,1.8-1.5,3.3
			c0,0.1-0.4,0.4-0.6,0.6c-1.5,1.3-1.7,3.4-2.9,4.9c0.7,1.3-1.2,2-0.8,3.1c0.4,1.2-1.3,1.5-0.9,2.7c0.3,1.1-1.1,1.8-0.9,3.1
			c0.1,0.5-0.7,1.2-0.8,1.8c-0.1,0.7-0.2,1.3-0.7,1.9c-0.4,0.5-0.5,1.2-0.9,1.8c-0.3,0.5-0.7,1.2-0.9,1.8c-0.3,0.7-0.4,1.3-1,1.8
			c0.4,1-1.1,1.4-0.8,2.2c0.3,1.3-1,1.9-1,3.1c-1.3,0.8-1.7,2.1-1.8,3.6c-0.9,0.4-0.5,1.5-1.2,2.1c-0.6,0.5-0.5,1.6-1.2,2.1
			c0.3,1.1-1.2,1.5-0.9,2.7c0.1,0.7-0.5,1.5-0.8,2.2c-0.2,0.5-0.9,1-0.8,1.4c0.5,1.3-1.2,1.9-0.9,3.1c-1,0.8-0.9,2.3-2.1,3.1
			c-0.7,0.5-1.3,1.6-1.3,2.4c0,1.1-0.6,1.8-1,2.7c-0.7,1.5-1.2,3-2.1,4.3c-0.5,0.7-0.3,1.7-1.2,2.1c-1,0.5-1,1.6-1.5,2.4
			c-0.8,1.4-1.7,2.8-2.1,4.3c-0.3,1.4-1,2.5-1.6,3.7s-0.8,2.6-1.8,3.6c-0.4,0.4-0.9,0.6-1,1.3c-0.1,0.6-0.5,1.2-0.8,1.8
			c-0.9,1.9-1.9,3.8-2.9,5.7c-0.5,0.9-1.4,1.6-1.8,2.7s-0.9,2.3-1.6,3.2c-1.5,2.3-2,5.1-4.2,6.9c0.2,1.4-1.4,1.7-1.8,2.7
			s-0.7,2.2-1.4,2.8c-1,0.8-0.9,2.1-1.8,2.8c-1,0.7-1,2-1.8,2.7c-0.9,0.8-1.6,1.7-2.5,2.4c-1.4,1-1.8,2.8-3,4
			c-1.3,1.2-2.5,2.4-3.7,3.7c-0.3,0.3-0.3,0.8-0.5,1.1c-0.5,0.7-1.1,1.3-1.7,1.9c0.4,1.1-1.4,1.5-0.9,2.6c-1.1,1.2-2.4,2.3-3.1,3.9
			c-0.4,1-1.5,1.8-2.4,2.4c-1.2,0.8-1.1,2.2-2.1,3.1c-0.8,0.7-1.4,1.4-2.2,2.1c-0.8,0.8-1.7,1.6-2.4,2.5c-0.6,0.7-1,1.6-1.6,2.4
			c-0.8,1-1.8,1.9-2.7,2.8c0.1,1.4-1.2,1.8-1.9,2.7c-0.8,0.9-0.9,2.4-2.1,3c-0.4,1.8-2,2.7-3.1,3.9c-2.1,0.5-3.1,2.4-4.5,3.7
			c-0.4,0.4-0.8,0.8-1.2,1.2c-0.3,0.2-0.7,0.4-1.1,0.6c-1.5,0.8-3,1.4-4,2.8c-0.4,0.5-0.8,0.7-1.5,0.7c-1-0.1-2,0-3,0
			c-0.9,0-1.8-0.2-2.6,0c-1.2,0.3-1.7-0.8-2.7-0.9c-1.2-0.1-2.3,0-3.5,0s-2.3-0.2-3.5,0c-1.3,0.2-1.9-1-3.1-1c-1.3,0-2.9,0.7-4-0.6
			c-1.4-0.1-2.8-0.1-4.3-0.2c-0.1,0-0.3,0-0.4-0.1c-0.7-1.1-1.8-0.7-2.7-0.7c-1,0-1.5-1.2-2.7-0.9c-0.5,0.1-1.2-0.6-1.8-0.8
			c-1.3-0.3-2.9,0.6-4-0.9c-1.5-0.2-3.2,0.5-4.6-0.4c-1.5-1-3.1-0.2-4.6-0.5c-0.7-0.1-1.7,0.2-2.1-0.2c-0.8-0.9-1.9-0.9-2.8-0.7
			c-1.3,0.4-2-0.8-3.1-0.9c-2.2-0.2-4.5,0.7-6.6-0.9c-1.2,0-2.3,0-3.5,0c-1,0-2,0-3,0c-1.2,0-2.3,0-3.5,0c-0.8-1.1-2-0.8-3.1-0.9
			c-1.2,0-2.3,0-3.5,0s-2.3,0-3.5,0c-1.3,0-2.6-0.1-3.9,0c-1.3,0.2-2.1-0.6-3.1-0.9c-1.1-0.2-2.3-0.1-3.5-0.1c-1.3,0-2.6,0-3.9,0
			c-1.2,0-2.3,0-3.5,0c-0.1,0-0.3,0-0.4,0c-0.1,0-0.3,0-0.4,0c-1.1-1.4-2.7-0.6-4-0.8c-1.9-0.3-4,0.7-5.7-0.9
			c-1.2,0-2.4-0.2-3.5,0.1c-1.4,0.4-2.2-1.2-3.6-0.9c-1,0.2-2,0-3,0c-1.2,0-2.4-0.2-3.5,0.1c-1.2,0.3-1.6-1.1-2.7-1
			c-1,0.2-2,0.2-2.7-0.8c-0.1-0.2-0.8-0.2-1.1,0.3c-0.8,0.9-1.7,0.8-2.6,0.2c-0.2-0.2-0.4-0.5-0.7-0.5c-0.9-0.1-1.7,0.1-2.6-0.1
			c-0.8-0.1-1.5-0.7-2.2-0.8c-1.1-0.1-2.3,0-3.5,0c-1,0-2.1-0.2-3,0.1c-1.3,0.4-2-0.8-3.1-0.9c-2.5-0.2-5.1,0.7-7.5-0.8
			c-0.6-0.4-1.7-0.2-2.6,0c-1.2,0.3-1.7-0.8-2.7-0.9c-1.7-0.1-3.5,0.4-4.6-1.6c-0.1-0.1-0.3-0.2-0.3-0.2c-1.8,0.6-3.1-1-4.8-0.9
			c-1.7,0.1-3.5,0-5.2,0c-0.8,0-1.3-0.2-1.9-0.8c-0.2-0.2-0.9-0.1-1.1,0.1c-0.5,0.4-1.2,0.8-1.1,1.7c0,0.4-1.2,3.2-1.3,3.3
			c-1.2,1.3-2.5,2.6-3.5,4.2c-0.9,1.6-2.6,2.7-3.9,4c-2.6,2.6-5.1,5.1-7.7,7.6c-1,1-1.8,2.1-3.3,2.5c-0.7,0.2-1.3,1.1-1.8,1.8
			l0.3,0.5c1.4-0.6,2.2,1,3.6,0.9c1.3-0.1,2.6,0,3.9,0c0.9,0,1.7,0,2.6,0c0.4,0,1-0.1,1.2,0.1c0.9,1.2,2.1,0.6,3.2,0.7
			c0.7,0.1,1.5-0.1,2.2,0c0.8,0.2,1.5,0.7,2.3,0.8c0.8,0.1,1.7,0,2.6,0c0.1,0,0.3,0.1,0.3,0.2c0.9,1.1,2.1,0.5,3.2,0.7
			c0.8,1.2,2,0.8,3.1,0.9c0.9,0,1.7,0,2.6,0c0.7,0,1.5,0.1,2.2,0c1-0.3,1.3,0.9,2.2,0.9c0.9,0,2-0.4,2.8,0.6c1,0.1,2,0.2,2.9,0.2
			c1,0,2,0.1,3,0c1.4-0.1,2.5,0.2,3.4,1.3c0.2,0.3,0.7,0.4,1.1,0.4c1,0.1,2,0.2,3,0c1.1-0.2,1.8,0.7,2.7,0.9c1.4,0.2,3-0.5,4.2,0.3
			c1.5,1.1,3.1,0.3,4.6,0.5c1.4,0.2,2.9,0,4.3,0c4.3,0,8.7,0,13,0c0.7,0,1.4,0,2.2,0c1.3-0.1,2.1,1.3,3.6,0.9
			c1.2-0.3,2.6-0.1,3.9-0.1c0.1,0,0.3,0,0.4,0.1c1.1,1.3,2.7,0.7,4,0.8c1.4,0.1,2.9,0,4.3,0c0.4,0,1-0.1,1.2,0.1
			c0.8,1,1.9,0.9,2.7,0.7c1.4-0.4,2,1,3.1,0.9c1.2,0,2.3,0.1,3.5,0c1.2-0.2,2.1,0.5,3.1,0.8c0.8,0.3,1.7,0.1,2.6,0.1
			c1,0,2.1,0.2,3,0c1-0.2,1.4,0.9,2.2,0.9c1.2,0,2.3,0,3.5,0s2.4-0.2,3.4,0.1c1,0.2,1.9,1.1,3.1,0.8c0.8-0.1,1.7,0,2.6,0
			c0.6,1.3,2.2,0.3,2.9,1.2c0.4,0.5,0.6,0.3,0.9,0c0.2-0.2,0.5-0.4,0.7-0.4c1.3,0,2.6-0.1,3.9,0c1.2,0.1,2.6-0.6,3.6,0.8
			c0.1,0.1,0.5,0,0.8,0c0.4,0,0.9,0,1.3,0c1.2,0,2.3,0,3.5,0c1,0,2,0.1,3,0c1.2-0.1,1.9,1.2,3.1,0.9c1.1-0.2,2.3-0.3,3.1,0.8
			c1.9,0,3.8,0,5.6,0c0.7,0,1.7-0.2,2.1,0.1c0.8,0.9,1.8,0.7,2.8,0.7c0.7,0,1.5-0.1,2.2,0c0.5,0.1,1,0.8,1.4,0.8
			c1.1-0.2,1.8,0.7,2.7,0.9c1,0.2,2,0,3,0s2-0.2,2.7,0.9c1.2-0.4,2.1,0.7,3.1,0.8c1.6,0.2,3.2,0.1,4.8,0c1.5-0.1,3.1,0.5,4.4-0.8
			c1.4,0,2.9,0.1,4.3,0.1C257.5,366.3,258.9,365.6,260,365.8z M253,330.3c1.2,0,2.3,0,3.5,0c0.9,0,1-0.4,1.3-1.2
			c0.3-1.1,1.8-1.2,2.5-1.9c2.2-2,4.3-4.2,6.4-6.4c0.3-0.3,0.2-0.8,0.5-1.1c0.5-0.7,1.4-1.2,1.6-1.9c0.2-0.7,0.4-1.4,1-1.7
			c0.8-0.5,0.7-1.5,1.2-2.1c0.7-0.9,1.7-1.6,2.2-2.6c0.6-1.3,1.6-1.9,2.4-2.9c0.8-0.9,1.6-1.6,2.4-2.5c1.2-1.2,2.4-2.4,3.7-3.7
			c0.4-2,2.3-2.8,3.3-4.3c0.5-0.8,0.7-1.8,1.6-2.4c0.2-0.1,0.5-0.4,0.5-0.7c0-1.2,1-1.7,1.7-2.3c0.9-0.7,0.6-1.9,1.5-2.4
			c0.3-0.2,0.7-0.6,1-0.7c1-0.1,1.5-0.8,1.8-1.5c0.4-0.8,0.6-1.8,1.1-2.6c0.7-0.9,1.6-1.7,2.4-2.5s1.6-1.7,2.5-2.4
			c0.7-0.6,1.1-1.2,1-2.2c0-0.3,0.3-0.7,0.5-1.1c0.4-0.6,1-0.9,1.2-1.7c0.5-1.6,1.3-3,2.7-4c1.1-0.8,1.5-1.9,2.1-3
			c0.4-0.9,0.8-1.7,1.6-2.4c0.7-0.6,0.6-1.8,1.5-2.4c0.5-0.3,0.8-0.8,0.7-1.4c-0.1-0.6,0.2-1,0.5-1.5c0.5-0.8,0.8-1.7,1.5-2.4
			c0.7-0.8,0.9-1.9,1.4-2.8c0.4-0.8,0.7-1.9,1.4-2.4c1-0.7,1.2-1.9,1.7-2.8c0.5-1,1.2-2,1.3-3.4c0-1,0.9-2,1.6-2.8
			c1.6-1.9,2.1-4.3,3.5-6.4c0.4-0.6-0.1-1.6,0.8-2.3c0.8-0.6,1.4-1.5,2.2-2.1c1.1-0.7,0.1-2,0.9-2.7c0.1-0.1,0.3-0.2,0.3-0.3
			c0.2-1,0.7-1.8,1.5-2.4c1-0.7-0.1-2,0.9-2.7c0.3-0.2,0.5-0.8,0.4-1.1c-0.3-1,1-1.4,0.9-2.2c-0.3-1.2,0.8-1.7,0.9-2.7
			s1.3-1.2,1.5-2c0.3-0.9,0.2-1.9,0.4-2.9c1.2-0.6,0.4-1.8,0.9-2.6s1.3-1.6,1.4-2.4c0.1-1.1,1.2-1.8,1-3.1c-0.1-1.1,1.4-1.3,1.7-2.3
			c0.3-0.8,0.8-1.5,0.8-2.2c-0.1-1.3,0.8-1.7,1.5-2.4c0.8-0.8-0.3-2.4,1.2-3c0.7-0.3,1-1,0.8-1.8c-0.1-0.7,0.5-1,0.6-1.5
			c0.2-0.8,1.1-1.4,1-2.2c-0.1-1.1,1-1.9,0.9-2.7c-0.2-1.3,1.2-1.9,1-3.1c1.5-0.6,0.6-2,1.2-3c0.9-1.5,1.8-3,2.3-4.7
			c0.1-0.4,0.5-0.6,1-0.6c1.2-0.2,0.6-1.8,1.6-2.1c-0.1-0.1-0.2-0.2-0.3-0.3c-0.6-0.5-0.9-1.2-0.2-1.8c1.1-0.9,1.6-1.9,1.4-3.3
			c0-0.3,0.2-0.8,0.4-1.1c0.6-0.7,1.3-1.2,1.8-1.9c0.7-0.9,0.2-1.9,0.3-2.9c1.1-0.6,0.5-1.9,1-2.6c0.5-0.7,0.7-1.5,1.1-2.2
			c0.7-1.3,1.7-2.5,1.4-4.2c-0.1-0.3,0.3-0.7,0.5-1.1c0.2-0.5,0.3-1.1,0.6-1.5c0.4-0.5,0.7-0.9,0.6-1.5c-0.1-0.9,0.1-1.4,1.1-1.3
			c0.2,0,0.6-0.3,0.6-0.5c0.1-1,0.2-2.1,0-3c-0.3-1.4,1.4-2.1,1-3.6c-0.1-0.3,0.6-0.8,1-1.3c0.2-0.3,0.6-0.6,0.7-1
			c0.3-1,1.4-1.9,0.9-3.1c1-0.6,1.1-1.9,1.7-2.8c0.8-1.2-0.5-2.8-2.1-2.9c-0.8-0.1-1.6,0-2.4-0.5c-1-0.6-2.4-0.8-3.5,0.3
			c-0.2,0.2-0.9,0.3-1.1,0.1c-0.6-0.4-1.1-0.9-1.5-1.5c-1.1-1.4-2.5-1.2-3.8-0.7c-0.5,0.2-0.9,0.6-1.5,0.6c-1.6-0.1-3.2-0.1-4.8,0
			c-0.4,0-0.7,0.3-1,0.6c-0.9,0.7-0.9,2-1.6,2.8c0.4,1.2-1.1,1.9-0.9,3.1c-1.5,0.6-0.6,2.3-1.4,3.3c-0.9,1.1-1.5,2.6-1.2,4.3
			c0.1,0.4,0,1.1-0.2,1.2c-1.2,0.7-0.2,2-0.9,2.7c-0.9,0.8-0.5,1.9-0.6,2.8c0,0.3-0.1,0.6-0.3,0.7c-1,0.9-1.7,1.9-1.5,3.3
			c-1,0.8-1.1,2.2-1.7,3.2c-0.7,1.2-1.5,2.2-1.7,3.6c-1.6,0.6-0.2,2.6-1.5,3.3c-0.9,2.4-2.2,4.6-3.4,6.8c-0.5,1,0.3,2.4-1.1,3
			c-0.2,0.1-0.1,0.8,0,1.2c0.3,1.6-0.6,2.9-1.2,4.3c-0.4,1-1.5,1.8-1.3,2.9c0.2,1.6-0.8,2.6-1.2,3.9c-0.1,0.5-0.7,0.9-0.6,1.5
			c0.4,1.5-0.6,2.6-1.2,3.8c-3.9,7.9-8,15.7-11.8,23.7c-0.7,1.4-1.3,3-2.3,4.2c-0.9,1.1-1.2,2.4-2,3.5c-1,1.4-0.6,3.6-2.5,4.6
			c0.1,0.8-0.4,1.3-0.9,1.8c0.3,1.1-0.8,1.4-1.2,2.1c-0.4,0.6-0.6,1.2-0.9,1.8c-1,1.3-1.2,3-2.4,4.2c-1.2,1.3-1.5,3.1-2.7,4.5
			c-0.6,0.7-1.1,1.8-1.4,2.8s-1.9,1.4-1.7,2.7c-0.9,0.4-0.7,1.5-1.2,2.1c-0.7,0.7-0.5,1.9-1.5,2.4c-0.9,0.4-0.5,1.5-1.2,2.1
			c-0.9,0.7-1.8,1.5-2.4,2.5c-0.6,0.9-1.1,1.8-1.4,2.9c-0.2,0.5-0.7,0.9-1.1,1.3c-0.6,0.6-1.2,1.3-1.8,1.8c-0.5,0.4-0.6,0.9-0.5,1.5
			c0.1,0.7-0.3,1.1-0.7,1.4c-0.7,0.6-1.3,1.1-1.1,2.2c0.1,0.2,0,0.6-0.2,0.8c-0.6,0.6-1.2,1.3-1.8,1.8c-0.8,0.6-0.6,1.8-1.5,2.5
			c-1.2,1-2.3,2-2.9,3.5c-0.4,1.1-1.8,1.7-2.3,2.9c-0.4,1-1.3,1.9-2.2,2.5c-1.2,0.8-1.1,2.2-2.1,3.1c-1.1,1-2.6,1.8-2.8,3.6
			c-1.2,1.2-2.5,2.4-3.7,3.7c-0.3,0.3-0.2,0.8-0.5,1.1c-0.5,0.7-1,1.4-1.7,1.9c-0.8,0.6-0.8,1.4-1.2,2.1c-1.2,0-1.8,0.8-2.4,1.5
			c-0.6,0.7-1.4,1.2-1.7,2.3c-0.3,1-1.7,1.6-2.2,2.5c-0.5,1-1.2,1.8-1.9,2.7c-0.7,0.8-1.8,0.8-2.3,0.4c-0.9-0.7-1.5-1.1-2.5-0.1
			c-0.3,0.3-1.3,0.4-1.6,0.1c-1-0.8-2-0.9-3.1-0.8c-1.8,0.2-3.2-0.5-4.6-1.5c-0.4-0.3-1-0.4-1.2-0.2c-0.6,0.8-1.4,0.7-2.3,0.9
			c-1.2,0.2-1.8-0.6-2.6-1c-1-0.4-2-0.9-3.1-0.8c-0.9,0.1-1.7,0-2.6,0c-0.4,0-0.8,0.2-1.1,0.4c-1.1,0.9-2.1,0.5-3-0.4
			c-0.3-0.3-0.6-0.8-0.9-0.9c-1.7-0.4-3.7,0.7-5.2-0.8c-0.5,0.9-1.4,0.7-2.3,0.8c-1,0.1-1.5-0.7-2.3-0.8c-0.7-0.1-1.5,0.6-2.2,0.8
			c-0.4,0.1-0.8-0.1-1.2-0.2s-0.7-0.6-1-0.6c-1.4-0.1-2.9-0.2-4.3,0c-1.5,0.2-2.4-1.3-4-1c-1.2,0.3-2.6,0.5-3.7-0.3
			c-1.2-0.9-2.5-0.3-3.7-0.5c-0.8-0.1-1.2-1.2-2.2-1c-0.8-1.2-2.1-0.8-3.1-0.7c-2.4,0.3-2.5,0.4-4.2-0.6c-0.7-0.4-0.6,0.3-0.9,0.4
			c-0.4,0.1-1,0.3-1.1,0.2c-0.6-0.5-1.1-0.8-1.9-0.8c-1.3,0.1-2.6,0-3.9,0c-0.7,0-1.7,0.2-2.1-0.2c-1-1.1-2.1-0.6-3.2-0.7
			c-2.2-0.3-4.5,0.5-6.6-0.8c-1-0.6-2.4,0.3-3.7-0.6c-1.2-0.9-2.8-0.2-4.2-0.4c-0.9-0.1-1.9,0.3-2.8-0.5c-0.8-0.8-1.9-0.2-2.9-0.3
			c-0.1,0-0.2-0.2-0.3-0.3c-1.6-0.7-2.8-0.8-5.1-0.6c-0.3,0-0.7,0-0.8-0.2c-0.5-0.7-1.1-0.7-1.9-0.7c-1.6,0-3.2,0-4.8,0
			c-1,0-2,0.3-2.7-0.8c-1.5,0.1-3.2-0.7-4.4,0.8c-1.7,0-3.5,0.1-5.2,0c-1.8-0.2-3.7,0.8-5.3-0.8c-1.1,0-2.3,0-3.4-0.1
			c-0.9-1.3-2.4-0.8-3.6-0.8c-1.1,0-1.8-0.4-2.7-0.9c-1.1-0.5-2.2-1.2-3.5-0.9c-0.9,0.2-1.6-0.1-2.3-0.7c-0.3-0.3-1.3-0.4-2,0.2
			c-1.3,1-2.4,0.8-3.9,0c-1.3-0.7-2.6-1.3-4.3-1.2c-3,0.2-6.1,0.1-9.1,0.1c-1,0-2,0-3,0c-1.4-1.3-3.2-0.8-4.8-0.9
			c-0.7,0-1.5,0.1-2.2,0c-0.5-0.1-0.9-0.7-1.4-0.8c-0.9-0.1-1.5-0.2-2.3-0.8c-0.6-0.4-1.7-0.3-2.5-0.1c-1.2,0.4-1.5-1.2-2.7-1
			s-2.6,0.5-3.5-0.8c-0.1-0.1-0.7-0.1-0.8,0.1c-1.1,1.3-1.8,0.7-2.8-0.2c-0.6-0.7-1.5-1.1-2.4-1.5c-0.3-0.1-0.8,0-1.1,0.2
			c-1.2,0.8-1.8,2-2.5,3.3c-0.5,1.1-0.5,2.6-2.4,2.5c-0.7,0.7-1.9,1.3-2.1,2.1c-0.4,1.5-1.7,2.2-2.5,3.3c-0.8,1-2,1.6-2.2,3
			c-0.1,0.4-0.8,1.1-1.2,1.1c-0.9,0-1.3,0.6-1.7,1.1c-0.8,1-2.1,1.2-3.1,2c-0.9,0.8-2.2,1.7-3.7,1.3c-0.1,0-0.4,0.5-0.4,0.7
			c0.1,0.4,0.3,0.9,0.5,1c1.1,0.1,2.3,0,3.5,0s2.3,0,3.5,0s2.3,0,3.5,0c1.1-0.1,1.8,1.3,3.1,0.9c1.1-0.3,2.3-0.1,3.4-0.1
			c1.3,0,2.6,0.2,3.9-0.1c1.3-0.3,2,0.9,3.1,0.9c1.6,0,3.2,0,4.8,0c0.6,0,1.4-0.1,1.6,0.2c0.7,0.8,1.6,0.8,2.4,0.6
			c1-0.2,1.4,0.9,2.2,0.9c1.3,0,2.6,0,3.9,0c1.2,0,2.4,0.2,3.4-0.1c1.5-0.4,2.3,0.9,3.6,1c1.8,0.1,3.7-0.8,5.3,0.8c1,0,2.1,0.2,3,0
			c1.2-0.3,1.7,0.9,2.7,0.9c1.4,0,2.7-0.2,4,0.8c0.5,0.4,1.9-0.1,2.4,0.3c0.8,0.7,1.6,0.8,2.4,0.6c1.2-0.3,1.5,1.2,2.7,0.9
			c1-0.2,2-0.2,2.7,0.8c0.1,0.1,0.8-0.1,1.1-0.3c0.6-0.6,1.1-0.8,1.8-0.1c0.3,0.3,0.7,0.5,1.1,0.5c1.4,0.1,2.9,0.1,4.3,0
			c1.6-0.1,2.9,0.5,4.4,0.8c2.4,0.5,5.1-0.7,7.4,0.9c1,0,2,0.1,3,0c1.2-0.2,2.1,0.6,3.1,0.8c0.9,0.3,2,0.1,3,0.1s2,0,3,0
			c1,0.1,1.5,1.1,2.7,0.9c1.3-0.2,2.9-0.5,4,0.8c1.5-0.3,2.7,0.5,4,0.8c1.4,0.3,2.9,0.2,4.3,0c1.6-0.1,3,0.3,4.4,0.9
			c0.5,0.2,1-0.1,1.5-0.4c1.1-0.6,2.2-0.7,3.2-0.2c0.5,0.3,0.9,0.6,1.5,0.6c1.2-0.1,2.3,0,3.5,0s2.3,0,3.5,0c1,0,2,0,3,0
			c1.2,0,2.3,0.2,3.5,0c1.3-0.2,1.9,1,3.1,0.9c3.6-0.1,7.2,0,10.8,0c1.1,0,2.3-0.2,3.1,0.9c1.3,0,2.6,0,3.9,0c1,0,2,0,3,0
			c0.7,0,1.1,0.6,1.5,0.6c1.8,0.1,3.3,1.3,5.2,1.2c2.2-0.1,4.5-0.7,6.6,0.8c1,0,2,0.1,3,0c1.2-0.2,1.8,1.2,3.1,0.9
			c0.9-0.2,1.9-0.4,2.8,0.5c0.8,0.7,1.9,0.2,2.9,0.3c0.1,0,0.2,0.2,0.3,0.3c0.6,1.1,2,0,2.7,0.9c0.8,1,1.9,0.3,2.8,0.5
			c0.7,0.1,1.7-0.2,2.1,0.2c0.9,0.9,1.8,0.6,2.8,0.7c1.1,0.1,2.3,0.1,3.4,0.2c0.8,1.2,2.1,0.5,3.2,0.7c1,1.8,3.4,0,4.5,1.7
			c1.3,0,2.6,0.2,3.9,0c1.4-0.2,2.2,1.2,3.6,0.9C251,330.2,252,330.3,253,330.3z M160,107.2c0.2-0.1,0.5-0.2,0.9-0.3
			c0.4-0.1,1.1,0.1,1.2-0.2c0.5-0.8,1.7-0.5,2.1-1.2c0.7-1.2,2.2-1.1,3-2.1s2.1-1.1,3.2-1.7c0.2-0.1,0.5-0.2,0.7-0.4
			c1.2-1.2,2.5-2.4,3.7-3.7c2-0.4,2.8-2.2,4.2-3.4c1.2-1,1.8-2.4,2.5-3.7c0.4-0.8,0.8-1.7,1.2-2.5c0.1-0.2,0.5-0.6,0.5-0.6
			c-0.8-0.8-1.6-1.7-2.4-2.5c-0.4-0.4-0.8-0.9-1.2-1.2c-0.8-0.4-0.4-1.3-0.9-1.8c-1.4-1.4-2.7-2.8-3.8-4.5c-1.2-1.8-3-3.1-4.5-4.6
			c-1.4-1.4-2.8-2.9-4.3-4.3c-0.6-0.6-1.2-1.2-1-2.2c0-0.2,0-0.6-0.2-0.8c-1.7-1.8-3.4-3.5-5.2-5.2c-0.1-0.1-0.4,0.1-0.6,0.2
			c-0.5,0.5-0.8,1-1,1.8c-0.2,0.7-1.6,0.4-2,1.2c-0.2,0.4-0.5,0.8-0.5,1.1c0.2,1.2-0.6,1.9-1.4,2.4c-0.5,0.2-1,0.3-1.4,0.7
			c-0.7,0.7-1.5,1.3-2.2,1.9c-1.6-0.2-0.6,1.8-1.7,2c-0.4,0.1-0.5,0.7-1.1,0.6c-1.2-0.3-1.6,0.3-2,1.4c-0.2,0.7-1.1,1.4-1.8,1.8
			c-0.5,0.4-1.4,0.3-1.8,1c-1.4-0.1-2.4,0.4-3.3,1.5c-0.1,0.2-0.5,0.3-0.7,0.3c-0.7,0-1.4,0.1-2.2,0c-0.6-0.1-1.1,0.1-1.5,0.6
			c-0.3,0.3-0.6,0.7-0.9,0.9c-0.5,0.4-0.6,0.7-0.1,1.2c2.9,2.8,5.7,5.7,8.6,8.5c1.2,1.2,1.4,3.2,3,3.9c1.3,0.6,2.2,1.2,2.8,2.7
			c0.4,1.1,1.9,1.8,2.6,2.8c0.7,1,1.2,2.2,2.2,3c1.1,0.9,1.7,2.3,3.3,2.4c1,1,2,2,3.1,3.1c0.1,0.1,0.2,0.2,0.3,0.2
			C159.6,107.6,159.7,107.5,160,107.2z M146.9,33.7c0-0.1,0-0.3,0-0.4c0.2-1.2-0.4-1.6-1.4-2c-0.8-0.3-1.3-0.9-2.1-0.1
			c-0.2,0.3-0.7,0.3-1.1,0.3c-1,0-2,0.1-3,0c-0.9-0.1-1.6,0.1-2.2,0.9c-1.1,1.3-2.9,1.3-4.2,2.4c-0.5,0.4-1.6,0.2-2.5,0.2
			c-0.4,0-0.9-0.1-1.3,0c-0.4,0.1-0.8,0.2-1.1,0.5c-1,0.9-1.7,2.1-2.8,2.7c-1.1,0.6-2.3,1.5-3.8,1.3c-0.1,0-0.2,0.5-0.3,0.7
			c-0.1,0.2-0.2,0.7-0.3,0.7c-2-0.2-3,1.3-4.2,2.5c-0.9,0.8-1.6,2.1-3,2.1c-0.8,0.9-2.1,1.6-2.1,3c-0.7,0.4-0.6,1.2-0.9,1.8
			c-0.4,0.6-0.9,1.1-1.5,1.5c-1.4,0.9-1.8,2.4-2.6,3.7c-0.5,0.9-1.1,1.8-1.4,2.9c-0.1,0.3-0.3,0.5-0.4,0.7c0,0.7-0.2,1.5,0,2.2
			c0.2,1-0.9,1.4-0.9,2.2c0,1-0.3,2.2,0.1,3c0.4,0.7,0.7,1.5,1.1,2.2c0.6,0.9,0.7,2.4,1.9,2.6c1.2,0.3,2.1,1.5,3.5,1
			c0.8-0.3,1.2,0.7,1.8,0.8c0.7,0.1,1.4,0,2.2,0.1c0.2,0,0.5,0.2,0.7,0.4c0.9,1.4,2.3,1.3,3.8,1.3c0.8,0,1.3-0.3,1.8-0.8
			c0.4-0.4,0.6-1,1.3-0.9c0.8,0.1,1.7-0.3,2.5,0.3c1.1,0.9,2.5,0.9,3.5,0.1c0.8-0.6,1.9,0,2.3-0.6c0.8-1.1,2-0.3,2.7-0.9
			c0.7-0.8,1.5-0.5,2.3-0.7c0.4-0.1,0.5-0.3,0.2-0.8c-0.7-1-0.6-1.2,0-1.8c0.1-0.1,0.2-0.2,0.3-0.3c1.1-0.5,2.2-1.1,3-2.1
			c1.3,0,1.9-1.1,2.7-1.8c1.6,0.3,1.8-1.5,3.1-1.9c1-0.2,1.7-1.4,2.6-2.1c0.2-0.2,0.5-0.4,0.7-0.4c0.9,0.1,1.2-1.3,2.2-0.9
			c0.4-0.7,0.7-1.6,1.3-2c1-0.8,1.1-2.2,2-3.1c0.8-0.8,1.2-2.1,2.2-2.9c0.6-2.1,2.4-3.8,1.9-6.2c-0.1-0.4,0-0.9,0.3-1.2
			c0.8-1,0.7-1.9,0-3c-0.5-0.7-0.3-1.9-0.4-2.9c0-0.1-0.2-0.2-0.3-0.3c-0.1,0-0.3,0.1-0.3,0.2c-1.1,2.5-2,5.1-4.3,6.9
			c0,1.1-1.3,1.8-1.1,3c0,0.3-0.2,0.9-0.4,1.1c-1.2,0.7-1.1,2.2-2.1,3c0.5,1.2-1.4,1.5-0.9,2.7c-0.7,0.7-1.4,1.4-2.1,2.1
			c-0.3,0.3-0.6,0.6-0.9,0.9c-0.5,0.5-1.1,1-1.5,1.5c-0.5,0.7-1.4,0.8-2.1,1.2c-0.6,0.3-1,1-1.6,1.5c-1-0.4-1.3,0.9-2.2,0.9
			c-0.3,0-0.7,0.4-1,0.7c-1.1,1.1-2.4,1.7-4,1.9c-0.3,0-0.6,0.1-0.8,0.2c-0.9,1-1.8,1.6-3.3,1.6c-0.8,0-1.5,1.1-2.4,1.4
			s-1.9,0.2-2.9,0.4c-0.1,0-0.2,0.2-0.3,0.3c-1.5,0.8-2.9,0.7-4.1-0.7c-0.6-0.6-0.9-1.3-1.2-2.1c-1.1-2.3-1-2.6,1.3-3.8
			c0.5-0.2,1-0.9,1.4-0.8c2,0.2,3.1-1.7,4.9-1.8c1.3-1.4,3.6-1.3,4.8-3c0.2-0.3,0.7-0.3,1.1-0.4c0.4-0.1,0.9,0,1.2-0.2
			c0.8-0.5,1.2-1.6,2.4-1.6c0.3,0,0.6-0.6,0.9-0.9c1.9-1.4,2.7-3.6,4.3-5.1c0.9-0.8,1.3-1.8,1.8-2.8c1.5-3.1,3.1-6.2,4.7-9.3
			C146.5,35.8,147.3,34.9,146.9,33.7z M191.7,67c-2,0.3-4.5-0.7-6.7,0.9c-1.2,0-2.3,0-3.5,0c-0.3,0-0.5,0.1-0.8,0.2
			c0.1,0.2,0.1,0.5,0.2,0.6c1,1,2.1,2,3,3.1c1,1.1,1.4,2.8,2.8,3.6c0.8,0.5,0.5,1.5,1.2,2.1c0.8,0.6,1.4,1.4,2.1,2.2
			c-0.2,1.4,0.8,1.1,1.6,1.2c1,0.1,1.8,1.1,1.8,1.9c0,1.7,0,3.5,0,5.2c0,0.8-0.5,1.3-0.7,1.9c-0.5,1.4-1.8,2.5-1.8,4
			c0,1.4-1.1,2.2-1.3,3.4c-0.3,1.3-1.2,2.2-2.1,3c-0.6,0.6-1.2,1.3-1.8,1.8s-1,1.2-2,1.4c-0.7,0.1-1.3,1-1.9,1.7
			c-1.6,2.1-4.2,2.9-5.8,4.9c-0.1,0.2-0.5,0.1-0.7,0.3c-0.9,0.6-2.2,0.6-2.8,1.6c-0.6,0.9-1.7,1-2.5,1.5c-1,0.6-1.9,1-2.7,1.9
			c-0.2,0.2-0.5,0.3-0.8,0.2c-1-0.2-1.5,0.6-2.3,0.8c-0.9,0.3-2,0.1-3,0.1c-2.3,0-4.6,0-6.9,0c-0.8,0-1.3,0.1-1.9,0.7
			c-0.2,0.2-0.9,0.2-1.1,0c-0.7-0.7-1.7-1.4-1.9-2.2c-0.3-1.1-1.1-1.6-1.8-2.3c-0.4-0.5-1.2-0.6-1.8-0.9c-0.9-0.4-0.7-1.5-1.2-2.1
			c-1-1-2.1-2-3-3.1c-1-1.1-1.5-2.6-2.7-3.7c-1.6-1.3-1.6-1.5-2.4,0.6c-0.3,0.7-1.3,1.2-0.9,2.2c0.4,1.1-1.4,1.5-0.9,2.7
			c0.4,1-0.9,1.3-0.9,2.2c0.1,2-0.3,4.1,0.1,6c0.3,1.5,1.4,2.9,2.2,4.3c0.1,0.1,0.3,0.2,0.3,0.3c0.2,0.7-0.4,1.6,0.3,2
			c0.5,0.3,1.4,0.3,1.8,1c1.2-0.1,1.7,0.9,2.4,1.5c0.3,0.2,0.9,0.4,1.1,0.3c0.5-0.4,0.7-0.8,1.6-0.2c1.8,1.2,3.1,1.3,5.1,1.1
			c0.4,0,0.7-0.4,0.7-0.9c0-0.2,0.2-0.6,0.3-0.7c0.9-0.2,2,0.2,2.6-0.9c1,0,2.1,0.1,3-0.1c1-0.3,1.9-1.1,3.1-0.9
			c0.8,0.2,1.7,0.1,2.6,0c0.4,0,0.8-0.1,1.2-0.3c0.8-0.4,1.6-1,2.5-1.4c0.7-0.4,1.6-0.9,2.2-0.8c1.2,0.2,1.6-1.1,2.7-1
			c0.4,0,1-0.8,1.4-0.8c1.3,0.3,1.9-1.1,3.1-0.9c0.6-1.1,2.1-0.8,2.7-1.8c0.4-0.7,1.1-0.8,1.8-0.8c0.4,0,0.8-0.2,1.1-0.5
			c0.7-0.5,1-1.5,2.1-1.2c0.9-0.9,1.9-1.8,2.8-2.7c0.9-1,2.3-1,3.1-2.1c0.6-0.9,1.6-1.7,2.4-2.5c-0.2-1.8,1.8-1.3,2.4-2.4
			c0.6-1,1.6-1.6,2.4-2.5c0.7-0.9,1.9-1.3,2.1-2.6c0.2-1.2,1.4-1.7,2.2-2.5c0.4-0.5,0.3-1,0.4-1.6c0.1-0.4,0.2-0.9,0.5-1.1
			c0.8-0.6,1-1.7,1.6-2.4c0.7-0.9,1.5-1.6,1.8-2.7c0.3-1,1.4-1.8,1.3-2.9c-0.1-1.2,1.3-1.9,0.9-3.1c-0.2-0.9,1-1.2,0.9-2.2
			c-0.2-2-0.1-4,0-6.1c0-0.6-0.4-1-0.6-1.5c-0.5-1.6-1.8-2.4-2.8-3.6c-0.9-1.1-1.9-1.7-3.3-1.4c-1.1,0.2-1.8-0.5-2.7-0.8
			s-2-0.1-3-0.1C193.5,67,192.8,67,191.7,67z M193.6,116.2c-0.6,0.2-1.2,0.2-1.6,0.6c-0.8,0.6-1.6,1.3-2.1,2.1
			c-0.7,1-2.1,0.7-2.7,1.8c-0.5,0.9-1.4,0.9-2.2,0.9c-0.5,0-1,0.8-0.7,1.2c0.4,0.6,1.1,1,0.9,1.8c1.6,1.6,3.3,3.3,4.9,4.9
			c0.4,0.4,0.8,0.8,1.4,0.8c0.4,0,0.5,0.5,0.6,0.9c0.5,1.1,1.4,2.1,2.6,2.5c0.3,0.1,0.7,0.2,0.7,0.3c0.2,1.6,1.5,2.3,2.5,3.3
			c6.5,6.6,13.1,13.1,19.6,19.6c0.6,0.6,1.4,1,1.5,2c0,0.5,0.3,0.8,0.8,0.7s1.1,0.2,1.6-0.3c0.8-0.9,1.8-1.7,2.2-3
			c0.2-0.6,0.5-0.8-0.1-1.3c-0.2-0.1-0.2-0.5-0.3-0.7c-0.2-2.2-1.5-3.8-3.2-5.1c-1.1,0.2-1.4-0.8-2.1-1.3c-2.1-1.5-2.9-4.2-4.9-5.8
			c-0.2-0.2-0.2-0.8-0.3-1.2s-0.1-0.9-0.3-1.1c-0.7-0.8-1.8-1.3-2-2.2c-0.5-1.7-2.3-2.3-2.7-3.6c-0.5-1.7-1.9-2.4-2.9-3.6
			c-1.6-1.8-3.4-3.5-5.2-5.2c-0.3-0.3-0.7-0.7-0.6-1c0.3-1.4-0.7-2.1-1.5-2.8c-1.4-1.2-2.3-2.7-2.9-4.4
			C194.4,116.7,193.9,116.5,193.6,116.2z M121.2,85.2c0.5,0,0.9,0,1.3,0c0.5,0.1,0.9-0.2,0.9-0.6s-0.2-0.8-0.4-1.1
			c-0.7-0.9-0.9-1-2.3-0.3c-1,0.5-1.9,0.1-2.8,0.3c-0.1,0-0.3,0.2-0.3,0.3c0,0.2,0.2,0.6,0.2,0.6C119.1,84.2,119.9,85.9,121.2,85.2z
			"/>
		<path d="M234.3,253.2c0,0.6,0,1.2,0,1.7c0,0.9-0.6,0.8-1.2,0.8c-0.6,0-1.1,0-1.5,0.5c-0.7,1.1-1.7,1.3-3,1.3s-2.2-0.2-3-1.3
			c-0.4-0.6-1.1-0.9-0.9-1.8c-0.6-0.3-1.2-0.6-1.7-0.9c-0.6-0.4-1.1-1-1.5-1.5c-0.4-0.4-1-0.8-1-1.3c-0.1-1.1-0.8-0.9-1.4-1.1
			c-0.9-0.3-1.6-1.1-2.4-1.5c-0.5-0.2-1.4-0.4-1.6-0.1c-1.1,1-2.4,0.9-3.6,0.8c-1.2-0.1-1.9,1.3-3.1,0.9l-2.7,0.9
			c-0.7-0.1-0.9,0.6-1.3,0.9c-0.6,0.4-2.7,1.5-3.6,1.6c-0.7,0.1-1,0.4-1.4,0.8c-1.1,0.9-3.1,1.8-4.4,1.8c-1.3,0-2.1,1.4-3.5,0.9
			c-0.5,0.9-1.4,0.8-2.3,0.8c-1,0-2,0-3,0c-1.1,0-1.8-1.4-3.1-0.9c-0.3,0.1-1-0.6-1.2-1c-0.5-0.8-1.6-0.4-2.1-1.2
			c-0.7-1-1.9-1.7-2.5-2.9c-0.5-1.1-1.1-2.2-1.6-3.2c-0.6-1.2-1.3-2.4-1.7-3.6c-0.3-1.1-1.2-1.6-1.8-2.3c-0.5-0.6-1-1.2-2-1.4
			c-0.7-0.1-1.3-0.8-2.3-0.8c-2.3,0.1-4.6,0-6.9,0c-0.8,0-1.9-0.4-2.4,0.3s-1.3,0.3-1.8,0.9c-0.3,0.3-0.7,0.5-1.1,0.5
			c-1.7,0.2-3,1.1-4.3,2.2c-0.8,0.7-1.3,1.9-2.6,2.1c-1,0.1-1.2,1.2-2,1.5c-0.8,0.4-1.7,1-2.6,1c-1,0-1.5,0.9-2.2,0.9
			c-0.9,0-1.2,1.3-2.2,0.9c-0.8,1.4-2.8,0.4-3.6,1.7c-1.4,0-2.9,0-4.3-0.1c-0.8-1.3-1.3-0.3-1.8,0.3c-0.7,0.7-0.7,0.7-1.1-0.3
			c-0.1-0.2-0.3-0.7-0.4-0.7c-1,0-2.1-0.4-2.9,0.3c-0.6,0.5-0.8,0.2-1.3,0c-1.3-0.4-2.3-1.6-3.9-1.2c-0.3,0.1-0.8-0.2-1.1-0.4
			c-0.8-0.7-1.4-1.4-2.2-2.1c-1.2,0.2-1.7-0.9-2.4-1.5c-0.8-0.7-1.4-1.4-2.2-2.1c-0.6-0.6-1.2-1.1-1.2-2.1c-1.7-2.4-2.5-5.4-4.2-7.8
			c0-1.5-1.5-2-2.2-2.9c-1.4,0.6-2.2-1-3.5-0.9c-0.4,0-0.8-0.2-1.1-0.4c-0.4-0.3-0.6-0.4-0.9,0c-0.7,1-1.6,1.6-2.9,1.3
			c-1.2-0.3-2.1,0.6-3.1,0.8c-1.1,0.2-2.3,0-3.4,0.1c-0.4,0-0.8,0.3-1,0.6c-0.7,0.8-1.5,1.4-2.6,1.1c-1.6-0.5-2.8,1.2-4.4,0.9
			c-0.8,0.8-1.7,1.5-2.5,2.3c-0.7,0.8-1.4,1.4-2.6,1.2c-0.3,0-0.7,0.3-1,0.6c-0.6,0.6-1.3,1-2.1,1.3c-0.6,0.2-0.2,1.3-0.9,1.8
			c-0.5,0.3-0.8,0.8-1.5,0.6c-0.1,0-0.3,0-0.4,0c-0.4,0.2-0.7,0.4-1.1,0.5c-0.2,0.1-0.5,0.3-0.7,0.3c-1.3-0.2-1.7-1.4-2.5-2.2
			c-0.2-0.2-0.2-0.9,0-1.2c0.2-0.6,0.7-1.2,0.8-1.8c0.2-0.7,0-1.4,0.1-2.1c0-0.2,0.4-0.3,0.7-0.4c0.3-0.2,0.9-0.3,1-0.6
			c0.5-1.8,1.5-3.2,2.8-4.5s2.7-2.4,4.5-2.8c0.5-0.8,1.5-0.7,2.1-1.2c0.9-0.7,1.5-1.8,2.9-1.4c0.9-0.8,1.9-1,3.1-0.9
			c0.3,0,1-0.3,1-0.4c-0.1-1.4,0.8-1.2,1.6-1.3c1.1-0.1,2.3,0.4,3.2-0.8c0.3-0.4,1,0,1.5,0.5c0.3,0.2,1,0.4,1.1,0.3
			c0.7-1,1.7-0.8,2.7-0.8c1.3,0,2.6,0,3.9,0c0.7,0,1.4,0,1.9-0.7c0.2-0.2,0.8-0.2,1.2-0.2c0.7,0,1.4-0.3,2,0.4
			c0.7,0.8,1.6,0.3,2.4,0.5c0.6,0.2,1.2,0.8,1.8,0.8c0.9,0,1.2,1.1,2.2,1c0.5,0,1,0.9,1.5,1.4c1.1,1.1,2.3,2.2,3.3,3.4
			c0.7,0.8,1.1,1.8,1.7,2.8c-0.4,1.4,0.7,2.1,1.4,2.9c0.2,0.2,0.2,0.5,0.3,0.7c0.4,0.8,0.7,1.8,1.2,2.5c1,1.2,2,2.6,3.4,3.3
			c1.4,0.8,3.1,2.1,5,0.7c0.3-0.2,0.7-0.3,1.1-0.4c1-0.1,2.2,0.2,2.9-0.3s1.7-0.3,2.2-1.1c0.2-0.2,0.7-0.2,1.1-0.3
			c0.8-0.1,1.6,0.1,2.4-0.6c0.5-0.4,1.7,0,2.4-0.3c1-0.4,2.1-0.7,2.8-1.6c1.8-2.3,4.3-3.3,6.8-4.5c1.7-0.8,3.3-2,5.4-1.7
			c1.1-1.3,2.6-1,4-0.8c1.2,0.1,1.7-0.9,2.7-0.9c1-0.1,2,0,3,0c1-0.1,1.8,0.2,2.7,0.8c0.7,0.5,2-0.4,2.8,0.5
			c0.7,0.8,1.6,0.2,2.4,0.6c0.8,0.5,1.6,1.3,2.4,1.4c1.2,0.2,1.7,1,2.4,1.6c0.5,0.5,1.8,0,1.6,1.4c-0.1,0.9,1.1,0.5,1.7,0.9
			c0.9,0.7,0.7,1.8,1.5,2.4c0.9,0.6,1.2,1.5,1.2,2.6c0,0.7,1,1.3,0.8,2.2c-0.2,0.8-0.1,1.7,0.7,2.3c0.8,0.5,2.7,1.4,3.3,1.4
			c0.1,0,0.3,0.1,0.4,0c0.7-0.5,1.2-1.2,1.9-1.6c0.7-0.4,1.7,0.3,2.3-0.6c0.6-0.9,1.7-1,2.4-1.6c0.8-0.6,1.7-0.7,2.5-1.4
			c1.2-1.1,2.7-1.9,4.5-1.6c0.9,0.1,1.7,0,2.2-0.8c0.2-0.2,0.4-0.4,0.6-0.6c0.7-0.8,1.4-1.2,2.6-1.2c2.6,0.1,5.2,0,7.8,0
			c0.7,0,1.4,0.1,2.1,0.1c0.7,1.4,2.4,0.3,3.3,1.5c0.6,0.7,2,0.7,2.8,1.3c0.9,0.6,2,0.7,2.8,1.8c1,1.4,2.3,2.6,3.6,3.7
			c1.6,1.3,2,3.2,3,4.8C234.6,251.6,234.2,252.4,234.3,253.2z"/>
		<path d="M162.3,210.8c-2,0-4,0-6.1,0c-0.9,0-2.1,0.4-2.7-0.7c-1.1-0.1-2.3-0.2-3.4-0.1c-1.2,0.1-2.2-0.1-3.1-0.9
			c-1.4,0.4-2-0.7-2.9-1.4c-0.6-0.5-1.6-0.4-2.1-1.2c-0.4-0.6-1.1-1-1.5-1.6c-0.6-0.7-1.5-0.8-2.1-1.3s-1.3-0.4-1.8-0.9
			c-1.4-1.4-2.9-2.8-4.2-4.3c-0.5-0.6-0.7-1.4-1.1-2.1c-0.4-0.7-0.5-1.6-0.9-2.2c-0.9-1.1-1.8-2.3-3-3.1c-0.7-0.5-1.9-0.2-2.9-0.2
			c-1.9,0-3.8,0-5.6,0c-0.8,0-1.7-0.4-2.4,0.5c-0.7,0.9-1.9-0.1-2.7,0.9c-0.4,0.6-1.6,0.4-2.1,1.2c-0.2,0.3-0.6,0.6-1,0.8
			c-0.8,0.4-1.8,0.6-2.6,1.1c-0.8,0.5-1.2,1.7-2.4,1.5c-0.3,0.6-0.5,1.3-1,1.7c-0.4,0.3-1.3,0-1.2,0.8c0.2,1.6-0.9,2.3-1.8,3.2
			c-0.7,0.7-3.6,0.6-4.4,0s-1.3-1.9-0.6-2.6c0.6-0.8,0.8-1.5,0.7-2.3c-0.1-0.8,0.2-1.4,0.8-1.9c1.1-0.9,1.2-2.4,2.4-3.3
			c1.1-0.9,2.1-2,3.1-3c1.2-1.2,2.9-1.7,4-3c0.9-1.1,2.5-1.5,3.9-2.1c1.2-0.6,2.3-1.2,3.9-1.2c1.3,0,2.5-1,4-0.8
			c1.6,0.2,3.2,0,4.8,0c1.4,0,2.9-0.1,4.3,0c0.6,0.1,1.2,0.7,1.8,0.8c0.7,0.1,1.5-0.1,2.1,0.1c0.6,0.2,1,0.8,1.8,0.9
			c0.5,0.1,1.1,0.7,1.8,0.9c0.5,0.2,1,0.8,1.3,1.5c0.7,1.6,1.6,3.1,2.3,4.7c0.6,1.2,1.4,2,2.2,3c1.7,0.2,2.5,1.8,3.6,2.8
			c0.3,0.3,0.7,0.9,0.9,0.9c1.3-0.2,2.2,0.2,3,1.3c0.7,1.1,2.3-0.1,3,1.2c0.1,0.2,0.8,0.1,1.2,0.2c2.1,0.2,4.2-0.6,6.2,0.8
			c0.3,0.2,0.8,0,1.3,0c1.9,0,3.8-0.1,5.6,0c1.1,0.1,1.8-0.7,2.7-0.9s2,0.4,2.8-0.6c0.1-0.1,0.2-0.3,0.3-0.3c1,0,2.1-0.2,3,0
			c1.2,0.3,1.7-0.9,2.7-0.9c1.2,0,2.4,0.2,3.4-0.1s2-0.7,3.1-0.9c1.5-0.2,2.8-0.9,4.4-0.8c1.4,0.1,2.9,0,4.3,0c1,0,2.1,0.2,3,0
			c1.2-0.3,1.6,1.2,2.7,0.9c1.1-0.3,1.6,0.5,2.1,1.2c0.4,0.5,0.9,0.7,1.5,0.6c0.6-0.1,1.2-0.1,1.7,0c0.4,0,0.9,0.1,1.1,0.3
			c0.7,0.5,1.6,1.1,1.8,1.8s0.6,1.2,0.9,1.8c0.1,0.3-0.1,0.8-0.3,1.1s-0.7,0.8-0.1,0.9c1.3,0.2,1.9,0.9,2.2,2.1
			c0.1,0.4,0.6,0.4,0.9,0.6c2.1,1.3,4.2,2,6.7,1.7c0.4-0.1,0.9,0.1,1.3,0c1.5-0.3,3.2,0.7,4.4-0.8c1.4,0,2.9-0.1,4.3-0.1
			c0.6-1.4,2.2-0.4,3-1.2c0.6-0.6,1.3-0.5,1.9-0.6c1.1-0.1,2.4,0.6,3.3-0.4c0.8-0.9,1.9-0.1,2.7-0.8s2-0.9,2.7-1.9
			c0.1-0.2,0.4-0.3,0.7-0.4c1.1-0.1,2.3,0.4,3.1-0.9c1.3,0,2.6,0,3.9,0c1.2,0,2.3,0,3.5,0c0.1,0,0.3,0,0.4,0c0.1,0,0.2,0.2,0.3,0.3
			c0.7,0.9,1.6,1.5,2.7,1.9c0.1,0,0.1,0.6,0,0.8c-0.2,0.5-1.3,0.7-0.3,1.6c0.7,0.7,0.3,1.9,0.2,2.9c0,0.3-1.4,1.2-1.6,1.2
			c-1.9,0-3.8,0-5.6,0c-0.2,0-0.4-0.4-0.6-0.6c-0.7-0.5-0.6,0.2-0.7,0.5c-0.2,0.3-0.4,1-0.5,1c-1.4-0.3-2,0.8-3,1.3
			c-2,1.1-3.9,2.8-6.4,2.2c-1-0.2-1.4,1.1-2.2,0.9c-1.3-0.3-1.9,1.1-3.1,0.9c-1.1-0.1-2.3-0.1-3.5,0c-0.4,0-0.9,0.1-1.1,0.4
			c-1,1.4-2.3,1.4-3.8,1.3c-2.5-0.1-4.9,0-7.4,0c-1.4-0.1-2.9,0.6-4-0.8c-1,0-2,0-3-0.1c-0.5,0-1.3,0-1.6-0.3
			c-0.6-0.8-1.6-0.4-2.2-1.2c-0.6-0.9-1.4-1.2-2.5-1.2c-0.8,0-1.3-0.8-1.6-1.7c-0.5-1.1-0.8-2.4-1.8-3.1c-0.6-0.5-0.8-1.1-0.7-1.9
			c0.1-0.9-0.6-1.2-1.1-1.7c-0.2-0.2-0.5-0.3-0.8-0.2c-1.3,0.4-1.9-1.1-3.1-0.9c-1.9,0.2-3.8,0.2-5.6,0c-1.2-0.2-1.6,1.1-2.7,1
			c-0.8-0.1-1.7-0.1-2.6,0c-0.2,0-0.4,0.4-0.7,0.5c-2.3,1.2-2.3,1.3-4.7,1.2c-1.2-0.1-1.5,1.3-2.7,1c-0.9-0.3-2.1-0.3-3,0
			c-1,0.3-1.9,1-3.1,0.8c-1-0.1-2,0-3,0C164.6,210.8,163.5,210.8,162.3,210.8z"/>
	</g>
</g>
</svg>
