<?xml version="1.0" encoding="utf-8"?>
<!-- Generator: $$$/GeneralStr/196=Adobe Illustrator 27.6.0, SVG Export Plug-In . SVG Version: 6.00 Build 0)  -->
<svg version="1.1" id="Calque_1" xmlns="http://www.w3.org/2000/svg" xmlns:xlink="http://www.w3.org/1999/xlink" x="0px" y="0px"
	 viewBox="0 0 182 116" style="enable-background:new 0 0 182 116;" xml:space="preserve">
<style type="text/css">
	.st0{fill:#C21146;}
	.st1{fill:#FFFFFF;}
	.st2{fill:#CCCCCC;}
	.st3{opacity:0.2;}
	.st4{fill:none;stroke:#000000;}
</style>
<path class="st0" d="M46.8,1.8h-37c-4.3,0-7.7,3.4-7.7,7.7v33.6c0,4.3,3.5,7.7,7.7,7.7h37c4.3,0,7.7-3.4,7.7-7.7V9.5
	C54.5,5.3,51,1.8,46.8,1.8z"/>
<path class="st1" d="M176.1,7.8H70.4c-1.5,0-2.7,1.2-2.7,2.7v5.4c0,1.5,1.2,2.7,2.7,2.7h105.7c1.5,0,2.7-1.2,2.7-2.7v-5.4
	C178.8,9,177.6,7.8,176.1,7.8z"/>
<path class="st2" d="M134.2,29.7H72.1c-1.9,0-3.6,1.6-3.6,3.7v5.4c0,2,1.6,3.7,3.6,3.7h62.1c1.9,0,3.6-1.6,3.6-3.7v-5.4
	C137.7,31.4,136.2,29.7,134.2,29.7z"/>
<path d="M180.4,10.7L180.4,10.7c0-0.6,0-1,0-1.5c0-0.8-0.3-1.5-0.9-1.9c-0.9-0.9-2-1.2-3.2-1c-0.5,0.1-1,0.1-1.5,0.1h-0.6
	c-0.6,0-1.2,0-1.8,0c-0.5,0-0.9,0-1.4,0c-0.3,0-0.6,0-0.9,0c-0.9,0-1.7,0-2.5,0c-0.2,0-0.5,0-0.7,0c-0.5,0-1,0-1.5,0.1
	c-0.4-0.1-0.8-0.1-1.2-0.1c-0.3,0-0.6,0-0.8,0c-0.6-0.1-1.2-0.1-1.9,0.1c-0.1,0-0.1,0-0.1,0c-0.3-0.2-1.5-0.3-1.9-0.2
	c-0.3,0.1-0.5,0.1-0.7,0.1c-0.2-0.1-0.4-0.1-0.6-0.1c-0.1,0-0.3,0-0.4,0c-0.7-0.2-1.3,0-1.8,0.1c-0.4,0.1-0.6,0.1-0.8,0.1
	c-0.3-0.1-0.6-0.1-0.9-0.1c-0.1,0-0.3,0-0.4,0c-0.1,0-0.2,0-0.3,0c-0.2,0-0.4-0.1-0.6-0.1c-2.5,0-5,0-7.6,0c-0.2,0-0.5,0-0.7,0.1
	c-0.1,0-0.1,0.1-0.2,0.1c-0.4,0.2-0.4,0.2-0.6,0c-0.2-0.2-0.4-0.2-0.6-0.2c-1.2,0-2.4,0-3.5,0.1c-0.1,0-0.2,0-0.2,0
	c-0.1,0-0.1,0-0.2,0c-0.3,0-0.6,0-0.9-0.1h-0.7c-0.2,0-0.5,0-0.7,0c-0.3,0-0.6,0.1-0.8,0s-0.4,0-0.5,0.1c0,0-0.1,0-0.2,0
	c-0.1,0-0.2,0-0.2,0c-0.5-0.2-0.9-0.2-1.4-0.2h-0.3c-2.2,0-4.5,0-6.7,0h-0.1c-0.5,0-0.9,0-1.4,0.2c-0.1,0-0.3,0-0.5,0
	c-0.3-0.1-0.6,0-0.8,0c-0.1,0-0.1,0-0.2,0s-0.3-0.1-0.4-0.1c-0.2,0-0.3-0.1-0.5-0.1s-0.3,0-0.3,0.1h-0.1h-0.1
	c-0.4-0.2-0.8-0.2-1.2-0.2h-1c-1,0-1.9,0-2.9,0c-0.2,0-0.4,0-0.5,0c-0.5,0-1-0.1-1.5,0.1C115.1,6,114.6,6,114.2,6
	c-0.1,0-0.2,0-0.4,0c-0.6,0-1.2,0-1.7,0c-0.4,0-0.8,0-1.1,0c-0.1,0-0.2,0-0.3,0c-0.4,0-0.8,0-1.2,0.2c0,0,0,0-0.1,0
	c-0.7-0.2-1.3-0.2-2-0.2c-0.3,0-0.6,0-0.9,0c-0.1,0-0.3,0-0.5,0.1c-0.4,0.2-0.9,0.2-1.4,0.1c-0.2,0-0.4,0-0.5,0
	C103.7,6,103.3,6,103,6c-0.1,0-0.2,0-0.3,0c-0.7,0-1.4,0-2,0c-1,0-2.1,0-3.1-0.1c-0.1,0-0.3,0-0.4,0.1c-0.2,0.1-0.5,0.1-0.8,0.1
	c-0.1,0-0.2,0-0.3,0c-0.5,0-1,0-1.4,0c-0.1,0-0.3,0-0.4,0c-0.4,0-0.7,0-1.1-0.1s-0.7,0-1,0c-0.2,0-0.3,0.1-0.5,0.1
	c-1.2,0-2.5,0-3.7,0h-8.8c-0.3,0-0.7,0-1,0c-2,0-4,0-6,0c-0.1,0-0.2,0-0.3,0c-0.2,0-0.4,0-0.5,0h-0.1C70.9,6,70.4,5.9,70,6
	s-0.7,0.3-0.9,0.4c-0.1,0.1-0.2,0.1-0.3,0.2l-0.2,0.1C68.2,6.9,68,7,67.8,7.1l-0.1,0.1c-0.3,0.2-0.6,0.4-0.7,0.7l-0.1,0.3
	c-0.3,0.5-0.5,1.1-0.5,1.7c0,1.3-0.1,2.7-0.2,4L66.1,15c0,0.5,0,1-0.2,1.5c-0.2,1,0,1.9,0.8,2.7c0.9,0.8,1.8,1.3,3,1.3
	c0,0,0,0,0.1,0c1.6,0,3.2,0,4.9,0c1,0,2,0,3,0c0.2,0,0.4,0,0.6-0.1c0.4,0,0.8,0,1.2,0c0.2,0,0.4,0,0.7,0c0.7,0,1.3,0,2,0h4.9
	c0.6,0,1.1,0,1.7,0c0.5,0,1,0,1.4,0h1.3h3.4c0.8,0,1.5,0,2.3,0c0.4,0,0.8,0,1.2,0c0.5,0,1,0,1.6,0c0.3,0,0.6,0,0.8-0.1
	c0.2,0,0.4-0.1,0.6-0.1c0.9,0,1.7,0,2.6,0h1.1l0,0c0.1,0,0.3,0,0.4,0c0.3,0,0.7,0,1,0c0.5-0.1,1.1-0.1,1.6,0
	c0.6,0.1,1.5,0.1,2.3-0.3c0,0,0.1,0,0.2,0l0.3,0.1c0.5,0.1,1,0.2,1.5,0.3c0.7,0,1.4,0,2.1,0h0.5c0.2,0,0.6,0,0.9-0.1s0.4-0.1,0.6,0
	c0.4,0.2,0.8,0.2,1.2,0.1c0.9-0.2,1.8-0.2,3,0c0.2,0,0.4,0.1,0.6,0c0.7-0.2,1.3-0.2,2-0.1h0.3c0.5,0,1,0.1,1.5,0.1h0.2
	c0.5,0,1,0,1.5-0.1c0.3,0,0.6-0.1,0.9-0.1c1.6,0,3.1,0,4.6,0h0.2c0.5,0,1,0,1.4-0.2c0.8,0.2,1.6,0.2,2.3,0.2c0.5,0,1,0,1.5,0
	c0.3,0,0.6,0,0.9-0.1c0.4-0.1,0.8-0.1,1.2,0c0.2,0,0.3,0,0.4,0c0.1,0,0.3,0,0.4-0.1c0.5-0.1,0.9-0.1,1.3,0.1c0.2,0.1,0.4,0.1,0.6,0
	c0.1,0,0.2,0,0.3-0.1c0.1,0,0.3-0.1,0.4-0.1c0.1,0,0.3,0,0.4,0c0.1,0,0.3,0,0.4,0c0.3,0,0.7,0,1,0s0.6,0,0.9,0h0.1
	c0.1,0,0.2,0,0.3,0c1.2-0.1,2.4-0.1,3.6-0.1h0.7c0.4,0,0.7,0,1.1,0c0.3,0,0.7,0,1,0h0.5c0.6,0,1.2,0,1.7,0c0.2,0,0.3,0,0.5,0
	c0.4,0,0.8,0.1,1.2-0.1c0,0,0.1,0,0.2,0c0.1,0,0.1,0,0.2,0h0.9c0.8,0,1.6,0,2.4,0c0.3,0,0.7-0.1,1.1-0.2c0.3-0.1,0.5-0.1,0.6,0
	c0.5,0.2,1,0.2,1.5,0c0.1,0,0.2,0,0.4,0c0.2,0.1,0.5,0.2,0.8,0.1c0.4-0.1,0.7-0.1,1.1,0c0.2,0,0.4,0,0.7,0l0,0c0,0,0.2,0,0.3,0
	c0.3,0,0.6,0.1,1-0.1c0,0,0.1,0,0.2,0c0.1,0,0.2,0,0.3,0c0.2,0,0.4,0.1,0.6,0.1c0.4,0,0.8,0,1.2,0c0.8,0,1.7,0,2.6-0.2
	c0.2,0,0.4,0,0.7,0s0.6,0.1,1,0c0.4,0.2,0.9,0.2,1.4,0c0.2-0.1,0.4-0.1,0.7-0.1c0.2,0,0.4,0,0.6,0c0.3,0,0.7-0.1,0.9-0.2
	c0.8-0.3,1.3-0.6,1.6-1.1c0.4-0.7,0.8-1.5,0.8-2.5c0-0.2,0-0.3,0-0.5c0-0.4,0-0.8,0-1.1c0.1-0.7,0.2-1.3,0.2-1.9c0-0.3,0-0.6,0-0.8
	L180.4,10.7L180.4,10.7z M69.2,17.3c-0.3-0.6-0.4-1.1-0.2-1.8v-0.1c0-0.1,0.1-0.3,0-0.5c-0.1-0.5-0.1-1,0-1.5c0-0.4,0.1-0.8,0.1-1.2
	c0-0.6,0-1.2,0-1.8c0-0.3,0-0.6,0-1c0-0.1,0-0.2,0.2-0.3c0.4-0.3,0.7-0.4,1-0.5c0.3,0,0.5-0.1,0.8-0.1c0.7-0.1,1.3-0.2,1.9,0
	c0.3,0.1,0.5,0.1,0.8,0.1H74h14c0.4,0,0.7,0,1.1,0c0.9,0,1.8,0,2.7,0c1.2,0.1,2.3,0.1,3.3,0.1c1.6,0,3.2,0,4.7,0h1.5
	c0.1,0,0.2,0,0.3,0c0.2,0,0.4,0,0.5-0.1c0.4-0.1,0.7-0.1,1-0.1c0.6,0.1,1.2,0.1,1.7,0.1c0.2,0,0.4,0,0.6,0c0.5,0,1,0,1.5-0.1
	c0.3,0.1,0.5,0,0.7,0c0.3,0,0.4-0.1,0.6,0l0.1,0.1h0.1c0.2,0,0.4,0,0.5,0c0.4,0,0.9,0,1.4,0c0.3,0,0.5,0,0.7,0s0.4,0.1,0.6,0
	c0.4-0.1,0.7-0.1,1.1,0c0.2,0,0.4,0,0.6,0h0.5c0.4,0,0.9,0,1.3,0s0.7-0.1,1-0.1c0.5-0.1,1-0.1,1.5,0c0.4,0.1,0.8,0.2,1.3,0.1
	c0.2,0,0.5,0,0.7,0c0.5,0,1,0,1.6-0.1c0.1,0,0.1,0,0.2,0c1,0.2,2,0.2,3,0.1c0.4,0,0.8,0,1.2,0h0.1h0.1c0.2-0.1,0.4,0,0.7,0
	c0.2,0,0.4,0.1,0.7,0.1c0.4,0,0.9,0,1.3,0c0.7,0,1.5,0,2.3-0.1c0.3,0.1,0.6,0.1,0.8,0.1c0.1,0,0.2,0,0.4,0c1,0.1,2,0.1,3,0.1h1
	c0.1,0,0.3,0,0.4,0c0.2-0.1,0.4-0.1,0.6,0c0.2,0.1,0.4,0.1,0.6,0h0.2h2.1c2.4,0,4.8,0,7.1,0c1.1,0,2.2,0,3.2,0c1.5,0,3.1,0,4.6,0
	c0.3,0,0.4-0.1,0.6-0.1c0.2-0.1,0.4-0.1,0.5-0.1C156.6,9,157,9,157.6,9c1.5,0,3,0,4.5,0c0.7,0,1.5,0,2.2,0h0.9c0,0,0.1,0,0.2,0
	c0.6,0.1,1.2,0.1,1.8,0c0.3,0,0.7,0,1,0c0.2,0,0.5,0,0.7,0c0.5,0,1,0,1.5,0c0.7,0,1.5,0,2.2,0.1c0.8,0.1,1.5,0.1,2.3-0.1h0.2h0.1
	c0.4,0.1,0.9,0.2,1.5,0c0.1,0,0.2-0.1,0.2-0.1l0,0c0.2,0.1,0.3,0.1,0.3,0.2c0.1,0.3,0.2,0.6,0.2,0.9c0,0.4,0,0.8,0,1.2V12l0,0v0.6
	c-0.1,1-0.1,2-0.2,3c0,0.2-0.1,0.4-0.2,0.6c-0.1,0.3-0.3,0.5-0.7,0.5s-0.8,0.1-1.1,0.1c-0.5,0.1-1,0.1-1.6,0.1
	c-0.3,0-0.5,0.1-0.8,0.2h-0.1c-0.3-0.2-0.7-0.2-0.9-0.2h-0.1c-0.6,0-1.2,0-1.8,0h-1.7c-0.3,0-0.6,0-0.9,0.1c-0.1,0-0.2,0-0.3,0.1
	c-0.3-0.1-0.5-0.1-0.7,0c-0.1,0-0.2,0-0.2,0c-0.7-0.1-1.5-0.2-2.2,0.1c-0.4-0.2-0.7-0.1-1-0.1c-0.1,0-0.2,0-0.3,0
	c-0.2,0-0.3,0-0.5,0.1c-0.4,0.1-0.6,0.1-0.9-0.1c-0.2-0.1-0.5-0.1-0.7-0.1c-0.1,0-0.1,0-0.2,0H160c-2.7,0-5.4,0-8.1,0
	c-0.2,0-0.3,0-0.5,0c-0.3,0-0.6,0-0.8,0c-0.3-0.1-0.6,0-0.8,0.1c-0.3,0.2-0.5,0.1-0.9,0.1c-0.8-0.1-1.5,0-2.2-0.1
	c-0.3-0.1-0.6,0-0.8,0c-0.1,0-0.2,0-0.3,0.1h-0.3c-0.2,0-0.5,0.1-0.7,0.1c-0.1,0-0.3,0-0.4,0c-0.2,0-0.4-0.1-0.6-0.1
	c-0.1,0-0.2,0-0.3,0c-0.3,0-0.4,0.1-0.5-0.1c-0.3-0.2-0.7-0.2-0.9-0.1c-0.5,0.1-1,0.1-1.5,0.1h-7.1c-1,0-2,0-3,0c-0.1,0-0.2,0-0.4,0
	c-0.4,0-0.8,0-1.3,0.1h-0.2c-0.1,0-0.2-0.1-0.4-0.1c-0.6,0-1.3,0-1.9,0h-0.5c-0.9,0-1.7,0-2.6,0c-0.3,0-0.6,0-0.9,0.1h-0.4h-0.1
	c-0.6-0.2-1.2-0.2-1.7-0.2c-0.2,0-0.5,0-0.7,0c-0.4,0-0.9,0-1.3,0c-0.5,0-1,0-1.5,0c-0.3,0-0.5,0-0.8,0.1c-0.3,0-0.5,0.1-0.8,0
	c-0.4-0.1-0.8-0.1-1.2-0.1c-0.2,0-0.4,0-0.5,0c-0.5,0-1.1,0-1.6,0.3c-0.3-0.3-0.6-0.2-0.7-0.1c-0.1,0-0.2,0-0.3-0.1
	c-0.2,0-0.4-0.1-0.7-0.1c-0.2,0-0.4,0.1-0.6,0.2c-0.1,0.1-0.2,0.1-0.3,0.1c-0.3,0.1-0.4,0-0.5,0c-0.4-0.3-0.8-0.4-1.2-0.4h-0.1
	c-0.2,0-0.3,0-0.5,0c-0.4,0-0.8,0-1.2,0c-0.3,0-0.5,0-0.8,0s-0.6,0-0.9,0c-0.6,0.1-1.1,0-1.6,0c-0.5-0.1-1.1-0.1-1.6,0
	c-0.5,0-1,0-1.4,0.1c-0.5,0-0.9,0-1.4,0c-0.7-0.1-1.5-0.1-2.3,0c-1,0.1-2,0.1-3,0.1c-0.4,0-0.8,0-1.3,0c-1,0-2,0-2.9,0h-0.7
	c-0.3,0-0.6,0-1,0.1c-0.3-0.1-0.6-0.1-0.9-0.1h-16h-0.2c-0.1,0-0.2,0-0.3,0C69.2,17.4,69.2,17.4,69.2,17.3z"/>
<path d="M55.7,25.8c-0.1,3.4-0.2,6.8-0.2,10.1c0,1.7-0.1,3.3-0.1,5c0,0.3,0,0.6,0,0.9c0,0.4,0.1,0.7,0,1.1c-0.2,1.1-0.1,2.2-0.5,3.2
	S54,48,53.2,48.8c-0.7,0.7-1.4,1.4-2.2,1.9c-1.1,0.7-2.3,1-3.5,1.1c-0.2,0-0.4,0-0.5,0.1c-0.5,0.2-0.9,0.1-1.4,0
	c-0.2,0-0.4-0.1-0.5-0.1c-0.4,0.1-0.8,0.2-1.2,0c-0.2-0.1-0.5,0.1-0.7,0.1c-0.9,0-1.8,0.1-2.6-0.2c-0.1,0-0.2-0.1-0.2,0
	c-0.8,0.4-1.8-0.1-2.6,0.3c-0.1,0-0.2,0-0.3,0c-0.5-0.2-1-0.1-1.5,0c-1,0-1.9,0-2.9,0c-2.1,0-4.2-0.1-6.3-0.1
	c-0.6,0-1.2,0.1-1.7,0.1c-0.7,0-1.5,0.1-2.2-0.1c-0.6,0.2-1.1,0-1.6-0.1c-0.2-0.1-0.5,0-0.8,0.1c-0.8,0.1-1.5,0.3-2.3,0.2
	c-0.5,0-1,0-1.5,0c-1.3,0-2.6,0-4-0.1c-0.4,0-0.7-0.1-1.1-0.1c-0.3,0-0.6,0.1-1,0.1c-0.7,0.1-1.5,0-2.3,0.1
	c-0.6,0.1-1.1-0.2-1.7-0.5C6.3,51.3,6,51.2,5.7,51c-1.8-1.1-3.1-2.7-3.8-4.7c-0.4-1.1-0.6-2.2-0.5-3.3c0.1-1.8,0.1-3.5,0.1-5.3
	c0-0.3,0-0.6-0.1-0.9c0-0.1-0.1-0.3-0.1-0.4c0.2-0.7,0-1.4,0-2.2c0.1-0.7,0-1.4,0-2.1c0-0.7,0-1.5,0-2.2s0.1-1.4-0.1-2.1
	c0-0.1,0-0.3,0-0.4c0-2.9,0.1-5.7,0.1-8.6c0-0.4-0.1-0.7-0.1-1.1c0-0.6,0-1.2,0-1.8c0-1-0.1-2-0.3-3.1C1,12.6,1,12.3,1,12
	c0-1,0.1-2,0-3c0-1.1,0.4-2.2,1-3.2c0.2-0.4,0.5-0.7,0.6-1.1c0-0.2,0.2-0.4,0.4-0.5c0.7-0.7,1.5-1.3,2.2-1.9c0.6-0.2,1-0.6,1.5-0.9
	C7.5,1,8.3,0.9,9.1,0.7c0.5-0.1,1-0.1,1.5-0.1c1.1,0,2.1,0,3.2,0.1c0.3,0,0.6,0.1,0.9,0.1c0.2,0.1,0.4,0.1,0.6,0
	c0.3-0.1,0.6-0.1,1-0.1c2.5,0.1,5,0.1,7.5,0.2C25.6,1,27.3,1,29,1c0.3,0,0.5,0,0.8,0s0.5,0,0.8,0c0.3,0.1,0.6,0.1,0.9,0
	c0.2-0.1,0.4-0.1,0.6,0c0.3,0.1,0.5,0,0.8,0c0.6-0.1,1.2,0.2,1.7,0c0.9,0.2,1.7,0,2.6,0.1c0.3,0,0.7,0.1,1,0.1c0.2,0,0.4,0,0.5,0
	c0.7,0,1.3-0.1,2,0.1c0.2,0.1,0.4,0.1,0.7,0c1.2-0.2,2.5-0.1,3.7,0c0.6,0,1.2,0,1.7,0.2c0.2,0.1,0.4,0,0.5-0.1
	c0.5-0.1,1-0.1,1.5,0.1c1.2,0.5,2.5,1,3.5,1.8C52.6,3.5,52.8,3.7,53,4c0.7,1,1.6,2,2.2,3.1c0.6,1.2,0.9,2.5,0.9,3.8
	c-0.1,3.6-0.2,7.3-0.3,10.9C55.8,23.1,55.7,24.5,55.7,25.8L55.7,25.8L55.7,25.8z M3.2,41.2L3.2,41.2c0,0.6-0.1,1.2,0,1.8
	c0.2,1.1,0.5,2.1,1,3.1c0.1,0.3,0.3,0.5,0.5,0.7c0.3,0.5,0.6,1,1,1.5c0.1,0.1,0.1,0.2,0.2,0.2c0.6,0.2,1.1,0.6,1.7,1
	C8,49.7,8.4,49.9,8.9,50c0.6,0.1,1.3,0.2,2,0.3c0.3,0,0.6,0.1,0.9,0.2c0.3,0.1,0.5-0.3,0.8-0.3h0.1c0.5,0,1-0.1,1.5,0.1
	c0.2,0.1,0.5,0.1,0.8,0.1c0.5,0,1.1,0.1,1.6-0.2c0.1-0.1,0.3,0,0.4,0c1.4-0.1,2.9,0.2,4.3-0.1c0.1,0,0.1,0,0.2,0
	c0.8,0,1.7,0.1,2.5,0c0.9-0.1,1.7,0.4,2.6,0.1h0.1c0.3,0.2,0.6,0.1,0.9,0c0.4-0.1,0.7-0.1,1,0.1c0.2,0.2,0.4,0.1,0.6,0
	c0.3-0.3,0.7-0.3,1-0.3s0.7,0.1,1,0.1s0.6,0.1,0.9,0C32.6,50,33,50,33.5,50c2,0,4,0.2,5.9,0c0.3,0.3,0.7-0.2,1,0.2
	c0,0,0.2,0.1,0.3,0c0.4-0.4,0.8-0.3,1.3-0.3c0.8,0,1.5,0.1,2.3-0.1c0.1,0,0.2,0,0.2,0c0.7,0.2,1.3,0,2,0s1.4-0.2,2-0.4
	c0.4-0.2,0.9-0.3,1.3-0.5c0.5-0.2,1-0.4,1.4-0.7c1.6-1.3,2.1-3.1,2.1-5.1c0-0.4,0-0.8,0-1.2c0-1,0-1.9,0-2.9s0-1.9,0.1-2.9
	c0-1,0-2,0.1-3c0.1-0.9-0.2-1.9,0-2.8c0-0.1,0-0.2,0-0.3c-0.1-0.3-0.1-0.6,0-1c0.1-0.3-0.1-0.6,0.1-1c0.1-0.2,0.1-0.4,0-0.5
	c-0.1-0.5-0.1-0.9,0-1.4s-0.1-0.9,0-1.4c0-2.9,0.1-5.7,0.2-8.6c0-0.3,0-0.6,0-0.9c-0.1-0.4,0-0.7,0-1.1c0.1-1.5,0.1-3-0.4-4.4
	c0-0.1,0-0.3-0.1-0.4c-0.1-1.8-1.2-3.1-2.3-4.4c-0.1-0.1-0.2-0.1-0.3-0.2c-1-0.9-2.3-1.1-3.5-1.4c-0.4-0.1-0.7-0.1-1.1-0.1
	c-0.4,0-0.8,0.1-1.2,0.1s-0.9-0.1-1.2,0c-0.4,0.2-0.8-0.1-1.2-0.1c-0.6,0-1.2-0.1-1.8,0c-0.4,0.1-0.9,0.1-1.3,0.1
	c-0.5,0-0.9-0.1-1.4-0.1c-0.4-0.1-0.9,0.1-1.4,0.1c-0.4,0-0.9-0.1-1.3-0.1c-0.5,0-0.9,0-1.4-0.1c-0.2-0.1-0.4,0-0.6,0.1
	c-0.4,0-0.7,0.1-1.1,0c-0.5,0-1.1-0.1-1.6-0.2c-0.4-0.1-0.7,0.1-1.1,0.1S28.8,2.9,28.4,3c-0.7,0.1-1.3,0.1-2,0.1
	C25.3,3.1,24.1,3,23,3c-1.2,0-2.3-0.2-3.5,0c-0.1,0-0.1,0-0.2,0c-0.5-0.1-0.9-0.2-1.4-0.3c-0.2,0-0.4,0-0.6,0
	C16.5,3.1,15.8,3,15.1,3c-0.1,0-0.3,0-0.3-0.1c-0.2-0.3-0.3-0.1-0.5,0c-0.4,0.2-0.9,0.2-1.3,0c-0.3-0.1-0.6-0.1-0.9,0
	C11.8,3,11.4,3,11,3.1c-0.8-0.3-1.5,0-2.2,0.2c-0.5,0-0.9,0.1-1.3,0.2C7,3.7,6.6,3.8,6.3,4.2C6.1,4.4,5.9,4.6,5.7,4.7
	C5.3,4.9,5,5.2,4.8,5.5C4.7,5.7,4.6,5.8,4.5,6C3.8,6.7,3.4,7.6,3.1,8.6C3,9,2.8,9.4,3,9.8c0.1,0.2,0,0.4,0,0.7c0,0.7,0,1.4,0,2.1
	c-0.1,0.7,0.3,1.4,0,2.2c0.2,1.3,0,2.6,0,4c0,0.4-0.1,0.9,0,1.3c0.2,0.8,0.1,1.6,0.1,2.4c0,2.6-0.2,5.1,0,7.7
	c-0.1,1.5,0.1,2.9-0.2,4.4c0,0.1,0,0.2,0,0.3c0,0.3,0.1,0.6,0.1,0.9c-0.2,1.2,0.3,2.4,0,3.6v0.1C3.2,40,3.2,40.6,3.2,41.2L3.2,41.2z
	"/>
<path d="M55.7,25.8c-0.1,3.4-0.2,6.8-0.2,10.1c0,1.7-0.1,3.3-0.1,5c0,0.3,0,0.6,0,0.9c0,0.4,0.1,0.7,0,1.1c-0.2,1.1-0.1,2.2-0.5,3.2
	S54,48,53.2,48.8c-0.7,0.7-1.4,1.4-2.2,1.9c-1.1,0.7-2.3,1-3.5,1.1c-0.2,0-0.4,0-0.5,0.1c-0.5,0.2-0.9,0.1-1.4,0
	c-0.2,0-0.4-0.1-0.5-0.1c-0.4,0.1-0.8,0.2-1.2,0c-0.2-0.1-0.5,0.1-0.7,0.1c-0.9,0-1.8,0.1-2.6-0.2c-0.1,0-0.2-0.1-0.2,0
	c-0.8,0.4-1.8-0.1-2.6,0.3c-0.1,0-0.2,0-0.3,0c-0.5-0.2-1-0.1-1.5,0c-1,0-1.9,0-2.9,0c-2.1,0-4.2-0.1-6.3-0.1
	c-0.6,0-1.2,0.1-1.7,0.1c-0.7,0-1.5,0.1-2.2-0.1c-0.6,0.2-1.1,0-1.6-0.1c-0.2-0.1-0.5,0-0.8,0.1c-0.8,0.1-1.5,0.3-2.3,0.2
	c-0.5,0-1,0-1.5,0c-1.3,0-2.6,0-4-0.1c-0.4,0-0.7-0.1-1.1-0.1c-0.3,0-0.6,0.1-1,0.1c-0.7,0.1-1.5,0-2.3,0.1
	c-0.6,0.1-1.1-0.2-1.7-0.5C6.3,51.3,6,51.2,5.7,51c-1.8-1.1-3.1-2.7-3.8-4.7c-0.4-1.1-0.6-2.2-0.5-3.3c0.1-1.8,0.1-3.5,0.1-5.3
	c0-0.3,0-0.6-0.1-0.9c0-0.1-0.1-0.3-0.1-0.4c0.2-0.7,0-1.4,0-2.2c0.1-0.7,0-1.4,0-2.1c0-0.7,0-1.5,0-2.2s0.1-1.4-0.1-2.1
	c0-0.1,0-0.3,0-0.4c0-2.9,0.1-5.7,0.1-8.6c0-0.4-0.1-0.7-0.1-1.1c0-0.6,0-1.2,0-1.8c0-1-0.1-2-0.3-3.1C1,12.6,1,12.3,1,12
	c0-1,0.1-2,0-3c0-1.1,0.4-2.2,1-3.2c0.2-0.4,0.5-0.7,0.6-1.1c0-0.2,0.2-0.4,0.4-0.5c0.7-0.7,1.5-1.3,2.2-1.9c0.6-0.2,1-0.6,1.5-0.9
	C7.5,1,8.3,0.9,9.1,0.7c0.5-0.1,1-0.1,1.5-0.1c1.1,0,2.1,0,3.2,0.1c0.3,0,0.6,0.1,0.9,0.1c0.2,0.1,0.4,0.1,0.6,0
	c0.3-0.1,0.6-0.1,1-0.1c2.5,0.1,5,0.1,7.5,0.2C25.6,1,27.3,1,29,1c0.3,0,0.5,0,0.8,0s0.5,0,0.8,0c0.3,0.1,0.6,0.1,0.9,0
	c0.2-0.1,0.4-0.1,0.6,0c0.3,0.1,0.5,0,0.8,0c0.6-0.1,1.2,0.2,1.7,0c0.9,0.2,1.7,0,2.6,0.1c0.3,0,0.7,0.1,1,0.1c0.2,0,0.4,0,0.5,0
	c0.7,0,1.3-0.1,2,0.1c0.2,0.1,0.4,0.1,0.7,0c1.2-0.2,2.5-0.1,3.7,0c0.6,0,1.2,0,1.7,0.2c0.2,0.1,0.4,0,0.5-0.1
	c0.5-0.1,1-0.1,1.5,0.1c1.2,0.5,2.5,1,3.5,1.8C52.6,3.5,52.8,3.7,53,4c0.7,1,1.6,2,2.2,3.1c0.6,1.2,0.9,2.5,0.9,3.8
	c-0.1,3.6-0.2,7.3-0.3,10.9C55.8,23.1,55.7,24.5,55.7,25.8L55.7,25.8L55.7,25.8z M3.2,41.2L3.2,41.2c0,0.6-0.1,1.2,0,1.8
	c0.2,1.1,0.5,2.1,1,3.1c0.1,0.3,0.3,0.5,0.5,0.7c0.3,0.5,0.6,1,1,1.5c0.1,0.1,0.1,0.2,0.2,0.2c0.6,0.2,1.1,0.6,1.7,1
	C8,49.7,8.4,49.9,8.9,50c0.6,0.1,1.3,0.2,2,0.3c0.3,0,0.6,0.1,0.9,0.2c0.3,0.1,0.5-0.3,0.8-0.3h0.1c0.5,0,1-0.1,1.5,0.1
	c0.2,0.1,0.5,0.1,0.8,0.1c0.5,0,1.1,0.1,1.6-0.2c0.1-0.1,0.3,0,0.4,0c1.4-0.1,2.9,0.2,4.3-0.1c0.1,0,0.1,0,0.2,0
	c0.8,0,1.7,0.1,2.5,0c0.9-0.1,1.7,0.4,2.6,0.1h0.1c0.3,0.2,0.6,0.1,0.9,0c0.4-0.1,0.7-0.1,1,0.1c0.2,0.2,0.4,0.1,0.6,0
	c0.3-0.3,0.7-0.3,1-0.3s0.7,0.1,1,0.1s0.6,0.1,0.9,0C32.6,50,33,50,33.5,50c2,0,4,0.2,5.9,0c0.3,0.3,0.7-0.2,1,0.2
	c0,0,0.2,0.1,0.3,0c0.4-0.4,0.8-0.3,1.3-0.3c0.8,0,1.5,0.1,2.3-0.1c0.1,0,0.2,0,0.2,0c0.7,0.2,1.3,0,2,0s1.4-0.2,2-0.4
	c0.4-0.2,0.9-0.3,1.3-0.5c0.5-0.2,1-0.4,1.4-0.7c1.6-1.3,2.1-3.1,2.1-5.1c0-0.4,0-0.8,0-1.2c0-1,0-1.9,0-2.9s0-1.9,0.1-2.9
	c0-1,0-2,0.1-3c0.1-0.9-0.2-1.9,0-2.8c0-0.1,0-0.2,0-0.3c-0.1-0.3-0.1-0.6,0-1c0.1-0.3-0.1-0.6,0.1-1c0.1-0.2,0.1-0.4,0-0.5
	c-0.1-0.5-0.1-0.9,0-1.4s-0.1-0.9,0-1.4c0-2.9,0.1-5.7,0.2-8.6c0-0.3,0-0.6,0-0.9c-0.1-0.4,0-0.7,0-1.1c0.1-1.5,0.1-3-0.4-4.4
	c0-0.1,0-0.3-0.1-0.4c-0.1-1.8-1.2-3.1-2.3-4.4c-0.1-0.1-0.2-0.1-0.3-0.2c-1-0.9-2.3-1.1-3.5-1.4c-0.4-0.1-0.7-0.1-1.1-0.1
	c-0.4,0-0.8,0.1-1.2,0.1s-0.9-0.1-1.2,0c-0.4,0.2-0.8-0.1-1.2-0.1c-0.6,0-1.2-0.1-1.8,0c-0.4,0.1-0.9,0.1-1.3,0.1
	c-0.5,0-0.9-0.1-1.4-0.1c-0.4-0.1-0.9,0.1-1.4,0.1c-0.4,0-0.9-0.1-1.3-0.1c-0.5,0-0.9,0-1.4-0.1c-0.2-0.1-0.4,0-0.6,0.1
	c-0.4,0-0.7,0.1-1.1,0c-0.5,0-1.1-0.1-1.6-0.2c-0.4-0.1-0.7,0.1-1.1,0.1S28.8,2.9,28.4,3c-0.7,0.1-1.3,0.1-2,0.1
	C25.3,3.1,24.1,3,23,3c-1.2,0-2.3-0.2-3.5,0c-0.1,0-0.1,0-0.2,0c-0.5-0.1-0.9-0.2-1.4-0.3c-0.2,0-0.4,0-0.6,0
	C16.5,3.1,15.8,3,15.1,3c-0.1,0-0.3,0-0.3-0.1c-0.2-0.3-0.3-0.1-0.5,0c-0.4,0.2-0.9,0.2-1.3,0c-0.3-0.1-0.6-0.1-0.9,0
	C11.8,3,11.4,3,11,3.1c-0.8-0.3-1.5,0-2.2,0.2c-0.5,0-0.9,0.1-1.3,0.2C7,3.7,6.6,3.8,6.3,4.2C6.1,4.4,5.9,4.6,5.7,4.7
	C5.3,4.9,5,5.2,4.8,5.5C4.7,5.7,4.6,5.8,4.5,6C3.8,6.7,3.4,7.6,3.1,8.6C3,9,2.8,9.4,3,9.8c0.1,0.2,0,0.4,0,0.7c0,0.7,0,1.4,0,2.1
	c-0.1,0.7,0.3,1.4,0,2.2c0.2,1.3,0,2.6,0,4c0,0.4-0.1,0.9,0,1.3c0.2,0.8,0.1,1.6,0.1,2.4c0,2.6-0.2,5.1,0,7.7
	c-0.1,1.5,0.1,2.9-0.2,4.4c0,0.1,0,0.2,0,0.3c0,0.3,0.1,0.6,0.1,0.9c-0.2,1.2,0.3,2.4,0,3.6v0.1C3.2,40,3.2,40.6,3.2,41.2L3.2,41.2z
	"/>
<g class="st3">
	<path class="st4" d="M55.7,25.8c-0.1,3.4-0.2,6.8-0.2,10.1c0,1.7-0.1,3.3-0.1,5c0,0.3,0,0.6,0,0.9c0,0.4,0.1,0.7,0,1.1
		c-0.2,1.1-0.1,2.2-0.5,3.2S54,48,53.2,48.8c-0.7,0.7-1.4,1.4-2.2,1.9c-1.1,0.7-2.3,1-3.5,1.1c-0.2,0-0.4,0-0.5,0.1
		c-0.5,0.2-0.9,0.1-1.4,0c-0.2,0-0.4-0.1-0.5-0.1c-0.4,0.1-0.8,0.2-1.2,0c-0.2-0.1-0.5,0.1-0.7,0.1c-0.9,0-1.8,0.1-2.6-0.2
		c-0.1,0-0.2-0.1-0.2,0c-0.8,0.4-1.8-0.1-2.6,0.3c-0.1,0-0.2,0-0.3,0c-0.5-0.2-1-0.1-1.5,0c-1,0-1.9,0-2.9,0c-2.1,0-4.2-0.1-6.3-0.1
		c-0.6,0-1.2,0.1-1.7,0.1c-0.7,0-1.5,0.1-2.2-0.1c-0.6,0.2-1.1,0-1.6-0.1c-0.2-0.1-0.5,0-0.8,0.1c-0.8,0.1-1.5,0.3-2.3,0.2
		c-0.5,0-1,0-1.5,0c-1.3,0-2.6,0-4-0.1c-0.4,0-0.7-0.1-1.1-0.1c-0.3,0-0.6,0.1-1,0.1c-0.7,0.1-1.5,0-2.3,0.1
		c-0.6,0.1-1.1-0.2-1.7-0.5C6.3,51.3,6,51.2,5.7,51c-1.8-1.1-3.1-2.7-3.8-4.7c-0.4-1.1-0.6-2.2-0.5-3.3c0.1-1.8,0.1-3.5,0.1-5.3
		c0-0.3,0-0.6-0.1-0.9c0-0.1-0.1-0.3-0.1-0.4c0.2-0.7,0-1.4,0-2.2c0.1-0.7,0-1.4,0-2.1c0-0.7,0-1.5,0-2.2s0.1-1.4-0.1-2.1
		c0-0.1,0-0.3,0-0.4c0-2.9,0.1-5.7,0.1-8.6c0-0.4-0.1-0.7-0.1-1.1c0-0.6,0-1.2,0-1.8c0-1-0.1-2-0.3-3.1C1,12.6,1,12.3,1,12
		c0-1,0.1-2,0-3c0-1.1,0.4-2.2,1-3.2c0.2-0.4,0.5-0.7,0.6-1.1c0-0.2,0.2-0.4,0.4-0.5c0.7-0.7,1.5-1.3,2.2-1.9c0.6-0.2,1-0.6,1.5-0.9
		C7.5,1,8.3,0.9,9.1,0.7c0.5-0.1,1-0.1,1.5-0.1c1.1,0,2.1,0,3.2,0.1c0.3,0,0.6,0.1,0.9,0.1c0.2,0.1,0.4,0.1,0.6,0
		c0.3-0.1,0.6-0.1,1-0.1c2.5,0.1,5,0.1,7.5,0.2C25.6,1,27.3,1,29,1c0.3,0,0.5,0,0.8,0s0.5,0,0.8,0c0.3,0.1,0.6,0.1,0.9,0
		c0.2-0.1,0.4-0.1,0.6,0c0.3,0.1,0.5,0,0.8,0c0.6-0.1,1.2,0.2,1.7,0c0.9,0.2,1.7,0,2.6,0.1c0.3,0,0.7,0.1,1,0.1c0.2,0,0.4,0,0.5,0
		c0.7,0,1.3-0.1,2,0.1c0.2,0.1,0.4,0.1,0.7,0c1.2-0.2,2.5-0.1,3.7,0c0.6,0,1.2,0,1.7,0.2c0.2,0.1,0.4,0,0.5-0.1
		c0.5-0.1,1-0.1,1.5,0.1c1.2,0.5,2.5,1,3.5,1.8C52.6,3.5,52.8,3.7,53,4c0.7,1,1.6,2,2.2,3.1c0.6,1.2,0.9,2.5,0.9,3.8
		c-0.1,3.6-0.2,7.3-0.3,10.9C55.8,23.1,55.7,24.5,55.7,25.8L55.7,25.8L55.7,25.8z M3.2,41.2L3.2,41.2c0,0.6-0.1,1.2,0,1.8
		c0.2,1.1,0.5,2.1,1,3.1c0.1,0.3,0.3,0.5,0.5,0.7c0.3,0.5,0.6,1,1,1.5c0.1,0.1,0.1,0.2,0.2,0.2c0.6,0.2,1.1,0.6,1.7,1
		C8,49.7,8.4,49.9,8.9,50c0.6,0.1,1.3,0.2,2,0.3c0.3,0,0.6,0.1,0.9,0.2c0.3,0.1,0.5-0.3,0.8-0.3h0.1c0.5,0,1-0.1,1.5,0.1
		c0.2,0.1,0.5,0.1,0.8,0.1c0.5,0,1.1,0.1,1.6-0.2c0.1-0.1,0.3,0,0.4,0c1.4-0.1,2.9,0.2,4.3-0.1c0.1,0,0.1,0,0.2,0
		c0.8,0,1.7,0.1,2.5,0c0.9-0.1,1.7,0.4,2.6,0.1h0.1c0.3,0.2,0.6,0.1,0.9,0c0.4-0.1,0.7-0.1,1,0.1c0.2,0.2,0.4,0.1,0.6,0
		c0.3-0.3,0.7-0.3,1-0.3s0.7,0.1,1,0.1s0.6,0.1,0.9,0C32.6,50,33,50,33.5,50c2,0,4,0.2,5.9,0c0.3,0.3,0.7-0.2,1,0.2
		c0,0,0.2,0.1,0.3,0c0.4-0.4,0.8-0.3,1.3-0.3c0.8,0,1.5,0.1,2.3-0.1c0.1,0,0.2,0,0.2,0c0.7,0.2,1.3,0,2,0s1.4-0.2,2-0.4
		c0.4-0.2,0.9-0.3,1.3-0.5c0.5-0.2,1-0.4,1.4-0.7c1.6-1.3,2.1-3.1,2.1-5.1c0-0.4,0-0.8,0-1.2c0-1,0-1.9,0-2.9s0-1.9,0.1-2.9
		c0-1,0-2,0.1-3c0.1-0.9-0.2-1.9,0-2.8c0-0.1,0-0.2,0-0.3c-0.1-0.3-0.1-0.6,0-1c0.1-0.3-0.1-0.6,0.1-1c0.1-0.2,0.1-0.4,0-0.5
		c-0.1-0.5-0.1-0.9,0-1.4s-0.1-0.9,0-1.4c0-2.9,0.1-5.7,0.2-8.6c0-0.3,0-0.6,0-0.9c-0.1-0.4,0-0.7,0-1.1c0.1-1.5,0.1-3-0.4-4.4
		c0-0.1,0-0.3-0.1-0.4c-0.1-1.8-1.2-3.1-2.3-4.4c-0.1-0.1-0.2-0.1-0.3-0.2c-1-0.9-2.3-1.1-3.5-1.4c-0.4-0.1-0.7-0.1-1.1-0.1
		c-0.4,0-0.8,0.1-1.2,0.1s-0.9-0.1-1.2,0c-0.4,0.2-0.8-0.1-1.2-0.1c-0.6,0-1.2-0.1-1.8,0c-0.4,0.1-0.9,0.1-1.3,0.1
		c-0.5,0-0.9-0.1-1.4-0.1c-0.4-0.1-0.9,0.1-1.4,0.1c-0.4,0-0.9-0.1-1.3-0.1c-0.5,0-0.9,0-1.4-0.1c-0.2-0.1-0.4,0-0.6,0.1
		c-0.4,0-0.7,0.1-1.1,0c-0.5,0-1.1-0.1-1.6-0.2c-0.4-0.1-0.7,0.1-1.1,0.1S28.8,2.9,28.4,3c-0.7,0.1-1.3,0.1-2,0.1
		C25.3,3.1,24.1,3,23,3c-1.2,0-2.3-0.2-3.5,0c-0.1,0-0.1,0-0.2,0c-0.5-0.1-0.9-0.2-1.4-0.3c-0.2,0-0.4,0-0.6,0
		C16.5,3.1,15.8,3,15.1,3c-0.1,0-0.3,0-0.3-0.1c-0.2-0.3-0.3-0.1-0.5,0c-0.4,0.2-0.9,0.2-1.3,0c-0.3-0.1-0.6-0.1-0.9,0
		C11.8,3,11.4,3,11,3.1c-0.8-0.3-1.5,0-2.2,0.2c-0.5,0-0.9,0.1-1.3,0.2C7,3.7,6.6,3.8,6.3,4.2C6.1,4.4,5.9,4.6,5.7,4.7
		C5.3,4.9,5,5.2,4.8,5.5C4.7,5.7,4.6,5.8,4.5,6C3.8,6.7,3.4,7.6,3.1,8.6C3,9,2.8,9.4,3,9.8c0.1,0.2,0,0.4,0,0.7c0,0.7,0,1.4,0,2.1
		c-0.1,0.7,0.3,1.4,0,2.2c0.2,1.3,0,2.6,0,4c0,0.4-0.1,0.9,0,1.3c0.2,0.8,0.1,1.6,0.1,2.4c0,2.6-0.2,5.1,0,7.7
		c-0.1,1.5,0.1,2.9-0.2,4.4c0,0.1,0,0.2,0,0.3c0,0.3,0.1,0.6,0.1,0.9c-0.2,1.2,0.3,2.4,0,3.6v0.1C3.2,40,3.2,40.6,3.2,41.2L3.2,41.2
		z"/>
</g>
<path d="M138.4,33.7L138.4,33.7c0-0.5,0-0.9-0.1-1.3c0-0.2-0.1-0.4-0.1-0.6c0-0.6-0.3-1.1-0.5-1.5c-0.4-0.7-1.1-1.1-1.9-1.1l0,0H133
	c-0.5,0-1,0-1.4,0c-0.3,0-0.6,0-0.9,0.1c-0.4,0.1-0.8,0.1-1.1,0c-0.2-0.1-0.4,0-0.5,0.1c-0.2,0.1-0.3,0.1-0.6,0h-0.1
	c-0.6-0.1-1.3-0.2-1.9,0.1c-0.3-0.2-0.6-0.2-0.9-0.2c-0.1,0-0.3,0-0.4,0.1c-0.3,0-0.5,0-0.8,0c-0.2,0-0.4-0.1-0.5-0.1
	c-0.2,0-0.4,0-0.6,0.1c-0.1,0-0.3,0-0.4,0.1c-0.1,0-0.2,0-0.3,0c-0.3,0-0.5,0.1-0.7,0c-0.4-0.1-0.9-0.1-1.3-0.1c-0.8,0-1.6,0-2.5,0
	h-1.5l0,0c-0.4,0-0.8,0.1-1.1,0.2c-0.1,0-0.2,0-0.3-0.1c-0.2-0.1-0.4-0.1-0.6-0.1c-0.5,0-0.9,0-1.4,0c-0.6,0-1.1,0-1.7,0
	c-0.1,0-0.2,0-0.3,0c-0.4,0-0.7,0-1.1,0.2c-0.4-0.2-0.8-0.2-1.2-0.2h-0.3c-1.2,0-2.4,0-3.6,0c-0.3,0-0.6,0-1,0.1
	c-0.2,0.1-0.4,0-0.6,0s-0.3,0-0.5,0c-0.3-0.2-0.6-0.1-0.7-0.1s-0.2,0-0.2,0c-0.3-0.1-0.7-0.1-1-0.1h-0.2c-0.3,0-0.6,0-0.9,0
	c-0.2,0-0.4,0-0.6,0c-0.1,0-0.3,0-0.4,0c-0.3,0-0.7,0-1,0.1c-0.2,0.1-0.4,0-0.6,0s-0.4-0.1-0.7-0.1c-0.3,0-0.5,0-0.8,0
	c-0.4,0-0.9,0-1.3,0.1c-0.3,0.1-0.7,0-1,0s-0.6-0.1-1,0h-0.1c-0.1,0-0.2,0-0.3,0c-0.2,0-0.4,0.1-0.6,0.3c-0.1,0.1-0.1,0.1-0.4,0
	c-0.1,0-0.3-0.1-0.4-0.1c-0.3-0.1-0.7-0.2-1.1-0.2c-1.4,0-2.9,0-4.3,0c-0.9,0-1.7,0-2.6,0c-0.2,0-0.4,0-0.6,0c-0.6,0-1.2,0-1.9,0.1
	c-0.8-0.1-1.7-0.1-2.5-0.1c-0.6,0-1.2,0.1-1.8,0c-0.2,0-0.4,0-0.5,0s-0.1,0-0.2,0h-0.3c-0.2,0-0.4,0.1-0.6,0.1c-0.4,0-0.9,0-1.3,0
	h-3.2c-0.5-0.2-1.2-0.2-1.9,0.6c-0.1,0.1-0.2,0.2-0.3,0.3c-0.1,0.1-0.2,0.2-0.3,0.3c-0.1,0.2-0.4,0.4-0.4,0.7c0,0.2-0.1,0.3-0.1,0.5
	c-0.1,0.4-0.2,0.8-0.2,1.2v1c0,1.9,0,3.6-0.2,5.3l-0.1,0.5h0.1c0,0.2,0,0.3,0,0.4c-0.1,1,0.3,1.9,1.2,2.8c0.4,0.4,0.9,0.6,1.5,0.6
	h0.1c0.4,0,0.8,0,1.2,0h1c0.4,0,0.9,0,1.3,0H73c0.5,0,1,0,1.6-0.1c0.3,0,0.5,0,0.8,0s0.6,0.1,0.9,0c0.5,0,1,0,1.5,0
	c0.3,0,0.5,0,0.8,0h0.2c0.2,0,0.4,0,0.7-0.1c0.4-0.1,0.7-0.1,1.2-0.1h0.2c2,0,3.9,0,5.9,0h2.4h0.2c0.4,0,0.8,0,1.2-0.2
	c0.1-0.1,0.3,0,0.5,0h0.1c0.4,0.1,0.7,0.1,1.1,0c0.3-0.1,0.5-0.1,0.8-0.1h0.3c0.3,0,0.7,0,1.1-0.2c0.1-0.1,0.3-0.1,0.4,0
	c0.5,0.2,1,0.2,1.5,0.2h0.2c0.1,0,0.2,0,0.3,0c0.3,0,0.6,0,0.9-0.1c0.2-0.1,0.4-0.1,0.6,0c0.1,0,0.2,0,0.3,0.1c0.2,0,0.4,0,0.5-0.1
	c0.1,0,0.2,0,0.5,0c0.5,0.1,1.1,0.1,1.6,0c0.4-0.1,0.7-0.1,1,0c1.1,0.1,2.2,0.2,3.4-0.1c0,0,0.1,0,0.2,0h0.6c0.3,0,0.7,0,1,0
	c0.1,0,0.3,0,0.4,0c0.4,0,0.8,0,1.2-0.1c0.2-0.1,0.4,0,0.7,0c0.2,0,0.5,0.1,0.7,0.1c0.3,0,0.6,0,0.9,0c0.2,0,0.3,0,0.5,0
	c0.1,0,0.3,0,0.4,0c0.4,0,0.8,0,1.1-0.1c0.3-0.1,0.5-0.1,0.8,0c0.2,0,0.3,0.1,0.5,0.1c0.1,0,0.3,0,0.4-0.1c0.2-0.1,0.4-0.1,0.7-0.1
	l0,0h0.2c0.9,0,1.8,0,2.7,0h2.4c1.3,0,2.6,0,3.9,0c0.1,0,0.2,0,0.4,0c0.5,0,1,0,1.5-0.2c0,0,0.1,0,0.2,0s0.2,0,0.2,0
	c0.1,0,0.2,0,0.3,0c0.1,0,0.2,0,0.2,0h0.3c0.1,0,0.3,0,0.4,0c0.1,0,0.2,0,0.4,0c0.1,0,0.2,0,0.3,0s0.1,0,0.2,0c0.1,0,0.3,0,0.3,0
	c0.3,0.1,0.7,0.1,1,0.1c0.2,0,0.3,0,0.5,0c0.6,0.1,1.2,0.1,1.8-0.1c0.2-0.1,0.5-0.1,0.8-0.1h0.2c0.3,0,0.6,0,0.8,0c0.3,0,0.7,0,1,0
	c1.3-0.1,2.3-0.9,2.6-2.1c0.2-0.6,0.3-1.4,0.3-2.2c0-0.3,0-0.7,0-1c0-1.1,0-2.1,0.2-3.1C138.4,33.9,138.4,33.8,138.4,33.7z
	 M132.3,39.7c-0.5,0.1-0.8,0.1-1.1,0s-0.6-0.1-0.8,0c-0.4,0.2-0.9,0.2-1.4,0.1c-0.3,0-0.5,0-0.7,0.1c-0.2,0-0.3,0.1-0.4,0
	c-0.5-0.2-1,0-1.3,0.1c-0.7-0.3-1.3-0.3-2-0.2c-0.2,0-0.5,0-0.7,0c-1.1,0-2.2,0-3.3,0h-0.8c-0.4,0-0.9,0-1.4,0.2
	c-0.1,0-0.3,0.1-0.8,0s-0.9-0.1-1.5,0c-0.4,0.1-0.7,0-1.1,0h-0.1c-0.1,0-0.3,0-0.4-0.1c-0.3-0.1-0.7-0.1-1.1,0
	c-0.2,0.1-0.5,0.1-0.9,0c-0.1,0-0.3,0-0.4,0h-1.8c-1.1,0-2.2,0-3.3,0c-0.3,0-0.6,0-0.9,0.1l-0.5,0.1c-0.9-0.2-1.7-0.2-2.5-0.1
	c-0.4,0-0.8,0-1.2,0c-0.2,0-0.4,0-0.6,0c-0.3,0-0.6,0-0.9,0c-0.6-0.1-1.1-0.1-1.6,0c-0.1,0-0.3,0-0.4,0c-0.3,0-0.6,0-0.9,0.1
	c-0.1,0-0.2,0-0.3,0c-0.1,0-0.1,0-0.2,0c-0.5-0.1-1.3-0.2-2,0.2c-0.1,0-0.1,0.1-0.2,0c-0.5-0.1-1.1-0.2-1.7,0.1
	c-0.4-0.2-0.8-0.2-1.2-0.2L80,40.4h-0.1c-0.2,0-0.5,0-0.7,0.2c-0.4-0.3-0.9-0.2-1.3-0.2c-0.1,0-0.2,0-0.2,0h-0.3
	c-0.5,0.1-1,0.1-1.5,0c-0.3-0.1-0.6-0.1-0.8,0c-0.7,0.2-1.5,0.2-2.2,0.1c-0.4,0-0.7,0-1.1,0c-0.7,0-1.4,0-2.1,0H69L68.8,40
	c-0.1-0.6-0.1-1.1-0.2-1.7v-0.1c0-0.2,0-0.4-0.1-0.6c-0.1-0.2-0.1-0.3,0-0.4c0.1-0.2,0-0.4,0-0.6v-0.1c0.2-0.4,0.2-0.8,0.2-1.2
	c0-0.3,0-0.6,0.1-0.9c0.1-0.2,0.1-0.4,0-0.6c0-0.1,0-0.1,0-0.2v-0.1c0.2-0.3,0.3-0.7,0.4-1c0.1-0.2,0.1-0.4,0.2-0.5
	c0.1-0.2,0.1-0.2,0.2-0.2c0.3,0,0.5,0,0.8,0H71h0.3c0.4,0.1,0.9,0.1,1.3,0.1c0.6,0,1.3,0,1.9,0h1.2c4,0,8,0,12,0c3.1,0,6.2,0,9.3,0
	c0.2,0,0.4,0,0.6-0.1c0.1,0,0.2,0,0.4,0h0.2c0.1,0,0.3,0,0.3,0c0.4,0.2,0.8,0.2,1.3,0.2h9.7c3.1,0,6.2,0,9.3,0c0.9,0,1.8,0,2.8,0
	h0.2c0.3,0,0.7,0,1-0.2h0.1c0.4,0.2,0.8,0.2,1.2,0.2h0.1c0.3,0,0.6,0,0.9,0c0.5,0,1,0,1.5,0c0.1,0,0.2,0,0.3,0c0.3,0,0.7,0,1.1-0.1
	c0.2-0.1,0.4-0.1,0.6,0c0.9,0.2,1.8,0.2,2.8,0c0.2-0.1,0.3,0,0.3,0c0.7,0.2,1.3,0.2,1.9,0.2c0.2,0,0.4,0,0.7,0c0.1,0,0.2,0,0.3,0
	c0.6,0.2,0.7,0.6,0.7,0.8c0,0.6,0,1.3-0.1,1.9c0,0.3,0,0.6,0,0.8v0.1c0.1,1.1,0.1,2.2,0.1,3.2c0,0.1-0.1,0.3-0.1,0.5l-0.1,0.2
	c0,0.1-0.1,0.3-0.1,0.3s-0.2,0-0.3,0s-0.1,0-0.2,0c-0.2,0-0.6,0-0.9,0.2C133,39.7,132.6,39.7,132.3,39.7z"/>
<path class="st0" d="M9.3,65.5h38.3c3.8,0,6.9,3.1,6.9,6.9v34.4c0,3.8-3.1,6.9-6.9,6.9H9.3c-3.8,0-6.9-3.1-6.9-6.9V72.4
	C2.3,68.6,5.5,65.5,9.3,65.5z"/>
<path class="st1" d="M70.4,71.4h105.7c0.9,0,1.7,0.9,1.7,1.9v6.2c0,1.1-0.8,1.9-1.7,1.9H70.4c-0.9,0-1.7-0.9-1.7-1.9v-6.2
	C68.7,72.2,69.4,71.4,70.4,71.4z"/>
<path class="st2" d="M134.1,94.1H70c-1.5,0-2.7,1.2-2.7,2.7v5.4c0,1.5,1.2,2.7,2.7,2.7h64.1c1.5,0,2.7-1.2,2.7-2.7v-5.4
	C136.7,95.3,135.5,94.1,134.1,94.1z"/>
<path d="M180.4,73.8c0-0.4,0-0.9,0-1.3c0-0.8-0.3-1.5-0.9-1.9c-0.9-0.9-2-1.2-3.2-1c-0.5,0.1-1,0.1-1.5,0.1h-0.6c-0.6,0-1.2,0-1.8,0
	c-0.5,0-0.9,0-1.4,0c-0.3,0-0.6,0-0.9,0c-0.9,0-1.7,0-2.5,0c-0.2,0-0.5,0-0.7,0c-0.5,0-1,0-1.5,0.1c-0.4-0.1-0.8-0.1-1.2-0.1
	c-0.3,0-0.6,0-0.8,0c-0.6-0.1-1.2-0.1-1.9,0.1c-0.1,0-0.1,0-0.1,0c-0.3-0.2-1.5-0.3-1.9-0.2c-0.3,0.1-0.5,0.1-0.7,0.1
	c-0.2-0.1-0.4-0.1-0.6-0.1c-0.1,0-0.3,0-0.4,0c-0.6-0.2-1.3,0-1.8,0.1c-0.4,0.1-0.6,0.1-0.8,0.1c-0.4-0.1-0.9-0.1-1.3-0.1
	c-0.1,0-0.2,0-0.3,0c-0.2,0-0.4-0.1-0.6-0.1c-2.5,0-5,0-7.6,0c-0.2,0-0.5,0-0.7,0.1c-0.1,0-0.1,0.1-0.2,0.1c-0.4,0.2-0.4,0.2-0.6,0
	c-0.2-0.2-0.4-0.2-0.6-0.2c-1.2,0-2.4,0-3.5,0.1c-0.1,0-0.2,0-0.2,0c-0.1,0-0.1,0-0.2,0c-0.3,0-0.6,0-0.9-0.1h-0.7
	c-0.2,0-0.5,0-0.7,0c-0.3,0-0.6,0.1-0.8,0s-0.4,0-0.5,0.1c0,0-0.1,0-0.2,0c-0.1,0-0.1,0-0.2,0c-0.5-0.2-0.9-0.2-1.4-0.2h-0.3
	c-2.2,0-4.5,0-6.7,0h0c-0.5,0-0.9,0-1.4,0.2c-0.1,0-0.3,0-0.5,0c-0.3-0.1-0.6,0-0.8,0c-0.1,0-0.1,0.1-0.2,0c-0.1,0-0.3-0.1-0.4-0.1
	c-0.2,0-0.3-0.1-0.5-0.1s-0.3,0-0.3,0.1h-0.1h-0.1c-0.4-0.2-0.8-0.2-1.2-0.2h-1.1c-0.9,0-1.9,0-2.8,0c-0.2,0-0.4,0-0.5,0
	c-0.5,0-1-0.1-1.5,0.1c-0.4-0.2-0.9-0.2-1.3-0.2c-0.1,0-0.2,0-0.4,0c-0.6,0-1.2,0-1.8,0c-0.4,0-0.7,0-1.1,0c-0.1,0-0.2,0-0.3,0
	c-0.4,0-0.8,0-1.2,0.2c0,0,0,0-0.1,0c-0.7-0.2-1.3-0.2-2-0.2c-0.3,0-0.6,0-0.9,0c-0.1,0-0.3,0-0.5,0.1c-0.4,0.2-0.9,0.2-1.4,0.1
	c-0.2,0-0.4,0-0.5,0c-0.4-0.2-0.8-0.2-1.1-0.2c-0.1,0-0.2,0-0.3,0c-0.7,0-1.4,0-2,0c-1,0-2.1,0-3.1-0.1c-0.1,0-0.3,0-0.4,0.1
	c-0.2,0.1-0.5,0.1-0.8,0.1c-0.1,0-0.2,0-0.3,0c-0.5,0-1,0-1.4,0c-0.1,0-0.3,0-0.4,0c-0.4,0-0.7,0-1.1-0.1s-0.7,0-1,0
	c-0.2,0-0.3,0.1-0.5,0.1c-1.2,0-2.5,0-3.7,0h-8.8c-0.3,0-0.7,0-1,0c-2,0-4,0-6,0c-0.1,0-0.2,0-0.3,0c-0.2,0-0.4,0-0.5,0h-0.1
	c-0.4-0.1-0.9-0.2-1.3-0.1s-0.7,0.3-0.9,0.4c-0.1,0.1-0.2,0.1-0.3,0.2L68.6,70c-0.2,0.1-0.4,0.2-0.6,0.3l-0.1,0.1
	c-0.3,0.2-0.6,0.4-0.7,0.7l-0.1,0.3c-0.3,0.5-0.5,1.1-0.5,1.7c0,1.3-0.1,2.7-0.2,4l-0.1,1.1c0,0.5,0,1-0.2,1.5c-0.2,1,0,1.9,0.8,2.7
	c0.9,0.8,1.8,1.3,3,1.3c0,0,0,0,0.1,0c1.6,0,3.2,0,4.9,0c0.6,0,1.2,0,1.8,0c0.6,0,1.2,0,1.8-0.1c0.4,0,0.8,0,1.2,0
	c0.2,0,0.4,0,0.7,0c0.7,0,1.4,0,2,0h4.9c0.5,0,1.1,0,1.6,0s1,0,1.4,0h1.3H95c0.7,0,1.5,0,2.2,0c0.4,0,0.8,0,1.2,0c0.5,0,1,0,1.6,0
	c0.3,0,0.6,0,0.9-0.1c0.2,0,0.4-0.1,0.6-0.1c0.9,0,1.7,0,2.6,0h1c0.1,0,0.3,0,0.4,0c0.3,0,0.7,0,1,0c0.5-0.1,1.1-0.1,1.6,0
	c0.6,0.1,1.5,0.2,2.3-0.3c0,0,0.1,0,0.2,0l0.3,0.1c0.5,0.1,1,0.2,1.5,0.3c0.7,0,1.4,0,2.1,0h0.5c0.2,0,0.6,0,0.9-0.1s0.4-0.1,0.6,0
	c0.4,0.2,0.8,0.2,1.2,0.1c0.9-0.2,1.8-0.2,3,0c0.2,0,0.4,0.1,0.6,0c0.7-0.2,1.3-0.2,2-0.1h0.3c0.5,0,1,0.1,1.5,0.1h0.2
	c0.5,0,1,0,1.5-0.1c0.3,0,0.6-0.1,0.9-0.1c1.6-0.1,3.1,0,4.6,0h0.2c0.5,0,1,0,1.4-0.2c0.8,0.2,1.6,0.2,2.3,0.2c0.5,0,1,0,1.5,0
	c0.3,0,0.6,0,0.9-0.1c0.4-0.1,0.8-0.1,1.2,0c0.2,0,0.3,0,0.4,0c0.1,0,0.3,0,0.4-0.1c0.5-0.1,0.9-0.1,1.3,0.1c0.2,0.1,0.4,0.1,0.6,0
	c0.1,0,0.2,0,0.3-0.1c0.1,0,0.3-0.1,0.4-0.1c0.1,0,0.3,0,0.4,0c0.1,0,0.3,0,0.4,0c0.4,0,0.7,0,1.1,0c0.3,0,0.6,0,0.9,0h0.1
	c0.1,0,0.2,0,0.3,0c1.2-0.1,2.4-0.1,3.6-0.1h0.7c0.4,0,0.7,0,1.1,0c0.3,0,0.7,0,1,0h0.5c0.6,0,1.2,0,1.7,0c0.2,0,0.3,0,0.5,0
	c0.4,0,0.8,0.1,1.2-0.1c0,0,0.1,0,0.2,0c0.1,0,0.1,0,0.2,0h0.9c0.8,0,1.6,0,2.4,0c0.3,0,0.7-0.1,1.1-0.2c0.3-0.1,0.5-0.1,0.6,0
	c0.5,0.2,1,0.2,1.5,0c0.1,0,0.2,0,0.4,0c0.2,0.1,0.5,0.2,0.8,0.1c0.4-0.1,0.7-0.1,1.1,0c0.2,0,0.5,0,0.7,0c0,0,0.2,0,0.3,0
	c0.3,0,0.6,0.1,1-0.1c0,0,0.1,0,0.2,0c0.1,0,0.2,0,0.3,0c0.2,0,0.4,0.1,0.6,0.1c0.4,0,0.8,0,1.2,0c0.8,0,1.7,0,2.6-0.2
	c0.2,0,0.4,0,0.7,0s0.7,0.1,1,0c0.4,0.2,0.9,0.2,1.4,0c0.2-0.1,0.4-0.1,0.7-0.1c0.2,0,0.4,0,0.6,0c0.3,0,0.7-0.1,0.9-0.2
	c0.8-0.3,1.3-0.6,1.6-1.1c0.4-0.7,0.8-1.5,0.8-2.5c0-0.2,0-0.3,0-0.5c0-0.4,0-0.8,0-1.1c0.1-0.7,0.2-1.3,0.2-1.9c0-0.3,0-0.6,0-0.8
	L180.4,73.8L180.4,73.8z M69.2,80.6c-0.3-0.6-0.4-1.1-0.2-1.8v-0.1c0-0.1,0.1-0.3,0-0.5c-0.1-0.5-0.1-1,0-1.5c0-0.4,0.1-0.8,0.1-1.2
	c0-0.6,0-1.2,0-1.8c0-0.3,0-0.6,0-1c0-0.1,0-0.2,0.2-0.3c0.4-0.3,0.7-0.4,1-0.5c0.3,0,0.5-0.1,0.8-0.1c0.7-0.1,1.3-0.2,1.9,0
	c0.3,0.1,0.5,0.1,0.8,0.1H74h14c0.4,0,0.7,0,1.1,0c0.9,0,1.8,0,2.8,0c1.2,0.1,2.3,0.1,3.3,0.1c1.5,0,3.1,0,4.6,0h1.6
	c0.1,0,0.2,0,0.3,0c0.2,0,0.4,0,0.5-0.1c0.4-0.1,0.7-0.1,1-0.1c0.5,0.1,1.1,0.1,1.7,0.1c0.2,0,0.4,0,0.6,0c0.5,0,1,0,1.5-0.1
	c0.3,0.1,0.5,0,0.7,0c0.3,0,0.4-0.1,0.6,0l0.1,0.1h0.1c0.2,0,0.4,0,0.5,0c0.4,0,0.9,0,1.4,0c0.3,0,0.5,0,0.7,0s0.4,0.1,0.6,0
	c0.4-0.1,0.7-0.1,1.1,0c0.2,0,0.4,0,0.6,0h0.5c0.4,0,0.9,0,1.3,0s0.7-0.1,1-0.1c0.5-0.1,1-0.1,1.5,0c0.4,0.1,0.8,0.2,1.3,0.1
	c0.2,0,0.5,0,0.7,0c0.5,0,1,0,1.6-0.1c0,0,0.1,0,0.2,0c1,0.2,2,0.2,3,0.1c0.4,0,0.8,0,1.2,0h0.1h0.1c0.2-0.1,0.4,0,0.7,0
	c0.2,0,0.4,0.1,0.7,0.1c0.4,0,0.9,0,1.3,0c0.7,0,1.5,0,2.3-0.1c0.3,0.1,0.6,0.1,0.8,0.1c0.1,0,0.2,0,0.4,0c1,0.1,2,0.1,3,0.1h1
	c0.1,0,0.3,0,0.4,0c0.2-0.1,0.4-0.1,0.6,0c0.2,0.1,0.4,0.1,0.6,0h0.2h2c2.4,0,4.9,0,7.3,0c1.1,0,2.1,0,3.2,0c1.5,0,3.1,0,4.6,0
	c0.3,0,0.4-0.1,0.6-0.1c0.2-0.1,0.4-0.1,0.5-0.1c0.5,0.2,0.9,0.2,1.4,0.2c1.5,0,3,0,4.5,0c0.7,0,1.5,0,2.2,0h0.9c0,0,0.1,0,0.2,0
	c0.6,0.1,1.2,0.1,1.8,0c0.3,0,0.7,0,1,0c0.2,0,0.5,0,0.7,0c0.5,0,1,0,1.5,0c0.7,0,1.5,0,2.2,0.1c0.8,0.1,1.5,0.1,2.3-0.1h0.2h0.1
	c0.4,0.1,0.9,0.2,1.5,0c0.1,0,0.2-0.1,0.2-0.1l0,0c0.2,0.1,0.3,0.1,0.3,0.2c0.1,0.3,0.2,0.6,0.2,0.9c0,0.4,0,0.8,0,1.2v0.8l0,0v0.6
	c-0.1,1-0.1,2-0.2,3c0,0.2-0.1,0.4-0.2,0.6c-0.1,0.3-0.3,0.5-0.7,0.5s-0.8,0.1-1.1,0.1c-0.5,0.1-1,0.1-1.6,0.1
	c-0.3,0-0.5,0.1-0.8,0.2h-0.1c-0.3-0.2-0.7-0.2-0.9-0.2h-0.1c-0.6,0-1.2,0-1.8,0h-1.7c-0.3,0-0.6,0-0.9,0.1c-0.1,0-0.2,0-0.3,0.1
	c-0.3-0.1-0.5-0.1-0.7,0c-0.1,0-0.2,0-0.2,0c-0.7-0.1-1.5-0.2-2.2,0.1c-0.4-0.2-0.7-0.1-1-0.1c-0.1,0-0.2,0-0.3,0
	c-0.2,0-0.3,0-0.5,0.1c-0.4,0.1-0.6,0.1-0.9-0.1c-0.2-0.1-0.5-0.1-0.7-0.1c-0.1,0-0.1,0-0.2,0c-2.9,0-5.7,0-8.6,0
	c-0.2,0-0.3,0-0.5,0c-0.3,0-0.6,0-0.8,0c-0.3-0.1-0.6,0-0.8,0.1c-0.3,0.2-0.5,0.1-0.9,0.1c-0.8-0.1-1.5,0-2.2-0.1
	c-0.3-0.1-0.6,0-0.8,0c-0.1,0-0.2,0-0.3,0.1H145c-0.2,0-0.5,0.1-0.7,0.1c-0.1,0-0.3,0-0.4,0c-0.2,0-0.4-0.1-0.6-0.1
	c-0.1,0-0.2,0-0.3,0c-0.3,0-0.4,0.1-0.5-0.1c-0.3-0.2-0.7-0.2-0.9-0.1c-0.5,0.1-0.9,0.1-1.5,0.1h-0.4c-1.1,0-2.3,0-3.4,0H133
	c-1,0-2,0-3,0c-0.1,0-0.2,0-0.4,0c-0.4,0-0.8,0-1.3,0.1h-0.2c-0.1,0-0.2-0.1-0.4-0.1c-0.6,0-1.3,0-1.9,0h-0.4c-0.9,0-1.8,0-2.7,0
	c-0.3,0-0.6,0-0.9,0.1h-0.4h-0.1c-0.6-0.2-1.2-0.2-1.7-0.2c-0.2,0-0.5,0-0.7,0c-0.4,0-0.9,0-1.3,0c-0.5,0-1,0-1.5,0
	c-0.3,0-0.5,0-0.8,0.1c-0.3,0-0.5,0.1-0.8,0c-0.4-0.1-0.8-0.1-1.2-0.1c-0.2,0-0.4,0-0.5,0c-0.5,0-1.1,0-1.6,0.3
	c-0.3-0.3-0.6-0.2-0.7-0.1c-0.1,0-0.2,0-0.3-0.1c-0.2,0-0.4-0.1-0.7-0.1c-0.2,0-0.4,0.1-0.6,0.2c-0.1,0.1-0.2,0.1-0.3,0.1
	c-0.3,0.1-0.4,0-0.5,0c-0.4-0.3-0.8-0.4-1.2-0.4h-0.1c-0.2,0-0.3,0-0.5,0c-0.4,0-0.8,0-1.2,0c-0.3,0-0.5,0-0.8,0s-0.6,0-0.8,0
	c-0.6,0.1-1.1,0-1.6,0c-0.5-0.1-1.1-0.1-1.6,0c-0.5,0-1,0-1.4,0.1c-0.5,0-0.9,0-1.4,0c-0.7-0.1-1.5-0.1-2.3,0
	c-1.4,0.2-2.8,0.1-4.2,0.1c-1,0-1.9,0-2.9,0h-0.7c-0.3,0-0.6,0-1,0.1c-0.3-0.1-0.6-0.1-0.9-0.1h-16h-0.2c-0.1,0-0.2,0-0.3,0
	C69.3,80.8,69.2,80.8,69.2,80.6z"/>
<path d="M55.8,105.1v-0.3c0-0.2,0-0.4,0-0.5c0-1.7,0-3.3,0.1-5l0.6-25.1c0-1.3-0.3-2.7-0.9-4c-0.4-0.8-1-1.6-1.5-2.3
	c-0.2-0.3-0.5-0.6-0.7-0.9s-0.5-0.5-0.8-0.8c-1-0.8-2.2-1.3-3.6-1.9c-0.5-0.2-1.1-0.2-1.7-0.1c-0.1,0-0.1,0-0.2,0
	c-0.1,0-0.1,0-0.2,0C46.4,64,46,64,45.5,64c-0.2,0-0.3,0-0.5,0h-0.6c-1-0.1-2.1-0.1-3.2,0c-0.2,0-0.3,0-0.5,0
	c-0.7-0.2-1.5-0.1-2.1-0.1c-0.2,0-0.3,0-0.5,0c-0.3,0-0.6-0.1-1-0.1c-0.4-0.1-0.8,0-1.2,0c-0.5,0-0.9,0.1-1.4-0.1h-0.1h-0.1
	c-0.2,0.1-0.5,0-0.8,0s-0.6-0.1-0.9,0c-0.2,0-0.4,0.1-0.6,0c-0.3-0.1-0.6-0.1-0.8,0c-0.2,0.1-0.4,0.1-0.7,0c-0.2-0.1-0.5,0-0.7,0
	h-0.1c-0.1,0-0.2,0-0.4,0c-0.1,0-0.3,0-0.4,0c-1.7,0-3.5,0-5.2-0.1c-1.1,0-2.2-0.1-3.2-0.1c-1.4,0-2.8-0.1-4.3-0.1
	c-0.3,0-0.7,0-1.1,0.1c-0.2,0-0.3,0-0.4,0c-0.3-0.1-0.6-0.1-1-0.2c-1.1,0-2.1-0.1-3.2-0.1c-0.5,0-1,0-1.7,0.1
	C8,63.4,7.1,63.5,6.3,64c-0.2,0.1-0.4,0.2-0.6,0.4c-0.3,0.2-0.6,0.4-0.9,0.5L4.7,65c-0.8,0.6-1.6,1.3-2.3,2
	c-0.2,0.2-0.4,0.4-0.5,0.7c0,0.2-0.2,0.4-0.3,0.6c-0.1,0.1-0.2,0.3-0.2,0.4c-0.5,0.9-1,2.1-1,3.4c0,0.6,0,1.3,0,1.9c0,0.3,0,0.7,0,1
	c0,0.4,0,0.7,0.1,0.9c0.2,1.1,0.3,2,0.3,3c0,0.6,0,1.1,0,1.7v0.1c0,0.2,0,0.3,0,0.5s0,0.4,0,0.6c0,2-0.1,4.1-0.1,6.1v2.5v0.1
	c0,0.1,0,0.3,0,0.4C1.1,91.7,1,92.1,1,92.6c0,0.2,0,0.4,0,0.6c0,0.5,0,1,0,1.4c0,0.3,0,0.5,0,0.8c0,0.2,0,0.5,0,0.7
	c0,0.5,0,0.9,0,1.4c0,0.3,0,0.6,0,0.9c0,0.4,0.1,0.8,0,1.2c-0.1,0.2,0,0.4,0,0.5v0.1v0.2c0,0.2,0,0.4,0,0.6v1.3c0,1.3,0,2.7-0.1,4
	c-0.1,1.2,0.1,2.3,0.6,3.5c0.8,2,2.1,3.6,4,4.9c0.3,0.2,0.6,0.4,1,0.6h0.1c0.4,0.2,0.9,0.5,1.5,0.5c0.1,0,0.2,0,0.3,0
	c0.4-0.1,0.8-0.1,1.2-0.1s0.7,0,1.1,0c0.1,0,0.3,0,0.4-0.1c0.2,0,0.3-0.1,0.5-0.1s0.3,0,0.5,0.1c0.2,0,0.4,0.1,0.6,0.1
	c1.3,0,2.7,0.1,4,0.1H17c0.4,0,0.8,0,1.2,0c0.8,0,1.5-0.1,2.4-0.2h0.1c0.2,0,0.4-0.1,0.5,0h0.1c0.5,0.1,1,0.3,1.6,0.1
	c0.6,0.2,1.2,0.1,1.8,0.1h0.4c0.3,0,0.6,0,0.8-0.1c0.3,0,0.6-0.1,0.9-0.1c1.3,0,2.5,0,3.8,0.1c0.8,0,1.7,0,2.5,0.1c1,0,1.9,0,2.9,0
	c0.2,0,0.3,0,0.5,0c0.3,0,0.6-0.1,0.9,0c0.2,0.1,0.4,0.1,0.6,0c0.3-0.2,0.7-0.1,1.1-0.1c0.5,0,1,0.1,1.4-0.1
	c0.7,0.2,1.3,0.2,1.9,0.2c0.3,0,0.5,0,0.8,0c0.2,0,0.3,0,0.5-0.1c0.1,0,0.1,0,0.1-0.1c0.5,0.2,1,0.1,1.4,0c0.1,0,0.2,0,0.4,0.1
	c0.4,0.1,1,0.2,1.6,0c0.1,0,0.2,0,0.3,0h0.1c1.4-0.1,2.6-0.4,3.7-1.1c0.8-0.5,1.5-1.1,2.3-2c0.7-0.7,1.2-1.6,1.7-2.8
	c0.3-0.7,0.3-1.4,0.4-2c0-0.4,0.1-0.9,0.1-1.3c0.1-0.3,0-0.6,0-0.9C55.8,105.3,55.8,105.2,55.8,105.1z M5.7,111.7l0.3-0.3
	c-0.2-0.3-0.4-0.5-0.5-0.8L5,109.9c-0.2-0.2-0.3-0.5-0.4-0.7c-0.6-1-0.8-2.1-1-3c-0.1-0.4-0.1-0.7-0.1-1.1c0-0.1,0-0.1,0-0.2h0.1
	l-0.1-2.2c0,0,0,0,0-0.1c0.2-0.7,0.1-1.4,0-2c-0.1-0.5-0.1-1.1,0-1.6c0-0.2,0-0.5,0-0.7c0-0.1,0-0.2,0-0.3v-0.1v-0.1
	c0.2-1,0.2-1.9,0.2-2.9c0-0.5,0-1.1,0-1.6c-0.2-1.7-0.1-3.4-0.1-5c0-0.9,0.1-1.8,0-2.7c0-0.2,0-0.4,0-0.6c0-0.6,0-1.2-0.1-1.9
	c0-0.2,0-0.5,0-0.8c0-0.2,0-0.3,0-0.5c0-0.4,0-0.9,0-1.3c0-0.9,0-1.7-0.1-2.6c0.1-0.5,0.1-1,0-1.4c0-0.3-0.1-0.6-0.1-0.8
	c0-0.5,0-1,0-1.5v-0.6c0-0.1,0-0.1,0-0.2c0-0.2,0-0.4-0.1-0.6c-0.1-0.3,0-0.6,0.1-1c0.4-1,0.7-1.8,1.3-2.5C4.7,69.1,4.9,69,5,68.8
	c0.2-0.3,0.4-0.6,0.7-0.7C6,68,6.2,67.8,6.4,67.5C6.7,67.2,7,67.1,7.5,67c0.5,0.1,0.9,0,1.2-0.1h0.1c0.1,0,0.3-0.1,0.4-0.1
	c0.6-0.2,1.1-0.3,1.6-0.1h0.1H11c0.1,0,0.2,0,0.3,0c0.3,0,0.6-0.1,0.8-0.2c0.3-0.1,0.5-0.1,0.7,0c0.6,0.2,1.1,0.2,1.6,0
	c0,0,0,0,0.1,0c0.2,0.2,0.4,0.2,0.5,0.2s0.3,0,0.4,0c0.6,0,1.2,0.1,1.8-0.1c0.1,0,0.3,0,0.5,0c0.3,0.1,0.7,0.1,1,0.2l0.4,0.1
	c0.1,0,0.2,0.1,0.3,0c0.7-0.2,1.4-0.1,2.2-0.1c0.4,0,0.8,0.1,1.2,0.1c0.6,0,1.3,0,1.9,0c0.5,0,1,0,1.5,0h0.3c0.6,0,1.1,0,1.7-0.1
	c0.1,0,0.3,0,0.4,0.1c0.2,0,0.4,0.1,0.6,0.1s0.3,0,0.5-0.1c0.2,0,0.3-0.1,0.5-0.1c0.5,0.1,1.1,0.2,1.6,0.2c0.3,0,0.6,0,0.9,0h0.2
	c0.1,0,0.2,0,0.3,0s0.2,0,0.2,0c0.5,0.2,1,0.2,1.5,0.1c0.3,0,0.6,0,1,0.1h0.3c0.3,0,0.6,0,0.8,0s0.4-0.1,0.6,0h0.2
	c0.4,0.1,0.8,0.1,1.2,0.1s0.9,0,1.4-0.1c0.3-0.1,0.6,0,1,0c0.2,0,0.5,0,0.7,0c0.1,0,0.2,0,0.3,0.1c0.2,0.1,0.6,0.2,1,0
	c0.1-0.1,0.4,0,0.6,0c0.2,0,0.3,0,0.5,0s0.4,0,0.5,0c0.2,0,0.4,0,0.6,0c0.3,0,0.7,0.1,1,0.1h0.1c1.2,0.2,2.3,0.5,3.2,1.2
	c0,0,0.1,0.1,0.2,0.2c1.2,1.4,2.1,2.5,2.2,4.2c0,0.1,0,0.3,0.1,0.5c0.5,1.4,0.5,2.7,0.4,4.3v0.3c0,0.3,0,0.6,0,0.9
	c0,0.2,0,0.4,0,0.6l-0.1,3.3c0,1.8-0.1,3.7-0.1,5.5c0,0.2,0,0.4,0,0.6c0,0.3,0.1,0.5,0,0.7c-0.1,0.6-0.1,1.1,0,1.5
	c0,0.1,0,0.2,0,0.3c-0.1,0.3-0.1,0.6-0.1,0.8c0,0.1,0,0.2,0,0.3c-0.1,0.4-0.1,0.8,0,1.2c0,0.1,0,0.1,0,0.1c0.5,0.5,0.5,1.1,0.6,1.7
	c0,0.4,0.1,0.7,0,1.1c-0.1,0.7-0.1,1.4-0.1,2c0,0.3,0,0.6,0,1v3.3c0,0.8,0,1.6,0,2.4c0,0.2,0,0.4,0,0.7c0,0.2,0,0.4,0,0.5
	c0,2.1-0.6,3.6-2,4.8c-0.3,0.2-0.6,0.4-1,0.5l-0.3,0.1c-0.4,0.2-0.8,0.3-1.3,0.5c-0.6,0.2-1.2,0.4-1.9,0.4c-0.3,0-0.5,0-0.8,0
	c-0.4,0-0.7,0.1-1.1,0c-0.1,0-0.3,0-0.5,0c-0.5,0.2-1,0.2-1.5,0.1c-0.2,0-0.4,0-0.6,0c-0.1,0-0.2,0-0.2,0c-0.3,0-0.8,0-1.2,0.3
	c-0.3-0.2-0.6-0.2-0.8-0.1c-0.1,0-0.2,0-0.2,0l-0.1-0.1h-0.2c-1.2,0.1-2.4,0-3.6,0c-0.8,0-1.5,0-2.3,0h-0.3c-0.4,0-0.8,0-1.2,0.1
	c-0.1,0-0.3,0-0.5,0h-0.2c-0.2,0-0.4,0-0.6-0.1h-0.4c-0.3,0-0.9,0-1.3,0.3c-0.1,0.1-0.1,0-0.1,0c-0.4-0.3-0.9-0.4-1.4-0.2
	c-0.3,0.1-0.4,0.1-0.6,0c-0.1-0.1-0.3-0.1-0.5-0.1c-0.4,0.2-0.9,0.1-1.4,0c-0.4-0.1-0.7-0.1-1.1-0.1c-0.6,0-1.1,0-1.7,0
	c-0.3,0-0.5,0-0.8,0c-0.1,0-0.2,0-0.3,0c-0.8,0.2-1.7,0.1-2.6,0.1c-0.5,0-1.1,0-1.6,0h-0.1c-0.1,0-0.3,0-0.5,0.1
	c-0.3,0.1-0.6,0.1-1,0.1c-0.2,0-0.3,0-0.5,0s-0.4,0-0.6-0.1c-0.4-0.2-0.9-0.2-1.3-0.2c-0.1,0-0.2,0-0.4,0c0,0-0.1,0-0.2,0
	c-0.2,0-0.4,0.2-0.5,0.2l-0.1,0.1l-0.2-0.1c-0.2-0.1-0.4-0.1-0.7-0.1c-0.2,0-0.5-0.1-0.7-0.1c-0.4,0-0.8-0.1-1.2-0.2
	s-0.8-0.3-1.2-0.5c-0.2-0.1-0.3-0.2-0.5-0.3c-0.4-0.2-0.8-0.5-1.2-0.7L5.7,111.7L5.7,111.7z"/>
<path d="M138.3,97L138.3,97c0-0.5,0-0.9-0.1-1.2c0-0.2-0.1-0.4-0.1-0.6l0,0c0-0.6-0.3-1.1-0.5-1.5c-0.4-0.7-1.1-1.1-1.9-1.1l0,0
	h-2.2c-0.2,0-0.4,0-0.6,0c-0.5,0-1,0-1.5,0c-0.3,0-0.6,0-0.9,0.1c-0.4,0.1-0.8,0.1-1.1,0c-0.2-0.1-0.4,0-0.5,0.1
	c-0.2,0.1-0.3,0.1-0.6,0h-0.1c-0.6-0.1-1.3-0.2-1.9,0.1c-0.3-0.2-0.6-0.2-0.8-0.2c-0.1,0-0.3,0-0.4,0.1c-0.3,0-0.5,0-0.8,0
	c-0.2,0-0.3,0-0.5-0.1c-0.2,0-0.4,0-0.6,0.1c-0.1,0-0.3,0-0.4,0.1c-0.1,0-0.2,0-0.3,0c-0.3,0-0.5,0.1-0.7,0
	c-0.4-0.1-0.8-0.1-1.3-0.1c-0.8,0-1.7,0-2.5,0h-1.4l0,0c-0.4,0-0.8,0.1-1.1,0.2c-0.1,0-0.2,0-0.4-0.1c-0.2-0.1-0.4-0.1-0.6-0.1
	c-0.5,0-0.9,0-1.4,0c-0.6,0-1.1,0-1.7,0c-0.1,0-0.2,0-0.3,0c-0.3,0-0.7,0-1.1,0.2c-0.4-0.2-0.8-0.2-1.2-0.2h-0.3c-1.2,0-2.4,0-3.6,0
	c-0.3,0-0.6,0-0.9,0.1c-0.2,0.1-0.4,0-0.6,0s-0.4,0-0.5,0c-0.3-0.2-0.5-0.1-0.7-0.1c-0.1,0-0.2,0-0.2,0c-0.3-0.1-0.7-0.1-1-0.1h-0.2
	c-0.3,0-0.6,0-0.9,0c-0.2,0-0.4,0-0.6,0c-0.1,0-0.3,0-0.4,0c-0.3,0-0.7,0-1,0.1c-0.2,0.1-0.4,0-0.7,0c-0.2,0-0.4-0.1-0.7-0.1
	c-0.3,0-0.5,0-0.8,0c-0.4,0-0.9,0-1.3,0.1c-0.3,0.1-0.7,0-1,0s-0.6-0.1-1,0c0,0-0.1,0-0.2,0s-0.2,0-0.3,0c-0.2,0-0.4,0.1-0.6,0.3
	c-0.1,0.1-0.1,0.1-0.4,0c-0.1,0-0.3-0.1-0.4-0.1c-0.3-0.1-0.7-0.2-1.1-0.2c-1.4,0-2.9,0-4.3,0c-0.9,0-1.7,0-2.6,0
	c-0.2,0-0.4,0-0.6,0c-0.6,0-1.2,0-1.9,0.1c-0.8-0.1-1.7-0.1-2.5-0.1c-0.6,0-1.2,0.1-1.9,0c-0.2,0-0.4,0-0.5,0s-0.1,0-0.2,0h-0.3
	c-0.2,0-0.4,0.1-0.6,0.1c-0.4,0-0.9,0-1.3,0h-3.2c-0.5-0.2-1.2-0.2-1.9,0.6c-0.1,0.1-0.2,0.2-0.3,0.3c-0.1,0.1-0.2,0.2-0.3,0.3
	c-0.2,0.2-0.4,0.4-0.4,0.7c0,0.2-0.1,0.3-0.1,0.5c-0.1,0.4-0.2,0.8-0.2,1.2v1c0,1.9,0,3.6-0.2,5.3l-0.1,0.6h0.1c0,0.1,0,0.2,0,0.4
	c-0.1,1,0.3,1.9,1.2,2.8c0.4,0.4,0.9,0.6,1.5,0.6h0.1c0.4,0,0.8,0,1.2,0h1c0.4,0,0.9,0,1.3,0h0.3c0.5,0,1.1,0,1.6-0.1
	c0.3,0,0.5,0,0.8,0s0.6,0.1,0.9,0c0.5,0,1,0,1.5,0c0.3,0,0.5,0,0.8,0c0.1,0,0.1,0,0.2,0c0.2,0,0.4,0,0.7-0.1
	c0.4-0.1,0.8-0.1,1.2-0.1h0.2c2.1,0,4.1,0,6.2,0h2.1h0.2c0.4,0,0.8,0,1.2-0.2c0.1-0.1,0.3,0,0.6,0H91c0.4,0.1,0.7,0.1,1.1,0
	c0.3-0.1,0.5-0.1,0.8-0.1h0.3c0.4,0,0.7,0,1.1-0.2c0.1-0.1,0.3-0.1,0.5,0c0.5,0.2,1,0.2,1.5,0.2h0.2c0.1,0,0.2,0,0.3,0
	c0.3,0,0.6,0,0.9-0.1c0.2-0.1,0.4-0.1,0.7,0c0.1,0,0.2,0,0.3,0.1c0.2,0,0.3,0,0.5-0.1c0.1-0.1,0.2,0,0.5,0c0.5,0.1,1.1,0.1,1.6,0
	c0.4-0.1,0.7-0.1,1.1,0c1.1,0.1,2.2,0.2,3.4-0.1c0,0,0.1,0,0.2,0h0.6c0.3,0,0.6,0,1,0c0.1,0,0.3,0,0.4,0c0.4,0,0.8,0,1.2-0.1
	c0.2-0.1,0.5,0,0.7,0s0.5,0.1,0.7,0.1c0.3,0,0.6,0,0.9,0c0.2,0,0.3,0,0.5,0c0.1,0,0.3,0,0.4,0c0.4,0,0.8,0,1.1-0.1
	c0.3-0.1,0.5-0.1,0.8,0c0.2,0,0.3,0.1,0.5,0.1c0.1,0,0.3,0,0.4-0.1c0.2-0.1,0.5-0.1,0.7-0.1h0.2c0.9,0,1.8,0,2.7,0h2.3
	c1.3,0,2.7,0,4,0c0.1,0,0.2,0,0.4,0c0.5,0,1,0,1.5-0.2c0,0,0.1,0,0.2,0s0.2,0,0.2,0c0.1,0,0.2,0,0.3,0c0.1,0,0.2,0,0.2,0h0.2
	c0.1,0,0.3,0,0.4,0c0.1,0,0.2,0,0.4,0c0.1,0,0.2,0,0.3,0s0.1,0,0.2,0c0.1,0,0.3,0,0.3,0c0.3,0.1,0.7,0.1,0.9,0.1s0.3,0,0.5,0
	c0.6,0.1,1.2,0.1,1.8-0.1c0.2-0.1,0.5-0.1,0.8-0.1h0.2c0.3,0,0.6,0,0.8,0c0.3,0,0.7,0,1,0c1.3-0.1,2.2-0.8,2.5-2.1
	c0.2-0.6,0.3-1.4,0.3-2.2c0-0.3,0-0.7,0-1c0-1,0-2.1,0.2-3.1C138.4,97.2,138.3,97.1,138.3,97z M132.3,103.1c-0.5,0.1-0.8,0.1-1.2,0
	c-0.3-0.1-0.6-0.1-0.8,0c-0.4,0.2-0.9,0.2-1.4,0.1c-0.2,0-0.5,0-0.7,0.1c-0.2,0-0.3,0.1-0.5,0c-0.5-0.2-1,0-1.3,0.1
	c-0.7-0.3-1.3-0.2-1.9-0.2c-0.2,0-0.5,0-0.7,0c-1.1,0-2.2,0-3.3,0H120c-0.1,0-0.2,0-0.3,0c-0.4,0-0.9,0-1.3,0.2
	c-0.1,0-0.3,0.1-0.8,0s-0.9-0.1-1.5,0c-0.4,0.1-0.7,0-1.1,0h-0.1c-0.1,0-0.3,0-0.4-0.1c-0.3-0.1-0.7-0.1-1.1,0
	c-0.2,0.1-0.6,0.1-0.9,0c-0.1,0-0.3,0-0.4,0h-1.7c-1.1,0-2.3,0-3.4,0c-0.3,0-0.6,0-0.9,0.1c-0.1,0-0.3,0-0.4,0h-0.1
	c-0.9-0.2-1.7-0.2-2.5-0.1c-0.4,0-0.8,0-1.2,0c-0.2,0-0.4,0-0.6,0c-0.3,0-0.6,0-0.9,0c-0.6-0.1-1.1-0.1-1.5,0c-0.1,0-0.3,0-0.4,0
	c-0.3,0-0.6,0-0.9,0.1c-0.1,0-0.2,0-0.3,0c-0.1,0-0.1,0-0.2,0c-0.5-0.1-1.3-0.2-1.9,0.2c-0.1,0.1-0.1,0.1-0.3,0
	c-0.5-0.1-1.1-0.2-1.7,0.1c-0.4-0.2-0.8-0.2-1.1-0.2c-4,0-7.9,0-11.9,0.1h-0.1c-0.2,0-0.5,0-0.7,0.2c-0.4-0.3-0.9-0.2-1.3-0.2
	c-0.1,0-0.2,0-0.2,0h-0.3c-0.5,0.1-1,0.1-1.5,0c-0.3-0.1-0.6-0.1-0.8,0c-0.7,0.2-1.5,0.2-2.3,0.1c-0.4,0-0.7,0-1.1,0
	c-0.7,0-1.4,0-2.1,0h-0.7l-0.1-0.6c-0.1-0.6-0.1-1.1-0.2-1.7v-0.1c0-0.2,0-0.4-0.1-0.6s-0.1-0.3,0-0.5s0-0.4,0-0.5v-0.1v-0.1
	c0.2-0.4,0.2-0.8,0.2-1.2c0-0.3,0-0.6,0.1-0.9c0.1-0.2,0.1-0.4,0-0.6c0-0.1,0-0.1,0-0.2c0,0,0-0.1,0-0.2c0.2-0.3,0.3-0.7,0.4-1
	c0.1-0.2,0.1-0.4,0.2-0.5c0.1-0.2,0.1-0.2,0.2-0.2c0.3,0,0.5,0,0.8,0h0.3h0.2h0.4c0.4,0.1,0.9,0.1,1.3,0.1c0.6,0,1.3,0,1.9,0h1.7
	c3.8,0,7.6,0,11.4,0c3.1,0,6.2,0,9.3,0c0.2,0,0.4,0,0.6-0.1c0.1,0,0.2,0,0.4,0h0.1c0.1,0,0.3,0,0.3,0c0.4,0.2,0.8,0.2,1.3,0.2h9.7
	c3.1,0,6.2,0,9.3,0c0.9,0,1.8,0,2.8,0h0.2c0.3,0,0.7,0,1-0.2h0.1c0.4,0.2,0.8,0.2,1.2,0.2h0.2c0.3,0,0.6,0,0.9,0c0.5,0,1,0,1.5,0
	c0.1,0,0.2,0,0.3,0c0.3,0,0.7,0,1.1-0.1c0.2-0.1,0.4-0.1,0.6,0c0.9,0.2,1.8,0.2,2.8,0c0.2-0.1,0.3,0,0.3,0c0.6,0.2,1.3,0.2,1.9,0.2
	c0.2,0,0.4,0,0.7,0c0.1,0,0.2,0,0.3,0c0.6,0.2,0.7,0.6,0.7,0.9c0,0.6,0,1.3-0.1,1.9c0,0.3,0,0.6,0,0.8v0.1c0.1,1.1,0.1,2.2,0.1,3.2
	c0,0.1-0.1,0.3-0.1,0.5l-0.1,0.2l0,0c0,0.1-0.1,0.3-0.1,0.3s-0.2,0-0.4,0c-0.1,0-0.1,0-0.2,0c-0.2,0-0.6,0-0.9,0.2
	C133,103,132.6,103.1,132.3,103.1z"/>
</svg>
