<?xml version="1.0" encoding="utf-8"?>
<!-- Generator: $$$/GeneralStr/196=Adobe Illustrator 27.6.0, SVG Export Plug-In . SVG Version: 6.00 Build 0)  -->
<svg version="1.1" id="Calque_1" xmlns="http://www.w3.org/2000/svg" xmlns:xlink="http://www.w3.org/1999/xlink" x="0px" y="0px"
	 viewBox="0 0 400 400" style="enable-background:new 0 0 400 400;" xml:space="preserve">
<style type="text/css">
	.st0{fill:#333333;}
	.themeColor{fill:var(--voxxrin-event-theme-colors-primary-hex);}
	.st2{fill:#B3B3B3;}
</style>
<g>
</g>
<g>
	<g>
		<path class="st0" d="M162.4,193.7l15.8-3l1.3,7C179.5,197.7,163.5,197.7,162.4,193.7L162.4,193.7z"/>
		<path class="st0" d="M187.9,190.1l6.3-0.7l-0.3,8.3h-4.7L187.9,190.1z"/>
		<path class="st0" d="M203,188.9l10.4,1l-2.1,8l-8.5-0.2L203,188.9z"/>
		<path class="st0" d="M222.3,189.7l15.3,3.4c0,0-9.4,3.9-16.3,3.5L222.3,189.7z"/>
		<path class="themeColor" d="M148.8,51.6c0,0,3.3-11.4,6.4-5.8c3.1,5.6,7.1,35.6,7.1,35.6s3.4,22.1,6.4,29.2c3,7.1-0.4,19.9,0,24.9
			c0.4,5,3.6,21.2,3.6,21.2s-1.3,8.7-5.4,16.5c-4.1,7.8-6,24.8-4.3,33.5c0,0-3.2,11.4-6.4,0c-3.3-11.4-2.3-22.9-10.8-41.3
			c-8.5-18.4-1.6-37.4-1.6-37.4s3.9-22.9,1.3-38.3C142.4,74.4,144.3,58,148.8,51.6L148.8,51.6z"/>
		<path class="themeColor" d="M206.5,56.8c0,0,2.9,4.2,5.8,14.2c2.9,10-0.5,29.7,1.5,38.7c2.1,9-1.1,26.8-1.1,26.8s-1.1,10.3,1.8,22.4
			c0,0-2.9,8.3-6.4,14c-3.5,5.7-2.9,8.5-2.9,8.5s-2.9-18.6-2.2-23.8s1.2-24.3-0.1-36.1c-1.4-11.8,1.3-41,1.3-41L206.5,56.8
			L206.5,56.8z"/>
		<path class="themeColor" d="M248.7,46.6l4.3,10.7c0,0,8.4,26.3,8.6,47c0.3,20.8-2.5,37.5,1.6,51.6c0,0-2.1,14.7-9.9,20.2
			c-7.8,5.5-7.4,18.4-7.4,18.4s-7-21.5-5.8-40.2c1.1-18.7-5.8-19-6.7-42.4l6.3-29.7C239.7,82.3,245.7,47.1,248.7,46.6L248.7,46.6z"
			/>
		<path class="st2" d="M239.3,199l0.2,164.3c0,0-41.6,21.2-73.1,5.2C166.3,368.5,213.7,343.5,239.3,199z"/>
		<path d="M264.8,152.5c-0.5-0.2-0.4-0.6-0.4-1c-0.1-0.9-0.3-1.7-0.4-2.6c-0.2-0.9-0.2-1.8-0.5-2.7c-0.4-1.3-0.6-2.6-0.5-4
			c0-0.8,0-1.6,0-2.5c0-0.3,0-0.7-0.1-1c-0.3-0.6-0.2-1.2-0.2-1.8c0-1.6,0-3.3,0-4.9c0-0.5,0-1.1,0.2-1.6c0.1-0.3,0.1-0.8,0.1-1.1
			c-0.2-1.1,0-2.2,0.2-3.3c0.1-0.4,0.2-0.8,0.1-1.1c-0.3-0.7,0-1.4,0.2-2c0.2-0.5,0.3-0.9,0-1.4c-0.2-0.4-0.2-0.8,0-1.3
			c0.1-0.2,0.2-0.5,0.1-0.6c-0.3-0.6,0.2-1.1,0-1.6c-0.2-0.5-0.1-1.1-0.2-1.6c-0.3-1.1,0.2-2.1,0-3.2c0.5-1.3,0.3-2.7,0.1-4
			c-0.1-1.1-0.3-2.2,0-3.2c0.1-0.2,0-0.4-0.1-0.6c0-0.3-0.2-0.7-0.1-1c0.2-1-0.5-2-0.1-3c0-0.1,0-0.2,0-0.3
			c-0.5-0.7-0.5-1.5-0.3-2.3c0.1-0.2,0.1-0.6,0-0.8c-0.4-1-0.2-2.2-0.4-3.2c-0.2-0.8,0.1-1.7-0.4-2.5c-0.1-0.1,0-0.3,0.1-0.5
			c0.2-0.8-0.2-1.6-0.1-2.4c0-0.2,0-0.3-0.1-0.5c-0.3-0.6-0.4-1.2-0.4-1.9c0-0.3-0.1-0.6-0.2-1c0-0.2-0.2-0.5-0.1-0.6
			c0.3-0.6,0.1-1-0.2-1.5c-0.1-0.2-0.1-0.4,0-0.6c0.1-0.4,0.1-0.8-0.2-1.2c-0.5-0.7-0.7-1.6-0.7-2.5c0-0.3-0.1-0.6-0.1-1
			c-0.1-0.7-0.2-1.5-0.2-2.2c0-0.5-0.1-1-0.3-1.4c-0.2-0.3-0.3-0.7-0.4-1.1c-0.1-0.3-0.2-0.5-0.4-0.7c-0.3-0.3-0.5-0.7-0.6-1.1
			c0-0.7-0.3-1.3-0.4-1.9c-0.1-0.3-0.2-0.5-0.2-0.8c0-0.8-0.3-1.6-0.5-2.4c-0.4-1-0.8-2-1.1-3.1c-0.4-1.4-0.7-2.7-1-4.1
			c-0.2-0.7-0.4-1.5-0.8-2.1c-0.2-0.3-0.4-0.7-0.4-1c0-0.8-0.3-1.4-0.6-2c-0.3-0.8-0.6-1.6-0.9-2.4c-0.1-0.3-0.2-0.5-0.2-0.8
			c0.1-1-0.2-1.8-0.9-2.6c-0.2-0.2,0-0.4,0.2-0.5c0.3-0.1,0.5-0.2,0.7-0.4c1-1.6,2.2-3.1,2.7-5c0.1-0.4,0.2-0.8,0.4-1.2
			c0.7-1.2,0.6-2.6,1.1-3.9c0-0.1,0-0.2,0-0.3c-0.4-1.1-0.2-2.2-0.3-3.2c0-0.3,0-0.7-0.1-1c-0.6-2.2-0.7-3-2.3-4.8
			c-0.7-0.9-1.2-2.1-2.5-2.4c-0.1,0-0.2-0.2-0.4-0.3c-0.9-0.7-1.9-1.1-3-1.1c-0.7,0-1.3,0-2,0c-1,0-2,0-2.9,0.3
			c-1,0.3-2,0.5-2.6,1.5c-0.2,0.3-0.5,0.5-1,0.4c-0.4-0.1-0.7,0.1-1,0.5c-0.3,0.4-0.6,1-1,1.3c-1.2,0.8-1.8,1.9-2.1,3.4
			c-0.1,0.5-0.3,1-0.3,1.6c0,0.2-0.1,0.5-0.2,0.6c-0.3,0.2-0.4,0.5-0.2,0.8c0.1,0.3,0.1,0.7,0.1,1.1c0,1,0.1,1.9,0.3,2.9
			c0.2,0.8,0.5,1.6,0.6,2.4c0.1,0.9,0.7,1.5,1,2.2c0.3,0.6,0.6,1.1,1.2,1.5c0.5,0.3,0.6,0.8,0.5,1.3c0,0.3-0.2,0.5-0.2,0.8
			c-0.1,0.6-0.3,1.3-0.2,1.9c0,0.5,0,0.9-0.1,1.4c-0.3,1-0.6,2-0.9,3c-0.1,0.3-0.2,0.6-0.2,0.9c0,1.2-0.1,2.3-0.6,3.4
			c-0.1,0.1-0.1,0.3-0.1,0.5c0,0.5,0.2,1.1-0.2,1.6c-0.4,0.5-0.1,1.2-0.3,1.7c-0.6,1.3-0.4,2.8-0.8,4.1c-0.1,0.4-0.1,0.8-0.2,1.1
			c-0.1,0.4-0.1,0.8,0,1.3c0.1,0.2,0.1,0.5,0,0.6c-0.4,0.5-0.6,1-0.4,1.7c0.1,0.2-0.1,0.5-0.1,0.8c-0.2,0.5-0.6,1-0.6,1.7
			c0,1-0.3,2-0.6,3c-0.2,0.7-0.4,1.4-0.5,2c-0.1,0.7-0.2,1.4-0.2,2.1c0,0.2-0.1,0.4-0.1,0.6c-0.5,1.3-0.6,2.6-0.8,4
			c-0.2,0.8-0.2,1.6-0.5,2.4c-0.1,0.1-0.2,0.4-0.1,0.5c0.4,0.8-0.1,1.5-0.1,2.2c0,0.3,0,0.6-0.1,0.8c-0.6,1-0.6,2.2-0.8,3.3
			c-0.1,0.6-0.4,1.2-0.1,1.9c0.2,0.3-0.1,0.6-0.2,0.9c-0.3,0.5-0.6,1.1-0.7,1.6c-0.2,1.5-0.7,2.8-0.7,4.3c0,0.4-0.2,0.8-0.1,1.3
			c0.1,0.4-0.2,0.8-0.3,1.2c-0.3,1.3-0.3,2.6-0.8,3.8c-0.1,0.2,0,0.5,0,0.8c0,0.4,0,0.9,0,1.3c0,0.3,0,0.6-0.1,0.8
			c-0.4,0.5-0.4,1-0.3,1.5c0.1,0.4,0,0.7-0.1,1.1c-0.5,1-0.8,2.1-0.7,3.3c0,0.4-0.1,0.9-0.2,1.3c-0.1,0.6-0.4,1.3-0.4,1.9
			c0,0.7-0.4,1.4-0.4,2.1c-0.1,0.7-0.2,1.5-0.4,2.2c-0.3,0.8-0.5,1.5-0.5,2.4c-0.1,0.8-0.1,1.7-0.3,2.5c-0.3,1.4-0.6,2.7-0.7,4.2
			c0,0.2,0,0.4-0.1,0.5c-0.3,0.5-0.2,1.1-0.3,1.6c0,0.2,0,0.5-0.1,0.7c-0.3,0.7-0.8,1.3-0.4,2.1c0,0,0,0.1-0.1,0.2
			c-0.6,1.4-0.8,2.8-0.8,4.3c0,0.3-0.1,0.6-0.2,1c-0.3,1.2-0.7,2.3-0.8,3.5c-0.1,1.5-0.8,2.9-0.8,4.5c-0.6,2-0.8,4-1.2,6
			c-0.2,0.8-0.2,1.6-0.4,2.4c-0.5,2.2-0.8,4.4-1.2,6.5c-0.2,1.3-0.6,2.6-0.7,4c-0.7,1.8-0.3,3.9-1.2,5.7c0,0,0,0.1,0,0.2
			c0.4,0.7-0.1,1.2-0.2,1.9c-0.1,0.4-0.1,0.7-0.2,1.1c-0.1,0.3-0.1,0.6-0.2,1c0,0.4,0,0.8-0.1,1.1c-0.5,1.2-0.5,2.4-0.7,3.7
			c-0.1,0.5-0.2,1.1-0.3,1.6c-0.2,0.5-0.6,0.8-1.1,0.6c-1.6-0.5-3.2-0.5-4.9-0.4c-0.5,0-1,0-1.5,0c-0.3,0-0.4-0.2-0.4-0.4
			c0.2-1.1,0.2-2.2,0.3-3.4c0-0.4,0.2-0.6,0.6-0.6c0.8,0,1-0.5,1.2-1.1c0.1-0.3,0.1-0.6,0.1-1c0.1-1.3,0.4-2.5,1-3.6
			c0.2-0.3,0.2-0.6,0.4-0.9c0.2-0.6,0.5-1.2,0.7-1.8c0.4-0.9,0.8-1.8,1.1-2.7c0.2-0.6,0.5-1.1,0.8-1.6c1-1.5,2.1-2.9,2.6-4.7
			c0-0.1,0.2-0.3,0.3-0.4c0.7-0.9,1.2-1.9,1.7-2.9c0.1-0.2,0.2-0.4,0.2-0.6c-0.2-0.6,0.1-1.1,0.1-1.6c-0.1-1,0-2-0.3-3.1
			c-0.3-1.1-0.2-2.3-0.4-3.4c-0.2-1.4-0.5-2.9-0.8-4.3c0-0.3-0.1-0.5-0.1-0.8c-0.1-1.7,0.1-3.4-0.3-5.1c-0.2-0.8,0-1.6,0-2.5
			c0-0.7,0.1-1.3,0.3-1.9c0.3-0.9,0.5-1.9,0.4-2.9c0-0.2,0-0.5,0-0.7c0.4-1,0.5-2.1,0.7-3.2c0.2-1.3,0.6-2.5,0.5-3.9
			c0-0.2,0-0.4,0-0.5c0.5-1,0.1-2.2,0.6-3.2c0-1.5,0.2-2.9,0.3-4.4c0.1-2,0-3.9,0-5.9c0-0.5-0.1-1.1-0.2-1.6
			c-0.3-1.3-0.8-2.5-0.8-3.8c0-0.3-0.2-0.5-0.2-0.8c-0.3-0.8-0.7-3.8-0.7-4.5c0-1,0.1-2-0.3-2.9c-0.1-0.2-0.1-0.5,0-0.8
			c0.1-0.8,0.1-1.6,0.2-2.4c0.1-0.8,0.6-1.7,0.2-2.5c0.3-0.9,0-1.9,0.2-2.8c0.3-1.4,0.3-2.7,0.3-4.1c0-0.7-0.1-1.4,0.3-2.1
			c0-2,0.1-4.1-0.1-6.1c-0.1-1.2-0.5-2.4-0.6-3.7c0-0.2,0-0.4-0.1-0.6c-0.6-2.4-1.2-4.7-2-7c-0.2-0.6-0.4-1.1-0.5-1.7
			c0-0.7-0.2-1.3-0.4-1.9c-0.3-1-0.7-1.9-1.1-2.9c-0.2-0.7-0.6-1.4-0.4-2.2c0.1-0.5,0.1-0.7-0.3-1c-0.2-0.2-0.1-0.4,0.2-0.5
			c0.1-0.3,0.4-0.5,0.2-0.9c-0.1-0.3-0.1-0.6-0.1-0.9c0-0.2,0-0.3,0.1-0.5c0.4-0.6,0.8-1.2,1.3-1.7c1-1,2.1-1.9,2.7-3.3
			c1.1-1.2,1.6-2.7,2.4-4c0.2-0.3,0.3-0.7,0.3-1.1c0.1-2.1-0.1-4.1-0.8-6.1c-0.4-1.1-0.8-2.2-0.9-3.3c-0.1-0.7-0.4-1.3-0.8-1.9
			c-0.2-0.3-0.4-0.5-0.5-0.8c-0.4-0.9-1.2-1.6-2-2.1c-2.1-1.6-4.5-2-7-2.2c-0.4,0-0.7,0.1-1.1,0.2c-1.7,0.2-3.2,1.2-4.7,1.7
			c-0.3,0.1-0.6,0.3-0.8,0.5c-0.7,0.6-1.4,1.2-2.1,1.8c-0.2,0.1-0.4,0.3-0.5,0.4c-1,1.4-1.8,2.8-2.5,4.4c-0.1,0.2-0.2,0.4-0.2,0.6
			c0,1.5-0.4,3.1,0.5,4.5c0.1,0.1,0.1,0.2,0.1,0.3c0.2,1.9,1.1,3.5,1.7,5.3c0.1,0.2,0.1,0.4,0.3,0.6c0.7,0.8,1.4,1.7,2.3,2.3
			c0.2,0.2,0.5,0.2,0.7,0.3c0.3,0.1,0.6,0,0.8,0.2c0.4,0.3-0.1,0.6-0.1,0.9c-0.1,1.3-0.4,2.6-0.4,3.9c0,0.5,0.1,1.1-0.1,1.6
			c-0.3,0.8-0.2,1.6-0.3,2.4c0,0.3-0.1,0.7-0.2,1c-0.2,0.4-0.2,0.8,0,1.3c0.1,0.1,0.1,0.4,0.1,0.5c-0.3,0.7-0.1,1.4-0.3,2.1
			c-0.4,1-0.2,2.1-0.3,3.1c-0.1,0.7,0.5,1.5-0.2,2.1c0,0,0,0.2,0,0.3c0.2,0.4,0.1,0.7,0.1,1.1c0,0.7-0.2,1.3-0.2,1.9
			c0,0.7,0,1.3,0,2c-0.1,1.4,0.2,2.7-0.3,4.1c-0.1,0.2,0.1,0.4,0.1,0.6c0,0.2,0.1,0.3,0.1,0.5c-0.4,0.9-0.2,1.8-0.2,2.8
			c0,0.9,0,1.9-0.1,2.8c-0.1,0.5-0.1,1,0,1.6c0.1,0.6,0.4,1.2-0.2,1.8c-0.2,0.2,0,0.7-0.1,1.1c-0.2,0.9,0.5,1.9-0.2,2.8
			c-0.1,0.1,0,0.3,0.1,0.5c0.3,1.4,0.2,2.7,0,4.1c-0.1,0.7-0.2,1.3-0.2,1.9c0,0.5-0.1,1.1,0,1.6c0.1,0.6-0.3,1.2-0.1,1.8
			c-0.2,0.5,0.1,1.1-0.1,1.6c-0.1,0.5-0.2,0.9,0.1,1.4c0.3,0.6-0.2,1.1-0.2,1.6c0,0.5,0.4,1,0.1,1.6c-0.2,0.4-0.2,0.9-0.1,1.3
			c0.2,0.5,0,0.8,0,1.3c0,0.4,0.3,0.8-0.1,1.2c-0.2,1.3-0.5,2.7-0.4,4.1c0,0.3,0,0.7,0,1c-0.1,0.7-0.5,1.5-0.1,2.2
			c0,0.1,0,0.2,0,0.3c-0.3,0.6-0.2,1.2-0.2,1.8c0,1.4,0,2.8,0,4.3c0,0.4,0,0.8-0.1,1.1c-0.2,0.5-0.2,1.1-0.2,1.6c0,0.6,0,1.2,0,1.8
			c0,0.6,0,1.2,0,1.8c0,0.6-0.3,1.2-0.2,1.7c0.1,0.6-0.1,1.2-0.1,1.7c0,0.8-0.1,1.5,0,2.3c0.1,0.8,0,1.6,0,2.4c0,0.4,0.2,0.8,0,1.3
			c0.3,1.6-0.8,3.1,0,4.7c0,0.1,0,0.2,0,0.3c-0.1,0.5-0.2,0.9-0.3,1.4c-0.1,0.4-0.3,0.8-0.3,1.3c0,0.5,0.1,1,0.1,1.4
			c0,0.2,0.1,0.3,0.1,0.5c-0.4,0.9-0.2,1.9-0.2,2.9c0,0.6,0.1,1.2-0.1,1.8c-0.3,1-0.2,2.1-0.3,3.1c-0.1,2,0.2,3.9-0.3,5.9
			c0,0.2,0,0.3,0,0.5c0,1.8-0.1,3.5,0,5.3c0.1,1.8-0.7,3.5-0.2,5.3c-0.3,1.2-0.1,2.5-0.2,3.8c0,0.3,0,0.6-0.1,0.8
			c-0.2,0.5-0.2,1.1-0.2,1.6c0,0.8,0,1.6,0,2.5c0,0.7-0.3,0.9-0.9,1c-0.7,0-1.4,0-2.1,0.3c-0.4,0.2-1,0.2-1.4-0.1
			c-0.2-0.2-0.1-0.7-0.2-1.1c-0.1-0.3-0.1-0.5-0.2-0.8c-0.1-0.6-0.4-1.2-0.4-1.7c-0.1-1.5-0.5-3-0.8-4.5c-0.4-2.6-1-5.2-1.6-7.8
			c-0.2-1-0.3-1.9-0.5-2.9c-0.4-1.3-0.5-2.7-0.8-4c-0.2-1.3-0.5-2.6-0.8-3.8c-0.4-2-0.8-3.9-1.2-5.9c-0.3-1.4-0.5-2.8-0.8-4.2
			c-0.4-2.1-0.8-4.3-1.2-6.4c-0.3-1.5-0.6-3.1-0.9-4.6c-0.3-1.3-0.5-2.7-0.7-4c-0.2-1.3-0.5-2.6-0.7-3.8c-0.3-1.6-0.7-3.2-0.9-4.8
			c-0.1-0.8-0.2-1.6-0.4-2.4c-0.3-1.4-0.7-2.7-0.9-4.1c-0.3-2-0.7-4-1.1-5.9c-0.5-2.5-1-5.1-1.5-7.7c-0.3-1.9-0.7-3.7-1.1-5.6
			c-0.1-0.4-0.2-0.8-0.3-1.3c-0.1-1-0.2-1.9-0.4-2.9c-0.5-2.1-0.9-4.2-1.3-6.4c-0.1-0.7-0.1-1.5-0.4-2.2c-0.5-1.3-0.4-2.7-0.8-4
			c-0.2-0.6-0.3-1.2-0.3-1.8c-0.1-1.1-0.4-2.1-0.6-3.2c-0.3-1.3-0.5-2.7-0.8-4c-0.2-1.2-0.5-2.5-0.7-3.7c-0.1-0.3-0.2-0.6-0.3-0.9
			c-0.3-1.6-0.7-3.3-1-4.9c-0.1-0.7-0.3-1.4-0.4-2.1c-0.1-0.9-0.3-1.8-0.5-2.7c-0.2-1.1-0.6-2.2-0.7-3.3c-0.3-2.4-1-4.8-1.5-7.2
			c-0.6-3-1.2-6.1-2.1-9c-0.4-1.3-0.3-1.3,0.6-2.2c0.7-0.7,1.5-1.4,1.7-2.5c0-0.1,0.2-0.3,0.3-0.4c0.6-0.5,0.8-1.3,0.9-2
			c0.3-1.4,0.5-2.8,0.8-4.2c0.1-0.5,0.2-1.1-0.1-1.6c-0.2-0.4-0.3-0.8-0.3-1.3c-0.1-1.1-0.3-2.3-0.7-3.3c-0.3-0.7-0.6-1.5-1-2.2
			c-0.5-1-1.3-1.8-1.9-2.7c-0.6-0.9-1.3-1.4-2.1-2c-0.7-0.5-1.3-1-2.1-1.3c-0.9-0.4-1.8-0.8-2.8-1c-0.7-0.2-1.5-0.1-2.3-0.1
			c-0.3,0-0.7,0-1,0c-1.9,0-3.5,0.7-5.1,1.5c-1.4,0.7-2.4,1.9-3.3,3.1c-1.4,1.9-2.4,4-2.4,6.5c0,0.2,0,0.5-0.1,0.6
			c-0.2,0.5-0.2,1-0.2,1.4c0,0.9-0.1,1.9,0.3,2.7c0.2,2,1.1,3.8,2,5.5c0.4,0.8,1,1.6,1.7,2.2c1.1,1,2.4,1.9,3.8,2.4
			c0.4,0.2,0.6,0.4,0.6,0.8c0,1.1,0.2,2.1,0.7,3c0.6,1.1,0.4,2.2-0.1,3.1c-0.7,1.2-1.1,2.6-1.7,3.9c-0.6,1.2-0.9,2.4-1.4,3.7
			c-0.2,0.6-0.2,1.3-0.5,1.9c-0.5,1.1-0.8,2.3-1.1,3.4c-0.4,1.4-0.9,2.8-0.8,4.3c0,0.3-0.1,0.5-0.1,0.8c-0.1,0.4-0.2,0.7-0.2,1.1
			c0,3.3,0,6.6,0,9.9c0,0.3-0.1,0.6,0,0.8c0.4,0.9,0.3,1.8,0.3,2.8c-0.1,1.4,0.5,2.8,0.4,4.2c0.4,0.7,0.3,1.5,0.3,2.3
			c-0.1,1.7,0.3,3.2,0.4,4.9c0.4,0.8,0.2,1.7,0.3,2.6c0.1,2.7-0.2,5.5,0.3,8.2c0.2,1.1,0.1,2.3,0,3.4c-0.1,1.4-0.3,2.9-0.3,4.4
			c0,0.2,0,0.5-0.1,0.6c-0.3,0.7-0.2,1.4-0.2,2.1c0,0.6,0.1,1.3-0.1,1.8c-0.4,1-0.1,2.2-0.6,3.2c0,1.8-0.6,3.4-0.8,5.1
			c-0.2,1.4-0.7,2.9-0.8,4.3c-0.1,0.8-0.3,1.6-0.4,2.4c-0.1,0.9-0.4,1.7-0.5,2.5c-0.2,1.7-0.8,3.4-0.8,5.2c0,0.2,0,0.3,0,0.5
			c-0.4,0.9-0.3,1.9-0.3,2.9c0,1.4,0,2.8,0,4.3c0,0.4-0.1,0.8,0.1,1.1c0.3,0.7,0.2,1.5,0.3,2.3c0,0.4,0,0.9,0.1,1.3
			c0.2,1,0.4,1.9,0.6,2.9c0.4,2.7,1.1,5.3,1.8,7.9c0.2,0.8,0.4,1.6,0.7,2.3c0.7,1.7,1.2,3.5,2,5.2c1,2.1,1.6,4.3,2.6,6.4
			c0.2,0.3,0.3,0.7,0.4,1.1c0.5,1.8,1,3.7,1.6,5.5c0.2,0.8,0.7,1.6,0.8,2.5c0.3,1.6,1.1,3.1,1.1,4.8c0,0.4,0.2,0.7,0.3,1.1
			c0.3,1.2,0.7,2.3,0.9,3.5c0.3,1.4,0.9,2.8,0.7,4.3c0,0.1,0.1,0.2,0.1,0.3c0.2,1,0.4,1.9,0.5,2.9c0,0.9,0.2,1.7,0.4,2.6
			c0.1,0.7,0.2,1.4,0.5,2.1c0.6,1.3,1,2.8,2,3.9c0.4,0.5,0.5,1,0.5,1.7c0,1.6,0,3.3,0,4.9c0,0.6-0.1,1.2,0.2,1.8
			c0.1,0.2,0,0.4,0,0.6c0,0.2-0.1,0.4-0.1,0.6c0.3,1.3,0.2,2.7,0.2,4c0,4.3,0,8.7,0,13c0,0.5-0.1,1,0.1,1.5c0.2,0.6,0.2,1.3,0.2,1.9
			c0,4.1,0,8.2,0,12.3c0,0.5-0.1,1,0.1,1.5c0.3,0.7,0.2,1.4,0.2,2.1c0,2.1,0,4.2,0,6.2c0,0.6,0.3,1.2,0.1,1.8
			c-0.3,1.2,0.3,2.4,0,3.5c0.3,0.6,0.2,1.2,0.2,1.8c0,3.1,0,6.2,0,9.4c0,0.4,0,0.9,0,1.3c0.3,1.7,0.3,3.4,0.3,5.2c0,2.7,0,5.5,0,8.2
			c0,0.4-0.1,0.9,0.1,1.3c0.3,0.6,0.2,1.3,0.2,1.9c0,3.1,0,6.1,0,9.2c0,0.4-0.1,0.9,0.1,1.3c0.3,0.7,0.2,1.4,0.2,2.1
			c0,3.8,0,7.6,0,11.3c0,0.4,0,0.9,0,1.3c0.2,1,0.3,2,0.3,3c0,3,0,6,0,9c0,0.4-0.1,0.9,0.1,1.3c0.2,0.6,0.1,1.2,0.2,1.7
			c0.1,0.6,0.1,1.3,0.1,2c0,1.2,0,2.4,0,3.6c0,1.9-0.1,3.8,0.2,5.7c0,0.2,0,0.4-0.1,0.6c-0.2,1-0.2,1.9,0,2.9c0.1,0.5,0.1,1,0.1,1.5
			c0,2.4,0,4.7,0,7.1c0,1.1-0.2,2.3,0.3,3.4c0.1,0.1,0,0.3,0,0.5c0.1,1.5,0.1,1.5,1,2.6c0.2,0.2,0.5,0.4,0.8,0.6
			c0.2,0.2,0.6,0.2,0.7,0.5c0.3,0.8,1.1,1,1.6,1.6c0.5,0.5,1.1,0.9,1.8,1.2c0.9,0.4,1.9,0.5,2.7,1.2c1.1,0.2,2.2,0.5,3.2,1
			c0.6,0,1.1,0.4,1.7,0.6c0.3,0.1,0.6,0.3,0.9,0.2c0.2-0.1,0.5,0.1,0.8,0.2c0.7,0.2,1.5,0.5,2.2,0.4c0.2,0,0.4,0,0.6,0.1
			c1.4,0.3,2.9,0.6,4.3,0.6c0.3,0,0.7,0,1,0.1c0.5,0.2,0.8,0.4,1.4,0.3c0.5-0.1,0.9,0.2,1.4,0.2c0.4,0.1,0.8,0.1,1.3,0.1
			c0.9-0.1,1.8-0.2,2.6,0c0.8,0.2,1.5,0.2,2.3,0.2c1.4,0,2.8,0,4.3,0c0.5,0,1.1,0.1,1.6,0.1c0.8,0,1.5-0.1,2.3-0.1
			c1.5,0.1,3-0.5,4.5-0.4c0.1,0,0.2-0.1,0.3-0.1c0.4-0.1,0.9-0.1,1.3-0.2c1.1-0.1,2.2-0.2,3.2-0.5c1.3-0.4,2.7-0.6,4-0.8
			c1.7-0.2,3.3-0.8,4.9-1.1c1.1-0.2,2-0.7,3.1-1c1.7-0.4,3.5-0.8,5.2-1.5c0.4-0.1,0.7-0.3,1.1-0.4c0.9-0.3,1.9-0.4,2.8-0.8
			c0.9-0.4,1.8-0.8,2.7-1.1c0.2,0,0.3-0.1,0.4-0.2c1.2-0.9,2.5-1.5,3.8-2.3c0.3-0.2,0.7-0.4,1-0.6c1.1-0.9,1.8-1.6,1.3-3
			c-0.1-0.2,0-0.4,0-0.6c0-0.5,0.2-1,0.2-1.4c0-3.1,0-6.2,0-9.4c0-0.7,0.1-1.3-0.2-1.9c-0.1-0.2-0.1-0.5,0-0.6
			c0.4-0.7-0.1-1.5,0.2-2.2c0.1-0.3,0.1-0.7,0-1c-0.3-0.9-0.1-1.8,0-2.7c0-1,0.1-2-0.2-3.1c-0.2-0.8-0.2-1.6,0.1-2.4
			c0.3-0.9,0.2-1.7,0.1-2.6c-0.3-2-0.4-2.3,0-4.2c0-0.2,0.1-0.4,0-0.5c-0.4-0.7,0-1.4,0-2.1c-0.1-1.7,0.3-3.5-0.2-5.2
			c0-0.2,0.1-0.4,0.1-0.6c0-0.2,0.1-0.4,0.1-0.6c-0.1-0.5-0.3-1.1-0.3-1.6c0-0.6,0.2-1.2,0.3-1.8c0-0.3,0-0.6-0.1-1
			c0-0.2-0.1-0.3-0.1-0.5c0.3-0.9,0.1-1.9,0.1-2.8c0-7.8,0-15.7,0-23.5c0-2-0.1-4,0.1-6.1c0.1-0.8-0.1-1.6-0.1-2.4
			c-0.1-0.8,0.2-1.6,0-2.4c-0.1-0.4,0-0.8,0.1-1.1c0-0.4,0.2-0.8,0.1-1.1c-0.2-0.8,0-1.5,0-2.2c0-0.8,0.1-1.5,0.1-2.3
			c0-3.9,0-7.9,0-11.8c0-7.9,0-15.8,0-23.7c0-6.1,0-12.3,0-18.4c0-0.6-0.2-1.2-0.1-1.8c0.1-0.8,0.2-1.5,0-2.3
			c-0.2-0.8,0.3-1.6,0.1-2.4c0-0.2,0-0.3,0-0.5c-0.3-1-0.4-1.9,0-2.9c0.1-0.2,0.1-0.6,0-0.8c-0.1-0.6-0.3-1.1-0.2-1.8
			c0.1-0.6-0.1-1.3-0.3-1.9c0-0.1,0-0.2,0-0.3c0.3-0.6,0.2-1.2,0-1.9c-0.1-0.4,0-0.8,0.1-1.3c0-0.3,0.1-0.6,0.1-1c0-1.4,0-2.9,0-4.3
			c0-0.8-0.2-1.5-0.3-2.2c0-0.1-0.1-0.3-0.3-0.4c-0.5-0.3-0.8-0.8-1.1-1.1c-0.2-0.1-0.3-0.3-0.5-0.4c-1.7-0.3-3.3-1.1-5.1-1
			c-0.3,0-0.6-0.1-0.9-0.2c-1.4-0.4-2.9-0.4-4.3-1c-0.3-0.2-0.8-0.1-1.1-0.1c-0.5,0-1,0-1.5,0c-0.6,0-0.9-0.4-1.3-0.7
			c-0.3-0.2,0-0.6,0.1-0.9c0-0.4,0.1-0.8,0.2-1.1c0.4-1.3,0.3-2.7,0.7-4c-0.3-0.7,0.1-1.4,0.3-2c0.2-0.6,0.3-1.3,0.4-1.9
			c0.2-0.6,0.4-1.2,0-1.9c0-0.1,0-0.3,0-0.3c0.4-0.3,0.3-0.8,0.4-1.1c0.3-0.8,0.4-1.6,0.6-2.4c0.2-1.1,0.2-2.2,0.6-3.2
			c0.2-0.7,0.4-1.4,0.3-2.1c0-0.6,0-1.2,0.2-1.7c0.4-0.9,0.3-1.8,0.7-2.6c0.1-1.9,0.7-3.8,1-5.7c0.1-0.5,0.4-1,0.3-1.4
			c-0.2-0.8,0.1-1.6,0.1-2.4c0-0.8,0.4-1.7,0.5-2.5c0.1-0.8,0.5-1.7,0.1-2.5c-0.2-0.4,0-0.9,0.3-1.4c0.3-0.5,0.5-1.1,0.6-1.7
			c0.2-1.5,0.4-3,0.7-4.5c0.2-0.9,0.2-1.9,0.5-2.7c0.5-1.6,0.5-3.3,0.8-4.9c0.2-0.8-0.1-1.6,0.3-2.4c0.1-0.1,0.1-0.4,0-0.5
			c-0.3-0.6,0.1-1.1,0.1-1.6c0-0.1,0.1-0.2,0.1-0.3c0,0.1,0.1,0.2,0.1,0.3c0,1.1,0.6,2,0.4,3.1c-0.1,0.3,0.2,0.7,0.2,1.1
			c0,1.8,0.5,3.5,0.9,5.3c0.2,0.9,0.6,1.8,0.7,2.7c0.2,1.4,0.4,2.9,0.7,4.3c0.2,1.2,0.4,2.3,0.7,3.5c0.1,0.3,0.2,0.6,0.2,0.9
			c0,0.3,0,0.6,0,0.9c-0.3,1.3-0.1,2.7-0.2,4.1c0,0.3,0.1,0.6,0.4,0.8c0.2,0.1,0.1,0.3,0,0.4c-0.1,0.1-0.2,0.3-0.2,0.4
			c0.4,1.2,0.1,2.4,0.1,3.6c0,0.8,0,1.5,0,2.3c0,0.8-0.2,1.6,0.1,2.3c0.2,0.8,0,1.5,0,2.2c0,0.1,0,0.2,0,0.3
			c0.4,0.7,0.2,1.4,0.3,2.1c0,0.3-0.1,0.7,0,1c0.3,0.8,0.3,1.6,0.3,2.4c0,0.4,0,0.9,0.4,1.2c0.2,0.2,0.1,0.4-0.1,0.5
			c-0.1,0.1-0.2,0.2-0.1,0.3c0.1,1,0.3,1.9,0.3,2.9c0,0.2,0,0.3,0.1,0.5c0.3,0.6,0.2,1.3,0.3,1.9c0.1,0.7,0.3,1.4,0.3,2.1
			c0,1,0.2,1.8,0.7,2.7c0.2,0.5,0.4,1,0.4,1.6c0,0.2,0,0.5,0.1,0.6c0.6,0.4,0.4,1.1,0.7,1.6c-0.2,0.8,0.1,1.4,0.8,1.7
			c0.1,0.1,0.2,0.3,0.2,0.4c-0.3,0.7,0.2,1.1,0.5,1.6c0.1,0.2,0.3,0.4,0.2,0.6c-0.3,0.9,0.7,1.6,0.2,2.5c0,0.1,0.1,0.3,0.2,0.4
			c0.3,0.6,0.8,0.9,1.5,1.1c0.5,0.1,0.9,0,1.1-0.4c0.2-0.3,0.3-0.7,0.4-1.1c0.1-0.6,0.2-1.3,0.2-1.9c-0.1-0.7,0.4-1.4,0-2.1
			c-0.2-0.3,0-0.7,0.1-1.1c0.2-0.8,0.4-1.6,0.7-2.3c0.1-0.4,0.3-0.8,0.5-1.2c0.5-0.7,0.8-1.5,1.2-2.3c0.1-0.2,0.2-0.5,0.3-0.7
			c1.2-1.9,2.3-3.8,3.6-5.7c0.7-1,1.3-2.1,2.5-2.7c0.3-0.1,0.5-0.4,0.7-0.7c0.5-0.5,1-1,1.5-1.5c1.3-1.1,2.1-2.5,2.9-4
			c0.4-0.8,0.7-1.7,1.4-2.4c0.2-0.2,0.2-0.5,0.3-0.7c0.6-1.6,1.1-3.2,1.3-4.9c0.3-1.6,0.7-3.2,1.1-4.7
			C265.8,154.9,265.6,153.7,264.8,152.5L264.8,152.5z M204.7,189.9c0.3,0,0.5,0,0.8,0.1c0.3,0.1,0.6,0.1,0.9,0
			c0.9-0.3,1.8-0.2,2.7,0c0.7,0.1,1.5,0.1,2.3,0.2c0.5,0,0.6,0.3,0.5,0.8c-0.1,0.5-0.4,1.1-0.4,1.6c0.1,0.8-0.4,1.5-0.2,2.2
			c0.1,0.4,0.1,0.7,0.2,1.1c-0.5,0.1-0.9,0.4-1.4,0.4c-0.6,0.1-1.3,0.1-1.9-0.1c-0.8-0.2-1.5-0.2-2.3-0.1c-0.2,0-0.4,0-0.6,0
			c-1.1-0.2-1.1-0.2-1.1-1.3c0-0.7,0-1.3,0-2c0,0,0,0,0,0c0-0.9,0-1.7,0-2.6C204.3,190,204.5,189.9,204.7,189.9L204.7,189.9z
			 M204.2,120.6c0,0,0-0.1,0-0.1c0,0,0.1,0,0.1,0c0,0,0,0.1,0,0.1C204.4,120.7,204.3,120.7,204.2,120.6L204.2,120.6z M210.4,71.3
			c0.1,0.2,0.2,0.3,0.2,0.4c0.1,1.7,1,3.1,1.2,4.7c0.1,0.3,0.2,0.6,0.1,1c-0.1,0.9,0.1,1.9,0.4,2.7c0.3,0.9,0.3,1.7,0.3,2.6
			c0,0.7,0,1.3,0,2c0,0.2,0,0.5,0,0.7c-0.5,1.7-0.2,3.4-0.3,5c0,0.8,0,1.5-0.3,2.3c0.1,1.4-0.6,2.8-0.4,4.2c0,0.2,0,0.3,0,0.5
			c-0.5,1.7-0.2,3.4-0.3,5c0,0.7,0.2,1.4,0.3,2.1c0.1,0.7,0,1.3,0,2c0,0.2,0.1,0.3,0.1,0.5c0.4,1.5,0.8,3,1.1,4.6
			c0.2,1.1,0.3,2.3,0.7,3.3c0.1,0.2,0,0.4,0,0.7c0,1.7,0,3.4,0,5.1c0,0.8-0.2,1.5-0.3,2.3c-0.1,0.7,0.1,1.5-0.1,2.1
			c-0.2,0.9-0.2,1.7-0.3,2.6c-0.1,0.6-0.2,1.3-0.3,1.9c-0.4,2.1-0.8,4.1-1.2,6.2c-0.1,0.3-0.1,0.5-0.1,0.8c0,0.7,0,1.3-0.3,1.9
			c-0.1,0.3-0.1,0.8-0.1,1.1c0,2.6,0,5.1,0,7.7c0,0.9,0.3,1.8,0.5,2.7c0,0.3,0.1,0.5,0.1,0.8c0.1,1.2,0.1,2.4,0.4,3.6
			c0.3,1.1,0.1,2.2,0.5,3.2c0,1.1,0.1,2.3,0,3.4c-0.1,0.7-0.5,1.3-0.9,1.9c-0.4,0.7-0.8,1.4-1.2,2.2c-0.4,0.7-0.6,1.4-1.2,1.9
			c-0.1,0.1-0.1,0.2-0.2,0.3c-0.6,1.2-1.2,2.4-1.7,3.7c-0.6,1.3-1.1,2.6-1.6,3.9c0,0.1-0.1,0.2-0.2,0.2c0-0.1-0.1-0.2-0.1-0.3
			c0-0.1,0-0.1,0-0.2c0-1.4-0.2-2.8-0.6-4.2c-0.1-0.3-0.1-0.5-0.1-0.8c0-1,0-2.1-0.3-3.1c-0.2-0.6-0.1-1.3,0-2c0-0.4,0.1-0.8,0-1.3
			c-0.1-0.4,0.2-0.8,0-1.3c0,0,0-0.1,0-0.2c0.1-0.5,0.3-1,0.2-1.4c-0.1-0.5-0.2-0.9-0.2-1.4c0-0.8-0.1-1.6,0.2-2.4
			c0.2-0.5,0.1-1.1,0.1-1.6c0-0.9,0-1.8,0.2-2.8c0.2-0.9,0.3-1.8,0.1-2.7c-0.1-0.3,0-0.5,0-0.8c0,0,0.1-0.1,0.1-0.1
			c0.1,0,0.2,0,0.3,0.1c0.2,0.4,0.4,0.8,0.5,1.2c0.1,0.4,0.2,0.8,0.3,1.3c0.2,1.5,0.7,3,1.1,4.4c0.1,0.5,0.3,1,0.6,1.5
			c0.1,0.3,0.3,0.6,0.5,0.8c0.4,0.4,1.1,0.5,1.5,0.2c0.5-0.4,0.8-0.7,0.5-1.4c-0.5-1.3-0.8-2.6-0.9-4c-0.2-1.6-0.7-3.1-1.1-4.6
			c-0.3-1.1-0.5-2.2-0.8-3.3c-0.1-0.4,0-0.8,0-1.1c0-2.5,0-5,0-7.6c0-0.5,0.1-1.1-0.2-1.6c-0.1-0.2-0.1-0.4-0.1-0.6
			c0-1.2,0-2.3,0-3.4c0-0.6,0.4-1.3,0-1.9c0-0.1,0-0.2,0-0.3c0.4-0.8,0.3-1.6,0-2.4c-0.2-0.5,0-1.1-0.1-1.6c0-0.7,0-1.3-0.2-1.9
			c-0.2-0.4-0.1-0.9-0.1-1.3c0-1.3-0.1-2.6-0.5-3.8c-0.1-0.2-0.1-0.3-0.1-0.5c0-0.9-0.3-1.7-0.6-2.5c-0.2-0.6-0.6-1.2-0.2-1.9
			c0-0.1,0-0.2,0-0.3c-0.4-1.3-0.4-2.8-0.8-4.1c-0.1-0.2-0.1-0.5-0.1-0.8c0-0.3,0-0.6,0-0.8c-0.6-2.2-0.2-4.5-0.3-6.7
			c0.5-1.5,0.2-3,0.3-4.6c0.1-0.8,0.1-1.6,0.4-2.4c0.2-0.7,0.2-1.4,0.3-2.1c0-0.7,0-1.4,0-2.1c0-0.5,0.1-1,0.2-1.4
			c0-0.3,0.1-0.6,0.1-0.8c-0.2-0.5-0.2-0.9,0-1.4c-0.3-0.5-0.1-0.9,0-1.4c0.1-0.4,0-0.8,0-1.1c0-1.5,0-3,0-4.4
			c0-1.1,0.1-2.2,0.5-3.2c0.1-0.2,0.1-0.5,0.1-0.8c0-0.6,0-1.2,0.3-1.8c0.1-0.3,0.1-0.6,0.1-1c0-0.7,0-1.3,0.2-1.9
			c0.2-0.4,0.1-1-0.1-1.4c-0.1-0.2-0.1-0.5,0-0.8c0.2-0.7,0.4-1.4,0.7-2c0.2-0.5,0.2-0.9,0.2-1.4c0.4,0.3,0.6,0.8,0.7,1.2
			c0.3,1,0.7,2,0.9,3C209.6,68.9,210,70.1,210.4,71.3L210.4,71.3z M205.2,147.4c0-0.1,0.1-0.3,0.1-0.4c0.1,0.1,0.1,0.3,0.2,0.4
			c0,0,0,0.1,0,0.2c0,0.1-0.1,0.2-0.2,0.3c0-0.1-0.1-0.2-0.1-0.3C205.2,147.6,205.2,147.5,205.2,147.4L205.2,147.4z M206.8,61.1
			c0,0.3,0,0.5,0,0.8c0,0.1-0.1,0.2-0.1,0.3c-0.1-0.1-0.1-0.3-0.1-0.4C206.5,61.5,206.5,61.2,206.8,61.1L206.8,61.1z M206.7,60.1
			c0-0.2,0.2-0.3,0.3-0.5c0,0.1,0.1,0.3,0.1,0.4c0,0.4,0.1,0.8-0.3,1C206.7,60.7,206.6,60.4,206.7,60.1L206.7,60.1z M207.6,63.2
			C207.7,63.2,207.7,63.2,207.6,63.2c0.1,0.1,0.1,0.1,0.2,0.2C207.7,63.3,207.7,63.2,207.6,63.2z M195.7,191.4
			c0.3-0.6,0.2-1.2,0.3-1.8c0-0.2,0-0.3,0-0.5c0.5-1.4,0.3-2.8,0.3-4.2c0-1.1,0-2.2,0.3-3.2c0.1-0.4,0.1-0.8,0.1-1.1
			c0-1.2,0-2.4,0-3.6c0-0.4-0.1-0.9,0-1.3c0.5-1.4,0.2-2.9,0.3-4.4c0-1.2,0-2.5,0.3-3.7c0.1-0.4,0-0.8,0-1.1c0-1.4,0-2.7,0-4.1
			c0-0.5,0.1-1,0.2-1.4c0-0.4,0.1-0.9,0.1-1.3c0-1.5,0-3.1,0-4.6c0-0.7-0.1-1.4,0.2-2.1c0.1-0.3,0-0.7,0-1.1c0-0.4,0.1-0.8,0.1-1.1
			c0-0.9,0-1.9,0-2.8c0-0.8-0.1-1.5,0.2-2.3c0.1-0.3,0.1-0.8,0.1-1.1c0-1.4,0-2.7,0-4.1c0-0.7,0-1.3,0.2-1.9
			c0.1-0.3,0.1-0.8,0.1-1.1c0-1.2,0-2.3,0-3.4c0-0.8-0.1-1.6,0.2-2.4c0.1-0.3,0.1-0.6,0.1-1c0-1.1,0-2.2,0-3.3
			c0-0.8-0.1-1.5,0.2-2.3c0.1-0.3,0.1-0.6,0.1-1c0-0.8,0-1.6,0-2.5h0c0-0.7,0-1.4,0-2.1c0-0.5,0-1,0.2-1.5c0.1-0.3,0.1-0.7,0.1-1.1
			c0-1.2,0-2.4,0-3.6c0-0.6-0.1-1.3,0.2-1.9c0.2-0.4-0.3-0.9,0-1.4c-0.2-0.6,0-1.3,0-1.9c0-0.6,0-1.2,0-1.8c0-0.6-0.1-1.2,0.2-1.8
			c0.1-0.1,0.1-0.3,0.1-0.5c-0.3-0.7,0-1.3,0-1.9c0-0.7,0-1.3,0-2c0-0.8-0.1-1.5,0.2-2.3c0.1-0.3,0.1-0.7,0-1
			c-0.1-0.4-0.3-0.8-0.1-1.3c0.2-0.3-0.1-0.7,0-1.1c0.1-0.4,0-0.9,0.1-1.3c0-0.5,0.1-1,0.2-1.4c0.1-0.4,0.1-0.9,0.1-1.3
			c0.1-0.7-0.2-1.4,0-2.1c0.2-0.7,0-1.4,0.1-2.1c0-0.4,0-0.8,0.1-1.1c0.2-0.5,0.3-1,0-1.6c0-0.1-0.1-0.2,0-0.3
			c0.5-1.3,0.2-2.6,0.3-3.9c0-0.8-0.1-1.5,0.3-2.3c0.1-0.3,0-0.7,0.1-1c0.1-0.8-0.2-1.6-0.1-2.4c0.2-0.7,0.1-1.5,0.1-2.3
			c0-0.8,0-1.6,0-2.5c0-0.7-0.1-1.3,0.2-1.9c0.1-0.3,0.1-0.6,0.1-1c-0.1-1.3,0.2-2.6-0.2-3.9c0-0.1,0-0.2,0-0.3
			c0.5-2.1,0.1-4.2,0.2-6.4c0-0.6,0-1.2-0.4-1.7c-0.2-0.3-0.2-0.6-0.1-0.9c0.1-0.5-0.1-0.8-0.6-1c-0.2-0.1-0.5-0.2-0.7-0.4
			c-1-1.1-1.9-2.3-2.1-3.8c-0.2-1-0.5-2-0.8-3c-0.2-0.8-0.4-1.6-0.6-2.4c-0.1-0.3-0.6-0.4-0.4-0.8c0.2-0.6,0.1-1.3,0.4-1.9
			c0.6-1,1.1-2,2-2.8c0.7-0.7,1.3-1.4,2.2-2c0.6-0.3,1.1-0.7,1.7-0.9c0.5-0.1,0.9-0.4,1.3-0.6c0.4-0.2,0.8-0.4,1.3-0.3
			c1,0.1,2,0.3,3,0.5c0.6,0.1,1.1,0.4,1.5,0.9c0.7,0.7,1.4,1.3,1.7,2.3c0.2,0.6,0.3,1.1,0.6,1.7c0.2,0.5,0.3,1,0.4,1.6
			c0.1,0.7,0.4,1.5,0.7,2.2c0.1,0.3,0.2,0.6,0.3,0.9c0.1,0.7,0.1,1.4,0.3,2.1c0.2,0.7,0.1,1.5-0.4,2.2c-0.9,1.2-1.5,2.6-2.5,3.7
			c-0.3,0.4-0.6,0.8-1,1.1c-0.6,0.6-1,1.2-1,2c0,0.4-0.3,0.7-0.6,0.9c-0.4,0.2-0.8,0.4-1.2,0.6c-0.6,0.3-1,0.7-1.2,1.3
			c-0.4,1.1-0.9,2.1-0.9,3.3c0,0.6-0.2,1.2-0.3,1.8c-0.1,0.5,0,1.1-0.3,1.6c-0.1,0.2-0.1,0.4-0.1,0.6c0,0.8-0.1,1.5-0.3,2.3
			c-0.2,0.7,0,1.4-0.3,2.1c-0.1,0.2,0,0.5-0.1,0.8c0,0.3,0,0.6,0,0.8c-0.5,1.6-0.2,3.3-0.3,4.9c0,0.7,0,1.3,0,2c0,0.3,0,0.6-0.1,0.8
			c-0.3,0.7-0.2,1.4-0.2,2.1c0,0.5-0.1,1-0.2,1.5c0,0.2,0,0.4,0,0.6c0.2,1.2,0.2,2.4-0.2,3.5c-0.2,0.6-0.4,1.1-0.1,1.7
			c-0.4,1.4,0.1,2.8-0.4,4.2c0,1.1,0,2.3,0,3.4c0,0.3,0.1,0.6-0.1,0.9c-0.3,0.4-0.3,0.9-0.3,1.4c0.1,0.9,0.1,1.7,0,2.6
			c-0.1,0.8,0,1.6,0,2.5c0,0.9,0,1.8,0,2.6c0,0.8,0,1.6,0,2.5c0,0.9,0,1.8,0,2.6c0,0.8,0,1.6,0,2.5c0,0.9,0,1.8,0,2.6
			c0,2,0,3.9,0,5.9c0,1.6,0.2,3.2,0.6,4.8c0.1,0.3,0.1,0.6,0.1,1c0,0.8,0,1.6,0,2.5c0,0.3-0.1,0.6,0,0.8c0.4,1.2,0.2,2.4,0.3,3.6
			c0,0.9,0,1.9,0,2.8c0,0.9,0,1.7,0.1,2.6c0.1,0.7,0.1,1.3,0,1.9c-0.1,0.6,0.2,1.2,0.2,1.8c0,0.4-0.1,0.9-0.1,1.3
			c0,0.1-0.1,0.2-0.1,0.3c0.4,1-0.2,1.9-0.1,2.9c0.1,1,0,2,0,3c0,0.7,0,1.4-0.2,2.1c-0.2,0.5-0.1,1.2-0.1,1.8c0,0.9,0.1,1.7-0.2,2.6
			c-0.1,0.4-0.1,0.9-0.1,1.3c0,3.3,0,6.6,0,9.9c0,1.3,0.4,2.5,0.4,3.7c0.4,0.7,0.1,1.5,0.3,2.2c0.2,0.6,0.2,1.3,0.2,1.9
			c0,0.6,0,1.2-0.2,1.8c-0.1,0.3-0.1,0.7-0.1,1.1c0,1.2,0,2.4,0,3.6c0,1,0.1,2.1-0.3,3.1c-0.1,0.2,0,0.5,0,0.8c0,0.3,0.1,0.6,0,0.8
			c-0.5,1.3-0.3,2.6-0.3,3.9c0,1-0.1,1.9-0.3,2.9c-0.1,0.8,0,1.5-0.1,2.3c0,0.5-0.2,0.7-0.7,0.7c-1.5,0-3.1,0-4.6,0
			c-0.4,0-0.5-0.2-0.4-0.7c0.2-1.2,0.2-2.3-0.1-3.4C195.7,192.1,195.6,191.7,195.7,191.4z M189.8,190.9c0.9-0.1,1.7-0.5,2.4-0.4
			c0.4,0,0.5,0,0.7,0c0.3,0,0.6,0,0.7,0.2c0.1,0.2-0.1,0.4-0.1,0.6c0,0.4-0.1,0.9-0.1,1.3c0,0.3,0,0.7-0.1,1c-0.3,0.6-0.3,1.3,0,1.9
			c0.1,0.4-0.2,0.8-0.5,0.8c-0.4,0-0.9,0-1.3,0c-0.8,0-1.2-0.3-1.2-1c0-1.4-0.4-2.7-0.7-4C189.4,191.2,189.5,191,189.8,190.9
			L189.8,190.9z M147.3,39.8c-0.9-0.9-1.8-1.8-2.7-2.7c-0.1-0.1-0.2-0.2-0.3-0.4c-1.2-2-2.3-4.1-2.2-6.5c0-0.5,0-1.1,0-1.6
			c0-0.8-0.1-1.5,0.5-2.2c0.1-0.1,0.1-0.3,0.1-0.5c0-1.1,0.6-1.9,1.2-2.8c0.8-1.1,1.6-2,2.7-2.8c0.4-0.4,0.8-0.7,1.4-0.7
			c0.5,0,0.9-0.1,1.2-0.3c0.7-0.4,1.5-0.4,2.2-0.3c1.5,0.3,3.1,0.7,4.4,1.7c2,0.8,3,2.6,4,4.4c0.8,1.3,1.2,2.7,1.2,4.2
			c0,0.1,0,0.2,0,0.3c0.8,2.4-0.3,4.4-1.5,6.4c-0.3,0.6-0.8,1-1.2,1.5c-0.3,0.4-0.7,0.7-1,1.1c-0.6,0.7-0.4,1.5-0.5,2.3
			c0,0.1,0.1,0.3,0.2,0.4c0.9,0.5,0.9,1.5,1,2.3c0.1,1.4,0.4,2.8,0.7,4.2c0.2,0.7,0.1,1.5,0.3,2.2c0.2,0.7,0.4,1.5,0.4,2.2
			c0.1,1,0.4,1.9,0.5,2.9c0.1,0.9,0.2,1.8,0.4,2.7c0.2,1.1,0.3,2.3,0.8,3.3c0.3,0.7,0.2,1.5,0.4,2.2c0.4,1.1,0.6,2.3,0.7,3.5
			c0.2,1.1,0.4,2.1,0.6,3.2c0.2,0.8,0.2,1.6,0.4,2.4c0.1,0.6,0.2,1.3,0.4,1.9c0.4,1.9,0.8,3.8,1,5.8c0.1,0.6,0.2,1.2,0.3,1.8
			c0.6,1.9,0.7,3.8,1.3,5.7c0.3,1.1,0.4,2.2,0.7,3.3c0.3,1.4,0.6,2.9,0.8,4.3c0.2,1.3,0.5,2.7,0.8,4c0.1,0.4,0.2,0.7,0.3,1.1
			c0.1,0.9,0.4,1.8,0.4,2.7c0.1,1.2,0.5,2.3,0.7,3.5c0.3,1.5,0.9,2.9,0.9,4.5c0,0.3,0.2,0.6,0.3,0.9c0.2,1.2,0.5,2.5,0.7,3.7
			c0.3,1.4,0.6,2.9,0.9,4.3c0.3,1.3,0.5,2.7,0.8,4c0.3,1.7,0.5,3.4,1.2,5.1c0.1,0.2,0.1,0.4,0.1,0.6c0,1.2,0.4,2.4,0.6,3.5
			c0.1,1.1,0.7,2.2,0.5,3.3c0,0.2,0.1,0.4,0.2,0.6c0.1,0.3,0.3,0.6,0.3,0.9c0.1,1.4,0.5,2.7,0.8,4c0.4,1.7,0.6,3.4,1.1,5.1
			c0.3,1,0.4,2,0.6,3c0.2,1.6,0.6,3.2,0.9,4.8c0.2,1.1,0.4,2.2,0.6,3.4c0.3,1.8,0.6,3.5,1.1,5.3c0.2,0.9,0.1,1.9,0.5,2.7
			c0.2,2.3,0.8,4.5,1.3,6.7c0.5,2.4,0.8,4.9,1.4,7.3c0.4,1.9,0.5,3.9,1.2,5.7c0.1,0.2,0.1,0.3,0.1,0.5c-0.1,1.4,0.2,2.7,0.6,4
			c0.3,0.9,0.4,1.9,0.5,2.9c0.1,0.9,0.5,1.7,0.9,2.5c0.2,0.4,0.1,0.5-0.3,0.5c-1,0-2,0-3,0v0c-0.9,0-1.8,0-2.6,0
			c-0.3,0-0.6,0-0.8-0.1c-0.2-0.1-0.2-0.5-0.3-0.7c-0.3-0.9-0.6-1.8-0.7-2.7c-0.2-1.6-0.8-3.1-0.9-4.6c-0.1-0.7-0.2-1.4-0.4-2.1
			c-0.6-2-0.8-4.1-1.3-6.2c-0.1-0.3-0.2-0.6-0.3-0.9c-0.2-1.2-0.5-2.5-0.7-3.7c-0.2-1.2-0.5-2.4-0.7-3.7c-0.2-0.8-0.4-1.6-0.5-2.4
			c-0.1-0.8-0.4-1.6-0.5-2.4c-0.2-1.3-0.5-2.7-0.8-4c-0.1-0.7-0.3-1.4-0.4-2.1c-0.1-0.3-0.1-0.7,0-1c0.5-1.2,0.2-2.4,0.2-3.6
			c0-0.2-0.1-0.3-0.1-0.5c-0.4-1.6-0.9-3.1-1.3-4.7c-0.1-0.4-0.2-0.8-0.2-1.1c0.1-0.9-0.1-1.9-0.4-2.7c-0.5-1.3-0.3-2.8-0.9-4.1
			c0-0.1,0-0.2,0-0.3c0.1-1.3-0.3-2.6-0.4-3.9c-0.1-0.5,0.1-1.1,0.1-1.6c0-1.8,0-3.5,0-5.3c0-0.4,0-0.9,0-1.3
			c-0.1-1.5,0.2-3,0.6-4.5c0-0.2,0.1-0.4,0-0.6c-0.1-0.3-0.1-0.5,0.1-0.7c0.4-0.4,0.3-0.9,0.3-1.4c0-0.5-0.3-1-0.2-1.4
			c0.1-0.5,0.1-0.8,0-1.3c-0.1-0.3,0.2-0.7,0.1-0.9c-0.4-1.1-0.1-2.3-0.3-3.4c-0.1-0.7-0.1-1.4-0.3-2c0-0.2,0-0.3-0.1-0.5
			c-0.1-0.5-0.7-0.8-0.6-1.5c0.1-0.5-0.1-1-0.2-1.4c-0.2-0.8-0.2-1.6-0.4-2.4c-0.3-0.9-0.6-1.9-1-2.7c-0.4-0.8-0.8-1.7-0.9-2.6
			c-0.1-0.3-0.2-0.6-0.3-0.9c-0.1-0.3-0.3-0.5-0.3-0.8c0-0.7,0-1.4-0.6-2c-0.1-0.1-0.1-0.3-0.1-0.5c0-0.6-0.2-1.1-0.4-1.6
			c-0.6-1.1-0.8-2.4-0.8-3.6c0-1.8-0.4-3.6-0.7-5.3c-0.2-0.8-0.4-1.6-0.6-2.4c0-0.2,0-0.4,0-0.7c0.1-2.3,0-2.9-0.5-4.8
			c-0.1-0.4-0.2-0.7-0.2-1.1c-0.3-1.9-0.5-3.9-1-5.7c-0.1-0.3-0.2-0.6-0.2-0.9c0-0.3,0-0.6,0-0.9c0-1.4-0.6-2.6-0.9-4
			c-0.1-0.5-0.3-1.1-0.2-1.6c0.1-1.1-0.1-2.2-0.4-3.2c-0.2-1-0.5-2-0.8-3c-0.1-0.2-0.1-0.4-0.1-0.6c0-1.2-0.4-2.4-0.7-3.5
			c-0.1-0.4-0.4-0.8-0.1-1.2c0-0.1,0-0.2,0-0.3c-0.5-2.1-1-4.1-1.5-6.2c-0.1-0.4-0.2-0.8-0.4-1.2c-0.1-0.4-0.3-0.7-0.5-1
			c-0.6-0.8-1.3-1.5-1.9-2.2c-0.2-0.2-0.5-0.3-0.7-0.4c-0.2-0.1-0.5,0-0.6-0.1c-0.4-0.2-0.7-0.1-1.1,0.1c-0.4,0.2-0.8,0.5-1.2,0.8
			c-0.2,0.1-0.4,0.1-0.5-0.2c-0.1-0.5-0.2-0.9-0.3-1.4c-0.1-0.8-0.5-1.5-1.1-2c-0.2-0.1-0.4-0.3-0.5-0.3
			C148.1,40.5,147.7,40.2,147.3,39.8L147.3,39.8z M164.1,187.9c-0.1-1,0.2-1.9,0.4-2.9c0.3-1.4,0.4-2.8,1-4.1
			c0.4-1.1,0.8-2.2,1.2-3.4c0.3-1,0.9-1.9,1.4-2.8c0.8-1.3,1.6-2.6,2.3-4c0.6-1.2,1.2-2.3,1.5-3.6c0.1-0.2,0.2-0.4,0.3-0.6
			c0-0.1,0.2-0.2,0.2-0.1c0.1,0,0.2,0.1,0.2,0.2c0.2,0.6,0.4,1.1,0.4,1.7c0.2,1.6,0.6,3.1,0.9,4.6c0.3,1.2,0.5,2.4,0.7,3.7
			c0.1,0.5,0.2,1,0.3,1.4c0.4,1.7,0.7,3.5,1,5.3c0,0.2,0.1,0.4,0.2,0.6c0.4,1.5,0.7,3.1,0.8,4.6c0,0.3,0.1,0.5,0.2,0.8
			c0.1,0.2,0,0.4-0.3,0.5c-1.2,0.2-2.5,0.5-3.7,0.4c-0.3,0-0.6,0-0.8,0.2c-0.5,0.5-1.1,0.4-1.7,0.4c-0.7,0-1.3,0.1-1.9,0.3
			c-1.4,0.3-2.7,0.7-4.2,0.8c-0.3,0-0.5,0.1-0.8,0.2c-0.1-0.1-0.3-0.3-0.2-0.4c0.5-1.1,0-2.4,0.6-3.5
			C164.1,188.1,164.1,188,164.1,187.9z M164.5,194.2c1.3-0.2,2.5-0.7,3.8-0.7c0.1,0,0.1,0,0.2,0c1.2-0.5,2.5-0.7,3.8-0.7
			c0.5-0.4,1.1-0.1,1.7-0.2c0.7-0.2,1.5,0,2.2-0.3c0.3-0.1,0.8-0.1,1.1,0c0.1,0,0.3,0.2,0.4,0.3c0.2,0.9,0.3,1.7,0.4,2.6
			c0,0.2,0,0.3,0,0.5c0,0.3-0.2,0.5-0.5,0.5c-0.2,0-0.4,0-0.9,0c-0.4-0.1-1.1-0.2-1.8-0.3c-0.7-0.1-1.4,0-2.1,0
			c-0.2,0-0.4-0.1-0.6-0.2c-1.6-0.3-3.3-0.8-5-0.8c-0.9,0-1.8-0.4-2.7-0.3c0,0-0.1,0-0.1-0.1C164.4,194.3,164.5,194.2,164.5,194.2
			L164.5,194.2z M160.1,209.8c0,0-0.1,0-0.1-0.1c0-0.1-0.1-0.2-0.1-0.3c-0.4,0-0.8-0.3-0.9-0.8c-0.1-1.2-0.7-2.5-1-3.7
			c-0.1-0.3-0.1-0.7-0.2-1c0-0.1-0.1-0.1-0.1-0.2c-0.5-0.9-0.5-1.9-0.6-2.9c-0.1-0.1-0.2-0.2-0.2-0.4c-0.1-1.3-0.2-2.6-0.5-3.8
			c-0.1-0.5,0.1-1.2-0.1-1.7c-0.1-0.1,0-0.4-0.1-0.5c-0.6-0.9-0.5-2.1-0.9-3.1c-0.3-0.7-0.4-1.5-0.7-2.2c-0.2-0.4-0.4-0.8-0.2-1.2
			c0.1-0.1,0-0.3,0-0.5c-0.7-1.6-0.9-3.4-1.4-5c-0.1-0.2,0-0.5-0.1-0.6c-0.8-0.8-0.8-2-1.1-3c-0.3-1-0.5-2-0.7-3
			c-0.1-0.4-0.2-0.7-0.5-1c-0.3-0.3-0.4-0.7-0.6-1.1c-0.2-0.8-0.6-1.6-0.9-2.4c-0.3-0.8-0.6-1.6-1-2.4c-0.3-0.8-0.7-1.6-1-2.4
			c-0.1-0.3-0.2-0.6-0.3-0.9c-0.1-0.7-0.4-1.3-0.6-2c-0.8-2.1-1.4-4.2-1.9-6.4c-0.1-0.2-0.1-0.4-0.1-0.6c0.1-0.7-0.1-1.4-0.4-2.1
			c-0.2-0.5-0.3-1-0.3-1.6c-0.1-0.9-0.1-1.8-0.4-2.7c-0.2-0.7-0.3-1.4-0.3-2.1c0-2,0-4.1,0-6.1c0-0.9-0.1-1.9,0.3-2.7
			c0-1.1,0.3-2.1,0.6-3.2c0.2-0.7,0.3-1.5,0.4-2.2c0.2-1.3,0.5-2.6,0.4-3.9c0-0.3,0.1-0.6,0.2-0.9c0-0.1,0.2-0.2,0.3-0.3
			c0,0.1,0.1,0.2,0.1,0.3c0.1,0.4,0.3,0.7,0.3,1.1c0.1,1.7,0.7,3.3,1.3,4.9c0.4,1.2,1,2.3,1.6,3.4c0.7,1.2,1.3,2.5,1.8,3.8
			c0.5,1.3,0.9,2.7,1.3,4c0.3,1,0.5,2,0.8,3c0.1,0.3,0.1,0.6,0.1,1c0,0.7,0,1.3,0.3,1.9c0.1,0.2,0,0.5,0.1,0.8
			c0.1,1.4-0.1,2.8,0.2,4.2c0,0.1-0.1,0.3-0.1,0.5c0,0.4-0.2,0.9,0,1.3c0.3,0.9,0.2,1.8,0.3,2.8c0,0.5,0.1,1,0.2,1.4
			c0.2,0.7,0.3,1.5,0.5,2.2c0.3,1.3,0.9,2.5,1.5,3.6c0.4,0.7,1.3,1,1.9,1.5c0.1,0.1,0.2,0,0.3,0c0.9-0.3,1.7-1.2,1.8-2.1
			c0-0.3-0.1-0.5-0.2-0.8c-0.2-0.3-0.5-0.6-0.9-0.6c-0.2,0-0.4-0.2-0.5-0.4c-0.5-1.3-1-2.5-1-3.9c-0.4-1-0.2-2.1-0.4-3.1
			c-0.3-1.5-0.1-3-0.3-4.4c-0.3-1.7-0.1-3.4-0.6-5c-0.1-0.2,0-0.4,0-0.7c0.1-0.9-0.1-1.9-0.4-2.7c-0.7-2.2-1.2-4.5-2.3-6.6
			c-0.7-1.4-1.4-2.8-2.2-4.2c-0.5-0.8-0.9-1.8-1.2-2.7c-0.2-0.6-0.6-1-0.7-1.6c-0.1-0.6-0.3-1-0.5-1.5c-0.2-0.5-0.2-1-0.3-1.4
			c-0.4-1.5-0.8-3-1.3-4.5c-0.2-0.5-0.3-0.9-0.2-1.4c0-0.7-0.1-1.4,0.2-2.1c-0.3-0.7,0.1-1.2,0.2-1.9c0.1-0.6,0.4-1.2,0.1-1.9
			c-0.2-0.3,0-0.5,0.1-0.8c0.3-0.8,0.5-1.7,0.4-2.6c0-0.7-0.1-1.4,0.3-2.1c-0.2-1.4,0.3-2.9-0.1-4.4c-0.1-0.2,0-0.4,0-0.6
			c0-0.1,0.1-0.2,0.1-0.3c0.2-0.6-0.3-1.1-0.2-1.6c0.1-0.5,0.3-1,0.1-1.6c-0.2-0.5,0-1.2-0.2-1.8c-0.2-0.6-0.2-1.1,0-1.7
			c0.2-0.7-0.1-1.4,0.3-2.1c0.1-0.1,0-0.3-0.1-0.5c-0.2-0.7-0.4-1.4-0.2-2.2c0.1-0.5-0.5-1-0.1-1.6c-0.4-1,0-2.2-0.5-3.2
			c-0.2-0.4,0-0.9-0.1-1.3c0-0.4-0.1-0.9-0.2-1.3c0-0.2-0.1-0.3-0.1-0.5c0.4-1-0.1-1.9-0.1-2.9c0-0.9-0.1-1.7-0.4-2.6
			c-0.1-0.5,0-0.9-0.1-1.3c-0.2-0.5,0.3-1,0-1.6c-0.2-0.5-0.1-1.2-0.1-1.8c0-0.5,0-1.1,0-1.6c0-0.2,0-0.5-0.1-0.6
			c-0.4-0.8-0.3-1.6-0.2-2.4c0-0.8,0.5-1.6,0.1-2.4c0.3-0.7,0.1-1.5,0.2-2.3c0-0.3,0.1-0.5,0.2-0.8c0.2-0.9,0.5-1.8,0.5-2.7
			c0-0.5,0.2-1.1,0.4-1.6c0.5-1.1,0.7-2.3,1-3.4c0.3-1.4,0.9-2.7,1.4-4c0.2-0.6,0.5-1.2,0.8-1.8c0.3-0.6,0.7-1,0.9-1.7
			c0.1-0.3,0.3-0.6,0.6-0.8c0.5-0.3,0.6-0.7,0.4-1.1c-0.3-0.5-0.1-0.9,0.1-1.4c0.1-0.3,0.2-0.6,0.3-0.9c0.1-0.4,0.3-0.8,0.5-1.2
			c0-0.1,0.2-0.2,0.2-0.2c0.1,0,0.2,0.1,0.2,0.2c0.2,0.8,0.7,1.4,1.2,1.9c0.5,0.5,0.8,1.1,0.9,1.8c0.1,0.6,0.4,1.3,0.5,1.9
			c0.2,0.9,0.4,1.8,0.4,2.7c-0.1,0.9,0.3,1.8,0.6,2.7c0.2,0.7,0.4,1.5,0.4,2.2c0,0.4,0.1,0.8,0.2,1.1c0.3,1.2,0.7,2.4,1,3.6
			c0.1,0.3,0.1,0.5,0.1,0.8c0,1-0.1,2.1,0.3,3.1c0.3,2.7,0.8,5.4,1.5,8c0.1,0.2,0.1,0.4,0.1,0.6c-0.1,1.3,0.2,2.5,0.4,3.7
			c0.1,0.9,0.3,1.8,0.4,2.7c0.1,0.5,0.2,1,0.2,1.4c0,0.8,0,1.5,0.3,2.3c0.2,0.8,0.1,1.7,0.4,2.6c0.2,0.6,0.2,1.2,0.4,1.7
			c0.2,0.8,0.4,1.6,0.3,2.4c-0.1,0.6,0.2,1.2,0.3,1.8c0.5,2.3,1,4.5,1.6,6.8c0.3,1,0.7,1.9,1,2.9c0.3,0.8,0.1,1.4-0.2,2
			c-0.1,0.3-0.4,0.5-0.5,0.8c-0.2,0.8-0.3,1.7-0.4,2.6c0,0.3-0.1,0.5-0.1,0.8c-1,0.1-0.5,0.9-0.5,1.4c0,1.5-0.5,2.9-0.8,4.3
			c-0.2,0.9-0.6,1.8-0.5,2.7c0,0.2-0.1,0.4-0.1,0.6c-0.4,1.1-0.6,2.3-0.9,3.5c-0.3,1.4-0.8,2.7-1.2,4c-0.4,1.2-0.7,2.4-0.7,3.7
			c0,0.2,0,0.5,0,0.7c-0.5,1.4-0.3,2.8-0.2,4.2c0,0.2,0.1,0.3,0,0.5c-0.4,1.5,0.1,3,0.3,4.5c0,0.2,0.1,0.3,0.1,0.5
			c-0.1,1.3,0.3,2.5,0.4,3.7c0.1,1,0.3,2,0.5,3c0.2,1.2,0.7,2.3,0.8,3.5c0.1,1,0.4,1.8,0.7,2.6c0.1,0.2,0.2,0.4,0.4,0.5
			c0.3,0.2,0.5,0.2,0.6-0.1c0.1-0.2,0.3-0.5,0.2-0.8c-0.1-0.3-0.2-0.5-0.2-0.8c0.1-1.7-0.3-3.3-0.4-5c0-0.2,0-0.5-0.1-0.6
			c-0.3-0.6-0.2-1.3-0.2-1.9c0-0.6,0-1.2-0.2-1.8c-0.1-0.3-0.1-0.6-0.1-1c0.1-1.6-0.2-3.1-0.5-4.7c0-0.2,0-0.4-0.2-0.6
			c-0.4-0.5-0.4-0.9,0.1-1.2c0.1-0.1,0.2-0.4,0.2-0.6c0-0.5,0-1.1,0-1.6c0-0.6,0-1.2,0.2-1.8c0.2-0.4,0.1-1,0.1-1.5
			c0-0.3,0-0.6,0.1-0.8c0.6-0.6,0.5-1.4,0.7-2.1c0.4-1,0.8-2,1.2-3c0.3-0.8,0.6-1.6,0.7-2.5c0.1-1,0.3-2,0.7-2.8
			c0.5-1,0.5-2.1,0.9-3.1c0-0.1,0-0.2,0-0.3c0.3-1.3,0.7-2.6,1-3.9c0,0,0.1-0.1,0.1-0.1c0.1,0.1,0.1,0.1,0.2,0.2
			c0.2,0.9,0.4,1.9,0.6,2.9c0.1,0.3,0,0.7,0.1,1c0,1.2,0,2.4,0,3.6h0c0,0.6,0,1.2,0,1.8c0.1,1.7-0.1,3.4-0.6,5
			c-0.1,0.2-0.1,0.4-0.1,0.6c0.1,0.7-0.1,1.4-0.4,2.1c-0.2,0.5-0.3,1-0.3,1.6c0,0.2,0,0.3,0,0.5c-0.6,2-0.2,4.1-0.3,6.2
			c0,0.9,0.1,1.8,0.4,2.6c0.8,2.1,0.8,4.4,1.5,6.5c0.4,1.3,0.5,2.8,0.8,4.2c0.3,1.4,0.6,2.8,0.8,4.1c0.2,1.3,0.6,2.7,0.5,4
			c-0.1,1.2-0.4,2.2-0.7,3.3c-0.6,2.1-1.6,3.9-2.4,5.9c-0.6,1.6-1.4,3.1-2.3,4.5c-0.5,0.8-0.9,1.7-1.3,2.6c-0.1,0.2,0,0.4,0,0.6
			c0,0.1,0,0.4-0.1,0.4c-0.8,0.7-0.9,1.8-1.4,2.7c-0.6,1.3-0.7,2.6-1,3.9c-0.3,1.2-0.2,2.4-0.6,3.5c-0.1,0.4,0,1-0.1,1.5
			c0,0.7,0,1.3-0.2,1.9c-0.2,0.7-0.2,1.4-0.1,2.1c0.1,0.5,0,0.8-0.3,1.1c0,0,0,0,0,0c0,0.5-0.1,0.9-0.2,1.4c0.1,0.5,0.2,1.1,0.1,1.6
			c0.2,0.2,0.3,0.4,0.3,0.8c0,1,0,2.1,0,3.1c0,0.8,0,1.6,0.2,2.4c0.2,0.7,0.1,1.4,0,2.1c-0.1,0.6,0,1.3-0.2,1.9
			c-0.1,0.3,0.1,0.7,0.2,1.1c0.2,0.8-0.1,1.4-0.4,2C160.3,209.8,160.2,209.8,160.1,209.8L160.1,209.8z M238.2,209.1
			c0,0,0,0.1,0.1,0.1c0,0,0,0.1-0.1,0.1c0-0.1-0.1-0.1-0.1-0.2C238.1,209.2,238.1,209.1,238.2,209.1z M237.6,211.9
			c0.1-0.4,0.1-0.9,0.1-1.3c0-0.1,0.1-0.1,0.2-0.1c0,0,0.1,0.1,0.1,0.1c0,0.5,0,1,0,1.5c0,9.3,0,18.5,0,27.8h0c0,9.3,0,18.5,0,27.8
			c0,1.1-0.1,2.3,0,3.4c0.1,1.1,0,2.3,0,3.5c0,1.1,0,2.3,0,3.4c0,1.2,0,2.3,0,3.4c0,1.2,0,2.3,0,3.5c0,1.2,0,2.4,0,3.6
			c0,1.2,0,2.3,0,3.5c0,1.1,0,2.3,0,3.4c0,1.2,0,2.3,0,3.5c0,1.1,0,2.3,0,3.4c0,1.1,0,2.3,0,3.4c0,9.5,0,18.9,0,28.4
			c0,8.7,0,17.4,0,26.1c0,0.5,0,1.1,0,1.6c0,0.1-0.1,0.4-0.2,0.4c-1.1,0.3-1.9,1-2.9,1.5c-1.9,1-3.8,1.8-5.8,2.5
			c-0.9,0.3-1.7,0.7-2.6,1c-1.9,0.6-3.9,1.1-5.8,1.7c-1.9,0.6-3.8,0.8-5.7,1.5c-0.8,0.3-1.6,0.2-2.4,0.4c-0.7,0.2-1.5,0.2-2.2,0.5
			c-0.5,0.1-0.9,0.2-1.4,0.2c-0.9,0.1-1.8,0.1-2.6,0.3c-1.2,0.4-2.5,0.1-3.7,0.5c-0.3,0.1-0.8,0.1-1.1,0.1c-4.3,0-8.6,0-13,0
			c-0.5,0-1.1-0.1-1.6-0.1c-1.6-0.1-3.1-0.5-4.7-0.5c-0.5,0-1.1-0.2-1.6-0.3c-0.5-0.1-1.1,0-1.6-0.2c-0.3-0.1-0.8-0.1-1.1-0.1
			c-0.4,0-0.9,0-1.3-0.2c-1.7-0.7-3.5-1.1-5.3-1.5c-1.1-0.3-2.2-0.9-2.1-1.1c0.4-0.6,1.1-0.8,1.7-1.2c0.9-0.6,1.7-1.2,2.4-2
			c0.9-0.9,1.9-1.8,2.8-2.7c1.1-1.1,2.2-2.2,3.1-3.5c0,0,0.1-0.1,0.1-0.1c1.7-1.7,3.2-3.4,4.4-5.4c0.1-0.1,0.2-0.3,0.3-0.4
			c1.2-1,2.1-2.4,2.9-3.7c1.7-2.5,3.3-5,5-7.5c1.4-2.1,2.8-4.2,4-6.4c0.9-1.6,2-3.1,2.8-4.8c0.7-1.4,1.6-2.7,2.3-4.1
			c0.3-0.6,0.7-1.2,1.1-1.8c0.3-0.6,0.9-1,0.8-1.8c0.4-0.5,0.8-1,1.1-1.6c0.2-0.4,0.4-0.7,0.6-1.1c0.5-1.2,1.1-2.4,1.8-3.5
			c0.5-0.7,0.9-1.5,1.3-2.3c1.6-3.1,3.1-6.3,4.7-9.4c0.7-1.5,1.3-3,2-4.5c0.8-1.7,1.5-3.4,2.1-5.1c0.5-1.2,0.8-2.5,1.4-3.6
			c0.1-0.1,0.1-0.3,0.2-0.5c1-1.8,1.5-3.7,2.2-5.6c0.3-0.7,0.2-1.4,0.5-2.1c0.3-0.6,0.5-1.3,0.6-2c0.1-0.7,0.4-1.2,0.6-1.9
			c0.2-0.5,0.6-1.1,0.3-1.7c0.5-0.5,0.5-1.2,0.7-1.8c0.2-0.9,0.5-1.9,0.7-2.8c0.2-0.9,0.7-1.8,0.6-2.8c0-0.3,0.3-0.5,0.4-0.8
			c0.2-0.9,0.6-1.8,0.5-2.8c0-0.5,0.6-0.7,0.5-1.3c0.4-0.9,0.7-1.9,0.8-3c0.1-0.8,0.4-1.7,0.7-2.5c0.4-1.4,0.6-2.9,0.9-4.3
			c0.2-0.6,0.2-1.3,0.4-1.9c0.2-0.6,0.2-1.2,0.4-1.8c0.1-0.5,0.1-1,0.4-1.6c0.3-0.6,0.3-1.2,0.5-1.9c0.4-1.8,1-3.5,1.3-5.3
			c0.2-1,0.3-2,0.7-3c0.2-2.3,0.8-4.5,1.4-6.7c0.5-1.7,0.7-3.4,1.2-5.1c0.1-0.5,0-1,0.2-1.5c0.5-2.1,0.9-4.2,1.3-6.4
			c0-0.2,0.1-0.4,0.3-0.6c0.2-0.3,0.3-0.5,0.2-0.9c-0.1-0.3,0.1-0.7,0.2-1.1c0.3-1,0.6-2,0.6-3c0-0.6,0.2-1.2,0.3-1.8
			C237.4,213,237.4,212.5,237.6,211.9L237.6,211.9z M236.5,195.5c0.6-0.1,0.9,0.1,0.8,0.7c-0.1,0.7-0.2,1.4-0.4,2.2
			c-0.2,1-0.5,1.9-0.6,2.9c-0.1,1.3-0.4,2.6-0.8,3.8c-0.5,1.6-0.8,3.2-1.2,4.7c-0.1,0.6-0.2,1.2-0.4,1.7c-0.2,0.6-0.3,1.2-0.3,1.8
			c-0.1,1.3-0.4,2.6-0.7,3.8c-0.4,1.6-0.9,3.1-1.3,4.7c-0.5,1.7-0.9,3.5-1.3,5.2c-0.5,2.7-0.9,5.3-1.8,7.9c-0.3,0.8-0.2,1.6-0.4,2.4
			c-0.8,2.7-1.5,5.3-2.2,8c-0.5,1.8-1.1,3.7-1.4,5.5c-0.5,3-1.3,5.8-1.9,8.7c-0.6,2.9-1.4,5.7-2.2,8.5c-0.8,2.7-1.4,5.4-2.3,8
			c-0.3,0.9-0.5,1.8-0.7,2.7c-0.2,1.1-0.6,2.1-1,3.1c-0.6,2.2-1.2,4.4-2.2,6.5c-0.4,0.9-0.9,1.9-1.3,2.8c-0.3,1-0.7,2-1.1,2.9
			c-0.1,0.2-0.2,0.4-0.2,0.6c-0.2,1.2-0.7,2.3-1.3,3.4c-0.8,1.8-1.6,3.6-2.4,5.4c-0.4,0.8-0.9,1.6-1.3,2.4c-0.8,1.4-1.4,2.8-2,4.3
			c-0.7,1.5-1.6,3-2.5,4.4c-0.5,0.8-0.9,1.6-1.4,2.4c-1,1.7-1.7,3.5-2.7,5.2c-0.3,0.4-0.6,0.8-0.8,1.2c-0.4,0.6-0.7,1.3-1.1,2
			c-0.4,0.6-0.9,1.3-1.2,1.9c-0.4,0.7-0.6,1.4-1,2.1c-1.3,2.2-2.6,4.3-3.8,6.5c-1,1.7-2,3.5-3.1,5.2c-1.3,2.1-2.6,4.1-4.1,6.1
			c-1.2,1.7-2.3,3.4-3.8,4.9c-0.3,0.3-0.6,0.8-0.9,1.2c-1,1.3-2.1,2.5-3.1,3.8c-0.6,0.8-1.2,1.6-1.8,2.3c-0.4,0.5-0.9,1-1.4,1.4
			c-0.5,0.4-1,0.8-1.4,1.3c-0.3,0.5-0.8,1-1.4,1.4c-1,0.7-2.1,1.3-3.2,2c-0.2,0.1-0.5,0.2-0.8,0.2c-0.3,0-0.6-0.2-0.6-0.4
			c0-0.7-0.3-1.4-0.3-2.1c0-0.9-0.1-1.8-0.1-2.7c0-1.1,0-2.2,0-3.3c0-0.8-0.1-1.5-0.2-2.3c-0.1-1-0.1-1.9,0.1-2.8c0-0.2,0-0.4,0-0.6
			c-0.1-0.5-0.3-1-0.4-1.6c-0.1-0.3-0.1-0.5,0-0.8c0.3-0.9,0.3-1.7,0-2.6c-0.3-0.6-0.5-1.3-0.1-2c0.1-0.2,0-0.4,0-0.6
			c-0.1-0.8,0.2-1.6,0.3-2.4c0.1-0.7-0.2-1.5-0.3-2.2c-0.1-1,0.1-2.1-0.2-3.1c-0.1-0.2,0.1-0.5,0.1-0.8c0-0.8,0.1-1.6,0-2.3
			c-0.1-0.7,0.3-1.4-0.2-2c0-1.5-0.3-2.9,0.2-4.4c0.1-0.3,0.1-0.6-0.1-0.9c-0.3-0.7-0.5-1.4-0.2-2.2c0.2-0.5-0.2-0.8-0.2-1.3
			c0-0.4,0.4-0.8,0.2-1.3c-0.2-0.4-0.2-0.7,0-1.1c0.1-0.2,0-0.4,0-0.6c0-0.2-0.2-0.4-0.1-0.5c0.6-1.1-0.2-2.1-0.1-3.2
			c0.1-1,0.1-2.1,0-3.1c0-0.7-0.3-1.4-0.3-2.1c0-0.6,0.2-1.3,0.1-1.9c-0.2-1-0.2-2,0-3.1c0.1-0.3,0-0.6-0.1-0.9
			c-0.1-0.4-0.1-0.8,0.1-1.1c0.3-0.5,0.3-1.1,0.1-1.6c-0.3-0.8-0.2-1.6-0.3-2.4c0-0.4-0.2-0.8-0.2-1.3c0-0.4,0.2-0.8,0.2-1.3
			c0-0.9-0.1-1.7-0.1-2.6c0-0.2,0-0.4,0.1-0.6c0.1-0.6,0.1-1.2-0.1-1.8c-0.2-0.5-0.2-1.1-0.1-1.6c0.1-0.8-0.1-1.6-0.1-2.4
			c0-0.9,0-1.8,0-2.6c0-0.8,0-1.6,0-2.5c0-0.4-0.1-0.9-0.1-1.3c0-0.5,0.2-1,0.1-1.4c-0.5-1.7-0.2-3.4-0.3-5
			c-0.1-0.8-0.3-1.5-0.3-2.3c0-0.7,0.3-1.4,0.3-2.1c0-1,0.2-2-0.2-2.9c0,0,0-0.1,0-0.2c0.6-1.3-0.3-2.5-0.1-3.9c0.1-1.2,0-2.5,0-3.8
			c0-1.3,0-2.6,0-3.9c0-0.5-0.2-1-0.1-1.4c0.1-0.5,0.1-1-0.1-1.4c0-0.1-0.1-0.2,0-0.3c0.4-1,0-1.9,0-2.9c0-0.1,0-0.1,0-0.2
			c0-1.1,0-2.2,0-3.3c-0.1-1-0.3-2-0.4-3.1c0-0.2-0.1-0.4,0-0.6c0.1-1.1,0.3-2.3-0.1-3.4c-0.2-0.5,0.2-0.9,0-1.4
			c-0.1-0.4,0.2-1,0.1-1.4c-0.1-0.4-0.2-0.8-0.2-1.3c0-0.6,0-1.2,0-1.8c0-0.9,0.1-1.9,0-2.8c-0.2-0.9,0.2-1.8,0-2.7
			c-0.1-0.5,0.1-1.1-0.2-1.6c0,0-0.1-0.1,0-0.2c0-0.4,0.2-0.9,0.1-1.3c-0.1-0.5-0.1-1-0.2-1.5c0-0.4-0.3-0.9-0.1-1.3
			c0.3-0.7-0.1-1.3,0-1.9c0.2-0.6,0.1-1.2,0.1-1.8c0-0.3,0.1-0.6,0-0.8c-0.5-1.3-0.2-2.7-0.3-4.1c0-0.4,0.2-0.6,0.6-0.6
			c1.3,0,1.9-0.9,2.4-1.9c0.5-1.1,0.7-2.3,0.6-3.5c-0.1-1,0-2,0-3c0-0.7,0.1-1.4-0.2-2.1c-0.1-0.3-0.1-0.8-0.1-1.1
			c0-0.7,0.1-1.3,0-2c-0.1-0.6,0-1.1,0.2-1.7c0.4-0.8,0.3-0.8,1.3-0.6c0.2,0,0.3,0.1,0.5,0.1c1.2-0.1,2.4,0.4,3.6,0.4
			c0.6,0,1.2,0.2,1.7,0.4c0.6,0.2,1.3,0.3,1.9,0.3c1.3-0.1,2.5,0.2,3.7,0.4c0.7,0.1,1.3,0.2,1.9,0.2c0.9,0,1.9,0,2.8,0
			c0.5,0,1.1,0,1.6,0.2c0.3,0.1,0.6,0.1,1,0.1c1.4,0,2.8,0,4.3,0c0.3,0,0.6-0.1,1-0.1c0.1,0,0.1,0,0.2-0.1c0.6-0.2,1.2,0.4,1.9,0
			c0.6-0.3,1.2-0.2,1.9,0c0.8,0.2,1.6,0.2,2.4-0.1c0.4-0.2,0.9-0.2,1.3,0c0.7,0.3,1.4,0.2,2.1,0.1c1.2-0.2,2.5-0.5,3.7,0
			c0.1,0,0.2,0,0.3,0c1.1-0.4,2.2-0.2,3.2-0.2c1.7,0,3.5,0,5.3,0c0.5,0,1.1,0,1.6-0.2c0.3-0.1,0.8-0.1,1.1-0.1
			c1.4-0.1,2.8,0.1,4.2-0.3c0.7-0.2,1.4-0.1,2.1,0c1.4,0.1,2.8-0.3,4.2-0.5c0.3,0,0.5-0.2,0.8-0.1c1.9,0.1,3.6-0.6,5.5-0.8
			c0.2,0,0.4-0.1,0.6-0.1c1.7,0.1,3.2-0.5,4.8-0.9C236.3,195.5,236.4,195.5,236.5,195.5L236.5,195.5z M225,191.2
			c1.3,0,2.6,0.4,3.8,0.6c2,0.4,3.9,0.9,5.9,1.1c0,0,0.1,0.1,0.1,0.1c0,0.1-0.1,0.2-0.1,0.3c-0.4,0.2-0.8,0.4-1.2,0.5
			c-0.9,0.2-1.8,0.3-2.7,0.4c-0.7,0.1-1.4,0.2-2.1,0.3c-1.1,0.3-2.3,0.2-3.4,0.6c-0.4,0.1-0.8,0.1-1.1,0.1c0,0,0,0,0-0.1
			c-0.3,0.1-0.6,0.1-1,0.2c-0.2,0-0.3,0-0.3-0.3c0.1-0.4,0.3-0.7,0.2-1.1c-0.1-0.9,0.2-1.7,0.4-2.6c0.1-0.3,0.2-0.4,0.6-0.3
			C224.4,191.1,224.7,191.2,225,191.2L225,191.2z M233.7,100.4c-0.2,0.8-0.5,1.7-0.6,2.5c-0.3,1.7-0.7,3.4-0.9,5.1
			c-0.1,0.7-0.4,1.5-0.1,2.2c0,0.1,0.1,0.2,0,0.3c-0.4,1.3,0.1,2.6,0.2,3.8c0,0.2,0,0.4,0,0.6c-0.1,0.3-0.1,0.6-0.1,0.8
			c0.5,2,0.6,4,1.2,5.9c0.1,0.3,0.2,0.6,0.4,0.9c0.1,0.2,0.1,0.4,0.1,0.6c-0.3,1.6-0.3,3.3-0.8,4.9c-0.2,0.6-0.3,1.3-0.7,1.8
			c-0.2,0.2-0.2,0.5-0.3,0.8c-0.2,1.2-0.4,2.3-0.7,3.5c-0.5,2.1-0.9,4.2-1.3,6.4c-0.2,1.1-0.4,2.1-0.7,3.2c-0.3,1.1-0.5,2.2-0.6,3.3
			c-0.1,0.6-0.2,1.2-0.4,1.7c-0.4,1.6-0.7,3.2-0.9,4.8c-0.1,0.5-0.2,1.1-0.3,1.6c-0.3,1.5-0.6,3.1-1,4.6c-0.5,2.1-0.7,4.2-1.2,6.2
			c-0.3,1.3-0.4,2.7-0.7,4c-0.6,2.2-0.9,4.5-1.3,6.7c-0.1,0.7-0.4,1.5-0.5,2.2c-0.2,1.5-0.5,2.9-0.8,4.3c-0.2,0.8-0.2,1.7-0.4,2.6
			c-0.2,0.9-0.4,1.8-0.3,2.7c0,0.6-0.2,1.3-0.5,1.9c-0.5,1.1-0.4,2.3-0.8,3.5c-0.1,0.4,0,0.9,0.1,1.3c0,0.3,0,0.4-0.3,0.4
			c-0.3,0-0.7,0-1,0c-0.8,0-1.6-0.1-2.4,0.3c-0.3,0.1-0.8,0.1-1.1,0.1c-0.3,0-0.6,0-0.9-0.1c-0.1,0-0.3-0.3-0.2-0.3
			c0.5-1.5,0.8-3.1,1-4.7c0.1-0.5,0.4-0.9,0.5-1.4c0.2-0.7,0.4-1.5,0.4-2.2c0-0.6,0.2-1.3,0.3-1.9c0.6-2.4,0.9-4.9,1.6-7.3
			c0-1.7,0.8-3.3,0.7-5c0-0.2,0.1-0.4,0.1-0.6c0.5-2,0.8-4,1.2-6.1c0.4-2,0.7-4.1,1.2-6.1c0.4-1.5,0.5-3.1,0.8-4.7
			c0.1-0.5,0.2-1,0.3-1.4c0.4-2.1,0.7-4.3,1.3-6.4c-0.1-0.9,0.6-1.7,0.2-2.5c0.2-1,0.3-1.9,0.6-2.9c0.3-1.2,0.7-2.3,0.6-3.5
			c0-0.2,0-0.4,0.1-0.5c0.5-0.6,0.4-1.3,0.6-2c0.2-0.7,0.3-1.4,0.4-2.1c0.2-1.2,0.5-2.4,0.7-3.7c0-0.2,0.1-0.5,0-0.6
			c-0.2-0.3,0-0.6,0.1-0.9c0.5-1.6,0.8-3.2,1.1-4.8c0.4-2.1,0.8-4.2,1.2-6.2c0.3-1.5,0.6-3,0.8-4.5c0.4-2.6,0.9-5.1,1.5-7.7
			c0.2-0.7,0.2-1.4,0.3-2.1c0.5-2.3,0.8-4.6,1.3-6.9c0.1-0.6,0.1-1.2,0.1-1.8c0-0.5,0.1-1,0.3-1.4c0.4-0.8,0.6-1.7,0.7-2.7
			c0.1-0.6,0.2-1.2,0.3-1.8c0.4-1.7,0.4-3.5,0.9-5.1c0.1-0.2,0.1-0.4,0.1-0.7c-0.1-1.1,0.3-2,0.4-3.1c0.2-1.4,0.6-2.9,0.9-4.3
			c0.1-0.4,0-0.8,0.1-1.1c0-0.4,0.1-0.8,0.2-1.1c0.3-0.8,0.5-1.7,0.5-2.6c0-0.2,0-0.3,0.1-0.5c0.5-1,0.5-2.1,0.7-3.2
			c0.2-1,0.5-2,0.5-3c0-0.6,0.2-1.3,0.4-1.9c0.4-1.7,0.7-3.5,0.9-5.3c0.1-0.6,0.2-1.2,0.3-1.8c0.4-1.7,0.5-3.5,1-5.3
			c0.3-1,0.3-2,0.6-3c0.2-0.7,0.1-1.5,0-2.3c-0.1-0.6-0.7-1-1.5-0.9c-0.2,0-0.4,0-0.5-0.2c-0.3-0.6-0.6-1.3-1-1.9
			c-0.4-0.7-0.7-1.4-0.7-2.2c0-0.5-0.2-1.1-0.3-1.6c-0.1-0.5,0-1.1-0.2-1.6c-0.2-0.4-0.1-0.7,0-1.1c0.3-0.7,0.5-1.4,0.6-2.2
			c0-0.4,0.3-0.8,0.5-1.2c0.6-0.8,1.1-1.6,1.8-2.3c0.4-0.4,1-0.8,1.7-0.9c0.8-0.2,1.6-0.6,2.4-0.9c0.5-0.2,0.9-0.4,1.4-0.2
			c0.1,0,0.2,0,0.3,0c1.2-0.4,2,0.3,2.8,0.9c0.9,0.7,1.7,1.5,2.4,2.5c0.5,0.7,0.9,1.6,1,2.5c0.2,1.2,0.3,2.4,0.5,3.5
			c0,0.2-0.3,2.1-0.4,2.4c-0.2,0.5-0.3,0.9-0.5,1.4c-0.2,0.6-0.4,1.2-0.9,1.7c-0.3,0.2-0.4,0.6-0.6,1c-0.4,0.7-0.9,1.4-1.9,1.4
			c-0.5,0-0.8,0.5-1.1,0.9c-0.3,0.5-0.5,1.1-0.8,1.6c-1.4,2.3-2,4.8-2.8,7.3c-0.2,0.6-0.3,1.3-0.4,1.9c-0.1,0.5-0.2,1-0.4,1.4
			c-0.8,2-1.2,4-1.6,6.1c-0.3,1.3-0.7,2.5-0.8,3.8c-0.1,1.2-0.3,2.4-0.7,3.5c-0.1,0.2,0,0.5-0.1,0.8c-0.1,1-0.1,2-0.5,3
			c-0.1,0.1-0.1,0.4-0.1,0.5c0.4,0.8,0,1.5-0.3,2.2c-0.5,0.8-0.3,1.8-0.7,2.7c0.2,0.5,0,1-0.2,1.5c-0.2,0.5-0.2,1.1-0.3,1.6
			c-0.1,0.4-0.2,0.9-0.3,1.3c-0.1,0.3,0,0.4,0.2,0.6c0.1,0.1,0.2,0.2,0,0.4c-0.8,0.7-0.9,1.7-1,2.7c-0.1,0.4-0.1,0.7-0.2,1.1
			c-0.2,0.7-0.5,1.4-0.4,2.2c0,0.1,0,0.2,0,0.3c-0.6,1.2-0.7,2.6-1,3.9C234.6,97.9,234,99.1,233.7,100.4L233.7,100.4z M249.8,51.1
			c0,0.1,0,0.2,0,0.3c0,0-0.1,0.1-0.1,0.1c-0.1,0-0.2-0.1-0.2-0.1c0-0.3,0-0.5,0-0.8c0-0.1,0.1-0.2,0.1-0.3c0,0.1,0.1,0.2,0.1,0.3
			C249.8,50.9,249.8,51,249.8,51.1L249.8,51.1z M249.4,49.7c-0.6-0.3-0.8,0.2-1.2,0.5c0.1-0.9,0.2-1,1-1.1c0.1,0,0.2,0.2,0.2,0.3
			C249.5,49.5,249.4,49.6,249.4,49.7L249.4,49.7z M249.6,179.1c-0.8,1.2-1.4,2.4-2,3.7c-0.5,1.1-1.1,2.2-1.7,3.3
			c-0.2,0.3-0.3,0.6-0.3,0.9c-0.1,0.5-0.2,0.9-0.3,1.4c0,0.1-0.1,0.1-0.2,0.2c0-0.1-0.1-0.2-0.1-0.3c-0.1-0.4-0.3-0.7-0.4-1.1
			c-0.2-0.6-0.5-1.2-0.4-1.9c0-0.6-0.2-1.3-0.4-1.9c-0.4-1.2-0.6-2.5-0.7-3.8c0-0.4-0.1-0.7-0.2-1.1c0-0.1-0.1-0.2-0.1-0.3
			c0.5-0.9-0.2-1.8-0.2-2.7c0-0.1-0.1-0.2-0.1-0.3c-0.1-0.9,0.3-1.7,0-2.6c-0.3-0.8-0.4-1.6-0.3-2.4c0.2-1.4-0.3-2.8-0.2-4.2
			c0.1-1.4,0-2.7,0-4.1c0-0.2,0-0.3,0-0.5c-0.6-1.8-0.2-3.7-0.3-5.5c-0.1-0.8,0.1-1.5-0.3-2.3c-0.1-0.3-0.1-0.6-0.1-1
			c0-1,0.1-2.1,0-3.1c-0.2-1.3-0.1-2.6-0.4-3.9c-0.2-1.3-0.2-2.7-0.8-4c-0.1-0.2-0.1-0.5-0.1-0.8c0-0.8-0.3-1.6-0.5-2.4
			c-0.6-0.5,0-1.4-0.7-1.9c-0.1,0-0.1-0.2,0-0.3c0.3-0.6,0.1-1.1-0.1-1.5c-0.2-0.4-0.3-0.8-0.3-1.3c0-0.3,0-0.6-0.1-0.8
			c-0.3-0.6-0.2-1.2-0.2-1.8c0-0.9,0.2-1.8-0.5-2.5c-0.1-0.1,0-0.3,0-0.5c0-0.5,0-1.1-0.2-1.6c-0.1-0.5-0.5-1-0.5-1.5
			c0-0.5,0.1-1.1-0.1-1.6c-0.1-0.3-0.1-0.5-0.3-0.7c-0.3-0.4-0.4-0.8-0.2-1.2c0.2-0.4,0.1-0.7-0.1-1.1c-0.2-0.4-0.4-0.8-0.1-1.2
			c0.1-0.1,0-0.3,0-0.5c-0.1-0.7-0.2-1.4-0.5-2.1c-0.5-1.1-0.5-2.3-0.5-3.5c0-0.7,0.1-1.4-0.1-2.1c0-0.1,0-0.3,0-0.5
			c0.4-1.3,0.2-2.8,0.7-4.1c0-0.1,0-0.2,0-0.3c-0.4-1.1,0.1-2.1,0.4-3.1c0.3-1.2,0.8-2.4,1.1-3.6c0.2-1,0.6-1.9,0.9-2.9
			c0.1-0.4,0.3-0.8,0.1-1.2c-0.1-0.1,0-0.3,0.1-0.5c0.1-0.5,0.2-1,0.4-1.4c0.7-1.7,1-3.4,1.3-5.2c0.2-0.8,0.4-1.7,0.6-2.5
			c0.2-0.9,0.5-1.8,0.4-2.7c0-0.2,0-0.4,0.1-0.6c0.5-1.5,0.6-3,0.9-4.5c0-0.3,0.1-0.5,0.2-0.8c0.1-0.7,0.4-1.4,0.4-2.1
			c0-0.7,0.3-1.4,0.2-2.1c0-0.6,0.1-1.3,0.5-1.9c0.3-0.4,0.3-1,0.3-1.5c0-1.1,0.3-2.1,0.6-3.2c0.2-0.7,0.3-1.4,0.4-2.1
			c0.2-1.2,0.5-2.4,0.8-3.6c0.3-1.3,0.6-2.6,1-3.9c0.1-0.4-0.3-0.8-0.1-1.3c0.2-0.6,0.4-1.2,0.6-1.8c0.3-0.9,0.6-1.9,0.9-2.8
			c0.1-0.2,0.2-0.3,0.3-0.5c0,0.8,0.1,1.6,0.3,2.4c0.3,1.1,0.4,2.4,0.7,3.5c0.1,0.3,0,0.7,0.1,1c0,0.5,0,1,0.2,1.4
			c0.1,0.1,0.1,0.3,0.1,0.5c0.1,2.1,0.5,4.2,0.7,6.3c0.1,1,0.4,1.9,0.1,2.9c0.2,0.9,0.2,1.8,0,2.8c0.3,1.3-0.4,2.5-0.6,3.8
			c-0.1,0.6-0.3,1.2-0.1,1.8c0.1,0.4,0,0.6-0.2,0.8c-0.2,0.3-0.2,0.6-0.1,0.9c0.1,0.3,0.1,0.5-0.2,0.7c-0.4,0.2-0.6,0.4-0.6,0.9
			c0,0.2,0,0.5-0.1,0.6c-0.6,0.8-0.5,1.9-0.8,2.8c-0.2,0.5-0.3,1-0.6,1.5c-0.5,1.1-1,2.2-1.4,3.3c-0.2,0.5-0.2,1-0.3,1.4
			c-0.2,1.1-0.6,2.1-0.5,3.2c0,0.1,0,0.2,0,0.3c0,0.6-0.6,1-0.4,1.7c0.1,0.5-0.1,1.2-0.2,1.7c-0.1,0.6-0.4,1.1-0.5,1.7
			c-0.1,0.6-0.2,1.2-0.1,1.8c0.2,0.6,0,1.2-0.2,1.7c-0.3,0.7-0.6,1.3-0.5,2c-0.5,1.4-0.3,3-0.6,4.5c-0.2,0.7-0.1,1.5,0,2.3
			c0,0.6,0.3,1.2-0.2,1.7c-0.1,0.1-0.1,0.4-0.1,0.6c0,0.7,0,1.4-0.3,2.1c-0.1,0.3-0.2,0.8,0,1.1c0.4,0.7-0.2,1.5,0.2,2.2
			c0.1,0.1,0,0.4-0.1,0.6c-0.1,0.3-0.1,0.5,0.1,0.7c0.3,0.3,0.4,0.8,0.4,1.2c-0.1,2.1,0,2.6,0.6,4.5c0.5,1.5,0.9,3,1.4,4.5
			c0.1,0.5,0.1,1,0.3,1.4c0.3,0.8,0.8,1.5,0.9,2.3c0.1,0.8,0,1.6,0.3,2.4c0.4,1,0.5,2.1,1,3.1c0.1,0.2,0.1,0.5,0.2,0.8
			c0,0.3,0,0.6,0,0.8c-0.1,0.6,0.5,0.8,0.6,1.3c0,0.4-0.3,0.8-0.1,1.3c0.3,0.8,0.4,1.6,0.3,2.5c-0.1,0.6,0.1,1.2,0.3,1.7
			c0.3,0.7,0.3,1.4,0.3,2.1c0,0.5-0.1,1.1,0.2,1.6c0.1,0.2,0,0.4,0,0.6c-0.2,0.9-0.2,1.8,0.1,2.7c0.1,0.4,0.1,0.8,0.1,1.1
			c0,0.6-0.1,1.2,0.2,1.8c0.1,0.2,0,0.4,0,0.6c-0.2,0.8-0.2,1.5,0,2.3c0.2,0.5,0.2,1,0,1.4c-0.2,0.6-0.2,1.2-0.2,1.8
			c0,2.2,0,4.5,0,6.7c0,0.2,0,0.3,0,0.5c0.1,0.7,0.5,1.4,0.3,2.1c-0.2,0.7-0.1,1.4-0.3,2.1c-0.1,0.7,0,1.5,0,2.3
			c0,0.1,0.2,0.4,0.2,0.3c0.6-0.1,0.7,0.4,0.9,0.8C249.8,178.6,249.8,178.8,249.6,179.1L249.6,179.1z M261.6,157.3
			c-0.4,1.3-0.4,2.7-0.8,4c-0.1,0.3-0.1,0.5-0.2,0.8c-0.1,0.5-0.2,1-0.4,1.4c-0.2,0.6-0.4,1.1-0.7,1.6c-0.8,1.4-1.2,3.1-2.3,4.3
			c-1.2,1.4-2.2,2.9-3.8,4c-0.6,0.4-1.2,1-1.5,1.7c0,0.1-0.2,0.1-0.3,0.1c-0.1,0-0.1-0.1-0.2-0.2c0-0.1,0-0.2,0-0.5
			c0-0.1-0.1-0.4,0-0.7c0.4-0.9,0.3-1.8,0.3-2.8c0-1.9,0-3.7,0-5.6c0-0.9-0.1-1.7,0.3-2.6c0.1-0.3,0.1-0.8,0.1-1.1
			c-0.1-1.2,0.2-2.5-0.2-3.7c-0.1-0.1,0-0.3,0-0.5c0.4-1.1,0.4-2.2,0-3.4c-0.1-0.3-0.1-0.6-0.1-1c0-0.7,0-1.4,0-2.1
			c0.1-1.5-0.3-2.9-0.5-4.3c-0.1-0.7,0-1.4-0.1-2.1c-0.2-1.1-0.3-2.2-0.4-3.2c-0.2-1.1-0.4-2.2-0.7-3.3c-0.3-1.1-0.5-2.2-0.9-3.3
			c-0.6-1.9-1.1-3.9-1.8-5.8c-0.7-1.7-1.2-3.5-1.6-5.3c-0.3-1.3-0.6-2.5-0.5-3.9c0-1.1,0.2-2.3-0.1-3.4c-0.1-0.3,0.2-0.8,0.1-1.1
			c-0.3-1.4,0.2-2.7,0.1-4c0-0.3,0.1-0.6,0.2-1c0-0.3,0.1-0.5,0.1-0.8c0-1.4,0.2-2.7,0.6-4c0.1-0.4,0.1-0.8,0.1-1.1
			c0-0.9-0.1-1.8,0.3-2.6c0.1-0.2,0-0.4-0.2-0.6c-0.1-0.1-0.4-0.2-0.1-0.3c0.6-0.5,0.3-1.3,0.7-1.8c0-1.4,0.6-2.6,0.8-4
			c0.2-1.2,0.6-2.4,0.8-3.6c0.1-0.6,0.3-1,0.5-1.5c0.1-0.2,0.1-0.4-0.1-0.6c-0.3-0.3-0.4-0.6,0-1c0.5-0.5,0.2-1.3,0.7-1.7
			c0.2-0.8,0.4-1.6,0.7-2.3c0.3-0.8,0.7-1.4,0.6-2.3c0-0.2,0.1-0.4,0.2-0.6c0.8-1.6,1.1-3.3,1.3-5c0.1-0.9,0.2-1.8,0.5-2.7
			c0.1-0.5,0.2-1,0.2-1.5c0-1-0.1-2,0-3c0.1-1.3-0.1-2.6-0.4-3.9c-0.3-1.3-0.4-2.6-0.6-3.8c-0.1-0.6-0.2-1.3-0.3-1.9
			c0-0.1,0.1-0.2,0.1-0.3c0.1,0.1,0.1,0.2,0.2,0.3c0.2,0.9,0.6,1.9,0.6,2.8c0.1,0.9,0.3,1.7,0.5,2.5c0.3,1.3,0.7,2.5,0.9,3.8
			c0.1,1,0.5,2,0.9,3c0.2,0.7,0.6,1.4,0.9,2.1c0.1,0.3,0.2,0.6,0.2,1c0,1.6,0.6,3.1,0.7,4.7c0,0.1,0,0.1,0,0.2
			c0.7,1,0.5,2.1,0.6,3.2c0.1,1.1,0.3,2.1,0.5,3.2c0,0.2,0.1,0.4,0.1,0.6c0,1.5,0.3,2.9,0.6,4.3c0,0.1,0,0.2,0,0.3
			c0,0.6,0.1,1.2,0,1.8c0,0.6,0.3,1,0.2,1.6c-0.1,0.6,0.2,1.3,0.3,1.9c0,0.6-0.1,1.2-0.1,1.8c0,0.5,0,1.1,0.2,1.6
			c0.3,0.7,0,1.4,0.4,2.1c-0.4,0.6-0.1,1.3-0.1,1.9c-0.1,0.5-0.2,1,0,1.5c0.3,0.8,0.2,1.5,0.2,2.3c0,4.7,0,9.3,0,14
			c0,0.1,0,0.1,0,0.2c0.2,0.8-0.3,1.5-0.3,2.3c0,0.8,0.1,1.5-0.2,2.3c-0.1,0.3-0.1,0.6-0.1,1c-0.1,1.4,0.1,2.7-0.3,4.1
			c-0.1,0.2,0,0.4,0,0.7c0,1.5,0,3.1,0,4.6c0,0.5,0,1,0.2,1.5c0.1,0.3,0.1,0.7,0.1,1.1c0,0.8,0,1.5,0,2.3c0,2.9,0,2.5,0.8,6
			c0.1,0.3,0.2,0.5,0.2,0.8c-0.1,0.8,0.2,1.6,0.5,2.4c0.2,0.4,0,0.7,0.1,1.1c0,0.3,0.1,0.6,0.2,1c0.2,1.4,0.2,2.8,0.9,4.1
			C261.6,156.9,261.6,157.1,261.6,157.3L261.6,157.3z"/>
		<path d="M210.4,58.8c0.1,0.1,0.1,0.1,0.2,0.2c0,0-0.1,0-0.1,0C210.4,58.9,210.4,58.8,210.4,58.8L210.4,58.8z"/>
	</g>
</g>
</svg>
