<svg width="108" height="263" viewBox="0 0 108 263" fill="none" xmlns="http://www.w3.org/2000/svg">
<g clip-path="url(#clip0_811_4286)">
<path d="M65.5648 49.6162C65.5648 49.6162 60.9815 45.0857 65.8415 41.4663C70.7016 37.8469 73.5857 36.6286 73.5857 36.6286C73.5857 36.6286 75.5191 35.8412 74.1356 38.3589C72.7521 40.8766 65.5648 49.6127 65.5648 49.6127V49.6162Z" fill="#B3B3B3"/>
<path d="M17.2089 129.494L16.0808 129.314L10.6354 128.449L9.36541 128.248C9.36541 128.248 6.70833 127.517 6.38551 125.133C6.37842 125.098 6.37487 125.063 6.37132 125.027C6.35004 124.854 6.34294 124.671 6.35358 124.477C6.38551 123.7 6.65512 122.775 7.27593 121.683C10.231 116.507 15.8041 116.411 15.8041 116.411L17.1983 129.36L17.2125 129.494H17.2089Z" fill="#333333"/>
<path d="M59.974 129.494C59.974 134.576 58.8565 137.199 56.4904 138.276C55.7667 138.608 54.9259 138.795 53.9681 138.866C50.7434 139.096 49.516 138.725 49.1435 138.552C49.0406 138.509 49.0016 138.478 49.0016 138.478L47.8096 118.265V117.156C47.8096 117.156 59.974 122.856 59.974 129.494Z" fill="#333333"/>
<path d="M53.7942 171.377C53.7942 171.377 61.1518 179.382 56.6393 211.894C52.1269 244.405 56.6393 262.273 56.6393 262.273L3.28143 249.483C3.28143 249.483 5.14387 211.505 3.77099 191.883C2.39811 172.257 9.65628 155.173 9.65628 155.173C3.6752 141.504 4.35987 132.619 4.84943 128.294C5.10839 126.03 5.76113 125.26 6.32164 125.042C6.33938 125.07 6.35711 125.102 6.38195 125.133C6.70477 127.517 9.36184 128.248 9.36184 128.248L10.6318 128.449C11.8841 128.94 13.4344 129.275 15.3429 129.3C15.5912 129.3 15.836 129.307 16.0773 129.314L17.2054 129.494L17.1912 129.36C23.7079 129.71 27.8869 131.546 37.4651 135.84C41.4951 137.648 45.6066 138.358 49.1399 138.552C49.5124 138.725 50.7398 139.096 53.9645 138.866C54.9223 138.795 55.7631 138.608 56.4868 138.276C58.0264 138.071 58.931 137.853 58.931 137.853C61.2262 143.866 53.7907 171.377 53.7907 171.377H53.7942Z" fill="#C21146"/>
<path d="M2.33428 246.149C2.33428 245.344 2.33428 244.539 2.33428 243.731C2.33428 243.314 2.2988 242.897 2.48327 242.491C2.56487 242.315 2.52584 242.078 2.53649 241.87C2.57196 241.107 2.49392 240.344 2.71741 239.581C2.84157 239.161 2.74579 238.677 2.75643 238.222C2.76707 237.735 2.69258 237.244 2.92671 236.778C2.98347 236.661 2.95864 236.502 2.96219 236.361C2.97638 235.838 2.9409 235.319 3.14311 234.811C3.22825 234.595 3.17504 234.327 3.17858 234.08C3.18923 233.183 3.16794 232.29 3.3666 231.403C3.434 231.103 3.37724 230.775 3.39498 230.46C3.41272 230.185 3.42691 229.903 3.49431 229.638C3.54043 229.458 3.54043 229.313 3.48367 229.136C3.32403 228.66 3.32403 228.151 3.44465 227.685C3.59719 227.102 3.44465 226.544 3.46593 225.976C3.47303 225.736 3.34886 225.46 3.43046 225.256C3.69297 224.574 3.583 223.871 3.60428 223.179C3.61847 222.759 3.60428 222.339 3.60428 221.919C3.60428 221.573 3.59009 221.227 3.73554 220.888C3.81004 220.711 3.82778 220.45 3.74973 220.28C3.56526 219.874 3.60783 219.457 3.60428 219.041C3.60074 216.064 3.60428 213.084 3.59719 210.107C3.59719 209.517 3.66814 208.92 3.42336 208.345C3.34532 208.165 3.39143 207.928 3.39143 207.72C3.38789 207.194 3.39853 206.668 3.38434 206.145C3.37724 205.905 3.31694 205.665 3.28501 205.425C3.24953 205.149 3.23534 204.87 3.17858 204.602C3.09344 204.217 3.42691 203.892 3.28146 203.482C3.16794 203.165 3.19632 202.797 3.18213 202.451C3.16794 202.066 3.17858 201.682 3.17504 201.297C3.17504 201.191 3.20342 201.074 3.16439 200.982C2.78126 200.082 3.13247 199.1 2.84867 198.193C3.15375 197.663 2.67129 197.19 2.74934 196.66C2.81674 196.18 2.73869 195.682 2.75998 195.191C2.77417 194.852 2.43361 194.538 2.69612 194.188C2.64646 193.85 2.57551 193.51 2.55068 193.168C2.52584 192.818 2.54358 192.469 2.54003 192.116C2.54003 192.045 2.55422 191.967 2.52939 191.907C2.21012 191.06 2.35202 190.177 2.34137 189.312C2.32364 187.666 2.32718 186.017 2.33428 184.372C2.33428 183.818 2.29171 183.263 2.49746 182.716C2.60389 182.437 2.54358 182.091 2.53294 181.777C2.5223 181.466 2.45489 181.159 2.45489 180.851C2.45489 180.541 2.50456 180.226 2.54358 179.919C2.57906 179.644 2.62872 179.372 2.67484 179.1C2.69258 178.997 2.75288 178.892 2.73869 178.796C2.63227 178.051 2.92671 177.352 2.98702 176.625C3.04023 175.975 3.23534 175.332 3.39498 174.697C3.50495 174.255 3.54043 173.803 3.62202 173.365C3.74618 172.709 3.75328 172.052 3.84906 171.398C3.93775 170.784 4.14705 170.187 4.29605 169.58C4.51954 168.672 4.85655 167.79 4.88848 166.836C4.89557 166.6 5.02328 166.37 5.09423 166.137C5.15454 165.939 5.27161 165.738 5.26806 165.54C5.26451 165.134 5.45608 164.806 5.59443 164.449C5.93144 163.577 6.2791 162.705 6.35005 161.755C6.36778 161.518 6.46711 161.285 6.52742 161.052C7.03117 159.103 7.46751 157.136 8.12734 155.229C8.21248 154.979 8.22312 154.774 8.12734 154.527C7.97125 154.138 7.87192 153.732 7.72293 153.34C7.60231 153.019 7.4746 152.705 7.29013 152.401C6.98505 151.899 6.77929 151.334 6.5558 150.784C6.08044 149.625 5.53767 148.492 5.20775 147.274C4.90976 146.168 4.54082 145.077 4.31378 143.958C4.15415 143.178 4.02998 142.39 3.82423 141.617C3.76392 141.387 3.80649 141.129 3.7994 140.882C3.78521 140.395 3.84906 139.908 3.63621 139.434C3.55462 139.254 3.59719 139.021 3.59719 138.809C3.59364 138.146 3.60428 137.478 3.59364 136.814C3.58655 136.362 3.583 135.925 3.44465 135.469C3.32758 135.084 3.34177 134.625 3.42691 134.223C3.5085 133.838 3.62557 133.492 3.41981 133.117C3.39143 133.064 3.39143 132.969 3.41981 132.912C3.68942 132.344 3.60428 131.74 3.57945 131.154C3.51914 129.664 3.87389 128.255 4.31733 126.86C4.53018 126.196 4.76786 125.543 4.98781 124.879C5.10487 124.522 5.16873 124.176 5.11197 123.77C5.05876 123.382 5.17937 122.93 5.33901 122.559C5.58379 121.987 5.81792 121.397 6.24362 120.91C6.58773 120.515 6.8396 120.045 7.25111 119.71C7.57748 119.448 7.89675 119.173 8.24086 118.936C9.1029 118.343 9.894 117.651 10.8483 117.192C11.2243 117.012 11.5542 116.74 11.9161 116.531C12.3701 116.27 12.8242 115.995 13.3067 115.797C13.5869 115.68 13.9204 115.695 14.229 115.659C14.6086 115.613 14.8179 115.416 14.7754 115.031C14.7115 114.48 14.5873 113.94 14.4845 113.392C14.4596 113.258 14.3745 113.124 14.378 112.99C14.3851 111.937 14.0694 110.931 13.9169 109.903C13.8282 109.293 13.6047 108.692 13.406 108.103C13.2074 107.509 12.9448 106.937 12.7533 106.341C12.5794 105.804 12.356 105.299 12.0402 104.833C11.9444 104.692 11.8806 104.526 11.8203 104.367C11.4868 103.484 11.0505 102.661 10.5432 101.867C10.1494 101.249 9.80531 100.602 9.43992 99.9668C9.33349 99.7868 9.26254 99.5678 9.11709 99.4301C8.77299 99.1052 8.59206 98.6921 8.38276 98.2895C8.27279 98.0741 8.16282 97.8411 7.99608 97.6716C7.52427 97.1984 7.17661 96.6299 6.7651 96.1144C6.65868 95.9802 6.5558 95.8319 6.41745 95.7365C6.26136 95.6306 6.16912 95.5176 6.12301 95.334C6.01303 94.8749 5.72214 94.5253 5.38158 94.2111C5.01973 93.8791 4.72529 93.4942 4.44504 93.0882C3.61847 91.884 2.68193 90.7505 1.91213 89.504C1.02171 88.0633 0.461201 86.5167 0.184496 84.8359C0.0319541 83.893 0.0213116 82.9644 2.66079e-05 82.0251C-0.0354484 80.5173 0.340586 79.1331 1.2381 77.8972C1.44386 77.6147 1.60704 77.3039 1.79861 77.0144C2.72805 75.616 2.81319 75.4183 3.16794 73.8964C3.29565 73.3526 3.35596 72.8052 3.41627 72.2508C3.50495 71.4634 3.7178 70.6865 3.88454 69.9097C3.99096 69.4012 4.13641 68.8998 4.21445 68.3878C4.31733 67.7063 4.66853 67.1554 5.05521 66.6151C5.21839 66.3891 5.38513 66.1667 5.55895 65.9477C5.62281 65.8665 5.69021 65.7606 5.7789 65.7323C6.40326 65.5381 6.76156 64.9767 7.28659 64.6518C7.82226 64.3199 8.42178 64.0833 8.92198 63.7125C9.42218 63.3382 9.90464 62.8968 10.27 62.3989C11.1143 61.2407 11.8841 60.0295 12.4553 58.7089C12.8278 57.8473 13.1896 56.9751 13.5089 56.0923C13.9523 54.8599 14.6796 53.7865 15.4778 52.7766C15.9212 52.2116 16.5136 51.7525 17.0848 51.3041C17.4076 51.0498 17.812 50.8662 18.2058 50.7426C19.2239 50.4213 19.9192 49.7433 20.5649 48.9347C21.0863 48.2779 21.7249 47.7164 22.3173 47.1161C22.5869 46.8407 22.8814 46.6041 23.2113 46.3922C23.5696 46.1662 23.9208 45.9685 24.3288 45.8379C24.8609 45.6684 25.3682 45.4247 25.8755 45.1881C26.1415 45.0645 26.4111 45.0363 26.6949 45.0363C27.0107 45.0363 27.3299 45.0575 27.6457 45.0363C28.5042 44.9763 29.3201 45.174 30.1076 45.4671C31.3847 45.9438 32.715 46.2581 33.9815 46.7524C34.3895 46.9113 34.8258 46.8442 35.2018 47.0173C35.5814 47.1903 35.9113 47.4763 36.2945 47.6317C36.9401 47.893 37.6106 48.1013 38.2775 48.3132C38.7139 48.4509 39.1183 48.6239 39.5014 48.8923C39.8987 49.1642 40.3422 49.3655 40.8353 49.4785C41.3 49.5844 41.7292 49.8457 42.1656 50.0576C43.3327 50.619 44.5247 51.1416 45.5534 51.9503C45.7982 52.1445 46.0394 52.3458 46.2913 52.5294C46.4864 52.6706 46.6957 52.8048 46.9121 52.9107C46.9724 52.939 47.0966 52.8684 47.1746 52.8189C47.2278 52.7836 47.274 52.7059 47.2775 52.6424C47.2917 52.2186 47.5897 51.9114 47.8238 51.6501C48.434 50.9721 48.9413 50.2235 49.4982 49.5102C49.7785 49.1501 50.08 48.8181 50.2787 48.4015C50.3674 48.2178 50.5483 48.0801 50.6547 47.9036C50.8144 47.6387 51.0521 47.3633 51.0698 47.0773C51.1017 46.5688 51.4139 46.2192 51.68 45.8873C52.3327 45.0716 53.0706 44.3265 53.773 43.5497C54.0745 43.2177 54.5002 43.0129 54.7379 42.6033C54.8159 42.4656 54.9969 42.3561 55.153 42.2996C55.6709 42.1125 56.0327 41.7311 56.3981 41.3533C57.1821 40.5517 58.1364 39.955 58.9949 39.2381C59.151 39.1075 59.3603 39.0157 59.5625 38.9698C60.4033 38.7861 61.0879 38.2988 61.8045 37.868C62.0138 37.7409 62.2231 37.6138 62.4431 37.5008C63.0958 37.1618 63.784 36.8899 64.38 36.445C64.5716 36.3002 64.8092 36.1908 65.0398 36.1201C65.8735 35.8659 66.6504 35.4457 67.5195 35.2938C67.7927 35.2444 68.0658 35.1773 68.3426 35.1597C68.7647 35.1349 69.194 35.1914 69.609 35.1385C70.3895 35.0396 71.0387 35.4174 71.7269 35.6505C72.0213 35.7494 72.1348 36.1943 72.4931 36.1413C72.7592 36.1025 73.0004 35.9118 73.2629 35.8129C73.905 35.5693 74.4868 35.7953 75.0544 36.0672C75.1076 36.0919 75.1467 36.1696 75.1715 36.2331C75.2105 36.3285 75.207 36.4521 75.2673 36.5297C75.7355 37.1583 75.4766 37.7798 75.2531 38.3977C74.9622 39.1958 74.4159 39.842 73.9263 40.5199C73.3977 41.2544 72.8692 41.9889 72.3335 42.7198C72.1313 42.9988 71.8581 43.2389 71.9362 43.6415C71.9468 43.6944 71.9042 43.7968 71.8581 43.818C71.4005 44.0264 71.3083 44.5207 71.0245 44.8597C70.7336 45.2093 70.3824 45.5095 70.0737 45.8414C69.9318 45.9932 69.8254 46.1768 69.6942 46.3357C69.5629 46.4982 69.4494 46.7277 69.2791 46.7948C68.7044 47.0279 68.4703 47.554 68.1403 47.9954C67.2464 49.196 66.4695 50.4813 65.5152 51.6395C65.4478 51.7207 65.3733 51.7984 65.3236 51.8902C64.8057 52.8437 64.2913 53.7935 63.7876 54.7505C63.6918 54.9306 63.6563 55.1424 63.5889 55.3402C63.5428 55.4673 63.518 55.658 63.4257 55.7004C63 55.9087 62.9645 56.2583 62.9468 56.6679C62.922 57.3423 62.5992 57.9356 62.3863 58.5606C62.2089 59.0867 62.0422 59.6164 61.8081 60.1178C61.5739 60.6263 61.4427 61.1736 61.2192 61.6821C60.7687 62.7097 60.5593 63.8008 60.2897 64.8743C60.1478 65.4428 60.1195 66.0431 59.9882 66.6151C59.786 67.4909 59.7789 68.4125 59.3816 69.2458C59.3071 69.4012 59.2645 69.5778 59.1616 69.7119C59.0304 69.8885 58.9701 70.0686 58.9346 70.284C58.8388 70.8631 58.7076 71.4387 58.594 72.0143C58.5657 72.152 58.5302 72.2862 58.5266 72.4239C58.4911 73.3702 58.2889 74.2813 57.9555 75.164C57.6752 75.9162 57.5936 76.7142 57.3453 77.4805C56.9267 78.7658 56.5223 80.0618 56.1143 81.3506C55.8518 82.1804 55.5787 83.0067 55.3729 83.8471C55.2878 84.1967 55.1955 84.5287 54.9756 84.8006C54.784 85.0371 54.745 85.2843 54.7095 85.5703C54.6528 86.0506 54.6244 86.5697 54.4115 86.9863C54.0568 87.6749 53.8865 88.4235 53.5956 89.1297C53.3721 89.6735 53.1841 90.2421 53.0777 90.8212C52.9748 91.3756 52.7903 91.8982 52.6023 92.4208C52.2724 93.3353 52.1128 94.3029 51.6267 95.1715C51.4316 95.5176 51.3288 95.9413 51.3252 96.3792C51.3217 96.7888 51.1798 97.1984 51.1407 97.608C51.1053 98.0247 51.1407 98.4414 50.9563 98.8404C50.8889 98.9887 50.9243 99.1865 50.9172 99.3595C50.9102 99.5678 50.9634 99.8009 50.8924 99.9845C50.6264 100.698 50.6938 101.436 50.7079 102.163C50.7221 102.802 50.4632 103.389 50.417 104.014C50.3993 104.289 50.3248 104.557 50.2787 104.833C50.2326 105.105 50.1829 105.377 50.1403 105.652C50.112 105.825 50.0658 105.998 50.0729 106.168C50.1191 107.082 49.8885 107.954 49.7217 108.844C49.6366 109.3 49.6508 109.794 49.6437 110.274C49.6401 110.656 49.5869 111.026 49.4982 111.408C49.3954 111.86 49.3351 112.336 49.3954 112.838C49.4699 113.484 49.4982 114.148 49.2748 114.808C49.147 115.186 49.2322 115.642 49.257 116.058C49.2641 116.178 49.367 116.327 49.4699 116.397C49.7856 116.616 50.1084 116.832 50.4525 117.001C50.8428 117.192 51.1762 117.442 51.4245 117.785C51.7225 118.195 52.1092 118.438 52.5704 118.64C53.0103 118.834 53.3969 119.155 53.8049 119.42C54.6847 119.985 55.5787 120.529 56.3236 121.274C56.4691 121.419 56.6606 121.525 56.8309 121.645C57.2318 121.924 57.693 122.146 58.0158 122.492C58.3351 122.835 58.516 123.308 58.7537 123.724C58.9239 124.028 59.1333 124.307 59.3284 124.597C59.6938 125.14 59.9811 125.737 60.272 126.327C60.5168 126.821 60.7154 127.337 60.9389 127.842C61.0099 128.001 61.0808 128.174 61.1943 128.297C61.4036 128.52 61.4214 128.785 61.4959 129.056C61.6023 129.455 61.4852 129.872 61.6555 130.268C61.7123 130.402 61.6165 130.603 61.5881 130.773C61.5491 131.013 61.4569 131.256 61.4817 131.489C61.5952 132.559 61.2795 133.559 61.0241 134.569C60.9815 134.735 60.8893 134.89 60.8219 135.049C60.7651 135.176 60.6516 135.307 60.6587 135.43C60.7048 136.136 60.3642 136.79 60.4103 137.499C60.4565 138.195 60.4245 138.901 60.4103 139.6C60.4033 139.982 60.4707 140.37 60.2897 140.737C60.2507 140.819 60.2472 140.953 60.2862 141.034C60.4778 141.437 60.4033 141.86 60.4068 142.277C60.4174 143.432 60.4174 144.59 60.4103 145.745C60.4103 146.126 60.4245 146.504 60.2791 146.882C60.1833 147.129 60.1443 147.461 60.2259 147.704C60.4245 148.28 60.2436 148.796 60.0769 149.311C59.896 149.88 59.715 150.441 59.7682 151.048C59.7789 151.186 59.7789 151.342 59.7257 151.462C59.2468 152.524 59.339 153.718 58.9559 154.802C58.9098 154.929 58.9275 155.081 58.931 155.219C58.9488 156.313 58.7111 157.359 58.2925 158.361C58.2251 158.524 58.1435 158.665 58.2286 158.856C58.2641 158.933 58.2428 159.085 58.1861 159.142C57.8774 159.446 57.8597 159.82 57.8774 160.212C57.8881 160.498 57.8774 160.777 57.6433 160.989C57.4305 161.179 57.6752 161.384 57.6149 161.578C57.5617 161.744 57.4943 161.907 57.4588 162.073C57.2673 163.023 57.0438 163.969 56.9054 164.926C56.7813 165.787 56.4478 166.603 56.3839 167.472C56.3733 167.606 56.2988 167.737 56.2562 167.867C56.1392 168.231 56.0044 168.595 55.9192 168.965C55.8412 169.29 55.8199 169.629 55.7773 169.961C55.7631 170.064 55.7844 170.184 55.7418 170.272C55.3694 171.084 55.6248 171.826 55.9476 172.585C56.2314 173.252 56.5755 173.909 56.6784 174.644C56.9267 174.908 56.5897 175.247 56.799 175.537C56.9622 175.759 57.0615 176.031 57.1715 176.286C57.2956 176.572 57.3843 176.875 57.512 177.161C57.9697 178.185 58.2322 179.252 58.3067 180.375C58.3528 181.063 58.4521 181.755 58.6011 182.43C58.6685 182.741 58.7146 183.044 58.7217 183.358C58.7288 183.673 58.7359 183.976 58.853 184.287C58.9381 184.506 58.9239 184.767 58.931 185.011C58.9417 185.572 58.931 186.13 58.9346 186.692C58.9346 187.006 58.9133 187.32 59.0588 187.621C59.1191 187.741 59.1652 187.91 59.1262 188.023C58.9701 188.475 59.1616 188.913 59.151 189.358C59.1403 189.771 59.0871 190.198 59.2822 190.597C59.3213 190.675 59.2822 190.802 59.2539 190.894C59.0978 191.342 59.1226 191.773 59.261 192.229C59.3496 192.522 59.3248 192.847 59.3567 193.157C59.3993 193.567 59.1971 193.959 59.3319 194.39C59.4454 194.746 59.4809 195.156 59.4312 195.527C59.3567 196.056 59.4525 196.547 59.5554 197.056C59.598 197.254 59.5873 197.487 59.5235 197.677C59.4348 197.946 59.3426 198.186 59.4419 198.486C59.5235 198.733 59.41 199.001 59.5093 199.291C59.6228 199.637 59.6122 200.071 59.5093 200.425C59.3993 200.806 59.3887 201.177 59.3567 201.558C59.3284 201.901 59.2006 202.24 59.2184 202.575C59.2432 203.062 59.0623 203.535 59.151 204.019C59.2326 204.471 58.963 204.906 59.1013 205.354C58.7821 206.145 59.1084 207.031 58.743 207.815C58.7537 208.758 58.4592 209.669 58.4912 210.622C58.5089 211.166 58.3315 211.717 58.2322 212.261C58.0903 213.045 57.8774 213.815 57.8739 214.623C57.8739 214.863 57.7958 215.1 57.7568 215.34C57.7284 215.51 57.6823 215.683 57.6752 215.852C57.6504 216.304 57.6681 216.745 57.5014 217.194C57.363 217.575 57.3985 218.01 57.3027 218.423C57.1325 219.161 57.1076 219.934 57.0367 220.697C57.0048 221.043 57.0615 221.396 56.8841 221.724C56.838 221.813 56.8203 221.933 56.8345 222.032C56.9515 222.914 56.6606 223.758 56.5932 224.627C56.5542 225.132 56.4691 225.64 56.4194 226.149C56.3697 226.636 56.4868 227.148 56.3768 227.614C56.1498 228.582 56.2669 229.564 56.164 230.528C56.093 231.213 56.1072 231.873 56.164 232.551C56.1924 232.883 56.0008 233.229 56.0008 233.568C56.0008 233.907 56.1179 234.246 56.1746 234.588C56.1853 234.655 56.1853 234.737 56.1604 234.797C55.8766 235.432 55.9866 236.107 55.9795 236.764C55.9653 238.201 55.976 239.638 55.9795 241.072C55.9795 241.421 55.9689 241.76 56.1072 242.103C56.1959 242.318 56.1782 242.583 56.1817 242.827C56.1924 243.423 56.1817 244.017 56.1888 244.613C56.1959 245.065 56.1356 245.517 56.3485 245.955C56.4336 246.128 56.391 246.368 56.3946 246.577C56.3981 247.067 56.3946 247.558 56.3946 248.049C56.3946 248.293 56.4017 248.54 56.3981 248.784C56.391 249.274 56.6535 249.716 56.6252 250.224C56.5968 250.669 56.5436 251.125 56.7493 251.57C56.8629 251.81 56.5258 252.092 56.7422 252.364C56.7813 253.233 57.0828 254.07 57.0296 254.949C56.9622 256.061 57.2211 257.149 57.2531 258.254C57.5262 258.925 57.4411 259.628 57.4659 260.323C57.473 260.528 57.5014 260.744 57.5723 260.934C57.7107 261.312 57.6646 261.697 57.6504 262.075C57.6398 262.357 57.0863 262.954 56.8522 262.982C56.462 263.028 55.7099 262.594 55.5787 262.198C55.4048 261.672 55.2133 261.136 55.1494 260.588C55.0217 259.518 54.7769 258.473 54.5463 257.424C54.5109 257.255 54.5002 257.078 54.4931 256.905C54.4683 256.245 54.5534 255.581 54.3016 254.935C54.2306 254.751 54.2838 254.518 54.2767 254.31C54.259 253.858 54.3087 253.409 54.1135 252.968C54.0213 252.76 54.071 252.484 54.0639 252.241C54.0426 251.686 54.1135 251.125 53.8901 250.584C53.8156 250.401 53.8652 250.168 53.8546 249.959C53.8368 249.472 53.8581 248.995 53.6914 248.512C53.5814 248.197 53.6595 247.82 53.6453 247.47C53.624 246.986 53.6843 246.502 53.4821 246.022C53.3792 245.782 53.436 245.471 53.436 245.189C53.4289 243.646 53.436 242.106 53.4218 240.563C53.4218 240.146 53.3615 239.73 53.3615 239.31C53.3615 238.932 53.4182 238.554 53.4218 238.176C53.4218 237.932 53.4324 237.675 53.3473 237.452C53.2302 237.145 53.2231 236.838 53.2267 236.523C53.2302 236.142 53.3012 235.754 53.3083 235.383C53.3154 235.019 53.2692 234.624 53.216 234.246C53.1557 233.826 53.3757 233.441 53.2799 233.01C53.1947 232.643 53.2231 232.244 53.2302 231.862C53.2373 231.308 53.1593 230.746 53.3969 230.206C53.475 230.026 53.4289 229.793 53.436 229.581C53.4573 228.921 53.3757 228.261 53.6133 227.611C53.7056 227.364 53.6382 227.056 53.6453 226.777C53.6595 226.325 53.6063 225.877 53.8014 225.436C53.8936 225.227 53.8404 224.952 53.851 224.708C53.8652 224.327 53.8227 223.938 54.0071 223.575C54.0674 223.458 54.0674 223.299 54.0568 223.162C53.9823 222.282 54.11 221.41 54.3087 220.573C54.5038 219.754 54.3654 218.896 54.6882 218.109C54.6279 217.265 54.9898 216.47 54.933 215.616C54.9046 215.178 55.0252 214.719 55.1352 214.284C55.3835 213.274 55.3694 212.215 55.6815 211.216C55.7418 211.021 55.7277 210.803 55.756 210.594C55.7951 210.319 55.8376 210.047 55.8837 209.775C55.9015 209.673 55.9547 209.57 55.9511 209.471C55.9299 208.419 56.125 207.399 56.3627 206.382C56.4088 206.18 56.3768 205.961 56.3839 205.753C56.4017 205.301 56.3414 204.849 56.5471 204.411C56.6287 204.235 56.5861 203.998 56.5932 203.79C56.6074 203.373 56.5755 202.96 56.7458 202.55C56.8345 202.338 56.8025 202.07 56.8025 201.826C56.8096 200.88 56.8096 199.934 56.8132 198.987C56.8132 198.567 56.838 198.143 56.8061 197.727C56.7742 197.31 56.9338 196.907 56.8735 196.491C56.8132 196.078 56.7316 195.668 56.7068 195.251C56.6926 194.979 56.7954 194.704 56.799 194.429C56.8096 193.341 56.8061 192.257 56.8025 191.169C56.8025 191.028 56.8309 190.873 56.7777 190.753C56.5152 190.149 56.6145 189.513 56.6003 188.888C56.5897 188.436 56.6181 187.988 56.4301 187.546C56.3414 187.335 56.3875 187.063 56.391 186.819C56.3981 186.399 56.3839 185.975 56.4478 185.565C56.5117 185.142 56.3449 184.75 56.3733 184.333C56.423 183.563 56.1746 182.825 56.0682 182.07C56.0398 181.865 55.9618 181.656 55.976 181.455C56.0327 180.714 55.8589 180 55.7454 179.28C55.7347 179.209 55.7383 179.135 55.7099 179.075C55.309 178.32 55.2097 177.493 55.0998 176.663C55.082 176.529 55.004 176.402 54.9472 176.279C54.9188 176.218 54.8692 176.166 54.8301 176.109C54.784 176.151 54.7273 176.187 54.6989 176.236C54.5251 176.515 54.4222 176.822 54.5641 177.133C54.6811 177.384 54.5641 177.596 54.5534 177.829C54.5251 178.803 54.1845 179.75 54.2803 180.735C54.3122 181.077 54.2945 181.423 54.1526 181.766C54.0639 181.981 54.0852 182.246 54.0781 182.49C54.0674 183.016 54.0852 183.542 54.071 184.065C54.0532 184.863 54.149 185.668 53.9716 186.462C54.1809 187.222 54.0461 187.995 54.0639 188.761C54.0781 189.351 54.0816 189.93 53.9113 190.523C53.7801 190.979 53.8617 191.498 53.8652 191.985C53.8688 192.338 53.7588 192.667 53.6949 193.006C53.5743 193.655 52.9464 193.8 52.6165 194.231C52.5881 194.266 52.4781 194.263 52.4143 194.249C52.2476 194.203 52.0879 194.114 51.9176 194.086C51.6764 194.051 51.5664 193.895 51.46 193.705C51.0982 193.051 50.9243 192.345 50.9031 191.607C50.8782 190.767 50.9031 189.926 50.8889 189.086C50.8818 188.775 50.8215 188.468 50.786 188.157C50.7753 188.055 50.7221 187.938 50.7612 187.857C50.9953 187.352 50.8818 186.819 50.8889 186.3C50.9066 184.792 50.896 183.288 50.9031 181.78C50.9031 181.328 50.8392 180.873 51.0698 180.442C51.1301 180.329 51.1053 180.166 51.1124 180.029C51.123 179.679 51.1053 179.336 51.2614 179.001C51.3429 178.821 51.3146 178.588 51.3217 178.38C51.3323 178.03 51.2933 177.68 51.4671 177.352C51.5132 177.264 51.5274 177.147 51.5239 177.045C51.4955 176.028 51.7651 175.05 51.9035 174.057C51.9957 173.408 52.0666 172.744 52.1873 172.101C52.3859 171.045 52.4036 169.961 52.7371 168.93C52.801 168.736 52.7797 168.517 52.8045 168.309C52.8187 168.171 52.8045 168.012 52.8719 167.899C53.1344 167.433 53.1664 166.903 53.3118 166.409C53.4821 165.84 53.5779 165.272 53.6524 164.689C53.6701 164.552 53.6737 164.403 53.734 164.283C54.039 163.679 54.11 163.008 54.22 162.369C54.4151 161.239 54.8656 160.169 54.9437 159.015C54.9578 158.778 55.0714 158.545 55.1565 158.316C55.4403 157.528 55.6993 156.737 55.7809 155.9C55.7986 155.731 55.8979 155.572 55.944 155.406C56.0576 154.968 56.1853 154.544 56.203 154.078C56.2243 153.563 56.313 153.036 56.4691 152.546C56.76 151.649 56.9161 150.734 57.0615 149.805C57.175 149.092 57.4127 148.393 57.5298 147.673C57.6752 146.783 57.8987 145.907 57.8774 144.993C57.8491 143.944 57.8952 142.891 57.8668 141.839C57.8526 141.324 57.9981 140.822 57.9165 140.293C57.8774 140.045 58.0513 139.759 58.147 139.502C58.1967 139.36 58.2251 139.237 58.1364 139.106C58.0655 139 58.0477 138.824 57.8455 138.908C57.4234 139.081 56.9941 139.233 56.5861 139.427C56.1072 139.653 55.6532 139.879 55.0891 139.855C54.7521 139.841 54.3902 139.947 54.0745 140.081C53.6666 140.254 53.255 140.25 52.8364 140.25C51.7438 140.25 50.6547 140.257 49.5621 140.25C49.108 140.25 48.6469 140.317 48.2176 140.088C48.1325 140.042 48.0118 140.052 47.9054 140.049C46.7454 140.031 45.6244 139.784 44.5105 139.495C44.1096 139.392 43.6874 139.346 43.2759 139.29C42.5452 139.187 41.9031 138.799 41.1794 138.658C40.2854 138.485 39.4163 138.216 38.5968 137.807C38.5046 137.761 38.3981 137.747 38.2953 137.718C37.9582 137.627 37.6035 137.581 37.2913 137.436C37.0111 137.305 36.745 137.146 36.4506 137.03C35.6063 136.691 34.7903 136.288 33.9602 135.914C33.2259 135.582 32.4845 135.264 31.7572 134.922C31.0264 134.579 30.3063 134.219 29.6677 133.718C29.5861 133.654 29.501 133.58 29.4052 133.545C28.0004 133.022 26.7411 132.16 25.2688 131.79C24.46 131.588 23.6654 131.32 22.8317 131.207C22.4167 131.15 21.991 131.112 21.6043 130.967C21.0544 130.762 20.501 130.794 19.9405 130.79C19.3126 130.783 18.6918 130.79 18.0639 130.621C17.6346 130.504 17.1557 130.592 16.6981 130.582C16.2121 130.568 15.7083 130.663 15.2507 130.405C14.5412 130.472 13.8743 130.144 13.1719 130.172C12.3631 130.204 11.5649 130.141 10.7773 129.95C10.6425 129.918 10.4864 129.915 10.3765 129.844C9.42927 129.251 8.326 128.951 7.41429 128.287C7.15533 128.096 6.907 127.919 6.76156 127.626C6.71544 127.535 6.66577 127.429 6.58418 127.369C6.37488 127.213 6.27555 126.835 5.94563 126.938C5.67602 127.019 5.73988 127.354 5.64409 127.573C5.40996 128.124 5.23258 128.686 5.29289 129.297C5.30353 129.399 5.31772 129.515 5.28225 129.611C4.95233 130.494 5.14035 131.412 5.09423 132.316C5.08359 132.489 5.05521 132.686 5.11906 132.838C5.38513 133.481 5.27515 134.148 5.29644 134.809C5.31418 135.296 5.2787 135.776 5.46317 136.256C5.5696 136.535 5.4951 136.878 5.50929 137.192C5.54122 137.884 5.41351 138.587 5.69021 139.269C5.76471 139.452 5.72923 139.685 5.71504 139.894C5.66183 140.78 5.86759 141.617 6.13365 142.454C6.37488 143.213 6.57354 143.99 6.76156 144.763C7.09147 146.119 7.50653 147.44 8.15217 148.686C8.40759 149.18 8.59561 149.71 8.8262 150.215C9.18095 151.006 9.55344 151.786 9.90819 152.581C10.0643 152.931 10.2062 153.287 10.3303 153.651C10.6603 154.643 10.9582 155.642 11.3768 156.606C11.6358 157.207 11.7103 157.885 11.9444 158.503C12.2744 159.382 12.5582 160.268 12.7143 161.197C12.7604 161.469 12.8703 161.73 12.9555 161.999C12.9981 162.133 13.1009 162.263 13.0903 162.39C13.0264 163.203 13.3493 163.972 13.3315 164.774C13.3315 164.915 13.2996 165.071 13.3528 165.191C13.6082 165.795 13.5266 166.43 13.5373 167.055C13.5408 167.309 13.5798 167.549 13.7891 167.719C14.261 168.1 14.2397 168.545 13.9914 169.036C13.9275 169.16 13.9204 169.308 13.853 169.428C13.8033 169.513 13.7111 169.601 13.6189 169.626C13.2357 169.728 12.8845 169.732 12.5369 169.442C11.8877 168.898 11.6003 168.146 11.2491 167.426C11.2349 167.394 11.2243 167.359 11.2279 167.324C11.3024 166.48 11.0327 165.667 10.9973 164.834C10.9831 164.52 11.0469 164.184 10.9653 163.891C10.7348 163.09 10.7418 162.242 10.458 161.448C10.0465 160.3 9.68469 159.135 9.29447 157.98C9.27673 157.931 9.22352 157.892 9.1845 157.846C9.15966 157.909 9.12419 157.969 9.11355 158.037C8.9681 158.926 8.65947 159.785 8.66301 160.703C8.66301 161.006 8.54595 161.313 8.4679 161.617C8.17701 162.758 8.02092 163.934 7.64843 165.057C7.39656 165.816 7.36463 166.631 7.02052 167.366C7.08083 168.153 6.7651 168.867 6.58773 169.608C6.35359 170.583 6.17977 171.575 5.98465 172.56C5.95627 172.698 5.93499 172.839 5.94563 172.977C5.99175 173.824 5.75407 174.626 5.59088 175.445C5.46317 176.091 5.41351 176.752 5.29289 177.398C5.15099 178.146 5.14035 178.913 4.95233 179.658C4.89202 179.891 4.88493 180.142 4.88138 180.385C4.87074 180.982 4.88138 181.575 4.87429 182.172C4.86719 182.624 4.91686 183.072 4.72175 183.514C4.62951 183.722 4.67563 183.998 4.67208 184.241C4.67208 186.236 4.67208 188.235 4.67208 190.23C4.67208 190.58 4.66144 190.922 4.81398 191.261C4.89557 191.441 4.86719 191.671 4.87429 191.883C4.88848 192.335 4.84591 192.787 5.04811 193.224C5.11552 193.373 5.08004 193.571 5.08714 193.744C5.10842 194.369 5.03038 194.994 5.26451 195.608C5.35675 195.855 5.28225 196.162 5.29999 196.441C5.34965 197.239 5.16873 198.052 5.45608 198.832C5.23968 199.383 5.57314 199.912 5.51993 200.463C5.488 200.806 5.4951 201.17 5.5696 201.505C5.64409 201.84 5.45608 202.201 5.69731 202.508C5.70795 203.069 5.7115 203.627 5.72569 204.189C5.73633 204.57 5.69731 204.948 5.8534 205.326C5.94208 205.541 5.9208 205.806 5.92435 206.05C5.93499 206.54 5.92435 207.031 5.92789 207.522C5.92789 207.699 5.89242 207.889 5.94918 208.045C6.24362 208.825 6.1301 209.634 6.13365 210.432C6.14429 213.585 6.14074 216.738 6.13365 219.892C6.13365 220.273 6.13365 220.647 6.03787 221.032C5.95273 221.371 6.04496 221.763 6.08044 222.127C6.14784 222.858 6.22588 223.578 5.97756 224.302C5.89242 224.556 5.92789 224.857 5.92789 225.135C5.92435 226.537 5.92789 227.939 5.92435 229.341C5.92435 229.758 5.93854 230.167 5.78245 230.581C5.67602 230.863 5.72923 231.202 5.71504 231.516C5.67602 232.314 5.83921 233.126 5.52348 233.903C5.62281 234.751 5.22549 235.549 5.29289 236.393C5.29999 236.463 5.30708 236.541 5.2858 236.601C4.97007 237.449 5.12261 238.331 5.08359 239.197C5.0694 239.546 5.07649 239.885 4.94524 240.228C4.84945 240.478 4.88493 240.778 4.87429 241.057C4.85655 241.509 4.87429 241.951 4.71465 242.399C4.60113 242.714 4.67563 243.091 4.66144 243.441C4.63306 244.098 4.70755 244.755 4.49825 245.415C4.367 245.832 4.46278 246.319 4.44859 246.774C4.43085 247.364 4.54082 247.964 4.27476 248.533C4.23219 248.621 4.2251 248.748 4.25348 248.844C4.4344 249.437 3.92001 249.786 3.75683 250.256C3.72845 250.337 3.60074 250.387 3.5156 250.443C3.39498 250.528 3.26018 250.57 3.13601 250.457C2.95509 250.291 2.78481 250.115 2.60389 249.945C2.41232 249.765 2.33073 249.553 2.33428 249.289C2.34137 248.798 2.33428 248.307 2.33073 247.816C2.33073 247.255 2.33073 246.697 2.33073 246.135H2.33783L2.33428 246.149ZM46.8341 137.517C47.0434 137.517 47.2562 137.524 47.4655 137.517C47.6145 137.51 47.7387 137.358 47.6677 137.228C47.4975 136.896 47.5258 136.546 47.5223 136.2C47.5187 135.709 47.5329 135.218 47.5187 134.727C47.5117 134.487 47.4868 134.24 47.4301 134.007C47.2988 133.47 47.1746 132.941 47.2953 132.379C47.3378 132.185 47.3236 131.941 47.242 131.765C47.0895 131.426 47.1072 131.083 47.1037 130.734C47.1037 129.858 47.1001 128.982 47.1037 128.107C47.1037 127.651 47.1108 127.199 46.9405 126.768C47.2208 126.147 46.827 125.472 47.1001 124.851C47.015 123.428 47.2953 121.984 46.9015 120.575C46.8731 120.476 46.8908 120.366 46.8908 120.26C46.8908 120.119 46.8944 119.981 46.8908 119.84C46.8518 119.145 46.9121 118.449 46.8163 117.75C46.7418 117.209 46.8696 116.644 46.8873 116.09C46.905 115.497 46.8696 114.897 46.905 114.303C46.937 113.756 47.093 113.209 47.0824 112.665C47.0718 112.061 47.2172 111.493 47.3236 110.913C47.423 110.366 47.4833 109.815 47.572 109.268C47.6571 108.752 47.7387 108.24 47.7493 107.718C47.7493 107.58 47.8096 107.446 47.8274 107.312C47.8699 107.04 47.9303 106.764 47.9374 106.489C47.9551 105.825 47.9444 105.158 47.9515 104.494C47.9515 104.285 47.9161 104.049 47.9977 103.872C48.1857 103.466 48.1644 103.05 48.1537 102.636C48.136 101.863 48.3666 101.125 48.4659 100.369C48.5865 99.4442 48.6859 98.5155 48.9768 97.6151C49.1577 97.0607 49.1116 96.4392 49.2641 95.8742C49.6827 94.3311 50.0517 92.7774 50.598 91.2732C50.7044 90.9801 50.8108 90.6834 50.8889 90.3798C51.2188 89.105 51.3926 87.7879 51.9035 86.5591C51.9425 86.4637 51.9318 86.3507 51.9638 86.2519C52.3043 85.1572 52.6378 84.059 52.9961 82.9714C53.0954 82.6748 53.2444 82.3994 53.2409 82.071C53.2409 81.905 53.3047 81.7285 53.3757 81.5731C54.0568 80.0476 54.596 78.4657 55.1246 76.8837C55.3764 76.128 55.5858 75.3512 55.7454 74.5708C55.8837 73.8928 56.1037 73.236 56.2101 72.5439C56.3733 71.4493 56.6003 70.3617 56.9019 69.2917C57.4411 67.3531 57.9697 65.4145 58.4486 63.4583C58.7537 62.2118 59.0658 60.9653 59.3958 59.7223C59.4845 59.3869 59.6157 59.0585 59.7718 58.7477C60.3429 57.5895 60.8715 56.4172 61.1518 55.1495C61.3362 54.3091 61.8755 53.6452 62.3224 52.9461C62.8652 52.095 63.3654 51.2087 64.1033 50.4954C64.2523 50.3507 64.2346 50.0858 64.1104 49.9128C64.0678 49.8563 64.0146 49.8104 63.972 49.7539C63.1774 48.7369 62.6524 47.6211 62.734 46.2898C62.7588 45.8696 62.702 45.4388 62.7765 45.0327C62.9362 44.1711 63.3016 43.3802 63.784 42.6422C64.458 41.6146 65.2598 40.6965 66.1537 39.8561C66.7142 39.3299 67.2357 38.7756 67.9559 38.426C68.3603 38.2282 68.7257 37.9599 69.1727 37.8363C69.2543 37.8151 69.311 37.695 69.3784 37.6209C69.2933 37.582 69.1833 37.4937 69.1301 37.5185C68.7008 37.7303 68.2432 37.695 67.7856 37.7056C67.6118 37.7091 67.4273 37.7091 67.2677 37.7727C66.7142 37.9881 66.1892 38.3094 65.6181 38.4436C64.9795 38.5955 64.4829 38.9345 63.9578 39.2734C63.5854 39.51 63.1455 39.6477 62.734 39.8243C62.4785 39.9338 62.255 40.075 62.0422 40.2728C61.8577 40.4423 61.5349 40.4599 61.2759 40.5482C61.244 40.5588 61.2121 40.587 61.1943 40.6153C60.9425 40.9966 60.4636 41.0037 60.1372 41.2544C59.7931 41.5193 59.3993 41.6428 59.002 41.777C58.7359 41.8688 58.5018 42.0101 58.5053 42.3703C58.5053 42.5221 58.4167 42.7446 58.296 42.8187C57.4446 43.3449 56.8274 44.1217 56.1392 44.8138C55.3516 45.6048 54.6173 46.4523 53.8688 47.2821C53.7765 47.3845 53.7233 47.5187 53.6417 47.6317C53.0316 48.4544 52.6307 49.3902 52.2227 50.3154C51.9957 50.838 51.7012 51.2899 51.3181 51.7031C50.6796 52.3952 50.0517 53.1014 49.4273 53.8077C49.3138 53.9383 49.2357 54.1007 49.147 54.2491C48.3985 55.4779 47.313 56.4384 46.4474 57.5719C46.1281 57.706 45.9933 57.9921 45.8585 58.2781C45.6528 58.7265 45.4399 59.1644 44.9539 59.3975C44.8723 59.4363 44.8191 59.5528 44.7659 59.6376C44.5459 59.9942 44.2834 60.3332 44.1273 60.7181C43.8648 61.3784 43.2085 61.6503 42.8006 62.1588C42.7864 62.1765 42.6055 62.1094 42.5664 62.0423C42.46 61.8693 42.4316 61.6256 42.2933 61.495C42.1195 61.3325 42.045 61.1736 42.045 60.9512C42.0485 60.6016 41.9776 60.2308 42.0662 59.9059C42.1833 59.4751 42.0662 59.0797 42.0201 58.6771C41.8818 57.4871 41.3603 56.4843 40.3989 55.7321C39.7817 55.5132 39.6078 54.8741 39.1857 54.468C39.0473 54.3373 39.1821 54.016 39.3843 53.9666C39.4766 53.9454 39.5972 53.9418 39.6788 53.9807C40.1896 54.2137 40.6792 54.4962 41.2042 54.694C42.311 55.1142 43.0312 55.944 43.6449 56.8939C43.691 56.968 43.691 57.1022 43.6591 57.187C43.5704 57.4236 43.6874 57.5825 43.8187 57.7484C43.9464 57.646 44.0564 57.5012 44.2018 57.4483C44.6311 57.2929 44.475 56.7244 44.8688 56.5584C45.0923 56.057 45.4009 55.5944 45.5712 55.0647C45.6563 54.7964 45.6066 54.5774 45.4044 54.4044C44.9575 54.016 44.5069 53.6276 44.0422 53.2603C43.3824 52.7412 42.6267 52.3599 41.8605 52.0491C40.853 51.6395 39.8491 51.2405 38.8841 50.7391C38.1995 50.386 37.5042 50.0611 36.7485 49.8634C36.2413 49.7327 35.7481 49.542 35.2621 49.3478C34.0915 48.8817 32.9137 48.458 31.6827 48.179C31.2783 48.0872 30.8845 47.9389 30.4872 47.8118C29.8558 47.6105 29.2385 47.3492 28.5928 47.2256C28.0856 47.1267 27.5463 47.1973 27.0178 47.1938C26.5459 47.5222 25.9606 47.5363 25.4462 47.7517C23.9102 48.3944 22.7572 49.4891 21.7568 50.7744C21.1005 51.6183 20.313 52.2681 19.2842 52.6459C18.1455 53.0626 17.1699 53.7264 16.4781 54.754C16.4214 54.8423 16.3717 54.9623 16.2901 55.0012C15.9638 55.146 15.8822 55.439 15.758 55.7286C15.6197 56.0464 15.3749 56.3183 15.2543 56.6361C15.0343 57.2152 14.9279 57.8261 14.6157 58.3805C14.4348 58.7018 14.4419 59.1256 14.2929 59.4716C14.1474 59.8212 13.9062 60.1319 13.7253 60.4674C13.6437 60.6192 13.5905 60.7887 13.5337 60.9512C13.1541 62.0176 12.5475 62.9675 11.8416 63.8255C11.3449 64.4294 10.6886 64.9166 10.0714 65.4181C9.69888 65.7182 9.15612 65.7712 8.85103 66.1879C8.27988 66.2161 8.01737 66.8093 7.49589 66.9259C7.46041 66.9329 7.42139 66.9365 7.39656 66.9577C7.34335 67 7.25821 67.0459 7.25466 67.0989C7.22983 67.4344 6.93538 67.5262 6.74027 67.7169C6.54516 67.9111 6.36069 68.1441 6.26491 68.3948C6.09463 68.8468 6.03787 69.3412 5.78245 69.7684C5.75407 69.8179 5.75761 69.9203 5.78954 69.9697C5.99884 70.2557 5.81792 70.5135 5.72569 70.7607C5.46317 71.4528 5.44898 72.1908 5.32837 72.9041C5.23613 73.4479 5.30708 74.02 4.97716 74.5143C4.92395 74.5955 4.89202 74.7156 4.89557 74.8145C4.91686 75.277 4.84591 75.7114 4.54437 76.0857C4.52309 76.746 4.1506 77.2651 3.78166 77.7594C3.54752 78.0702 3.33822 78.3845 3.17149 78.7305C3.01895 79.0448 2.90543 79.3944 2.68548 79.6592C2.03629 80.4431 2.0221 81.3859 1.92277 82.3146C1.85537 82.9538 2.06467 83.5435 2.21721 84.1579C2.45489 85.129 2.90897 85.9764 3.45884 86.7851C3.94839 87.5054 4.49116 88.1869 4.9204 88.9461C5.12971 89.3169 5.40641 89.6241 5.70085 89.9278C5.89242 90.1255 6.08044 90.348 6.19396 90.5952C6.64094 91.5486 7.31851 92.3572 7.86483 93.2506C7.94997 93.3883 8.10251 93.5543 8.24441 93.579C8.75525 93.6673 9.0355 94.031 9.28028 94.4053C10.1352 95.7189 10.9689 97.0501 11.8061 98.3743C11.8416 98.4343 11.877 98.4979 11.8912 98.565C12.0473 99.2641 12.5262 99.8009 12.8313 100.422C13.2641 101.298 13.7005 102.177 14.0481 103.088C14.3816 103.968 14.8747 104.783 15.0769 105.712C15.201 106.288 15.3429 106.863 15.5203 107.425C15.6871 107.958 15.8006 108.495 15.9035 109.042C16.0063 109.596 16.0666 110.14 16.0808 110.698C16.0808 110.836 16.0595 110.998 16.1199 111.111C16.3114 111.475 16.2547 111.86 16.2901 112.241C16.3327 112.69 16.4498 113.127 16.4852 113.576C16.5243 114.028 16.4923 114.487 16.5136 114.942C16.5207 115.077 16.6023 115.207 16.6271 115.341C16.7974 116.295 17.2089 117.206 17.1451 118.205C17.1344 118.368 17.2054 118.548 17.2692 118.707C17.5105 119.3 17.5708 119.918 17.5495 120.553C17.5282 121.182 17.5424 121.814 17.5495 122.446C17.5495 122.654 17.5105 122.891 17.5921 123.071C17.8085 123.544 17.7517 124.032 17.7588 124.515C17.7694 125.077 17.7694 125.635 17.7659 126.196C17.7659 126.479 17.8085 126.729 17.9858 126.98C18.2377 127.333 18.3335 127.785 18.3158 128.039C18.2874 128.499 18.2874 128.502 18.6989 128.509C19.678 128.534 20.6642 128.421 21.6256 128.71C21.7533 128.749 21.9058 128.714 22.0477 128.725C22.1861 128.732 22.3422 128.721 22.4628 128.77C23.3 129.124 24.2649 129.035 25.0702 129.505C25.1553 129.554 25.2759 129.533 25.3788 129.558C25.6484 129.618 25.9216 129.674 26.1912 129.749C27.2448 130.035 28.2452 130.437 29.2101 130.949C29.6394 131.175 30.0509 131.461 30.5724 131.482C30.6965 131.486 30.8526 131.567 30.9377 131.662C31.2712 132.051 31.8175 132.132 32.1545 132.471C32.5235 132.845 32.9988 132.948 33.4352 133.156C34.1305 133.485 34.8364 133.792 35.5388 134.11C35.7623 134.212 35.9858 134.311 36.1171 134.54C36.1597 134.614 36.2838 134.713 36.3299 134.696C36.6918 134.554 36.9224 134.848 37.2097 134.932C37.5113 135.021 37.8305 135.059 38.1108 135.187C39.2566 135.702 40.4238 136.154 41.6583 136.422C42.4387 136.592 43.2014 136.85 43.9819 137.04C44.9255 137.27 45.8621 137.545 46.8447 137.535L46.8341 137.517ZM58.9169 130.345C58.9559 129.674 58.9381 129.014 58.6579 128.389C58.3883 127.785 58.1364 127.171 57.8526 126.574C57.7178 126.295 57.5262 126.041 57.356 125.78C57.2034 125.546 57.0331 125.324 56.8983 125.084C56.4336 124.247 55.8589 123.53 55.0217 123.022C54.369 122.623 53.7411 122.178 53.1876 121.638C53.0635 121.517 52.9109 121.429 52.7584 121.341C52.2759 121.058 51.7757 120.804 51.3075 120.5C50.786 120.161 50.2077 119.886 49.9239 119.261C49.8317 119.056 49.5834 118.919 49.4025 118.753C49.3847 118.738 49.3386 118.738 49.3173 118.753C49.2925 118.77 49.257 118.82 49.2641 118.834C49.4912 119.296 49.4096 119.791 49.4379 120.274C49.445 120.412 49.4699 120.553 49.5195 120.681C49.6969 121.125 49.6863 121.56 49.5337 122.012C49.4947 122.132 49.5231 122.277 49.5373 122.411C49.5657 122.651 49.6366 122.891 49.6331 123.128C49.6331 123.611 49.7217 124.109 49.5195 124.579C49.7111 124.932 49.5302 125.176 49.2783 125.395C49.0796 125.568 48.9981 125.79 49.0122 126.048C49.0229 126.292 48.959 126.563 49.0442 126.775C49.296 127.386 49.2003 128.015 49.2215 128.64C49.2322 128.954 49.1577 129.3 49.2677 129.576C49.4734 130.091 49.4131 130.607 49.4344 131.126C49.445 131.44 49.3883 131.772 49.4734 132.065C49.5834 132.439 49.6898 132.81 49.6366 133.191C49.5763 133.633 49.8636 134.004 49.8424 134.42C49.7891 135.413 50.151 136.334 50.2964 137.291C50.3213 137.457 50.4029 137.63 50.5057 137.764C50.6441 137.948 50.8215 137.754 50.9811 137.757C51.3678 137.764 51.7686 137.704 52.1376 137.785C52.4569 137.856 52.7265 137.895 53.0422 137.785C53.216 137.725 53.514 137.902 53.6275 137.814C53.9326 137.57 54.2803 137.605 54.6066 137.506C55.1707 137.337 55.7418 137.167 56.2811 136.938C56.6606 136.776 57.0083 136.521 57.3382 136.267C57.6149 136.055 57.8278 135.797 57.9094 135.416C58.0442 134.773 58.2322 134.141 58.4202 133.509C58.5692 133.008 58.6685 132.506 58.7537 131.987C58.8459 131.436 58.9523 130.896 58.9133 130.342L58.9169 130.345ZM15.3607 128.237C15.6622 128.301 15.8644 128.149 15.7864 127.99C15.5452 127.527 15.7509 127.001 15.5806 126.549C15.4104 126.101 15.4387 125.656 15.4316 125.207C15.421 124.544 15.4281 123.876 15.421 123.212C15.421 123.004 15.4636 122.764 15.382 122.587C15.162 122.114 15.2294 121.627 15.2152 121.143C15.2081 120.967 15.233 120.786 15.1975 120.621C15.0414 119.872 15.0059 119.113 14.9882 118.35C14.9776 118.011 14.8498 117.672 14.7505 117.34C14.7079 117.195 14.5483 117.139 14.4064 117.167C14.2042 117.206 13.9914 117.248 13.814 117.344C13.3244 117.616 12.8455 117.902 12.3772 118.205C11.7032 118.643 11.0682 119.123 10.451 119.646C9.89045 120.123 9.32285 120.585 8.8191 121.118C8.51047 121.447 8.15927 121.786 7.99254 122.188C7.77259 122.718 7.30432 123.174 7.39656 123.82C7.22273 124.155 7.24401 124.477 7.44267 124.801C7.51362 124.918 7.60941 125.059 7.59876 125.183C7.55974 125.681 7.91094 125.931 8.19474 126.239C8.5424 126.613 9.01776 126.765 9.45411 126.984C9.60665 127.061 9.8195 127.058 9.94011 127.164C10.6673 127.813 11.6323 127.771 12.4872 128.039C12.6043 128.075 12.7568 127.997 12.8916 127.983C13.0229 127.969 13.1612 127.955 13.2925 127.965C13.5692 127.994 13.8424 128.054 14.1191 128.071C14.5731 128.1 15.0379 128.011 15.3642 128.237H15.3607ZM73.5325 37.5255C73.4651 37.5396 73.3942 37.5396 73.3339 37.5644C72.4931 37.9245 71.7659 38.486 70.9748 38.9239C69.7474 39.6054 68.6015 40.3893 67.4982 41.2474C67.2499 41.4416 66.9697 41.5969 66.7497 41.8159C66.505 42.0595 66.3134 42.3561 66.1076 42.6351C65.5826 43.3413 65.1356 44.0864 64.905 44.9409C64.7702 45.4459 64.678 45.9544 64.9228 46.4593C64.9831 46.5829 65.0434 46.7206 65.0469 46.8548C65.0469 47.3598 65.4584 47.6458 65.6677 48.0378C65.6819 48.0625 65.8132 48.0695 65.838 48.0413C66.5617 47.1479 67.2393 46.2227 67.9523 45.3223C68.5377 44.5843 69.084 43.818 69.7793 43.1754C69.9318 43.0341 70.095 42.8893 70.2156 42.7198C70.9677 41.6746 71.7056 40.6188 72.4506 39.5701C72.5109 39.4853 72.5499 39.3794 72.6244 39.3123C73.1104 38.8709 73.3019 38.26 73.5822 37.6986C73.5999 37.6597 73.5538 37.5856 73.5361 37.5291L73.5325 37.5255Z" fill="black"/>
<path d="M47.2669 23.2879C45.1455 21.0527 42.9177 18.5244 40.9311 16.1586C39.9129 14.9474 38.6961 13.8774 37.937 12.472C37.1352 11.0313 36.479 9.56236 36.2129 7.88154C36.1916 7.75795 36.3335 7.65554 36.4435 7.7191C37.2346 8.12519 37.9015 8.62308 38.5259 9.14569C39.7462 10.198 40.8424 11.3562 41.6157 12.7651C42.2543 13.9904 43.276 15.6889 44.0032 16.8824C45.1632 18.8811 46.4297 21.0845 47.4975 23.1255C47.572 23.2632 47.3769 23.4115 47.2669 23.2879Z" fill="#C21146"/>
<path d="M67.2464 18.7398C67.3067 16.4446 67.4699 13.9057 67.6295 11.6033C67.7572 10.2015 67.924 8.24875 67.9559 6.85748C68.1262 4.42099 68.9634 2.09396 70.3753 0.0600197C70.4462 -0.0423837 70.6201 -0.0141345 70.6555 0.105925C71.1557 1.73025 71.2161 3.34046 71.1345 4.98244C71.0742 6.57852 70.4533 8.0722 70.0738 9.60472C69.7935 10.7559 69.1904 13.0652 68.8712 14.2058C68.4384 15.7348 68.0127 17.2638 67.5302 18.7822C67.4876 18.934 67.2393 18.8987 67.2499 18.7363L67.2464 18.7398Z" fill="#C21146"/>
<path d="M84.6043 29.5875C86.8498 27.4759 89.3898 25.2583 91.7667 23.2809C92.9834 22.2674 94.0583 21.0562 95.4702 20.3006C96.9176 19.5025 98.3934 18.8493 100.082 18.5844C100.206 18.5632 100.309 18.7045 100.249 18.814C99.8408 19.6014 99.3406 20.2653 98.8155 20.8867C97.7584 22.1015 96.5948 23.1926 95.1793 23.9624C93.9484 24.598 92.242 25.615 91.043 26.3388C89.0351 27.4935 86.8215 28.7541 84.771 29.817C84.6326 29.8912 84.4837 29.697 84.6043 29.5875Z" fill="#C21146"/>
<path d="M89.1734 49.4749C91.4793 49.535 94.03 49.6974 96.3429 49.8563C97.7513 49.9834 99.713 50.1494 101.111 50.1812C103.559 50.3507 105.896 51.184 107.94 52.5894C108.043 52.66 108.014 52.8331 107.894 52.8684C106.262 53.3663 104.644 53.4263 102.994 53.3451C101.391 53.2851 99.8904 52.6671 98.3508 52.2893C97.1943 52.0103 94.8743 51.41 93.7284 51.0922C92.1924 50.6614 90.6563 50.2377 89.1309 49.7574C88.9783 49.7151 89.0138 49.4679 89.177 49.4785L89.1734 49.4749Z" fill="#C21146"/>
</g>
<defs>
<clipPath id="clip0_811_4286">
<rect width="108" height="263" fill="white"/>
</clipPath>
</defs>
</svg>
