<?xml version="1.0" encoding="utf-8"?>
<!-- Generator: Adobe Illustrator 27.3.1, SVG Export Plug-In . SVG Version: 6.00 Build 0)  -->
<svg version="1.1" id="Calque_1" xmlns="http://www.w3.org/2000/svg" xmlns:xlink="http://www.w3.org/1999/xlink" x="0px" y="0px"
	 viewBox="0 0 152 110" style="enable-background:new 0 0 152 110;" xml:space="preserve">
<style type="text/css">
	.st0{clip-path:url(#SVGID_00000136376395313627504480000010501458234736159150_);}
	.st1{opacity:0.5;}
	.st2{opacity:0.3;}
	.st3{opacity:0.8;fill:#B1B1B1;enable-background:new    ;}
	.st4{opacity:0.6;fill:#B1B1B1;enable-background:new    ;}
	.st5{opacity:0.5;fill:#B1B1B1;enable-background:new    ;}
	.st6{opacity:0.8;}
	.st7{fill:#B1B1B1;}
	.st8{fill:#A3998F;}
	.st9{fill:#C6BBB1;}
	.st10{fill:#DAD4CE;}
</style>
<g>
	<defs>
		<rect id="SVGID_1_" x="0.5" y="0" width="151" height="110"/>
	</defs>
	<clipPath id="SVGID_00000075135322135440260620000014062515325159754639_">
		<use xlink:href="#SVGID_1_"  style="overflow:visible;"/>
	</clipPath>
	<g style="clip-path:url(#SVGID_00000075135322135440260620000014062515325159754639_);">
		<g class="st1">
			<g class="st2">
				<path class="st3" d="M129.2,53.5c-1.2,71.4-107.5,71.3-108.7,0C21.7-17.8,128-17.8,129.2,53.5z"/>
				<path class="st4" d="M64.2,75.9c-0.7,41.8-63,41.8-63.7,0C1.2,34.1,63.5,34.1,64.2,75.9z"/>
				<path class="st4" d="M85.5,75.9c0.7,41.8,63,41.8,63.7,0C148.5,34.1,86.2,34.1,85.5,75.9z"/>
				<path class="st5" d="M105.6,43.5c0.5,28.6,43.2,28.6,43.6,0C148.7,14.9,106.1,14.9,105.6,43.5z"/>
				<path class="st5" d="M44.1,43.5C43.6,72.2,1,72.2,0.5,43.5C1,14.9,43.7,14.9,44.1,43.5z"/>
				<path class="st5" d="M134,108c3.2,2.7-121.4,2.7-118.2,0C12.6,105.3,137.1,105.3,134,108z"/>
			</g>
		</g>
		<g class="st1">
			<g class="st6">
				<path class="st7" d="M16.2,71.8c-0.6-0.2,0.1-0.7,0.3-1c2.5-3,5.9-6.8,8.6-10c-1,1-2.1,2.1-3.1,3.2c-7.2,7.3-7.3,7.3-7.4,7.3
					c-0.3,0-0.3-0.4-0.1-0.5c3.1-3.7,7.5-8.5,10.8-12.3c-2.9,3-6.9,7.1-9.7,9.9c-2.8,2.7-2.5,2.7-3,2.6c-0.2-0.2-0.1-0.4,0.5-1
					c3.2-3.7,7.7-8.6,11.1-12.5c-2.8,2.7-13.6,14-12.7,12.7c-0.1,0-0.1,0-0.2-0.1c-0.2-0.2-0.1-0.3,0.6-1.1
					c3.1-3.6,7.4-8.3,10.8-12.1c-1.1,1.1-2.3,2.4-3.5,3.6c-8.2,8.3-8.6,8.7-8.9,8.7C9.7,69,9.9,68.8,10.6,68
					c3.2-3.7,7.6-8.5,11-12.4C20,57.2,18,59.2,16.3,61c-7,7.1-7,7.1-7.2,7.1c-0.1,0-0.1,0-0.2-0.1c-0.2-0.5,0.5-0.9,0.8-1.5
					c2.6-3.1,6-6.9,9-10.2C16.4,58.7,9.5,66,8.2,66.8c-0.1,0-0.1,0-0.2-0.1c-0.2-0.4,0.3-0.6,0.5-1c3.2-3.7,7.7-8.7,11.1-12.5
					c-1.3,1.4-2.9,3-4.4,4.5c-7.3,7.4-7.7,7.8-7.9,7.8c-0.5-0.2-0.3-0.3,0.4-1.1c2.9-3.4,6.8-7.8,10-11.3c-1.2,1.2-2.6,2.7-4,4
					c-7,7.1-7,7.1-7.2,7.1c-0.4-0.1-0.3-0.3,0.1-0.8c3-3.5,7-8,10.1-11.6C15.2,53.2,6,62.8,6.3,62.2c-0.1,0-0.1,0-0.2-0.1
					c-0.2-0.4,0.3-0.6,0.5-1c2.2-2.6,5-6,7.5-8.9c-0.8,0.8-1.6,1.7-2.4,2.5c-5.6,5.6-5.2,5.6-5.8,5.4c-0.3-0.4,0.9-1.4,1.3-2.1
					c1.3-1.6,3.3-4,4.7-5.9c-7.6,8-6.7,6.2-2.8,0.7c-0.7,0.7-0.8,0.7-0.9,0.7c-0.2,0-0.3-0.3-0.1-0.4C8.4,53.1,9,52.4,9.5,52
					c0.7-0.7,1.1-1.1,1.2-1.1c0.6,0.2-0.2,0.9-0.4,1.3c-0.7,1.1-1.8,2.6-2.5,3.8c1.1-1,7.3-7.6,6.9-6.9c0.4,0.1,0.3,0.3-0.1,0.8
					c-1.8,2.3-4.2,5.2-6.1,7.6c0.9-0.9,2-2,3-3.1c5.6-5.8,5.7-5.8,5.9-5.8c0.3,0,0.3,0.4,0.1,0.5c-2.3,2.8-5.3,6.2-7.8,9.2
					c17.1-17.7,8.1-6.6,1,1.2c0.9-0.9,1.8-1.8,2.7-2.7c7.6-7.7,7.6-7.7,7.8-7.7c0.5,0.2,0.3,0.3-0.4,1.1c-2.9,3.5-7,8-10.2,11.6
					c1.3-1.3,2.9-2.9,4.3-4.4c7.2-7.4,7.6-7.8,7.9-7.8c0.5,0.2,0.3,0.3-0.5,1.3c-3.1,3.6-7.3,8.3-10.7,12.1
					c1.9-1.8,13.2-13.6,12.4-12.4c0.1,0,0.1,0,0.2,0.1c0.2,0.3-0.2,0.5-0.4,0.8c-3.4,3.9-7.9,8.9-11.4,12.9c1.1-1.1,2.4-2.4,3.6-3.7
					c9.2-9.2,8.7-9.1,9.4-9c0.2,0.2,0.1,0.3-0.6,1.1c-3.2,3.7-7.7,8.7-11.2,12.6c1.6-1.6,3.5-3.5,5.2-5.3c7.2-7.4,7.3-7.4,7.5-7.4
					c0.1,0,0.1,0,0.2,0.1c0.2,0.2,0.1,0.3-0.6,1.1c-3,3.5-7.2,8.1-10.6,11.9c1-1,2.2-2.2,3.2-3.3c8-8.2,8.4-8.5,8.6-8.5
					c0.5,0.2,0.3,0.4-0.4,1.2c-3.1,3.7-7.5,8.5-10.9,12.3c3-3,12.9-13.4,12.3-12.3c0.1,0,0.1,0,0.2,0.1c0.2,0.2,0.1,0.3-0.7,1.2
					c-2.7,3.2-6.2,7.1-9.3,10.6c3.5-3.5,10.5-10.8,10.2-10.1c0.3,0,0.3,0.3,0.1,0.6c-2.6,3.1-5.9,6.9-8.8,10.2
					c0.6-0.6,1.3-1.3,1.9-2c6.8-7,7.5-7.6,7.1-6.4c-2.3,2.8-5.3,6.3-7.7,9.3c1.4-1.3,8.4-8.7,7.9-7.9c0.1,0,0.1,0,0.2,0.1
					c0.2,0.3-0.2,0.5-0.4,0.8c-1.5,1.9-3.4,4.3-5.1,6.4c4.7-4.8,5.1-5.3,5-4.3c-0.4,0.3-2.8,2.8-4.7,4.7c-1.9,1.9-2.8,2.8-2.9,2.8
					c-0.4-0.1-0.3-0.2,0.1-0.8c1.6-2,3.7-4.6,5.4-6.8c-0.4,0.4-0.9,0.9-1.3,1.3c-6.4,6.6-6.5,6.6-6.7,6.6c-0.1,0-0.1,0-0.2-0.1
					c-0.1-0.1,0.4-0.9,1.7-2.4c1.7-2,4.2-5,6-7.2c-1.2,1.2-2.7,2.7-4,4C16.4,71.8,16.4,71.8,16.2,71.8L16.2,71.8z M28.3,63.9
					C28.3,63.9,28.4,63.9,28.3,63.9C28.4,63.9,28.3,63.9,28.3,63.9z M8.4,53.1c0.1,0,0.1,0,0.2,0.1c-0.1-0.1-0.2-0.1-0.3,0
					C8.3,53.1,8.3,53.1,8.4,53.1z"/>
			</g>
			<g class="st6">
				<path class="st7" d="M73.9,23.9c-0.4-0.1,0.1-0.5,0.2-0.8c1.8-2.2,4.3-5,6.3-7.3c-0.7,0.7-1.5,1.6-2.3,2.3
					c-5.3,5.4-5.3,5.4-5.5,5.4c-0.2,0-0.2-0.3-0.1-0.4c2.3-2.7,5.5-6.2,7.9-9.1c-2.4,2.3-7.1,7.6-9.2,9.2c-0.3-0.1-0.2-0.3,0.3-0.8
					c2.3-2.7,5.6-6.3,8.1-9.2c-2,2-10,10.2-9.3,9.3c0,0-0.1,0-0.1-0.1c-0.2-0.4,1.1-1.5,1.6-2.2c1.9-2.1,4.7-5.2,6.7-7.5
					c-15.2,15.8-8.7,7.8-0.7-0.9c-1.2,1.2-2.6,2.7-3.9,4c-5.1,5.2-5.2,5.2-5.3,5.2c0,0-0.1,0-0.1-0.1c-0.2-0.4,0.4-0.7,0.6-1.1
					c1.9-2.2,4.4-5,6.6-7.5C74,14.3,69,19.7,68,20.3c-0.4-0.1,0.1-0.5,0.2-0.8c2.3-2.7,5.7-6.4,8.2-9.2C63.1,24,65.7,20.4,74.9,10.2
					c-13.8,14.1-7.8,7.1-0.7-0.9c-1.1,1.1-7.9,8.1-7.6,7.6c0,0-0.1,0-0.1-0.1c-0.2-0.3,0.2-0.5,0.4-0.7c1.6-1.9,3.7-4.4,5.5-6.5
					c-8.4,8.8-7.1,6.7-1.5,0C65.3,15.4,66,14,68.8,10c-0.5,0.5-0.6,0.5-0.6,0.5c-0.2,0-0.2-0.2-0.1-0.3c0.2-0.1,1.8-1.9,1.8-1.7
					c0.7,0-2,3.2-2.2,3.7c0.8-0.8,5.4-5.6,5.1-5.1c0.3,0.1,0.2,0.2-0.1,0.6c-1.3,1.7-3.1,3.8-4.5,5.6c0.7-0.7,1.5-1.5,2.2-2.2
					c4.1-4.2,4.2-4.2,4.3-4.2c0.2,0,0.2,0.3,0.1,0.4c-1.7,2-3.9,4.6-5.7,6.8c12.5-12.9,5.9-4.8,0.7,0.9c14.2-14.6,6-4.9-0.1,1.7
					c1-1,2.1-2.1,3.2-3.2c5.3-5.5,5.6-5.7,5.8-5.7c0,0,0.1,0,0.1,0.1c0.1,0.1,0.1,0.2-0.5,0.9c-2.3,2.6-5.4,6.1-7.9,8.9
					c1.4-1.3,9.7-10,9.1-9.1c0,0,0.1,0,0.1,0.1c0.2,0.3-0.7,1-1.1,1.5c-2.2,2.5-5.3,5.9-7.6,8.6c15.7-16.1,9.1-8.3,0.9,0.8
					c1.2-1.2,2.6-2.6,3.8-3.9c5.3-5.4,5.3-5.4,5.5-5.4c0,0,0.1,0,0.1,0.1c0.2,0.4-1.2,1.5-1.7,2.3c-1.8,2.1-4.5,5-6.5,7.3
					c15.2-15.6,7.8-6.8,0.4,1.3C85.2,8.5,85.7,9,75.4,20.4c11.8-12.2,8-7.4,1.1,0.5c11.1-11.5,6.2-5.4,0.9,0.7c1-1,6.1-6.3,5.8-5.8
					c0.6,0.1-0.6,1.2-0.9,1.7c-0.8,1-2,2.5-3,3.7c3.5-3.5,3.2-3.5,3.6-3.4c0.2,0.3-2.2,2.2-3.5,3.7c-1.4,1.4-2.1,2.1-2.1,2.1
					c0,0-0.1,0-0.1-0.1c-0.1-0.1-0.1-0.2,0.2-0.5c1.2-1.5,2.7-3.4,4-5c-3.5,3.6-5.8,6-5.9,5.8c0,0-0.1,0-0.1-0.1
					c-0.1-0.1,0.3-0.7,1.2-1.8c1.2-1.5,3-3.6,4.4-5.3c-0.9,0.9-2,2-2.9,3C74,23.9,74,23.9,73.9,23.9L73.9,23.9z M82.8,18.1
					C82.8,18.1,82.8,18.1,82.8,18.1C82.8,18.1,82.8,18.1,82.8,18.1z M68.1,10.2c0,0,0.1,0,0.1,0.1C68.2,10.2,68.1,10.2,68.1,10.2
					C68.1,10.2,68.1,10.2,68.1,10.2z"/>
			</g>
			<g class="st6">
				<path class="st7" d="M137.1,66.8c-0.3-0.1,0-0.3,0.2-0.5c1.2-1.4,2.9-3.3,4.2-4.9c-9.4,9.7-4,3.4,0.1-1.1
					c-1.6,1.5-4.8,5-6.1,6.1c-0.2-0.1-0.1-0.2,0.2-0.5c1.5-1.8,3.7-4.2,5.4-6.1c-9.3,9.6-7.2,6.8-0.8-0.3c-10,10.4-5.8,5.2-0.5-0.6
					c-0.8,0.8-1.7,1.8-2.6,2.6c-3.4,3.5-3.4,3.5-3.5,3.5c-0.2,0-0.1-0.2,0-0.3c1.4-1.7,3.1-3.6,4.7-5.4c-1.1,1.1-4.5,4.7-5.2,5.1
					c-0.3-0.1,0-0.3,0.2-0.5c1.6-1.8,3.8-4.2,5.4-6.1c-8.7,9.1-7.1,6.7-0.9-0.1c-9.1,9.4-5.2,4.7-0.4-0.6c-0.7,0.7-5.2,5.4-5.1,5.1
					c-0.3-0.1,0.1-0.3,0.2-0.5c1.1-1.3,2.5-2.9,3.6-4.3c-5.5,5.8-4.7,4.4-1,0c-3.7,3.9-3.2,3-1.4,0.3c-0.4,0.4-0.3,0.4-0.5,0.3
					c-0.1-0.2,0.3-0.4,0.6-0.8c0.4-0.4,0.6-0.5,0.6-0.5c0.5,0.1-1.3,2.1-1.4,2.5c5.7-6,3.4-2.9,0.3,0.7c6.9-7.2,4.6-4.1,0.6,0.4
					c8.2-8.5,3.9-3.2,0.5,0.6c9.3-9.6,4-3.3-0.1,1.1c9.6-10,6.1-5.5,0.5,0.6c0.9-0.9,6.5-6.6,6.1-6.1c0.3,0.1,0,0.3-0.1,0.4
					c-1.7,1.9-3.9,4.3-5.6,6.3c10.3-10.6,6.1-5.5,0.6,0.5c9.1-9.4,7.3-6.8,0.8,0.2c10-10.3,5.2-4.5,0.3,0.8c7.7-8.1,8-7.7,1.2-0.2
					c7.8-8.1,5.3-4.9,0.7,0.3c7.3-7.6,4.1-3.6,0.6,0.5c0.7-0.6,4.1-4.2,3.8-3.8c0.5,0-2.3,3.1-2.6,3.6c2.4-2.3,2.1-2.3,2.4-2.2
					c0.1,0.3-1.4,1.4-2.3,2.4c-0.9,0.9-1.4,1.4-1.4,1.4c-0.6,0,2.4-3.2,2.7-3.7c-7,7.3-3.2,2.6-0.2-0.9c-0.6,0.6-1.3,1.3-1.9,2
					C137.2,66.8,137.2,66.8,137.1,66.8L137.1,66.8z M143,62.9C143,62.9,143,62.9,143,62.9C143,62.9,143,62.9,143,62.9z M133.3,57.7
					C133.3,57.7,133.4,57.7,133.3,57.7C133.3,57.7,133.3,57.7,133.3,57.7C133.3,57.7,133.3,57.7,133.3,57.7L133.3,57.7z"/>
			</g>
		</g>
		<g class="st1">
			<path class="st5" d="M4.4,45.7c8.3-4.9,17.1-9,26.2-12.3C22.3,38.3,13.5,42.4,4.4,45.7z"/>
			<path class="st5" d="M42.4,18.1c8.5-4.6,17.2-8.7,26.2-12.3C60.1,10.4,51.3,14.5,42.4,18.1z"/>
			<path class="st5" d="M134.5,70.9c5.5-3,11.2-5.7,17-8C146,65.9,140.3,68.6,134.5,70.9z"/>
		</g>
		<path class="st8" d="M26.4,42.4L105.5,21c2.1-0.6,4.3,0.7,4.9,2.8l11.2,41.5c0.6,2.1-0.7,4.3-2.8,4.9L39.7,91.7
			c-2.1,0.6-4.3-0.7-4.9-2.8L23.5,47.3C23,45.2,24.2,43,26.4,42.4z"/>
		<path class="st9" d="M34.5,37.5l81.5-9.1c2.2-0.2,4.2,1.3,4.4,3.5l4.8,42.7c0.2,2.2-1.3,4.2-3.5,4.4l-81.5,9.1
			c-2.2,0.2-4.2-1.3-4.4-3.5L30.9,42C30.7,39.8,32.3,37.8,34.5,37.5z"/>
		<path class="st9" d="M34.5,37.5l81.5-9.1c2.2-0.2,4.2,1.3,4.4,3.5l4.8,42.7c0.2,2.2-1.3,4.2-3.5,4.4l-81.5,9.1
			c-2.2,0.2-4.2-1.3-4.4-3.5L30.9,42C30.7,39.8,32.3,37.8,34.5,37.5z"/>
		<path class="st9" d="M34.5,37.5l81.5-9.1c2.2-0.2,4.2,1.3,4.4,3.5l4.8,42.7c0.2,2.2-1.3,4.2-3.5,4.4l-81.5,9.1
			c-2.2,0.2-4.2-1.3-4.4-3.5L30.9,42C30.7,39.8,32.3,37.8,34.5,37.5z"/>
		<path class="st9" d="M34.5,37.5l81.5-9.1c2.2-0.2,4.2,1.3,4.4,3.5l4.8,42.7c0.2,2.2-1.3,4.2-3.5,4.4l-81.5,9.1
			c-2.2,0.2-4.2-1.3-4.4-3.5L30.9,42C30.7,39.8,32.3,37.8,34.5,37.5z"/>
		<path class="st10" d="M42.4,30.2l81.9,4.7c2.2,0.1,3.9,2,3.8,4.2L125.6,82c-0.1,2.2-2,3.9-4.2,3.8l-81.9-4.7
			c-2.2-0.1-3.9-2-3.8-4.2L38.2,34C38.3,31.8,40.2,30.1,42.4,30.2z"/>
	</g>
</g>
<g>
	<path class="st8" d="M94.5,51.1c0.7-0.9,1.7-1.9,1.5-3.1c0-0.5-0.4-1-0.9-1.2c-0.7-0.3-1.5,0.1-2.1,0.4c-1.5,0.7-3,1.4-4.5,2
		c0,0-0.1,0-0.1,0.1c0,0-0.1,0-0.1,0c-0.1,0-0.1,0.1-0.2,0.2c-0.6,0.3-1.2,0.6-1.8,0.8c-0.1,0-0.2,0.1-0.3,0.1
		c0.1-0.3,0.3-0.6,0.4-0.9c0-0.1-0.1-0.2-0.2-0.2c0.1-0.3,0.2-0.5,0.3-0.8c0-0.1-0.1-0.2-0.2-0.1c-0.4,0.6-0.7,1.2-1,1.9
		c-0.2-0.2-0.3-0.4-0.4-0.6c-0.7-1.3-1.3-2.6-2.2-3.8c-0.7-0.9-1.6-2.6-3-2.1c-1.2,0.5-1.4,2.1-1.6,3.2c-0.4,1.6-0.7,3.3-1.1,4.9
		c-0.1,0.5-0.2,1.1-0.3,1.6c0,0-0.1,0-0.1,0c-1.7,0.7-3.4,1.4-5,2.3c-0.8,0.4-1.6,0.9-2.4,1.3c-0.7,0.4-1.5,0.8-2.2,1.3
		c-1.1,0.8-2,2.4-1.1,3.7c0.4,0.6,1.2,0.9,1.9,0.9c0.9,0,1.8-0.1,2.6-0.2c1.4-0.2,2.8-0.6,4.2-1.1c-0.1,0.2-0.2,0.4-0.2,0.6
		c-0.1,0.1,0.1,0.2,0.2,0.1c0.2-0.3,0.4-0.6,0.6-0.9c0,0,0.1,0,0.1,0c-0.1,1.3-0.2,2.7-0.2,4c-0.1,1.4-0.4,3.1,0.5,4.3
		c0.8,1.1,2.3,1.5,3.3,0.5c0.5-0.4,0.8-1,1.1-1.6c0.4-0.7,0.8-1.4,1.2-2.2c0.8-1.5,1.6-2.9,2.4-4.4c0.2-0.3,0.3-0.7,0.5-0.9
		c0.2-0.2,0.3-0.3,0.6-0.2c0.6,0.2,1.1,0.7,1.5,1.1c1,0.9,1.9,2,3.1,2.6c0.9,0.5,2,0.6,3,0.3c0.9-0.2,1.8-0.9,2.1-1.9
		c0.4-1.5-0.6-2.9-1.3-4.1c-0.4-0.7-0.8-1.4-1.2-2.2c-0.2-0.3-0.4-0.6-0.5-1c-0.2-0.4,0-0.6,0.3-0.9C92.4,53.7,93.4,52.4,94.5,51.1z
		 M78.4,50c0.3-1.4,0.6-2.9,1-4.3c0.1-0.3,0.3-1,0.7-1c0.4-0.1,0.9,0.5,1.1,0.9C81,46,80.7,46.5,80.4,47c-0.3,0.6-0.7,1.2-0.9,1.9
		c0,0,0,0,0,0.1c0.2-1.1,0.7-2,1.3-3c0.1-0.1-0.1-0.2-0.2-0.1c-0.9,0.9-1.3,2.3-1.4,3.5c0,0.1,0,0.1,0.1,0.1
		c-0.4,1.1-0.8,2.2-1.1,3.3c0,0,0,0.1,0,0.1c-0.3,0.4-0.6,0.8-0.8,1.2C77.8,52.6,78.1,51.3,78.4,50z M66.8,60.2
		c0.2-0.6,0.8-1,1.3-1.3c0.7-0.4,1.4-0.9,2.1-1.3c-1,1.3-2,2.6-3,3.9c-0.1,0-0.2,0-0.2-0.1C66.6,61.2,66.6,60.6,66.8,60.2z M69,61.5
		c-0.4,0-1.1,0.2-1.6,0.1c1.1-1.3,2.1-2.7,3.1-4.1c0,0,0,0,0-0.1c0.4-0.2,0.8-0.4,1.2-0.6c-0.3,0.4-0.5,0.8-0.8,1.1
		c-0.6,0.8-1.2,1.7-1.7,2.5c-0.1,0.1,0.1,0.3,0.2,0.2c0.6-0.8,1.1-1.6,1.7-2.4c0.4-0.6,0.9-1.2,1.3-1.8c0.5-0.3,1-0.5,1.5-0.7
		c-0.4,0.5-0.8,0.9-1.1,1.4c-0.6,0.8-1.2,1.6-1.7,2.4c0,0-0.1-0.1-0.1,0c-0.2,0.4-0.3,0.8-0.5,1.2c-0.1,0.2,0.1,0.3,0.3,0.1
		c0.8-1.1,1.5-2.3,2.3-3.4c0.5-0.7,1.1-1.4,1.6-2.1c0.6-0.3,1.2-0.6,1.8-0.8c0.1,0.2,0.3,0.2,0.4,0.2c-0.3,0.4-0.6,0.9-0.9,1.3
		c-0.5,0.8-1,1.6-1.5,2.3c-0.1,0.2-0.2,0.3-0.3,0.5c0,0,0,0,0,0c0,0.1-0.1,0.2-0.1,0.3c-0.1,0.2-0.2,0.3-0.3,0.5
		c-0.2,0.4-0.5,0.7-0.7,1.1c-0.6,0.2-1.2,0.3-1.8,0.5C70.5,61.3,69.7,61.5,69,61.5z M76.2,67.1c0-0.4,0-0.8,0.1-1.2
		c1-2.6,2-5.2,3.1-7.7c0.6-1.4,1.2-2.8,1.8-4.2c0.3-0.7,0.6-1.3,0.9-2c0.3-0.7,0.7-1.3,0.8-2.1c0-0.1-0.1-0.1-0.2-0.1
		c-0.5,0.6-0.7,1.4-1.1,2.1c-0.3,0.7-0.6,1.3-0.9,2c-0.6,1.3-1.1,2.7-1.7,4c-1,2.4-1.9,4.8-2.7,7.3c0-0.9,0.1-1.8,0.2-2.7
		c0-0.8,0.1-1.5,0.1-2.3c0-0.3-0.2-0.5-0.4-0.6c0.1-0.2,0.2-0.4,0.3-0.6c0.6-1,1.3-2.1,1.9-3.1c0.6-1,1.2-2,1.9-3.1
		c0.6-1,1.3-2.1,1.9-3.2c0-0.1,0-0.2-0.1-0.2c0.1-0.1,0.1-0.2,0.2-0.3c0-0.1-0.1-0.1-0.1-0.1c-0.1,0.2-0.2,0.3-0.2,0.5
		c-0.7,0.9-1.3,2-1.9,3c-0.6,1-1.3,2.1-1.9,3.1c-0.6,1-1.2,2-1.8,3.1c-0.2,0.3-0.3,0.5-0.5,0.8c0,0,0,0-0.1,0
		c-0.7,0.3-1.3,0.6-2,0.8c0.2-0.2,0.3-0.5,0.5-0.7c0.3-0.4,0.5-0.8,0.8-1.2c0.5-0.8,1.1-1.6,1.6-2.4c1-1.6,2.1-3.2,3.1-4.9
		c0.1-0.1-0.1-0.2-0.2-0.1c-0.3,0.4-0.6,0.8-0.8,1.2c0.3-1.2,0.8-2.4,1.4-3.6c0.3-0.6,0.6-1.1,0.9-1.7c0.3-0.4,0.6-0.9,0.8-1.3
		c0.8,1.1,1.5,2.3,2.1,3.5c0.2,0.5,0.5,1.1,0.9,1.5c0.1,0.1,0.2,0.2,0.3,0.3c-0.2,0.4-0.4,0.8-0.6,1.3c-0.6,1.4-1.3,2.8-1.9,4.1
		c-1.3,2.7-2.6,5.5-3.8,8.2c-0.7,1.4-1.3,2.8-2,4.3c0,0,0,0,0,0C76.1,68.4,76.1,67.7,76.2,67.1z M81.8,62.1c-0.7,1.3-1.4,2.7-2.1,4
		c-0.4,0.7-0.7,1.3-1.1,2c-0.2,0.4-0.5,1-1,1.3c-0.4,0.2-0.7,0-1-0.3c2.7-5.3,5.2-10.7,7.7-16.1c0.1-0.3,0.3-0.6,0.4-0.9
		c-0.1,0.4-0.3,0.7-0.4,1.1c-0.5,1.3-1.1,2.7-1.6,4c-1.1,2.7-2.2,5.4-3.2,8.1c0,0.1,0.1,0.1,0.1,0c1.1-2.6,2.3-5.3,3.4-7.9
		c0.6-1.3,1.1-2.7,1.7-4c0.3-0.7,0.6-1.4,0.8-2c0,0,0,0,0,0c0.2,0,0.4,0,0.6,0c0.4-0.1,0.7-0.2,1-0.3c-0.1,0.2-0.3,0.5-0.4,0.7
		c-0.5,0.9-0.9,1.9-1.3,2.8c-0.7,1.7-1.3,3.4-1.7,5.1C82.8,59.9,82.3,61.2,81.8,62.1z M84,59.5c0.6-1.6,1.1-3.3,1.8-4.9
		c0.4-0.9,0.8-1.9,1.3-2.8c0.2-0.4,0.4-0.8,0.6-1.2c0.1,0,0.2-0.1,0.3-0.1c0.4-0.2,0.9-0.4,1.3-0.6c-0.4,0.8-0.7,1.6-1.1,2.4
		c-0.3,0.8-0.7,1.6-1,2.4c-0.7,1.7-1.4,3.3-2,5c-0.2-0.1-0.5-0.2-0.7-0.2C84.4,59.5,84.2,59.5,84,59.5z M92.6,60.8
		c0.5,0.8,1,2,0,2.7c-0.7,0.5-1.7,0.5-2.4,0.3c-0.1,0-0.1,0-0.2-0.1c0.6-1.4,1.2-2.7,1.8-4.1c0.1-0.1-0.2-0.3-0.3-0.1
		c-0.7,1.3-1.2,2.7-1.8,4.1c0,0,0,0,0,0c-0.7-0.4-1.3-0.9-1.9-1.5c0,0,0.1,0,0.1-0.1c0.2-1.3,0.5-2.5,1-3.7c0.3-0.8,0.7-1.5,1.1-2.2
		c0.1,0.2,0.2,0.5,0.3,0.7C91.1,58.2,91.9,59.5,92.6,60.8z M90,55c0,0.1-0.1,0.2-0.1,0.4c-0.6,0.8-1,1.8-1.4,2.7
		c-0.5,1.2-0.8,2.5-0.9,3.8c-0.1-0.1-0.1-0.1-0.2-0.2c-0.3-0.3-0.5-0.6-0.9-0.9c0.3-1.5,0.8-3,1.4-4.4c0.3-0.8,0.7-1.6,1.1-2.3
		c0.2-0.4,0.4-0.7,0.6-1.1c0.2-0.3,0.5-0.7,0.6-1.1c0-0.1-0.1-0.2-0.1-0.1c-0.6,0.5-1,1.3-1.4,1.9c-0.4,0.7-0.8,1.5-1.1,2.3
		c-0.6,1.4-1,2.9-1.3,4.4c-0.3-0.3-0.6-0.5-0.9-0.7c0,0,0,0,0,0c0.8-1.7,1.5-3.3,2.2-5c0.3-0.8,0.7-1.6,1-2.4c0.3-0.8,0.7-1.7,1-2.5
		c0,0,0-0.1,0-0.1c0.2-0.1,0.4-0.2,0.5-0.2c0.7-0.3,1.4-0.6,2.1-0.9c0.7-0.3,1.4-0.7,2.1-0.9c0.5-0.1,0.7,0.1,0.6,0.6
		c-0.1,0.5-0.4,0.9-0.7,1.3c-0.9,1.2-1.9,2.4-2.8,3.5C90.9,53.8,90.3,54.3,90,55z"/>
	<path class="st8" d="M88.4,62.1c0.6-1.2,1.3-2.5,1.7-3.8c0.1-0.2-0.2-0.2-0.3-0.1c-0.7,1.2-1.2,2.5-1.7,3.8
		C88,62.1,88.3,62.3,88.4,62.1z"/>
</g>
</svg>
