<svg width="141" height="141" viewBox="0 0 141 141" fill="none" xmlns="http://www.w3.org/2000/svg">
<g clip-path="url(#clip0_1282_23)">
<path d="M127.23 101.911C127.23 101.911 124.786 110.742 116.062 114.017C107.339 117.292 52.0855 137.46 52.0855 137.46C52.0855 137.46 33.7386 139.692 27.1716 122.109C20.6045 104.526 9.12255 67.6688 9.12255 67.6688L10.2672 55.2358L15.0525 69.7587L30.4427 116.464C30.4427 116.464 38.3088 135.185 53.7431 131.324C69.1747 127.461 127.23 101.911 127.23 101.911Z" fill="#BFBFBF"/>
<path d="M17.9264 40.7049L24.7582 37.2854C24.7582 37.2854 26.8516 49.7157 32.2106 47.3642C37.5696 45.0128 28.3962 23.2748 21.8291 24.4519C15.2648 25.6289 13.4004 31.0621 17.9264 40.7049Z" fill="#BFBFBF"/>
<path d="M49.5425 28.8168L56.3744 25.3972C56.3744 25.3972 58.4678 37.8275 63.8268 35.476C69.1858 33.1246 60.0123 11.3866 53.4453 12.5637C46.881 13.7408 45.0165 19.1739 49.5425 28.8168Z" fill="#BFBFBF"/>
<path d="M78.282 18.7652L85.1138 15.3457C85.1138 15.3457 87.2072 27.776 92.5662 25.4245C97.9252 23.0731 88.7517 1.33507 82.1847 2.51216C75.6204 3.68924 73.7559 9.12238 78.282 18.7652Z" fill="#BFBFBF"/>
<path d="M113.5 32.6888C81.1063 44.6831 48.4228 55.999 16.073 68.4428C14.4595 65.2249 13.2514 61.8408 12.2833 58.3531C10.6367 52.4295 11.922 47.288 16.6274 43.2254C18.82 41.3317 21.2968 39.7404 24.1542 38.8794C25.1223 39.8821 24.7941 41.1709 25.285 42.1654C23.3213 44.1136 23.415 47.8084 25.0368 49.871C27.9604 53.5903 34.0117 52.3423 36.4719 49.7538C36.7808 49.4323 37.0814 49.1054 37.4041 48.7593C37.713 45.7621 38.2288 42.7104 34.5081 40.7213C34.0889 39.2472 33.2891 37.5661 33.0188 35.795C40.5925 32.2474 48.5028 30.1929 56.2282 27.1603C56.493 28.3047 56.7467 29.4055 56.9922 30.4627C55.1994 32.9912 55.2436 36.3944 57.0556 38.2473C59.9461 41.2091 63.3138 41.5796 67.0013 39.1301C68.3997 38.2037 69.6629 37.1219 69.6629 35.0348C69.6629 33.2119 68.9541 31.7379 68.2756 30.182C66.0305 29.0949 65.0707 27.2475 65.3217 24.144C71.8556 22.3675 78.0586 19.2667 84.6642 17.5992C85.2765 18.2177 85.2517 18.8062 85.4089 19.3185C85.5551 19.7926 85.6103 20.2939 85.7261 20.877C83.219 23.5391 84.2312 27.0922 85.7978 28.787C88.6552 31.885 92.1304 31.4981 95.4319 29.7106C98.1128 28.2584 99.4035 26.1276 96.9433 20.3757C96.2455 20.0514 95.2912 19.9234 94.7341 18.9806C94.6982 17.8062 94.0694 16.6755 93.5067 15.2532C97.4012 15.057 100.915 15.0107 104.109 17.5038C107.656 20.2776 109.774 23.8661 111.288 27.945C111.881 29.539 113.329 30.7433 113.503 32.6861L113.5 32.6888Z" fill="#C21146"/>
<path d="M127.23 101.911C127.23 101.911 69.1747 127.461 53.7432 131.324C38.3088 135.185 30.4427 116.464 30.4427 116.464L15.0525 69.7589L115.202 33.7378L129.853 77.4072C129.853 77.4072 134.561 96.9545 127.23 101.911Z" fill="white"/>
<path d="M105.16 68.8215C107.016 70.2084 106.969 72.3473 108.329 73.8133C107.366 74.2874 106.688 74.8568 105.72 75.132C103.05 75.8922 100.457 76.914 97.8038 77.7396C94.461 78.7777 91.0906 79.7532 87.7726 80.8458C84.7304 81.8458 81.6772 82.8839 78.6874 84.091C76.5471 84.9547 74.4013 85.8321 72.2362 86.6413C68.9651 87.8648 65.7905 89.3034 62.6353 90.7748C58.6167 92.6467 54.6368 94.6003 50.6982 96.6275C49.5398 97.2242 48.4338 97.0635 47.2671 97.0717C46.4121 95.4913 46.9968 93.6575 46.1197 91.7993C52.433 88.9083 58.5864 85.6196 65.032 82.8975C71.6074 80.121 78.2461 77.5107 85.0393 75.2982C91.7829 73.1021 98.543 70.9496 105.16 68.8243V68.8215Z" fill="#C21146"/>
<path d="M88.7904 49.1816C90.0039 51.2933 91.6753 52.2361 94.0004 51.7565C94.5769 51.5331 94.5658 50.9391 94.9161 50.4405C95.385 51.1544 96.1324 51.6448 95.8925 52.9282C76.7402 59.0643 57.7424 66.0342 39.1224 74.1158C38.4439 73.4673 37.782 72.7425 37.4593 71.8869C37.1256 70.9986 36.323 70.372 36.1464 69.3638C37.4869 67.7535 39.4893 67.2412 41.2793 66.4456C44.5752 64.977 47.8877 63.5165 51.2912 62.3203C54.554 61.1732 57.7396 59.8381 60.997 58.6774C63.7164 57.7101 66.3642 56.5521 69.0947 55.6175C73.4884 54.1107 77.78 52.3342 82.2095 50.9064C84.3443 50.217 86.468 49.6285 88.7876 49.1844L88.7904 49.1816Z" fill="#C21146"/>
<path d="M68.499 108.085C68.9375 108.347 69.4064 108.625 69.8091 108.864C71.8363 108.022 72.6885 104.309 75.9679 106.641C77.4242 105.646 78.9439 104.576 80.4967 103.559C81.3848 102.976 82.3061 102.775 83.1804 103.805C84.6339 102.622 86.4377 102.29 88.2222 101.924C88.6773 101.832 88.8124 102.35 89.4468 102.734C87.1548 103.576 84.8104 103.785 83.5251 105.775C82.9073 105.804 82.3557 105.834 81.9116 105.856C81.4097 105.57 81.531 105.093 81.2773 104.633C79.4845 105.761 78.0255 107.183 76.3789 108.437C75.8742 108.477 75.3143 108.565 74.6771 108.265C74.2441 108.123 74.5172 107.494 74.1035 107.161C72.2059 107.829 71.3647 109.715 70.209 110.676C69.3595 111.148 68.9127 110.717 68.4824 110.788C68.1377 110.385 68.4493 109.84 67.986 109.467C66.2015 110.532 64.8721 112.09 63.1676 113.396C62.7511 113.592 62.205 113.595 61.7499 113.494C61.2259 113.303 61.372 112.753 61.0328 112.551C59.3035 113.597 58.5809 115.821 56.4488 116.466C56.0986 115.093 56.1344 115.055 61.441 110.894C62.1388 110.714 62.7511 110.845 63.129 111.423C64.9438 110.224 66.2263 108.442 68.5073 108.085H68.499Z" fill="black"/>
<path d="M66.2429 100.137C65.2555 100.017 64.9521 99.3713 64.6652 98.6411C63.3855 99.6628 62.8862 101.224 61.441 101.935C60.939 101.644 60.4619 101.369 59.9213 101.055C58.1782 101.832 58.1202 104.464 55.911 104.875C55.5138 104.505 55.1636 104.178 54.8795 103.913C54.5816 103.396 55.2408 103.028 54.8684 102.488C53.6052 103.093 53.2274 104.48 52.2951 105.36C51.4098 103.715 53.4342 100.979 56.162 100.099C56.7467 100.167 56.8157 100.84 57.017 100.922C57.9106 100.181 58.7408 99.5402 59.5131 98.84C60.3984 98.0362 61.3969 97.9517 62.4753 98.2923C63.6585 97.2651 64.6073 95.949 66.2291 95.7556C66.8524 96.0553 67.073 96.5975 67.4564 97.0689C69.0148 96.0117 70.5289 94.9082 72.4182 94.7583C72.7989 95.3877 72.8016 95.9354 72.3824 96.1316C70.1014 97.1969 68.2728 98.9544 66.2401 100.137H66.2429Z" fill="black"/>
<path d="M95.5063 86.8784C94.6817 87.5868 93.9287 88.4151 92.8393 88.9001C89.9626 87.8048 88.931 90.802 86.7273 91.5867C86.1729 91.5949 86.2915 90.8701 85.853 90.4778C84.3222 91.7284 82.9239 93.1072 81.7075 94.6412C80.9766 94.4532 80.7201 94.0445 80.7974 93.3905C82.9377 92.0854 84.5705 90.1345 87.0003 88.8538C87.6595 88.8675 88.4042 89.0037 89.1848 88.0282C90.0232 86.9792 91.5071 86.2926 92.9192 86.7503C94.4307 86.11 95.4153 84.3199 97.1777 85.5242C99.5552 84.8485 101.48 83.2163 104.01 82.6033C104.117 83.3444 103.698 83.7095 103.599 84.1673C101.753 84.9465 100.248 86.2953 98.4216 87.14C96.7971 87.892 96.8468 87.9983 95.5063 86.8784Z" fill="black"/>
<path d="M49.5701 80.301C49.2998 80.2274 48.8751 80.113 48.42 79.9876C48.3538 79.4863 48.2876 78.9985 48.1883 78.2547C46.3349 79.3391 45.4688 81.2219 43.916 82.4072C43.3672 80.2002 47.6615 75.7834 50.1576 75.8787C50.6872 76.1975 50.4472 76.7697 50.4968 77.1403C50.6816 77.2193 50.7589 77.2711 50.7754 77.2547C52.2317 76.0313 53.7514 74.9033 55.3428 74.1131C56.2282 74.1703 56.0103 74.8815 56.3082 75.2711C57.7065 75.1485 58.6608 74.1431 59.8303 73.5763C60.9887 73.0177 62.1305 72.2058 63.6089 72.4646C61.201 75.0858 57.5769 75.6853 55.3263 77.9032C54.2313 77.786 54.5457 77.0531 54.1265 76.5599C52.3944 77.4918 51.5863 79.5408 49.5674 80.2982L49.5701 80.301Z" fill="black"/>
<path d="M71.5329 71.4809C72.1176 69.9551 73.094 69.154 74.0869 68.4047C74.7295 67.9197 75.1267 66.6936 76.0093 67.0151C78.6074 67.9551 79.4955 65.3067 81.3655 64.7999C81.8289 64.7154 81.8592 65.3448 82.4109 65.3721C83.3872 64.3312 84.7139 63.6746 86.0902 63.1269C86.6749 63.1514 87.1686 63.3966 87.6126 63.7836C88.9007 62.8817 90.1804 62.1405 91.5871 61.4512C92.1635 62.1078 92.1249 62.7127 91.4243 63.2522C90.528 63.9416 89.6619 64.6991 88.6773 65.2467C87.6595 65.8135 86.5784 65.699 85.5772 64.8762C84.2036 65.6146 83.1693 66.8298 81.6993 68.0396C81.3848 68.1132 80.7229 68.1431 80.2899 68.0941C79.6555 67.8816 80.0141 67.3584 79.5011 67.1704C78.3564 68.4292 77.4104 70.105 75.4853 70.2902C74.804 69.8516 75.2177 69.2385 74.9336 68.8189C73.538 69.1922 73.0112 70.6826 71.5301 71.4837L71.5329 71.4809Z" fill="black"/>
<path d="M103.298 95.4667C104.517 94.5539 106.164 94.8155 107.388 93.8183C109.093 92.4287 111.2 92.0145 113.445 91.9409C113.558 92.9137 113.194 93.6739 112.127 93.742C110.828 93.8264 109.741 94.4858 108.773 95.1016C107.242 96.0716 105.513 96.3686 103.902 97.0335C103.072 97.3741 102.264 97.0416 101.817 96.4395C100.832 96.4831 100.399 97.295 99.6683 97.1643C99.2905 97.7419 99.4587 98.5402 98.6561 98.6874C98.3527 96.5512 100.554 94.949 103.301 95.4667H103.298Z" fill="black"/>
<path d="M132.608 83.7234C132.098 79.2549 130.305 74.9961 129.141 70.6283C128.077 66.6421 126.761 62.7402 125.368 58.8602C125.109 58.1381 125.28 57.1082 124.817 56.645C123.479 55.3071 123.33 53.6968 123.275 52.0184C122.985 51.656 122.522 51.3345 122.467 50.9584C122.166 48.8686 121.308 46.9531 120.646 44.9804C119.913 42.8033 119.11 40.6507 118.454 38.4546C117.748 36.0923 116.443 33.9724 115.726 31.6155C115.538 31.0024 115.367 30.3785 115.122 29.7709C114.383 27.9507 112.871 26.6101 112.149 24.8363C110.491 20.752 107.576 17.6703 104.338 14.7984C103.637 14.1772 102.835 13.8066 102.018 13.5341C99.1305 12.5696 96.16 12.0791 93.1785 12.4606C92.6875 12.0873 92.3593 11.763 92.1966 11.2372C91.2175 8.07919 89.0082 5.79585 86.4901 3.80952C83.5527 1.49076 80.6319 1.51801 78.304 3.22915C75.499 5.29177 74.8812 8.41433 75.0991 11.6649C75.2343 13.7167 75.5928 15.763 76.6326 17.5204C72.5948 19.4741 68.2645 20.0926 64.337 21.7029C63.242 21.2588 63.4572 20.1607 63.0407 19.4196C61.612 16.8665 59.6151 14.8066 57.3645 13.0546C54.5954 10.902 50.1493 11.1227 47.8794 14.7303C46.0425 17.6485 46.2328 20.6566 46.6603 23.8146C46.8286 25.0843 47.8187 26.0162 47.9787 27.2586C42.6997 29.4466 37.52 31.4493 32.5168 33.2749C31.2701 32.4874 31.4714 31.3131 30.8729 30.4902C29.4442 28.5256 27.9852 26.6401 25.9911 25.166C24.0659 23.7464 22.0966 22.7901 19.6612 23.5475C17.0962 24.3459 15.4496 26.275 14.9201 28.6673C14.1671 32.0733 14.1699 35.5746 16.1364 38.7543C16.4232 39.2175 16.6108 39.738 16.9142 40.3837C14.2443 42.0431 12.3605 44.133 11.0835 46.8277C10.2892 48.5089 9.96375 50.2555 9.62451 52.032C8.68675 56.9283 7.86208 61.8302 8.01929 66.8464C8.06893 68.4295 8.40818 69.9363 8.96808 71.3695C10.5733 75.4757 11.5524 79.7808 13.1438 83.8815C13.9409 85.936 14.2774 88.1294 15.1269 90.1375C16.1667 92.5898 16.5887 95.2001 17.4686 97.6905C18.6132 100.947 19.333 104.35 20.4997 107.598C22.0387 111.878 23.3019 116.257 25.263 120.388C26.8516 123.744 28.341 127.232 30.7212 130.047C33.9786 133.897 37.7516 137.374 43.1162 138.175C44.9255 138.444 46.71 139.18 48.5386 138.959C52.2482 138.513 55.9937 137.97 59.4689 136.6C63.3799 135.06 67.3488 133.701 71.2791 132.227C72.2996 131.842 73.3615 131.496 74.3792 131.06C75.9983 130.368 77.6007 129.605 79.2363 128.938C81.0897 128.18 83.0507 127.783 84.8711 126.9C86.6556 126.031 88.578 125.303 90.4921 124.791C94.1383 123.821 97.4232 121.992 101.025 120.878C104.467 119.815 107.832 118.333 111.244 117.077C114.912 115.726 118.473 114.197 121.733 112.053C123.879 110.644 125.495 108.698 126.852 106.557C127.909 104.887 129.023 103.23 129.859 101.453C130.253 100.62 130.948 100.012 131.218 99.0447C131.604 97.6714 131.825 96.26 132.23 94.9276C133.364 91.192 133.028 87.391 132.608 83.7207V83.7234ZM34.8529 43.7025C35.8265 45.0212 35.6114 47.1302 34.4585 48.3972C33.2642 49.7105 29.8828 50.8113 28.1534 49.7868C26.038 48.5307 25.1002 47.1819 25.5084 44.5825C26.7247 47.6097 28.5092 49.5606 31.9376 48.8958C34.9218 48.3154 34.9494 46.0648 34.8501 43.7052L34.8529 43.7025ZM16.6273 43.2229C18.82 41.3292 21.2968 39.738 24.1542 38.8769C25.1223 39.8796 24.7941 41.1684 25.285 42.163C23.3212 44.1112 23.415 47.8059 25.0368 49.8685C27.9604 53.5878 34.0117 52.3399 36.4719 49.7514C36.7808 49.4299 37.0814 49.1029 37.4041 48.7569C37.713 45.7596 38.2288 42.7079 34.5081 40.7189C34.0889 39.2448 33.289 37.5636 33.0187 35.7925C40.5925 32.2449 48.5027 30.1905 56.2282 27.1578C56.493 28.3022 56.7467 29.403 56.9922 30.4602C55.1994 32.9888 55.2435 36.392 57.0556 38.2448C59.9461 41.2066 63.3137 41.5772 67.0013 39.1276C68.3997 38.2012 69.6629 37.1195 69.6629 35.0323C69.6629 33.2095 68.9541 31.7354 68.2756 30.1796C66.0305 29.0924 65.0707 27.245 65.3216 24.1415C71.8556 22.365 78.0586 19.2642 84.6642 17.5967C85.2765 18.2152 85.2517 18.8038 85.4089 19.316C85.5551 19.7901 85.6103 20.2915 85.7261 20.8746C83.219 23.5366 84.2312 27.0897 85.7978 28.7845C88.6552 31.8825 92.1304 31.4956 95.4319 29.7082C98.1127 28.2559 99.4035 26.1251 96.9433 20.3732C96.2455 20.049 95.2912 19.9209 94.7341 18.9782C94.6982 17.8038 94.0694 16.673 93.5067 15.2507C97.4011 15.0545 100.915 15.0082 104.109 17.5013C107.656 20.2751 109.774 23.8636 111.288 27.9425C111.881 29.5365 113.329 30.7409 113.503 32.6836C81.109 44.6779 48.4255 55.9938 16.0757 68.4377C14.4622 65.2197 13.2542 61.8356 12.2861 58.3479C10.6395 52.4244 11.9248 47.2828 16.6301 43.2202L16.6273 43.2229ZM57.2045 32.8226C58.2968 35.8089 60.073 38.0214 63.562 37.4137C66.1215 36.9669 67.0372 34.9152 67.0344 32.4356C67.575 34.2857 67.2909 35.9288 65.785 37.1849C64.0336 38.6453 61.9071 38.7135 59.9158 38.0404C57.5603 37.2448 57.1521 35.1141 57.2045 32.8198V32.8226ZM85.9357 23.4113C87.7671 27.087 90.1777 29.1387 94.2404 26.9753C95.305 25.7737 95.6828 24.3813 95.8014 22.8773C96.4137 24.2396 95.8759 25.4576 95.4539 26.6646C93.7384 28.4521 91.7001 29.215 89.1627 28.7409C87.2954 27.6156 85.3758 26.4249 85.9357 23.4113ZM77.0519 10.3789C77.1622 8.12006 78.1248 6.26178 80.858 4.67871C83.9057 3.53432 85.933 6.25906 88.1339 8.45248C89.2703 9.58324 90.1997 11.0328 90.5169 12.5287C90.6852 13.327 90.9251 14.1118 91.1871 14.891C92.0642 17.4904 93.2005 20.0299 92.9054 22.8909C92.8034 23.8963 92.8668 23.9018 92.0173 25.0298C89.1848 25.6565 88.2911 23.5584 87.8802 20.9727C87.6181 19.3269 87.2982 17.7111 86.8321 16.139C86.3853 14.6213 85.8033 13.1445 85.0117 11.7222C84.5236 10.8448 83.4589 10.4061 83.2769 9.34347C82.2592 9.04102 81.3379 8.61051 80.2513 8.66228C79.0846 9.59959 80.1878 10.1173 80.7808 10.7985C80.6374 12.5396 81.5669 14.1417 81.8923 15.9837C80.585 16.0818 79.5838 17.0136 78.1275 16.7357C77.085 14.7684 76.9388 12.5805 77.0491 10.3789H77.0519ZM48.4172 19.2724C48.5965 17.0109 50.0914 15.6594 51.7435 14.4524C52.8936 13.6104 55.4063 14.3488 56.937 15.6431C59.651 17.9427 61.4107 20.7111 62.4422 24.087C62.5029 24.2859 62.5608 24.4876 62.6159 24.6892C63.2862 27.1496 64.1467 29.5202 64.1798 32.1032C64.1936 33.0869 64.0502 33.9697 63.2779 34.7844C62.1434 34.8371 61.0107 34.3602 59.8799 33.3539C59.309 30.8825 58.796 28.2069 58.0596 25.5911C58.0596 25.5856 58.0596 25.5829 58.054 25.5775C57.4859 23.5612 56.6226 21.7002 55.1994 19.9999C54.1182 18.7057 53.1032 18.2288 51.5642 18.4441C51.3785 19.2143 51.7233 20.0426 52.5985 20.9291C52.7309 22.3269 52.8136 23.8173 53.4453 25.3241C52.2262 25.8009 51.0071 26.2832 49.6501 26.8145C48.2159 24.3977 48.2104 21.8664 48.4145 19.2697L48.4172 19.2724ZM16.5032 34.3266C16.5887 33.3321 16.5115 32.3267 16.5115 31.324C16.5115 29.1033 18.1719 26.9453 20.2515 26.0652C21.7739 25.4167 23.153 25.8963 24.1818 26.6728C27.1302 28.8989 29.5159 31.5283 30.4316 35.3321C30.4454 35.3784 30.4565 35.4274 30.4675 35.4765C30.9529 37.5963 31.8162 39.6371 32.161 41.8306C32.3816 43.2392 31.83 44.528 32.0369 45.9476C29.618 46.6997 28.6223 46.182 27.9025 44.1057C27.0916 41.7597 26.7413 39.2856 26.0435 36.9124C25.8284 36.1794 25.5829 35.4547 25.2767 34.7462C24.441 32.8089 23.4398 30.8962 21.2085 30.0651C20.6514 29.858 20.1274 29.8281 19.5978 29.9207C19.1207 30.3512 19.2199 30.8444 19.3137 31.3512C19.9233 31.6373 20.3728 32.1141 20.9024 32.6318C20.4666 34.4874 21.0458 36.2339 21.7602 38.0377C20.4721 38.1222 19.5537 39.2965 17.9871 39.2284C17.5044 37.6263 16.3432 36.2121 16.506 34.3239L16.5032 34.3266ZM112.303 114.412C109.313 115.532 106.211 116.35 103.303 117.734C101.023 118.821 98.5127 119.428 96.1324 120.319C91.576 122.022 87.061 123.837 82.4826 125.477C80.0968 126.333 77.5842 126.886 75.3253 128.044C72.6913 129.396 69.8946 130.33 67.1061 131.243C64.3646 132.137 61.7416 133.341 58.9532 134.134C57.3618 134.586 55.7262 135.014 54.1706 135.622C52.6288 136.229 50.9436 136.077 49.3522 136.6C47.6477 137.161 45.957 136.169 44.2939 135.791C42.4597 135.371 40.6863 134.654 38.9487 133.878C37.8344 133.379 37.0511 132.496 36.174 131.758C32.2051 128.396 30.1724 123.783 27.8225 119.306C25.7815 115.423 24.9844 111.077 22.7283 107.306C22.3394 106.658 22.3118 105.726 22.0663 104.933C20.9438 101.293 19.5868 97.7205 18.5359 94.072C17.6561 91.0121 16.7046 87.9523 15.7034 84.9523C14.5808 81.5818 13.5879 78.1514 12.3192 74.8108C11.0587 71.5003 9.94169 68.0535 10.3554 64.3614C10.5071 63.0045 10.3802 61.6149 10.3802 60.2416C10.5043 60.2117 10.6312 60.1844 10.7581 60.1544C11.4862 62.6149 12.1399 65.0917 13.0721 67.4894C14.0264 69.9417 14.7298 72.5002 15.4662 75.0234C16.3322 77.9824 17.3141 80.9006 18.1884 83.8515C18.6407 85.3746 19.2641 86.846 19.7661 88.3528C20.6293 90.9549 21.3933 93.587 22.3145 96.1646C23.3268 99.0011 24.5265 101.775 25.5415 104.611C27.1357 109.058 28.5341 113.57 30.302 117.96C32.5664 123.586 35.7162 128.554 41.3703 131.374C45.2371 133.303 49.4598 133.477 53.6769 132.69C57.6486 131.949 61.4437 130.608 65.1782 129.085C69.1278 127.469 73.094 125.883 77.0877 124.385C80.0223 123.287 83.07 122.483 85.9716 121.311C89.4661 119.903 93.0875 118.84 96.5379 117.262C99.9083 115.72 103.361 114.333 106.743 112.794C110.646 111.017 114.634 109.41 118.52 107.6C120.445 106.707 122.232 105.53 124.075 104.472C124.29 104.35 124.488 104.339 124.709 104.421C121.885 109.919 117.353 112.521 112.303 114.412ZM129.519 92.4099C129.188 94.9085 128.529 97.2082 126.899 99.2245C125.719 100.682 124.218 101.737 122.588 102.47C119.358 103.925 116.289 105.701 112.973 107.004C107.187 109.284 101.58 111.993 95.8207 114.352C91.4023 116.161 86.9479 117.878 82.4246 119.39C77.5869 121.009 72.8623 122.922 68.1349 124.793C64.7535 126.131 61.4134 127.622 57.9713 128.788C55.478 129.633 52.7668 130.036 50.3093 130.851C45.375 132.488 42.4321 129.499 39.2907 127.044C36.174 124.608 34.6129 121.009 32.9829 117.478C31.8769 115.074 31.1184 112.573 30.2193 110.115C29.0719 106.976 28.2445 103.723 27.0033 100.609C26.2752 98.7886 25.5608 96.9684 24.9761 95.0911C24.0328 92.0503 22.9737 89.0449 21.9119 86.0422C20.4942 82.0368 19.2889 77.9579 17.7195 73.9988C17.3058 72.958 17.4686 71.7264 16.6797 70.7482C49.4984 59.3806 81.771 47.2037 114.077 35.768C115.056 36.2448 115.268 36.9206 115.469 37.5309C116.876 41.8633 118.114 46.2555 119.665 50.5361C120.713 53.4298 121.86 56.2989 122.803 59.2253C123.81 62.356 124.971 65.4459 125.708 68.6584C126.005 69.9417 126.615 71.127 126.935 72.4212C127.635 75.2413 128.703 77.9879 129.243 80.8352C129.966 84.6471 130.032 88.5217 129.519 92.4018V92.4099Z" fill="black"/>
<path d="M42.7742 90.061C44.2277 93.2871 45.524 96.5213 46.5804 99.8864C48.3759 100.39 49.697 99.118 51.1588 98.6003C54.9677 97.2516 58.6333 95.505 62.4477 94.1672C66.629 92.6985 70.7275 91.031 74.8647 89.4588C79.6666 87.6332 84.405 85.6442 89.2179 83.8567C93.9398 82.102 98.5816 80.1511 103.334 78.4672C107.562 76.9686 111.699 75.2166 115.778 73.6171C116.256 73.9141 116.396 74.1839 116.225 74.9441C93.5619 83.6878 70.6917 92.5105 47.7608 101.358C48.0228 104.587 50.0666 107.148 50.6541 110.589C62.3374 106.131 73.8608 101.625 85.4669 97.336C96.9985 93.0773 108.428 88.5406 120.034 84.4616C120.506 85.7314 119.706 85.9057 119.209 86.091C115.941 87.3199 112.593 88.3553 109.385 89.7149C106.004 91.1509 102.556 92.4179 99.0974 93.6195C95.6967 94.7993 92.4504 96.3442 88.9972 97.4014C85.6737 98.4205 82.4633 99.8155 79.2225 101.091C75.7666 102.45 72.2831 103.731 68.8052 105.031C65.3768 106.314 61.9237 107.537 58.5174 108.892C56.4792 109.701 54.5044 110.772 52.2731 111.082C51.9669 111.126 51.6939 111.388 51.3877 111.559C52.3503 114.862 54.2175 117.834 54.8105 121.406C53.6328 121.188 53.2743 120.592 52.9792 119.812C52.08 117.442 51.1119 115.093 50.1604 112.742C50.1024 112.6 49.9425 112.499 49.7797 112.33C46.7431 112.965 44.0594 114.698 40.9842 115.232C40.8738 115.251 40.7083 114.946 40.4629 114.676C41.9688 113.78 43.5133 113.235 45.0468 112.652C46.5417 112.082 48.1387 111.736 49.4681 110.788C48.4283 107.845 46.8893 105.115 46.219 101.995C43.2927 102.87 40.7111 104.273 37.8896 104.862C37.8068 104.649 37.7213 104.437 37.6386 104.224C39.8892 102.557 42.8955 102.314 45.4219 100.557C44.1642 97.306 42.8955 94.0227 41.5965 90.6686C38.4908 91.268 35.9065 93.2407 32.7209 93.3007C35.0763 91.2871 38.2592 90.9438 40.94 89.2953C39.7927 85.6142 37.9696 82.132 37.007 78.2601C33.94 79.3909 30.9888 80.6034 27.8225 81.4426C27.4888 80.6361 27.9769 80.4753 28.6168 80.2355C31.2012 79.2655 33.7579 78.2247 36.323 77.2111C35.8513 74.7479 34.1468 72.6253 34.2599 70.0123C36.0582 71.985 36.2457 74.688 37.6772 76.6907C61.3996 67.9006 85.0862 58.8218 108.897 49.9773C109.407 51.465 108.428 51.5604 107.846 51.7811C103.237 53.5304 98.634 55.3014 93.9728 56.909C91.3582 57.8109 88.8731 59.0289 86.1426 59.6801C84.6449 60.037 83.1666 60.8027 81.7158 61.443C78.2103 62.9907 74.5475 64.116 70.9868 65.5083C67.9888 66.68 64.9824 67.8598 61.9347 68.887C57.9106 70.2412 54.0796 72.0668 50.0225 73.3365C47.4326 74.1458 44.9117 75.2002 42.4156 76.2683C41.0807 76.8405 39.6851 77.2111 38.0275 77.8868C39.6658 81.3827 40.4381 85.2191 42.5728 88.8021C65.9174 79.7424 89.2068 70.7044 112.513 61.6583C112.874 61.691 113.051 61.9852 113.271 62.1978C113.296 62.7209 112.913 63.007 112.601 63.0942C110.938 63.5629 109.371 64.2658 107.774 64.8953C104.318 66.2522 100.835 67.541 97.3846 68.9088C93.5371 70.4374 89.684 71.9632 85.7702 73.3392C83.2742 74.2166 80.825 75.2656 78.3565 76.2356C75.7969 77.2438 73.2374 78.2574 70.6751 79.2574C68.8162 79.9821 66.9462 80.6824 65.0845 81.4017C61.7416 82.6933 58.4016 83.9902 55.0588 85.2872C50.9106 86.8975 46.7624 88.5079 42.7714 90.0582L42.7742 90.061Z" fill="black"/>
<path d="M99.398 73.5953C94.3038 77.2791 88.1643 78.6933 82.8963 81.7886C81.7903 82.1537 80.9629 81.8049 80.505 80.4753C78.7343 81.8267 77.0464 83.1183 75.1405 84.5733H73.5243C73.3202 84.3335 73.0774 84.0474 72.8402 83.7695C70.1014 85.3416 67.9915 87.9029 65.0872 88.5487C64.1963 88.4642 64.1991 87.8184 63.7882 87.6495C61.1404 88.7639 59.3945 91.1426 56.937 92.2761C56.1978 92.0091 56.0406 91.4369 55.7262 90.9519C53.0343 91.8347 51.4346 94.445 48.751 95.3714C48.5855 94.7856 48.8006 94.6085 49.0185 94.4232C50.8554 92.8565 52.6427 91.2325 54.7278 89.9764C56.0682 89.1672 56.8432 89.2516 57.6596 90.3851C59.1987 88.9656 60.8949 87.7612 62.6904 86.6958C63.7302 86.0773 64.7535 86.0038 65.6857 87.0283C68.5762 85.595 70.7662 83.1537 73.367 81.9684C74.4151 81.9657 74.4179 82.8403 75.0688 82.933C76.5499 81.854 78.0393 80.7532 79.548 79.6715C80.8691 78.7232 82.0413 79.0175 82.5405 80.5161C84.7553 79.2382 87.1162 78.32 89.444 77.3173C92.2132 76.1239 94.9465 74.8296 97.5804 73.3446C98.0245 73.0939 98.7968 72.4836 99.3953 73.5953H99.398Z" fill="black"/>
<path d="M52.5489 64.1187C53.2357 64.4484 52.8412 65.1759 53.4701 65.5247C55.9965 64.0015 58.2333 61.5711 61.9954 61.8272C63.3193 61.0397 64.7314 59.6665 66.5325 59.2714C67.222 59.3831 67.0731 60.0752 67.5254 60.2305C69.5609 59.018 71.4695 57.6229 73.698 56.7891C74.0483 56.8082 74.1448 57.3286 74.6054 57.2469C76.8423 55.345 79.7603 54.8491 82.3612 53.6775C82.8025 54.6775 82.7253 54.8028 81.7406 55.2633C79.7769 56.1815 77.7193 56.9635 75.9183 58.1297C74.7323 58.8954 73.7394 59.0806 72.5506 58.5875C70.3662 59.6501 68.9237 61.9934 66.5159 62.0343C65.6802 61.7563 65.9836 61.2087 65.6747 60.9062C64.8721 61.1733 64.2405 61.7427 63.7082 62.3476C63.3413 62.7672 62.969 63.1323 62.5305 63.4757C61.5982 64.2086 60.8287 64.0233 60.0454 63.1242C58.5395 63.7291 57.3728 64.8789 56.0075 65.7072C55.4532 66.0424 54.9512 66.4838 54.3499 66.7944C52.9847 67.5001 52.7089 67.4838 51.636 66.4129C49.366 66.5355 48.831 70.1921 46.1859 69.3012C45.4909 68.6036 46.0591 67.9442 45.7143 67.2631C43.2651 68.4292 42.3356 71.1022 40.2036 72.5327C41.0035 69.5219 43.3313 67.7671 45.524 65.9988C46.8231 65.7999 46.881 66.7535 47.1099 67.6418C49.0626 66.4838 50.3562 64.4811 52.5434 64.1187H52.5489Z" fill="black"/>
</g>
<defs>
<clipPath id="clip0_1282_23">
<rect width="125" height="137" fill="white" transform="translate(8 2)"/>
</clipPath>
</defs>
</svg>
