<?xml version="1.0" encoding="utf-8"?>
<!-- Generator: $$$/GeneralStr/196=Adobe Illustrator 27.6.0, SVG Export Plug-In . SVG Version: 6.00 Build 0)  -->
<svg version="1.1" id="Calque_1" xmlns="http://www.w3.org/2000/svg" xmlns:xlink="http://www.w3.org/1999/xlink" x="0px" y="0px"
	 viewBox="0 0 400 283.6" style="enable-background:new 0 0 400 283.6;" xml:space="preserve">
<style type="text/css">
	.st0{fill:#C21146;}
	.themeColor{fill:var(--voxxrin-event-theme-colors-primary-hex);}
</style>
<g>
	<path class="themeColor" d="M380.5,80.3c0,0-83.1-31.2-93.2-31.2c-10.1,0-40.6-10.7-40.6-10.7c-0.8,18.4-17.2,32-17.2,32
		c-22.7-2-38,2.3-52.6,15.9C162.3,99.9,144,112,126.6,119c-17.4,7-27.5,1-58.2,8.1c-30.7,7-48.9,28.9-48.9,28.9
		c-0.4,7.5,7.3,6.7,8,6.6c-1,0.5-17.3,8.7-23.3,16.1c-6.2,7.7,30.9-5,52.8-8.8c21.9-3.9,19.7-16,19.7-16s3.5-6.6,7.9-2.2
		c4.4,4.3,55.3,13.2,55.3,13.2s4.1,19.4,8.3,43c4.1,23.6-3.5,36.2-1.5,48.2c2.1,12,6.6-12.6,30-26.1c23.4-13.4,15.7-10.1,29.8-37.4
		c14.1-27.2,26.8-33.6,65.9-43.7c39.1-10.1,51.2-29.1,62.1-41.5c11-12.4,22.2-12.2,28.2-12.2s27.1,5.2,34.4-2.7
		C404.3,84.6,380.5,80.3,380.5,80.3z M304.7,107.7c-4,3.6-30.9-2.7-45.6,2.9c-14.7,5.7-32.2,36.6-32.2,36.6s-8.8,9.4-5-6.6
		c3.8-15.9,4.4-26.2,4.4-26.2s-34.3-4.2-46.7-0.8c0,0,5-7.1,27.5-13.4c22.5-6.3,18.9-7.4,15.1-12.4c-3.8-5-6.7-9.7-6.7-9.7
		s8,1.1,21.9,5c13.9,4,37-4,37-4l26.3-1.9l-28.4,13.4l22.5,6.7C294.8,97.5,308.6,104.2,304.7,107.7z"/>
	<g>
		<path d="M399.4,87.2c-0.9-1.8-2.4-2.7-4-3.7c-5.4-3.2-11.5-4-17.2-6.1c-5.7-2.1-11.1-5.1-16.8-6.9c-10.4-3.2-20-8.1-29.9-12.5
			c-5.1-2.2-10.3-4.7-15.7-5.8c-8.8-1.7-17.3-4.6-26.1-6.2c-12.5-2.3-24.7-5.8-36.2-11.6c-6.1-3-10.8-0.9-11.5,5.2
			c-0.9,7.5-3.6,14-7.7,20c-3.9,5.8-8.7,10-16.4,8.7c-1.8-0.3-3.8,0.1-5.6-0.1c-9.5-1-17.8,2.6-25.6,7c-5.8,3.2-11,7.9-16.1,12.2
			c-5.8,4.7-11.1,10-16.9,14.7c-9.4,7.5-20.5,11.9-31.9,15c-7.3,2-14.8,3.7-22.6,1.6c-7-1.9-13.9-1.5-21,1.4
			c-7.9,3.2-15.9,6.3-23.9,9.5c-9.6,3.8-18.4,9.1-27,14.8c-3.5,2.4-6.3,5.7-8.5,9.3c-2.1,3.5-1.6,7.2,1.5,9.4c2.2,1.5,0.5,1.5-0.4,2
			c-4.3,2.7-8.7,5.3-12.8,8.3c-2.8,2-5,4.6-6.8,7.5c-1.3,2.1,0.5,4.2,1.5,3.8c4.5-2,9.5,0.1,13.8-1.7c4.6-1.9,9.4-2.8,14.1-4.2
			c13.4-4.1,27.4-5.7,40.6-10.5c4.6-1.7,8.3-4.5,11-8.6c0.8-1.2,1-2.5,0.6-3.9c-0.3-0.8-2.1-1.3-0.8-2.4c0.3-0.3,1.5,0.4,2.3,0.7
			c1.2,0.5,2.7,0.9,3.7,1.7c4.2,3.5,9.1,4.6,14.4,4.2c2.3-0.1,4.4,0.2,6.4,1.5c1.4,1,3.1,1.3,4.9,1.4c6,0.5,12.1,0.6,18.1,2
			c5.3,1.3,7.9,3.6,8.8,9c0.2,1.2,0.3,2.3,0.2,3.5c-1.2,9.8,1.8,19.2,3.9,28.6c2,9.1,4.3,18,1.5,27.6c-2,6.9-3.5,14.2-2.8,21.6
			c0.3,3,1.7,4.9,4.3,5.7c2.3,0.7,4.7,0.2,6.4-2c1.8-2.4,3.7-4.8,5.5-7.3c5.6-7.6,11.4-15.5,20.6-19.2c13.2-5.4,22.3-14,26.7-27.8
			c2.6-8.3,6-16.4,11.2-23.7c5.1-7,11.5-12.6,18.2-17.5c6.2-4.5,14.3-5.8,21.5-8.1c10.7-3.5,21.9-5.2,32.6-8.8
			c9.8-3.2,18.6-8.3,26-15.4c8.6-8.1,16.4-17,25.1-25c7.1-6.6,16-10.6,26.6-8c5.2,1.3,10.6,2.6,16.9,2.1v-0.1c5.8,1.2,10.9-1,15-6.1
			C400.6,91.9,400.8,89.8,399.4,87.2z M65.4,163.5c-0.1,0.4-0.7,0.9-1.1,0.8c-6.5-0.7-12.1,2.8-18.3,3.7c-8.2,1.2-16.3,3.4-24,6.4
			c-4.1,1.6-8.2,3.3-12.5,4.2c-0.5,0.1-0.9,0.2-1.4,0.2c0.2-0.4,0.3-1,0.6-1.3c9.9-7.1,20.8-12.4,32.5-16.1c0.6-0.2,1.3-0.2,2.2-0.4
			l0,0c6.7,1.9,13.8,2.5,21,1.9C64.9,162.9,65.6,162.7,65.4,163.5z M395.2,91.5c-1.9,3.2-5.8,4.6-15.1,4.6l0,0
			c-5.4-0.7-13.5-2.4-22-2.2c-9.7,0.2-17.3,4.5-23.8,10.7c-7.6,7.2-14.1,15.6-21.7,22.8c-8.6,8.1-18.7,14-30.2,17
			c-14.9,3.9-30.2,6.4-44.4,12.6c-12.8,5.6-22.9,14.5-30.3,26.7c-4.8,7.8-6.4,16.6-9.9,24.8c-3.1,7.1-7.2,12.7-14.4,15.7
			c-13.5,5.7-23.6,15.3-31.8,27.1c-0.5,0.7-0.9,2.2-2,1.8c-0.8-0.3-0.1-1.5-0.1-2.3c0.1-4.3,1.2-8.4,2.1-12.5
			c2.8-12.4,2.3-24.4-2-36.5c-2.3-6.3-3.7-12.9-3-19.9c0.6-5.5-1-11-2.7-16c-1.4-4.1-6.8-5.2-11.1-6c-11.1-1.9-22.5-2.3-33.5-5.1
			c-2.4-0.6-4.9-1.1-6.7-2.3c-10.1-6.9-19.7-3.9-29.2,0.9c-4.5,2.3-8.7,4.4-14,3.4c-6.4-1.2-12.5,0.8-18.6,2.2
			c-1.7,0.4-3.3,0.9-5,0.9c-1.3,0-3,0.6-3.5-1.1c-0.4-1.4,0.4-2.7,1.6-3.5c4.5-2.7,8.2-6.5,12.6-9.5c7.9-5.5,16.6-9.1,25.4-12.4
			c6.6-2.5,13.1-5.7,20.1-6.9c6.2-1,12.5-0.3,18.7,0.5c7.1,0.8,13.9-0.1,20.5-2.2c6.9-2.2,13.7-4.7,20.6-7.3
			c12.3-4.6,21.6-13.1,30.9-21.8c7.7-7.1,15.5-14.4,25.4-18.5c4.5-1.9,9.5-2.8,14.4-2.8c8-0.1,16.1,0,24.1-0.1
			c8.6-0.1,17-1.9,25.4-3.3c1.4-0.2,2.9-1.2,2.7-2.5c-0.3-1.2-2.1-0.6-3.2-0.4c-7.1,0.8-14.2,0.6-21.3,0.6c-0.9,0-2.3,0.4-2.6-0.9
			c-0.2-0.9,1.1-1.2,1.5-1.8c3.8-5.6,7.7-11.1,8.3-18.2c0.1-1.6,1.3-3.2,1.6-4.8c0.4-1.8,0.9-1.7,2.4-1c7.1,3.7,15,5.3,22.6,7.7
			c5.4,1.7,10.7,3.7,16.4,3.2c1-0.1,2.3-0.1,3,0.4c4.9,3.8,11.2,2.1,16.5,4.6c6.2,2.9,13.1,4.2,19.4,7.2c9.5,4.7,19.5,8.3,29.7,11.4
			c7.3,2.2,14.4,5,21.7,7.3c4,1.2,8.2,2,12.4,2.9C396.5,87,396.7,88.9,395.2,91.5z"/>
		<path d="M300.8,96.9c-7.1-2.7-14.6-3.4-21.9-4.9c-0.6-0.1-1.4-0.1-1.8-0.5c-0.4-0.4,0.2-1,0.7-1.1c3.4-0.8,5.7-3.4,9.2-4.2
			c6.1-1.3,12.1-3.4,18-5.4c1.6-0.5,3.1-1.8,2.7-3.9c-0.4-2-2.3-1.9-3.7-1.9c-4.2,0.1-8.5,0.4-12.8,0.6c-5.5,0.3-11-0.3-16.4,0.8
			c-7.3,1.4-14.4,3.6-21.4,6.2c-4.2,1.5-7.8,1.4-12.2-0.5c-7.1-3-13.9-7.5-21.3-6.6c-1.6,0-2.3-0.1-2.9,0c-2,0.5-4.8-1.3-5.9,1.5
			c-1.1,2.8,1.3,4.7,3,6.6c1.1,1.2,2.7,2,3.9,3.2c1.2,1.2,2.7,2.1,3.4,3.8c0.7,1.8,0.9,3.3-1.3,3.3c-4.7,0.1-8.9,2.2-13.4,3.2
			c-10.7,2.3-20.6,6.7-29.9,12.5c-1.8,1.2-3.7,2.5-3.1,4.7c0.7,2.5,3.2,1.9,5.2,1.8c13.2-0.4,26.4-2.8,39.7-1.4
			c4.8,0.5,5.6,0.6,4.9,5.4c-1.1,7.5-1.6,15.2-4.7,22.3c-0.7,1.5-1,3.3-0.9,5c0.2,2-0.6,4.6,2,5.8c2.8,1.4,5,0.2,6.9-1.6
			c2.1-1.9,4.1-4,5.5-6.5c4.4-7.8,9.8-14.9,15.5-21.8c3.4-4.2,6.4-10.3,12.5-10.1c10.6,0.3,21-1.7,31.5-2.3c5.3-0.3,10.5,1.7,15.8,0
			c3.2-1,4.6-2.6,2.8-5.3C307.9,102,305.3,98.6,300.8,96.9z M300.5,104.8c-0.5,1-2.2,0.5-3.3,0.2c-6.7-1.5-13.2-1.3-19.5,1.5
			c-2,0.9-3.9,1-6,0.5c-1.3-0.3-2.7-0.5-4-0.7c-11.9-1.8-19.5,4.9-25.8,13.6c-4.8,6.7-9.8,13.4-12.9,21.2c-0.5,1.4-1.8,2.5-2.7,3.7
			c-0.5,0.7-1,1.6-2,1c-0.8-0.5-0.1-1.2,0.2-1.8c1.3-3.3,2-6.8,2.9-10.3c1.5-5.8,1.4-11.7,1.9-17.6c0.3-3.9-2-4.9-4.5-5.5
			c-2.8-0.8-5.7-0.6-8.4-0.9c-8.1,0.9-15.9,0.7-23.7,0.7c-0.6,0-1.5,0.3-1.7-0.5c-0.2-0.9,0.8-0.8,1.3-1.1
			c8.2-4.9,17.4-6.5,26.4-8.9c2.6-0.7,5.2-1.6,7.8-2.4c3.8-1.3,4.6-5.2,1.9-8.1c-1.8-2-3.8-3.7-5.7-5.6c-0.5-0.5-1-1.1-0.6-1.8
			c0.4-0.7,1.1-0.7,1.8-0.6c2.4,0.3,4.4,2,6.6,2.7c10.3,3.4,20.6,4.8,31.3,1.4c6.6-2.1,13.4-3.8,20.5-3.5c0.6,0,1.4-0.6,1.6,0.4
			c0,0.3-0.9,0.9-1.5,1c-4.1,1.1-7.9,3-11.4,5.3c-1.5,1-2.5,1.7-2.3,3.5c0.3,2,1.9,1.9,3.4,2.4c6.2,2.1,12.7,2.4,18.9,4.2
			c2.8,0.8,5.4,1.7,7.7,3.7C299.3,103.3,301.2,103.4,300.5,104.8z"/>
	</g>
</g>
</svg>
