<svg width="141" height="141" viewBox="0 0 141 141" fill="none" xmlns="http://www.w3.org/2000/svg">
<g clip-path="url(#clip0_1287_33)">
<path d="M134.037 46.7583C134.037 46.7583 104.8 35.6815 101.229 35.6815C97.6577 35.6815 86.938 31.8711 86.938 31.8711C86.6476 38.3978 80.8892 43.2401 80.8892 43.2401C72.9004 42.5377 67.5189 44.0543 62.3722 48.8841C57.2255 53.7139 50.7813 57.9781 44.6522 60.4707C38.5293 62.9695 34.9581 60.8374 24.1704 63.3362C13.3765 65.8288 6.96321 73.605 6.96321 73.605C6.8211 76.2592 9.52729 75.9857 9.78679 75.9546C9.42844 76.1348 3.69477 79.0501 1.56936 81.6795C-0.624016 84.3958 12.4312 79.9079 20.1605 78.5404C27.8837 77.1667 27.0866 72.8528 27.0866 72.8528C27.0866 72.8528 28.3223 70.5218 29.8546 72.0634C31.3869 73.605 49.3231 76.7564 49.3231 76.7564C49.3231 76.7564 50.7813 83.6499 52.2394 92.0104C53.6975 100.371 50.9975 104.846 51.7266 109.104C52.4556 113.356 54.0621 104.629 62.298 99.8611C70.534 95.0935 67.8402 96.2683 72.7953 86.6087C77.7505 76.9491 82.2238 74.6803 95.9771 71.1061C109.731 67.5382 113.988 60.769 117.849 56.3681C121.717 51.9672 125.653 52.0418 127.766 52.0418C129.879 52.0418 137.299 53.8818 139.869 51.0846C142.433 48.2874 134.037 46.7583 134.037 46.7583ZM107.346 56.48C105.937 57.7419 96.4652 55.5103 91.2876 57.5181C86.1039 59.5321 79.9624 70.5032 79.9624 70.5032C79.9624 70.5032 76.8546 73.8225 78.1892 68.166C79.5176 62.5095 79.74 58.8607 79.74 58.8607C79.74 58.8607 67.6795 57.3751 63.3175 58.5686C63.3175 58.5686 65.0907 56.0325 73.0116 53.801C80.9263 51.5632 79.6658 51.1903 78.3375 49.4063C77.0029 47.6223 75.9711 45.9813 75.9711 45.9813C75.9711 45.9813 78.7823 46.3542 83.6634 47.7715C88.5506 49.1825 96.6877 46.3542 96.6877 46.3542L105.937 45.6829L95.9462 50.4506L103.867 52.8313C103.867 52.8313 108.748 55.212 107.346 56.48Z" fill="#C21146"/>
<path d="M75.435 46.1053L79.9 51.5527C69.936 53.6369 64.7816 57 63.45 58.4211C65.142 57.4737 75.1216 58.0263 79.9 58.4211C79.0383 62.5264 77.503 70.9263 78.255 71.6842C79.007 72.4421 86.0883 62.6842 89.535 57.7106L107.395 56.2895C108.147 53.4474 100.188 51.4737 96.115 50.8421C97.995 49.3263 102.695 47.5263 104.81 46.8158C102.695 46.2632 97.619 45.4895 94.235 46.8158C90.005 48.4737 86.245 48.7106 83.66 47.7632C81.592 47.0053 77.315 46.3421 75.435 46.1053Z" fill="white"/>
<path d="M135.161 53.8941C132.943 54.0619 131.053 53.5958 129.211 53.1358C125.473 52.1909 122.335 53.633 119.832 55.9578C116.786 58.7923 114.012 61.95 110.997 64.8404C108.39 67.3454 105.276 69.1481 101.834 70.298C98.0716 71.5536 94.1235 72.1876 90.367 73.4122C87.8091 74.2513 84.9546 74.7113 82.786 76.3026C80.4196 78.0431 78.1644 80.0384 76.385 82.5123C74.5315 85.0857 73.3452 87.9575 72.4308 90.9101C70.8985 95.8331 67.6733 98.8789 63.0394 100.787C59.8266 102.111 57.7877 104.89 55.8044 107.594C55.168 108.458 54.5069 109.309 53.8767 110.173C53.2897 110.975 52.4494 111.149 51.6277 110.888C50.7195 110.602 50.219 109.9 50.1201 108.849C49.8792 106.208 50.3796 103.622 51.0963 101.173C52.0849 97.7663 51.2817 94.6272 50.5774 91.3825C49.8545 88.0445 48.8041 84.7314 49.2181 81.2381C49.2675 80.8092 49.2304 80.4238 49.1563 80.0011C48.8165 78.1114 47.902 77.2723 46.0423 76.8247C43.9416 76.3213 41.81 76.2777 39.6846 76.0975C39.0729 76.0478 38.4798 75.9421 37.9732 75.5878C37.2874 75.1091 36.5398 75.0035 35.7365 75.0532C33.8706 75.1713 32.1654 74.7735 30.6825 73.5489C30.3303 73.2568 29.8361 73.1325 29.3974 72.9522C29.1255 72.8403 28.7054 72.6041 28.588 72.7036C28.1308 73.089 28.7672 73.2506 28.8599 73.5427C29.0143 74.04 28.9464 74.4813 28.6621 74.9165C27.7168 76.371 26.4379 77.3717 24.8067 77.9685C20.1605 79.6716 15.23 80.2497 10.5282 81.6918C8.8847 82.1953 7.17325 82.4875 5.56683 83.1774C4.0531 83.8301 2.30457 83.0842 0.704338 83.7928C0.339805 83.9544 -0.302761 83.2023 0.166806 82.4502C0.809372 81.4183 1.60022 80.4859 2.57025 79.7835C4.01602 78.733 5.55448 77.8069 7.06203 76.8372C7.38332 76.632 7.95174 76.6569 7.19178 76.1161C6.07965 75.3267 5.90665 74.0338 6.65425 72.7844C7.42657 71.4915 8.39659 70.3166 9.64466 69.4775C12.6536 67.4449 15.7614 65.5801 19.1472 64.225C21.9461 63.1062 24.7511 61.9935 27.5438 60.8684C30.04 59.8614 32.4681 59.7247 34.9333 60.3836C37.6951 61.1233 40.3395 60.5141 42.8974 59.8117C46.9135 58.7053 50.8183 57.1699 54.1176 54.4971C56.1627 52.8436 58.0348 50.9726 60.0614 49.2881C61.8902 47.7652 63.6882 46.1118 65.7456 44.9618C68.5012 43.4265 71.4422 42.1398 74.7724 42.4941C75.4274 42.5624 76.1132 42.4133 76.7557 42.5189C79.4928 42.9851 81.1734 41.4995 82.545 39.4358C83.9846 37.2789 84.9485 34.9914 85.2636 32.3248C85.5169 30.1492 87.1851 29.3909 89.3167 30.4662C93.3759 32.5175 97.67 33.7669 102.057 34.5687C105.177 35.1406 108.161 36.16 111.257 36.7754C113.16 37.1546 114.976 38.0435 116.774 38.8391C120.253 40.3807 123.638 42.1273 127.302 43.2648C129.335 43.8989 131.226 44.968 133.227 45.7139C135.229 46.4661 137.398 46.7458 139.282 47.8771C139.869 48.2314 140.382 48.5795 140.703 49.2011C141.173 50.1024 141.105 50.8732 140.438 51.6999C138.986 53.5087 137.188 54.3044 135.161 53.8755V53.8941ZM133.876 52.3339C137.182 52.3526 138.547 51.8366 139.208 50.7116C139.758 49.7792 139.678 49.1141 138.485 48.853C137.027 48.536 135.544 48.2811 134.123 47.8398C131.559 47.0379 129.063 46.0247 126.493 45.254C122.897 44.1786 119.381 42.8857 116.026 41.226C113.821 40.132 111.405 39.6969 109.211 38.6588C107.352 37.7824 105.127 38.3667 103.41 37.0303C103.163 36.8376 102.712 36.85 102.36 36.8811C100.321 37.0551 98.4547 36.3527 96.5702 35.7498C93.9011 34.892 91.1331 34.3387 88.6185 33.0272C88.118 32.7661 87.9141 32.7288 87.7906 33.3691C87.6732 33.9534 87.2654 34.4879 87.216 35.0722C86.9997 37.5773 85.6466 39.5415 84.2997 41.512C84.1452 41.7357 83.7004 41.8476 83.7745 42.1584C83.8857 42.6184 84.3615 42.4879 84.6951 42.4879C87.1974 42.4879 89.7059 42.5314 92.202 42.2641C92.5913 42.2206 93.2338 41.9968 93.3265 42.4195C93.4254 42.8732 92.894 43.2213 92.3874 43.3084C89.4155 43.8181 86.456 44.4521 83.4285 44.4956C80.5988 44.5329 77.769 44.5143 74.9454 44.5391C73.1969 44.5578 71.4484 44.8686 69.8667 45.5399C66.3944 47.0068 63.6573 49.5803 60.9387 52.1164C57.6518 55.187 54.371 58.2142 50.0522 59.8428C47.6549 60.7441 45.2515 61.633 42.8171 62.4162C40.4693 63.1683 38.0782 63.504 35.5883 63.2118C33.4134 62.957 31.1953 62.7021 29.0143 63.0502C26.5244 63.4418 24.2445 64.5793 21.9214 65.4806C18.8259 66.6803 15.7614 67.9546 12.9687 69.894C11.4364 70.9569 10.1266 72.2871 8.5387 73.2568C8.10003 73.5241 7.81581 74.0027 7.97028 74.4938C8.15563 75.1091 8.75495 74.8978 9.21216 74.8916C9.81765 74.8916 10.3861 74.6927 10.973 74.5621C13.1232 74.0773 15.2733 73.35 17.5099 73.7914C19.3758 74.1581 20.8463 73.4246 22.4404 72.5979C25.7644 70.8761 29.175 69.8069 32.7152 72.2622C33.364 72.716 34.2475 72.8776 35.0754 73.0952C38.9556 74.0959 42.9592 74.2265 46.8826 74.9102C48.4025 75.1775 50.2931 75.5691 50.7812 77.0361C51.3682 78.8014 51.9304 80.7408 51.7266 82.6988C51.4732 85.1479 51.9799 87.5037 52.7769 89.7415C54.303 94.0243 54.4636 98.3071 53.4813 102.696C53.1538 104.156 52.7831 105.617 52.7398 107.127C52.7337 107.413 52.4989 107.861 52.7769 107.96C53.1785 108.103 53.3021 107.569 53.4813 107.314C56.3666 103.112 59.9131 99.7056 64.6582 97.6917C67.1729 96.6225 68.631 94.6334 69.7184 92.1222C70.9665 89.2256 71.5411 86.0989 73.2154 83.3328C75.8228 79.019 79.3878 75.8488 83.8857 73.8722C88.8656 71.6842 94.2657 70.7828 99.505 69.4091C103.564 68.3462 107.129 66.2701 110.144 63.3921C112.82 60.8373 115.112 57.8785 117.787 55.3176C120.08 53.1233 122.761 51.6191 126.159 51.5383C129.131 51.4699 131.998 52.0666 133.889 52.3215L133.876 52.3339ZM15.3907 75.3951C15.0694 75.4448 14.8223 75.4572 14.5998 75.5256C10.5035 76.8434 6.66661 78.702 3.16957 81.2256C3.05218 81.3127 3.02746 81.524 2.9595 81.6794C3.12632 81.6545 3.29314 81.6359 3.45996 81.5986C4.97987 81.2754 6.41329 80.6911 7.85906 80.1192C10.5838 79.0438 13.4259 78.2731 16.3113 77.8504C18.4923 77.5334 20.4756 76.2964 22.7617 76.5512C22.879 76.5637 23.12 76.3772 23.1385 76.2529C23.188 75.9918 22.9594 76.0353 22.7864 76.0478C20.2594 76.2777 17.7694 76.0726 15.403 75.3826L15.3907 75.3951Z" fill="black"/>
<path d="M77.4724 45.0426C80.086 44.7007 82.4956 46.3169 84.9855 47.3673C86.5302 48.02 87.7968 48.0697 89.2734 47.529C91.7386 46.6214 94.2348 45.8258 96.8174 45.3347C98.7265 44.968 100.66 45.1545 102.582 45.0612C104.077 44.9866 105.579 44.881 107.074 44.8623C107.568 44.8623 108.235 44.8499 108.39 45.5523C108.55 46.2982 108.007 46.7333 107.457 46.9198C105.362 47.616 103.268 48.3495 101.118 48.8281C99.8881 49.1016 99.054 50.0464 97.8739 50.3199C97.6947 50.3634 97.5032 50.5686 97.6391 50.7115C97.7689 50.8483 98.0531 50.8545 98.2693 50.898C100.846 51.4326 103.478 51.6626 105.974 52.6323C107.568 53.2476 108.489 54.4597 109.329 55.7527C109.947 56.6975 109.477 57.2569 108.334 57.6174C106.462 58.208 104.633 57.4993 102.78 57.605C99.0849 57.8164 95.4396 58.5063 91.7016 58.4131C89.5267 58.3571 88.5011 60.5203 87.2901 61.9997C85.2883 64.4488 83.3729 66.9724 81.8283 69.751C81.3217 70.6585 80.6049 71.3733 79.8821 72.0633C79.2148 72.6973 78.4239 73.1262 77.4539 72.6414C76.5457 72.1876 76.8113 71.2863 76.7496 70.5715C76.7001 69.9934 76.8299 69.3407 77.0647 68.8061C78.1768 66.2825 78.3436 63.5537 78.7329 60.887C78.98 59.1839 78.7081 59.159 77.0091 58.9663C72.3257 58.4504 67.7042 59.3206 63.0456 59.4511C62.3289 59.4698 61.4454 59.6874 61.2044 58.7985C60.9881 58.0153 61.6554 57.5242 62.2918 57.1139C65.5479 55.044 69.0202 53.4901 72.8015 52.682C74.3832 52.3463 75.8475 51.5818 77.5157 51.5569C78.288 51.5445 78.2386 51.0099 77.9791 50.3883C77.7258 49.7853 77.1944 49.4808 76.7866 49.0519C76.3788 48.623 75.7981 48.3619 75.415 47.9206C74.8342 47.2617 73.9878 46.5841 74.3646 45.5834C74.7354 44.595 75.7425 45.2415 76.4406 45.055C76.6631 44.9929 76.9226 45.0426 77.4724 45.0426ZM76.28 57.1699C77.2068 57.2569 78.2571 57.2196 79.2271 57.4869C80.0921 57.7293 80.8892 58.0836 80.7965 59.4511C80.6482 61.5459 80.6544 63.6345 80.1416 65.7044C79.8388 66.9289 79.5855 68.1659 79.1221 69.3469C79.0418 69.5583 78.7946 69.8193 79.0665 69.9872C79.4001 70.1861 79.5793 69.8691 79.7585 69.6267C80.0798 69.1853 80.5185 68.7999 80.71 68.3151C81.8036 65.549 83.5459 63.1869 85.245 60.8062C87.4631 57.6982 90.1199 55.3548 94.3151 55.9764C94.7908 56.0448 95.2604 56.1318 95.73 56.2313C96.4529 56.3867 97.1448 56.3494 97.843 56.0448C100.073 55.0689 102.372 55.0005 104.72 55.5289C105.121 55.6221 105.727 55.7962 105.887 55.4481C106.128 54.9446 105.455 54.9011 105.171 54.64C104.38 53.9376 103.447 53.6082 102.465 53.3222C100.277 52.682 97.9728 52.5639 95.8041 51.8242C95.2913 51.6501 94.6982 51.6812 94.6055 50.9664C94.5252 50.3324 94.8897 50.0589 95.4025 49.717C96.6629 48.8903 97.9789 48.2189 99.4309 47.8211C99.641 47.7652 99.9808 47.5538 99.9684 47.4544C99.919 47.0938 99.6224 47.3301 99.4185 47.3176C96.9224 47.1871 94.5313 47.7962 92.202 48.5484C88.4455 49.7543 84.8002 49.2632 81.1857 48.0511C80.4072 47.79 79.7338 47.2057 78.875 47.0876C78.634 47.0503 78.3745 47.069 78.2448 47.3052C78.1026 47.56 78.2756 47.759 78.4486 47.933C79.1221 48.5919 79.8326 49.2135 80.469 49.9097C81.4205 50.9539 81.1301 52.3525 79.8079 52.8001C78.9059 53.1047 78.0038 53.4092 77.077 53.6579C73.9136 54.5033 70.6514 55.0876 67.7722 56.8094C67.5868 56.9213 67.2285 56.8964 67.3088 57.2134C67.3767 57.5118 67.698 57.4061 67.9204 57.4061C70.6761 57.4185 73.4379 57.4807 76.28 57.1699Z" fill="black"/>
</g>
<defs>
<clipPath id="clip0_1287_33">
<rect width="141" height="81" fill="white" transform="translate(0 30)"/>
</clipPath>
</defs>
</svg>
