<svg width="173" height="207" viewBox="0 0 173 207" fill="none" xmlns="http://www.w3.org/2000/svg">
<style type="text/css">
    .st0{ fill:var(--voxxrin-event-theme-colors-primary-hex);}
</style>
<g clip-path="url(#clip0_1222_2403)">
<path d="M2.01614 190.816L60.7349 112.897C60.7349 112.897 66.255 105.79 72.2201 108.691C72.2201 108.691 66.116 115.922 72.2201 119.434C78.3241 122.945 84.6785 115.52 84.6785 115.52C84.6785 115.52 90.9772 121.03 83.5661 130.315C76.155 139.601 26.2934 201.559 26.2934 201.559C26.2934 201.559 8.27318 208.374 2.01614 190.816Z" class="st0"/>
<path d="M114.253 1.85986C83.2602 1.85986 58.1487 26.9264 58.1487 57.8639C58.1487 88.8015 83.2602 113.854 114.253 113.854C145.247 113.854 170.344 88.7876 170.344 57.8639C170.344 26.9403 145.233 1.85986 114.253 1.85986ZM114.253 103.153C89.1836 103.153 68.8691 82.8749 68.8691 57.8639C68.8691 32.853 89.1836 12.561 114.253 12.561C139.323 12.561 159.624 32.8391 159.624 57.8639C159.624 82.8888 139.309 103.153 114.253 103.153Z" fill="#B3B3B3"/>
<circle cx="114" cy="57" r="45" fill="white"/>
<path d="M85.3357 105.743L84.5098 104.919C82.3269 102.74 78.7877 102.74 76.6049 104.919L71.7184 109.796C69.5355 111.975 69.5355 115.508 71.7184 117.687L72.5443 118.512C74.7271 120.691 78.2663 120.691 80.4492 118.512L85.3357 113.634C87.5185 111.455 87.5185 107.922 85.3357 105.743Z" fill="#333333"/>
<path d="M167.675 34.7544C163.128 23.845 155.536 15.3507 145.455 9.06329C140.742 6.1347 135.597 4.48303 130.383 2.69256C121.595 -0.319307 112.905 -0.513621 103.839 0.680022C98.472 1.38788 93.8974 3.90008 89.1421 5.82934C86.2082 7.00911 82.8155 8.32767 80.4935 10.6178C74.9873 16.017 69.3838 21.2773 64.976 27.8007C59.2196 36.3228 56.1745 45.5666 55.3402 55.6154C54.4503 66.2333 57.3425 76.1988 61.9727 85.5814C64.3642 90.4392 67.159 95.2277 71.7058 98.6698C72.8877 99.572 74.6119 100.766 73.8749 102.639C73.1241 104.499 71.4834 105.374 69.3142 105.138C66.7697 104.86 64.7675 105.873 62.7374 107.525C56.675 112.494 52.4203 119.017 47.6788 125.041C40.9629 133.577 34.4556 142.293 27.7258 150.802C18.7435 162.169 9.4414 173.273 1.72439 185.57C-0.611565 189.276 -0.62547 193.606 2.0442 196.743C6.3546 201.837 11.9025 205.14 18.3681 206.584C21.9833 207.402 25.96 207.236 28.5184 204.099C35.0257 196.118 41.4357 188.054 47.5398 179.768C54.6033 170.164 61.625 160.531 69.0223 151.19C75.4183 143.126 83.1075 136.131 88.5442 127.262C90.6716 123.806 91.4502 120.364 89.9207 116.561C89.5314 115.589 88.5442 114.729 89.6148 113.674C90.6021 112.702 91.6171 112.896 92.938 113.271C97.3179 114.493 101.67 115.811 106.175 116.699C113.85 118.226 121.387 117.463 128.603 115.52C136.459 113.424 143.815 109.829 150.183 104.374C164.296 92.2991 171.971 77.1704 172.931 58.6967C173.473 50.1607 170.817 42.3326 167.675 34.7544ZM74.7231 110.176C74.9595 109.718 75.3766 109.288 75.8216 109.01C77.212 108.122 76.1414 105.263 78.2549 105.374C80.563 105.499 81.8283 108.039 83.9696 108.871C84.2477 108.982 84.3589 109.538 84.6787 110.107C82.607 112.286 81.6754 115.367 79.2421 117.352C78.0741 118.309 76.7671 118.185 75.4461 117.518C72.7626 116.172 72.554 114.409 74.7231 110.176ZM83.5942 125.138C82.9407 125.541 82.023 125.499 81.2721 125.777C79.548 126.401 75.8355 126.262 79.9373 129.219C81.0358 130.01 79.7287 130.551 79.3533 131.093C76.6002 135.048 73.4022 138.615 69.9678 142.016C64.8787 147.026 60.6656 152.814 56.2857 158.421C45.9964 171.621 36.0129 185.056 25.9322 198.408C24.5834 200.199 22.6785 200.657 21.0656 200.879C16.5188 200.907 7.03592 194.619 5.58985 191.025C5.04757 189.692 5.86794 189.068 6.52145 188.207C13.9465 178.533 20.857 168.484 28.7409 159.143C34.692 152.092 40.4763 144.875 45.9825 137.477C50.7656 131.051 56.1606 125.083 60.179 118.101C61.055 116.574 61.4304 116.075 62.1117 118.171C62.2647 118.67 63.2102 119.337 63.6551 119.253C64.545 119.073 63.8081 118.143 63.9888 117.56C64.5172 115.894 64.9899 114.215 65.5461 112.549C65.7269 112.064 66.1857 111.495 66.7419 111.689C67.4232 111.911 66.9505 112.549 66.9505 113.035C67.0478 121.196 74.6397 124.125 80.855 122.543C81.3556 122.418 81.8283 122.112 82.3289 121.96C83.1075 121.724 83.3717 119.239 84.5119 121.155C85.2071 122.321 85.1098 124.167 83.5942 125.138ZM164.352 73.2563C161.877 83.0553 155.967 90.5225 149.14 97.3929C145.636 100.904 141.062 103.084 136.57 105.235C129.006 108.857 120.9 109.94 112.112 110.745C104.423 110.245 96.4698 108.649 89.1421 104.569C77.1842 97.9064 68.9805 87.8993 64.3642 75.2411C61.7502 68.0654 61.3748 60.4038 61.8058 52.6035C62.2647 44.4562 64.8092 37.0306 68.2853 30.0076C71.094 24.3308 75.9328 19.8894 81.2443 16.3084C95.121 6.93971 109.943 3.08119 126.698 7.61981C136.89 10.368 145.567 15.323 152.658 22.8041C157.594 27.995 161.501 34.0743 163.573 41.2223C164.741 45.2335 165.951 49.1336 166.298 53.353C166.854 60.1262 166.02 66.6358 164.352 73.2563Z" fill="black"/>
<path d="M161.862 46.6632C159.235 38.1272 155.327 30.3269 148.764 23.9701C134.86 10.5346 118.842 5.30203 100.085 11.7005C82.2174 17.8075 71.0104 30.1742 67.2422 48.8284C65.7405 56.2678 65.6015 63.9571 67.8123 71.1329C69.6477 77.0872 72.0115 82.9999 76.308 88.0104C82.5233 95.2556 89.3226 101.335 98.6943 104.194C115.811 109.413 131.175 106.734 144.746 94.7559C156.315 84.5266 162.558 71.9379 162.363 57.6142C162.015 53.1172 162.822 49.7999 161.862 46.6632ZM151.17 79.5022C146.971 86.4282 140.881 91.6052 133.177 94.9363C127.004 97.6012 120.802 99.4333 112.209 99.5027C97.9434 98.4756 85.1652 91.9245 76.9059 77.573C73.9025 72.3543 73.0682 66.6081 71.5804 60.9314C69.4531 52.7424 72.3313 45.6916 75.2234 38.8767C78.8803 30.2436 85.2347 23.2067 93.8694 19.1261C106.856 12.9913 120.093 12.908 133.136 19.3065C144.816 25.0388 151.893 34.1993 155.772 46.7326C159.471 58.7245 157.316 69.4118 151.17 79.5022Z" fill="black"/>
<path d="M113.971 54.9912C109.49 54.9912 105.036 54.9647 100.582 54.9912C100.106 54.9912 100.05 54.8324 100.022 54.4618C99.7981 51.7884 101.479 50.3325 103.691 49.1943C105.092 48.4797 106.661 48.0562 108.117 47.4738C108.705 47.2356 109.294 46.9974 109.798 46.6268C110.442 46.1504 110.582 45.5945 110.162 44.9328C109.826 44.4298 109.434 43.9534 109.069 43.4505C107.249 40.8564 106.577 38.0507 107.361 35.0067C108.117 31.9362 110.862 29.8981 114.195 30.0039C116.996 30.0833 119.069 31.3804 120.189 33.8156C121.674 37.1242 121.03 40.2741 119.069 43.2652C118.761 43.7681 118.341 44.2181 118.005 44.6945C117.36 45.568 117.501 46.2298 118.481 46.8121C119.601 47.4738 120.834 47.8444 122.066 48.2679C123.775 48.8502 125.399 49.5914 126.716 50.8619C127.864 51.9472 128.088 53.2971 127.976 54.753C127.948 55.0706 127.724 54.9912 127.556 54.9912H113.971Z" class="st0"/>
<path d="M95.4431 65.7803C95.4767 66.4617 95.4312 67.1279 95.5628 67.7578C95.6838 68.3385 95.6083 68.9063 95.6754 69.5397C95.7137 69.5818 95.7903 69.6661 95.9004 69.7855C95.9004 69.864 95.9471 70.0115 95.892 70.0853C95.6897 70.3545 95.7257 70.6765 95.7987 70.9224C95.9699 71.4984 95.837 72.0732 95.9256 72.7148C95.9543 72.7453 96.0309 72.8296 96.1315 72.9384C96.1195 73.1176 96.1686 73.3072 96.0513 73.5215C95.9675 73.6737 95.9687 73.9184 96.0285 74.0893C96.2284 74.6583 96.0872 75.2367 96.153 75.8654C96.1937 75.9099 96.2715 75.9942 96.3864 76.1194C96.3469 76.4168 96.2667 76.7493 96.2667 77.0818C96.2667 77.4167 96.3457 77.7515 96.3936 78.1063C95.9088 78.1613 95.4527 78.2339 94.9942 78.2585C94.519 78.2842 94.0414 78.2643 93.5589 78.2643C93.5242 78.1859 93.4943 78.118 93.4632 78.0489C93.4332 78.0688 93.4021 78.0875 93.3315 78.1332C93.1663 78.0255 92.9855 77.9072 92.8658 77.8276C92.8718 76.987 92.5666 76.2693 92.4385 75.5212C92.3104 74.7684 92.1069 74.0343 91.9513 73.2885C91.7932 72.5263 91.6185 71.7677 91.4605 71.0453C91.3527 70.9938 91.2893 70.9633 91.2007 70.9212C91.5119 70.3393 91.1277 69.8277 91.0834 69.2856C91.0594 68.9941 90.9433 68.7108 90.8787 68.4216C90.741 67.8058 90.6129 67.1864 90.4765 66.5706C90.4166 66.299 90.3244 66.0332 90.2837 65.7604C90.1951 65.1528 90.012 64.5686 89.8899 63.9949C89.8025 63.9668 89.7486 63.9492 89.7031 63.9352C89.6936 63.8825 89.6684 63.8333 89.684 63.8099C89.9306 63.4423 89.7043 63.0723 89.6373 62.7328C89.5379 62.2247 89.4063 61.7212 89.3129 61.2073C89.2064 60.6265 89.0184 60.0611 88.8807 59.485C88.8113 59.1947 88.7718 58.8973 88.7251 58.6023C88.6569 58.1796 88.4857 57.7816 88.4522 57.346C88.4366 57.1435 88.2511 56.9538 88.1421 56.756C88.3002 56.6529 88.299 56.4457 88.2343 56.3438C88.1182 56.1589 88.1637 55.9727 88.1182 55.7936C88.0715 55.6121 87.9817 55.447 88.0033 55.2468C88.0236 55.0548 88.0081 54.8581 88.0081 54.6251C88.1828 54.6134 88.3528 54.6006 88.5444 54.5877C88.6162 54.5245 88.7048 54.446 88.7981 54.3641H95.2456C96.6797 54.1264 98.1258 54.2786 99.5659 54.2528C101.019 54.2271 102.475 54.247 103.929 54.247H112.657C112.745 54.1299 112.832 54.0128 112.917 53.8993H113.877C113.975 53.9894 114.103 54.1077 114.23 54.2236C114.27 54.2318 114.307 54.2458 114.344 54.2458C118.488 54.2458 122.631 54.2458 126.776 54.2458C128.709 54.494 130.652 54.3266 132.59 54.3559C134.522 54.3851 136.454 54.3652 138.387 54.3582C138.633 54.3582 138.878 54.3067 139.219 54.2681C139.607 54.4015 139.915 54.6884 139.891 55.2304C139.887 55.2983 139.94 55.3686 139.964 55.4377C140.028 55.6262 140.018 55.7795 139.886 55.9657C139.753 56.153 139.709 56.4071 139.651 56.6377C139.532 57.1236 139.43 57.613 139.31 58.1445C139.339 58.23 139.387 58.3681 139.436 58.5156C139.351 58.5496 139.299 58.5707 139.194 58.614C139.111 59.0659 139.062 59.5693 138.918 60.0435C138.787 60.4697 138.744 60.9134 138.592 61.3349C138.421 61.8079 138.427 62.3101 138.458 62.7398C138.358 62.947 138.263 63.0899 138.218 63.2467C138.01 63.9914 137.766 64.7313 137.866 65.5122C137.629 65.7674 137.541 66.059 137.488 66.3844C137.408 66.8762 137.27 67.3597 137.154 67.8631C137.189 67.9404 137.234 68.0399 137.268 68.1137C137.25 68.1874 137.254 68.2413 137.23 68.2565C136.994 68.4099 136.951 68.6838 136.912 68.9004C136.756 69.7984 136.486 70.673 136.327 71.564C136.21 72.2254 136.048 72.8811 135.915 73.5367C135.802 74.0975 135.676 74.6431 135.711 75.2379C135.471 75.458 135.41 75.7635 135.338 76.0773C135.203 76.6721 135.15 77.2891 134.858 77.8335C134.378 78.214 133.816 78.276 133.227 78.2596C132.729 78.2467 132.231 78.2573 131.676 78.2573C131.64 78.214 131.579 78.139 131.555 78.1109C131.585 77.6883 131.652 77.309 131.629 76.9343C131.605 76.562 131.755 76.2248 131.764 75.863C131.772 75.5235 131.674 75.1688 131.876 74.848C131.885 74.8339 131.879 74.8093 131.876 74.7906C131.833 74.0963 131.937 73.4114 131.992 72.7219C132.052 71.9761 132.01 71.2162 132.14 70.4833C132.232 69.9623 132.198 69.4519 132.239 68.9379C132.263 68.6382 132.331 68.342 132.352 68.0423C132.372 67.7507 132.276 67.4288 132.372 67.17C132.55 66.69 132.41 66.2123 132.498 65.7124C132.457 65.6609 132.391 65.6105 132.366 65.5438C132.113 64.8835 131.577 64.6716 130.92 64.6716C125.72 64.6681 120.521 64.6692 115.321 64.6692C109.265 64.6692 103.209 64.6692 97.1514 64.6681C96.6055 64.6681 96.1147 64.8004 95.7592 65.2254C95.6167 65.3951 95.5329 65.6141 95.4419 65.7745L95.4431 65.7803Z" fill="black"/>
<path d="M99.5276 83.9999C98.7555 83.7834 98.6968 83.1266 98.4095 82.5868V82.1068C98.2264 81.8188 98.0408 81.5273 98.291 81.1807C98.2252 80.7674 98.4119 80.3378 98.1797 79.928C98.1126 79.8086 98.1857 79.6201 98.1677 79.4655C98.1222 79.0487 98.2443 78.6296 98.0815 78.2069C97.9331 77.8194 98.1653 77.371 97.9403 76.9659C97.8732 76.8453 97.9175 76.658 97.9331 76.5035C98.0157 75.7108 97.7427 74.9358 97.8158 74.1479C97.5584 73.8235 97.5081 73.7135 97.4638 73.3915C97.5285 73.3623 97.5967 73.3307 97.72 73.2745C97.6649 72.5345 97.6087 71.7735 97.5488 70.9622C97.4554 70.8193 97.3333 70.6308 97.1885 70.4107C97.2723 70.3147 97.3585 70.2152 97.453 70.1052C97.453 69.8043 97.5105 69.48 97.4411 69.1838C97.307 68.6112 97.3597 68.0387 97.3273 67.4662C97.3118 67.1888 97.2256 66.9148 97.1801 66.683C97.3872 66.4629 97.5775 66.3083 97.7068 66.114C97.9642 65.7288 98.3497 65.6211 98.7698 65.6152C99.8053 65.6012 100.842 65.6105 101.877 65.6105H103.284C103.296 65.5145 103.308 65.4244 103.322 65.3073C103.458 65.2663 103.625 65.1575 103.759 65.1879C104.159 65.278 104.547 65.422 104.923 65.6105H105.813C113.463 65.6105 121.112 65.6141 128.76 65.6012C129.119 65.6012 129.464 65.6679 129.78 65.7651C130.076 65.8564 130.312 66.1351 130.582 66.3376C130.617 66.6994 130.726 67.0494 130.666 67.3691C130.556 67.9626 130.646 68.5656 130.54 69.1416C130.449 69.6415 130.531 70.145 130.427 70.6226C130.306 71.1788 130.41 71.7407 130.305 72.2793C130.208 72.778 130.282 73.2791 130.188 73.7603C130.084 74.2965 130.17 74.841 130.063 75.3573C129.959 75.8584 130.053 76.3606 129.948 76.8395C129.83 77.3769 129.92 77.9166 129.829 78.4388C129.735 78.975 129.745 79.5053 129.719 80.0392C129.707 80.2792 129.55 80.5028 129.604 80.7592C129.62 80.8342 129.572 80.9419 129.61 80.9887C129.898 81.3317 129.632 81.587 129.459 81.9242C129.504 82.2438 129.554 82.6184 129.608 83.0048C129.225 83.3268 128.995 83.8243 128.328 83.9999H99.5276Z" fill="black"/>
<path d="M122.556 40.4295C122.84 39.7469 123.298 39.2856 124.01 39.0199C124.213 39.0199 124.481 39.0597 124.727 39.0082C124.952 38.9613 125.132 39.1522 125.37 39.0444C125.503 38.9836 125.671 39.1135 125.78 39.254C126.014 39.5549 126.26 39.8476 126.51 40.1368C126.554 40.1883 126.641 40.2023 126.698 40.2281C126.893 40.9142 127.402 41.4176 127.725 42.0217C127.772 42.1095 127.898 42.1575 127.994 42.2278C128.077 42.4701 128.165 42.7312 128.293 43.107C128.293 43.1363 128.271 43.2967 128.298 43.4477C128.357 43.7639 128.283 44.0846 128.147 44.3293C127.968 44.6548 128.091 44.8773 128.241 45.1114C128.461 45.4591 128.712 45.787 128.97 46.1511C129.022 46.1593 129.116 46.1745 129.216 46.1897C129.313 46.8219 129.712 47.3066 130.046 47.8147C130.829 49.0054 131.65 50.1727 132.443 51.3575C132.597 51.5882 132.693 51.8563 132.826 52.1279V52.8163H130.931C130.964 52.7613 130.992 52.7168 131.057 52.6079C130.543 51.8457 130.079 51.0063 129.416 50.2839C129.406 50.298 129.429 50.2675 129.48 50.2055C128.954 49.4679 128.516 48.6565 127.855 47.9201C127.755 47.7211 127.646 47.4436 127.485 47.1977C127.22 46.788 126.881 46.418 126.651 45.9907C126.5 45.712 126.296 45.6149 126.029 45.5821C125.48 45.5142 125.072 45.1594 124.599 44.9381C124.539 44.91 124.496 44.8257 124.47 44.7578C124.125 43.861 123.496 43.1293 122.983 42.332C122.716 41.9175 122.541 41.5101 122.556 41.0242C122.562 40.8299 122.556 40.6344 122.556 40.4295Z" fill="black"/>
<path d="M96.9407 52.8257H95.1989V51.9218C95.5868 51.3317 95.9998 50.6632 96.4619 50.0275C96.5911 49.8507 96.6103 49.6891 96.6211 49.4796C97.0472 49.2958 97.1825 48.8579 97.4459 48.5266C97.7032 48.2034 97.9091 47.8417 98.1677 47.4506V47.0596C99.1912 46.0071 99.4797 45.5294 99.9813 44.5963C99.9035 44.4335 99.8161 44.2497 99.7227 44.0542V42.8249C100.053 42.3144 100.418 41.7489 100.785 41.1811C100.768 41.1612 100.743 41.1319 100.701 41.0828C101.116 40.8673 101.238 40.4224 101.511 40.0899C101.864 39.6591 102.208 39.2669 102.793 39.0889C103.416 38.8993 104.565 39.1018 104.956 39.665C105.349 40.2304 105.671 40.8498 105.349 41.6002C105.128 42.1166 104.973 42.6399 104.536 43.0555C104.23 43.3482 104.031 43.7533 103.806 44.1209C103.753 44.2076 103.787 44.3457 103.778 44.4932C103.386 44.7953 103 45.1512 102.555 45.41C102.29 45.5645 101.948 45.6617 101.587 45.5469C101.439 45.8244 101.315 46.0902 101.162 46.3384C101.062 46.4999 100.909 46.6276 100.8 46.7844C100.436 47.309 100.076 47.837 99.7239 48.3697C98.9494 49.5405 98.1928 50.7218 97.4004 51.8808C97.1957 52.1794 97.0209 52.4768 96.9395 52.8257H96.9407Z" fill="black"/>
</g>
<defs>
<clipPath id="clip0_1222_2403">
<rect width="173" height="207" fill="white"/>
</clipPath>
</defs>
</svg>
