<?xml version="1.0" encoding="utf-8"?>
<!-- Generator: $$$/GeneralStr/196=Adobe Illustrator 27.6.0, SVG Export Plug-In . SVG Version: 6.00 Build 0)  -->
<svg version="1.1" id="Calque_1" xmlns="http://www.w3.org/2000/svg" xmlns:xlink="http://www.w3.org/1999/xlink" x="0px" y="0px"
	 viewBox="0 0 300 300" style="enable-background:new 0 0 300 300;" xml:space="preserve">
<style type="text/css">
	.st0{fill:#FFFFFF;}
</style>
<g>
	<path class="st0" d="M226.4,64.8C226.5,64.9,226.6,64.9,226.4,64.8L226.4,64.8z"/>
	<path class="st0" d="M129.4,38.4C129.4,38.4,129.4,38.4,129.4,38.4c-0.1,0.2-0.2,0.4-0.2,0.5L129.4,38.4z"/>
	<path class="st0" d="M113,41.4c0,0-0.1,0-0.1,0C112.9,41.5,112.9,41.6,113,41.4z"/>
	<path class="st0" d="M168.2,36.2c-0.1,0-0.2,0-0.3,0C168,36.3,168.1,36.3,168.2,36.2z"/>
	<path class="st0" d="M247,87.9l0.1-0.2c0,0,0,0-0.1-0.1C247,87.8,247,87.8,247,87.9z"/>
	<path class="st0" d="M246.6,87.7c0,0,0-0.1,0-0.1C246.6,87.5,246.6,87.6,246.6,87.7z"/>
	<path class="st0" d="M246.6,87.5c0.1-0.1,0.3,0.1,0.4,0.2c0-0.5-0.2-0.8-0.6-1.1C246.3,86.7,246.6,87.2,246.6,87.5z"/>
	<path class="st0" d="M168.3,21.8c0.1,0,0.2,0,0.3,0C168.5,21.7,168.4,21.7,168.3,21.8z"/>
	<path class="st0" d="M264.7,131.8l-0.5,0C264.5,131.8,264.6,131.8,264.7,131.8z"/>
	<path class="st0" d="M129.2,38.9l-0.1,0.2C129.2,39.1,129.2,39,129.2,38.9z"/>
	<path class="st0" d="M98.5,47.2c-0.1-0.1-0.2-0.2-0.2-0.3c0,0,0,0,0,0L98.5,47.2z"/>
	<path class="st0" d="M38.5,99.7c0.1,0,0.1,0,0.2,0l-0.2-0.4C38.5,99.5,38.5,99.6,38.5,99.7z"/>
	<path class="st0" d="M79.2,56.8c0,0.1,0,0.1,0,0.2c0.4-0.1,1.2-0.7,2.2-1.4l-0.3-0.5L79.2,56.8z"/>
	<path class="st0" d="M86.7,53.6l-0.1,0.3C86.6,53.8,86.7,53.7,86.7,53.6z"/>
	<path class="st0" d="M261.6,120.2c0,0,0-0.1-0.1-0.1C261.5,120.1,261.5,120.2,261.6,120.2z"/>
	<path class="st0" d="M34.8,92.1L34.8,92.1C34.4,91.8,34.5,92,34.8,92.1z"/>
	<path class="st0" d="M69.3,63.7c0,0-0.1,0.1-0.1,0.1l0.7,0.1L69.3,63.7z"/>
	<path class="st0" d="M52.8,83.2c-0.3,0.3-0.4,0.7-0.5,1C53.1,83.2,53,83.1,52.8,83.2z"/>
	<path class="st0" d="M31.1,102.1c-0.3,0.6,0,0.5,0.4,0.2c0.2-0.7,0.4-1.1,0.4-1.1C31.7,101.5,31.3,101.8,31.1,102.1z"/>
	<path class="st0" d="M37.1,101.6l0.2,0.3C37.4,101.6,37.3,101.5,37.1,101.6z"/>
	<path class="st0" d="M263.4,133.6C263.4,133.6,263.5,133.6,263.4,133.6c0,0,0.1-0.1,0.1-0.1L263.4,133.6z"/>
	<path class="st0" d="M263.7,133.4C263.7,133.4,263.7,133.4,263.7,133.4C263.7,133.4,263.7,133.4,263.7,133.4z"/>
	<path class="st0" d="M263.5,133.6c-0.1,0.2-0.1,0.3,0,0.3c0.2-0.2,0.1-0.3,0.2-0.4C263.6,133.5,263.5,133.5,263.5,133.6z"/>
	<path class="st0" d="M271.3,160.2c0,0.1,0,0.1-0.1,0.2C271.2,160.4,271.3,160.3,271.3,160.2z"/>
	<path class="st0" d="M257,128.6l0.3-0.3C257.2,128.5,257.1,128.6,257,128.6z"/>
	<path class="st0" d="M289.3,131.7l0.2,0.3c0,0,0-0.1-0.1-0.1C289.3,131.8,289.3,131.7,289.3,131.7z"/>
	<path class="st0" d="M278.7,134.9c0,0-0.1-0.1-0.1-0.1c-0.2-0.1-0.3,0-0.4,0.2l0.4,0.4L278.7,134.9z"/>
	<path class="st0" d="M294.4,137c-0.2-0.4-1.3-1.5-0.4-1.2c-0.9-0.6-0.3-0.6-0.7-1c0.1,0.1,0.3,0.2,0.5,0.3c0.1-0.3,0.3-0.9,0-1.4
		c0,0-2.4-0.8-3.4-1.4c0.5-0.1,0-0.2-0.3-0.4l0.2,0.2c-0.4,0-0.8-0.5-1.1-0.6c0,0,0.1,0.1,0.1,0.1l-0.1-0.1c0.1,0.1,0.1,0.1,0.2,0.2
		c0.1,0.1,0.2,0.2,0.1,0.2l0-0.1c0,0.1-0.2,0.2-0.3,0.2l-0.4-0.4c0.6,0.9-2-0.3-2.2-0.2c-0.7-0.3-0.3,0.5-0.7,0.5
		c-0.5,0.2-0.8-0.4-1.3-0.6c-0.5,0,0.5,0.4,0.5,0.5l-0.8-0.3c0.1-0.2-0.2-0.4-0.4-0.5c-0.3,0.1-1.4-0.2-0.6,0.6
		c-0.7-0.1-1-0.4-1.2-0.3c0.2,0.1,0.4,0.2,0.6,0.3c-0.5-0.2,0,0.1,0.2,0.2c0.2,0.5-2.4-0.5-1.6,0.4l-0.2-0.2
		c0.6,0.7,1.3,1.3,1.6,1.8l-0.4-0.2l0.2,0.4c-0.3-0.1-0.4-0.3-0.5-0.4c0.1,0.5-0.6,0.4-0.9,0.6l2.1,1.5c-0.6-0.2-1.8-0.7-1.3-0.1
		l-0.7-0.5c-1.6-0.7,0.2,0.8-0.3,0.6l-0.9-0.4l0.2-0.2c-0.5-0.1-0.8-0.3-1.4-0.5l0,0c0,0,0.1,0,0.1,0.1l0,0c0.3,0.4,0.4,0.7,0.2,0.8
		c-0.3,0.1-0.1,0.6-0.7,0.5l-0.2-1.2c0,0,0-0.1,0.1-0.1l-0.1-0.1l-0.1-0.5c-0.3-1.4-0.5-2.8-0.8-4.3l-0.4-2.1
		c-0.2-0.7-0.3-1.4-0.5-2.1l-1-4.2c-0.3-2.3-0.6-4.6-0.9-6.9l-0.6-3.4c-0.2-1.1-0.4-2.3-0.7-3.4l-1.5-4c-0.1-0.3-0.2-0.7-0.4-1
		l-0.4-1l-0.8-1.9c-1.1-2.6-2.3-5.1-3.6-7.7c-2.6-5-5.4-9.9-8.6-14.5l-2.2-1.4c-0.6-1.6-1.4-3.2-2.4-4.7c-0.5-0.8-1.1-1.5-1.7-2.2
		c-0.6-0.7-1.2-1.5-1.8-2.2l-0.9-1.1l-1-1c-0.7-0.7-1.3-1.4-1.9-2.1c-1.2-1.5-2.5-2.8-3.4-4.4l-0.8,0.6c-1.4-1.4-0.9-1.7-1.2-2.2
		c-6.8-6.5-14.5-12-22.3-16.8c-7.9-4.7-16-8.6-23.6-12.1c-0.2-0.1-0.4-0.3-0.6-0.5c-0.3-0.1-0.6-0.3-0.9-0.4
		c-0.7-0.3-1.4-0.6-2.2-0.9c-1.5-0.6-2.9-1.2-3.5-1.6c-2.8-0.2-5.6-0.7-8.3-1.2c-0.7-0.1-1.4-0.3-2.1-0.4c-0.7-0.1-1.4-0.3-2.1-0.4
		c-1.4-0.2-2.7-0.5-4.1-0.8l0.2-0.1c-0.9-0.1-1.7-0.2-2.6-0.2c-0.1-0.1-0.1-0.2,0-0.3c-1.5,0.2-3.3,0-5.3-0.4
		c-1.9-0.3-3.9-0.7-5.7-1.1l0.2-0.1c-1.3-0.1-2.6-0.1-3.9-0.2c-1.3,0-2.6,0-3.8-0.1c-1.3,0-2.5,0.1-3.8,0.1c-0.6,0-1.3,0-1.9,0.1
		c-0.6,0.1-1.3,0.1-1.9,0.2c-5,0.4-10,1.2-14.9,2.1c-9.8,2-19.2,4.9-28.9,8.3c-1.2,0.3-2.3,0.7-3.5,1.1c-1.2,0.5-2.3,1-3.5,1.5
		c-1.2,0.5-2.3,1.2-3.5,1.8c-0.6,0.3-1.1,0.7-1.7,1c-0.6,0.3-1.1,0.7-1.7,1.1c-0.6,0.4-1.1,0.7-1.7,1.1c-0.6,0.4-1.1,0.7-1.7,1.1
		c-1.1,0.8-2.3,1.5-3.4,2.3c-1.1,0.8-2.3,1.5-3.4,2.3c-0.6,0.4-1.2,0.7-1.7,1.1c-0.6,0.4-1.2,0.7-1.8,1.1c-0.3,0.1-0.8,0.3-1.5,0.8
		c-0.7,0.5-1.5,1.1-2.5,1.8c-0.5,0.4-1,0.8-1.5,1.2c-0.5,0.4-1,0.9-1.6,1.4c-1.1,1-2.2,2-3.3,3.1c-2.2,2.1-4.2,4.4-5.8,6.2
		c-1.5,1.9-2.6,3.3-2.9,3.7l2.6-1.1c-0.6,0.8-1.3,1.5-1.8,2.2c-0.6,0.7-1.1,1.4-1.6,2c-0.5,0.6-1,1.2-1.5,1.8
		c-0.5,0.6-0.9,1.1-1.4,1.7c-0.5,0.5-0.9,1.1-1.4,1.7c-0.4,0.6-0.9,1.1-1.3,1.8c-0.8,1.2-1.7,2.5-2.4,4.1l0-0.5
		c-0.4,0.4-0.1,1-0.9,2.5c-0.4,0.8-1,1.8-2,3.1c-0.5,0.7-1.2,1.4-1.9,2.2c-0.7,0.8-1.6,1.8-2.6,2.8l-0.1-0.1c-0.2,0.4,0,0.5-0.6,1
		c0.5-0.5,1-0.9,1.6-1.4c-0.3,1.2-0.3,2.3-0.9,3.7c-0.3,0.2-0.5,0.2-0.7,0.2L34,93.8l-0.7,1.8l-1.2,0.8c-0.1,0.6,0.3,1,0.5,1.5
		c0.1,0.3,0.1,0.5-0.1,0.9c-0.1,0.4-0.4,0.9-0.9,1.5c1.4-0.7,0,1.7,0.7,1.5c-0.2,0.1-0.5,0.3-0.8,0.5c-0.3,0.9-0.7,2.2-0.9,3.3
		c-0.3,1.2-0.4,2.3-0.3,2.8c0,0,1.2-1.5,2.5-3.1c0.7-0.8,1.5-1.7,2.1-2.4c0.7-0.7,1.3-1.3,1.8-1.6c-1.2,2.2-0.1,0.7,0.4,0.3
		l-0.2-0.3c0.8-1.3,1.5-1,2-1.6c-0.1,0-0.1,0-0.2,0l0,0.1c-0.1,0-0.2-0.1-0.2-0.2c-0.1,0-0.2-0.2,0-0.5l0,0.1c0.2-0.6,0.7-1.5,1-1.9
		l0.5,0.2c-0.3-0.7,1-2.2,2.3-3.6c0.7-0.7,1.4-1.4,2-2c0.6-0.6,1.1-1.1,1.3-1.4c0.3-0.2,0.6-0.5,0.8-0.9c0.2-0.3,0.4-0.7,0.6-1.1
		c0.4-0.8,0.7-1.6,1.4-2.3c1.7-2.3,1.5-0.8,2.7-1.7c1.3-1.3-0.8-0.1-0.4-0.7c0.6-0.5,1.2-0.9,1.9-1.4c-0.6,1.1,0,0.7,0.3,0.6
		c0.6-0.7,1.5-1.5,2.2-2.3c0.4-0.4,0.6-0.7,0.8-1.1c0.2-0.3,0.2-0.7,0.1-0.9c2-1.6,2.3-1.4,3-2.2c-0.4,0.2-1,0.6-1.1,0.5
		c1-0.5,0.2-0.5-0.1-0.2c0.3-0.8,1.9-2,3.4-3.1c0.7-0.6,1.5-1.1,2-1.5c0.5-0.5,0.7-0.8,0.6-1.1l0.2,0.2c-0.5-0.9-1.5-1.1-1.2-2.2
		l0.8-0.2c0.1-0.4,0.3-0.7,0.5-1.1c0.7-0.3,0.7,0.1,0.7,0.2c0.5-0.8,1.2-1.5,2-2.2c0.8-0.7,1.8-1.4,2.6-2.1
		c-1.1-0.1-2.3-0.2-3.4-0.3c0.9-0.4,2.1-1,3.1-1.5c1-0.5,1.7-1.1,1.6-1.5l1.4-0.1c0.9-0.3,1.5-0.6,1.8-0.8c0.3-0.3,0.5-0.5,0.5-0.7
		c0.1-0.5-0.2-0.9,0.6-1.2l2-0.4l-1.4,1.1c0.8-0.4,1.4-0.6,2-0.8c0.6-0.2,1.2-0.3,1.9-0.5c0,0,0,0,0,0c-0.1,0-0.2,0-0.2,0l0.2-0.2
		c-0.1-0.5,0.4-1.3,1.5-2c0.8-0.5,1.3-1,2.1-1.6c0.7-0.5,1.6-1.1,3.1-1.5l0.1-1.2l2.1-0.7l0.4,0.6c-0.9,0.5-2.1,1.4-3.4,2.3
		c-1.2,1-2.6,2-3.6,2.8l0.2,0.3c1.3-0.9,2.6-2.2,3.5-2.8c0.5-0.2,1.7-0.2,1.6,0.5l0.3-0.9c1.1-0.7,1.9-1.3,2.6-1.7
		c0.7-0.4,1.3-0.7,1.9-1.1c0.6-0.3,1.2-0.6,2-0.9c0.8-0.3,1.8-0.6,3.1-1.1L96,47.9c0.4-0.4,0.8-0.7,1.2-0.9c0.4-0.2,0.8-0.3,1-0.1
		c1.5-0.7,3-1.3,4.5-1.6c1.5-0.4,2.9-0.6,4-0.5l0.1-1c0.7-0.2,2.1,0.7,2-0.6c0.4-0.3,0.8-0.6,1.2-0.9c0.9-0.2,1.3-0.9,2.5-0.8l0,0
		c0,0,0,0,0,0c0.1,0,0.1,0,0.2,0c0,0,0,0,0-0.1c2.1-0.3-0.3-0.8,2.2-1c0.9,0.4,0.5-1.3,1.7-1.5c0.5,0.3,1,0.6,1.5,0.9
		c1.1,0.1,1.7-0.2,2.4-0.6c0.7-0.4,1.4-1,3-1.3c1.6,0.1,2.5,1,1.7,2.2c1.1-1.4,0.4-0.9,2.1-1.8c0.4,0.4,0.2,0.6-0.1,1.1
		c1.7,0.3,0.9-0.6,2.1-0.8c0.2-1,0.3-2.5,0.7-2.6l-0.5-0.2c0.6-0.3,1.2-0.7,1.9-0.8c0.7-0.2,1.4-0.2,2.2-0.1l0,0.5l1.6-0.5l0.2,0.6
		c0.7-0.2,1.5-0.3,2.3-0.4l-0.3-0.1c0.5-0.1,2.3-0.5,3.3-0.3l0,0.3c1.5,0.4,2.7,0.3,4.1,0c1.3-0.3,2.8-0.6,4.4-0.7l-0.4,0.7
		c0.6,0.3,0.6,0.1,0.7-0.2c0.1-0.3,0.2-0.6,0.9-0.5l0.1,0.8c1.2-1,1.5,0.3,2.3,0.7l-0.4-1.1l1.5,0.3c1.7,0.4,1,1.4,0.7,1.9
		c0.4-0.3,0.8-0.6,1.2-0.8l0.2,1c0.9-1,0.8,0.2,2.3-0.2c0.1,0.4-0.3,0.5,0.2,0.7l2.5-1.1l-1.5,0.5l0.3-1.4c0.8-0.5,1.3-0.4,1.8-0.2
		c0.4,0.2,0.8,0.4,1.4,0.3l-0.8,0.3c1.8-0.1,1.8,0.5,2.8,0.9c-0.3-0.3-0.7-0.7,0-0.8c0.5,0,0.2,0.5,0.7,0.7c0.2-0.9,1.6-1.2,2.7-0.6
		c0,0.1-0.1,0.2-0.2,0.3c0.3-0.1,0.5-0.3,1,0l-0.5,1l1.1-0.8c0.6,0.4,1.7-0.2,1.5,0.5l-0.4,0.1c1.6,0.3,3.2,0.8,4.8,1.3l-0.1,0.8
		c0.7-1,2.5,1,2.7-0.4c0.7,1,3.7,0.5,2.7,1.9c0.8,0.3,1.5,0.4,2.2,0.5c0.7,0.1,1.3,0.2,2,0.3c0.7,0.1,1.4,0.2,2.1,0.4
		c0.4,0.1,0.8,0.2,1.2,0.4c0.4,0.2,0.8,0.4,1.2,0.7c0.4,0.9,1.6,1.6,2.9,2.2c0.7,0.3,1.3,0.6,2,0.9c0.7,0.3,1.3,0.6,1.9,0.9
		c0.6,0.2,1.2,0.4,1.7,0.5c0.5,0.2,1.1,0.4,1.6,0.6c1,0.4,2,0.7,3,1.1c0.5,0.2,1,0.4,1.5,0.6c0.5,0.2,1,0.4,1.5,0.6
		c0.5,0.2,1,0.5,1.6,0.7c0.5,0.2,1.1,0.5,1.7,0.8c0.4,0.8,1,1.4,1.8,2c0.4,0.3,0.8,0.5,1.2,0.7c0.4,0.2,0.9,0.4,1.3,0.7
		c0.9,0.4,1.8,0.9,2.6,1.4c0.8,0.5,1.5,1,2,1.8l1.2,0c0.5,1.2,1.6,1.9,2.9,2.8c1.2,0.9,2.5,1.9,3.2,3.3c0.8,0.2,1.1,0.5,1.3,0.5
		c-0.1-0.1-0.1-0.4,0.1-0.8c0.4,0.9,2,1.8,1.3,2.4l-0.2-0.1c-0.4,0.3,0.2,0.7,0.9,1.1c0.3,0.2,0.7,0.5,1,0.8
		c0.3,0.3,0.5,0.6,0.5,0.9l0.3-1.1l1,1.3l-0.4-0.2c0.8,0.5,1.6,0.9,2.2,1.4c0.7,0.5,1.2,1,1.7,1.5c1,1.1,1.8,2.1,2.5,3.2
		c0.7,1.1,1.4,2.2,2.3,3.2c0.4,0.5,0.9,1.1,1.5,1.6c0.5,0.5,1.1,1.1,1.9,1.6c-1.4-0.1,1.3,0.8,0.3,1.5c-0.1,1.1,0.4,1.7,1.1,2.2
		c0.7,0.5,1.5,0.7,2.1,1.2c0,0,0.1-0.1,0.2,0c0.4,0.7,0.8,1.4,1.2,2.2c-2.1-0.5,2,0.9,0.2,0.4c0.6,1.5,1.4,3.1,2.2,4.7
		c0.8,1.6,1.7,3.3,2.6,5c0.4,0.9,0.9,1.7,1.3,2.6l0.6,1.3l0.3,0.7l0.3,0.7c0.4,0.9,0.7,1.8,1.1,2.7c0.3,0.9,0.7,1.8,0.9,2.7l0.3-0.4
		c0.3,0.9,0.7,1.9,1.1,2.8c0.4,0.9,0.7,1.8,0.6,2.6c-0.2,1.6,1.9,2.7,2.1,3.3c0.3,0.3,0.4,0.7,0.5,1c0.1,0.3,0,0.7,0,0.9
		c-0.1,0.4-0.3,0.7-0.4,0.6c0.3,0.7,0.8,1.4,1.3,2.2c0.5,0.8,1,1.7,0.9,3c-0.6,0.5,0.1,2,0.6,3.5c0.1,0.4,0.3,0.7,0.4,1.1
		c0.1,0.3,0.2,0.7,0.2,0.9c0.1,0.5,0,0.9-0.3,1l0.1,0c-0.1,0.5-0.1,1-0.1,1.4c-0.2,0-1,0.5-1.3,0.6c0,0-0.1,0.1-0.2,0.1l-0.2-0.4
		c1.3-0.9-1.1,0.7,0-0.1c0-1.6-1.8-1.8-2.3-3l-0.2,0.3c-0.2-0.3-0.8-0.2-0.5-0.8c0.3-0.6-1.1,0.3-1.2,0.3c-0.6,0.3,0-0.6,0.1-0.7
		c-0.4,0-1.5,0.7-1.3,0c0.8-1-1.7,0.1-0.6-0.9l-0.1,0.1c0.4-1.1-1.2-0.2-0.9-1.2c0,0,0.1-0.1,0.2-0.1l-3.9,2.3l-3.2,3.7l-2.1,3.5
		l2.5,1.2l0.4,2.6l4,3.2l1-0.5c-0.7,2.1,1.8,1.4,1.6,3.1l0.7-0.7c0.3,0.2-0.2,0.6-0.2,0.7c0.5,0.5,1.1,0.9,1.7,1.3l0.4,0.3
		c0.2,0.1,0.3,0.2,0.6,0.4c0.5,0.4,1,0.8,1.5,1.2c1.9,1.6,3.6,3.3,5,5.6c0.1,1,1.2,1.6,1.4,2.7c1.4-0.3,2.4,0.8,3.5,2l0,0.1l0.2,0.1
		l0.3-0.4c0,0.1,0,0.2,0,0.4c0.3-0.9,0.6-1.2,1-1.4c0.4-0.2,0.8-0.2,1.2-0.4l0,0.2c1.1-1,2.1-2.1,3.1-3.3c1-1.1,1.9-2.3,2.8-3.4
		c0.9-1.1,1.8-2.1,2.8-3.1c0.6-0.6,0.8-0.7,1.1-0.9c0.3-0.2,0.7-0.4,1.1-0.6c2.1,0.1,1.8-2.6,3.9-2.9c0.9,0.5,2.8-2.4,2.6-2.9
		l-1.1-0.5c0.5-1.3,1.7-0.9,1.8-2.3l0.1,0.2c0.3,0.1-1.5-1.8,2-0.8l0.1,0.1c0-0.1-0.1-0.2,0.2-0.1l-0.7-0.3
		c-0.1-0.3-0.4-0.8-0.2-1.1c0.1,0.1,0.3,0.2,0.4,0.3l0.3-0.5L294.4,137z M278.5,136.9l-0.2,0l0-0.2L278.5,136.9z M264.6,133.9
		c0.1-0.2,0.2-0.3,0.2-0.4c0,0.2,0,0.4,0.1,0.6c0,0.1,0,0.2,0.1,0.3c-0.2,0-0.4,0-0.6,0.1C265.2,133.8,263.7,134.7,264.6,133.9z"/>
	<path class="st0" d="M258.9,129.5C259,129.5,259,129.5,258.9,129.5C259,129.5,259,129.5,258.9,129.5z"/>
	<path class="st0" d="M293.5,137.1L293.5,137.1C293.8,137.4,293.7,137.3,293.5,137.1z"/>
	<polygon class="st0" points="280.9,134.3 280.9,134.3 280.5,134 	"/>
	<path class="st0" d="M283.8,131c-0.2,0.1-0.2,0.1,0,0.2C283.9,131.1,283.9,131.1,283.8,131z"/>
	<path class="st0" d="M294.1,135.4c0.1-0.1-0.1-0.2-0.3-0.3c0,0.1-0.1,0.2-0.1,0.2C293.8,135.3,294,135.4,294.1,135.4z"/>
	<path class="st0" d="M290,131.9l-0.2-0.3C289.8,131.8,289.9,131.8,290,131.9z"/>
	<path class="st0" d="M73,234.2C72.9,234.1,72.8,234.1,73,234.2L73,234.2z"/>
	<path class="st0" d="M169.9,260.6C170,260.6,170,260.6,169.9,260.6c0.1-0.2,0.2-0.4,0.2-0.5L169.9,260.6z"/>
	<path class="st0" d="M186.4,257.6c0,0,0.1,0,0.1,0C186.5,257.5,186.4,257.4,186.4,257.6z"/>
	<path class="st0" d="M131.2,262.8c0.1,0,0.2,0,0.3,0C131.3,262.7,131.3,262.7,131.2,262.8z"/>
	<path class="st0" d="M52.3,211.1l-0.1,0.2c0,0,0,0,0.1,0.1C52.3,211.2,52.3,211.2,52.3,211.1z"/>
	<path class="st0" d="M52.7,211.3c0,0,0,0.1,0,0.1C52.8,211.5,52.8,211.4,52.7,211.3z"/>
	<path class="st0" d="M52.7,211.5c-0.1,0.1-0.3-0.1-0.4-0.2c0,0.5,0.2,0.8,0.6,1.1C53.1,212.3,52.8,211.8,52.7,211.5z"/>
	<path class="st0" d="M131.1,277.2c-0.1,0-0.2,0-0.3,0C130.9,277.3,131,277.3,131.1,277.2z"/>
	<path class="st0" d="M34.6,167.2l0.5,0C34.9,167.2,34.7,167.2,34.6,167.2z"/>
	<path class="st0" d="M170.1,260.1l0.1-0.2C170.2,259.9,170.2,260,170.1,260.1z"/>
	<path class="st0" d="M200.8,251.8c0.1,0.1,0.2,0.2,0.2,0.3c0,0,0,0,0,0L200.8,251.8z"/>
	<path class="st0" d="M260.9,199.3c-0.1,0-0.1,0-0.2,0l0.2,0.4C260.9,199.5,260.9,199.4,260.9,199.3z"/>
	<path class="st0" d="M220.2,242.2c0-0.1,0-0.1,0-0.2c-0.4,0.1-1.2,0.7-2.2,1.4l0.3,0.5L220.2,242.2z"/>
	<path class="st0" d="M212.7,245.4l0.1-0.3C212.7,245.2,212.7,245.3,212.7,245.4z"/>
	<path class="st0" d="M266.6,193.7c-0.7,0.8-1.5,1.7-2.1,2.4c-0.7,0.7-1.3,1.3-1.8,1.6c1.2-2.2,0.1-0.7-0.4-0.3l0.2,0.3
		c-0.8,1.3-1.5,1-2,1.6c0.1,0,0.1,0,0.2,0l0-0.1c0.1,0,0.2,0.1,0.2,0.2c0.1,0,0.2,0.2,0,0.5l0-0.1c-0.2,0.6-0.7,1.5-1,1.9l-0.5-0.2
		c0.3,0.7-1,2.2-2.3,3.6c-0.7,0.7-1.4,1.4-2,2c-0.6,0.6-1.1,1.1-1.3,1.4c-0.3,0.2-0.6,0.5-0.8,0.9c-0.2,0.3-0.4,0.7-0.6,1.1
		c-0.4,0.8-0.7,1.6-1.4,2.3c-1.7,2.3-1.5,0.8-2.7,1.7c-1.3,1.3,0.8,0.1,0.4,0.7c-0.6,0.5-1.2,0.9-1.9,1.4c0.6-1.1,0-0.7-0.3-0.6
		c-0.6,0.7-1.5,1.5-2.2,2.3c-0.4,0.4-0.6,0.7-0.8,1.1c-0.2,0.3-0.2,0.7-0.1,0.9c-2,1.6-2.3,1.4-3,2.2c0.4-0.2,1-0.6,1.1-0.5
		c-1,0.5-0.2,0.5,0.1,0.2c-0.3,0.8-1.9,2-3.4,3.1c-0.7,0.6-1.5,1.1-2,1.5c-0.5,0.5-0.7,0.8-0.6,1.1l-0.2-0.2
		c0.5,0.9,1.5,1.1,1.2,2.2l-0.8,0.2c-0.1,0.4-0.3,0.7-0.5,1.1c-0.7,0.3-0.7-0.1-0.7-0.2c-0.5,0.8-1.2,1.5-2,2.2
		c-0.8,0.7-1.8,1.4-2.6,2.1c1.1,0.1,2.3,0.2,3.4,0.3c-0.9,0.4-2.1,1-3.1,1.5c-1,0.5-1.7,1.1-1.6,1.5l-1.4,0.1
		c-0.9,0.3-1.5,0.6-1.8,0.8c-0.3,0.3-0.5,0.5-0.5,0.7c-0.1,0.5,0.2,0.9-0.6,1.2l-2,0.4l1.4-1.1c-0.8,0.4-1.4,0.6-2,0.8
		c-0.6,0.2-1.2,0.3-1.9,0.5c0,0,0,0,0,0c0.1,0,0.2,0,0.2,0l-0.2,0.2c0.1,0.5-0.4,1.3-1.5,2c-0.8,0.5-1.3,1-2.1,1.6
		c-0.7,0.5-1.6,1.1-3.1,1.5l-0.1,1.2l-2.1,0.7l-0.4-0.6c0.9-0.5,2.1-1.4,3.4-2.3c1.2-1,2.6-2,3.6-2.8l-0.2-0.3
		c-1.3,0.9-2.6,2.2-3.5,2.8c-0.5,0.2-1.7,0.2-1.6-0.5l-0.3,0.9c-1.1,0.7-1.9,1.3-2.6,1.7c-0.7,0.4-1.3,0.7-1.9,1.1
		c-0.6,0.3-1.2,0.6-2,0.9c-0.8,0.3-1.8,0.6-3.1,1.1l0.6,0.1c-0.4,0.4-0.8,0.7-1.2,0.9c-0.4,0.2-0.8,0.3-1,0.1
		c-1.5,0.7-3,1.3-4.5,1.6c-1.5,0.4-2.9,0.6-4,0.5l-0.1,1c-0.7,0.2-2.1-0.7-2,0.6c-0.4,0.3-0.8,0.6-1.2,0.9c-0.9,0.2-1.3,0.9-2.5,0.8
		l0,0c0,0,0,0,0,0c-0.1,0-0.1,0-0.2,0c0,0,0,0,0,0.1c-2.1,0.3,0.3,0.8-2.2,1c-0.9-0.4-0.5,1.3-1.7,1.5c-0.5-0.3-1-0.6-1.5-0.9
		c-1.1-0.1-1.7,0.2-2.4,0.6c-0.7,0.4-1.4,1-3,1.3c-1.6-0.1-2.5-1-1.7-2.2c-1.1,1.4-0.4,0.9-2.1,1.8c-0.4-0.4-0.2-0.6,0.1-1.1
		c-1.7-0.3-0.9,0.6-2.1,0.8c-0.2,1-0.3,2.5-0.7,2.6l0.5,0.2c-0.6,0.3-1.2,0.7-1.9,0.8c-0.7,0.2-1.4,0.2-2.2,0.1l0-0.5l-1.6,0.5
		l-0.2-0.6c-0.7,0.2-1.5,0.3-2.3,0.4l0.3,0.1c-0.5,0.1-2.3,0.5-3.3,0.3l0-0.3c-1.5-0.4-2.7-0.3-4.1,0c-1.3,0.3-2.8,0.6-4.4,0.7
		l0.4-0.7c-0.6-0.3-0.6-0.1-0.7,0.2c-0.1,0.3-0.2,0.6-0.9,0.5l-0.1-0.8c-1.2,1-1.5-0.3-2.3-0.7l0.4,1.1l-1.5-0.3
		c-1.7-0.4-1-1.4-0.7-1.9c-0.4,0.3-0.8,0.6-1.2,0.8l-0.2-1c-0.9,1-0.8-0.2-2.3,0.2c-0.1-0.4,0.3-0.5-0.2-0.7l-2.5,1.1l1.5-0.5
		l-0.3,1.4c-0.8,0.5-1.3,0.4-1.8,0.2c-0.4-0.2-0.8-0.4-1.4-0.3l0.8-0.3c-1.8,0.1-1.8-0.5-2.8-0.9c0.3,0.3,0.7,0.7,0,0.8
		c-0.5,0-0.2-0.5-0.7-0.7c-0.2,0.9-1.6,1.2-2.7,0.6c0-0.1,0.1-0.2,0.2-0.3c-0.3,0.1-0.5,0.3-1,0l0.5-1l-1.1,0.8
		c-0.6-0.4-1.7,0.2-1.5-0.5l0.4-0.1c-1.6-0.3-3.2-0.8-4.8-1.3l0.1-0.8c-0.7,1-2.5-1-2.7,0.4c-0.7-1-3.7-0.5-2.7-1.9
		c-0.8-0.3-1.5-0.4-2.2-0.5c-0.7-0.1-1.3-0.2-2-0.3c-0.7-0.1-1.4-0.2-2.1-0.4c-0.4-0.1-0.8-0.2-1.2-0.4c-0.4-0.2-0.8-0.4-1.2-0.7
		c-0.4-0.9-1.6-1.6-2.9-2.2c-0.7-0.3-1.3-0.6-2-0.9c-0.7-0.3-1.3-0.6-1.9-0.9c-0.6-0.2-1.2-0.4-1.7-0.5c-0.5-0.2-1.1-0.4-1.6-0.6
		c-1-0.4-2-0.7-3-1.1c-0.5-0.2-1-0.4-1.5-0.6c-0.5-0.2-1-0.4-1.5-0.6c-0.5-0.2-1-0.5-1.6-0.7c-0.5-0.2-1.1-0.5-1.7-0.8
		c-0.4-0.8-1-1.4-1.8-2c-0.4-0.3-0.8-0.5-1.2-0.7c-0.4-0.2-0.9-0.4-1.3-0.7c-0.9-0.4-1.8-0.9-2.6-1.4c-0.8-0.5-1.5-1-2-1.8l-1.2,0
		c-0.5-1.2-1.6-1.9-2.9-2.8c-1.2-0.9-2.5-1.9-3.2-3.3c-0.8-0.2-1.1-0.5-1.3-0.5c0.1,0.1,0.1,0.4-0.1,0.8c-0.4-0.9-2-1.8-1.3-2.4
		l0.2,0.1c0.4-0.3-0.2-0.7-0.9-1.1c-0.3-0.2-0.7-0.5-1-0.8c-0.3-0.3-0.5-0.6-0.5-0.9l-0.3,1.1l-1-1.3l0.4,0.2
		c-0.8-0.5-1.6-0.9-2.2-1.4c-0.7-0.5-1.2-1-1.7-1.5c-1-1.1-1.8-2.1-2.5-3.2c-0.7-1.1-1.4-2.2-2.3-3.2c-0.4-0.5-0.9-1.1-1.5-1.6
		c-0.5-0.5-1.1-1.1-1.9-1.6c1.4,0.1-1.3-0.8-0.3-1.5c0.1-1.1-0.4-1.7-1.1-2.2c-0.7-0.5-1.5-0.7-2.1-1.2c0,0-0.1,0.1-0.2,0
		c-0.4-0.7-0.8-1.4-1.2-2.2c2.1,0.5-2-0.9-0.2-0.4c-0.6-1.5-1.4-3.1-2.2-4.7c-0.8-1.6-1.7-3.3-2.6-5c-0.4-0.9-0.9-1.7-1.3-2.6
		l-0.6-1.3l-0.3-0.7l-0.3-0.7c-0.4-0.9-0.7-1.8-1.1-2.7c-0.3-0.9-0.7-1.8-0.9-2.7l-0.3,0.4c-0.3-0.9-0.7-1.9-1.1-2.8
		c-0.4-0.9-0.7-1.8-0.6-2.6c0.2-1.6-1.9-2.7-2.1-3.3c-0.3-0.3-0.4-0.7-0.5-1c-0.1-0.3,0-0.7,0-0.9c0.1-0.4,0.3-0.7,0.4-0.6
		c-0.3-0.7-0.8-1.4-1.3-2.2c-0.5-0.8-1-1.7-0.9-3c0.6-0.5-0.1-2-0.6-3.5c-0.1-0.4-0.3-0.7-0.4-1.1c-0.1-0.3-0.2-0.7-0.2-0.9
		c-0.1-0.5,0-0.9,0.3-1l-0.1,0c0.1-0.5,0.1-1,0.1-1.4c0.2,0,1-0.5,1.3-0.6c0,0,0.1-0.1,0.2-0.1l0.2,0.4c-1.3,0.9,1.1-0.7,0,0.1
		c0,1.6,1.8,1.8,2.3,3l0.2-0.3c0.2,0.3,0.8,0.2,0.5,0.8c-0.3,0.6,1.1-0.3,1.2-0.3c0.6-0.3,0,0.6-0.1,0.7c0.4,0,1.5-0.7,1.3,0
		c-0.8,1,1.7-0.1,0.6,0.9l0.1-0.1c-0.4,1.1,1.2,0.2,0.9,1.2c0,0-0.1,0.1-0.2,0.1l3.9-2.3l3.2-3.7l2.1-3.5l-2.5-1.2l-0.4-2.6l-4-3.2
		l-1,0.5c0.7-2.1-1.8-1.4-1.6-3.1l-0.7,0.7c-0.3-0.2,0.2-0.6,0.2-0.7c-0.5-0.5-1.1-0.9-1.7-1.3l-0.4-0.3c-0.2-0.1-0.3-0.2-0.6-0.4
		c-0.5-0.4-1-0.8-1.5-1.2c-1.9-1.6-3.6-3.3-5-5.6c-0.1-1-1.2-1.6-1.4-2.7c-1.4,0.3-2.4-0.8-3.5-2l0-0.1l-0.2-0.1l-0.3,0.4
		c0-0.1,0-0.2,0-0.4c-0.3,0.9-0.6,1.2-1,1.4c-0.4,0.2-0.8,0.2-1.2,0.4l0-0.2c-1.1,1-2.1,2.1-3.1,3.3c-1,1.1-1.9,2.3-2.8,3.4
		c-0.9,1.1-1.8,2.1-2.8,3.1c-0.6,0.6-0.8,0.7-1.1,0.9c-0.3,0.2-0.7,0.4-1.1,0.6c-2.1-0.1-1.8,2.6-3.9,2.9c-0.9-0.5-2.8,2.4-2.6,2.9
		l1.1,0.5c-0.5,1.3-1.7,0.9-1.8,2.3l-0.1-0.2c-0.3-0.1,1.5,1.8-2,0.8l-0.1-0.1c0,0.1,0.1,0.2-0.2,0.1l0.7,0.3
		c0.1,0.3,0.4,0.8,0.2,1.1c-0.1-0.1-0.3-0.2-0.4-0.3l-0.3,0.5L4.9,162c0.2,0.4,1.3,1.5,0.4,1.2c0.9,0.6,0.3,0.6,0.7,1
		c-0.1-0.1-0.3-0.2-0.5-0.3c-0.1,0.3-0.3,0.9,0,1.4c0,0,2.4,0.8,3.4,1.4c-0.5,0.1,0,0.2,0.3,0.4l-0.2-0.2c0.4,0,0.8,0.5,1.1,0.6
		c0,0-0.1-0.1-0.1-0.1l0.1,0.1c-0.1-0.1-0.1-0.1-0.2-0.2c-0.1-0.1-0.2-0.2-0.1-0.2l0,0.1c0-0.1,0.2-0.2,0.3-0.2l0.4,0.4
		c-0.6-0.9,2,0.3,2.2,0.2c0.7,0.3,0.3-0.5,0.7-0.5c0.5-0.2,0.8,0.4,1.3,0.6c0.5,0-0.5-0.4-0.5-0.5l0.8,0.3c-0.1,0.2,0.2,0.4,0.4,0.5
		c0.3-0.1,1.4,0.2,0.6-0.6c0.7,0.1,1,0.4,1.2,0.3c-0.2-0.1-0.4-0.2-0.6-0.3c0.5,0.2,0-0.1-0.2-0.2c-0.2-0.5,2.4,0.5,1.6-0.4l0.2,0.2
		c-0.6-0.7-1.3-1.3-1.6-1.8l0.4,0.2l-0.2-0.4c0.3,0.1,0.4,0.3,0.5,0.4c-0.1-0.5,0.6-0.4,0.9-0.6l-2.1-1.5c0.6,0.2,1.8,0.7,1.3,0.1
		l0.7,0.5c1.6,0.7-0.2-0.8,0.3-0.6l0.9,0.4l-0.2,0.2c0.5,0.1,0.8,0.3,1.4,0.5l0,0c0,0-0.1,0-0.1-0.1l0,0c-0.3-0.4-0.4-0.7-0.2-0.8
		c0.3-0.1,0.1-0.6,0.7-0.5l0.2,1.2c0,0,0,0.1-0.1,0.1l0.1,0.1l0.1,0.5c0.3,1.4,0.5,2.8,0.8,4.3l0.4,2.1c0.2,0.7,0.3,1.4,0.5,2.1
		l1,4.2c0.3,2.3,0.6,4.6,0.9,6.9l0.6,3.4c0.2,1.1,0.4,2.3,0.7,3.4l1.5,4c0.1,0.3,0.2,0.7,0.4,1l0.4,1l0.8,1.9
		c1.1,2.6,2.3,5.1,3.6,7.7c2.6,5,5.4,9.9,8.6,14.5l2.2,1.4c0.6,1.6,1.4,3.2,2.4,4.7c0.5,0.8,1.1,1.5,1.7,2.2
		c0.6,0.7,1.2,1.5,1.8,2.2l0.9,1.1l1,1c0.7,0.7,1.3,1.4,1.9,2.1c1.2,1.5,2.5,2.8,3.4,4.4l0.8-0.6c1.4,1.4,0.9,1.7,1.2,2.2
		c6.8,6.5,14.5,12,22.3,16.8c7.9,4.7,16,8.6,23.6,12.1c0.2,0.1,0.4,0.3,0.6,0.5c0.3,0.1,0.6,0.3,0.9,0.4c0.7,0.3,1.4,0.6,2.2,0.9
		c1.5,0.6,2.9,1.2,3.5,1.6c2.8,0.2,5.6,0.7,8.3,1.2c0.7,0.1,1.4,0.3,2.1,0.4c0.7,0.1,1.4,0.3,2.1,0.4c1.4,0.2,2.7,0.5,4.1,0.8
		l-0.2,0.1c0.9,0.1,1.7,0.2,2.6,0.2c0.1,0.1,0.1,0.2,0,0.3c1.5-0.2,3.3,0,5.3,0.4c1.9,0.3,3.9,0.7,5.7,1.1l-0.2,0.1
		c1.3,0.1,2.6,0.1,3.9,0.2c1.3,0,2.6,0,3.8,0.1c1.3,0,2.5-0.1,3.8-0.1c0.6,0,1.3,0,1.9-0.1c0.6-0.1,1.3-0.1,1.9-0.2
		c5-0.4,10-1.2,14.9-2.1c9.8-2,19.2-4.9,28.9-8.3c1.2-0.3,2.3-0.7,3.5-1.1c1.2-0.5,2.3-1,3.5-1.5c1.2-0.5,2.3-1.2,3.5-1.8
		c0.6-0.3,1.1-0.7,1.7-1c0.6-0.3,1.1-0.7,1.7-1.1c0.6-0.4,1.1-0.7,1.7-1.1c0.6-0.4,1.1-0.7,1.7-1.1c1.1-0.8,2.3-1.5,3.4-2.3
		c1.1-0.8,2.3-1.5,3.4-2.3c0.6-0.4,1.2-0.7,1.7-1.1c0.6-0.4,1.2-0.7,1.8-1.1c0.3-0.1,0.8-0.3,1.5-0.8c0.7-0.5,1.5-1.1,2.5-1.8
		c0.5-0.4,1-0.8,1.5-1.2c0.5-0.4,1-0.9,1.6-1.4c1.1-1,2.2-2,3.3-3.1c2.2-2.1,4.2-4.4,5.8-6.2c1.5-1.9,2.6-3.3,2.9-3.7l-2.6,1.1
		c0.6-0.8,1.3-1.5,1.8-2.2c0.6-0.7,1.1-1.4,1.6-2c0.5-0.6,1-1.2,1.5-1.8c0.5-0.6,0.9-1.1,1.4-1.7c0.5-0.5,0.9-1.1,1.4-1.7
		c0.4-0.6,0.9-1.1,1.3-1.8c0.8-1.2,1.7-2.5,2.4-4.1l0,0.5c0.4-0.4,0.1-1,0.9-2.5c0.4-0.8,1-1.8,2-3.1c0.5-0.7,1.2-1.4,1.9-2.2
		c0.7-0.8,1.6-1.8,2.6-2.8l0.1,0.1c0.2-0.4,0-0.5,0.6-1c-0.5,0.5-1,0.9-1.6,1.4c0.3-1.2,0.3-2.3,0.9-3.7c0.3-0.2,0.5-0.2,0.7-0.2
		l0.8-1.8l0.7-1.8l1.2-0.8c0.1-0.6-0.3-1-0.5-1.5c-0.1-0.3-0.1-0.5,0.1-0.9c0.1-0.4,0.4-0.9,0.9-1.5c-1.4,0.7,0-1.7-0.7-1.5
		c0.2-0.1,0.5-0.3,0.8-0.5c0.3-0.9,0.7-2.2,0.9-3.3c0.3-1.2,0.4-2.3,0.3-2.8C269.1,190.6,267.9,192.1,266.6,193.7z M34.8,165.1
		c-0.1,0.2-0.2,0.3-0.2,0.4c0-0.2,0-0.4-0.1-0.6c0-0.1,0-0.2-0.1-0.3c0.2,0,0.4,0,0.6-0.1C34.2,165.2,35.6,164.3,34.8,165.1z
		 M20.9,162.1l0.2,0l0,0.2L20.9,162.1z"/>
	<path class="st0" d="M37.8,178.8c0,0,0,0.1,0.1,0.1C37.8,178.9,37.8,178.8,37.8,178.8z"/>
	<path class="st0" d="M264.6,206.9L264.6,206.9C264.9,207.2,264.8,207,264.6,206.9z"/>
	<path class="st0" d="M230,235.3c0,0,0.1-0.1,0.1-0.1l-0.7-0.1L230,235.3z"/>
	<path class="st0" d="M246.6,215.8c0.3-0.3,0.4-0.7,0.5-1C246.3,215.8,246.3,215.9,246.6,215.8z"/>
	<path class="st0" d="M268.3,196.9c0.3-0.6,0-0.5-0.4-0.2c-0.2,0.7-0.4,1.1-0.4,1.1C267.7,197.5,268.1,197.2,268.3,196.9z"/>
	<path class="st0" d="M262.3,197.4L262,197C262,197.4,262.1,197.5,262.3,197.4z"/>
	<path class="st0" d="M35.9,165.4C35.9,165.4,35.9,165.4,35.9,165.4c0,0-0.1,0.1-0.1,0.1L35.9,165.4z"/>
	<path class="st0" d="M35.7,165.6C35.7,165.6,35.7,165.6,35.7,165.6C35.7,165.6,35.7,165.6,35.7,165.6z"/>
	<path class="st0" d="M35.9,165.4c0.1-0.2,0.1-0.3,0-0.3c-0.2,0.2-0.1,0.3-0.2,0.4C35.8,165.5,35.9,165.5,35.9,165.4z"/>
	<path class="st0" d="M28.1,138.8c0-0.1,0-0.1,0.1-0.2C28.1,138.6,28.1,138.7,28.1,138.8z"/>
	<path class="st0" d="M42.4,170.4l-0.3,0.3C42.2,170.5,42.3,170.4,42.4,170.4z"/>
	<path class="st0" d="M10.1,167.3L9.9,167c0,0,0,0.1,0.1,0.1C10,167.2,10.1,167.3,10.1,167.3z"/>
	<path class="st0" d="M20.7,164.1c0,0,0.1,0.1,0.1,0.1c0.2,0.1,0.3,0,0.4-0.2l-0.4-0.4L20.7,164.1z"/>
	<path class="st0" d="M40.4,169.5C40.4,169.5,40.4,169.5,40.4,169.5C40.4,169.5,40.4,169.5,40.4,169.5z"/>
	<path class="st0" d="M5.9,161.9L5.9,161.9C5.6,161.6,5.7,161.7,5.9,161.9z"/>
	<polygon class="st0" points="18.5,164.7 18.4,164.7 18.9,165 	"/>
	<path class="st0" d="M15.5,168c0.2-0.1,0.2-0.1,0-0.2C15.5,167.9,15.5,167.9,15.5,168z"/>
	<path class="st0" d="M5.2,163.6c-0.1,0.1,0.1,0.2,0.3,0.3c0-0.1,0.1-0.2,0.1-0.2C5.5,163.7,5.4,163.6,5.2,163.6z"/>
	<path class="st0" d="M9.4,167.1l0.2,0.3C9.6,167.2,9.5,167.2,9.4,167.1z"/>
</g>
</svg>
