<?xml version="1.0" encoding="utf-8"?>
<!-- Generator: $$$/GeneralStr/196=Adobe Illustrator 27.6.0, SVG Export Plug-In . SVG Version: 6.00 Build 0)  -->
<svg version="1.1" id="Calque_1" xmlns="http://www.w3.org/2000/svg" xmlns:xlink="http://www.w3.org/1999/xlink" x="0px" y="0px"
	 viewBox="0 0 400 400" style="enable-background:new 0 0 400 400;" xml:space="preserve">
<style type="text/css">
	.st0{clip-path:url(#SVGID_00000142885607919109475180000010350173865032928132_);}
	.st1{fill:#333333;}
	.st2{fill:#CCCCCC;}
	.st3{fill:#FFFFFF;}
	.st4{fill:#E90866;}
</style>
<g>
	<defs>
		<rect id="SVGID_1_" y="21.3" width="400" height="355.9"/>
	</defs>
	<clipPath id="SVGID_00000119101322943113257290000016154737553599569072_">
		<use xlink:href="#SVGID_1_"  style="overflow:visible;"/>
	</clipPath>
	<g style="clip-path:url(#SVGID_00000119101322943113257290000016154737553599569072_);">
		<path class="st1" d="M77.5,313.2l179,22.2c0,0,53.1-32.7,107.1-175.7l31.7,5.4c0,0-31.3,123.1-127.4,204.7
			c0,0-155.1-10.6-217.6-24C50.2,345.8,73.9,326.5,77.5,313.2z"/>
		<path class="st2" d="M48.1,275.8c0,0-18.5,24.5-28.8,28.9l237.1,30.7c0,0,60.2-35.7,118.3-207.1l-32.3-6c0,0-29.9,110.5-96,177.9
			L48.1,275.8z"/>
		<path class="st3" d="M100,92.3c2.9,69.3-61.2,148.4-91.7,177.9l237.6,30.4c49.5-34.1,83.5-147.5,94.5-173.3
			c8.8-20.7,3.7-28.9,0-30.4L100,92.3z"/>
		<path class="st4" d="M138.3,26.1c0,0-40.8,13.1-37.6,44.4c0,0,9.6,11.2,26.6,7.9l10.9,14.1c0,0-22.1,25.6,0.9,35.9
			c23,10.3,61.1-23.1,63.3-27.7c2.2-4.6,23-40.2-11.5-38.9c0,0-11.3,1.1-17.9,3.7l-12-14.7C161.1,50.8,170.1,21.3,138.3,26.1z"/>
		<path class="st2" d="M195.4,110.8l-17.4,12l35.8,39.6c11.7,6.6,14.7-4,14.7-10.1L195.4,110.8z"/>
		<path d="M51.1,313.5c-1.9,0-3.8-0.2-5.6,0c-1.2,0.2-1.5-1.3-2.7-1c-1.1,0.3-2.3,0-3.5,0c-1,0-2,0-3,0c-0.9,0-1.2-1.1-2.3-0.9
			c-1,0.2-2,0-3,0c-0.9,0-1.7,0-2.6,0c-1.4,0.1-2.4-1.3-4-0.9c-1.3,0.3-2.6,0.3-3.9,0c-0.9-0.2-1.6-1.1-2.7-0.8
			c-1.8-1.2-3.8-2-5.7-3c-0.4-0.2-0.8-0.8-0.9-1.3c0-0.3,0.3-0.7,0.5-1.1c0-0.1,0.3-0.2,0.3-0.3c0.2-0.7-0.4-1.5,0.3-2
			c1.2-0.9,1.8-2.7,3.6-2.8c2.1-1.8,5.1-1.7,7.3-3.4c0.9,0,1.6-0.1,2.3-0.8c1.1-1.2,2.3-2.3,3.9-3.2c1.3-0.7,2.1-2.5,3.5-3.2
			c2.3-1.3,3.9-3.3,5.7-5c0.5-0.5,1.1-0.8,1.8-0.9c0.2,0,0.3-0.5,0.3-0.7c0.1-0.5-0.3-1-0.7-0.8c-1.3,0.5-2-1-3.1-0.9
			c-1,0-2,0.3-2.7-0.8c-1.4,0-2.9,0-4.3,0c-1,0-2.1,0.4-2.9-0.3c-1-1-2.2-0.2-3.2-0.6c-0.9-0.4-1.6-1-2.4-1.5
			c-0.6-0.3-1-0.2-1.5,0.2c-0.3,0.2-1,0.5-1.1,0.4c-0.9-1-2-0.9-3.2-0.8c-1.1,0-2.3-0.4-3.1,0.8c-1.1-0.2-2.3,0.5-3.3-0.5
			c-0.2-0.2-0.8-0.3-1.2-0.3c-1.4,0-2.9-0.2-4.3,0c-1.8,0.3-2.6-0.9-3.6-1.9c-0.2-0.3-0.3-0.8-0.3-1.2c0-1.2-0.3-2.5,0-3.4
			c0.4-1,1.5-1.7,2.4-2.5c1.4-1.4,2.8-2.7,4.5-3.8c1.7-1.1,2.9-2.8,4.4-4.2c3.2-1.5,5-4.6,7.6-6.8c0.7-0.6,0.8-1.4,1.3-2.1
			c0.4-0.6,1.4-0.6,2.1-1.2c0.8-0.7,0.9-1.7,1.5-2.4c0.7-0.9,1.6-1.7,2.4-2.5c0.7-0.7,1.8-1.3,2.1-2.2c0.6-1.6,2.2-2.3,2.7-3.7
			c0.6-1.4,2-2.1,2.5-3.3c0.6-1.5,1.8-2.5,2.8-3.6c-0.3-1.6,2.1-1.9,1.9-3.6c0-0.3,0.6-0.6,0.9-0.9c1-1.2,2.3-2,2.9-3.6
			c0.5-1.2,2-1.8,2.5-3.3c0.2-0.9,1.4-1.4,2.1-2.2c0.6-0.6,0.4-1.7,1.2-2.1c1.1-0.6,0.8-2,1.8-2.8c0.7-0.6,1.5-1.2,1.8-2.3
			c0.3-1,1.8-1.6,2.2-2.6c0.6-1.4,1.6-2.2,2.5-3.3c1-1.1,1-2.8,2.2-3.9c-0.2-0.9,0.8-1.3,0.8-1.8c0-1.1,0.9-1.4,1.3-2.1
			c0.4-0.6,0.5-1.4,1-1.7c1.2-0.8,1.1-2.3,2.1-3.1c1-0.8,1.1-2.2,1.7-3.2c0.2-0.4,0.4-0.8,0.7-1c1.5-1,1.8-2.9,3.1-4
			c0.8-0.6,0.6-1.8,1.5-2.5c0.7-0.6,1.8-1.1,1.7-2.3c2.5-2.6,3.4-6.1,5.2-9.2c0.4-0.8,1.4-1.5,0.9-2.7c0-0.1,0-0.4,0-0.4
			c1.1-0.9,2-2,1.8-3.6c1.1-0.9,1.2-2.4,1.8-3.6c0.2-0.4,0.7-0.8,0.6-1c-0.3-1.1,0.9-1.8,0.9-2.7c0-0.9,0.1-1.7,0.9-2.2
			c-0.4-1.1,1.3-1.5,0.9-2.7c-0.4-1,1.3-1.5,0.9-2.7c0-0.2,0-0.7,0.1-0.8c1.6-1,1.7-2.5,1.6-4.2c1.2-0.8,0.9-2,0.9-3.1
			c0-0.9,1.1-1.2,0.9-2.3c-0.2-0.8-0.3-1.8,0.6-2.3c0.1,0,0.2-0.2,0.2-0.3c0.1-1.5-0.4-3.2,0.9-4.4c0-1.2,0-2.3,0-3.5
			c0-1,1.1-1.5,0.9-2.7c-0.2-1-0.5-2.3,0.8-3.1c0-1.2,0-2.3,0-3.5c1.3-0.9,0.8-2.3,0.8-3.6c0-1.3,1.3-2.1,1-3.6
			c-0.3-1.2,0-2.6,0-3.9v-3.9c0-1.3,0.2-2.6,0-3.9c-0.2-1.4,1.3-2.1,1-3.6c-0.3-1.2,0-2.6,0-3.9c-0.2-1.4,0.6-2.1,1.4-2.9
			c0.9-0.9,2.1-1.1,3.2-1.7c0.4-0.2,0.7-0.4,0.7-0.9c0-0.5-0.3-1.2,0.3-1.6c0.3-0.2,0.8-0.1,1.2-0.1c1,0,1.5-1.2,2.7-0.9
			c0.9,0.2,1.7,0,2.2-0.8c1.4,0.2,2.9-0.6,4.1,0.6c0.2,0.2,0.5,0.3,0.8,0.3c1.6,0,3.2,0,4.8,0c0.1,0,0.3-0.3,0.3-0.3
			c-0.1-0.2-0.3-0.4-0.5-0.5c0,0-0.3,0-0.4,0c-1,0-2.2,0.3-2.9-0.2c-0.8-0.5-1.7-0.4-2.3-0.8c-1-0.7-2-0.8-3.2-0.8
			c-0.6,0-1.2-0.5-1.8-0.8c-0.6-0.3-1.2-0.7-1.8-0.8c-0.9-0.1-1.2-1.3-2.2-1l-1.5-1.5c-0.5-0.5-1-1-1.5-1.5c-0.3-0.3-0.7-0.6-0.7-1
			c0-1.2-1.2-1.6-1.7-2.4c0.5-1.4-0.9-2.3-1-3.5c0-1.2,0.5-2.6-0.8-3.6c-0.1,0-0.1-0.7,0-0.8c0.5-0.5,0.9-1,0.8-1.9
			c0-1.3-0.3-2.7,0-3.9c0.3-1,0.6-2,0.9-3.1c0.3-1.5,1-3.2,2-4.4c0.8-1,1.3-2.1,2.1-3.1c0.8-1,1.4-2.1,2.2-3c0.8-1,1.8-1.9,2.7-2.8
			c0.7-0.7,1.2-1.4,1.6-2.4c0.7-1.6,2.7-1.9,3.9-3.1c1.2-1.2,1.4-3.3,3.1-3.9c1.3-0.5,2.1-1.4,3-2.2c1.2-1.1,3-1.3,4.2-2.4
			c1.4,0.2,1.7-1.4,2.8-1.8c0.9-0.3,1.9-0.5,2.6-1.1c0.9-0.7,2.2-0.6,2.8-1.8c0.1-0.3,0.7-0.5,1-0.5c1.1,0,2.1-0.2,3.2-0.8
			c1.1-0.7,2.8,0.5,4-0.8c1.4,0,2.9-0.3,4.3,0c0.9,0.1,1.6-1,2.1-0.6c0.8,0.6,1.4,0.9,2.2,0c0.2-0.2,0.5-0.3,0.7-0.3
			c1.7,0,3.5,0,5.2,0c0.5,0,0.8,0.3,0.8,0.7c0,1.2,0.5,1,1.2,0.4c0.2-0.2,0.8-0.3,1.2-0.2c0.8,0.2,1.5,0.8,2.3,0.8
			c1,0,1.6,0.5,2.1,1.2c0.8,0.9,2.1,0.7,2.8,1.8c0.6,1,1.6,1.6,2.4,2.5c0.5,0.5,1.2,0.8,1.1,1.7c1.3,1.9,2,3.9,1.8,6.2
			c-0.2,1.7,0,3.5,0,5.2c0,1.1,0.5,2.3-0.5,3.3c-0.8,0.7,0.1,2-0.9,2.7c-0.8,0.6-0.2,1.6-0.3,2.5c0,0.9,1.3,1.2,0.9,2.2
			c1.6,1.2,2.6,3,4.5,3.9c1.3,0.7,2.4,2,3.5,3.2c1.3,1.4,2.7,1.6,4.1,0.6c1-0.7,2.4,0.1,3-1.2c0.9,0,1.7,0,2.6,0c1,0,1.9,0,2.8-0.8
			c0.6-0.6,2,0.3,2.8-0.4c0.8-0.7,1.4-0.8,2.1,0l0.3,0.2c1.3-1.5,3-0.6,4.5-0.8c0.3,0,0.8,0.2,1.1,0.4c0.6,0.3,0.7,1.2,1.5,1.1
			c0.6-1.3,2.3,0,3-1.2c0.1-0.2,1-0.4,1.1-0.3c0.7,1.1,2,0.5,2.7,1c0.8,0.6,1.5,0.5,2.3,0.8c1,0.3,2,0.9,2.8,1.6
			c1.2,1,2.3,2.2,3.4,3.4c1.5,1.5,2.9,4.5,3.2,6.9c0.1,1.1,1.2,1.8,0.9,3.1c-0.3,1.1-0.2,2.3,0,3.5c0.1,1.2-1.2,1.9-0.9,3.1
			c0.2,1,0,2,0,3c-1.5,0.6-0.6,2-1.2,3c-0.9,1.5-0.7,1.8,0.6,1.8c5.8,0,11.5,0,17.3,0c1.5,0,2.9,0,4.3,0c1.5,0.1,3.2-0.7,4.4,0.8
			c1.4,0,2.9,0,4.3,0c1.5,0,2.9,0,4.4,0c1.2,0,2.6,0.5,3.6-0.8c0-0.1,0.7,0,0.8,0c0.6,0.9,1.4,0.8,2.3,0.8c2,0,4.1,0,6.1,0
			c0.9,0,2-0.4,2.8,0.7c0.1,0.2,0.5,0.1,0.8,0.2c1.7,0.1,3.4-0.3,4.9,0.8c0.4,0.3,1.1,0,1.7,0c3.5,0,7,0,10.3,0
			c1.1,0,2.4-0.5,3.1,0.8c1.4,0,2.9,0.4,3.8-1.1c0.3-0.6,0.9-0.6,1.5-0.6c4.5,0,8.9,0,13.4,0c0.7,0,1.4,0,1.9,0.7
			c1.5,0.2,3,0.6,4.4-0.5c0.2-0.2,0.6-0.2,0.8-0.1c0.7,0.4,1.3,1,2.3,0.9c0.9-0.2,1.6,0,2.3,0.8c0.3,0.3,1.4,0.3,1.6,0
			c0.9-1.1,2.1-0.8,3.2-0.8c2.2,0,4.4,0.1,6.5,0c1.8-0.1,3.8,0.8,5.3-0.8c1.3,0.3,2.9-0.7,4.1,0.6c0.3,0.3,1.1,0.2,1.6,0.2
			c0.9,0,1.8,0,1.6,1.3c0,0.1,0.7,0.2,1,0.5c1.1,0.8,2.3,1.6,2.5,3.2c0.7,0.4,0.5,1.3,1,1.8c0.3,0.4,1,0.4,1.4,0.7
			c0.2,0.1,0.4,0.4,0.6,0.6c0.8,0.7-0.2,2,0.9,2.7c0.9,0.5,1.4,1.4,1.1,2.6c1.2,1.3,0.8,2.9,0.9,4.4c-1.5,1.6-0.7,3.5-0.9,5.3
			c0,0.6,0,1.1-0.5,1.5c-0.8,0.8-0.2,1.9-0.3,2.9c0,0.1,0.4,0.5,0.6,0.5c1.5-0.4,2.7,0.6,4,0.8c0.7,0.1,1.3,0.3,1.9,0.8
			c0.1,0.1,0.8-0.6,1.3-0.7c0.7-0.1,1.4,0,2.2,0c0.6,1.5,2.2,0.4,3,1.2c0.6,0.7,1.6,0.4,2.2,1.2c0.2,0.4,0.5,1.1,1.2,0.8
			c0.4-0.1,0.6-0.6,0.9-0.9c0.3-0.2,0.7-0.5,1-0.6c0.4-0.1,0.9,0,1.3,0c1.3-0.2,2.3,0.2,3,1.2c0.4,0.5,1,0.8,1.4,0.4
			c0.9-1,1.5-0.9,2.5,0c0.4,0.4,1.5,0,2,0.4c1.2,1,2.5,2,2,3.9c-0.2,0.7,0,1.4,0,2.2c0,0.8-0.2,1.4-0.8,1.8c-0.7,0.6-1,1.2-1,2.2
			c0,1.8,0,1.8-0.8,3.6c-0.3,0.8-1.3,1.2-1,2.2c-0.9,0.5-0.8,1.4-0.8,2.3c0,0.2-0.2,0.5-0.4,0.7c-1.4,1.2-1.7,3.1-2.8,4.5
			c-0.6,0.8,0.3,2.1-0.9,2.7c-0.1,1,0.1,2.2-0.4,2.9c-0.6,0.8-0.7,1.5-0.7,2.3c0,0.1,0,0.3,0,0.4c0,0.9,0.2,1.1,0.9,1.1
			c2.5,0,4.9,0,7.4,0c1.8,0,3.8-0.6,5.5,0.3c1.8,0.9,3.6,0.3,5.4,0.5c0.8,0.1,1.3,1.2,2.3,0.9c1.1-0.3,1.8,0.6,2.7,0.8
			c1,0.2,1.3,1,2,1.5c0.2,0.1,0.5,0.2,0.7,0.3c2.6,1.6,2.7,1.7,2.6,4.3c0,1.1,0.5,2.4-0.3,3.3c-0.9,1.1-0.3,2.2-0.6,3.3
			c-1.4,0.9-0.7,2.3-0.9,3.5c-1.3,0.8-0.7,2.1-0.8,3.1c0,0.7-0.9,1-0.9,1.8c0,1.5-1.3,2.8-0.8,4.4c-1.4,0.9-0.3,3.1-2,4
			c-0.5,0.3-0.5,1.2-1,1.7c-0.4,0.5-0.6,1-0.5,1.6c0.2,1.1-1.2,1.5-1,2.7c0.2,1-1.3,1.8-0.8,3.1c-0.9,0.6-0.7,1.7-1.4,2.5
			c-0.8,0.8,0.2,2.4-1.2,3c0.1,1.2-1.5,1.8-0.9,3.1c-1.2,1.2-0.6,3.3-2.3,4.3c-0.4,0.2-0.4,1-0.6,1.4c-0.6,1.1-1.3,2.1-2.1,3.1
			c-0.7,0.9-1.1,2.1-1.6,3.2c-0.2,0.4-0.3,0.8-0.4,1.1c0,0.6,0,1.1-0.6,1.5c-0.8,0.6-1.4,1.4-1.2,2.6c0,0.3-0.6,0.7-0.6,1
			c0,1.1-1.4,1.8-1.1,3c0.2,1-1.2,1.5-0.9,2.7c0.2,1-1.2,1.5-0.9,2.7c0.3,0.9-1.2,1.2-0.8,2.2c-0.9,0.4-0.6,1.5-1.2,2.1
			c-0.7,0.6-0.2,1.5-0.5,2c-1,1.6-1.3,3.6-2.8,4.9c-0.5,0.4-0.7,0.9-0.6,1.5c0,0.3,0.1,0.8,0,0.8c-1.9,1.2-1.9,3.7-3.4,5.1
			c-0.6,0.6-0.7,1.6-1.2,2.1c-1.1,1-0.1,3-1.8,3.6c-0.4,1.2-1.6,2-2.1,3.1c-0.9,2-1.9,3.9-2.8,5.8c-0.5,1-0.8,2-1.5,2.9
			c-0.4,0.5-0.4,1.2-0.9,1.8c-0.7,0.7-1.7,1.1-1.9,2.3c-0.2,1.1-1.3,1.5-1.9,2.3c-0.5,0.8-1.4,1.6-1.5,2.4c0,1.6-0.9,2.6-1.9,3.6
			c-0.7,0.7-1,1.6-1.6,2.4c-0.5,0.7-1.6,1.2-1.7,1.9c-0.2,1.2-1,1.6-1.6,2.4c0,0.1-0.3,0.2-0.3,0.3c0.5,2.2-1.5,2.9-2.5,4.2
			c-0.6,0.7-1,1.3-1,2.2c0,0.9-0.5,2-1.1,2.5c-1.3,1-1.3,2.8-2.7,3.7c-0.3,0.2-0.4,0.7-0.4,1.1c0,0.6,0,1.1-0.5,1.5
			c-1,1-2,2.1-3,3.1c0.2,1.5-1.9,1.7-1.8,3.2c0,0.3-0.5,0.7-0.8,0.9c-2.1,1.6-2.9,4.2-4.9,5.8c-0.3,0.2-0.4,0.8-0.3,1.1
			c0.5,1.2-1.4,1.5-0.9,2.7c-0.7,0.7-1.4,1.4-2.2,2.2c-0.6,0.6-0.4,1.6-1.2,2.1c-2.1,1.5-2.9,4.2-4.9,5.8c-0.6,0.5-0.4,1.6-1.2,2.1
			c-0.6,0.4-0.8,1-1,1.8c-0.2,0.7-1.4,1.2-1.5,2c-0.2,0.8-0.7,1.2-1.1,1.7c-0.8,1.1-2.4,1.7-2.5,3.3c-1,1-2.4,1.9-3,3.1
			c-1.3,2.7-3.8,4.2-5.6,6.4c-1.3,1.5-2.9,2.9-4.3,4.3c-1.2,1.2-2.6,2.2-3.1,3.9c-0.3,1.1-2,0.5-2.2,1.6c-0.2,1.2-1.2,1.6-1.8,2.3
			c-0.6,0.8-1.5,1.1-2.4,1.6c-1.3,0.8-2.2,2-3.6,2.8c-1.3,0.7-2.3,2.2-3.4,3.3c-0.3,0.3-0.7,0.6-1,0.6c-1.2-0.2-1.8,0.6-2.5,1.3
			c-0.8,0.8-1.7,1.6-2.4,2.5c-0.6,0.8-1.6,0.4-2.2,1.2c-0.4,0.6-1.1,0.2-1.6,0.3c-0.9,0-1.8,0-2.6,0c-1.9,0.2-4-0.7-5.7,0.9
			c-1.3,0-2.6-0.2-3.9,0c-1.2,0.2-1.7-1-2.7-0.9c-1,0-2,0-3-0.1c-0.1,0-0.2-0.2-0.3-0.3c-0.6-0.7-1.2-0.6-1.8,0
			c-0.4,0.5-0.9,0.5-1.5,0.1c-0.3-0.2-0.7-0.4-1-0.6c-0.1,0-0.3,0-0.4,0c-1.3,0-2.6-0.2-3.9,0c-1.3,0.2-1.9-1.1-3.1-0.9
			c-1.3,0.1-2.6,0-3.9,0c-0.8,0-1.2-1.1-2.3-0.9c-0.7,0.2-1.6,0.3-2.1,0c-2.1-1.4-4.4-0.6-6.6-0.8c-1.1-0.1-2.3,0.4-3.2-0.7
			c-0.3-0.3-1.1-0.1-1.6-0.1c-3,0-6.1,0-9,0c-0.9,0-2,0.5-2.8-0.5c-0.7-0.8-1.6-0.3-2.4-0.4c-1,0-2,0-3,0c-1.5-1.7-3.5-0.5-5.3-0.9
			c-1.1-0.2-2.2,0.4-3.3-0.6c-0.9-0.8-2.2-0.2-3.3-0.3c-1.2,0-2.4,0.2-3.5,0c-1-0.3-1.9-1-3.1-0.8c-1.1,0.1-2.3,0-3.5,0
			c-1.1,0-1.8-1.3-3.1-0.9c-1.1,0.3-2.3,0-3.5,0c-2-1.7-4.4-0.7-6.6-0.8c-1.1,0-1.9-0.3-2.6-1.2c-0.4-0.5-0.9-0.7-1.5-0.6
			c-0.7,0-1.4,0-2.2,0c-1,0-2,0-3,0c-1,0-1.8-0.3-2.7-0.8c-0.9-0.5-2.3,0-3.4-0.1c-2.1-0.3-4.3,0.8-6.2-0.8c-0.3-0.3-1.1,0-1.7,0
			c-2.5,0-4.9,0-7.4,0c-1,0-2,0.3-2.8-0.7c-0.2-0.3-1.1-0.2-1.6-0.2c-2.8,0-5.5,0-8.3,0c-2.4-0.1-4.9,0.7-7-0.8h-3
			c-1.6-1.6-3.6-0.9-5.3-0.8c-1.6,0.2-2.5-1.3-4-1c-1.3,0.2-2.6,0-3.9,0c-1.2-1.6-2.9-0.8-4.4-0.8c-1.1,0-1.5-1.3-2.7-1
			c-0.8,0.2-1.7,0-2.6,0c-1,0-2,0-3,0c-0.5,0-0.9-0.6-1.3-0.6c-0.3,0-0.7,0.4-1,0.6c-0.1,0-0.4,0-0.4,0c-0.8-1.1-2-0.8-3.1-0.9
			c-1,0-1.9,0.3-2.8-0.5c-0.8-0.7-1.9-0.2-2.9-0.3c-1.1-1.5-2.8-0.3-4-0.9c-1.6-0.9-3.3-0.6-4.9-0.8c-1.3-0.2-2.5-1.1-4-0.9
			c-1.4,0.2-2.9,0-4.3,0c-1.4,0-2.9,0-4.3,0c-1.3,0-2.1-1.4-3.6-1c-1.1,0.3-2.3,0-3.5,0c-0.8,0-1.3-0.5-1.9-0.8
			c-0.6-0.3-1.3-0.1-1.3-1.2c0-0.7-1-0.9-0.9-1.8c0-0.4-0.4-0.6-0.9-0.6c-0.8,0-1-0.9-0.7-1.2c1.2-1,0.8-2.4,0.8-3.6
			c0-0.6,0.2-1.1,0.6-1.5c1.4-1.3,2.6-2.7,4-4c0.9-0.8,2-1.4,3-2.2c1-0.7,2.2-1.1,3.1-2.1c0.8-0.9,2-1.4,3-2.2
			c0.9-0.7,1.7-1.6,2.5-2.4c0.9-0.9,1.8-1.8,2.8-2.8c0.9-0.9,1.9-1.8,2.8-2.8c0.8-0.8,1.5-1.8,2.9-1.4c0.2,0,0.6-0.3,0.6-0.5
			c0-1.6,1.5-2,2.2-3c0.5-0.7,1.5-1,1.3-2.1c0-0.1-2.7-1.4-2.8-1.4c-2,0-4.1,0-6.1,0c-0.6,0-1,0-1.6-0.4c-1.4-0.9-2.9-1.5-4.7-1.3
			c-1.6,0.2-3.2,0-4.8,0L51.1,313.5z M226,98.7c-4.8,0-9.5,0-14.3,0c-1.5,0-2.8,0-3.2,2c-0.2,1.1-1.8,1.4-1.8,2.8
			c0,0.7-1,0.3-1.4,0.7c-1.9,1.8-3.7,3.7-5.5,5.5c-0.1,0.1-0.1,0.6,0,0.8c0.5,0.8,1.4,1.2,1.8,2.3c0.3,1,1.5,1.7,2.2,2.6
			c0.6,0.8,0.8,1.7,1.5,2.4c1.3,1.3,2.7,2.4,3.5,4.2c0.6,1.2,2,2.1,3,3.1c0.2,1.8,1.8,2.5,2.8,3.6c0.9,1,1.7,2,2.8,2.8
			c1.4,1.1,1.6,3,3,4c0.4,0.3,0.4,1,0.6,1.4c0.5,1,0.8,2,1.8,2.7c0.7,0.5,1.2,1.3,1.9,1.8c0.6,0.4-0.1,1.7,1,1.6
			c1,0,1.3,1.2,2.3,0.9c0.8,0.8,1.6,1.6,2.3,2.5c0.3,0.3,0.3,0.8,0.5,1.1c0.7,0.7,1.4,1.3,1.3,2.6c0,0.9,1,1.5,0.9,2.7
			c-0.2,2-0.2,4.1,0,6.1c0.2,1.4-1.5,2.2-0.9,3.6c-0.4,0.5-0.9,1.1-1.3,1.6c-0.5,0.5-1,1.4-1.5,1.5c-1.1,0.2-1.8,1.3-3,1.2
			c-2.2-0.2-4.3,0-6.5,0c-0.6,0-1-0.1-1.6-0.5c-1.1-0.7-2.3-0.7-3.5,0.1c-0.7,0.5-0.8,0.5-1.5,0c-0.9-0.7-2.1-0.8-2.8-1.8
			c-0.6-0.9-1.7-1.6-2.4-2.5c-0.8-0.9-1.4-2.1-2.2-3c-0.8-0.8-1.3-1.7-1.9-2.7c-0.5-0.9-1.4-1.5-2.1-2.2c-0.7-0.7-1.4-1.4-2.2-2.2
			l-2.2-2.2c-0.8-0.8-1.6-1.6-2.5-2.5c-0.7-0.7-1.4-1.5-2.1-2.2c0.4-1.7-1.5-0.9-1.9-1.7c-0.3-0.6-1.2-1-1.4-1.6
			c-0.2-0.7-0.4-1.3-1-1.8c-0.7-0.7-1.4-1.4-2.2-2.1c-0.8-0.7-1.4-1.4-2.2-2.2c-0.8-0.8-1.7-1.6-2.5-2.5c-0.7-0.7-1.3-1.5-2-2.2
			c0.2-1.6-1.8-0.6-2-1.7c0-0.4-0.7-0.5-0.6-1.1c0.1-0.5-0.2-0.8-0.7-0.8c-1.3,0-2.6-0.4-3.5,1.1c-0.2,0.3-0.7,0.7-1,0.6
			c-1.2-0.3-1.8,0.6-2.7,1c-1.9,0.7-1.9,0.8-3.1,0.8c-0.6,0-1.2,0-1.7,0c-0.7,0-1.1,0.3-1.5,0.7c-0.5,0.5-1,1-1.5,1.5
			c-0.2,0.2-0.5,0.4-0.7,0.4c-1,0-2.2-0.3-3,0.1c-0.9,0.5-1.7,0.9-2.7,0.8c-1.5-0.2-3.2,0.7-4.4-0.9c-1.1,0.2-2.3-0.5-3.2,0.7
			c-2.1,0-4.3,0-6.4,0.1c-1-1.3-2.4-0.6-3.6-0.8c-0.7,0-1.4,0.2-2-0.5c-0.5-0.6-1.5-0.5-2.1-1.2c-0.9-1.1-2-2.1-3-3.1
			c-0.9-0.9-1.8-1.9-2.8-2.8c-1-0.9-0.9-2.4-2.1-3.1c-0.6-0.4-0.2-1.3-0.9-1.8c-0.3-0.2-0.3-1-0.3-1.6c0-1.7,0-3.5,0-5.2
			c0-0.4-0.4-0.7-0.6-1c-0.3-0.7,0.7-0.7,0.6-1.3c0-0.9,0-1.7,0-2.6c0-1,1.4-1.5,0.9-2.7c-0.6-1.4,1.3-2.2,0.9-3.6
			c-0.2-0.7,0.7-0.9,0.8-1.4c0.4-1.8,1.6-3.1,2.2-4.8c0-0.1,0.3-0.2,0.3-0.3c0-0.2-0.2-0.6-0.3-0.6c-1.5-0.2-3.2,0.5-4.6-0.4
			c-1.5-1-3.1-0.2-4.6-0.5c-0.4,0-1,0.1-1.2-0.1c-1.3-1.4-3-0.5-4.5-0.8c-0.8-0.1-2,0.2-2.5-0.2c-1.9-1.4-3.9-0.3-5.8-0.7
			c-0.6,0.6-1.4,0.8-2.1,1.1c-0.2,0-0.3,0.9,0,1.1c1.1,1.1,0.7,2.3,0.6,3.6c-0.9,0.6-0.7,1.5-0.7,2.3c0,0.9,0.1,1.8,0,2.6
			c-0.2,1,0.9,1.4,0.9,2.3c0,1.4,0.1,2.9,0,4.3c-0.1,1.4,0.7,2.9-0.8,4c0,0.9,0,1.7,0,2.6c0,0.8,0.3,1.7-0.6,2.4
			c-0.7,0.6-0.2,1.6-0.3,2.5c-0.1,1.4,0.4,2.9-0.9,4c0,1.2,0.3,2.6-0.9,3.6c0,0.9,0.1,1.8,0,2.6c-0.1,0.8-0.7,1.5-0.8,2.3
			c-0.2,1,0.2,2-0.9,2.7c0,1,0,2,0,3c0,0.4-0.4,0.7-0.5,1.1c-0.3,1.1-1.4,1.8-1.2,3c0.3,1.8-0.5,3.2-1.3,4.7
			c-0.1,0.2-0.4,0.5-0.4,0.7c0,0.9,0,1.7,0,2.6c0,1-1.2,1.5-0.9,2.7c0.2,0.8,0,1.7-0.8,2.3c0.1,0.8-0.8,1.3-0.8,1.8
			c0,0.8-1,1.3-0.9,1.8c0.3,1.3-1,2.1-0.9,3.1c0.1,1.5-1.1,1.9-1.7,2.8c-0.1,0.2-0.1,0.6,0,0.8c0.2,1.3-1.5,2.1-0.9,3.6
			c-1.2,1.5-1.8,3.3-2.6,5c-0.2,0.5-0.6,1-1,1.3c-0.7,0.5-0.7,1.2-0.7,1.9c0,0.4-0.3,0.7-0.5,1.1c-0.4,0.7-0.3,1.7-1.2,2.1
			c-0.9,0.4-0.9,1.4-1.2,2.1c-1,2.2-2.2,4.2-4,5.7c-1,0.8-1,2.3-2.1,3.1c-1.1,0.7-1.9,1.8-2.8,2.7c-0.2,0.2-0.1,0.5-0.3,0.7
			c-0.7,1.3-2.1,2.2-1.9,4c0,0.2-0.4,0.4-0.6,0.6c-1.1,0.9-1.2,2.6-2.4,3.4c-0.2,0.1-0.3,0.5-0.2,0.7c0.2,1-0.2,1.7-1,2.2
			c-0.8,0.5-0.6,1.5-1.2,2.1c-0.6,0.6-1.3,1-1.4,2.1c0,0.7-1.5,1.2-1.6,1.9c-0.2,1.2-1.3,1.5-1.6,2.4c-0.3,0.8-0.6,1.6-1.3,2.1
			c-0.8,0.6-0.6,1.8-1.5,2.5c-0.8,0.6-1.4,1.4-2.2,2.1c-1.4,1.2-2.4,2.7-3.1,4.4c-0.1,0.4-0.4,0.7-0.6,1c-0.8,1-1.7,1.7-2.2,3
			c-0.5,1.1-1.7,1.9-2.7,2.8c-0.5,0.4-0.3,1.1-0.6,1.5c-0.5,0.6-0.6,1.2-0.9,1.8c-0.3,0.6-1,1-1.5,1.6c-0.8,0.8-2,1.5-2.4,2.5
			c-0.6,1.6-1.9,2.4-2.9,3.6c-0.1,1.8-1.9,2.4-2.8,3.6c-0.3,0.5-0.6,0.8-0.8,1.4c-0.2,0.7-0.7,1.5-1.1,2.2c-0.5,0.8-1.3,1.5-2.1,2.2
			c-0.7,0.6-1.8,0.9-2.3,1.6c-0.6,0.9-1,2-1.9,2.7c-0.6,0.4-0.2,1.3-0.9,1.8c-1.5,1.2-2.6,3-4.6,3.7c-0.6,1.3-2.2,1.2-3,2.1
			c-0.4,0.5-0.6,0.8-0.1,0.9c0.3,0,0.6,0.1,0.8,0c0.5-0.2,0.7-0.9,1.4-0.9c2.3,0,4.6,0,7,0c0.6,0,0.7,0.4,1.1,0.6
			c0.8,0.4,1.7,0.8,2.6,1.1c0.7,0.3,1.3,1.2,2.2,0.9c1.1-0.3,1.8,0.5,2.7,0.8c0.8,0.3,1.7,0.2,2.5,0.2c0.8,1.4,1.2-0.4,2-0.3
			c0.8,0.2,1.7,0,2.6,0c0.5,0,0.8,0.3,0.8,0.7c0,0.7,0.2,1.1,1,1c0.7,0,1.5-0.1,2.2,0c0.8,0.2,1.2-0.8,1.8-0.7
			c0.5,0,0.8,0.8,1.2,1.2c0.2,0.2,0.5,0.4,0.7,0.4c1,0,2,0,3,0c1.3-1.4,2.9-0.6,4.4-0.9c1-0.2,1.4,0.9,2.3,0.9c1,0,2,0,3,0
			c1.2,0,2.4,0.2,3.5,0c1.2-0.2,1.5,1.4,2.7,1c1-0.3,1.8,0.5,2.7,0.7c0.9,0.3,2.1,2.1,3.2,0.2c1.1,1.1,2.6,0.7,4,0.8
			c0.4,0,0.8,0.3,1.1,0.6c0.5,0.5,1.1,1,1.5,1.5c0.4,0.5,1,0.4,1.5,0.5c1.1,0.1,1.9-0.2,2.6-1.1c0.2-0.3,0.6-0.6,1-0.7c1,0,2,0,3,0
			c0.8,1.1,2,0.8,3.1,0.9c0.9,0,1.7,0,2.6,0c1.1,0,1.4,1.5,2.3,1.7c0.9,0.2,1.3,0.4,1.2,1.3c0,0.1,0.3,0.3,0.5,0.3
			c0,0,0.3-0.2,0.3-0.3c0-0.6-0.1-1.2,0.7-1.3c0.7,0,1,0.2,1.1,0.9c0,0.6,0.8,1.1,1.2,0.8c0.7-0.6,1.3-1,2.3-0.9
			c1.3,0.2,2.9-0.6,4,0.9c1.3,0,2.6,0.1,3.9,0c1.5-0.2,2.4,1.4,4,0.9c0.7-0.2,1.4,0,2.2,0c1.4-0.1,2.5,0,3.4,1.3
			c0.1,0.2,0.5,0.4,0.7,0.4c1.1,0,2.4,0.1,3.4-0.3c0.6-0.3,1.2-0.6,1.9-0.6c1,0,2.1-0.1,3,0c1.2,0.2,2.1-0.5,3.1-0.9
			c0.4-0.2,1.1-0.3,1.6,0.2c0.2,0.2,0.4,0.5,0.6,0.6c1,0,2,0,3,0c1.2,0,2.3-0.1,3.5,0c0.9,0.1,1.6,0.9,2.7,0.9c1.9,0,4-0.8,5.7,0.8
			h3.5c0.7,0,1.5-0.1,2.2,0c0.5,0.1,0.9,0.7,1.4,0.8c0.9,0,1.5,0.3,2.3,0.8c0.7,0.5,2,0,3,0.2c0.7,0,0.9-0.5,1.4-0.9
			c1.4,1.7,3.4,0.2,4.8,0.9c2.6,1.4,5.3,0.5,7.9,0.8c0.3,0,0.7-0.1,0.9,0c2.2,1.5,4.7,0.6,7,0.9c0.4,0,1,0,1.2,0.2
			c0.9,1.2,2.1,0.6,3.2,0.7c0.7,0,1.7-0.1,2,0.3c0.7,0.7,2,0.4,2.5,1.5c0.4,0.9,1.5,0.7,2.1,1.2c0.3,0.3,0.5,0.5,1,0.1
			c0.5-0.4,1.2-0.6,1.8-1c1.1-0.8,2.2-0.2,3.3-0.4c0.9-0.1,1.2,0.7,1.7,1.1l2.9,1.5c0.9-0.1,1.9,0.2,2.8-0.6c0.7-0.6,2-0.6,2.6,0.5
			c0.8,1.6,2.9,0.3,3.6,1.8c1.4,0,2.9,0,4.3,0c0.5-0.8,1.4-0.8,2.1-1.2c1.5-0.8,2-0.8,3,0.1c0.5,0.5,1.1,1,1.5,1.5
			c0.5,0.5,0.8,0.2,0.8-0.2c0-0.7,0.3-1,0.7-1.5c0.7-0.7,0.8-0.9,1.8-0.2c0.5,0.4,0.9,0.5,1.5,0.5c2.3,0,4.6,0,7,0
			c0.6,0,1.4-0.2,1.7,0.1c1.1,1.2,2.4,0.6,3.6,0.7c0.6,0,1.2,0.1,1.7-0.2c0.4-0.2,0.3-1,0.7-1.4c0.8-0.9,1.6-1.7,2.4-2.5
			c0.7-0.7,1.3-1.6,2.2-2.1c1.1-0.7,0.9-2,1.8-2.8c1-0.9,1.9-1.8,2.8-2.8c0-1.6,1.4-2,2.2-3c0.7-0.9,1.7-1.6,2.2-2.6
			c0.6-1.3,1.7-1.9,2.4-2.9c0.2-0.2,0.2-0.5,0.2-0.8c0.2-0.8,0.8-1.4,1.1-2.2c0.3-0.9,1.4-1.5,2.1-2.2c0.7-0.7,1.8-1.4,2-2.2
			c0.2-0.9,0.8-1.4,1.1-2.2c0.4-1.1,0.8-2.4,1.9-3.1c1.1-0.7,1.3-2.1,2.2-3c1-1,1.5-2.3,2-3.5c0.2-0.6,0.8-1,0.9-1.8
			c0.2-1,1.8-1.4,1.8-2.8c0-0.3,0.5-0.7,0.9-0.9c2.1-1.6,2.2-4.5,4.2-6.1c0.1-0.1,0-0.6,0-0.8c0-0.4,0.1-1,0.4-1.1
			c1.3-0.8,1.3-2.4,2.4-3.4c1.1-1,1.4-2.6,2.2-3.9c0.4-0.7,0.4-1.6,1.3-2.1c0.9-0.5,0.6-1.5,1.2-2.1c0.6-0.6,0.4-1.7,1.2-2.1
			c0-1.2,1-1.9,1.2-3c1.3-0.6,1.1-2.2,2.2-3c-0.2-1.6,2.1-1.9,1.9-3.6c0.9-0.9,1.1-2.2,1.7-3.2c0.6-1,1.2-2.1,1.7-3.2
			c0.6-1.1,0.7-2.4,1.7-3.2c-0.4-1,0.9-1.3,0.9-2.2c0-0.8,0.9-1.3,1-2.2c0-0.9,1-1.6,1.4-2.4c0.4-0.7-0.2-1.7,0.6-2.4
			c0.6-0.5,0.4-1.6,1.2-2.1c0,0,0-0.3,0-0.4c-0.1-0.9,0.1-1.7,0.9-2.3c0.4-0.3,0.9-0.7,0.8-1.4c-0.1-0.7,0.3-1.3,0.6-1.9
			c0.4-0.7,0.6-1.5,1.3-2.1c0.5-0.4,0.8-0.8,0.7-1.5c0-0.6,0.3-1,0.5-1.5c1-2.5,2.9-4.6,3.1-7.4c1.4-0.6,0.2-2.2,1.2-3
			c0.5-0.4,0.6-1.2,1-1.7c0.6-0.8,0.1-1.7,0.3-2.5c0-0.3,0.1-0.6,0.3-0.7c0.7-0.5,0.5-1.3,0.6-2c0-0.8,0.9-1.3,0.9-2.3
			c0-1.2,1.1-2.2,1-3.5c0.9-0.4,0.5-1.5,1.2-2.1c0.6-0.5,0.4-1.6,1.2-2.1c-0.4-1,1-1.3,0.9-2.2c-0.2-1,0.5-1.5,0.8-2.3
			c0.6-1.5,1.6-2.8,2-4.4c1.3-0.6,0.1-2.2,1.2-3c0.6-0.5,0.9-1.6,1.2-2.5c0.3-0.8,1.2-1.2,0.9-2.2c-0.3-1,1.2-1.5,0.9-2.7
			c-0.3-1,1.1-1.5,0.9-2.7c-0.1-0.5,0.7-1.2,0.8-1.8c0-0.9,0.1-1.7,0.9-2.2c-0.4-1,0.8-1.4,0.9-2.2c0.1-0.9,1.1-1.6,0.8-2.7
			c-0.3-1,0.6-1.5,0.9-2.3c0.3-0.9-0.4-2,0.5-2.8c0.9-0.8-0.2-2.4,1.2-3c0-1-0.1-2,0.9-2.7c0-1.3,0.2-2.6,0-3.9
			c-0.2-1.4,1.2-2.2,1-3.6c-0.2-1.6-0.1-3.2-0.1-4.7c-1-1-2.1-2-3.1-3.1c-0.6-0.7-0.9-0.3-1.6,0c-1,0.4-2.2,0.6-3.2-0.3
			c-0.2-0.2-0.5-0.3-0.7-0.3c-1.6,0-3.2,0-4.8,0h-5.2c-1.2-1.6-2.9-0.8-4.4-0.8c-17.2,0-34.3,0-51.5,0c-1.4,0-2.9,0.5-4-0.8
			c-0.1-0.1-0.8,0.1-1.1,0.4c-0.7,0.7-1.8,0.8-2.3,0.3c-0.8-0.7-1.5-0.7-2.4-0.7c-3.8,0-7.5,0-11.2,0c-0.6,0-1.4,0.2-1.7,0
			c-2.1-1.6-4.4-0.7-6.6-0.8c-3.5-0.2-7,0-10.3,0L226,98.7z M260.2,366.6c0.6,0,1.2,0,1.8,0c1.1,0.1,2-0.1,2.6-1.1
			c0.6-0.9,1.8-0.6,2.4-1.5c1-1.6,3.1-1.9,4.2-3.4c2.1,0,2.4-2.8,4.5-2.8c0.8-0.8,1.5-1.5,2.7-1.9c1-0.4,1.7-1.6,2.5-2.4
			c1-1,2.1-2.1,3.1-3.1c1-1,2.1-2.1,3.1-3.1c0.9-0.9,1.8-1.8,2.8-2.8c1-1,2-2.2,3.1-3c1.2-0.9,1.4-2.4,2.4-3.4
			c1.6-1.5,3.4-2.9,4.5-4.7c1.2-2,2.9-3.5,4.4-5.1c0.5-0.5,0.5-0.9,0.5-1.5c0-0.4,0.2-0.8,0.4-1.1c0.4-0.7,1.2-1,1.4-2
			c0.1-0.7,1-1.4,1.7-1.9c0.8-0.6,0.6-1.6,1.2-2.1c1.5-1.2,2.4-3.3,4.5-3.8c0.4,0,0.8-0.5,0.9-0.9c0.3-1.8,2.3-2.5,2.9-4
			c0.7-1.8,2.5-2.7,3.6-4.2c0.6-0.8,1.3-1.6,1.5-2.4c0.1-0.9,1-1.4,1-2.2c0-1,1.2-1.2,1.5-2c0.4-1.3,1.3-2.2,2.2-3
			c0.6-0.5,0.7-1.2,0.7-1.9c0-0.3,0-0.6,0.2-0.8c1.1-0.8,1.4-2.1,2.1-3c0.6-0.8,1.6-1.4,1.9-2.3c0.2-0.8,1-1.3,1-2.2
			c0-0.9,1.4-1.3,1.7-2.3c0.4-1.3,1.1-2.5,2.1-3.5c0.7-0.7,0.6-1.8,1.5-2.4c0.9-0.5,0.6-1.9,1.5-2.4c0.3-1.5,1.2-2.7,2.1-3.9
			c0.7-0.9,0.9-2.1,1.9-2.6c1.2-0.6,0.9-2,1.8-2.8c0.4-0.4,0.9-0.8,1.1-1.3c0.7-1.6,1.5-3.2,2.4-4.7c0.4-0.6,0.1-1.1,0.3-1.6
			c0-0.3,0.1-0.6,0.3-0.7c1.2-1,1.5-2.6,2.3-3.8c1.1-1.7,1.4-3.9,3.2-5.2c0.2-0.2,0.2-0.8,0.3-1.2c0.1-0.4,0.1-0.9,0.4-1.1
			c0.9-0.7,1.2-1.9,1.9-2.7c0.8-0.9,1.5-1.7,1.3-3c0-0.3,0.5-0.7,0.8-0.9c1-0.7,1-1.9,1.7-2.8c0.4-0.5-0.2-1.4,0.5-2
			c0.7-0.5,0.4-1.7,1.2-2.1c-0.3-1,0.9-1.4,1-2.2c0-1,1-1.5,1-2.7c0-0.8,0.6-1.8,1.2-2.5c1-1,0-2.3,0.6-3.3c0.1-0.2,0.5-0.4,0.6-0.6
			c0.6-1.8,1.7-3.4,2.4-5.1c0.8-1.9,1.8-3.6,2.8-5.4c-0.2-1,0.9-1.4,1-2.2c0.1-1.2,1.3-1.5,1.8-2.3c0.5-0.8,1.1-1.6,1.5-2.4
			c0.2-0.5,0.3-1.1,0.2-1.7c-0.4-1.7,1.2-2.8,0.9-4.4c0.5-0.5,1-1,1.4-1.6c0.5-0.7,0.4-1.6,1.2-2.1c-0.5-1.3,0.5-2.1,0.9-3.1
			c0.3-0.9,0.8-1.7,0.9-2.7c0.1-0.9,1-1.6,0.8-2.7c0.9-0.6,0.6-1.8,1.4-2.4c0.1,0,0.3-0.2,0.3-0.3c-0.2-1.8,1.1-3,1.7-4.5
			c0.4-1,0.9-2,1.5-2.9c0.8-1.1-0.3-2.5,0.8-3.6c0.9-0.9,0.2-2.2,0.4-3.3c0.1-0.5-0.3-1.2,0.3-1.6c0.4-0.4,1-0.9-0.1-1
			c-1.3-0.1-2.6,0-3.9,0c-1.9-1.7-4.1-0.5-6.2-0.9c-0.6,0-1.4,0.2-1.7,0c-0.8-0.8-1.7-0.9-2.7-0.8c-1,0-2,0-3,0H370
			c-0.6-1.2-1.2-0.5-1.9,0c-0.2,0.1-0.6,0-0.9,0c-1.3,0.2-1.9,0.8-2,2.2c0,1.2-1.5,1.8-0.9,3.1c0,0.2-0.3,0.5-0.4,0.7
			c-0.5,1.1-1,2.2-1.6,3.2c-0.6,1.1-1.9,1.8-1.5,3.3c0,0.2-0.4,0.4-0.6,0.6c-1.5,1.3-1.7,3.4-2.9,4.9c0.7,1.3-1.2,2-0.8,3.1
			c0.4,1.2-1.3,1.5-0.9,2.7c0.3,1.1-1.1,1.9-0.9,3.1c0,0.5-0.7,1.2-0.8,1.8c0,0.7-0.2,1.3-0.7,1.9c-0.4,0.5-0.5,1.2-0.9,1.8
			c-0.4,0.5-0.7,1.2-0.9,1.8c-0.3,0.7-0.4,1.3-1,1.8c0.4,1-1.1,1.4-0.9,2.2c0.3,1.3-1,1.9-1,3.1c-1.3,0.8-1.7,2.2-1.8,3.6
			c-0.9,0.4-0.5,1.5-1.2,2.1c-0.6,0.5-0.5,1.6-1.2,2.1c0.3,1.1-1.2,1.5-0.9,2.7c0.1,0.7-0.5,1.5-0.8,2.2c-0.2,0.5-0.9,1.1-0.8,1.4
			c0.5,1.3-1.2,2-0.9,3.1c-1,0.8-0.9,2.3-2.1,3.1c-0.7,0.5-1.3,1.6-1.3,2.4c0,1.1-0.6,1.8-1,2.7c-0.7,1.5-1.2,3-2.1,4.3
			c-0.5,0.7-0.3,1.7-1.2,2.1c-1,0.5-1,1.6-1.5,2.4c-0.8,1.4-1.7,2.8-2.1,4.3c-0.3,1.4-1,2.5-1.6,3.7c-0.6,1.2-0.8,2.6-1.8,3.6
			c-0.4,0.4-0.9,0.6-1,1.3c0,0.6-0.5,1.2-0.8,1.8c-0.9,1.9-1.9,3.8-2.9,5.8c-0.5,0.9-1.4,1.7-1.8,2.7c-0.4,1.1-0.9,2.3-1.6,3.2
			c-1.5,2.3-2,5.1-4.2,7c0.2,1.4-1.4,1.7-1.8,2.8c-0.4,1-0.7,2.2-1.4,2.8c-1,0.8-0.9,2.1-1.8,2.8c-1,0.7-1,2-1.8,2.7
			c-0.9,0.8-1.6,1.8-2.5,2.4c-1.5,1-1.8,2.8-3,4c-1.3,1.2-2.5,2.4-3.7,3.7c-0.3,0.3-0.3,0.8-0.5,1.1c-0.5,0.7-1.1,1.3-1.7,1.9
			c0.4,1.1-1.4,1.5-0.9,2.7c-1.1,1.2-2.4,2.3-3.1,3.9c-0.4,1-1.5,1.8-2.4,2.5c-1.2,0.8-1.2,2.2-2.1,3.1c-0.8,0.7-1.4,1.4-2.2,2.1
			c-0.8,0.8-1.7,1.6-2.4,2.5c-0.6,0.7-1,1.7-1.6,2.4c-0.8,1-1.8,1.9-2.7,2.8c0,1.4-1.2,1.8-1.9,2.7c-0.8,1-0.9,2.4-2.1,3
			c-0.4,1.8-2,2.7-3.1,3.9c-2.1,0.5-3.1,2.4-4.6,3.7c-0.4,0.4-0.8,0.9-1.2,1.2c-0.3,0.2-0.7,0.4-1.1,0.6c-1.5,0.8-3,1.4-4,2.8
			c-0.4,0.5-0.8,0.7-1.5,0.7c-1,0-2,0-3,0c-0.9,0-1.8-0.2-2.6,0c-1.2,0.3-1.7-0.9-2.7-0.9c-1.2,0-2.3,0-3.5,0c-1.2,0-2.4-0.2-3.5,0
			c-1.3,0.2-1.9-1-3.1-1c-1.4,0-2.9,0.7-4.1-0.6c-1.4,0-2.9-0.1-4.3-0.2c-0.1,0-0.3,0-0.4-0.1c-0.7-1.1-1.8-0.7-2.7-0.7
			c-1,0-1.5-1.2-2.7-1c-0.5,0.1-1.2-0.6-1.8-0.8c-1.3-0.3-2.9,0.6-4-0.9c-1.5-0.2-3.2,0.5-4.6-0.4c-1.5-1-3.1-0.2-4.6-0.5
			c-0.7-0.1-1.7,0.2-2.1-0.2c-0.9-0.9-1.9-0.9-2.8-0.7c-1.3,0.4-2-0.8-3.1-0.9c-2.2-0.2-4.6,0.7-6.6-0.9h-9.9
			c-0.8-1.1-2-0.8-3.1-0.9c-1.2,0-2.3,0-3.5,0h-3.5c-1.3,0-2.6-0.1-3.9,0c-1.3,0.2-2.1-0.6-3.1-0.9c-1.1-0.2-2.3,0-3.5,0h-7.4
			c0,0-0.3,0-0.4,0s-0.3,0-0.4,0c-1.1-1.4-2.7-0.6-4-0.8c-1.9-0.3-4,0.7-5.7-0.9c-1.2,0-2.4-0.2-3.5,0c-1.5,0.4-2.2-1.2-3.6-1
			c-1,0.2-2,0-3,0c-1.2,0-2.4-0.2-3.5,0c-1.2,0.3-1.6-1.2-2.7-1c-1,0.2-2,0.2-2.7-0.8c-0.1-0.2-0.8-0.2-1.1,0.3
			c-0.8,0.9-1.7,0.8-2.6,0.2c-0.2-0.2-0.4-0.5-0.7-0.5c-0.9,0-1.8,0-2.6,0c-0.8-0.1-1.5-0.7-2.3-0.8c-1.1-0.1-2.3,0-3.5,0
			c-1,0-2.1-0.2-3,0c-1.3,0.4-2-0.8-3.1-0.9c-2.5-0.2-5.1,0.7-7.5-0.8c-0.6-0.4-1.7-0.2-2.6,0c-1.2,0.3-1.7-0.8-2.7-0.9
			c-1.7,0-3.5,0.4-4.6-1.6c0-0.1-0.3-0.2-0.3-0.2c-1.8,0.6-3.2-1-4.9-0.9c-1.7,0-3.5,0-5.2,0c-0.8,0-1.3-0.2-1.9-0.8
			c-0.2-0.2-0.9,0-1.1,0.1c-0.5,0.4-1.2,0.8-1.1,1.7c0,0.4-1.2,3.2-1.4,3.3c-1.2,1.3-2.5,2.6-3.5,4.2c-0.9,1.6-2.6,2.7-3.9,4.1
			c-2.6,2.6-5.1,5.1-7.7,7.7c-1,1-1.8,2.1-3.3,2.5c-0.7,0.2-1.3,1.1-1.8,1.8l0.3,0.5c1.4-0.6,2.3,1,3.6,0.9c1.3-0.1,2.6,0,3.9,0
			c0.9,0,1.7,0,2.6,0c0.4,0,1.1,0,1.2,0.1c0.9,1.2,2.1,0.6,3.2,0.7c0.7,0,1.5-0.1,2.2,0c0.8,0.2,1.5,0.7,2.3,0.8
			c0.8,0.1,1.7,0,2.6,0c0.1,0,0.3,0.1,0.3,0.2c0.9,1.1,2.1,0.5,3.2,0.7c0.8,1.2,2,0.8,3.1,0.9c0.9,0,1.7,0,2.6,0
			c0.7,0,1.5,0.1,2.2,0c1-0.3,1.3,0.9,2.3,0.9c0.9,0,2.1-0.5,2.8,0.6c1,0,2,0.2,3,0.2c1,0,2,0,3,0c1.4-0.1,2.5,0.2,3.4,1.3
			c0.2,0.3,0.7,0.4,1.1,0.4c1,0,2.1,0.2,3,0c1.1-0.2,1.8,0.7,2.7,0.9c1.4,0.2,3-0.5,4.2,0.3c1.5,1.1,3.1,0.3,4.6,0.5
			c1.4,0.2,2.9,0,4.3,0h13c0.7,0,1.5,0,2.2,0c1.3,0,2.1,1.3,3.6,0.9c1.2-0.3,2.6,0,3.9,0c0.1,0,0.3,0,0.4,0c1.1,1.4,2.7,0.7,4,0.8
			c1.4,0.1,2.9,0,4.3,0c0.4,0,1.1,0,1.2,0.1c0.8,1,1.9,0.9,2.8,0.7c1.4-0.4,2,1,3.1,0.9c1.2,0,2.3,0.1,3.5,0
			c1.2-0.2,2.1,0.5,3.1,0.9c0.8,0.3,1.7,0,2.6,0c1,0,2.1,0.2,3,0c1-0.2,1.4,0.9,2.3,0.9c1.2,0,2.3,0,3.5,0c1.2,0,2.4-0.2,3.5,0
			c1,0.2,1.9,1.1,3.1,0.8c0.8-0.1,1.7,0,2.6,0c0.6,1.3,2.2,0.3,3,1.2c0.4,0.5,0.6,0.3,0.9,0c0.2-0.2,0.5-0.4,0.7-0.4
			c1.3,0,2.6,0,3.9,0c1.2,0,2.6-0.6,3.6,0.8c0,0.1,0.5,0,0.8,0c0.4,0,0.9,0,1.3,0h3.5c1,0,2,0,3,0c1.2-0.1,1.9,1.2,3.1,0.9
			c1.1-0.2,2.3-0.3,3.1,0.8c1.9,0,3.8,0,5.7,0c0.7,0,1.7-0.2,2.1,0.1c0.9,0.9,1.8,0.7,2.8,0.7c0.7,0,1.5-0.1,2.2,0
			c0.5,0.1,1,0.8,1.4,0.8c1.1-0.2,1.8,0.7,2.7,0.9c1,0.2,2,0,3,0c1,0,2-0.2,2.7,0.9c1.2-0.4,2.1,0.7,3.1,0.8c1.6,0.2,3.2,0.1,4.8,0
			c1.5,0,3.2,0.5,4.4-0.9c1.4,0,2.9,0,4.3,0c1,1.3,2.4,0.6,3.6,0.8L260.2,366.6z M253.3,331c1.2,0,2.3,0,3.5,0c0.9,0,1-0.4,1.3-1.2
			c0.3-1.1,1.8-1.2,2.6-1.9c2.2-2,4.4-4.3,6.5-6.4c0.3-0.3,0.2-0.8,0.5-1.1c0.5-0.7,1.4-1.2,1.6-1.9c0.2-0.7,0.4-1.4,1-1.8
			c0.8-0.5,0.7-1.5,1.2-2.1c0.7-0.9,1.7-1.6,2.2-2.6c0.6-1.3,1.6-2,2.4-2.9c0.8-0.9,1.6-1.7,2.4-2.5c1.2-1.2,2.5-2.5,3.7-3.7
			c0.4-2,2.3-2.8,3.3-4.3c0.5-0.8,0.7-1.8,1.6-2.4c0.2-0.1,0.5-0.4,0.5-0.7c0-1.2,1-1.8,1.7-2.3c0.9-0.7,0.6-1.9,1.5-2.5
			c0.3-0.2,0.7-0.6,1-0.7c1-0.1,1.5-0.8,1.9-1.5c0.4-0.8,0.6-1.8,1.1-2.6c0.7-0.9,1.6-1.7,2.4-2.5c0.8-0.8,1.6-1.7,2.5-2.5
			c0.7-0.6,1.2-1.2,1-2.2c0-0.3,0.3-0.7,0.5-1.1c0.4-0.6,1-0.9,1.2-1.7c0.5-1.6,1.3-3.1,2.8-4.1c1.1-0.8,1.6-2,2.1-3
			c0.4-0.9,0.8-1.7,1.6-2.4c0.7-0.6,0.6-1.8,1.5-2.4c0.5-0.3,0.8-0.8,0.7-1.5c-0.1-0.6,0.2-1,0.5-1.5c0.5-0.8,0.8-1.7,1.5-2.4
			c0.7-0.8,0.9-1.9,1.4-2.9c0.4-0.8,0.7-1.9,1.4-2.4c1.1-0.7,1.3-1.9,1.7-2.8c0.5-1,1.2-2.1,1.3-3.4c0-1,0.9-2,1.6-2.8
			c1.6-1.9,2.1-4.4,3.5-6.4c0.4-0.6,0-1.6,0.8-2.3c0.8-0.6,1.4-1.5,2.2-2.1c1.1-0.7,0-2,0.9-2.7c0.1,0,0.3-0.2,0.3-0.3
			c0.2-1,0.7-1.8,1.6-2.4c1-0.7-0.1-2,0.9-2.7c0.3-0.2,0.5-0.8,0.4-1.1c-0.3-1,1-1.5,0.9-2.2c-0.3-1.2,0.8-1.7,0.9-2.7
			c0.1-1,1.3-1.2,1.5-2c0.3-0.9,0.3-1.9,0.4-2.9c1.2-0.6,0.4-1.8,0.9-2.7c0.5-0.8,1.3-1.6,1.5-2.4c0.1-1.1,1.2-1.8,1-3.1
			c-0.1-1.1,1.4-1.3,1.7-2.3c0.3-0.8,0.8-1.5,0.8-2.2c0-1.3,0.8-1.7,1.5-2.5c0.8-0.9-0.3-2.4,1.2-3c0.7-0.3,1-1,0.8-1.8
			c-0.1-0.7,0.5-1,0.6-1.5c0.2-0.8,1.1-1.5,1-2.2c0-1.1,1-1.9,0.9-2.7c-0.2-1.3,1.2-2,1-3.1c1.5-0.6,0.6-2,1.2-3
			c0.9-1.5,1.8-3,2.3-4.7c0.1-0.4,0.5-0.6,1-0.6c1.2-0.2,0.6-1.8,1.6-2.1c0-0.1-0.2-0.2-0.3-0.3c-0.6-0.5-0.9-1.2-0.2-1.8
			c1.1-0.9,1.6-2,1.4-3.4c0-0.3,0.2-0.8,0.4-1.1c0.6-0.7,1.3-1.2,1.8-1.9c0.7-0.9,0.2-1.9,0.3-2.9c1.1-0.6,0.5-1.9,1-2.6
			c0.5-0.7,0.7-1.5,1.1-2.2c0.7-1.3,1.7-2.5,1.4-4.2c0-0.3,0.3-0.7,0.5-1.1c0.2-0.5,0.3-1.1,0.6-1.5c0.4-0.5,0.7-0.9,0.6-1.5
			c-0.1-0.9,0.1-1.4,1.1-1.3c0.2,0,0.6-0.3,0.6-0.5c0-1,0.2-2.1,0-3c-0.3-1.4,1.4-2.1,1-3.6c0-0.3,0.6-0.9,1-1.3
			c0.2-0.3,0.6-0.6,0.7-1c0.3-1,1.4-1.9,0.9-3.1c1-0.6,1.1-1.9,1.7-2.8c0.8-1.2-0.5-2.8-2.1-2.9c-0.8,0-1.6,0-2.4-0.5
			c-1-0.6-2.4-0.8-3.5,0.3c-0.2,0.2-0.9,0.3-1.1,0.1c-0.6-0.4-1.1-0.9-1.6-1.5c-1.1-1.4-2.5-1.2-3.8-0.7c-0.5,0.2-0.9,0.6-1.5,0.6
			c-1.6,0-3.2,0-4.8,0c-0.4,0-0.7,0.3-1,0.6c-0.9,0.7-0.9,2-1.6,2.8c0.4,1.2-1.1,1.9-0.9,3.1c-1.5,0.6-0.6,2.3-1.4,3.4
			c-0.9,1.1-1.5,2.6-1.2,4.3c0,0.4,0,1.1-0.2,1.2c-1.2,0.7-0.2,2-0.9,2.7c-0.9,0.8-0.5,1.9-0.6,2.8c0,0.3-0.1,0.6-0.3,0.7
			c-1,0.9-1.7,1.9-1.5,3.3c-1,0.9-1.1,2.2-1.7,3.2c-0.7,1.2-1.5,2.3-1.7,3.6c-1.6,0.6-0.2,2.6-1.5,3.3c-0.9,2.4-2.2,4.6-3.4,6.8
			c-0.5,1,0.3,2.4-1.1,3.1c-0.2,0,0,0.8,0,1.3c0.3,1.6-0.6,2.9-1.2,4.3c-0.4,1-1.5,1.9-1.3,2.9c0.2,1.6-0.8,2.6-1.2,3.9
			c-0.1,0.5-0.7,0.9-0.6,1.5c0.4,1.5-0.6,2.6-1.2,3.8c-4,7.9-8,15.8-11.7,23.8c-0.7,1.5-1.3,3-2.3,4.2c-0.9,1.1-1.2,2.4-2,3.5
			c-1,1.5-0.6,3.7-2.5,4.6c0.1,0.8-0.4,1.3-0.9,1.8c0.3,1.1-0.8,1.4-1.2,2.1c-0.4,0.6-0.6,1.2-0.9,1.8c-1,1.3-1.2,3-2.4,4.3
			c-1.2,1.3-1.5,3.1-2.7,4.5c-0.6,0.7-1.1,1.8-1.4,2.9c-0.3,1-1.9,1.4-1.7,2.8c-0.9,0.4-0.7,1.5-1.2,2.1c-0.7,0.7-0.5,1.9-1.5,2.4
			c-0.9,0.4-0.5,1.5-1.2,2.1c-0.9,0.7-1.8,1.5-2.4,2.5c-0.6,0.9-1.1,1.8-1.4,2.9c-0.2,0.5-0.7,0.9-1.1,1.3c-0.6,0.6-1.2,1.3-1.9,1.8
			c-0.5,0.4-0.6,0.9-0.5,1.5c0,0.7-0.3,1.1-0.7,1.5c-0.7,0.6-1.3,1.2-1.1,2.2c0,0.2,0,0.6-0.2,0.8c-0.6,0.6-1.2,1.3-1.8,1.8
			c-0.8,0.7-0.6,1.8-1.5,2.5c-1.2,1-2.3,2-2.9,3.6c-0.4,1.1-1.8,1.7-2.4,2.9c-0.4,1-1.3,1.9-2.2,2.5c-1.2,0.8-1.1,2.2-2.1,3.1
			c-1.1,1-2.6,1.9-2.8,3.6c-1.2,1.2-2.5,2.4-3.7,3.7c-0.3,0.3-0.2,0.8-0.5,1.1c-0.5,0.7-1,1.4-1.7,1.9c-0.8,0.6-0.8,1.5-1.2,2.1
			c-1.2,0-1.8,0.8-2.4,1.6c-0.6,0.7-1.4,1.2-1.8,2.3c-0.3,1-1.7,1.6-2.2,2.6c-0.5,1-1.2,1.9-1.9,2.7c-0.7,0.8-1.8,0.8-2.3,0.4
			c-1-0.7-1.5-1.1-2.5,0c-0.3,0.3-1.3,0.4-1.6,0.1c-1-0.8-2-0.9-3.2-0.8c-1.8,0.2-3.3-0.5-4.6-1.5c-0.4-0.3-1-0.4-1.2-0.2
			c-0.6,0.8-1.4,0.7-2.3,0.9c-1.2,0.2-1.8-0.6-2.7-1c-1-0.4-2-0.9-3.2-0.8c-0.9,0-1.7,0-2.6,0c-0.4,0-0.8,0.2-1.1,0.5
			c-1.2,0.9-2.1,0.5-3-0.4c-0.3-0.3-0.6-0.8-0.9-0.9c-1.7-0.4-3.7,0.7-5.3-0.9c-0.5,0.9-1.4,0.7-2.3,0.9c-1,0.1-1.5-0.7-2.3-0.8
			c-0.7,0-1.5,0.6-2.2,0.8c-0.4,0-0.8,0-1.2-0.2c-0.4-0.1-0.7-0.6-1-0.6c-1.4,0-2.9-0.2-4.3,0c-1.5,0.2-2.4-1.3-4-1
			c-1.2,0.3-2.7,0.5-3.7-0.3c-1.2-0.9-2.5-0.3-3.7-0.5c-0.8-0.1-1.2-1.2-2.2-1c-0.8-1.2-2.1-0.8-3.2-0.7c-2.4,0.3-2.5,0.4-4.2-0.6
			c-0.7-0.4-0.6,0.3-0.9,0.4c-0.4,0-1,0.3-1.1,0.2c-0.6-0.5-1.1-0.8-1.9-0.8c-1.3,0-2.6,0-3.9,0c-0.7,0-1.7,0.2-2.1-0.2
			c-1-1.1-2.1-0.6-3.2-0.7c-2.2-0.3-4.5,0.5-6.6-0.8c-1-0.6-2.5,0.3-3.7-0.6s-2.8-0.2-4.2-0.4c-0.9-0.1-1.9,0.3-2.8-0.5
			c-0.8-0.8-1.9-0.2-2.9-0.3c-0.1,0-0.2-0.2-0.3-0.3c-1.6-0.7-2.8-0.8-5.1-0.6c-0.3,0-0.7,0-0.8-0.2c-0.5-0.7-1.2-0.7-1.9-0.7
			c-1.6,0-3.2,0-4.8,0c-1,0-2.1,0.3-2.7-0.8c-1.5,0.1-3.2-0.7-4.4,0.8c-1.7,0-3.5,0.1-5.2,0c-1.8-0.2-3.8,0.8-5.3-0.8
			c-1.2,0-2.3,0-3.5,0c-0.9-1.4-2.4-0.8-3.6-0.8c-1.1,0-1.8-0.4-2.7-0.9c-1.1-0.5-2.2-1.2-3.5-0.9c-0.9,0.2-1.6,0-2.3-0.7
			c-0.3-0.3-1.3-0.4-2,0.2c-1.3,1-2.5,0.8-3.9,0c-1.3-0.7-2.6-1.3-4.3-1.2c-3,0.2-6.1,0-9,0h-3c-1.4-1.3-3.2-0.8-4.9-0.9
			c-0.7,0-1.5,0.1-2.2,0c-0.5-0.1-0.9-0.7-1.4-0.8c-0.9,0-1.6-0.2-2.3-0.8c-0.6-0.4-1.7-0.3-2.5,0c-1.2,0.4-1.5-1.2-2.7-1
			c-1.2,0.2-2.6,0.5-3.6-0.8c0-0.1-0.7,0-0.8,0c-1.1,1.3-1.8,0.8-2.8-0.2c-0.6-0.7-1.5-1.1-2.4-1.5c-0.3-0.1-0.8,0-1.1,0.2
			c-1.2,0.8-1.9,2-2.5,3.3c-0.5,1.1-0.5,2.6-2.4,2.5c-0.7,0.7-1.9,1.3-2.1,2.1c-0.4,1.5-1.7,2.2-2.6,3.3c-0.8,1-2,1.6-2.2,3
			c0,0.4-0.8,1.1-1.2,1.1c-0.9,0-1.3,0.6-1.7,1.1c-0.8,1-2.1,1.2-3.1,2.1c-0.9,0.8-2.2,1.7-3.8,1.3c0,0-0.4,0.5-0.4,0.7
			c0,0.4,0.3,1,0.5,1c1.2,0,2.3,0,3.5,0h3.5c1.2,0,2.3,0,3.5,0c1.2,0,1.8,1.3,3.1,0.9c1.1-0.3,2.3,0,3.5,0c1.3,0,2.7,0.2,3.9,0
			c1.3-0.3,2,0.9,3.1,0.9c1.6,0,3.2,0,4.8,0c0.6,0,1.4,0,1.6,0.2c0.7,0.8,1.6,0.8,2.4,0.6c1-0.2,1.4,0.9,2.3,0.9c1.3,0,2.6,0,3.9,0
			c1.2,0,2.4,0.2,3.5,0c1.5-0.4,2.3,0.9,3.6,1c1.8,0,3.8-0.8,5.3,0.8c1,0,2.1,0.2,3,0c1.2-0.3,1.7,0.9,2.7,0.9c1.4,0,2.8-0.2,4,0.8
			c0.5,0.4,1.9-0.1,2.4,0.3c0.8,0.7,1.6,0.8,2.4,0.6c1.2-0.3,1.5,1.2,2.7,1c1-0.2,2-0.2,2.7,0.8c0,0.1,0.8,0,1.1-0.3
			c0.6-0.6,1.1-0.8,1.8-0.1c0.3,0.3,0.7,0.5,1.1,0.5c1.4,0,2.9,0.1,4.3,0c1.6-0.1,3,0.5,4.4,0.8c2.4,0.5,5.1-0.7,7.5,0.9
			c1,0,2.1,0.1,3,0c1.2-0.2,2.1,0.6,3.1,0.8c0.9,0.3,2,0,3,0c1,0,2,0,3,0c1,0,1.5,1.1,2.7,0.9c1.3-0.2,2.9-0.5,4,0.8
			c1.5-0.3,2.7,0.5,4,0.8c1.4,0.3,2.9,0.2,4.3,0c1.6-0.1,3,0.3,4.4,0.9c0.5,0.2,1-0.1,1.6-0.4c1.1-0.6,2.2-0.7,3.2-0.2
			c0.5,0.3,0.9,0.6,1.5,0.6c1.2,0,2.3,0,3.5,0h6.5c1.2,0,2.3,0.2,3.5,0c1.3-0.2,1.9,1,3.1,0.9c3.6,0,7.2,0,10.8,0
			c1.1,0,2.3-0.2,3.1,0.9h3.9c1,0,2,0,3,0c0.7,0,1.1,0.6,1.5,0.6c1.8,0.1,3.3,1.3,5.2,1.2c2.2-0.1,4.6-0.7,6.6,0.8c1,0,2,0.1,3,0
			c1.2-0.2,1.9,1.2,3.1,1c0.9-0.2,1.9-0.4,2.8,0.5c0.8,0.7,1.9,0.2,2.9,0.3c0.1,0,0.2,0.2,0.3,0.3c0.6,1.1,2,0,2.7,0.9
			c0.8,1,1.9,0.4,2.8,0.5c0.7,0,1.7-0.2,2.1,0.2c0.9,0.9,1.8,0.6,2.8,0.7c1.1,0,2.3,0.1,3.4,0.2c0.8,1.2,2.1,0.5,3.2,0.7
			c1,1.8,3.5,0,4.5,1.7c1.3,0,2.6,0.2,3.9,0c1.4-0.2,2.2,1.2,3.6,0.9c1-0.2,2,0,3,0L253.3,331z M160.3,106.9c0,0,0.5-0.2,0.9-0.3
			c0.4,0,1.1,0,1.2-0.2c0.5-0.8,1.7-0.5,2.1-1.2c0.7-1.2,2.2-1.1,3-2.1c0.8-1,2.1-1.1,3.2-1.7c0.2-0.1,0.5-0.2,0.7-0.4
			c1.2-1.2,2.5-2.5,3.7-3.7c2-0.4,2.8-2.3,4.3-3.4c1.2-1,1.8-2.4,2.5-3.7c0.4-0.8,0.8-1.7,1.2-2.5c0.1-0.2,0.5-0.6,0.5-0.6
			c-0.8-0.8-1.6-1.7-2.4-2.5c-0.4-0.4-0.8-0.9-1.2-1.2c-0.8-0.4-0.4-1.3-0.9-1.8c-1.4-1.4-2.7-2.8-3.8-4.5c-1.2-1.8-3-3.1-4.5-4.7
			c-1.4-1.4-2.9-2.9-4.3-4.3c-0.6-0.6-1.2-1.2-1-2.2c0-0.2,0-0.6-0.2-0.8c-1.7-1.8-3.5-3.5-5.2-5.2c0,0-0.4,0-0.6,0.2
			c-0.6,0.5-0.8,1-1,1.8c-0.2,0.7-1.6,0.4-2,1.3c-0.2,0.4-0.5,0.8-0.5,1.1c0.2,1.2-0.6,2-1.4,2.4c-0.5,0.2-1,0.3-1.4,0.7
			c-0.7,0.7-1.5,1.3-2.2,2c-1.6-0.2-0.6,1.8-1.7,2c-0.4,0-0.5,0.7-1.1,0.6c-1.2-0.3-1.6,0.3-2,1.5c-0.2,0.7-1.1,1.4-1.8,1.8
			c-0.5,0.4-1.4,0.3-1.8,1c-1.4-0.1-2.4,0.4-3.3,1.5c-0.1,0.2-0.5,0.3-0.7,0.3c-0.7,0-1.5,0-2.2,0c-0.6,0-1.1,0.1-1.5,0.6
			c-0.3,0.3-0.6,0.7-0.9,0.9c-0.5,0.4-0.6,0.7,0,1.3c2.9,2.8,5.7,5.8,8.6,8.6c1.2,1.2,1.4,3.2,3.1,3.9c1.3,0.6,2.2,1.2,2.8,2.7
			c0.4,1.1,1.9,1.8,2.6,2.8c0.7,1,1.2,2.2,2.2,3c1.1,0.9,1.7,2.3,3.3,2.5c1,1,2,2.1,3.1,3.1c0,0,0.2,0.2,0.3,0.2
			c0.1,0,0.2-0.2,0.5-0.5L160.3,106.9z M147.2,33.1c0,0,0-0.3,0-0.4c0.2-1.2-0.4-1.6-1.4-2c-0.8-0.3-1.3-1-2.2,0
			c-0.2,0.3-0.8,0.3-1.1,0.3c-1,0-2,0-3,0c-0.9,0-1.6,0.1-2.3,0.9c-1.1,1.3-2.9,1.3-4.2,2.4c-0.5,0.4-1.7,0.2-2.5,0.2
			c-0.4,0-0.9,0-1.3,0c-0.4,0-0.8,0.2-1.1,0.5c-1,0.9-1.7,2.1-2.8,2.7c-1.1,0.6-2.3,1.5-3.8,1.3c0,0-0.2,0.5-0.3,0.7
			c-0.1,0.2-0.2,0.7-0.3,0.7c-2-0.2-3,1.4-4.2,2.5c-0.9,0.8-1.6,2.1-3,2.2c-0.8,0.9-2.1,1.6-2.2,3c-0.7,0.4-0.6,1.2-1,1.8
			c-0.4,0.6-0.9,1.1-1.5,1.5c-1.4,0.9-1.8,2.4-2.6,3.7c-0.5,0.9-1.1,1.9-1.4,2.9c0,0.3-0.3,0.5-0.4,0.7c0,0.7-0.2,1.5,0,2.2
			c0.2,1-0.9,1.4-0.9,2.3c0,1-0.3,2.2,0,3c0.4,0.7,0.7,1.5,1.1,2.2c0.6,0.9,0.7,2.4,1.9,2.6c1.2,0.3,2.1,1.5,3.5,1
			c0.8-0.3,1.2,0.7,1.8,0.8c0.7,0.1,1.4,0,2.2,0c0.2,0,0.5,0.2,0.7,0.4c0.9,1.4,2.4,1.4,3.8,1.3c0.8,0,1.3-0.3,1.8-0.8
			c0.4-0.4,0.6-1,1.3-0.9c0.8,0.1,1.7-0.3,2.5,0.3c1.1,0.9,2.5,0.9,3.5,0.1c0.8-0.6,1.9,0,2.3-0.6c0.8-1.1,2-0.3,2.7-0.9
			c0.7-0.8,1.5-0.6,2.4-0.7c0.4,0,0.5-0.3,0.2-0.8c-0.7-1-0.6-1.2,0-1.8c0.1,0,0.2-0.2,0.3-0.3c1.1-0.5,2.2-1.2,3-2.2
			c1.3,0,1.9-1.1,2.7-1.8c1.6,0.3,1.8-1.5,3.2-1.9c1-0.2,1.7-1.4,2.6-2.1c0.2-0.2,0.5-0.4,0.7-0.4c0.9,0,1.2-1.3,2.3-0.9
			c0.4-0.7,0.7-1.6,1.3-2c1.1-0.8,1.1-2.2,2.1-3.1c0.9-0.8,1.2-2.2,2.2-3c0.6-2.1,2.4-3.8,1.9-6.2c0-0.4,0-0.9,0.3-1.2
			c0.8-1,0.7-1.9,0-3c-0.5-0.7-0.3-1.9-0.4-2.9c0-0.1-0.2-0.2-0.3-0.3c0,0-0.3,0-0.3,0.2c-1.1,2.5-2,5.1-4.3,6.9
			c0,1.1-1.3,1.8-1.1,3c0,0.3-0.2,0.9-0.4,1.1c-1.2,0.7-1.1,2.3-2.1,3.1c0.5,1.2-1.4,1.5-0.9,2.7c-0.7,0.7-1.4,1.4-2.2,2.2
			c-0.3,0.3-0.6,0.6-0.9,0.9c-0.5,0.5-1.1,1-1.5,1.6c-0.6,0.7-1.4,0.9-2.1,1.3c-0.6,0.3-1.1,1-1.6,1.5c-1-0.4-1.3,0.9-2.3,0.9
			c-0.3,0-0.7,0.4-1,0.7c-1.1,1.1-2.5,1.7-4,1.9c-0.3,0-0.6,0-0.8,0.2c-0.9,1-1.8,1.6-3.3,1.6c-0.8,0-1.5,1.1-2.4,1.4
			c-0.9,0.3-1.9,0.2-2.9,0.4c-0.1,0-0.2,0.2-0.3,0.3c-1.5,0.8-2.9,0.7-4.2-0.7c-0.6-0.6-0.9-1.3-1.3-2.1c-1.1-2.3-1-2.6,1.3-3.8
			c0.5-0.2,1-0.9,1.4-0.8c2,0.2,3.1-1.7,4.9-1.8c1.3-1.5,3.6-1.3,4.8-3.1c0.2-0.3,0.7-0.3,1.1-0.4c0.4-0.1,0.9,0,1.2-0.2
			c0.8-0.5,1.2-1.6,2.4-1.6c0.3,0,0.6-0.6,0.9-0.9c1.9-1.4,2.7-3.6,4.3-5.1c0.9-0.8,1.3-1.8,1.8-2.8c1.5-3.2,3.1-6.2,4.7-9.4
			C146.7,35.3,147.5,34.4,147.2,33.1L147.2,33.1z M192,66.6c-2,0.3-4.5-0.7-6.7,0.9c-1.2,0-2.3,0-3.5,0c-0.3,0-0.5,0.1-0.8,0.2
			c0,0.2,0,0.5,0.2,0.6c1,1,2.1,2,3.1,3.1c1,1.1,1.4,2.8,2.8,3.6c0.8,0.5,0.5,1.6,1.2,2.1c0.8,0.6,1.4,1.4,2.1,2.2
			c-0.2,1.4,0.8,1.1,1.6,1.2c1,0.1,1.8,1.1,1.8,2c0,1.7,0,3.5,0,5.2c0,0.8-0.5,1.3-0.7,1.9c-0.5,1.4-1.8,2.6-1.8,4
			c0,1.4-1.1,2.2-1.3,3.4c-0.3,1.3-1.2,2.2-2.1,3c-0.6,0.6-1.2,1.3-1.9,1.8c-0.6,0.5-1,1.2-2.1,1.4c-0.7,0-1.3,1-1.9,1.7
			c-1.6,2.1-4.2,2.9-5.8,4.9c-0.1,0.2-0.5,0.1-0.7,0.3c-0.9,0.6-2.2,0.6-2.8,1.6c-0.6,0.9-1.7,1-2.5,1.5c-1,0.6-1.9,1-2.7,1.9
			c-0.2,0.2-0.5,0.3-0.8,0.2c-1-0.2-1.5,0.6-2.3,0.8c-0.9,0.3-2,0-3,0c-2.3,0-4.6,0-7,0c-0.8,0-1.4,0.1-1.9,0.7
			c-0.2,0.2-0.9,0.2-1.1,0c-0.7-0.7-1.7-1.4-1.9-2.2c-0.3-1.1-1.2-1.6-1.8-2.3c-0.4-0.5-1.2-0.7-1.8-0.9c-0.9-0.4-0.7-1.5-1.2-2.1
			c-1-1.1-2.1-2-3.1-3.1c-1.1-1.1-1.5-2.6-2.7-3.7c-1.6-1.3-1.6-1.5-2.5,0.6c-0.3,0.7-1.3,1.2-0.9,2.2c0.4,1.1-1.4,1.5-0.9,2.7
			c0.4,1-0.9,1.3-0.9,2.2c0,2-0.3,4.1,0.1,6.1c0.3,1.5,1.4,2.9,2.2,4.3c0,0.1,0.3,0.2,0.3,0.3c0.2,0.7-0.4,1.6,0.3,2
			c0.6,0.4,1.4,0.3,1.8,1c1.2,0,1.7,0.9,2.4,1.5c0.3,0.2,0.9,0.4,1.1,0.3c0.5-0.4,0.7-0.8,1.6-0.2c1.8,1.2,3.1,1.3,5.2,1.1
			c0.4,0,0.7-0.4,0.7-0.9c0-0.2,0.2-0.7,0.3-0.7c0.9-0.2,2,0.2,2.7-1c1,0,2.1,0.1,3,0c1-0.3,1.9-1.1,3.1-0.9c0.8,0.2,1.7,0,2.6,0
			c0.4,0,0.8-0.1,1.2-0.3c0.8-0.4,1.6-1,2.5-1.4c0.7-0.4,1.6-0.9,2.2-0.8c1.2,0.2,1.6-1.1,2.7-1c0.4,0,1-0.8,1.4-0.8
			c1.3,0.3,1.9-1.1,3.1-1c0.6-1.1,2.1-0.8,2.7-1.8c0.4-0.7,1.1-0.8,1.9-0.8c0.4,0,0.8-0.2,1.1-0.5c0.7-0.5,1-1.5,2.1-1.2
			c0.9-0.9,1.9-1.8,2.8-2.8c0.9-1,2.3-1,3.1-2.1c0.6-0.9,1.6-1.7,2.4-2.5c-0.2-1.9,1.8-1.3,2.5-2.4c0.6-1,1.7-1.6,2.4-2.5
			c0.7-0.9,1.9-1.3,2.2-2.6c0.2-1.2,1.5-1.7,2.2-2.6c0.4-0.5,0.3-1,0.4-1.6c0-0.4,0.2-0.9,0.5-1.1c0.9-0.6,1-1.7,1.6-2.4
			c0.7-0.9,1.5-1.7,1.8-2.8c0.3-1,1.4-1.8,1.3-2.9c0-1.2,1.3-1.9,0.9-3.1c-0.2-0.9,1-1.2,0.9-2.2c-0.2-2,0-4.1,0-6.1
			c0-0.6-0.4-1-0.6-1.5c-0.5-1.6-1.8-2.5-2.8-3.6c-0.9-1.1-1.9-1.7-3.3-1.4c-1.1,0.2-1.8-0.5-2.7-0.8c-0.9-0.3-2,0-3,0L192,66.6
			L192,66.6z M193.8,116.1c-0.6,0.2-1.2,0.2-1.6,0.6c-0.8,0.6-1.6,1.3-2.1,2.1c-0.7,1-2.2,0.7-2.8,1.8c-0.5,0.9-1.4,0.9-2.3,0.9
			c-0.6,0-1,0.8-0.7,1.2c0.4,0.6,1.1,1,0.9,1.8c1.6,1.6,3.3,3.3,4.9,4.9c0.4,0.4,0.8,0.8,1.4,0.8c0.4,0,0.5,0.5,0.6,0.9
			c0.5,1.2,1.4,2.1,2.6,2.5c0.3,0,0.7,0.2,0.7,0.4c0.2,1.6,1.5,2.3,2.5,3.3c6.5,6.6,13,13.1,19.6,19.7c0.6,0.6,1.5,1,1.5,2
			c0,0.5,0.3,0.8,0.8,0.7c0.5,0,1.1,0.2,1.6-0.3c0.9-0.9,1.8-1.7,2.2-3c0.2-0.6,0.5-0.8,0-1.3c-0.2-0.1-0.2-0.5-0.3-0.7
			c-0.2-2.2-1.5-3.8-3.2-5.1c-1.1,0.2-1.4-0.8-2.1-1.3c-2.1-1.5-2.9-4.2-4.9-5.8c-0.3-0.2-0.2-0.8-0.3-1.2s-0.1-0.9-0.3-1.2
			c-0.7-0.8-1.8-1.3-2-2.2c-0.5-1.7-2.3-2.3-2.7-3.7c-0.5-1.7-1.9-2.4-2.9-3.6c-1.6-1.8-3.5-3.5-5.2-5.3c-0.3-0.3-0.7-0.7-0.6-1
			c0.3-1.4-0.7-2.1-1.5-2.9c-1.4-1.2-2.4-2.7-2.9-4.5c0-0.3-0.6-0.5-0.9-0.7L193.8,116.1z M121.5,84.9c0,0,0.9,0,1.3,0
			c0.5,0,0.9-0.2,0.9-0.6c0-0.4-0.2-0.8-0.4-1.1c-0.7-0.9-0.9-1-2.3-0.3c-1,0.5-1.9,0.1-2.9,0.3c-0.1,0-0.3,0.2-0.3,0.3
			c0,0.2,0.2,0.6,0.2,0.6C119.3,83.9,120.1,85.7,121.5,84.9L121.5,84.9z"/>
		<path d="M234.7,253.6c0,0.6,0,1.2,0,1.8c0,0.9-0.6,0.8-1.2,0.8c-0.6,0-1.1,0-1.5,0.5c-0.7,1.1-1.7,1.3-3,1.3c-1.3,0-2.2-0.2-3-1.3
			c-0.4-0.6-1.1-0.9-0.9-1.8c-0.6-0.3-1.2-0.6-1.8-1c-0.6-0.4-1.1-1-1.5-1.5c-0.4-0.4-1-0.9-1-1.3c0-1.1-0.8-0.9-1.4-1.1
			c-0.9-0.3-1.6-1.1-2.4-1.5c-0.5-0.2-1.4-0.4-1.6-0.1c-1.1,1.1-2.4,0.9-3.6,0.8c-1.2-0.1-1.9,1.3-3.1,0.9l-2.7,0.9
			c-0.7,0-0.9,0.6-1.4,0.9c-0.6,0.4-2.7,1.5-3.7,1.6c-0.7,0-1,0.4-1.4,0.8c-1.1,0.9-3.1,1.8-4.5,1.8c-1.3,0-2.1,1.4-3.5,0.9
			c-0.5,0.9-1.4,0.8-2.3,0.8c-1,0-2,0-3,0c-1.1,0-1.8-1.4-3.1-0.9c-0.3,0-1-0.6-1.2-1c-0.5-0.8-1.6-0.4-2.1-1.2
			c-0.7-1-1.9-1.7-2.5-2.9c-0.5-1.1-1.1-2.2-1.7-3.2c-0.6-1.2-1.3-2.4-1.7-3.6c-0.3-1.1-1.2-1.6-1.8-2.3c-0.5-0.6-1-1.2-2-1.4
			c-0.7-0.1-1.3-0.8-2.3-0.8c-2.3,0-4.6,0-7,0c-0.8,0-1.9-0.4-2.5,0.3c-0.5,0.7-1.3,0.3-1.9,0.9c-0.3,0.3-0.7,0.5-1.1,0.5
			c-1.8,0.2-3.1,1.1-4.3,2.2c-0.8,0.8-1.3,2-2.6,2.1c-1,0.1-1.2,1.2-2,1.5c-0.8,0.4-1.7,1-2.6,1c-1,0-1.5,0.9-2.2,0.9
			c-0.9,0-1.2,1.3-2.2,0.9c-0.8,1.4-2.8,0.4-3.6,1.7c-1.4,0-2.9,0-4.3,0c-0.8-1.3-1.3-0.3-1.8,0.3c-0.7,0.7-0.7,0.7-1.1-0.3
			c-0.1-0.2-0.3-0.7-0.4-0.7c-1,0-2.1-0.4-2.9,0.3c-0.6,0.5-0.8,0.2-1.3,0c-1.3-0.4-2.3-1.6-3.9-1.2c-0.3,0-0.8-0.2-1.1-0.4
			c-0.8-0.7-1.4-1.4-2.2-2.1c-1.2,0.2-1.7-0.9-2.4-1.5c-0.8-0.7-1.4-1.4-2.2-2.1c-0.6-0.6-1.3-1.1-1.2-2.1c-1.7-2.4-2.5-5.4-4.2-7.8
			c0-1.5-1.5-2-2.2-3c-1.4,0.6-2.2-1-3.6-0.9c-0.4,0-0.8-0.2-1.1-0.4c-0.4-0.3-0.6-0.4-0.9,0c-0.7,1-1.6,1.7-2.9,1.3
			c-1.2-0.3-2.1,0.6-3.1,0.8c-1.1,0.2-2.3,0-3.5,0c-0.4,0-0.8,0.3-1,0.6c-0.7,0.8-1.5,1.4-2.6,1.1c-1.7-0.5-2.8,1.2-4.4,0.9
			c-0.8,0.8-1.7,1.5-2.5,2.3c-0.7,0.8-1.4,1.4-2.6,1.2c-0.3,0-0.7,0.3-1,0.6c-0.6,0.6-1.3,1-2.1,1.3c-0.6,0.2-0.2,1.3-0.9,1.8
			c-0.5,0.3-0.8,0.8-1.5,0.6c-0.1,0-0.3,0-0.4,0c-0.4,0.2-0.7,0.4-1.1,0.5c-0.2,0.1-0.5,0.3-0.7,0.3c-1.3-0.2-1.7-1.5-2.6-2.2
			c-0.2-0.2-0.2-0.9,0-1.3c0.2-0.6,0.7-1.2,0.8-1.8c0.2-0.7,0-1.4,0-2.2c0-0.2,0.4-0.3,0.7-0.4c0.3-0.2,0.9-0.3,1-0.6
			c0.5-1.8,1.6-3.2,2.9-4.5s2.7-2.4,4.5-2.8c0.5-0.8,1.5-0.7,2.1-1.2c0.9-0.7,1.5-1.8,2.9-1.4c0.9-0.8,1.9-1,3.1-0.9
			c0.3,0,1-0.3,1-0.5c-0.1-1.4,0.8-1.2,1.7-1.3c1.1,0,2.3,0.4,3.2-0.8c0.3-0.4,1,0,1.5,0.5c0.3,0.2,1,0.4,1.1,0.3
			c0.7-1,1.7-0.8,2.7-0.8c1.3,0,2.6,0,3.9,0c0.7,0,1.4,0,1.9-0.7c0.2-0.2,0.8-0.2,1.2-0.2c0.7,0,1.4-0.3,2,0.4
			c0.7,0.8,1.6,0.3,2.4,0.5c0.6,0.2,1.2,0.8,1.8,0.8c0.9,0,1.2,1.1,2.3,1c0.5,0,1,0.9,1.5,1.4c1.1,1.1,2.3,2.2,3.4,3.4
			c0.7,0.8,1.1,1.8,1.7,2.8c-0.4,1.4,0.7,2.1,1.4,2.9c0.2,0.2,0.2,0.5,0.3,0.7c0.4,0.8,0.7,1.8,1.3,2.5c1,1.2,2.1,2.6,3.4,3.3
			c1.4,0.8,3.1,2.1,5,0.7c0.3-0.2,0.7-0.3,1.1-0.4c1-0.1,2.2,0.2,2.9-0.3c0.7-0.5,1.7-0.3,2.2-1.1c0.2-0.2,0.8-0.2,1.2-0.3
			c0.8-0.1,1.6,0.1,2.4-0.6c0.5-0.4,1.7,0,2.4-0.4c1-0.4,2.1-0.7,2.8-1.6c1.8-2.3,4.3-3.3,6.8-4.5c1.7-0.8,3.3-2,5.4-1.7
			c1.1-1.3,2.6-1,4-0.8c1.2,0.1,1.7-0.9,2.7-0.9c1,0,2,0,3,0c1,0,1.8,0.2,2.7,0.8c0.8,0.5,2-0.4,2.8,0.5c0.7,0.8,1.7,0.2,2.4,0.6
			c0.8,0.5,1.6,1.3,2.4,1.5c1.2,0.2,1.7,1,2.4,1.6c0.5,0.5,1.8,0,1.6,1.4c0,0.9,1.1,0.5,1.7,0.9c0.9,0.7,0.7,1.9,1.5,2.5
			c0.9,0.6,1.2,1.5,1.2,2.6c0,0.8,1,1.3,0.8,2.3c-0.2,0.8-0.1,1.7,0.7,2.3c0.8,0.5,2.8,1.4,3.3,1.4c0.1,0,0.3,0,0.4,0
			c0.7-0.5,1.2-1.2,1.9-1.6c0.7-0.4,1.8,0.3,2.3-0.6c0.6-0.9,1.7-1,2.4-1.6c0.8-0.6,1.7-0.7,2.5-1.5c1.2-1.1,2.7-1.9,4.5-1.7
			c0.9,0.1,1.7,0,2.3-0.8c0.2-0.2,0.4-0.4,0.6-0.6c0.7-0.8,1.4-1.2,2.6-1.2c2.6,0,5.2,0,7.8,0c0.7,0,1.4,0,2.1,0
			c0.7,1.4,2.4,0.3,3.4,1.5c0.6,0.7,2,0.7,2.9,1.3c0.9,0.6,2,0.7,2.8,1.8c1,1.4,2.3,2.6,3.7,3.7c1.6,1.3,2,3.2,3.1,4.8
			c0.5,0.8,0.2,1.7,0.3,2.5L234.7,253.6z"/>
		<path d="M162.7,210.9c-2,0-4.1,0-6.1,0c-1,0-2.1,0.4-2.7-0.7c-1.1,0-2.3-0.2-3.4-0.1c-1.2,0-2.2-0.1-3.1-0.9
			c-1.4,0.4-2-0.7-2.9-1.4c-0.6-0.5-1.6-0.4-2.1-1.2c-0.4-0.6-1.1-1-1.5-1.6c-0.6-0.7-1.5-0.8-2.1-1.3c-0.6-0.5-1.3-0.4-1.8-0.9
			c-1.4-1.4-3-2.8-4.3-4.3c-0.5-0.6-0.7-1.4-1.1-2.1c-0.4-0.7-0.5-1.6-0.9-2.2c-0.9-1.1-1.8-2.3-3-3.1c-0.7-0.5-2-0.2-3-0.2
			c-1.9,0-3.8,0-5.7,0c-0.8,0-1.7-0.4-2.4,0.5c-0.7,0.9-1.9-0.1-2.7,0.9c-0.4,0.6-1.6,0.4-2.1,1.3c-0.2,0.3-0.6,0.6-1,0.8
			c-0.8,0.4-1.8,0.6-2.6,1.1c-0.8,0.5-1.2,1.7-2.4,1.5c-0.3,0.6-0.5,1.3-1,1.7c-0.4,0.3-1.3,0-1.2,0.8c0.2,1.6-0.9,2.3-1.8,3.2
			c-0.7,0.7-3.6,0.6-4.4,0c-0.8-0.6-1.3-1.9-0.6-2.6c0.6-0.8,0.8-1.5,0.7-2.3c0-0.8,0.2-1.4,0.8-1.9c1.1-0.9,1.3-2.5,2.4-3.4
			c1.1-0.9,2.1-2,3.1-3c1.2-1.2,2.9-1.7,4-3c0.9-1.1,2.6-1.5,3.9-2.1c1.2-0.6,2.4-1.2,3.9-1.2c1.3,0,2.5-1,4-0.8
			c1.6,0.2,3.2,0,4.8,0c1.4,0,2.9,0,4.3,0c0.6,0,1.2,0.7,1.8,0.8c0.7,0.1,1.5-0.1,2.2,0c0.6,0.2,1,0.8,1.8,0.9
			c0.5,0,1.1,0.7,1.8,0.9c0.5,0.2,1,0.8,1.3,1.6c0.7,1.6,1.6,3.1,2.3,4.7c0.6,1.2,1.4,2,2.2,3c1.8,0.2,2.5,1.8,3.6,2.8
			c0.3,0.3,0.7,0.9,0.9,0.9c1.3-0.2,2.3,0.2,3,1.3c0.7,1.1,2.3-0.1,3,1.2c0.1,0.2,0.8,0.1,1.2,0.2c2.1,0.2,4.3-0.6,6.2,0.8
			c0.3,0.2,0.8,0,1.3,0c1.9,0,3.8-0.1,5.7,0c1.1,0.1,1.8-0.7,2.7-0.9c0.9-0.2,2,0.4,2.8-0.6c0-0.1,0.2-0.3,0.3-0.3c1,0,2.1-0.2,3,0
			c1.2,0.3,1.7-0.9,2.7-0.9c1.2,0,2.4,0.2,3.5,0c1-0.3,2-0.7,3.1-0.9c1.5-0.2,2.8-1,4.4-0.8c1.4,0.1,2.9,0,4.3,0c1,0,2.1,0.2,3,0
			c1.2-0.3,1.6,1.2,2.7,0.9c1.1-0.3,1.6,0.5,2.1,1.2c0.4,0.5,0.9,0.7,1.5,0.6c0.6,0,1.2,0,1.7,0c0.4,0,0.9,0,1.2,0.3
			c0.7,0.5,1.6,1.1,1.8,1.8c0.2,0.7,0.6,1.2,0.9,1.8c0.1,0.3-0.1,0.8-0.3,1.1c-0.2,0.3-0.7,0.8,0,0.9c1.3,0.2,1.9,0.9,2.2,2.1
			c0.1,0.4,0.6,0.4,0.9,0.6c2.1,1.3,4.2,2,6.7,1.7c0.4,0,0.9,0,1.3,0c1.5-0.3,3.2,0.7,4.5-0.8c1.4,0,2.9,0,4.3,0
			c0.6-1.4,2.2-0.4,3-1.2c0.6-0.6,1.3-0.5,2-0.6c1.1-0.1,2.5,0.6,3.3-0.4c0.8-0.9,1.9-0.1,2.7-0.8c0.8-0.7,2-0.9,2.7-1.9
			c0.1-0.2,0.5-0.3,0.7-0.4c1.1-0.1,2.3,0.4,3.1-0.9c1.3,0,2.6,0,3.9,0c1.2,0,2.3,0,3.5,0c0.1,0,0.3,0,0.4,0c0.1,0,0.2,0.2,0.3,0.3
			c0.7,0.9,1.6,1.5,2.7,1.9c0.1,0,0.1,0.6,0,0.8c-0.2,0.5-1.3,0.7-0.3,1.6c0.7,0.7,0.3,1.9,0.2,2.9c0,0.3-1.4,1.2-1.6,1.2
			c-1.9,0-3.8,0-5.7,0c-0.2,0-0.4-0.4-0.6-0.6c-0.7-0.5-0.6,0.2-0.7,0.5c-0.2,0.3-0.4,1-0.5,1c-1.4-0.3-2,0.8-3,1.3
			c-2,1.1-3.9,2.8-6.5,2.2c-1-0.2-1.4,1.1-2.2,0.9c-1.3-0.3-1.9,1.1-3.1,0.9c-1.1-0.1-2.3,0-3.5,0c-0.4,0-0.9,0.1-1.1,0.4
			c-1,1.4-2.3,1.4-3.8,1.3c-2.5,0-4.9,0-7.4,0c-1.4,0-2.9,0.6-4-0.8c-1,0-2,0-3,0c-0.5,0-1.4,0-1.6-0.3c-0.6-0.8-1.7-0.4-2.2-1.2
			c-0.6-0.9-1.4-1.2-2.6-1.2c-0.8,0-1.3-0.8-1.7-1.7c-0.5-1.1-0.8-2.4-1.8-3.2c-0.6-0.5-0.9-1.1-0.7-1.9c0.1-0.9-0.6-1.2-1.1-1.7
			c-0.2-0.2-0.5-0.3-0.8-0.2c-1.3,0.4-1.9-1.1-3.1-0.9c-1.9,0.2-3.8,0.2-5.6,0c-1.2-0.2-1.6,1.1-2.7,1c-0.9-0.1-1.7,0-2.6,0
			c-0.2,0-0.4,0.4-0.7,0.5c-2.3,1.2-2.3,1.3-4.7,1.2c-1.2,0-1.5,1.3-2.7,1c-0.9-0.3-2.1-0.3-3,0c-1,0.3-1.9,1-3.1,0.8
			c-1-0.1-2,0-3,0h-3.5L162.7,210.9z"/>
	</g>
</g>
</svg>
