<svg width="141" height="141" viewBox="0 0 141 141" fill="none" xmlns="http://www.w3.org/2000/svg">
<g clip-path="url(#clip0_1289_2390)">
<g clip-path="url(#clip1_1289_2390)">
<path d="M102.495 32.5479C104.676 25.2372 112.263 25.2147 115.784 26.1172C122.599 27.7418 122.713 36.2709 121.918 40.3324C133.095 45.477 132.027 58.045 130.096 63.686C119.464 86.9719 119.305 106.783 120.555 113.778C129.551 125.691 118.851 134.536 112.377 137.47C98.4742 143.697 73.1905 134.875 62.2864 129.685C43.477 121.833 38.3203 107.234 38.0931 100.916C37.5252 97.0805 38.7746 88.6642 48.3156 85.6857C60.2419 81.9627 75.9165 55.9015 82.7315 42.7016C88.1835 32.1418 98.1789 31.5325 102.495 32.5479Z" fill="white"/>
<ellipse cx="37.3504" cy="13.7109" rx="37.3504" ry="13.7109" transform="matrix(0.93321 0.359332 -0.363576 0.931564 50.1075 88.3933)" fill="#CCCCCC"/>
<path d="M89.39 104.78C89.39 104.78 91.086 112.248 89.39 113.693C87.6941 115.138 80.7174 123.797 90.1441 128.159C99.5708 132.521 101.305 118.488 98.762 115.336C96.2168 112.183 96.3714 107.345 96.3714 107.345L89.39 104.78Z" fill="#C21146"/>
<path d="M123.388 35.2793C122.737 37.5805 123.926 39.0769 126.209 40.3475C128.683 41.724 130.634 43.7851 131.859 46.4393C132.577 47.9945 132.66 49.6487 132.874 51.2745C133.472 55.8392 133.348 60.3757 131.619 64.7263C129.749 69.4274 128.01 74.1427 126.718 79.0603C125.677 83.0297 124.62 87.025 123.514 90.985C122.817 93.4791 122.235 96.1427 122.182 98.8344C122.161 99.9379 121.671 101.025 121.538 102.136C121.076 105.964 121.607 109.785 121.733 113.608C121.742 113.912 122.052 114.225 122.261 114.503C124.59 117.566 125.791 120.792 125.215 124.823C124.556 129.432 122.596 133.201 119.161 136.147C116.535 138.399 113.327 139.745 109.816 140.204C108.631 140.359 107.432 140.658 106.355 141.013C101.952 142.463 97.5941 141.747 93.1959 141.244C90.5865 140.945 87.9723 140.585 85.4176 140.084C82.3349 139.479 79.2545 138.726 76.2526 137.726C71.6237 136.183 67.2351 134.081 62.9035 131.903C60.111 130.498 57.5159 128.691 54.9017 126.966C51.6477 124.818 48.5959 122.401 45.7581 119.736C42.0165 116.22 39.4332 112.032 37.9489 107.098C37.1592 104.472 36.2696 101.921 36.5788 99.1474C37.0807 94.6438 38.4722 90.4933 42.1473 87.5191C43.6435 86.3074 45.3799 85.3356 47.1187 84.4815C49.8589 83.1356 52.2709 81.2862 54.8208 79.6674C56.6905 78.4792 58.2199 76.7074 59.7399 75.0533C61.3764 73.2721 62.7822 71.2839 64.3736 69.4604C65.8579 67.7592 66.9045 65.7733 68.208 63.9569C70.8459 60.2816 73.2745 56.4581 75.4677 52.5145C77.2041 49.3969 79.107 46.3757 80.6912 43.1593C83.3482 37.764 86.9923 33.0158 93.1888 31.4322C95.5103 30.8393 98.1007 30.3522 100.634 30.7664C101.562 30.9193 102.194 30.7734 102.604 29.7664C104.135 25.9899 107.573 24.7123 111.143 24.1946C116.286 23.4487 121.162 26.6346 123.072 31.4416C123.533 32.5993 123.15 33.8016 123.393 35.2793H123.388ZM128.545 57.1804C128.545 55.4181 128.6 54.2251 128.536 53.0392C128.334 49.3804 127.08 46.3475 124.062 43.8816C120.879 41.284 117.278 39.5522 113.65 37.7969C111.956 36.9781 110.329 36.0558 108.503 35.4534C106.345 34.7428 104.09 35.1169 101.959 34.4393C98.8238 33.4416 95.7197 34.2628 92.8914 35.3546C88.862 36.9122 86.3144 40.2675 84.4353 44.0157C82.8273 47.2204 81.0219 50.3028 79.1784 53.3757C76.412 57.9851 73.3411 62.3874 70.2394 66.7804C66.4264 72.1827 61.9259 76.9333 56.9474 81.2721C56.7594 81.4368 56.3884 81.4533 56.4597 81.7992C56.4692 81.8439 56.9117 81.8462 57.14 81.7992C60.4535 81.1286 63.7004 81.745 66.933 82.3568C67.7917 82.5192 68.5909 83.025 69.3902 83.4227C69.6423 83.5474 69.9087 83.8415 69.8183 84.1474C69.6804 84.6133 69.3474 84.2368 69.1 84.2203C67.7893 84.1333 66.4668 83.8909 65.168 83.9756C61.1861 84.2345 57.1662 83.905 53.2509 85.1921C50.1896 86.1968 47.1591 87.225 44.7139 89.3168C41.7381 91.8627 40.5988 95.3191 40.2467 99.1356C39.9304 102.578 41.5336 105.55 42.2971 108.729C42.6753 110.3 44.0122 111.256 44.6734 112.618C45.3775 114.067 46.26 115.493 47.4755 116.406C50.3156 118.536 52.7823 121.086 55.7985 123.034C61.2765 126.573 66.8355 129.884 72.9415 132.284C75.7626 133.394 78.5695 134.663 81.5142 135.204C84.0856 135.677 86.6331 136.326 89.2544 136.627C95.1512 137.303 101.026 138.204 106.928 136.773C109.245 136.211 111.654 135.846 113.828 134.933C117.197 133.519 119.725 131.1 121.381 127.75C123.013 124.446 124.081 121.251 122.161 117.679C121.642 116.714 120.943 115.954 120.32 115.103C117.718 111.543 114.811 108.312 111.003 105.924C109.43 104.938 107.908 103.872 106.238 103.053C105.748 102.813 105.734 102.451 105.66 102.056C105.622 101.853 105.739 101.707 105.929 101.674C106.34 101.601 106.393 101.994 106.543 102.213C106.792 102.576 107.133 102.604 107.492 102.552C108.721 102.376 109.692 102.969 110.658 103.569C113.788 105.519 116.809 107.597 118.928 110.698C119.038 110.858 119.295 110.919 119.483 111.025C119.475 110.851 119.485 110.674 119.456 110.505C118.836 107.011 118.348 103.547 118.809 99.9426C119.421 95.185 120.187 90.4886 121.609 85.898C122.444 83.2015 122.958 80.3992 123.909 77.7474C125.072 74.5027 125.612 71.1192 126.473 67.811C127.427 64.138 129.316 60.5992 128.543 57.1804H128.545ZM111.495 27.0322C108.864 27.4487 106.383 28.1734 104.58 30.3005C104.409 30.5028 104.009 30.6746 104.195 31.0158C104.357 31.3122 104.728 31.2016 105.011 31.1993C107.382 31.1805 109.521 31.6934 111.692 32.8464C113.671 33.8981 115.862 34.6511 117.922 35.6252C119.273 36.2628 120.046 35.8322 119.932 34.3216C119.792 32.4864 119.15 30.7899 117.922 29.3122C116.217 27.2558 113.698 27.6581 111.493 27.0322H111.495Z" fill="black"/>
<path d="M141 121.87C140.902 125.399 140.284 128.305 138.595 130.926C138.172 131.583 137.563 132.065 136.89 132.345C136.452 132.526 135.769 132.524 135.351 132.103C134.868 131.618 134.951 130.99 135.217 130.437C136.167 128.467 136.745 126.392 137.296 124.281C138 121.585 137.135 119.105 136.538 116.604C135.738 113.263 134.128 110.258 132.189 107.404C131.633 106.585 130.677 106.244 130.22 105.387C130.06 105.086 129.525 104.844 129.716 104.538C129.949 104.161 130.524 104.272 130.888 104.418C132.539 105.084 134.026 106.037 135.244 107.326C139.233 111.547 140.672 116.733 141.005 121.872L141 121.87Z" fill="black"/>
<path d="M27.6255 99.778C27.8443 96.5522 28.1702 93.5545 29.6997 90.8439C30.2634 89.8463 31.0436 89.044 32.2591 88.884C32.9156 88.7992 33.7196 88.8204 34.0574 89.4063C34.4261 90.0486 34.4832 90.8487 34.0455 91.5945C32.3971 94.4016 31.5194 97.4157 31.6716 100.684C31.7905 103.211 31.2101 105.785 32.2901 108.251C32.5041 108.74 32.7658 109.197 32.9846 109.679C33.1416 110.03 33.565 110.425 33.0631 110.769C32.6421 111.056 32.0879 111.037 31.7216 110.682C30.3134 109.326 29.0408 107.905 28.596 105.884C28.1345 103.797 27.7278 101.712 27.6279 99.778H27.6255Z" fill="black"/>
<path d="M21.0556 92.3804C21.0937 89.4298 22.6707 87.0369 24.2835 84.8204C27.2853 80.7004 31.3624 77.9004 36.3671 76.5192C37.3352 76.251 38.1796 76.3075 39.1311 76.7545C39.947 77.1357 39.947 77.6934 39.9446 78.3216C39.9399 79.1286 39.3595 79.4181 38.6459 79.5263C34.6568 80.1381 31.1364 81.7522 28.1845 84.4722C26.1888 86.3098 24.3762 88.3286 23.1036 90.738C22.6113 91.6674 22.1117 92.6392 22.2973 93.7851C22.3448 94.0721 22.5613 94.5874 22.0475 94.6604C21.6431 94.7168 21.5694 94.2157 21.3815 93.931C21.0699 93.4557 21.0723 92.9168 21.058 92.3827L21.0556 92.3804Z" fill="black"/>
<path d="M131.58 120.755C131.645 123.293 130.657 125.43 130.103 127.649C129.782 128.94 128.324 129.875 127.691 129.547C126.83 129.105 126.588 127.378 127.068 126.169C127.66 124.667 128.505 123.307 128.709 121.595C128.978 119.345 128.862 117.286 127.717 115.315C127.387 114.745 127.266 114.112 127.941 113.778C128.64 113.432 128.614 114.223 128.845 114.562C129.442 115.442 129.996 116.352 130.598 117.23C131.371 118.357 131.671 119.597 131.58 120.755Z" fill="black"/>
<path d="M58.2485 94.3756C61.7142 94.3615 65.218 94.2603 68.5695 95.1827C71.8877 96.0956 75.1989 97.0627 78.4695 98.1803C81.431 99.1944 83.8739 101.131 86.8068 102.112C89.2021 102.912 91.3928 104.194 93.7049 105.185C95.0774 105.773 96.5117 106.453 97.8557 107.199C100.303 108.559 102.67 110.06 105.113 111.43C106.229 112.056 106.916 113.206 107.879 113.804C109.475 114.792 110.522 116.293 111.999 117.336C112.906 117.976 113.674 118.778 114.016 119.783C114.442 121.037 115.32 122.001 115.941 123.119C117.237 125.451 117.104 127.312 115.151 129.234C113.248 131.107 110.877 132.232 108.438 133.157C104.811 134.531 100.965 134.983 97.1278 135.463C94.3257 135.813 91.7258 134.818 89.0784 134.321C86.4143 133.823 83.8168 132.832 81.274 131.848C75.6342 129.667 70.099 127.251 64.9325 124.077C61.3598 121.881 57.5182 120.103 54.2761 117.401C51.0554 114.717 48.0773 111.769 45.3561 108.599C43.8599 106.858 43.1606 104.639 43.4746 102.329C43.6625 100.933 44.5925 99.6909 45.563 98.7427C46.907 97.4274 48.4365 96.1003 50.1467 95.3991C51.7285 94.7521 53.5601 94.3921 55.3631 94.378C56.3241 94.3686 57.2851 94.378 58.2485 94.378V94.3756ZM97.0065 132.517C102.163 132.67 106.83 132.025 111.283 130.039C113.467 129.065 114.927 127.216 114.414 125.279C113.914 123.392 113.105 121.406 111.614 120.204C107.418 116.827 103.265 113.366 98.5717 110.644C98.3814 110.533 98.2315 110.209 98.0055 110.364C97.9056 110.432 97.9651 110.813 98.0365 111.025C98.662 112.83 99.0022 114.717 100.151 116.354C101.488 118.26 101.873 120.35 101.086 122.693C100.187 125.376 98.1839 127.119 96.1359 128.78C95.2415 129.505 93.8928 129.914 92.7106 130.013C88.938 130.333 84.3734 126.032 84.1545 122.298C83.9595 118.957 84.8943 115.985 87.3586 113.799C89.1664 112.194 88.9832 110.446 88.7549 108.514C88.6859 107.926 88.4647 107.333 88.5218 106.761C88.655 105.399 88.0341 104.604 86.7853 104.26C83.5147 103.357 80.6032 101.609 77.3611 100.557C72.0424 98.8297 66.8759 96.6674 61.1909 96.4368C56.6405 96.2509 52.19 96.258 48.4103 99.5709C46.3028 101.418 45.6035 104.5 47.6206 106.554C51.6001 110.611 55.092 115.143 60.0182 118.279C63.6576 120.594 67.0043 123.354 70.9767 125.161C72.2802 125.754 73.4719 126.811 74.823 127.037C78.3363 127.625 81.4666 129.26 84.8182 130.274C88.9309 131.519 92.9509 132.907 97.0065 132.521V132.517ZM87.1588 121.114C86.9614 123.331 87.3776 125.088 89.8063 125.691C90.144 125.776 90.4556 125.985 90.7553 126.176C91.9257 126.917 93.0627 126.881 94.321 126.291C96.5593 125.239 97.9128 123.465 98.6121 121.225C99.0712 119.754 98.4075 118.51 97.3895 117.345C96.4975 116.329 95.6673 116.95 94.7848 117.11C94.6683 117.131 94.5565 117.185 94.4375 117.199C93.8262 117.267 93.4528 116.992 93.1412 116.465C92.751 115.804 93.1626 115.463 93.5765 115.129C94.0879 114.714 94.6492 114.378 95.3414 114.329C95.9694 114.284 96.1716 114.041 96.1977 113.314C96.2929 110.66 96.1573 108.232 92.8724 107.496C92.6559 107.446 92.4727 107.114 92.2825 107.121C91.7282 107.138 91.438 106.173 90.9599 106.623C90.6245 106.938 90.7744 107.634 90.9813 108.147C91.0693 108.366 91.1954 108.573 91.2715 108.797C92.1397 111.267 92.0779 113.479 89.7849 115.3C87.9152 116.785 87.0375 118.818 87.1588 121.117V121.114Z" fill="black"/>
</g>
<g clip-path="url(#clip2_1289_2390)">
<path d="M73.4301 50.2693C72.6338 50.4697 72.791 49.5185 72.1821 49.1006C71.1013 49.189 70.0306 48.6828 68.9365 48.2377C68.2405 47.9524 67.5747 47.6262 66.8051 47.4768C64.4261 47.0147 61.9936 46.6376 59.725 45.8189C57.2021 44.9084 54.4383 44.8643 52.066 43.4918C51.9289 43.4102 51.7381 43.4306 51.5742 43.3933C49.0145 42.7885 46.3946 42.3741 43.9186 41.5282C40.2715 40.2848 36.4403 39.7786 32.8133 38.4163C31.3879 37.8795 29.7952 37.3801 28.226 37.234C25.7767 37.0064 23.7156 35.3621 21.2161 35.4097C18.72 33.8334 15.7655 33.9217 13.0553 33.0996C10.3551 32.2842 7.55784 31.795 4.85764 30.9695C3.58616 30.5788 2.51545 30.1915 1.515 31.4145C1.35774 31.6082 0.89265 31.1054 0.661778 31.6048C0.494479 34.6555 0.166573 37.747 1.9299 40.5497C2.0972 40.8147 2.05705 41.2122 2.13735 41.5383C2.86343 44.4702 2.89689 47.5991 4.52638 50.2761C4.21186 51.9951 5.66402 53.2793 5.64729 54.9133C5.6339 56.2417 5.97519 57.4375 6.67116 58.5484C6.98902 59.058 7.21655 59.5948 7.20651 60.2335C7.17305 62.9037 8.5449 65.2512 9.01 67.8365C9.3814 69.9054 10.0707 72.0423 10.7198 74.118C11.5061 76.632 11.6299 79.4246 12.7441 81.7483C14.4907 85.3935 14.1394 89.6163 16.1905 93.1155C16.3879 93.445 16.331 93.958 16.3109 94.3827C16.2306 96.01 16.853 97.3723 17.7832 98.5205C17.7999 101.15 18.7401 103.402 19.5565 105.743C20.5335 105.658 21.0689 106.283 21.8652 106.664C38.9699 89.1747 56.1281 71.7026 72.8212 53.7039C72.336 53.1026 72.9517 52.7391 73.5205 52.3586C73.0018 51.7199 73.7815 51.0575 73.4301 50.2693ZM65.7377 55.5317C65.4767 56.0277 65.2626 56.4897 64.8042 56.9347C61.92 59.7476 59.1528 62.6863 56.3489 65.5807C54.7629 65.9035 54.2142 67.3575 53.4379 68.4786C52.0125 70.5339 49.6904 71.5633 48.1613 73.4794C47.9873 73.6968 47.4151 73.3095 47.3549 73.7987C47.1809 75.2018 45.9262 75.3309 44.9759 75.8948C44.6447 77.923 42.8746 78.5617 41.3957 79.6692C40.9909 80.9669 40.1577 82.1016 38.9063 82.8864C37.3437 83.8648 35.9217 85.0097 34.6737 86.3787C32.9438 88.2744 30.9897 89.9527 29.3803 91.9672C29.0959 92.3205 28.5237 92.4327 28.1155 92.6399C27.8144 93.282 27.5233 93.8969 27.2389 94.4948C25.4722 95.1131 24.5052 96.6724 23.1033 97.9804C22.23 96.6079 21.7682 95.0995 21.3968 93.5945C20.6473 90.571 20.1153 87.5032 19.2453 84.4933C18.6665 82.4957 17.9873 80.4879 17.7162 78.3578C17.4051 75.939 16.6924 73.5439 15.9161 71.2202C14.9792 68.4107 14.4472 65.5162 13.7446 62.6557C13.0787 59.9413 12.0582 57.2948 11.6299 54.5464C11.1949 51.7675 10.0138 49.2297 9.57881 46.4406C9.27433 44.4872 8.83266 42.4386 7.95267 40.5735C7.64484 39.9213 7.29685 39.2316 7.37047 38.5454C7.75191 38.1615 8.11996 38.1683 8.40103 38.3381C10.5224 39.6291 12.985 40.0028 15.2937 40.5056C19.1316 41.3447 22.7385 43.0433 26.6667 43.4578C26.7504 43.468 26.834 43.4986 26.9076 43.5359C29.561 44.888 32.5556 45.0341 35.3194 46.0329C37.1898 46.709 39.1807 47.0487 41.128 47.4768C41.6199 47.5855 42.0883 47.6942 42.5702 47.864C45.4979 48.8968 48.4825 49.7121 51.5708 50.0994C51.8954 50.1402 52.2032 50.3304 52.5178 50.4494C55.5894 51.5806 58.7312 52.4028 62.0036 52.644C62.2479 52.661 62.5289 52.6915 62.7263 52.824C64.0513 53.6869 65.4633 54.3154 67.0058 54.4309C67.0326 55.5656 66.0154 55.0017 65.7377 55.5317Z" fill="black"/>
<path d="M67.0058 54.4309C67.0326 55.5656 66.0154 55.0016 65.7377 55.5316C65.4767 56.0276 65.2626 56.4896 64.8042 56.9347C61.9199 59.7476 59.1528 62.6862 56.3489 65.5807C54.7629 65.9034 54.2141 67.3574 53.4379 68.4785C52.0125 70.5339 49.6904 71.5633 48.1613 73.4793C47.9873 73.6967 47.4151 73.3094 47.3549 73.7986C47.1809 75.2017 45.9262 75.3308 44.9759 75.8948C44.6446 77.9229 42.8746 78.5616 41.3957 79.6691C40.9908 80.9669 40.1577 82.1015 38.9063 82.8863C37.3437 83.8647 35.9217 85.0096 34.6736 86.3787C32.9438 88.2744 30.9897 89.9526 29.3803 91.9672C29.0959 92.3205 28.5237 92.4326 28.1155 92.6398C27.8144 93.2819 27.5233 93.8968 27.2389 94.4947C25.4722 95.113 24.5052 96.6724 23.1032 97.9803C22.2299 96.6078 21.7682 95.0995 21.3968 93.5945C20.6473 90.5709 20.1153 87.5032 19.2453 84.4932C18.6665 82.4956 17.9872 80.4878 17.7162 78.3578C17.405 75.9389 16.6923 73.5439 15.9161 71.2201C14.9792 68.4106 14.4472 65.5161 13.7445 62.6556C13.0787 59.9412 12.0582 57.2948 11.6299 54.5464C11.1949 51.7674 10.0138 49.2297 9.57879 46.4405C9.27431 44.4871 8.83264 42.4386 7.95265 40.5735C7.64482 39.9212 7.29683 39.2316 7.37044 38.5453C7.75189 38.1614 8.11994 38.1682 8.40101 38.3381C10.5224 39.629 12.985 40.0027 15.2937 40.5055C19.1316 41.3446 22.7385 43.0433 26.6667 43.4577C26.7504 43.4679 26.834 43.4985 26.9076 43.5359C29.561 44.888 32.5556 45.0341 35.3194 46.0329C37.1898 46.7089 39.1807 47.0486 41.128 47.4767C41.6199 47.5854 42.0883 47.6941 42.5701 47.864C45.4979 48.8967 48.4825 49.7121 51.5708 50.0994C51.8954 50.1401 52.2032 50.3304 52.5177 50.4493C55.5893 51.5806 58.7312 52.4027 62.0036 52.6439C62.2478 52.6609 62.5289 52.6915 62.7263 52.824C64.0513 53.6869 65.4633 54.3154 67.0058 54.4309Z" fill="white"/>
<path d="M122.9 66.2499C122.589 63.1958 121.729 60.2877 120.823 57.3865C120.645 56.8225 120.465 56.2586 120.327 55.6844C119.728 53.1297 119.354 50.49 118.467 48.044C117.955 46.6307 117.845 45.2413 117.647 43.8348C117.022 43.1044 116.406 42.4046 116.372 41.3786C116.326 39.9178 115.747 38.5657 115.466 37.1626C115.084 35.2262 113.953 33.5343 113.759 31.5945C113.562 29.5799 112.966 27.6537 112.518 25.724C112.083 23.8487 111.233 22.0312 110.624 20.1593C110.226 18.9397 110.41 17.6589 109.794 16.4937C108.556 14.1564 108.416 11.4386 107.435 8.97895C106.853 7.51134 106.391 5.85687 106.247 4.31791C106.057 2.27616 105.344 0.968218 103.229 0C98.8462 0.947835 94.938 3.77096 90.5715 5.59528C90.3474 6.0675 89.8722 6.48536 89.8287 7.19539C90.344 9.09446 90.692 11.0954 91.5185 12.9945C92.1509 14.4451 92.5557 16.069 92.8234 17.5944C93.2985 20.2884 94.6035 22.6937 95.0418 25.3707C95.4433 27.7998 96.4906 30.0453 97.1029 32.4268C97.6015 34.3734 98.0665 36.3676 98.7658 38.2871C99.6626 40.7501 100.171 43.3626 101.125 45.7984C101.995 48.0168 101.968 50.5138 103.29 52.5692C103.423 52.7764 103.531 53.0346 103.557 53.2792C103.982 56.8463 105.572 60.0805 106.378 63.5457C107.007 66.2533 108.091 68.842 108.831 71.5394C109.252 73.0784 109.998 74.7397 111.865 75.2458C112.799 74.7397 113.635 74.0534 114.582 73.8156C117.858 72.9935 120.799 71.4307 123.727 69.9257C124.015 68.5091 123.024 67.4695 122.9 66.2499ZM113.2 69.1851C111.962 67.5307 111.614 65.6044 111.159 63.7597C110.775 62.197 109.941 60.7294 110.082 59.0443C108.613 57.0128 108.904 54.278 107.432 52.2294C107.047 51.6995 106.903 50.9826 106.692 50.3338C106.027 48.2886 106.341 45.9173 104.715 44.1779C104.574 44.0284 104.581 43.6785 104.611 43.4339C104.819 41.7353 104.176 40.2167 103.474 38.7899C102.818 37.465 102.647 36.0177 102.125 34.6656C101.61 33.3373 101.382 31.8934 101.038 30.4972C100.954 30.1676 101.018 29.6377 100.83 29.529C99.2343 28.6015 99.6559 26.7976 99.0335 25.459C98.3844 24.056 97.9294 22.5986 97.9795 21.0256C98.023 19.6973 96.959 18.8174 96.6713 17.5468C96.3032 15.9297 95.5002 14.4044 95.3898 12.6786C95.3563 12.1962 95.0618 11.7171 94.831 11.2653C94.3425 10.2971 94.3023 9.31188 94.6436 8.16021C97.0795 7.51813 99.2744 6.15583 101.72 5.03813C102.845 8.55429 103.986 11.7783 104.755 15.1688C105.197 17.1086 105.97 19.0382 106.512 20.9984C107.235 23.6075 108.282 26.1011 108.911 28.751C109.332 30.5311 110.266 32.1958 110.581 34.0439C111.039 36.7243 112.153 39.2111 112.792 41.8474C113.525 44.871 114.663 47.7892 115.573 50.7686C116.359 53.3403 116.908 55.997 117.871 58.494C118.691 60.6105 119.049 62.907 120.247 64.8774C120.364 65.0711 120.297 65.3802 120.334 65.934C118.173 67.6156 115.543 68.0063 113.2 69.1851Z" fill="black"/>
<path d="M120.334 65.9339C118.173 67.6156 115.543 68.0062 113.2 69.1851C111.962 67.5306 111.614 65.6044 111.159 63.7597C110.775 62.1969 109.941 60.7293 110.082 59.0443C108.613 57.0127 108.904 54.2779 107.432 52.2294C107.047 51.6994 106.903 50.9826 106.693 50.3337C106.027 48.2886 106.341 45.9173 104.715 44.1779C104.575 44.0284 104.581 43.6785 104.611 43.4339C104.819 41.7353 104.176 40.2167 103.474 38.7898C102.818 37.4649 102.647 36.0177 102.125 34.6656C101.61 33.3372 101.382 31.8934 101.038 30.4971C100.954 30.1676 101.018 29.6376 100.83 29.5289C99.2343 28.6015 99.6559 26.7975 99.0336 25.459C98.3844 24.0559 97.9294 22.5985 97.9796 21.0256C98.0231 19.6973 96.9591 18.8174 96.6713 17.5468C96.3033 15.9297 95.5002 14.4043 95.3898 12.6785C95.3563 12.1961 95.0619 11.7171 94.831 11.2653C94.3425 10.297 94.3024 9.31184 94.6436 8.16017C97.0795 7.51808 99.2745 6.15578 101.72 5.03809C102.845 8.55425 103.986 11.7782 104.755 15.1687C105.197 17.1085 105.97 19.0382 106.512 20.9984C107.235 23.6075 108.282 26.1011 108.911 28.7509C109.332 30.5311 110.266 32.1958 110.581 34.0439C111.039 36.7243 112.153 39.2111 112.792 41.8474C113.525 44.8709 114.663 47.7892 115.573 50.7686C116.359 53.3403 116.908 55.9969 117.871 58.4939C118.691 60.6104 119.049 62.907 120.247 64.8774C120.364 65.071 120.297 65.3802 120.334 65.9339Z" fill="#C21146"/>
<path d="M100.573 73.5403C99.3113 71.203 99.4485 68.3799 98.09 66.0698C98.0097 65.9339 98.0365 65.7334 98.003 65.567C97.4877 62.9069 96.9959 60.2435 95.895 57.7465C95.7244 57.3592 95.5805 56.9481 95.4801 56.537C94.7976 53.7377 94.4696 50.8432 93.2818 48.1764C93.1112 47.7959 93.0175 47.3713 92.9338 46.9568C92.191 43.2062 90.9262 39.5983 89.7953 35.9667C89.4339 34.8082 89.6314 33.5988 89.0525 32.5049C87.771 30.0894 87.781 27.2187 86.5062 24.7863C86.3891 24.5689 86.3523 24.2971 86.3289 24.0457C86.1214 22.0073 85.3552 20.1185 84.7462 18.2058C83.8964 15.5423 83.2472 12.8347 82.4944 10.066C82.2635 9.80438 81.9891 9.47824 81.7047 9.1623C81.3634 8.77841 81.0322 8.38433 80.4968 8.27222C77.7598 8.70027 70.5292 11.6117 68.2907 13.1677C68.3844 15.0362 68.6855 16.8435 69.0268 18.6474C69.6258 21.8171 70.6296 24.8814 71.2887 28.0409C72.3092 32.9057 73.7614 37.6687 74.8221 42.5336C75.5281 45.7711 76.843 48.8932 77.4185 52.1614C77.6862 53.6901 78.6867 54.8826 78.7302 56.4589C78.7636 57.6446 78.7435 58.9117 79.7975 59.8664C80.199 60.2299 80.1489 60.9739 80.266 61.5616C80.7578 63.9669 81.1058 66.4367 81.9423 68.7196C82.8558 71.2166 83.0498 73.8461 83.8094 76.3533C84.5254 78.7143 84.7964 81.2963 86.804 82.9847C87.8479 83.0357 88.835 83.2667 89.6749 82.842C93.3922 80.9531 97.3104 79.4855 100.941 77.2909C101.068 76.0067 101.225 74.7497 100.573 73.5403ZM89.2064 77.9907C88.6209 76.4891 87.7342 75.3069 87.8346 73.7611C87.8513 73.5131 87.7978 73.238 87.6974 73.0137C86.4359 70.1261 85.7534 67.0923 85.1812 63.9974C84.9102 62.5264 84.164 61.1369 83.6655 59.6999C82.8089 57.2233 82.9093 54.4443 81.3601 52.2055C81.5977 50.2657 79.9514 48.7369 80.2091 46.7801C80.2492 46.4744 80.0384 46.1313 79.9247 45.8119C78.3922 41.528 77.5122 37.0334 76.0534 32.7495C74.7451 28.9072 74.3402 24.7863 72.4598 21.1376C71.8743 19.9996 72.2189 18.5965 71.4861 17.6317C72.0148 15.7564 73.7513 16.1878 74.8455 15.5254C75.9664 14.8425 77.2479 14.4314 78.593 13.8471C79.2789 15.3147 79.9581 16.4868 80.3028 17.951C80.905 20.4922 81.2932 23.1046 82.3672 25.5405C83.0465 27.0726 82.9193 28.8596 83.7324 30.4257C84.6927 32.2806 85.0239 34.3632 85.4857 36.4185C85.9575 38.5316 86.6601 40.6481 87.3059 42.7476C88.3231 46.0599 89.3737 49.3586 90.3407 52.6846C90.5247 53.3266 90.4277 54.0129 91.1605 54.4104C91.3947 54.5395 91.5586 54.9845 91.5821 55.3004C91.7226 57.3354 92.9104 59.1224 92.9171 61.1845C92.9205 62.1425 93.1112 63.0054 93.6666 63.8412C94.5767 65.2035 94.7139 66.8817 95.0953 68.4274C95.6173 70.5405 96.0991 72.674 96.8486 75.0215C93.8841 75.7112 91.8464 77.4947 89.2064 77.9907Z" fill="black"/>
<path d="M96.8486 75.0216C93.8841 75.7112 91.8464 77.4948 89.2064 77.9908C88.6208 76.4892 87.7342 75.3069 87.8345 73.7612C87.8513 73.5132 87.7977 73.238 87.6974 73.0138C86.4359 70.1261 85.7533 67.0924 85.1812 63.9975C84.9101 62.5265 84.164 61.137 83.6654 59.6999C82.8089 57.2233 82.9093 54.4444 81.3601 52.2056C81.5976 50.2658 79.9514 48.737 80.209 46.7802C80.2492 46.4744 80.0384 46.1313 79.9246 45.812C78.3922 41.528 77.5122 37.0334 76.0533 32.7495C74.7451 28.9072 74.3402 24.7863 72.4598 21.1377C71.8742 19.9996 72.2189 18.5965 71.4861 17.6317C72.0147 15.7564 73.7513 16.1879 74.8454 15.5254C75.9663 14.8426 77.2479 14.4315 78.5929 13.8472C79.2789 15.3148 79.9581 16.4868 80.3027 17.9511C80.905 20.4922 81.2931 23.1047 82.3672 25.5405C83.0464 27.0727 82.9193 28.8596 83.7324 30.4258C84.6927 32.2807 85.0239 34.3632 85.4857 36.4185C85.9574 38.5316 86.6601 40.6481 87.3059 42.7476C88.323 46.06 89.3737 49.3587 90.3407 52.6846C90.5247 53.3267 90.4277 54.0129 91.1604 54.4104C91.3947 54.5395 91.5586 54.9846 91.582 55.3005C91.7226 57.3355 92.9104 59.1224 92.9171 61.1846C92.9204 62.1426 93.1111 63.0055 93.6666 63.8412C94.5767 65.2035 94.7139 66.8817 95.0953 68.4275C95.6173 70.5406 96.0991 72.6741 96.8486 75.0216Z" fill="#C21146"/>
</g>
</g>
<defs>
<clipPath id="clip0_1289_2390">
<rect width="141" height="141" fill="white"/>
</clipPath>
<clipPath id="clip1_1289_2390">
<rect width="119.944" height="117.783" fill="white" transform="translate(21.0556 24.0864)"/>
</clipPath>
<clipPath id="clip2_1289_2390">
<rect width="123.256" height="106.664" fill="white" transform="translate(0.524597)"/>
</clipPath>
</defs>
</svg>
