<?xml version="1.0" encoding="utf-8"?>
<!-- Generator: $$$/GeneralStr/196=Adobe Illustrator 27.6.0, SVG Export Plug-In . SVG Version: 6.00 Build 0)  -->
<svg version="1.1" id="Calque_1" xmlns="http://www.w3.org/2000/svg" xmlns:xlink="http://www.w3.org/1999/xlink" x="0px" y="0px"
	 viewBox="0 0 168 240" style="enable-background:new 0 0 168 240;" xml:space="preserve">
<style type="text/css">
	.st0{fill:#333333;}
	.themeColor{fill:var(--voxxrin-event-theme-colors-primary-hex);}
</style>
<g>
	<path class="st0" d="M56.1,87l16-22.6c0,0,8.9-9.6,9.9-16.4c1-6.9-13.6-19.9-13.6-19.9C61,29.5,52,81.4,52,81.4h0
		C54.7,83.1,56.1,87,56.1,87z"/>
	<path class="st0" d="M90.7,70.2c-2-7-6.8-3.2-6.8-3.2L57,91.2h0l0.9,5.8l27.1-0.5c0,0,5.8-0.7,7.3-3.5
		C93.8,90.1,92.7,77.2,90.7,70.2z"/>
	<path class="st0" d="M58.6,103c-1.6,7.3-3.6,8.8-3.6,8.8s13.8,33.8,18.7,39.6c4.9,5.8,6.9,0,6.9,0s3.3-6.6,6.1-13.3
		s3.3-15.7,3.3-15.7L58.6,103L58.6,103z"/>
	<path class="st0" d="M48.1,116.2L48.1,116.2L43,172.1c11.1,7.5,21-1.8,21-1.8L51.9,115L48.1,116.2z"/>
	<path class="st0" d="M44.1,83c0.5-1.3,3.9-1.9,3.9-1.9l-4.1-56.9C33.9,21.7,24,40.2,24,40.2h0C24.3,47.2,44.1,83,44.1,83z"/>
	<polygon class="st0" points="41.4,109 41.4,109 41.4,109 	"/>
	<path class="st0" d="M41.4,109l-11.9,14.1c0,0-11.2,11.1-11.5,19c-0.3,7.9,9.9,21.3,12.4,20.9c2.5-0.3,5.9-16.7,6.6-20.9
		c0.7-4.3,7-27.6,7-27.6L41.4,109z"/>
	<path class="st0" d="M38.9,98.2c0,0-14.3-0.5-22.6,0.3c-8.3,0.9-5.9,9.3-5.9,9.3l0,0c1.4,17.4,3.9,18.2,3.9,18.2
		c4.9-1.1,25.8-21.5,25.8-21.5L38.9,98.2z"/>
	<path class="st0" d="M14.3,83.4L39.6,93l2.4-6.4c0,0-16.8-21.2-21-25.8s-5.9,1.3-5.9,1.3s-1.4,7.7-2.8,13.1
		C11,80.6,14.3,83.4,14.3,83.4z"/>
</g>
<g>
	<polygon class="themeColor" points="129,188.2 129,188.2 129,188.2 	"/>
	<g>
		<path class="themeColor" d="M116.8,159l-7.8,4.4v0c2.8,12.1,13.9,18.6,13.9,18.6l7.1-7C125.8,171.9,116.8,159,116.8,159z"/>
		<path class="themeColor" d="M137.9,184.2c-3.7-1.1-8.9,4.1-8.9,4.1c5,4.2,13,15.8,13,15.8l9-3.8C146.5,190.4,137.9,184.2,137.9,184.2z"/>
		<path class="themeColor" d="M154.3,211l-7.3,1.1l4.3,19.9c3.7-1.7,8.7-1.6,8.7-1.6L154.3,211z"/>
		<path class="themeColor" d="M109.3,131l-6.8,1.3L101,139l4.4,17l7.6-5.1C111.5,146.6,109.3,131,109.3,131z"/>
		<polygon class="themeColor" points="110,99 107.4,99.4 105,120 109.5,120 		"/>
	</g>
</g>
<g>
	<path d="M132,176.3c-0.2-0.4-0.4-0.8-0.7-1.3c-0.1-0.1-0.2-0.2-0.3-0.3c-0.9-0.9-1.8-1.8-2.8-2.5c-0.7-0.6-1.4-1.3-2-1.9
		c-0.7-0.7-1.3-1.4-2-2.1c-0.6-0.6-1.1-1.3-1.7-1.9c-0.4-0.5-0.9-1-1.3-1.6c-0.6-0.8-1-1.7-1.6-2.5c-0.2-0.3-0.5-0.6-0.5-1
		c0-0.2-0.2-0.5-0.4-0.7c-0.2-0.2-0.3-0.4-0.2-0.7c0-0.1-0.1-0.3-0.1-0.3c-0.4-0.2-0.6-0.6-0.8-0.9c-0.3-0.3-0.7-0.4-1.1-0.4
		c-0.3,0-0.6,0.1-0.9,0.2c-0.7,0.3-1.4,0.5-2,0.9c-0.6,0.3-1.1,0.7-1.7,0.9c-1.4,0.6-2.7,1.5-4,2.3c-0.5,0.4-0.8,0.9-0.8,1.6
		c0.1,0.9,0.3,1.9,0.8,2.7c0.4,0.6,0.8,1.3,1.1,2c0.7,1.3,1.4,2.6,2.3,3.8c0.3,0.4,0.6,0.7,0.8,1c0.5,0.6,1.1,1.3,1.6,2
		c0.3,0.4,0.6,0.8,0.9,1.1c0.4,0.5,0.9,1,1.3,1.4c0.7,0.7,1.4,1.5,2.1,2.2c0.3,0.3,0.8,0.6,1.1,0.9c0.6,0.6,1.3,1,1.9,1.5
		c0.4,0.3,0.9,0.6,1.4,0.5h0c0.7,0.1,1.3-0.1,1.9-0.5c0.2-0.1,0.4-0.2,0.5-0.3c0.7-0.7,1.5-1.2,1.9-2.2c0.1-0.3,0.4-0.5,0.6-0.7
		c1.1-0.8,2.2-1.6,3.5-2.1C131.3,176.9,131.8,176.7,132,176.3z M128.6,175.9c-0.2,0.2-0.5,0.4-0.7,0.4c-0.5,0.1-0.9,0.4-1.2,0.8
		c-0.7,0.7-1.3,1.3-2,2c-0.2,0.2-0.4,0.3-0.5,0.5c-0.3,0.6-1,0.8-1.4,1.3c0,0-0.2,0-0.2,0.1c-0.1,0-0.2-0.1-0.3-0.1
		c-0.2-0.2-0.4-0.3-0.6-0.5c-1-0.8-2-1.7-2.9-2.5c-0.2-0.2-0.5-0.4-0.8-0.6c-0.1-0.1-0.2-0.1-0.3-0.2c-0.5-0.8-1.3-1.3-1.9-2
		c-0.1-0.1-0.2-0.2-0.2-0.3c-0.2-0.5-0.6-1-1-1.4c-0.9-1-1.4-2.2-2.1-3.2c-0.9-1.3-1.6-2.7-2.4-4.1c-0.1-0.1-0.2-0.3-0.2-0.4
		c-0.4-0.9-0.3-1.1,0.5-1.5c0.2-0.1,0.4-0.2,0.6-0.4c1-0.7,2-1.3,3.1-1.9c0.6-0.3,1.1-0.6,1.7-0.9c0.3-0.2,0.5-0.1,0.7,0.2
		c0.6,0.9,1.2,1.8,1.7,2.8c0.5,1,1.2,1.8,1.9,2.7c0.4,0.6,1,1.2,1.5,1.7c0.6,0.7,1.1,1.4,1.7,2.1c0.1,0.2,0.3,0.3,0.4,0.4
		c0.7,0.3,1,0.9,1.5,1.4c0.5,0.5,1,1,1.6,1.5c0.7,0.5,1.4,1.1,2.1,1.7C128.9,175.6,128.8,175.7,128.6,175.9z"/>
	<path d="M149,201.9c0.5-0.1,1-0.2,1.6,0c0.2,0.1,0.4,0,0.6-0.1c0.2-0.2,0.4-0.4,0.6-0.6c0.3-0.4,0.4-0.9,0.1-1.4
		c-0.3-0.4-0.4-0.9-0.6-1.3c-0.1-0.2-0.1-0.4-0.3-0.5c-0.6-0.7-0.9-1.6-1.6-2.2c-0.1-0.1-0.1-0.2-0.2-0.3c-0.5-0.9-1-1.7-1.6-2.5
		c-0.2-0.3-0.4-0.6-0.5-1c-0.1-0.2-0.2-0.5-0.4-0.6c-0.2-0.1-0.4-0.3-0.5-0.5c-0.5-0.8-0.9-1.5-1.4-2.3c-0.1-0.1-0.1-0.2-0.2-0.3
		c-0.6-0.2-0.7-0.7-1-1.2c-0.1-0.2-0.4-0.4-0.6-0.6c-0.1-0.1-0.3-0.2-0.4-0.3c-0.4-0.6-0.9-1-1.4-1.5c-0.7-0.7-1.6-1.3-2.4-1.9
		c-0.4-0.3-0.8-0.4-1.2-0.6c-0.4-0.2-0.8-0.2-1.1,0.1c-0.1,0.1-0.3,0.2-0.4,0.2c-0.6,0.1-1.1,0.2-1.7,0.3c-0.4,0.1-0.8,0.2-1.1,0.4
		c-0.7,0.3-1.4,0.7-2,1.1c-0.3,0.2-0.6,0.3-0.8,0.5c-0.7,0.6-1.3,1.3-2,2c-0.5,0.5-0.5,1.1-0.2,1.7c0.1,0.1,0.1,0.2,0.2,0.3
		c0.3,0.5,0.6,0.9,1,1.3c0.6,0.5,1.1,1.1,1.6,1.7c0.7,0.9,1.4,1.8,2.2,2.6c0.7,0.8,1.3,1.6,2,2.4c0.6,0.7,1.1,1.5,1.8,2.2
		c0.9,0.9,1.6,2,2.3,3c0.6,0.8,1.1,1.6,1.6,2.5c0.3,0.5,0.7,0.7,1.1,0.7v0c0.6,0,0.6,0,1.2-0.4c1-0.5,2-1.3,3.1-1.7
		C147.1,202.5,148,202.1,149,201.9z M144,201c-0.4,0.2-0.8,0.5-1.1,0.8c-0.4,0.3-0.6,0.2-0.9-0.3c0-0.1,0-0.2-0.1-0.2
		c-0.7-0.8-1.3-1.6-1.8-2.6c-0.1-0.2-0.4-0.4-0.6-0.7c-0.9-1-1.8-1.9-2.6-2.9c-1.2-1.5-2.5-3-3.8-4.3c-0.5-0.5-1-1-1.6-1.4
		c-0.5-0.3-0.9-0.8-1.3-1.3c-0.2-0.2-0.1-0.3,0.1-0.5c0.8-0.8,1.8-1.3,2.8-1.8c0.5-0.2,0.9-0.6,1.4-0.8c0.6-0.3,1.3-0.5,1.9-0.7
		c0.2,0.1,0.4,0.1,0.6,0.2c0.6,0.3,1.2,0.7,1.8,1.1c0.5,0.4,0.9,0.9,1.4,1.2c0,0,0.1,0.1,0.1,0.1c0.8,1.1,1.8,2.1,2.6,3.3
		c1.2,1.9,2.5,3.7,3.7,5.5c0.5,0.8,1.1,1.5,1.7,2.3c0.1,0.1,0.2,0.3,0.3,0.4c0.4,0.8,0.7,0.9-0.5,1.2c-0.9,0.2-1.7,0.5-2.5,0.9
		C145,200.7,144.5,200.8,144,201z"/>
	<path d="M160.3,227.6c-0.3-1.1-0.6-2.3-1.1-3.4c-0.1-0.1-0.2-0.3-0.1-0.5c0-0.5-0.2-1-0.3-1.4c-0.3-1.1-0.6-2.3-0.9-3.4
		c-0.3-0.9-0.2-1.9-0.7-2.8c-0.1-0.2,0-0.4-0.1-0.6c0-0.2,0-0.4-0.1-0.6c-0.5-1.4-0.7-2.8-1.1-4.2c-0.1-0.3-0.1-0.6-0.3-0.8
		c-0.2-0.4-0.6-0.7-1.1-0.7c-0.7-0.1-1.5,0-2.2,0.1c-1,0.2-2.1,0.4-3.1,0.7c-0.4,0.1-0.8,0.2-1.2,0.2c-0.7,0.1-1.4,0.3-2.1,0.5
		c-0.4,0.1-0.8,0.8-0.8,1.1c0,0.3,0,0.6,0.2,0.8c0.4,0.5,0.4,1.2,0.7,1.8c0.4,0.9,0.8,1.8,0.8,2.8c0,0,0,0.1,0,0.1
		c0.5,1.3,0.8,2.7,1.1,4c0.3,1.2,0.7,2.4,0.9,3.7c0.1,0.5,0.2,1,0.3,1.5c0.1,0.5-0.1,1,0.3,1.5c0.1,0.2,0,0.5,0.1,0.7
		c0,0.3,0,0.6,0.1,0.8c0.2,0.4,0.2,0.8,0.2,1.2c0,0.5,0.2,0.9,0.4,1.3c0.3,0.5,0.7,0.9,1.4,0.9c0.9,0,1.7,0,2.5-0.5
		c1.1-0.5,2.2-0.8,3.5-0.8c0.9,0,1.7-0.1,2.5,0.2l0,0c0.9,0,1.4-0.5,1.2-1.3C160.7,229.6,160.6,228.6,160.3,227.6z M158.2,229.3
		c-0.2,0-0.3,0-0.5,0c-1-0.1-2.1,0.1-3.1,0.3c-0.8,0.1-1.5,0.5-2.2,0.8c-0.5,0.2-0.6,0.2-0.6-0.4c0-0.1,0-0.2,0-0.2
		c0-1.1-0.2-2.1-0.4-3.1c0-0.2-0.1-0.3-0.1-0.5c0.1-0.7-0.1-1.3-0.3-1.9c-0.5-1.5-0.7-3-1.1-4.5c-0.4-1.2-0.6-2.5-1.2-3.7
		c-0.3-0.7-0.5-1.5-0.9-2.2c-0.3-0.6-0.1-0.7,0.4-0.8c1.2-0.2,2.3-0.5,3.5-0.8c0.5-0.1,0.9-0.3,1.4-0.4c0.2-0.1,0.4,0,0.4,0.2
		c0,0.3,0.3,0.6,0.2,0.9c0,0.1,0,0.2,0,0.2c0.3,0.3,0.2,0.7,0.4,1c0.4,0.9,0.4,1.9,0.6,2.9c-0.2,0.4,0.2,0.6,0.3,0.8
		c0.2,0.5,0.2,1,0.3,1.5c0.2,0.9,0.3,1.8,0.7,2.7c0.1,0.1,0.1,0.2,0.2,0.3c0.1,1.2,0.7,2.2,1,3.2c0.3,1.1,0.7,2.1,1,3.1
		c0.1,0.2,0.1,0.3,0.1,0.5h0C158.3,229.2,158.3,229.2,158.2,229.3z"/>
	<path d="M167.9,234.1c-0.2-0.8-0.4-1.6-0.6-2.5c-0.1-0.6-0.3-1.1-0.3-1.7c0-0.9-0.3-1.8-0.5-2.6c-0.3-0.9-0.6-1.8-0.8-2.8
		c-0.5-2-1-4.1-1.7-6.1c-0.3-0.7-0.5-1.5-0.7-2.2c-0.2-0.7-0.3-1.4-0.6-2c-0.4-0.9-0.8-1.9-1.1-2.8c-0.2-0.6-0.4-1.1-0.6-1.7
		c-0.3-1-1-2-1.2-3.1c-0.7-1.3-0.9-2.7-1.8-3.9c-0.1-0.1-0.1-0.2-0.1-0.3c-0.2-0.5-0.3-1.1-0.7-1.5c-0.3-0.9-0.7-1.8-1.2-2.6
		c-0.7-1.2-1.3-2.5-2-3.8c-0.2-0.5-0.5-0.9-0.8-1.4c-0.7-1.1-1.4-2.2-1.9-3.4c-0.1-0.1-0.1-0.3-0.2-0.4c-0.9-0.9-1.4-2-2.1-2.9
		c-0.6-0.8-1.1-1.6-1.6-2.4c-0.4-0.6-0.9-1.1-1.4-1.7c-0.8-0.4-1.4-1.1-1.9-1.8c-0.1-0.1-0.2-0.2-0.3-0.3c-1.5-1.5-2.9-3.1-4.6-4.4
		c-0.8-0.6-1.5-1.4-2.2-2.1c-0.2-0.2-0.4-0.4-0.6-0.6c-0.4-0.3-0.8-0.6-1.1-0.9c-1.5-1.4-2.9-2.9-4.3-4.3c-0.7-0.7-1.4-1.5-1.9-2.4
		c-0.4-0.6-0.8-1.2-1.3-1.8c-0.2-0.3-0.6-0.5-0.7-0.9c-0.2-0.6-0.7-1.1-1-1.7c-0.3-0.5-0.6-0.9-0.8-1.4c-0.7-1.5-1.5-3-2.2-4.5
		c-0.6-1.4-1.2-2.7-1.7-4.2c-0.4-1.4-0.8-2.7-1.3-4c-0.2-0.5-0.3-1-0.4-1.5c-0.1-0.8-0.5-1.6-0.5-2.5c-0.5-0.6-0.4-1.4-0.6-2.1
		c-0.2-0.5-0.2-1.1,0.1-1.6c0.3-0.7,0.6-1.4,1-2.1c0.2-0.3,0.3-0.7,0.4-1c0.2-0.5,0.1-1,0.2-1.4c0.3-1,0.4-2.1,0.5-3.1
		c0-0.4,0-0.9,0.2-1.3c0,0,0-0.2,0-0.2c-0.4-0.3-0.1-0.5,0-0.7c0.1-0.2,0.3-0.4,0.3-0.5c-0.1-0.5,0.2-0.9,0.3-1.3
		c0-0.2,0.2-0.4,0.1-0.6c-0.1-0.5,0-0.9,0.1-1.4c0.2-0.6,0.3-1.2,0.4-1.8c0-0.9,0.4-1.7,0.3-2.7c0-0.1,0-0.2,0.1-0.4
		c0.2-0.4,0.1-0.9,0.2-1.3c0-0.4,0.2-0.9,0.2-1.3c0-0.1,0-0.2,0-0.2c-0.2-0.8,0.1-1.5,0-2.3c0.2-0.4,0.1-0.8,0.1-1.2
		c0-0.4,0.1-0.9-0.1-1.3c-0.1-0.1,0-0.3,0-0.5c0.2-0.6,0.2-1.3,0.1-1.9c0-0.1-0.1-0.2,0-0.3c0.2-0.6,0.1-1.2,0.1-1.8
		c0-0.5,0.1-1.1,0-1.6c-0.1-0.6,0.1-1,0.1-1.5c0,0,0-0.1,0-0.1c0.1-0.4-0.1-0.9,0.1-1.3c0.1-0.3,0.1-0.7,0-0.9
		c-0.2-0.4-0.1-0.8,0-1.2c0.3-0.9,0.4-1.7,0.3-2.6c0-0.5,0-1,0-1.5c0-0.4,0.1-0.9-0.1-1.3c-0.2-0.5,0.2-0.9,0.1-1.4
		c0-0.1,0-0.2,0-0.2c-0.1-0.4,0.2-0.9,0.1-1.3c-0.1-0.5-0.3-1-0.2-1.4c0.1-0.7-0.1-1.4,0-2.2c0-0.2,0-0.4,0-0.6
		c-0.3-0.6-0.2-1.2-0.2-1.8c0-0.5,0.1-1.1-0.1-1.6c-0.2-0.6-0.2-1.3-0.2-1.9c0-0.3,0-0.6-0.1-0.8c-0.2-0.6-0.2-1.1-0.2-1.7
		c0-0.8,0.1-1.7-0.2-2.5c0-0.1,0-0.2,0-0.4c0.1-1.1-0.4-2.2-0.4-3.3c0-0.3-0.3-0.7-0.2-1c0.1-0.4-0.1-0.7-0.1-1.1
		c0-0.6-0.1-1.2-0.1-1.8c0-0.6-0.1-1.2-0.3-1.8c-0.2-0.6-0.2-1.3-0.3-1.9c-0.2-0.8-0.4-1.6-0.4-2.5c0-0.2,0-0.3-0.1-0.5
		c-0.3-1-0.4-2.1-0.6-3.1c-0.1-0.4-0.2-0.8-0.2-1.2c0-0.6-0.1-1.2-0.3-1.8c-0.2-0.6-0.2-1.1-0.2-1.7c0-0.5,0-1-0.2-1.6
		c-0.2-0.5-0.2-1.1-0.3-1.7c-0.1-0.7-0.2-1.4-0.5-2.1c-0.1-0.3-0.2-0.6-0.2-0.9c0-0.3,0-0.6,0-0.9c-0.1-1.2-0.3-2.3-0.8-3.4
		c-0.5-1-0.7-2-0.9-3c0-0.2-0.1-0.4-0.2-0.6c-0.3-0.4-0.4-0.8-0.5-1.2c-0.5-1.3-0.8-2.7-1.4-4c-0.9-1.9-1.6-4-2.4-6
		c-0.4-0.9-0.8-1.8-1.3-2.7c-0.8-1.4-1.5-2.8-2.1-4.3c-0.4-1-0.9-1.9-1.4-2.8c-0.4-0.8-0.8-1.5-1.3-2.2c-0.5-0.8-0.9-1.6-1.4-2.4
		c-0.6-1-1.2-2-1.8-3c-0.6-1-1.1-2-2-2.7c-0.4-0.4-0.8-0.8-1.1-1.3c-0.3-0.4-0.7-0.7-1.1-1.1c-0.6-0.5-1.3-1-1.9-1.5
		c-0.3-0.3-0.7-0.6-1.1-0.8c-0.9-0.5-1.7-1.1-2.5-1.7c-0.4-0.3-0.9-0.5-1.4-0.7c-0.9-0.4-1.9-0.5-2.7-1c-0.2-0.1-0.5-0.2-0.8-0.3
		c-0.5-0.1-1-0.1-1.4-0.3c-0.7-0.3-1.5,0-2.2-0.2c-0.6,0.3-1.2,0.1-1.8,0.2c-0.4,0-0.7,0.1-1.1,0.1c-0.2,0-0.5,0.1-0.7,0.1
		c-0.5,0-0.9,0.1-1.3,0.3C78.8,3.9,78.4,4,78,4.2c-1.5,0.7-2.9,1.4-4.2,2.4c-0.2,0.2-0.4,0.5-0.7,0.4c-0.3-0.1-0.4-0.3-0.7-0.5
		c-0.2-0.2-0.5-0.3-0.7-0.5c-1.4-1.1-2.9-2-4.4-2.8c-1.1-0.6-2.4-1.1-3.5-1.6c-0.4-0.2-0.8-0.3-1.2-0.4c-1-0.3-2-0.4-2.9-0.8
		c-0.9-0.3-1.8-0.5-2.7-0.4c-0.4,0-0.7,0-1.1,0.2c-0.1,0.1-0.2,0.1-0.4,0.1c-0.8-0.1-1.5,0-2.3,0.2c-0.5,0.2-1.1,0.2-1.7,0.3
		c-0.8,0-1.5,0.2-2.2,0.5c-0.5,0.2-1,0.2-1.5,0.5c-1,0-1.8,0.5-2.7,0.7c-0.3,0.1-0.6,0.1-0.9,0.2c-1.5,0.7-3.1,1.2-4.5,2.1
		c-0.4,0.3-1,0.4-1.3,0.9c-0.6,0.1-0.9,0.6-1.4,1c-0.2,0.1-0.3,0.2-0.5,0.3c-0.7,0.3-1.3,0.7-1.8,1.2c-0.3,0.4-0.7,0.7-1.1,1
		c-0.4,0.3-0.9,0.5-1.1,1.1c-0.2,0.4-0.6,0.7-1,0.9c-0.5,0.3-0.8,0.6-1.1,1.1c-0.1,0.2-0.3,0.3-0.4,0.4c-0.6,0.2-1,0.7-1.4,1.2
		c-0.4,0.4-0.8,0.9-1.2,1.4c-0.2,0.2-0.4,0.4-0.6,0.6c-0.8,1.2-2,2-2.8,3.2c-0.6,0.9-1.4,1.6-2.1,2.4c-0.4,0.5-0.8,1-1.2,1.5
		c-0.6,0.8-1,1.8-1.8,2.4c-0.1,0.1-0.2,0.3-0.3,0.4c-1.3,2-2.8,4-4,6.1c-0.3,0.6-0.8,1.2-1.1,1.7c-0.3,0.6-0.6,1.2-0.9,1.7
		c-0.4,0.6-0.6,1.2-0.8,1.9c0,0.1-0.1,0.2-0.1,0.2c-0.2,0.4-0.4,0.9-0.5,1.4c-0.1,0.4-0.3,0.8-0.5,1.2c-0.4,0.8-0.9,1.6-1.1,2.4
		c-0.3,0.9-0.6,1.9-1,2.7c-1.1,2.5-1.7,5.1-2.5,7.7c-0.1,0.2-0.1,0.4-0.2,0.6c-0.3,0.5-0.4,1.1-0.5,1.6c-0.2,1-0.4,2-0.8,3
		c-0.4,1.2-0.5,2.4-1,3.5c0,0.1,0,0.2-0.1,0.2c-0.2,1.4-0.6,2.8-0.8,4.3c0,0.3-0.1,0.6,0,0.9c0,0.4-0.2,0.9-0.3,1.3
		c-0.2,0.9-0.5,1.9-0.6,2.8c0,0.7-0.4,1.4-0.1,2.1c0,0.1,0,0.2-0.1,0.3c-0.2,0.8-0.5,1.6-0.4,2.4c0,0.2,0,0.3-0.1,0.5
		c-0.2,0.4-0.2,0.8-0.2,1.2c0,0.2,0,0.5-0.1,0.7C1,78.8,1,79.2,1,79.6c0,0.2-0.1,0.5-0.1,0.7c0,0.4-0.1,0.7-0.2,1.1
		c0,0.3,0,0.6-0.1,0.8c-0.1,0.3-0.1,0.5-0.1,0.8c0,0.6,0,1.3-0.1,1.9c-0.2,0.7-0.2,1.4-0.2,2c0,1.3,0,2.7,0,4c0,0.3,0,0.7-0.1,1
		c-0.2,0.7-0.2,1.4-0.1,2c0.1,0.5,0,1,0,1.5c0,0.5-0.1,1.1-0.1,1.6c0,0.6,0.1,1.2,0,1.9c0,0.5,0.1,1.1,0,1.6c0.3,0.6,0.1,1.1,0,1.6
		c0,0,0,0.1,0,0.1c0.2,0.4-0.2,0.9-0.1,1.3c0.1,0.5,0.2,1,0.2,1.4c0,0.1,0,0.2,0,0.4c0,1,0,2,0,3.1l0,0c0,0,0,0,0,0
		c0,1.1,0,2.3,0,3.4c0,0.2,0,0.4,0,0.6c0.3,0.5,0.1,1.1,0.2,1.7c0.1,0.6,0.2,1.1,0.2,1.7c0,0.8,0.2,1.6,0.4,2.4
		c0.3,1.8,0.8,3.6,0.9,5.5c0,0.2,0.1,0.3,0.1,0.5c0.1,0.3,0.1,0.6,0.1,1c-0.1,0.9,0.3,1.8,0.3,2.7c0,0.3,0.2,0.6,0.3,0.9
		c0.1,0.2,0.2,0.5,0.2,0.7c0,0.9,0.4,1.7,0.3,2.7c0,0.1,0.1,0.2,0.1,0.4c0.2,1.4,0.9,2.7,1,4.1c0.4,1.1,0.5,2.3,1,3.4
		c0.1,0.1,0.1,0.3,0.1,0.5c0.1,0.8,0.4,1.6,0.7,2.3c0.1,0.1,0.1,0.2,0.1,0.3c-0.1,0.8,0.3,1.6,0.6,2.3c0.1,0.2,0.1,0.5,0.2,0.7
		c0.3,0.8,0.3,1.7,0.9,2.5c0.1,0.2,0.1,0.4,0.1,0.6c0,0.4,0.1,0.8,0.3,1.2c0.4,0.6,0.5,1.4,1,2c0.1,0.2,0.2,0.4,0.2,0.6
		c0,0.2,0.1,0.5,0.3,0.7c0.5,0.8,0.6,1.8,1.2,2.6c0,0.1,0,0.2,0,0.2c0,0.2,0.1,0.3,0.1,0.5c0.6,1,0.8,2.1,1.5,3
		c0,0.5,0.4,0.8,0.5,1.2c0.1,0.3,0.2,0.7,0.4,1c0.6,1.2,1.2,2.5,1.7,3.7c0.2,0.5,0.7,0.8,0.7,1.4c0.6,0.7,1,1.5,1.5,2.2
		c0.5,0.8,0.9,1.7,1.5,2.5c0.4,0.6,0.9,1.2,1.2,1.8c0.2,0.4,0.3,0.8,0.7,0.9c0.1,0,0.1,0.1,0.1,0.2c0.4,0.8,1,1.4,1.4,2.2
		c0.1,0.2,0.3,0.4,0.4,0.6c0.6,0.8,1.2,1.5,1.7,2.3c0.4,0.6,0.8,1.1,1.4,1.5c0.3,0.2,0.5,0.4,0.7,0.6c0.6,0.9,1.4,1.7,2.3,2.2
		c0.1,0.1,0.3,0.2,0.4,0.3c0.6,0.8,1.2,1.5,1.9,2c0.2,0.5,0.8,0.5,1,0.8c0.2,0.4,0.6,0.5,0.9,0.7c0.5,0.3,0.9,0.6,1.4,1
		c0.2,0.1,0.3,0.2,0.5,0.3c0.9,0.3,1.8,0.6,2.5,1.2c0.5,0.1,0.9,0.3,1.2,0.7c0.5,0,0.9,0.3,1.3,0.5c0.8,0.4,1.6,0.8,2.5,1
		c0.3,0.1,0.6,0.2,0.9,0.3c0.3,0.1,0.6,0.2,0.9,0.2c0.2,0,0.3,0,0.5,0.1c0.5,0.3,1,0.4,1.5,0.4c0.5,0,1,0.2,1.4,0.3
		c0.5,0.1,1,0.3,1.5,0.3c0.6,0,1.1,0.1,1.7,0.1c0.7,0,1.4-0.1,2.1,0.2c0.2,0.1,0.4,0,0.6,0c0.8,0,1.6,0,2.5,0c0.3,0,0.6,0,0.8-0.1
		c0.4-0.2,0.8-0.1,1.2-0.2c0.5-0.1,0.9,0,1.3,0c0.2,0,0.4,0,0.6,0c0.5-0.2,1-0.2,1.6-0.2c0.2,0,0.4,0,0.6-0.1
		c1.1-0.4,2.2-0.8,3.3-1.2c1.2-0.4,2.4-0.9,3.7-1.3c0.4-0.1,0.7-0.1,1,0.1c0.7,0.5,1.5,1,2.4,1.1c0.9,0.2,1.8,0.4,2.8,0.4
		c0.4,0,0.8,0,1.2,0c1.1,0,2.1-0.1,3.1-0.4c0.7-0.2,1.4-0.4,2-0.7c0.8-0.4,1.6-0.7,2.5-0.9c1.2-0.2,2.2-1,3.2-1.6
		c0.8-0.5,1.7-1,2.3-1.8c0.7-0.8,1.4-1.5,2.3-2.1c0.4-0.2,0.6-0.6,0.9-1c0.2-0.3,0.4-0.6,0.7-0.8c1-0.7,1.9-1.7,2.7-2.6
		c0.5-0.6,1-1.1,1.5-1.6c0.4-0.4,0.9-0.9,1.2-1.4c0.2-0.4,0.6-0.8,0.9-1.2c1-1.1,1.9-2.4,2.8-3.6c0.3-0.4,0.6-0.8,1-1.3
		c0,0,0.3,0,0.3,0.1c0.4,0.9,1,1.7,1.5,2.5c0.3,0.6,0.7,1.1,1,1.7c0.1,0.3,0.3,0.5,0.5,0.8c0.5,0.6,1.1,1.1,1.6,1.8
		c0.6,0.8,1.2,1.6,2,2.3c0.3,0.3,0.6,0.5,0.9,0.8c0.2,0.3,0.5,0.6,1,0.7c0.7,0.6,1.7,0.7,2.2,1.5c0.5,0.3,0.9,0.6,1.2,1.1
		c0,0.1,0.1,0.1,0.2,0.1c0.3,0,0.4,0.2,0.6,0.4c0.3,0.4,0.7,0.7,1.1,0.8c0.2,0.1,0.4,0.2,0.6,0.4c0.4,0.4,0.8,0.8,1.2,1.2
		c0.3,0.3,0.7,0.5,1,0.8c0.7-0.1,1.1,0.5,1.6,0.8c0.4,0.2,0.6,0.6,0.9,0.9c0.6,0.6,0.9,1.6,1.9,1.8c0.2,0,0.4,0.3,0.5,0.5
		c0.2,0.2,0.3,0.4,0.6,0.6c0.3,0.2,0.6,0.6,0.8,0.9c0.6,0.7,1.1,1.5,1.7,2.2c0.2,0.2,0.5,0.3,0.6,0.6c0.2,0.2,0.2,0.6,0.3,0.8
		c0.1,0.2,0.3,0.3,0.4,0.5c0.6,0.6,1.1,1.2,1.6,1.8c0.4,0.7,1,1.2,1.5,1.8c0.5,0.7,1,1.4,1.5,2.1c0.8,1.1,1.4,2.2,2.3,3.1
		c0.1,0.1,0.2,0.2,0.1,0.3c-0.1,0.5,0.3,0.8,0.5,1.2c0.2,0.5,0.6,1,0.8,1.5c0.5,1,1,2,1.5,2.9c0.2,0.4,0.4,0.8,0.5,1.2
		c0.4,1,0.8,1.9,1.1,2.9c0.2,0.8,0.5,1.5,0.6,2.3c0,0.4,0.1,0.9,0.3,1.2c0.4,0.5,0.4,1.1,0.4,1.7c0,0.3,0.2,0.6,0.3,0.9
		c0.1,0.2,0.2,0.5,0.2,0.7c0,1.2,0.5,2.4,0.6,3.6c0.1,1,0.4,1.9,0.4,2.9c0,0.1,0,0.3,0,0.4c0.3,0.6,0.2,1.3,0.2,1.9
		c0,0.4-0.1,0.9,0.3,1.3c0,0,0.1,0.2,0.1,0.2c-0.3,0.9,0,1.7,0.1,2.5c0.1,0.9,0.5,1.5,1.4,1.7c0.2,0,0.4,0.1,0.6,0.2
		c0.5,0.3,1.1,0.3,1.7,0.1c0.7-0.2,1.3-0.3,2-0.4c0.6-0.1,1.3-0.1,1.8-0.6c0.8-0.3,1.5-0.8,2.4-0.8c0.6-0.1,1.1-0.1,1.7-0.3
		c1-0.3,2-0.4,2.9-0.7c0.7-0.2,1.3-0.2,2-0.4c0.4-0.1,0.7-0.2,1.1-0.2c0.6,0,1.2-0.1,1.7,0c0.6,0.2,1.2,0.1,1.8,0.1
		c0.3,0,0.5-0.1,0.8-0.3c0.1-0.1,0.3-0.3,0.4-0.4C168,235.3,168.1,234.7,167.9,234.1z M75.1,7.8c1.4-0.9,2.9-1.5,4.4-2.1
		c0.3-0.1,0.6-0.2,0.9-0.4c0.2-0.1,0.3-0.1,0.5-0.1c1.2,0,2.3-0.4,3.3-0.3l0,0c0.2,0,0.3,0,0.3,0C85.8,4.8,87,5,88.2,5.5
		c0.5,0.2,1.1,0.1,1.5,0.6c0.5,0,0.9,0.3,1.3,0.5c0.3,0.1,0.6,0.3,0.8,0.5c0.7,0.5,1.5,1,2.2,1.5c0.5,0.4,1,0.8,1.6,1.2
		c0.5,0.4,1,0.7,1.4,1.1c0.6,0.5,1,1,1.5,1.5c1.1,1.1,1.9,2.5,2.7,3.9c0.6,0.9,1.1,1.9,1.7,2.8c0.6,0.9,1.1,1.8,1.5,2.8
		c0.1,0.2,0.3,0.4,0.4,0.6c0.7,1.4,1.4,2.7,2.1,4.1c0,0.8,0.6,1.3,0.9,2c0.3,0.6,0.5,1.3,0.8,1.9c0.3,0.5,0.5,1.1,0.8,1.6
		c1.1,2,1.7,4.2,2.6,6.3c0.3,0.6,0.4,1.2,0.8,1.8c0.2,0.3,0.3,0.7,0.3,1c0.1,0.6,0.3,1.2,0.5,1.7c0.2,0.5,0.3,1.1,0.5,1.6
		c0.3,0.9,0.6,1.8,1,2.8c0.3,0.7,0.6,1.4,0.5,2.2c0,0.2,0,0.4,0.1,0.6c0.3,1.5,0.7,2.9,1.1,4.4c0,0.2,0.1,0.4,0.1,0.6
		c0,1.1,0.2,2.2,0.4,3.2c0.1,0.7,0.2,1.4,0.3,2.2c0.1,0.8,0.3,1.5,0.4,2.3c0.2,1.6,0.7,3.1,0.9,4.7c0.2,1.3,0.3,2.6,0.6,3.8
		c0.1,0.3,0,0.6,0,0.9c0,0.7-0.1,1.5,0.2,2.2c0.1,0.2,0,0.4,0,0.6c0,0.5,0.1,1,0.2,1.4c0.2,1,0.3,2,0.3,3c0.1,0.7,0,1.4,0.2,2.1
		c0.1,0.4-0.2,0.7,0,1.1c0.1,1.8,0.4,3.5,0.3,5.3c0,0.5,0,1,0.2,1.4c0.1,0.2,0.1,0.6,0.1,0.8c0,0.6-0.1,1.3,0.2,1.9
		c0.1,0.2,0,0.6,0,0.8c0,2.3,0,4.6,0,7c0,0.4,0,0.7-0.1,1.1c-0.1,0.2-0.1,0.5-0.1,0.7c0,0.6,0,1.1,0,1.7c0,0.6-0.1,1.1-0.2,1.6
		c0,0.3,0,0.6,0,0.9c0,1.3,0,2.6,0,3.9c0,0.7,0,1.4,0,2.1c0,0.7-0.2,1.3-0.2,2c0,0.9,0,1.8,0,2.7c0,0.4,0,0.9-0.2,1.3
		c-0.1,0.2-0.1,0.5-0.1,0.7c0,0.5,0.1,1.1-0.2,1.6c0,0.1,0,0.2,0,0.2c0.1,1.5-0.3,2.9-0.5,4.3c-0.1,0.8-0.4,1.7-0.1,2.5
		c0,0.1,0,0.2-0.1,0.2c-0.6,0.6-0.6,1.4-0.5,2.2c0,0.3,0,0.5-0.2,0.7c-0.1,0.2-0.1,0.6,0,0.9c0,0.2,0,0.3-0.1,0.4
		c-0.1,0.1-0.2,0.3-0.2,0.4c-0.1,0.2-0.2,0.5-0.2,0.7c-0.1,0.6-0.2,1.2-0.2,1.8c0,0.5-0.1,1-0.3,1.4c0,0.1-0.1,0.1-0.2,0.1
		c-0.1,0-0.2-0.1-0.2-0.1c-0.1-0.5-0.3-1-0.3-1.5c-0.1-1-0.3-2-0.6-3c-0.1-0.3-0.1-0.5-0.2-0.8c0-0.5,0-1-0.2-1.4
		c-0.1-0.2,0-0.4,0-0.6c0-0.2,0-0.5-0.1-0.7c-0.2-0.4-0.2-0.9-0.2-1.3c0-0.6,0.1-1.2-0.2-1.8c-0.1-0.2,0-0.5,0-0.7
		c0-1.3,0-2.5,0-3.8c0-0.4,0-0.8-0.1-1.2c-0.1-0.2-0.1-0.5-0.1-0.7c0-0.7,0-1.4,0-2.1c0-0.1,0-0.3,0-0.4c0.4-1,0.2-2.1,0.2-3.1
		c0-1,0-2.1,0.2-3.1c0-0.2,0-0.5,0-0.7c0-0.3,0-0.7,0-1c0-0.8,0-1.5,0-2.3c0-0.7-0.2-1.4-0.2-2.1c0-0.2,0-0.5,0-0.7
		c0.2-0.5,0.2-1.1,0-1.6c-0.1-0.4-0.1-0.7-0.1-1.1c0-0.7,0.1-1.4-0.2-2c-0.1-0.2,0-0.5,0-0.7c0-0.6,0-1.3-0.2-1.9
		c-0.1-0.4,0-0.8-0.1-1.2c-0.1-0.9,0.1-1.9-0.2-2.8c-0.1-0.2,0-0.5,0-0.7c0-0.5,0.1-1.1-0.2-1.6c-0.1-0.2,0-0.5-0.1-0.7
		c0-0.7,0.1-1.4-0.2-2c-0.1-0.2,0-0.4,0-0.6c0-0.7,0-1.4,0-2.1c0-0.9-0.2-1.8-0.4-2.6c0-0.2-0.1-0.3-0.1-0.5c0-0.8,0-1.5-0.2-2.3
		c0.1-1-0.3-1.9-0.3-2.9c-0.3-0.8-0.2-1.6-0.4-2.4c-0.2-0.7-0.2-1.4-0.3-2.2c-0.1-0.6,0-1.3-0.4-1.9c-0.1-0.1-0.1-0.3-0.1-0.5
		c0.1-0.6-0.2-1.2-0.3-1.8c-0.1-0.8-0.4-1.5-0.5-2.2c-0.1-0.5-0.1-1-0.2-1.4c0.2-0.5-0.1-1,0-1.6c0.1-0.4-0.1-0.9-0.2-1.3
		c-0.3-0.9-0.7-1.8-0.7-2.8c0-0.2,0-0.3-0.1-0.5c-0.4-1.1-0.5-2.4-0.9-3.5c0-0.1,0-0.3-0.1-0.4c-0.6-1.1-0.6-2.3-0.9-3.5
		c0-0.1,0-0.2,0-0.2c-0.6-1.5-0.7-3.1-1.4-4.6c-0.5-1-0.8-2.1-1.2-3.2c-0.3-0.8-0.7-1.7-1-2.5c-0.2-0.5-0.4-1.1-0.6-1.6
		c-0.1-0.2-0.1-0.5-0.3-0.7c-0.3-0.4-0.4-0.8-0.6-1.2c-0.8-1.4-1.2-2.9-1.7-4.4c-0.2-0.5-0.4-1-0.6-1.5c-0.4-0.9-0.9-1.8-1.2-2.8
		c-0.1-0.2-0.2-0.4-0.3-0.5c-0.2-0.3-0.4-0.7-0.5-1.1c-0.1-0.3-0.2-0.7-0.4-0.9c-0.7-0.7-1-1.7-1.6-2.6c-0.6-0.9-1.1-1.8-1.9-2.5
		c-0.7-0.7-1.3-1.6-2.3-2.2c-0.2-0.1-0.3-0.3-0.4-0.4c-1-1.2-2.4-1.7-3.6-2.5c-0.6-0.1-1.1-0.4-1.7-0.3c-0.5,0-0.9-0.1-1.3-0.2
		c-0.5-0.2-1-0.3-1.6-0.3c-0.2,0-0.3,0-0.5,0c-1,0-2,0-2.9,0.4c-0.3,0.1-0.6,0.1-0.8-0.2c-0.4-0.6-1-1-1.6-1.3
		c-0.2-0.1-0.3-0.3-0.5-0.4c-0.6-0.5-0.9-1.1-1.5-1.6c-0.6-0.5-1.1-1-1.6-1.5C74.6,8.2,74.6,8.2,75.1,7.8z M69.6,189.3
		c-0.2,0.1-0.4,0.3-0.7,0.3c-0.4,0.1-0.8,0.3-1.2,0.6c-0.3,0.2-0.6,0.3-0.9,0.4c-0.8,0.2-1.6,0.5-2.4,0.8c-0.1,0-0.2,0.1-0.3,0.1
		c-1,0.1-2,0.5-2.9,0.7c-0.1,0-0.2,0.1-0.2,0c-0.5-0.3-0.9,0.1-1.4,0c-0.5,0-1,0.1-1.4,0.2c-0.4,0.1-0.9,0-1.3,0.1
		c-0.4,0-0.8,0.1-1.2,0c-0.9-0.1-1.8-0.1-2.7,0c-1,0.1-1.9-0.3-2.9-0.3c-0.5-0.3-1-0.1-1.6-0.3c-1.2-0.3-2.4-0.7-3.6-1.1
		c-1.2-0.3-2.3-0.7-3.4-1.2c-0.3-0.2-0.7-0.3-1-0.3c-0.3-0.1-0.5-0.2-0.8-0.3c-0.4-0.3-0.9-0.5-1.4-0.7c-0.3-0.2-0.6-0.3-0.5-0.8
		c0-0.1-0.1-0.3-0.3-0.4c-0.2-0.1-0.4-0.3-0.6-0.4c-1.4-0.6-2.6-1.5-3.9-2.3c-0.2-0.1-0.4-0.2-0.5-0.4c-0.2-0.5-0.7-0.8-1.2-1
		c-0.4-0.2-0.7-0.5-0.9-0.8c-0.4-0.5-0.8-1-1.2-1.5c-0.1-0.1-0.2-0.2-0.3-0.3c-0.8-0.4-1.2-1.2-1.6-1.9c-0.2-0.2-0.3-0.5-0.5-0.7
		c-0.9-0.6-1.4-1.5-1.9-2.4c-0.3-0.5-0.6-1-1.1-1.4c-0.6-0.5-1-1.2-1.4-1.8c-0.3-0.5-0.5-1-0.9-1.4c-0.2-0.2-0.2-0.6-0.4-0.9
		c-0.3-0.3-0.4-0.7-0.6-1c-0.2-0.3-0.3-0.6-0.5-1c-0.2-0.4-0.4-0.8-0.7-1.1c-0.6-0.6-0.8-1.3-1.1-2c-0.3-0.9-0.8-1.8-1.2-2.6
		c-0.1-0.1-0.1-0.3-0.3-0.4c-0.5-0.2-0.6-0.7-0.8-1.2c-0.2-0.6-0.6-1.1-0.8-1.8c-0.2-0.6-0.4-1.1-0.6-1.7c-0.1-0.2,0.1-0.4-0.1-0.6
		c-0.9-0.8-1.1-1.9-1.4-2.9c-0.1-0.5-0.3-0.9-0.6-1.3c-0.3-0.4-0.5-0.9-0.7-1.4c-0.2-0.4-0.2-1-0.4-1.4c-0.2-0.4-0.5-0.8-0.6-1.3
		c0-0.3-0.2-0.6-0.3-0.9c-0.6-0.3-0.2-1-0.6-1.3c0-0.5-0.2-0.9-0.4-1.4c0.2-0.4-0.1-0.8-0.1-1.2c0-0.2-0.1-0.4-0.2-0.6
		c-0.5-0.4-0.6-0.9-0.5-1.5c0-0.2-0.1-0.5-0.2-0.7c-0.2-0.5-0.4-1.1-0.6-1.6c-0.1-0.3-0.2-0.7-0.2-1.1c-0.1-0.8-0.1-1.6-0.8-2.2
		c-0.1,0-0.1-0.1-0.1-0.2c0-0.1,0.1-0.2,0.1-0.2c0-0.2,0.1-0.4,0-0.6c-0.2-0.3-0.3-0.6-0.2-1c0.1-0.2-0.1-0.5-0.1-0.7
		c-0.2-0.6-0.4-1.2-0.3-1.9c0.1-0.5-0.2-0.9-0.2-1.3c-0.1-1-0.3-2.1-0.6-3.1c0-0.1-0.1-0.3,0-0.3c0.3-0.5,0.1-0.9,0-1.4
		c-0.1-0.2,0-0.5,0-0.7c0-0.6,0.1-1.3-0.2-1.9c-0.1-0.2,0-0.4,0-0.6c0-0.4,0-0.8-0.2-1.2c-0.1-0.1-0.1-0.2-0.1-0.4
		c0.1-1.2-0.4-2.2-0.6-3.3c-0.2-0.9-0.5-1.7-0.4-2.6c0-0.1,0-0.3,0-0.4c-0.2-0.7-0.3-1.4,0-2.1c0.1-0.1-0.1-0.3-0.1-0.5
		c0-0.8-0.1-1.6-0.1-2.4c0-0.7-0.1-1.3,0-2c0.1-0.6,0-1.3,0-2c0-0.4-0.1-0.7-0.1-1.1c0-0.3-0.1-0.6,0-0.9c0.1-0.6,0.1-1.3-0.1-1.9
		c-0.1-0.5,0-1-0.1-1.5c0-0.4,0.2-0.7,0.2-1.1c-0.1-0.3,0.1-0.7,0.1-1.1c0-0.4-0.2-0.8-0.1-1.1c0.2-0.6-0.1-1.2,0.1-1.8
		c0.1-0.5,0-1.1,0-1.7c0-1-0.1-1.9,0.1-2.9c0-0.2,0-0.4,0-0.6c-0.1-0.6-0.2-1.3,0-1.9c0.1-0.4,0.2-0.9,0-1.2
		c-0.2-0.5-0.1-0.9,0.1-1.4c0.1-0.3,0.3-0.6,0.1-0.9c0.3-0.7,0-1.4,0.2-2c0.1-0.5,0.2-1,0.2-1.6c0-0.2,0.1-0.4,0.1-0.6
		c0.1-0.3,0.1-0.6,0.1-1c0-0.7-0.1-1.5,0.2-2.2c0-0.1,0-0.2,0-0.2c-0.1-1.2,0.2-2.3,0.3-3.5c0.1-0.7,0.2-1.4,0.3-2.2
		c0.1-0.7,0.3-1.3,0.5-2c0.1-0.4,0.2-0.7,0.2-1.1c0-0.4,0-0.9-0.1-1.3c0.3-0.4,0.4-0.8,0.5-1.2c0.1-0.2,0.1-0.4,0.1-0.6
		c-0.2-0.4,0-0.7,0.1-1.1c0.2-0.9,0.4-1.7,0.8-2.5c0.4-0.8,0.5-1.6,0.5-2.5c0-0.4,0.1-0.7,0.4-1.1c0.2-0.3,0.4-0.7,0.4-1.1
		c0.1-0.5,0.4-1.1,0.1-1.6c-0.1-0.1,0-0.3,0.1-0.4c0.3-0.4,0.4-0.9,0.6-1.3c0.1-0.2,0.1-0.4,0-0.6c-0.1-0.3-0.1-0.6,0.3-0.8
		c0.1,0,0.1-0.1,0.1-0.2c0-0.7,0.5-1.3,0.6-2c0.1-0.7,0.6-1.3,0.5-2.1c0-0.1,0.1-0.2,0.2-0.3c0.1-0.2,0.2-0.4,0.1-0.6
		c-0.1-0.3,0-0.5,0.2-0.8c0.5-0.6,0.8-1.3,1.1-2c0.2-0.5,0.4-1.1,0.6-1.6c0.1-0.4-0.1-0.9,0.4-1.2c0-0.3,0.2-0.6,0.4-0.9
		c0.2-0.2,0.3-0.5,0.2-0.8c0-0.1,0-0.2,0-0.2c0.6-0.4,0.5-1.1,1-1.6c0.2-0.2,0.1-0.7,0.3-0.9c0.3-0.2,0.3-0.6,0.4-0.8
		c0.2-0.3,0.3-0.6,0.4-0.9c0.1-0.3,0.2-0.5,0.2-0.8c0-0.3,0.2-0.4,0.4-0.5c0.3-0.1,0.5-0.2,0.4-0.6c0,0,0.7-1.1,0.8-1.1
		c0.1-0.2,0.3-0.3,0.3-0.5c0-0.4,0.3-0.6,0.5-0.9c0.8-1.1,1.5-2.2,2.3-3.3c0.5-0.6,0.9-1.4,1.3-2c0.2-0.4,0.4-0.8,0.8-1
		c0.2-0.6,0.8-1,1-1.6c0.1-0.4,0.4-0.7,0.8-0.8c0.1,0,0.4-0.1,0.4-0.3c0.1-0.5,0.5-0.8,0.8-1.1c0.4-0.4,0.7-0.7,1-1.2
		c0.2-0.5,0.8-0.7,1.2-1c0.1-0.1,0.3-0.1,0.4-0.3c0.3-0.6,0.8-1,1.2-1.5c0.4-0.4,0.8-0.9,1.2-1.3c0.5-0.5,1-1,1.6-1.5
		c0.4-0.3,0.8-0.8,1.2-1.2c0.6-0.5,1.1-1.1,1.7-1.6c0.3-0.2,0.7-0.5,0.8-0.9c0.1-0.4,0.6-0.2,0.7-0.6C37.6,8.7,38,8.3,38.4,8
		c0.3-0.2,0.6-0.6,1-0.6c0.2,0,0.3-0.1,0.4-0.2c0.5-0.6,1.2-0.8,1.9-1c0.8-0.3,1.6-0.8,2.5-1c1.1-0.3,2.1-0.8,3.3-0.9
		c0.1,0,0.2,0,0.2-0.1c0.5-0.1,0.9-0.7,1.6-0.5c0.5-0.1,1.1-0.3,1.6-0.4c0.2-0.1,0.4-0.1,0.6-0.1C52,3,52.4,2.7,52.9,2.8
		c0.1,0,0.3-0.1,0.5-0.1c1.1-0.4,2-0.5,3.3-0.5c0.3,0,0.7,0,1,0c0.5,0,1,0.1,1.4,0.3c0.4,0.2,0.8,0.5,1.4,0.2c0.1-0.1,0.4,0,0.6,0.1
		c0.2,0,0.3,0.2,0.4,0.2c1.7,0.6,3.2,1.5,4.8,2.3c0.7,0.3,1.3,0.8,2,1.2c1.3,0.8,2.5,1.7,3.6,2.7c0.2,0.1,0.3,0.3,0.4,0.4
		c0.4,0.6,0.9,1,1.4,1.4c0.1,0.1,0.3,0.2,0.4,0.3c0.3,0.7,1,1,1.4,1.6c0.1,0.1,0.2,0.2,0.3,0.3c0.8,0.4,1.4,1.1,2,1.8
		c0.9,0.9,1.9,1.7,2.8,2.8c0.8,1,1.8,2,2.6,3c0.5,0.7,1.2,1.4,1.8,2.1c0.4,0.5,0.7,1.1,1.2,1.5c0.4,0.3,0.4,1,0.9,1.2
		c0.2,0.4,0.4,0.9,0.8,1.2c0.8,2.1,2.2,3.8,3.4,5.7c0.5,0.8,0.9,1.6,1.4,2.4c0.1,0.2,0.3,0.5,0.4,0.7c0.3,0.5,0.6,1.1,0.8,1.6
		c0.4,1.1,0.8,2.1,1.5,3.1c0.1,0.2,0.2,0.4,0.2,0.7c-0.1,0.5,0.1,0.9,0.3,1.3c0.4,0.8,0.7,1.6,1,2.5c0.2,0.5,0.4,1.1,0.5,1.6
		c0.2,0.5,0.3,1,0.5,1.5c0.2,0.7,0.4,1.5,0.7,2.2c0.3,0.7,0.5,1.5,0.7,2.2c0.1,0.4,0.3,0.8,0.2,1.3c0,0.2,0,0.4,0.1,0.6
		c0.2,0.7,0.4,1.4,0.6,2.1c0.1,0.5,0.3,1,0.3,1.5c0,0.2,0,0.4,0.1,0.6c0.3,0.6,0.4,1.1,0.4,1.8c0,0.2,0,0.3,0.1,0.5
		c0.3,1,0.4,2.1,0.6,3.1c0.3,1.1,0.3,2.3,0.7,3.4c0,0.1,0.1,0.2,0.1,0.4c0,1,0.2,2,0.5,3c0,0.2,0,0.4,0,0.6c0,0.4,0,0.7,0.2,1.1
		c0.1,0.2,0.2,0.5,0.2,0.7c0,0.9,0.1,1.7,0.3,2.5c0.1,0.6,0.2,1.1,0.2,1.7c0,0.5,0,1.1,0,1.6c0.1,0.8,0.3,1.6,0.4,2.4
		c0.1,1,0.1,1.9,0.1,2.9c0,0.6-0.1,1.1,0.2,1.7c0.1,0.1,0,0.3,0,0.5c0,0.5,0,1.1,0,1.6c0,0.5,0.1,0.9,0.2,1.7l0,0
		c0,0.2-0.3,0.6-0.1,1.2c0.1,0.4,0.1,0.9,0.1,1.3c0,0.7,0,1.3,0,2c0,0.5-0.1,1.1,0.2,1.6c0.1,0.1,0,0.2,0,0.4c0,1.3,0,2.7,0,4
		c0,0.5-0.2,1,0,1.5c0.1,0.2,0.1,0.5,0,0.7c-0.3,0.7-0.2,1.4-0.2,2c0,0.5,0.1,1.1-0.2,1.6c-0.1,0.2,0,0.5-0.1,0.7
		c0,0.6,0,1.2-0.2,1.8c-0.1,0.2,0,0.6-0.1,0.8c0,0.5,0.1,1.1-0.2,1.6c-0.1,0.1-0.1,0.3,0,0.5c0.1,0.9-0.2,1.7-0.4,2.5
		c-0.2,0.7-0.4,1.5-0.4,2.3c0,0.2-0.1,0.5-0.1,0.7c-0.1,0.7-0.4,1.3-0.3,2c-0.3,1.3-0.2,2.7-0.7,3.9c0,0.1,0,0.2-0.1,0.4
		c-0.1,1.4-0.3,2.9-0.7,4.3c0,1.2-0.6,2.3-0.7,3.5c-0.1,0.7-0.2,1.4-0.4,2.1c-0.2,0.6-0.2,1.4-0.5,2c-0.1,0.1-0.1,0.3-0.1,0.5
		c0.1,0.7-0.3,1.3-0.3,2c0,0.1,0,0.3-0.1,0.4c-0.4,0.5-0.4,1.2-0.6,1.7c-0.4,1.1-0.6,2.3-0.8,3.4c-0.1,0.6-0.3,1.1-0.3,1.7
		c0,0.1-0.1,0.2-0.1,0.3c-0.5,0.8-0.7,1.6-0.8,2.5c0,0.2-0.2,0.5-0.2,0.7c-0.3,0.8-0.5,1.5-0.7,2.3c-0.2,0.6-0.3,1.3-0.6,1.8
		c-0.3,0.7-0.6,1.4-0.8,2.2c-0.3,1.1-0.8,2-1.2,3c-0.5,1.5-1.4,3-2.1,4.4c-0.1,0.3-0.3,0.6-0.5,0.8c-0.4,0.6-0.9,1.2-1,1.9
		c-0.5,0.7-0.8,1.6-1.3,2.3c-0.7,1-1.3,2.2-1.9,3.3c-0.9,1.5-1.7,3.1-2.7,4.6c-0.6,0.9-1.2,1.8-1.9,2.7c-0.9,1.2-1.8,2.5-2.8,3.7
		c-0.2,0.2-0.4,0.4-0.6,0.6c-1.5,1.5-2.9,2.9-4.4,4.4c-0.6,0.6-1.4,1.2-2.1,1.6C71.2,188.3,70.4,188.8,69.6,189.3z M110.7,146.2
		c0.2,0.5,0.3,1,0.4,1.5c0.2,0.8,0.5,1.5,0.8,2.3c0.1,0.2,0,0.4-0.2,0.5c-0.9,0.3-1.7,0.7-2.5,1.3c-0.2,0.1-0.4,0.3-0.6,0.4
		c-0.6,0.7-1.5,1.1-2.2,1.7c-0.3,0.2-0.5,0.1-0.7-0.2c-0.8-1.6-1.1-3.3-1.7-4.9c-0.1-0.4-0.2-0.8-0.2-1.2c-0.1-1.4-0.8-2.7-1.3-4
		c-0.4-1.1-0.7-2.2-0.8-3.4h0c0-0.5,0.1-1,0.2-1.4c0.2-0.6,0.1-1.2,0.3-1.8c0.2-0.5,0.3-1.1,0.4-1.6c0.1-0.4,0-0.7,0.1-1.1
		c0.1-0.4,0.2-0.7,0.7-0.7c0.4,0,0.7-0.2,1.1-0.3c0.3-0.1,0.5-0.1,0.8-0.2c0.3,0,0.6,0,0.8-0.1c0.7-0.2,1.4-0.2,2.1-0.3
		c0,0,0.1,0,0.1,0.1c0,0,0.1,0.1,0.1,0.1c0.1,0.7,0.2,1.4,0.3,2.2c0,0.3,0.1,0.6,0.1,0.8c0,0.2,0.1,0.3,0.1,0.5
		c0,1.4,0.2,2.7,0.5,4.1c0.1,0.8,0.4,1.5,0.3,2.3C110.2,143.8,110.3,145,110.7,146.2z M102.5,170.6c-0.7,1-1.3,1.9-2,2.9
		c0,0-0.1,0.1-0.1,0.1c-0.8,1.2-1.9,2.2-2.7,3.4c0,0-0.1,0.1-0.1,0.1c-1.2,1-2.1,2.3-3.1,3.4c-0.5,0.5-1,0.9-1.4,1.5
		c-0.1,0.2-0.5,0.3-0.6,0.5c-0.6,1-1.7,1.5-2.4,2.4c-1.1,0.7-1.9,1.7-2.8,2.5c-0.1,0.1-0.2,0.3-0.4,0.3c-1.1,0.5-2.1,1.3-3.3,1.7
		c-1.2,0.4-2.4,0.7-3.5,1.4c-0.4,0.2-1.8,0.5-2.4,0.5c-0.4,0-0.8,0-1.2,0.2c0,0-0.1,0-0.1,0c-0.4,0-0.9,0.1-1.2,0
		c-0.9-0.3-1.9,0-2.7-0.7c-0.2-0.1-0.2-0.2,0-0.4c0.2-0.2,0.5-0.5,0.8-0.6c1.1-0.6,2.1-1.4,3.1-2.1c0.2-0.2,0.4-0.4,0.6-0.6
		c1.3-1.3,2.6-2.6,3.9-3.9c0.4-0.4,0.9-0.9,1.2-1.4c0.5-0.9,1.2-1.5,1.8-2.3c1-1.2,1.8-2.5,2.6-3.8c0.3-0.4,0.5-0.9,0.8-1.3
		c0.4-0.6,0.8-1.2,1.1-1.9c0.3-0.7,0.7-1.4,1.1-2c0.9-1.1,1.4-2.4,2.2-3.5c0.7-1.7,1.8-3.1,2.6-4.7c0.6-1.1,1.2-2.2,1.5-3.4
		c0.2-0.9,0.7-1.6,1-2.5c0.3-0.9,0.6-1.7,0.9-2.6c0-0.1,0.1-0.2,0.2-0.3c0,0,0.2,0,0.2,0c0.2,0.3,0.4,0.5,0.2,0.9l0,0
		c0,0.2-0.1,0.5,0,0.6c0.5,0.9,0.4,2,0.7,2.9c0.4,1.3,0.8,2.5,1.2,3.8c0.2,0.7,0.4,1.4,0.6,2.2c0.1,0.8,0.4,1.5,0.6,2.2
		c0,0.1,0.1,0.3,0.3,0.4c0.4,0.2,0.5,0.6,0.7,1c0.2,0.4,0.2,0.8,0.4,1.1C103.1,169.5,102.9,170,102.5,170.6z M164.9,233.8
		c-1,0-2,0.2-3,0.5c-0.1,0-0.3,0-0.5,0c-1-0.1-1.9,0.2-2.9,0.4c-0.9,0.2-1.8,0.4-2.7,0.5c-0.6,0.1-1.2,0.2-1.8,0.3
		c-0.7,0.2-1.5,0.4-2.2,0.8c-0.7,0.4-1.5,0.7-2.3,0.6c-0.2,0-0.3,0-0.5,0c-0.6,0.1-0.6,0.1-0.7-0.4c-0.1-0.2-0.2-0.4-0.2-0.6
		c0.1-1.1-0.3-2.2-0.3-3.4c0-0.6,0.1-1.2-0.2-1.8c-0.1-0.2,0-0.4,0-0.6c0-0.5,0.1-1.1-0.2-1.6c-0.1-0.1,0-0.2,0-0.4
		c0-1.1-0.2-2.1-0.5-3.1c-0.1-0.5,0-1-0.3-1.5c-0.1-0.3-0.2-0.6-0.3-0.9c0-0.1-0.1-0.2-0.1-0.3c0-0.8-0.4-1.5-0.5-2.2
		c-0.3-1.3-0.7-2.7-1.1-4c-0.4-1.2-1-2.4-1.5-3.6c-0.7-1.6-1.6-3-2.4-4.5c-0.5-0.9-1-1.7-1.6-2.6c-0.5-0.8-1.2-1.6-1.8-2.5
		c-0.1-0.1-0.2-0.2-0.2-0.3c-0.6-1.1-1.3-1.9-2.1-2.8c-0.9-1-1.7-2-2.5-3.1c0,0,0-0.1-0.1-0.1c-1.1-1-1.8-2.4-2.9-3.5
		c-1-1-2.2-1.9-3.3-2.8c-0.1-0.1-0.2-0.1-0.2-0.1c-0.8-1.1-1.9-1.7-2.9-2.6c-0.2-0.2-0.5-0.3-0.7-0.5c-0.6-0.4-1.1-0.8-1.6-1.3
		c-0.9-0.9-1.9-1.6-2.9-2.3c-0.2-0.1-0.4-0.3-0.6-0.5c-0.2-0.2-0.4-0.4-0.6-0.5c-0.7-0.3-1.1-0.8-1.6-1.2c-0.5-0.5-1.1-0.8-1.6-1.3
		c-0.2-0.1-0.4-0.2-0.5-0.4c-0.6-0.9-1.4-1.6-1.9-2.5c-0.1-0.1-0.2-0.3-0.3-0.4c-0.9-0.6-1.3-1.5-1.8-2.4c-0.3-0.4-0.5-0.9-0.9-1.3
		c-0.2-0.2-0.3-0.5-0.5-0.8c-0.6-1.1-1.2-2.2-2.1-3.1c-0.1-0.1-0.3-0.3-0.4-0.5c-0.3-0.9-0.8-1.8-1.1-2.7c-0.3-1.1-0.6-2.3-1.1-3.3
		c-0.6-1.3-0.9-2.8-1.4-4.1c-0.3-1-0.6-1.9-1-2.9c-0.4-0.9-0.5-1.9-0.7-2.8c0-0.2,0-0.5-0.1-0.6c-0.4-0.4-0.2-0.8-0.2-1.2
		c0-0.7,0.1-1.4-0.1-2.1c-0.1-0.4-0.1-0.9,0-1.3c0.3-1.1,0.7-2.2,1.1-3.4c0-0.1,0.1-0.1,0.2-0.1c0,0,0.1,0.1,0.1,0.1
		c0.1,0.5,0.2,0.9,0.4,1.4c0.3,0.9,0.5,1.9,0.6,2.8c0.1,0.6,0.1,1.1,0.3,1.7c0.3,0.9,0.5,1.8,0.7,2.7c0.3,1.1,0.9,2.2,1.5,3.2
		c0.2,0.5,0.7,0.5,1.2,0.5c0.9-0.1,1.7-0.3,2.5-1c0.3-0.3,0.7-0.5,1.1-0.8c0.3-0.2,0.5-0.4,0.8-0.6c0.9-0.9,2-1.5,3.2-1.9
		c0.2-0.1,0.5-0.2,0.7-0.2c0.3-0.1,0.5-0.3,0.7-0.5c0.1-0.2,0.2-0.4,0.1-0.6c-0.1-0.3-0.2-0.5-0.3-0.8c-0.7-1.7-1.3-3.4-1.7-5.2
		c-0.2-0.7-0.4-1.5-0.6-2.2c-0.1-0.8-0.3-1.6-0.4-2.4c-0.1-0.6-0.2-1.2-0.2-1.8c-0.1-0.6-0.1-1.1-0.1-1.7c0-0.3,0.2-0.5,0-0.8
		c-0.2-0.2-0.1-0.5,0-0.7c0-0.1,0-0.2-0.1-0.3c-0.5-0.7-0.1-1.6-0.5-2.4c0.3-0.4,0-0.9-0.1-1.3c-0.2-1-1-1.6-2-1.6
		c-0.5,0-1.1,0-1.6,0c-0.2,0-0.4,0-0.6,0c-0.5,0.2-1,0.2-1.4,0.2c-0.2,0-0.3,0-0.5,0c-0.2,0-0.4,0.2-0.6,0.1
		c-0.3-0.2-0.2-0.5-0.1-0.8c0.4-1.2,0.5-2.4,0.7-3.6c0-0.1,0.1-0.3,0.2-0.4c0.3-0.2,0.4-0.5,0.5-0.8c0.3-0.9,0.5-1.9,0.5-2.9
		c0-0.3,0.1-0.4,0.4-0.5c0.4-0.1,0.8-0.2,1.3-0.1c0.6,0.2,1.2,0.1,1.8,0.1c0.2,0,0.4-0.1,0.5-0.3c0.4-0.4,0.6-0.8,0.6-1.4
		c0-1.1,0-2.2,0-3.3h0c0-0.9,0-1.8,0-2.7c0-0.4,0-0.9,0.2-1.3c0.1-0.3,0.1-0.6,0.1-1c0-0.6,0-1.2,0.2-1.8c0.1-0.2,0-0.6,0-0.8
		c0-1.1,0-2.1,0-3.2c0-0.5-0.1-1,0.1-1.4c0.1-0.3-0.2-0.7,0-1.1c0.2-0.3,0-0.7-0.1-1.1c0-0.1,0-0.3,0-0.5c0.1-0.3,0.2-0.6,0-0.9
		c-0.1-0.1,0-0.3,0-0.5c0-0.1,0.1-0.2,0.1-0.3c0.1-0.7,0.1-1.3-0.7-1.6c-0.1,0-0.2-0.2-0.3-0.2c-0.4-0.2-0.8-0.2-1.2,0
		c-0.3,0.2-0.6,0.4-0.9,0.5c0,0-0.2-0.1-0.2-0.1c0.2-0.8,0.1-1.5,0.1-2.3c0-0.3-0.1-0.6-0.1-1c0-0.2-0.1-0.3,0-0.5
		c0.1-0.4,0.1-0.7,0-1.1c-0.1-0.3-0.1-0.6-0.1-0.8c0-0.9,0-1.7,0-2.6c0-0.4,0-0.9-0.2-1.3c-0.1-0.2,0-0.4-0.1-0.6
		c-0.1-0.4,0.2-0.7,0.1-1.1c-0.1-0.3-0.1-0.7-0.1-1.1c0-0.4-0.1-0.7-0.1-1.1c-0.1-0.5-0.1-1-0.1-1.4c0-0.8,0-1.5-0.3-2.3
		c-0.1-0.2-0.1-0.4,0-0.7c0.1-0.5,0.2-1,0-1.4c-0.1-0.4-0.1-0.9-0.3-1.3c-0.1-0.3-0.1-0.6-0.2-1c0-0.9,0.1-1.8-0.2-2.7
		c0-0.1,0.1-0.2,0.1-0.2c-0.1-0.3-0.3-0.6-0.3-0.9c0-0.3,0.1-0.5,0.2-0.8c0-0.1,0-0.3-0.1-0.4c-0.3-0.3-0.3-0.6-0.3-1
		c0-0.2,0-0.4,0-0.6c-0.3-0.8-0.2-1.6-0.5-2.4c-0.2-0.3-0.2-0.7-0.2-1.1c0-0.8-0.1-1.6-0.4-2.4c-0.2-0.5-0.1-1.1-0.3-1.6
		c-0.1-0.7-0.3-1.3-0.4-2c-0.1-0.2-0.1-0.5-0.1-0.7c0-0.5-0.1-0.9-0.3-1.3c-0.1-0.1-0.1-0.3-0.1-0.5c-0.1-0.8-0.3-1.5-0.5-2.2
		c-0.2-0.6-0.1-1.2-0.3-1.8c-0.3-0.7-0.4-1.4-0.7-2c-0.1-0.3-0.3-0.5-0.1-0.9c0.1-0.1,0-0.4-0.1-0.6c-0.4-1.4-0.8-2.8-1.4-4.1
		c-0.1-0.2-0.1-0.4-0.1-0.6c0-0.3-0.1-0.6-0.3-0.9c-0.1-0.1-0.1-0.1-0.1-0.2c-0.3-0.8-0.4-1.6-0.8-2.3c-0.3-0.7-0.6-1.4-0.7-2.2
		c-0.1-0.7-0.5-1.2-0.7-1.8c-0.4-0.8-0.6-1.6-1.1-2.3c-0.2-1.5-1.1-2.7-1.8-4c-0.6-1.1-1.3-2.1-1.9-3.2c-0.3-0.6-0.8-1.1-1.1-1.7
		c-0.1-0.2-0.2-0.3-0.3-0.5c-0.2-0.4-0.4-0.9-0.6-1.3c-0.2-0.4-0.5-0.7-0.8-1.1c-0.4-0.5-0.8-1-1.2-1.5c-0.6-0.7-1.1-1.4-1.5-2.2
		c-0.2-0.4-0.6-0.7-0.9-1c-0.5-0.5-1-1.1-1.5-1.6c-0.5-0.6-1.1-1.1-1.5-1.7c-0.4-0.6-1-1.1-1.5-1.6c-0.1,0-0.1-0.1-0.1-0.2
		C81.9,15,82,15,82,15c0.2,0,0.3,0,0.5,0c0.9,0.1,1.7,0.6,2.6,0.5c0.9,0.3,1.8,0.3,2.6,0.7c0.3,0.1,0.6,0.2,0.8,0.5
		c0.1,0.1,0.1,0.1,0.2,0.2c0.9,0.4,1.5,1.2,2.3,1.7c0.4,0.3,0.6,0.7,1,1c0.9,0.7,1.6,1.6,2.2,2.6c0.7,1.1,1.5,2.2,2.1,3.4
		c0.4,1,1,1.9,1.2,2.9c0.1,0.2,0.2,0.5,0.3,0.7c0.8,1.4,1.4,2.9,1.8,4.5c0.2,0.8,0.6,1.5,0.9,2.3c0.4,0.8,0.7,1.6,1.1,2.5
		c0.1,0.3,0.3,0.7,0.4,1c0.1,0.3,0.2,0.5,0.3,0.8c0.1,0.3,0.2,0.6,0.3,0.9c0.2,0.5,0.4,1,0.6,1.6c0.1,0.2,0.1,0.4,0.2,0.6
		c0.5,0.7,0.6,1.6,0.9,2.4c0.3,0.8,0.6,1.5,0.8,2.3c0.2,0.9,0.4,1.7,0.6,2.6c0.2,1,0.4,2.1,0.7,3.1c0.3,1,0.5,2,0.8,3.1
		c0.4,1.7,0.9,3.4,1.3,5.2c0.2,0.7,0.3,1.3,0.4,2c0.1,0.6,0.2,1.2,0.2,1.8c0,0.8,0.3,1.5,0.3,2.3c0,0.4,0.3,0.8,0.4,1.1
		c0.1,0.3,0.2,0.5,0.1,0.8c-0.1,0.1,0,0.3,0.1,0.5c0,0.2,0.1,0.3,0.1,0.5c-0.1,1,0.2,1.9,0.3,2.9c0.1,0.8,0.1,1.7,0.4,2.5
		c0.1,0.3,0,0.6,0.1,0.8c0,0.3,0.1,0.6,0.1,1c0,0.2,0.1,0.3,0.1,0.5c-0.1,1,0.3,1.9,0.3,2.9c0.4,1,0.1,2,0.4,3c0.1,0.3,0,0.6,0,0.8
		c0,0.7,0,1.4,0.2,2.1c0.2,0.5,0.1,1.1,0.1,1.7c0,0.6,0,1.1,0.2,1.7c0.1,0.5,0.1,1,0.1,1.6c0,0.5-0.1,1.1,0.2,1.6
		c0.1,0.1,0.1,0.2,0,0.4c-0.1,1.2,0,2.4,0.3,3.5c0.3,1.4,0.1,2.8,0.3,4.2c0.1,0.7,0.2,1.3,0.1,2c0,0.7,0,1.4,0,2.1
		c0,0.7,0,1.4,0,2.1c0,0.7,0,1.4,0,2.1c0,0.4,0,0.8-0.2,1.2c-0.1,0.2-0.1,0.5-0.1,0.7c0,0.7,0,1.5,0,2.2c0,0.5,0.1,1.1-0.2,1.6
		c-0.1,0.2,0,0.5,0,0.7c0,0.7,0,1.5,0,2.2c0,0.4,0.1,0.7,0.1,1.1c0,0.3,0.1,0.6,0.1,1c0,1.2,0,2.4,0,3.7c0,0.3,0.1,0.6,0.1,1
		c0,0.1,0.1,0.2,0.1,0.4c0,0.8,0.1,1.6,0.2,2.4c0.1,0.9,0.3,1.8,0.4,2.7c0.1,1,0.4,2.1,0.6,3.1c0.2,1,0.2,2,0.5,3
		c0.3,1.1,0.4,2.2,1.1,3.2c0.2,0.7,0.4,1.4,0.6,2.1c0.2,0.9,0.5,1.8,0.8,2.7c0.2,0.7,0.5,1.3,0.5,2c0,0.4-0.2,0.8-0.1,1.2
		s0.3,0.7,0.4,1.1c0.4,1.8,1.1,3.5,1.8,5.3c0.4,1.1,0.8,2.1,1.3,3.1c0.8,1.6,1.7,3.2,2.5,4.8c0.5,0.9,1.1,1.7,1.7,2.5
		c0.3,0.5,0.7,1,1.1,1.5c0.6,0.9,1.2,1.7,1.8,2.6c0.2,0.3,0.5,0.5,0.7,0.7c0.7,0.8,1.6,1.5,2.2,2.4c0,0.1,0.1,0.1,0.2,0.2
		c0.9,0.5,1.5,1.5,2.3,2.1c1.4,1.1,2.6,2.5,4,3.7c0.7,0.6,1.4,1.3,2.1,2c1,0.9,1.9,1.9,2.5,3.1c0.1,0.1,0.1,0.2,0.2,0.3
		c0.8,0.3,1.1,1.2,1.7,1.7c0.1,0.1,0.2,0.2,0.3,0.4c0.2,0.5,0.7,0.9,0.9,1.4c0.2,0.6,0.6,1,0.8,1.5c0.2,0.5,0.6,0.9,0.9,1.3
		c0.6,0.8,1,1.8,1.7,2.5c0.1,0.1,0.1,0.1,0.1,0.2c0.6,1.5,1.5,2.8,2.2,4.2c0.4,0.7,0.8,1.4,1.3,2.1c0.5,0.8,0.9,1.5,1.2,2.3
		c0.5,1.1,1.1,2.2,1.4,3.4c0.6,0.7,0.9,1.6,1.2,2.4c0.1,0.3,0.3,0.7,0.4,1c0.2,0.8,0.5,1.4,0.9,2.1c0.1,0.3,0.3,0.6,0.4,0.9
		c0.1,0.4,0.1,0.9,0.5,1.2c0.5,1.6,1.3,3,1.8,4.6c0.5,1.5,1,2.9,1.5,4.4c0.1,0.3,0.3,0.7,0.4,1c-0.2,0.5,0.1,0.8,0.3,1.2
		c0.1,0.4,0.2,0.8,0.2,1.2c0.1,0.8,0.6,1.6,0.7,2.4c0.1,0.5,0.2,0.9,0.4,1.4c0.1,0.1,0.1,0.3,0.1,0.5c-0.1,1.1,0.4,2.1,0.5,3.2
		c0.1,0.5,0.3,0.9,0.4,1.4C165.3,233.6,165.2,233.8,164.9,233.8z M107.2,113.6c0-0.6,0-1.1,0.2-1.7c0.1-0.4,0-0.9,0.1-1.3
		c0-0.5,0-1,0-1.5c0,0,0,0,0,0l0,0c0-0.9-0.1-1.9-0.1-2.8c0-0.2,0-0.4,0.2-0.5c0.3-0.3,0.5-0.5,0.4-0.9c0-0.4,0.4-0.8,0-1.2
		c0.2-0.4,0-0.8,0-1.2c0-0.3,0.2-0.6-0.2-0.9c-0.1-0.1-0.1-0.2,0-0.3c0.1-0.2,0.1-0.5,0.3-0.7c0-0.1,0.2-0.1,0.3-0.1
		c0.1,0,0.2,0,0.2,0.1c0.2,0.5,0.4,1,0.2,1.6c-0.3,0.8-0.2,1.7,0,2.5c0.1,0.3,0.1,0.5,0,0.7c-0.2,0.3-0.2,0.6-0.1,0.9
		c0.1,0.1,0.1,0.3,0,0.5c-0.3,0.5-0.2,1.1-0.2,1.7c0,3.2,0,6.4,0,9.6c0,0.2,0,0.5,0,0.7c0,0.2-0.1,0.3-0.3,0.3c-0.4,0-0.9,0-1.3,0
		c-0.2,0-0.3-0.2-0.2-0.4c0.1-0.7,0.3-1.3,0.4-2c0.1-0.3,0-0.6,0-1c0-0.5,0-1,0.2-1.4C107.2,114.2,107.2,113.9,107.2,113.6z"/>
	<path d="M64.8,168.4c0-0.3,0-0.7-0.1-1c-0.1-0.4-0.2-0.8-0.2-1.2c0-0.4-0.1-0.9-0.2-1.3c-0.2-0.9-0.1-1.8-0.6-2.6c0,0,0-0.1,0-0.1
		c0.3-0.5,0-0.9-0.1-1.4c-0.1-1-0.4-1.9-0.7-2.8c-0.3-1.1-0.6-2.2-0.8-3.4c-0.1-0.8-0.4-1.6-0.7-2.4c-0.2-0.6-0.3-1.1-0.5-1.7
		c-0.3-0.9-0.2-2-0.7-2.9c-0.1-0.1,0-0.2,0-0.4c-0.1-0.9-0.4-1.8-0.7-2.7c-0.1-0.2-0.3-0.4-0.3-0.7c-0.1-1.1-0.4-2.1-0.5-3.2
		c-0.1-0.6-0.2-1.1-0.3-1.7c-0.5-0.5-0.4-1.1-0.5-1.7c0-0.4-0.1-0.8-0.3-1.1c-0.5-0.8-0.5-1.7-0.6-2.5c-0.1-1-0.6-1.9-0.6-2.9
		c0-0.1-0.1-0.1-0.1-0.2c-0.4-0.8-0.6-1.6-0.6-2.4c0-0.5-0.4-0.9-0.1-1.4c-0.1-0.5-0.3-0.9-0.4-1.4c-0.1-0.3-0.2-0.7-0.2-1
		c0-0.7-0.3-1.3-0.6-2c-0.1-0.1-0.1-0.3-0.1-0.4c0.1-0.2,0-0.4-0.1-0.5c-0.1-0.1-0.2-0.3-0.1-0.4c0.1-0.3,0-0.5-0.1-0.8
		c-0.1-0.2-0.2-0.4-0.3-0.7c-0.1-0.5-0.1-1-0.3-1.4c-0.2-0.5,0-1-0.4-1.4c0-0.4-0.1-0.9-0.3-1.3c0-0.1,0-0.2,0-0.3
		c0.3-1.1,0.2-1.1-0.9-1.1c-0.2,0-0.4,0-0.6,0.1c-0.1,0.1-0.3,0.3-0.5,0.4c-0.6,0.2-1.2,0.4-1.8,0.7c-0.3,0.1-0.6,0.1-1,0
		c-0.4-0.1-0.6,0-0.7,0.2c-0.3,0.5-0.4,1-0.5,1.6c-0.1,1.2-0.1,2.4-0.4,3.6c-0.2,0.8-0.1,1.7-0.2,2.5c0,0.6,0.3,1.2-0.2,1.7
		c-0.1,0.1,0,0.4,0,0.6c0,0.9,0,1.8,0,2.7c0,0.3,0.1,0.6,0,0.8c-0.2,0.5-0.2,1.1-0.2,1.7c0,0.8,0.1,1.5-0.2,2.3c0,0.1,0,0.2,0,0.4
		c0,0.9,0.1,1.8-0.2,2.6c-0.1,0.2,0,0.4,0,0.6c0,0.5,0,1,0,1.4l0,0h0c0,0.6,0,1.1,0,1.7c0,0.2,0,0.4,0,0.6c-0.3,0.8-0.2,1.7-0.2,2.5
		c0,0.4,0.1,0.8-0.1,1.2c-0.3,0.9-0.2,1.8-0.2,2.6c0.1,0.9,0,1.8-0.1,2.7c0,0.3-0.3,0.5-0.2,0.8c0.1,0.8-0.2,1.6-0.2,2.4
		c0,0.3,0,0.5,0.2,0.8c0.1,0.1,0.1,0.3-0.1,0.4c-0.1,0.1-0.1,0.2-0.2,0.3c-0.2,0.8-0.2,1.7-0.3,2.5c-0.2,1.1,0,2.2-0.3,3.2
		c-0.1,0.3,0,0.6-0.1,1c-0.1,0.8-0.3,1.6-0.4,2.5c-0.1,1.1-0.3,2.2-0.3,3.3c-0.2,0.5,0,1.1-0.2,1.5c-0.3,0.8-0.2,1.5-0.2,2.3
		c0,0.3,0.2,0.6-0.2,0.8c-0.1,0.1,0,0.3,0,0.4c0,0.2,0.1,0.3,0.1,0.5c-0.1,0.3,0,0.6,0.2,0.8c0.3,0.5,0.8,0.8,1.3,1
		c0.3,0.1,0.6,0.1,0.8,0.3c0.8,0.5,1.6,0.5,2.5,0.7c1,0.2,2,0.4,3.1,0.3c0.2,0,0.3,0,0.5,0c1,0.3,2,0.3,3,0c0.2-0.1,0.4-0.1,0.6-0.1
		c0.8,0.1,1.5-0.2,2.3-0.3c0.2,0,0.5-0.1,0.7-0.2c2-0.5,4-1,5.8-2c0.7-0.4,1.2-0.8,1.7-1.4c0.3-0.4,0.5-0.9,0.3-1.5
		C64.8,169.1,64.8,168.8,64.8,168.4z M62.7,169.8c-0.2,0.3-0.5,0.6-0.8,0.7c-1.1,0.5-2.2,0.9-3.3,1.4c-0.1,0.1-0.3,0.1-0.5,0.1
		c-0.5,0-0.9,0.2-1.3,0.2c-0.7,0.1-1.3,0.1-1.9,0.5c0,0-0.1,0-0.1,0c-1-0.1-1.9,0.3-2.8,0.3c-0.4-0.1-0.8-0.1-1.2-0.2
		c-0.2,0-0.3-0.1-0.5-0.1c-1,0.1-2-0.1-3.1-0.3c-1-0.2-1.9-0.5-2.7-1.1c-0.2-0.2-0.3-0.4-0.3-0.6c0-0.6-0.1-1.3,0.2-1.9
		c0.1-0.2,0-0.4,0-0.6c0-0.6,0-1.3,0.2-1.9c0.1-0.2,0-0.6,0-0.8c0-0.6-0.1-1.2,0.2-1.8c0-1.1,0.2-2.1,0.5-3.1
		c-0.1-0.9,0.4-1.8,0.3-2.7c0.3-0.9,0.2-1.8,0.2-2.7c0-0.6,0.3-1.2,0.2-1.9c0-0.6,0.1-1.2,0.1-1.8c0-0.3-0.1-0.6-0.1-0.8
		c0.1-0.5,0.3-1.1,0.2-1.7c-0.1-0.6,0.2-1.1,0.1-1.7c0-0.2,0.1-0.4,0.2-0.6c0.1-0.5,0-1,0.1-1.5c0.1-0.5,0.2-1,0.3-1.5
		c0.1-0.5,0-1,0.1-1.6c0.4-2.5,0.1-5,0.2-7.4c0-0.4,0-0.7,0.1-1.1c0.1-0.2,0.1-0.4,0.1-0.6c0-0.8,0.1-1.7,0-2.5
		c-0.1-0.7,0.1-1.4,0.3-2.1c0.1-0.3,0.2-0.6,0-0.9c-0.1-0.3-0.1-0.7,0-0.9c0.3-0.8,0.2-1.6,0.2-2.4c0-0.5,0-1,0.2-1.5
		c0.1-0.2,0.1-0.5,0-0.7c0-0.4-0.2-0.7-0.2-1.1c0.1-0.4,0.2-0.7,0-1c0.3-0.9,0.1-1.8,0.2-2.7c0-0.1,0.1-0.2,0.2-0.2
		c0.3-0.1,0.7-0.1,0.9-0.3c0,0,0.2-0.1,0.2-0.1c0.4,0.3,0.8,0,1.2-0.1c0.3-0.1,0.5,0.2,0.5,0.5c0,0.5,0.1,1.6,0.4,1.9
		c0.4,0.5,0.3,1,0.3,1.4c-0.1,0.7-0.2,1.4,0.1,2.1c-0.1,0.5,0.2,0.9,0.1,1.4c-0.1,0.3,0.1,0.6,0.2,0.9c0.2,0.9,0.3,1.7,0.5,2.6
		c0.2,0.8,0.3,1.6,0.3,2.5c0,0.2,0,0.3,0.1,0.5c0.3,0.7,0.5,1.4,0.4,2.1c0,0,0,0.1,0,0.1c0.3,0.7,0.4,1.5,0.6,2.2
		c0.2,0.6,0.4,1.2,0.4,1.9c0,0.2,0.1,0.5,0.2,0.7c0.1,0.4,0.3,0.8,0.3,1.3c0,0.3,0.1,0.5,0.2,0.8c0.2,0.9,0.3,1.9,0.7,2.8
		c0,0.1,0.1,0.2,0.1,0.2c0,1.6,0.7,3,1.1,4.5c0.4,1.6,0.9,3.1,1.2,4.8c0.1,0.5,0.3,1.1,0.4,1.6c0.4,1.4,0.8,2.8,1.2,4.1
		c0.3,1.1,0.5,2.2,0.8,3.4c0.1,0.5,0.2,1,0.4,1.5c0,0.2,0.1,0.3,0.1,0.5c0.1,1.3,0.3,2.5,0.7,3.8c0,0.1,0.1,0.2,0.1,0.4
		c-0.1,0.7,0.3,1.4,0.3,2.1C62.5,169.3,62.8,169.6,62.7,169.8z"/>
	<path d="M77.3,155c0,0,0.1,0,0.1,0c0.3-0.1,0.6-0.1,0.9-0.2c0.3-0.1,0.6-0.3,0.9-0.5c0.5-0.4,0.9-0.7,1.4-1.1
		c0-0.6,0.6-0.8,0.8-1.3c0.2-0.4,0.5-0.6,0.5-1.1c0-0.1,0.1-0.3,0.2-0.4c0.5-0.7,0.7-1.5,0.9-2.2c0-0.1,0.1-0.3,0.2-0.4
		c0.6-0.7,0.9-1.6,1.1-2.5c0.1-0.3-0.3-0.5-0.1-0.8c0.2-0.2,0.3-0.5,0.5-0.7c0.1-0.2,0.3-0.5,0.4-0.8c0.3-0.7,0.6-1.5,1-2.2
		c0.4-0.7,0.7-1.4,1-2.1c0.5-1.2,1-2.4,1.3-3.6c0.1-0.5,0.3-0.9,0.6-1.3c0.2-0.4,0-0.9,0.2-1.4c0.2-0.5,0.2-1,0.3-1.5
		c0.2-0.9,0.4-1.7,0.7-2.5c0.1-0.4,0.1-0.7,0.2-1l0,0c-0.1-0.6,0.1-1,0.2-1.5c0.2-0.9,0.5-1.8,0.2-2.7c-0.1-0.2-0.1-0.4,0-0.6
		c0-0.4-0.2-0.7-0.4-1c-0.7-0.7-1.3-1.3-2.1-1.8c-0.9-0.6-1.8-1.4-2.8-1.9c-0.8-0.4-1.4-0.9-2.2-1.3c-0.2-0.2-0.4-0.3-0.7-0.5
		c-0.8-0.5-1.7-1-2.5-1.5c-1.3-0.8-2.7-1.6-4.1-2.4c-0.6-0.4-1.3-0.6-2-1c-0.6-0.4-1.2-0.8-1.9-1.2c-0.7-0.4-1.5-0.8-2.2-1.3
		c-0.7-0.5-1.5-0.9-2.2-1.3c-0.7-0.3-1.3-0.7-1.9-1.1c-0.8-0.4-1.6-0.9-2.5-1.3c-0.2-0.1-0.5-0.3-0.7-0.4c-1.1-0.6-2.2-1.3-3.4-1.9
		c-0.4-0.2-0.9-0.3-1-0.9c-0.1-0.4-0.6-0.6-1-0.7c-0.1,0-0.3,0-0.4,0.1c-0.3,0.3-0.4,0.7-0.4,1.2c0,0.6,0,1.3-0.1,1.9
		c-0.1,0.6-0.3,1.2-0.4,1.9c-0.1,0.5-0.3,0.9-0.5,1.4c-0.2,0.5-0.6,0.9-0.7,1.4c-0.2,0.5-0.5,0.9-0.8,1.4c-0.2,0.3-0.3,0.6-0.6,0.7
		c-0.3,0.2-0.3,0.4-0.3,0.7c0,0.2,0.1,0.5,0.2,0.7c0.4,1.1,1,2.1,1.5,3.2c0.4,0.8,0.9,1.6,1.3,2.5c0.5,1.2,1,2.4,1.6,3.5
		c0.4,0.8,0.7,1.6,1.1,2.4c0.5,1,0.9,2.1,1.4,3.1c0.4,0.8,0.9,1.5,1.2,2.2c0.4,1.1,1,2.2,1.6,3.3c0.5,1,1,2,1.5,3
		c0.5,1,0.9,2.1,1.4,3.1c0.7,1.3,1.3,2.7,2,4c0.1,0.2,0.2,0.4,0.3,0.7c0.7,1.7,1.6,3.4,2.5,5c0.8,1.4,1.9,2.6,2.8,4
		c0.4,0.7,1,1.3,1.6,1.8C75.5,154.8,76.5,154.7,77.3,155z M72.4,147.5c-0.5-0.6-0.8-1.4-1.2-2.1c-0.2-0.4-0.3-0.8-0.6-1.2
		c-0.8-1.6-1.5-3.3-2.3-4.9c-0.5-1.1-0.8-2.2-1.6-3.1c-0.1-0.1-0.2-0.3-0.2-0.4c-0.4-1.3-1.1-2.5-1.8-3.7c-0.2-0.3-0.3-0.6-0.4-1
		c-0.2-0.7-0.4-1.4-0.9-2.1c-0.3-0.4-0.4-1-0.6-1.4c-0.7-1.5-1.5-2.9-2.1-4.4c-0.8-1.9-1.9-3.7-2.6-5.6c-0.5-0.6-0.5-1.4-1-2
		c-0.4-0.6-0.8-1.3-1.2-2c-0.2-0.4-0.3-0.9-0.6-1.3c-0.1-0.1-0.1-0.3,0-0.4c0.3-0.4,0.7-0.7,1-1.1c0.9-1.2,1.4-2.5,2-3.9
		c0.1-0.1,0.1-0.3,0.1-0.5c0-0.2,0-0.4,0-0.6c0-0.4,0-0.9,0.4-1.1c0.4-0.2,0.8,0.2,1.1,0.5c0.5,0.5,1.1,0.8,1.7,1.2
		c0.7,0.4,1.5,0.9,2.2,1.3c0.5,0.3,1,0.6,1.6,0.9c1.3,0.7,2.6,1.5,4,2.2c1.1,0.6,2.1,1.2,3.1,1.9c0.1,0.1,0.2,0.1,0.3,0.2
		c1.2,0.6,2.4,1.4,3.6,2c2,1.1,3.9,2.3,5.8,3.5c1.2,0.8,2.6,1.5,3.8,2.4c0.9,0.6,1.8,1.3,2.5,2.1c0.2,0.2,0.2,0.4,0.3,0.6l0,0
		c-0.1,0.7-0.3,1.3-0.4,1.9c0,0.2-0.1,0.4-0.1,0.6c0.1,1.2-0.3,2.2-0.6,3.3c-0.5,1.8-0.9,3.6-1.5,5.3c-0.4,1.2-0.9,2.4-1.5,3.6
		c-0.3,0.5-0.5,1.1-0.7,1.7c0,0.1-0.1,0.2-0.2,0.3c-0.6,0.7-0.8,1.6-1,2.4c-0.2,0.6-0.5,1.3-0.7,1.9c-0.7,2.1-1.8,4.1-2.8,6.2
		c-0.1,0.2-0.3,0.4-0.5,0.5c-0.2,0.2-0.5,0.4-0.6,0.6c-0.2,0.5-0.7,0.6-1,0.9c-0.1,0.1-0.2,0-0.3,0c-0.4-0.1-0.7-0.2-1-0.5
		c-1-0.9-1.8-2-2.6-3.1C73.1,148.6,72.8,148,72.4,147.5z"/>
	<path d="M51.5,82.7c0.5-0.2,0.7,0.1,0.9,0.4c0.4,0.4,0.7,0.8,1.2,1c0.3,0.2,0.5,0.5,0.7,0.9c0.1,0.4,0.3,0.8,0.4,1.2
		c0.1,0.5,0.4,1,0.6,1.5c0.1,0.2,0.3,0.4,0.5,0.4c0.1,0,0.3-0.2,0.5-0.3c0.3-0.2,0.6-0.4,0.8-0.7c0.7-1,1.4-2,2.1-3
		c0.5-0.8,1-1.6,1.5-2.3c0.8-1.2,1.6-2.3,2.4-3.5c1-1.4,1.9-2.9,2.9-4.3c1.1-1.6,2.3-3.2,3.5-4.8c0.7-1,1.4-2,2.3-2.8
		c0.1-0.1,0.2-0.2,0.2-0.3c0.9-1.2,1.7-2.5,2.6-3.7c0.4-0.5,0.7-1.1,1.1-1.6c0.7-1.1,1.6-2.2,2.3-3.3c0.5-0.7,1-1.4,1.5-2.1
		c1-1.4,2.1-2.7,2.7-4.3c0.4-1,0.6-1.9,0.7-2.9c0-0.4,0-0.8,0-1.4h0c0-0.9,0.1-2.1-0.5-3.1c0,0,0-0.1,0-0.1
		c-0.3-1.5-0.9-2.8-1.9-3.9c-0.1-0.1-0.2-0.3-0.3-0.5c-0.3-0.6-0.6-1.1-1-1.7c-0.3-0.4-0.6-0.9-1-1.3c-1-1-1.7-2.1-2.6-3.2
		c-0.3-0.3-0.5-0.7-0.8-0.9c-0.7-0.7-1.3-1.3-1.8-2.2c-0.1-0.2-0.4-0.4-0.6-0.6c-0.4-0.4-0.7-0.7-1-1.2c-0.3-0.4-0.6-0.7-1-1
		c-0.6-0.5-1.3-1-2.2-0.5c-0.5-0.2-0.8,0.2-1.2,0.4c-0.5,0.3-1,0.5-1.3,0.9c-0.7,0.8-1.4,1.5-1.8,2.5c-0.1,0.1-0.2,0.3-0.3,0.4
		c-0.8,1.4-1.6,2.9-2,4.6c-0.3,1.2-0.7,2.4-1,3.6c-0.3,1-0.7,1.9-0.9,2.9c-0.2,1-0.6,1.9-0.6,3c0,0.1,0,0.2-0.1,0.4
		c-0.5,1.6-1,3.2-1.2,4.8c0,0.1-0.1,0.1-0.1,0.2c-0.3,1.1-0.6,2.1-0.8,3.2c-0.3,1.2-0.6,2.4-1,3.6c-0.4,1.2-0.6,2.5-0.9,3.8
		c-0.3,1.3-0.6,2.5-0.9,3.8c-0.4,1.7-0.9,3.4-1.2,5.1C53,70,53,70.8,52.7,71.7c-0.2,0.7-0.3,1.5-0.5,2.2c-0.1,0.8-0.2,1.6-0.4,2.4
		c-0.1,0.7-0.3,1.3-0.4,2c-0.1,0.9-0.3,1.8-0.5,2.6c-0.1,0.5-0.2,1.1,0.2,1.5C51.3,82.6,51.5,82.7,51.5,82.7z M53.1,80.4
		c0.2-1.1,0.5-2.1,0.6-3.2c0.1-0.6,0.1-1.2,0.3-1.8c0.2-0.7,0.3-1.4,0.4-2.1c0.2-1.5,0.7-3,1-4.5c0.2-0.8,0.2-1.5,0.5-2.2
		c0.1-1.5,0.6-2.8,0.9-4.3c0.4-2,1-3.9,1.5-5.9c0.2-0.9,0.6-1.8,0.6-2.7c0-0.1,0-0.2,0.1-0.2c0.5-1.2,0.8-2.6,1.1-3.9
		c0.4-1.8,0.9-3.6,1.4-5.4c0.6-2.4,1.3-4.8,2-7.2c0.3-1.1,0.6-2.3,1-3.4c0.5-1.5,1.3-2.9,2.3-4.2c0.3-0.4,0.8-0.7,1.3-0.9
		c0.4-0.2,0.8-0.1,1.1,0.2c0.1,0.1,0.3,0.2,0.3,0.3c0.7,1,1.6,1.8,2.2,2.9c0.3,0.6,0.8,1.1,1.3,1.6c0.7,0.7,1.4,1.4,1.9,2.2
		c0.1,0.2,0.3,0.5,0.5,0.7c0.6,0.7,1.3,1.4,1.9,2.2c0.3,0.3,0.4,0.7,0.6,1.1c0.3,0.5,0.6,1.1,1,1.5c0.5,0.6,0.8,1.3,1.1,2
		c0,0.1,0.1,0.2,0.1,0.3c0.5,1.2,0.8,2.5,0.6,3.6l0,0c0,0.4,0,0.5,0,0.6c0.2,1.3-0.3,2.6-0.8,3.8c0,0.1-0.1,0.2-0.2,0.3
		c-0.9,1.3-1.7,2.6-2.6,3.8c-0.8,1-1.5,2-2.2,3c-0.6,0.8-1.2,1.7-1.7,2.5c-0.4,0.6-0.9,1.3-1.4,1.8c-0.5,0.6-0.9,1.3-1.3,1.9
		c-0.2,0.3-0.4,0.5-0.6,0.7c-1,0.8-1.6,1.8-2.3,2.8c-0.5,0.7-1,1.5-1.5,2.2c-0.5,0.7-1.1,1.4-1.5,2.2c-1,1.2-1.6,2.5-2.5,3.7
		c-0.7,1-1.5,2-2.2,3.1c-0.7,1-1.3,2-1.9,3c-0.3,0.4-0.6,0.9-0.9,1.3c-0.3,0.3-0.3,0.8-0.7,0.9c-0.2-0.3-0.4-0.6-0.5-1
		c-0.3-0.6-0.9-1.1-1.4-1.5c-0.3-0.2-0.6-0.5-0.9-0.7C52.9,81.4,53,80.9,53.1,80.4z"/>
	<path d="M79.7,69.2c-1.1,0.8-2.3,1.6-3.2,2.8c-0.1,0.1-0.2,0.2-0.3,0.2c-0.4,0.1-0.5,0.3-0.7,0.6c-0.9,0.8-1.8,1.6-2.6,2.5
		c-0.6,0.2-0.8,0.8-1.2,1.1c-0.5,0.3-0.8,0.8-1.2,1.2c-0.3,0.3-0.6,0.5-0.9,0.7c-0.7,0.6-1.4,1-2,1.7c-0.2,0.2-0.5,0.4-0.7,0.6
		c-0.5,0.4-0.9,0.7-1.3,1.3c-0.1,0.2-0.3,0.4-0.5,0.5c-0.8,0.3-1.3,1-2,1.5c-0.5,0.4-1.1,0.8-1.6,1.3c-0.5,0.5-1.2,0.8-1.5,1.5
		c-0.5,0.2-0.6,0.8-1.1,1.1c-0.9,0.6-1.5,1.4-2.2,2c-0.3,0.3-0.5,0.6-0.5,1c0,0.7,0,1.4,0,2.2c0.4,1.1,0.5,2.3,0.5,3.5
		c0,0.2,0.1,0.5,0.3,0.6c0.5,0.4,1,0.7,1.6,0.8c0.7,0,1.4,0.1,2.1-0.1c0.2-0.1,0.5-0.1,0.7-0.1c1.1,0,2.3,0,3.4,0
		c0.7,0,1.5,0.1,2.2-0.2c0.3-0.1,0.6,0,0.8,0c1.7,0,3.4,0,5.1,0c0.3,0,0.6,0,1-0.1c0.4,0,0.8-0.2,1.2-0.1c1.2,0.1,2.4-0.2,3.6,0.2
		c0,0,0.1,0,0.1,0c0.7-0.2,1.5,0.2,2.3-0.2c0.1,0,0.2,0,0.2,0c0.8,0.4,1.6,0.1,2.1,0.2l0,0c0.9,0,1.5,0.1,2.1,0c1-0.2,2-0.2,3-0.5
		c1.1-0.2,2-0.8,3-1.3c0.1-0.1,0.3-0.2,0.3-0.4c0.1-0.3,0.3-0.4,0.5-0.6c0.2-0.2,0.4-0.5,0.6-0.8c0.5-1.1,0.8-2.3,0.9-3.6
		c0-0.8,0-1.6,0.2-2.4c0.2-0.6,0.1-1.3,0-1.9c-0.1-0.4-0.1-0.9-0.2-1.3c-0.1-1.3,0.1-2.6-0.2-3.9c-0.1-0.2,0-0.4,0-0.6
		c0-0.3-0.1-0.5-0.1-0.8c0-0.3-0.1-0.6-0.1-0.8c0.1-1-0.3-2-0.3-3c-0.3-0.5-0.1-1.1-0.3-1.6c-0.3-0.8-0.5-1.7-0.6-2.5
		c-0.4-2-1.4-3.8-2.5-5.6c-0.4-0.6-1-0.9-1.7-0.9c-0.4,0-0.8,0-1.2,0c-0.8,0-1.5,0.3-2.2,0.6c-0.2,0.1-0.5,0.3-0.7,0.4
		c-0.7,0.4-1.4,0.9-1.9,1.4C81.1,68.1,80.4,68.7,79.7,69.2z M74.1,77.2C74.1,77.2,74.1,77.3,74.1,77.2C74.1,77.2,74,77.2,74.1,77.2
		C74,77.2,74.1,77.2,74.1,77.2z M86.5,67.6c0.6-0.3,0.9-0.1,1.2,0.3c1.2,1.5,1.9,3.2,2.3,4.9c0.2,0.8,0.4,1.6,0.6,2.4
		c0.2,0.9,0.4,1.7,0.4,2.6c0,0.3,0.1,0.6,0.1,0.9c0,0.1,0.1,0.2,0.1,0.2c-0.1,1.2,0.3,2.4,0.3,3.6c0,0.3-0.1,0.6,0,0.8
		c0.2,0.4-0.1,0.8,0.1,1.2c0,0.1,0.1,0.2,0.1,0.2c-0.3,1,0.2,2,0,2.9c-0.1,0.5,0,1-0.2,1.5c-0.1,0.2-0.1,0.6,0,0.8
		c0.1,0.8-0.3,1.5-0.7,2.2c-0.4,0.6-0.9,1.1-1.5,1.5C89.1,93.9,89,94,88.7,94c-0.2,0-0.3,0.2-0.4,0.4c-0.1,0.2-0.2,0.2-0.4,0.1
		c-0.1,0-0.2-0.1-0.2-0.1c-0.9,0.4-1.9,0-2.8,0.4c-0.3,0.1-0.7,0.1-1.1,0.1c-3.6,0-7.3,0-10.9,0c-0.6,0-1.1-0.1-1.7,0.2
		c-0.2,0.1-0.6,0-0.8,0c-0.9,0-1.9,0-2.8,0c-0.5,0-1,0-1.4,0.2c-0.2,0.1-0.6,0.1-0.8,0.1c-1.1,0-2.3,0-3.4,0c-0.6,0-1.3-0.1-1.9,0.2
		c-0.2,0.1-0.5,0-0.7,0c-0.3,0-0.4-0.1-0.5-0.4c-0.2-0.9-0.2-1.9-0.5-2.8c-0.1-0.3-0.2-0.6-0.3-0.9c-0.1-0.3-0.1-0.6,0.3-0.8
		c0.9-0.3,1.5-0.9,2.2-1.5c0.6-0.5,1.3-0.9,1.8-1.4c0.7-0.7,1.6-1.1,2.2-1.9c0.1-0.1,0.3-0.2,0.4-0.3c0.8-0.5,1.5-1,2.2-1.7
		c0.6-0.5,1-1.1,1.7-1.5c0.3-0.2,0.5-0.6,0.8-0.9c0.2-0.3,0.3-0.7,0.8-0.6c0.5-0.4,1.1-0.7,1.5-1.2c0.5-0.5,1.1-1,1.6-1.5
		c0.3-0.3,0.4-0.7,0.7-0.9l0,0c0,0,0,0,0,0c0,0,0,0,0,0c0,0,0,0,0,0c0,0,0,0,0,0c0.2,0,0.3,0,0.5-0.1c0.9-0.8,1.8-1.5,2.6-2.3
		c0.3-0.3,0.7-0.7,1-1c0.8-0.6,1.5-1.3,2.3-2c0.2-0.1,0.3-0.3,0.5-0.3c0.6-0.2,1-0.7,1.5-1.2C83.8,69.3,85,68.3,86.5,67.6z"/>
	<path d="M22.4,42.8c0.1,0.3,0.1,0.6,0.2,0.9c0.4,1.1,1,2.2,1.4,3.4c0.4,1.2,0.9,2.3,1.5,3.3c0.5,0.8,0.8,1.7,1.2,2.5
		c1,1.6,1.8,3.3,2.7,4.9c0.6,1.2,1.1,2.4,1.7,3.5c0.6,1.2,1.3,2.3,1.7,3.5c0,0.1,0.1,0.2,0.2,0.3c0.5,0.5,0.7,1.2,1,1.8
		c0.3,0.7,0.6,1.4,0.9,2.1c0.4,0.8,0.9,1.6,1.2,2.4c0.4,0.9,0.9,1.6,1.3,2.5c0.3,0.7,0.7,1.3,1.1,1.9c0.2,0.3,0.4,0.6,0.5,1
		c0.1,0.5,0.4,0.9,0.7,1.3c0.7,1.2,1.4,2.3,2,3.5c0.2,0.4,0.4,0.9,1,1c0.1,0,0.1,0.2,0.1,0.3c0.1,0.4,0.3,0.7,0.7,0.7
		c0.2,0,0.5,0.2,0.7,0.3c0.2,0.1,0.4-0.1,0.5-0.3c0-0.2,0.1-0.3,0.1-0.5c0-0.3,0.2-0.5,0.4-0.7c1-0.7,2-1.2,3.2-0.7
		c0.2,0.1,0.5-0.1,0.7-0.2c0.2-0.1,0.1-0.3,0.1-0.4c0-0.2,0-0.5,0-0.7c-0.2-1.2-0.4-2.4-0.4-3.6c0-0.1,0-0.3,0-0.4
		c-0.3-0.5-0.2-1-0.2-1.6c0-0.5,0-1,0-1.5c0-0.5-0.4-0.9,0-1.4c0-0.1,0-0.2,0-0.2c-0.3-0.5-0.2-1.1-0.2-1.7c0-0.5,0-1,0-1.5
		c-0.1-1-0.2-2.1-0.2-3.1c0-0.3,0.1-0.7,0-1c-0.2-0.6-0.2-1.2-0.2-1.8c0-0.2,0-0.5-0.1-0.7c-0.2-0.5-0.2-1-0.2-1.4
		c0-0.2,0-0.5-0.1-0.7c-0.2-0.5-0.2-1.1-0.2-1.7c0-0.6,0-1.2-0.1-1.8c-0.1-0.4-0.1-0.9-0.2-1.3c0-0.3,0.1-0.7,0-1
		c-0.2-0.6-0.2-1.3-0.2-1.9c0-0.2,0-0.5-0.1-0.7c-0.1-0.4-0.1-0.7-0.1-1.1c0-0.4,0.1-0.9,0-1.3c-0.3-1.3-0.2-2.7-0.2-4
		c0-0.2,0.1-0.5,0-0.7c-0.3-0.7-0.2-1.4-0.2-2c0-0.8,0.1-1.7-0.2-2.5c-0.1-0.2,0-0.4,0-0.6c0-0.2,0-0.5-0.1-0.7
		c-0.3-0.6-0.2-1.2-0.2-1.8c0-0.6-0.1-1.2-0.1-1.8c0-0.4,0.1-0.7,0.1-1.1c0-0.4-0.1-0.8-0.2-1.2c0,0,0-0.1,0-0.1
		c0.4-0.9,0.2-1.9,0.2-2.9c0-0.4,0-0.9-0.2-1.3c-0.2-0.5-0.2-1-0.1-1.5c0.1-0.8,0.1-1.6-0.4-2.3c-0.1-0.1-0.1-0.2-0.1-0.4
		c0-0.7-0.3-1.1-0.9-1.3c-0.3-0.1-0.5-0.3-0.8-0.4c-0.7-0.4-1.5-0.4-2.2-0.2c-0.8,0.2-1.5,0.5-2.2,0.8c-0.8,0.3-1.6,0.7-2.2,1.3
		c-0.4,0.3-0.9,0.4-1.3,0.6c-0.4,0.3-0.7,0.7-1.1,1c-0.7,0.5-1.5,0.9-2.2,1.4c-0.4,0.3-0.9,0.5-1.2,0.8c-1.3,1.2-2.6,2.5-3.7,3.9
		c-0.7,1-1.5,2-2.1,3c-0.5,0.8-1.1,1.6-1.7,2.4c-0.7,0.9-1,1.8-1,3.3l0,0C22.1,41,22.2,41.9,22.4,42.8z M24.9,39.2
		c0.3-0.7,0.7-1.3,1.1-1.9c0.4-0.5,0.7-1.1,1.1-1.6c0.7-1,1.3-2.1,2.2-2.9c0.2-0.2,0.4-0.3,0.5-0.5c0.6-1.1,1.6-1.8,2.5-2.4
		c0.4-0.2,0.6-0.6,1.1-0.8c0.4-0.1,0.6-0.5,0.9-0.8c0,0,0.1-0.1,0.1-0.1c0.8-0.4,1.5-1,2.3-1.5c1.5-1,3-1.8,4.7-2.4
		c0.1,0,0.2-0.1,0.4-0.1c0.3,0,0.6,0.1,0.7,0.4c0.1,0.3,0.2,0.5,0.4,0.7c0.1,0,0.1,0.2,0.1,0.2c-0.3,0.5,0,1.1-0.1,1.6
		c0,0.6-0.1,1.1-0.1,1.7c0,0.6,0,1.1,0,1.7c0,0.6,0,1.1,0,1.7c0,0.2,0,0.5,0,0.7c0,0.4,0.3,0.6,0.4,0.9c0,0.3-0.3,0.6-0.3,0.9
		c-0.1,0.4-0.1,0.7,0,1.1c0.1,0.4,0.2,0.8,0.1,1.3c-0.1,0.4,0.1,0.8,0.1,1.2c0.1,0.6,0.2,1.1,0.2,1.7c0,0.5-0.1,1.1,0,1.6
		c0.3,1,0,2,0.4,3c0.1,0.2,0,0.5,0,0.7c0,0.7,0,1.3,0,2c0,0.2,0,0.4,0,0.6c0.3,0.7,0.2,1.5,0.2,2.3c0,0.6,0,1.1,0.2,1.7
		c0.1,0.2,0,0.5,0,0.7c0,0.7-0.1,1.4,0.2,2c0.1,0.2,0,0.5,0,0.7c0,0.3,0.1,0.6,0.1,1c0,0.3,0.1,0.6,0.1,0.8c0,0.5,0,1,0.2,1.6
		c0.1,0.2,0,0.5,0,0.7c0,0.8-0.1,1.5,0.2,2.3c0,0.1,0,0.2,0,0.4c0,1.2,0.2,2.3,0.5,3.5c0.1,0.2,0,0.5,0,0.7c0,0.8-0.1,1.5,0.2,2.3
		c0.1,0.2,0,0.5,0,0.7c0,0.5,0,1.1,0,1.6h0l0,0c0,0.5,0,1.1,0,1.6c0,0.2,0,0.4,0,0.6c0.3,0.7,0.2,1.4,0.2,2c0,0.8,0,1.7,0.2,2.5
		c0.2,0.6,0,1.3,0,1.9c0,0.2-0.1,0.3-0.3,0.3c-0.7,0.3-1.6,0.5-2.2,1.1c0,0-0.2,0-0.2,0c-0.2-0.3-0.5-0.7-0.7-1
		c-0.6-1.3-1.3-2.6-1.9-3.9c-0.5-1.2-1.2-2.3-1.7-3.5c-0.4-0.8-0.8-1.6-1.3-2.3c-0.5-0.8-0.9-1.5-1.1-2.4c-0.2-0.6-0.5-1.2-1-1.7
		c-0.2-0.2-0.3-0.4-0.3-0.7c0-0.8-0.4-1.5-1-2c-0.4-0.3-0.5-0.8-0.6-1.3c0-0.3-0.1-0.4-0.3-0.6c-0.1-0.1-0.3-0.3-0.3-0.5
		c0-0.5-0.3-0.8-0.6-1.2c-0.2-0.3-0.4-0.7-0.5-1.1c-0.2-0.7-0.4-1.3-0.8-1.9c-0.3-0.5-0.7-1-0.9-1.5c-0.2-0.5-0.6-1-0.9-1.5
		c-0.2-0.3-0.5-0.6-0.5-1.1c0-0.2-0.1-0.5-0.3-0.6c-0.4-0.3-0.6-0.8-0.8-1.2c-0.2-0.4-0.4-0.9-0.8-1.2c-0.1-0.1-0.2-0.3-0.3-0.5
		c-0.4-0.9-0.7-1.8-1.1-2.7c-0.1-0.2-0.1-0.3-0.2-0.5c-0.1-0.9-0.5-1.6-0.9-2.3c-0.4-0.7-0.5-1.4-0.6-2.2c0-0.4,0.1-0.8,0-1.1
		C24.6,40,24.7,39.6,24.9,39.2z"/>
	<path d="M43,125.8c0.3-0.8,0.6-1.7,0.8-2.5c0.1-0.4,0.2-0.8,0.3-1.1c0.2-0.6,0.5-1.2,0.6-1.9c0.1-0.7,0.2-1.3,0.5-1.9
		c0.4-1.1,0.6-2.4,0.8-3.5c0.1-0.5,0-1.1-0.2-1.7c-0.3-0.7-0.5-1.5-0.9-2.1c-0.4-0.8-0.9-1.6-1.2-2.5c-0.1-0.3-0.3-0.7-0.4-1
		c-0.1-0.3-0.4-0.4-0.8-0.5c-0.5,0-0.7,0.3-1.1,0.4c-0.5,0.1-0.9,0.4-1.2,0.8c-1.4,1.9-2.9,3.7-4.5,5.4c-0.1,0.1-0.2,0.2-0.2,0.3
		c-0.7,0.8-1.4,1.7-2.1,2.5c-0.2,0.3-0.5,0.6-0.7,0.8c-0.9,1.1-1.7,2.3-2.7,3.3c-0.1,0.1-0.3,0.3-0.4,0.5c-0.5,0.6-0.9,1.2-1.4,1.8
		c-0.8,1-1.6,1.9-2.3,2.8c-0.9,1.3-1.9,2.5-2.7,3.9c-0.1,0.2-0.3,0.4-0.4,0.6c-0.3,0.4-0.6,0.7-0.8,1.1c-0.7,1.1-1.4,2.2-2.1,3.3
		c-0.9,1.4-1.6,2.9-2.5,4.3c-0.3,0.4-0.4,0.8-0.2,1.4c0.1,0.3,0.1,0.7,0,1c-0.2,0.6-0.2,1.3-0.2,1.6l0,0c0,1.4,0.2,2.5,0.6,3.6
		c0.3,1,0.6,2,1.2,2.9c0.4,1.2,1,2.2,1.5,3.3c0.5,1.1,1.1,2.2,1.8,3.2c1.7,2.5,3.2,5.1,5.4,7.2c0.2,0.5,0.7,0.7,1.1,1.1
		c0.5,0.5,1.1,0.6,1.7,0.9c0.5,0.2,1-0.1,1.5-0.2c0.3-0.1,0.4-0.4,0.6-0.6c0.6-0.8,1-1.7,1.5-2.6c0.2-0.4,0.4-0.9,0.5-1.4
		c0.2-0.7,0.4-1.3,0.6-2c0.3-0.8,0.3-1.7,0.7-2.6c0-1,0.6-1.9,0.6-3c0.5-1.1,0.3-2.4,0.9-3.5c0.1-0.1,0-0.3,0-0.5
		c0.1-1.1,0.2-2.2,0.6-3.2c0-0.1,0.1-0.2,0.1-0.3c0.2-0.9,0.3-1.8,0.5-2.6c0.3-0.9,0.2-1.8,0.4-2.6c0.4-1.5,0.6-3.1,1.2-4.6
		c0.4-1.1,0.5-2.3,1-3.4c0-0.1,0-0.2,0-0.2c0.2-1,0.4-1.9,0.7-2.8C42.3,127.8,42.6,126.8,43,125.8z M40.9,125.3
		c-0.1,0.2-0.1,0.5-0.2,0.7c-0.7,1.4-0.9,2.9-1.4,4.4c-0.2,0.7-0.3,1.4-0.6,2.1c-0.7,2-1,4.2-1.6,6.2c-0.2,0.8-0.2,1.6-0.3,2.4
		c-0.1,0.7-0.2,1.4-0.3,2c-0.2,1.2-0.5,2.4-0.7,3.6c-0.2,1.2-0.5,2.4-0.8,3.5c-0.4,1.5-0.7,2.9-1.1,4.3c-0.5,2-1.2,3.9-1.8,5.8
		c-0.2,0.6-0.6,1-0.8,1.6c-0.1,0.3-0.7,0.3-1,0.2c-0.2-0.1-0.3-0.3-0.5-0.4c-1-1-1.9-2-2.6-3.2c-0.1-0.2-0.3-0.4-0.5-0.6
		c-0.2-0.3-0.4-0.5-0.5-0.8c-0.5-1.2-1.4-2.2-2.1-3.3c-0.2-0.3-0.4-0.7-0.6-1.1c-0.6-1.2-1.3-2.4-1.9-3.7c-0.4-0.8-0.6-1.7-1.2-2.4
		c-0.1-0.8-0.7-1.5-0.8-2.3c-0.1-0.5,0-1-0.1-1.5c0-0.7,0-1.4-0.1-2.1c-0.1-0.5,0-1,0.2-1.4c0.5-1.1,1-2.1,1.6-3.1
		c0.6-1,1.4-2,2-3.1c0.3-0.5,0.7-0.9,1-1.4c0.3-0.4,0.6-0.7,0.8-1.1c0.6-1.2,1.5-2.1,2.2-3.2c0.4-0.6,0.9-1.1,1.3-1.6
		c0.9-1.2,1.7-2.3,2.6-3.5c0.1-0.1,0.2-0.3,0.3-0.4c0.7-0.6,1.1-1.4,1.8-1.9c0.1-0.1,0.2-0.2,0.3-0.4c0.6-0.8,1.2-1.6,1.9-2.4
		c0.6-0.8,1.3-1.5,1.9-2.2c0.9-0.9,1.7-1.9,2.4-2.9c0.5-0.6,1-1.2,1.5-1.9c0.1-0.2,0.3-0.2,0.4,0.1c0,0.1,0.1,0.1,0.1,0.2
		c0.3,0.8,0.7,1.5,1.2,2.2c0.4,0.5,0.3,1.2,0.3,1.8l0,0c0,1-0.2,2-0.6,3c-0.3,0.6-0.4,1.2-0.4,1.9c0,0.3-0.1,0.6-0.2,0.9
		C41.9,122.1,41.4,123.7,40.9,125.3z"/>
	<path d="M11.6,81.7c0.3,0.5,0.7,1,1.1,1.4c0.5,0.6,1.1,1.1,1.8,1.4c0.4,0.1,0.7,0.4,1.1,0.4c0.3,0,0.6,0.2,0.8,0.3
		c0.8,0.7,1.9,0.9,2.8,1.5c0.1,0,0.1,0.1,0.2,0.1c0.8,0.1,1.4,0.5,2.1,0.8c0.7,0.2,1.4,0.5,2,0.8c0.7,0.3,1.2,0.8,2,0.8
		c0.7,0.5,1.6,0.4,2.3,1c0.1,0,0.2,0,0.2,0.1c1.3,0.4,2.6,0.8,3.9,1.2c0.2,0.1,0.4,0.2,0.6,0.3c0.3,0.1,0.6,0.3,0.9,0.4
		c0.9,0.2,1.8,0.5,2.7,1c0.5,0.2,1,0.4,1.5,0.5c0.6,0.1,1.3,0.3,1.9,0.4c0.5,0.1,0.6,0.1,0.8-0.4c0.3-0.8,0.4-1.6,0.5-2.4
		c0-0.4,0.2-0.8,0.3-1.2c0.2-0.5,0.4-1,0.7-1.5c0.3-0.5,0.3-1.1,0.1-1.6c0-0.1-0.1-0.3,0-0.5c0.1-0.3,0-0.4-0.1-0.7
		c-0.5-0.9-1.3-1.5-1.9-2.4c-0.7-1-1.5-1.9-2.2-2.8c-0.2-0.2-0.3-0.5-0.5-0.7c-0.5-0.5-1-1.1-1.4-1.7c-0.1-0.2-0.3-0.4-0.4-0.6
		C34.6,76.8,34,76,33.5,75c-0.4-0.7-0.8-1.4-1.4-2c-0.8-0.8-1.2-1.9-2.1-2.7c-0.6-1-1.4-1.9-2.1-2.8c-0.3-0.3-0.5-0.7-0.8-1
		c-0.3-0.4-0.7-0.7-1-1.2c-0.3-0.4-0.6-0.8-1-1.2c-0.7-0.8-1.4-1.6-2.1-2.4c-0.5-0.5-0.9-1-1.4-1.5c-0.6-0.7-1.4-1.2-2.1-1.8
		c-0.4-0.3-0.9-0.5-1.4-0.4v0c-0.2,0-0.3,0-0.3,0c-0.5,0-0.9,0.1-1.3,0.5c-0.4,0.4-0.8,0.8-1,1.3c-0.3,0.6-0.9,1.2-1.1,1.8
		c-0.1,0.2-0.2,0.4-0.3,0.5c-0.3,0.4-0.5,0.9-0.5,1.5c0,0.3-0.1,0.6-0.3,0.9c-0.1,0.2-0.2,0.4-0.2,0.6c-0.2,1.4-0.6,2.7-0.7,4.1
		c0,0.5-0.1,1.1-0.4,1.6c-0.1,0.2-0.1,0.4,0,0.6c0.1,0.2,0.1,0.4,0,0.6c-0.1,0.2-0.1,0.4,0,0.6c0.1,0.2,0.1,0.4,0,0.6
		c-0.3,0.6-0.4,1.2-0.2,1.9c0.1,0.3,0,0.5,0.1,0.8c-0.4,0.2-0.2,0.7-0.3,0.9c-0.3,0.4-0.2,0.9-0.3,1.4c-0.1,0.4,0,0.8-0.2,1.2
		c-0.2,0.5,0.1,0.9,0.1,1.3C11.2,81,11.4,81.4,11.6,81.7z M13.4,78.7L13.4,78.7c0-0.1,0.2-0.5,0.1-0.8c-0.1-0.4,0.2-0.8,0.1-1.2
		c-0.1-0.4-0.2-0.7-0.2-1.1c0-0.1,0-0.4,0.1-0.4c0.3-0.2,0.3-0.5,0.4-0.9c0.1-0.6,0.2-1.2,0.2-1.8c0-0.6,0.1-1.2,0.1-1.8
		c0-0.1,0-0.2,0-0.2c0.3-0.6,0.3-1.3,0.5-1.9c0.4-1.2,0.5-2.5,0.9-3.8c0.2-0.6,0.3-1.2,0.6-1.7c0.6-1,1.1-2,1.7-2.9
		c0.2-0.3,0.4-0.3,0.6-0.1c0.6,0.4,1.3,0.8,1.7,1.4c0.2,0.3,0.5,0.7,0.8,0.9c0.6,0.3,1,0.8,1.3,1.4c0.5,0.7,1.1,1.2,1.5,1.9
		c0.2,0.3,0.5,0.5,0.7,0.8c0.8,1,1.7,2,2.4,3.1c0.2,0.3,0.5,0.5,0.7,0.8c0.2,0.2,0.5,0.5,0.6,0.8c0.3,0.5,0.6,0.9,1.1,1.3
		c0.1,0.1,0.2,0.2,0.3,0.2c0.1,0.8,0.9,1.1,1.2,1.8c0.1,0.2,0.4,0.4,0.5,0.7c0.5,1.1,1.4,2,2,3c0.4,0.7,0.8,1.3,1.4,1.8
		c0.3,0.3,0.5,0.6,0.7,1c0.2,0.3,0.4,0.6,0.7,0.8c0.1,0,0.2,0.1,0.3,0.2c0.4,0.8,1,1.4,1.6,2.1c0.5,0.7,1.1,1.5,1.6,2.2
		c0.1,0.1,0.2,0.2,0.3,0.3c0.1,0.1,0.5,0.1,0.4,0.4c0,0.1-0.2,0.2-0.4,0.3c-0.1,0.1-0.1,0.2-0.2,0.3c0,0,0,0.1,0,0.1
		c0.1,0.5-0.5,0.6-0.5,1c-0.1,0.4,0,0.8-0.1,1.2c-0.5,0.2-0.1,0.9-0.5,1.1c-0.1,0-0.1,0.1-0.1,0.2c0,0.2,0,0.6-0.1,0.7
		c-0.2,0.2-0.5-0.1-0.7-0.2c-0.7-0.3-1.3-0.6-2-0.9c-0.7-0.3-1.3-0.6-2-0.9c-0.3-0.1-0.5-0.2-0.8-0.3c-0.3-0.1-0.5-0.2-0.8-0.2
		c-1.9-0.7-3.8-1.4-5.7-2.2c-1.3-0.5-2.5-1-3.8-1.5c-1.2-0.5-2.4-0.9-3.6-1.5c-1.2-0.6-2.4-1.1-3.6-1.7c-0.3-0.1-0.6-0.3-0.8-0.5
		c-0.9-0.7-1.3-1.7-1.3-2.8C13.4,79.2,13.4,79.1,13.4,78.7z"/>
	<path d="M21.4,122.4c0.7-0.6,1.5-1.1,2.2-1.8c0.9-0.7,1.7-1.4,2.5-2.2c0.1-0.1,0.1-0.1,0.2-0.2c1.1-0.7,2.1-1.5,2.9-2.4
		c0.1-0.1,0.2-0.2,0.4-0.3c1.1-0.8,2.1-1.7,3.1-2.6c1.7-1.6,3.4-3.2,5.2-4.7c1-0.9,1.9-1.9,2.9-2.8c0.4-0.3,0.3-0.4,0-0.9
		c-0.1-0.1-0.2-0.3-0.2-0.4c0-0.2,0-0.4-0.1-0.6c-0.3-1.1-0.5-2.2-0.4-3.3c0-0.2,0-0.4,0-0.6c-0.1-0.4-0.2-0.9-0.4-1.3
		c0-0.1-0.2-0.3-0.4-0.3c-1,0-1.9-0.1-2.9,0.1c-0.4,0.1-0.9,0.1-1.3,0.1c-1.4,0-2.7,0-4.1,0c-0.2,0-0.5,0-0.7,0
		c-0.6,0.1-1.1,0.3-1.7,0c-0.1-0.1-0.3,0-0.5,0.1c-0.2,0.1-0.5,0.1-0.7,0c-0.9-0.1-1.8-0.1-2.7-0.2c-0.9,0-1.8,0-2.7,0
		c-0.3,0-0.6,0-0.9,0l0,0c-1.5,0-3,0-4.5,0c-1,0-1.9,0.2-2.8,0.5c-0.2,0-0.3,0.1-0.5,0.2c-0.6,0.3-1.1,0.7-1.7,1
		c-0.9,0.6-1.8,1.3-1.9,2.6c0,0.2-0.1,0.3-0.2,0.5c-0.3,1-0.6,2-0.5,3.1c0,1.1,0,2.2,0.2,3.4c0.2,1.1,0.4,2.2,0.3,3.4
		c0,0.1,0,0.2,0,0.4c0.3,0.8,0.3,1.6,0.5,2.4c0.1,0.5,0.3,1,0.3,1.5c0,0.5,0.2,0.9,0.2,1.4c0,0.5,0,1,0,1.5c0,0.2,0.1,0.4,0.2,0.6
		c0.4,1,0.6,2,1,3c0.3,0.9,0.6,1.7,0.9,2.6c0.2,0.7,0.7,1,1.4,0.8c0.4-0.1,0.9-0.3,1.3-0.4c1.6-0.7,3-1.6,4.3-2.6
		C20.2,123.4,20.8,122.9,21.4,122.4z M14.5,124.9c-0.1,0-0.3-0.1-0.3-0.1c-0.2-0.4-0.5-0.7-0.6-1.1c-0.3-1.4-1-2.6-1.2-3.9
		c0-0.3-0.1-0.6-0.1-0.8c0-0.4,0-0.7-0.2-1.1c-0.1-0.2-0.1-0.4-0.1-0.6c0.1-0.9-0.2-1.8-0.4-2.7c0-0.2-0.1-0.4-0.1-0.6
		c0-0.2,0-0.4,0-0.6c-0.4-1-0.2-2-0.2-3c0-0.4,0-0.8-0.2-1.2c-0.1-0.2-0.1-0.5-0.1-0.7c0-0.5,0-1.1,0-1.6h0c0-0.1,0-0.2,0-0.2
		c-0.1-1.4,0.3-2.7,0.7-4c0.1-0.2,0.1-0.3,0.2-0.4c0.7-0.7,1.4-1.5,2.5-1.7c0.3-0.1,0.6-0.1,0.8-0.1c0.5,0,0.9,0,1.4-0.2
		c0.4-0.1,0.8,0.1,1.2,0.1c0.2,0,0.3,0,0.5,0c0.9-0.1,1.9,0,2.8,0.1c0.5,0,1-0.1,1.4,0.1c0.4-0.3,0.9,0,1.3-0.1
		c0.6-0.1,1.1-0.1,1.7,0.1c0.2,0.1,0.4,0.1,0.6,0c0.6-0.3,1.3-0.2,2-0.2c0.4,0,0.8,0,1.2,0c0.6,0,1.2,0,1.7-0.3
		c0.2-0.1,0.3-0.1,0.4,0.1c0.3,0.2,0.6,0.3,0.9,0.1c0.3-0.1,0.6-0.1,0.9-0.1c0.8,0,1.7,0,2.5,0c0.4,0,0.8,0,1.2-0.2
		c0.1-0.1,0.3-0.1,0.5-0.1c0.7,0,1,0.3,0.8,1c-0.2,0.8-0.2,1.5,0,2.3c0.1,0.7,0.3,1.3,0.5,2c0.1,0.2,0,0.4-0.2,0.5
		c-0.6,0.4-1.1,0.8-1.6,1.3c-0.4,0.4-0.6,0.9-1,1.2c-0.4,0.3-0.9,0.6-1.3,0.9c-0.3,0.2-0.5,0.4-0.7,0.7c-0.5,0.4-0.8,1-1.4,1.4
		c-0.5,0.3-0.9,0.8-1.4,1.2c-0.4,0.2-0.6,0.6-1,0.9c-1.4,1.1-2.6,2.4-4.1,3.3c-0.7,0.4-1.3,1-1.9,1.5c-0.3,0.2-0.5,0.4-0.8,0.6
		c-1.1,0.9-2.2,1.7-3.3,2.6c-1.5,1.3-3.2,2.5-4.9,3.5C15,124.8,14.7,124.8,14.5,124.9z"/>
</g>
</svg>
