<svg width="186" height="186" viewBox="0 0 186 186" fill="none" xmlns="http://www.w3.org/2000/svg">
<path d="M57.6417 0.359375H51.2527V6.74838H57.6417V0.359375Z" fill="#E90866"/>
<path d="M64.0307 0.359375H57.6417V6.74838H64.0307V0.359375Z" fill="#E90866"/>
<path d="M70.4199 0.359375H64.0309V6.74838H70.4199V0.359375Z" fill="#E90866"/>
<path d="M102.365 0.359375H95.9758V6.74838H102.365V0.359375Z" fill="#E90866"/>
<path d="M108.754 0.359375H102.365V6.74838H108.754V0.359375Z" fill="#E90866"/>
<path d="M127.921 0.359375H121.532V6.74838H127.921V0.359375Z" fill="#E90866"/>
<path d="M134.31 0.359375H127.921V6.74838H134.31V0.359375Z" fill="#E90866"/>
<path d="M57.6417 6.74854H51.2527V13.1375H57.6417V6.74854Z" fill="#E90866"/>
<path d="M64.0307 6.74854H57.6417V13.1375H64.0307V6.74854Z" fill="#E90866"/>
<path d="M95.9758 6.74854H89.5868V13.1375H95.9758V6.74854Z" fill="#E90866"/>
<path d="M102.365 6.74854H95.9758V13.1375H102.365V6.74854Z" fill="#E90866"/>
<path d="M121.532 6.74854H115.143V13.1375H121.532V6.74854Z" fill="#E90866"/>
<path d="M64.0307 13.1373H57.6417V19.5263H64.0307V13.1373Z" fill="#E90866"/>
<path d="M83.1976 13.1373H76.8086V19.5263H83.1976V13.1373Z" fill="#E90866"/>
<path d="M89.5869 13.1373H83.1979V19.5263H89.5869V13.1373Z" fill="#E90866"/>
<path d="M95.9758 13.1373H89.5868V19.5263H95.9758V13.1373Z" fill="#E90866"/>
<path d="M102.365 13.1373H95.9758V19.5263H102.365V13.1373Z" fill="#E90866"/>
<path d="M127.921 13.1373H121.532V19.5263H127.921V13.1373Z" fill="#E90866"/>
<path d="M134.31 13.1373H127.921V19.5263H134.31V13.1373Z" fill="#E90866"/>
<path d="M57.6417 19.5264H51.2527V25.9154H57.6417V19.5264Z" fill="#E90866"/>
<path d="M70.4199 19.5264H64.0309V25.9154H70.4199V19.5264Z" fill="#E90866"/>
<path d="M76.8089 19.5264H70.4199V25.9154H76.8089V19.5264Z" fill="#E90866"/>
<path d="M83.1976 19.5264H76.8086V25.9154H83.1976V19.5264Z" fill="#E90866"/>
<path d="M115.143 19.5264H108.754V25.9154H115.143V19.5264Z" fill="#E90866"/>
<path d="M89.5869 25.9155H83.1979V32.3045H89.5869V25.9155Z" fill="#E90866"/>
<path d="M115.143 25.9155H108.754V32.3045H115.143V25.9155Z" fill="#E90866"/>
<path d="M127.921 25.9155H121.532V32.3045H127.921V25.9155Z" fill="#E90866"/>
<path d="M95.9758 32.3043H89.5868V38.6933H95.9758V32.3043Z" fill="#E90866"/>
<path d="M108.754 32.3043H102.365V38.6933H108.754V32.3043Z" fill="#E90866"/>
<path d="M121.532 32.3043H115.143V38.6933H121.532V32.3043Z" fill="#E90866"/>
<path d="M127.921 32.3043H121.532V38.6933H127.921V32.3043Z" fill="#E90866"/>
<path d="M134.31 32.3043H127.921V38.6933H134.31V32.3043Z" fill="#E90866"/>
<path d="M57.6417 38.6935H51.2527V45.0825H57.6417V38.6935Z" fill="#E90866"/>
<path d="M70.4199 38.6935H64.0309V45.0825H70.4199V38.6935Z" fill="#E90866"/>
<path d="M83.1976 38.6935H76.8086V45.0825H83.1976V38.6935Z" fill="#E90866"/>
<path d="M95.9758 38.6935H89.5868V45.0825H95.9758V38.6935Z" fill="#E90866"/>
<path d="M108.754 38.6935H102.365V45.0825H108.754V38.6935Z" fill="#E90866"/>
<path d="M121.532 38.6935H115.143V45.0825H121.532V38.6935Z" fill="#E90866"/>
<path d="M134.31 38.6935H127.921V45.0825H134.31V38.6935Z" fill="#E90866"/>
<path d="M57.6417 45.0824H51.2527V51.4714H57.6417V45.0824Z" fill="#E90866"/>
<path d="M83.1976 45.0824H76.8086V51.4714H83.1976V45.0824Z" fill="#E90866"/>
<path d="M89.5869 45.0824H83.1979V51.4714H89.5869V45.0824Z" fill="#E90866"/>
<path d="M95.9758 45.0824H89.5868V51.4714H95.9758V45.0824Z" fill="#E90866"/>
<path d="M102.365 45.0824H95.9758V51.4714H102.365V45.0824Z" fill="#E90866"/>
<path d="M115.143 45.0824H108.754V51.4714H115.143V45.0824Z" fill="#E90866"/>
<path d="M121.532 45.0824H115.143V51.4714H121.532V45.0824Z" fill="#E90866"/>
<path d="M127.921 45.0824H121.532V51.4714H127.921V45.0824Z" fill="#E90866"/>
<path d="M6.52963 51.4714H0.140625V57.8604H6.52963V51.4714Z" fill="#E90866"/>
<path d="M19.3076 51.4714H12.9186V57.8604H19.3076V51.4714Z" fill="#E90866"/>
<path d="M25.6966 51.4714H19.3076V57.8604H25.6966V51.4714Z" fill="#E90866"/>
<path d="M38.4746 51.4714H32.0856V57.8604H38.4746V51.4714Z" fill="#E90866"/>
<path d="M44.8637 51.4714H38.4747V57.8604H44.8637V51.4714Z" fill="#E90866"/>
<path d="M51.2528 51.4714H44.8638V57.8604H51.2528V51.4714Z" fill="#E90866"/>
<path d="M64.0307 51.4714H57.6417V57.8604H64.0307V51.4714Z" fill="#E90866"/>
<path d="M70.4199 51.4714H64.0309V57.8604H70.4199V51.4714Z" fill="#E90866"/>
<path d="M76.8089 51.4714H70.4199V57.8604H76.8089V51.4714Z" fill="#E90866"/>
<path d="M83.1976 51.4714H76.8086V57.8604H83.1976V51.4714Z" fill="#E90866"/>
<path d="M89.5869 51.4714H83.1979V57.8604H89.5869V51.4714Z" fill="#E90866"/>
<path d="M95.9758 51.4714H89.5868V57.8604H95.9758V51.4714Z" fill="#E90866"/>
<path d="M115.143 51.4714H108.754V57.8604H115.143V51.4714Z" fill="#E90866"/>
<path d="M121.532 51.4714H115.143V57.8604H121.532V51.4714Z" fill="#E90866"/>
<path d="M147.088 51.4714H140.699V57.8604H147.088V51.4714Z" fill="#E90866"/>
<path d="M166.255 51.4714H159.866V57.8604H166.255V51.4714Z" fill="#E90866"/>
<path d="M179.033 51.4714H172.644V57.8604H179.033V51.4714Z" fill="#E90866"/>
<path d="M185.422 51.4714H179.033V57.8604H185.422V51.4714Z" fill="#E90866"/>
<path d="M6.52963 57.8604H0.140625V64.2494H6.52963V57.8604Z" fill="#E90866"/>
<path d="M12.9189 57.8604H6.52991V64.2494H12.9189V57.8604Z" fill="#E90866"/>
<path d="M19.3076 57.8604H12.9186V64.2494H19.3076V57.8604Z" fill="#E90866"/>
<path d="M25.6966 57.8604H19.3076V64.2494H25.6966V57.8604Z" fill="#E90866"/>
<path d="M38.4746 57.8604H32.0856V64.2494H38.4746V57.8604Z" fill="#E90866"/>
<path d="M51.2528 57.8604H44.8638V64.2494H51.2528V57.8604Z" fill="#E90866"/>
<path d="M57.6417 57.8604H51.2527V64.2494H57.6417V57.8604Z" fill="#E90866"/>
<path d="M70.4199 57.8604H64.0309V64.2494H70.4199V57.8604Z" fill="#E90866"/>
<path d="M76.8089 57.8604H70.4199V64.2494H76.8089V57.8604Z" fill="#E90866"/>
<path d="M108.754 57.8604H102.365V64.2494H108.754V57.8604Z" fill="#E90866"/>
<path d="M115.143 57.8604H108.754V64.2494H115.143V57.8604Z" fill="#E90866"/>
<path d="M121.532 57.8604H115.143V64.2494H121.532V57.8604Z" fill="#E90866"/>
<path d="M127.921 57.8604H121.532V64.2494H127.921V57.8604Z" fill="#E90866"/>
<path d="M147.088 57.8604H140.699V64.2494H147.088V57.8604Z" fill="#E90866"/>
<path d="M153.477 57.8604H147.088V64.2494H153.477V57.8604Z" fill="#E90866"/>
<path d="M159.866 57.8604H153.477V64.2494H159.866V57.8604Z" fill="#E90866"/>
<path d="M185.422 57.8604H179.033V64.2494H185.422V57.8604Z" fill="#E90866"/>
<path d="M25.6966 64.2496H19.3076V70.6386H25.6966V64.2496Z" fill="#E90866"/>
<path d="M44.8637 64.2496H38.4747V70.6386H44.8637V64.2496Z" fill="#E90866"/>
<path d="M64.0307 64.2496H57.6417V70.6386H64.0307V64.2496Z" fill="#E90866"/>
<path d="M76.8089 64.2496H70.4199V70.6386H76.8089V64.2496Z" fill="#E90866"/>
<path d="M95.9758 64.2496H89.5868V70.6386H95.9758V64.2496Z" fill="#E90866"/>
<path d="M108.754 64.2496H102.365V70.6386H108.754V64.2496Z" fill="#E90866"/>
<path d="M121.532 64.2496H115.143V70.6386H121.532V64.2496Z" fill="#E90866"/>
<path d="M134.31 64.2496H127.921V70.6386H134.31V64.2496Z" fill="#E90866"/>
<path d="M140.699 64.2496H134.31V70.6386H140.699V64.2496Z" fill="#E90866"/>
<path d="M153.477 64.2496H147.088V70.6386H153.477V64.2496Z" fill="#E90866"/>
<path d="M159.866 64.2496H153.477V70.6386H159.866V64.2496Z" fill="#E90866"/>
<path d="M172.644 64.2496H166.255V70.6386H172.644V64.2496Z" fill="#E90866"/>
<path d="M179.033 64.2496H172.644V70.6386H179.033V64.2496Z" fill="#E90866"/>
<path d="M6.52963 70.6385H0.140625V77.0276H6.52963V70.6385Z" fill="#E90866"/>
<path d="M12.9189 70.6385H6.52991V77.0276H12.9189V70.6385Z" fill="#E90866"/>
<path d="M32.0858 70.6385H25.6968V77.0276H32.0858V70.6385Z" fill="#E90866"/>
<path d="M38.4746 70.6385H32.0856V77.0276H38.4746V70.6385Z" fill="#E90866"/>
<path d="M51.2528 70.6385H44.8638V77.0276H51.2528V70.6385Z" fill="#E90866"/>
<path d="M57.6417 70.6385H51.2527V77.0276H57.6417V70.6385Z" fill="#E90866"/>
<path d="M89.5869 70.6385H83.1979V77.0276H89.5869V70.6385Z" fill="#E90866"/>
<path d="M95.9758 70.6385H89.5868V77.0276H95.9758V70.6385Z" fill="#E90866"/>
<path d="M102.365 70.6385H95.9758V77.0276H102.365V70.6385Z" fill="#E90866"/>
<path d="M134.31 70.6385H127.921V77.0276H134.31V70.6385Z" fill="#E90866"/>
<path d="M153.477 70.6385H147.088V77.0276H153.477V70.6385Z" fill="#E90866"/>
<path d="M159.866 70.6385H153.477V77.0276H159.866V70.6385Z" fill="#E90866"/>
<path d="M185.422 70.6385H179.033V77.0276H185.422V70.6385Z" fill="#E90866"/>
<path d="M12.9189 77.0273H6.52991V83.4164H12.9189V77.0273Z" fill="#E90866"/>
<path d="M19.3076 77.0273H12.9186V83.4164H19.3076V77.0273Z" fill="#E90866"/>
<path d="M25.6966 77.0273H19.3076V83.4164H25.6966V77.0273Z" fill="#E90866"/>
<path d="M32.0858 77.0273H25.6968V83.4164H32.0858V77.0273Z" fill="#E90866"/>
<path d="M38.4746 77.0273H32.0856V83.4164H38.4746V77.0273Z" fill="#E90866"/>
<path d="M44.8637 77.0273H38.4747V83.4164H44.8637V77.0273Z" fill="#E90866"/>
<path d="M70.4199 77.0273H64.0309V83.4164H70.4199V77.0273Z" fill="#E90866"/>
<path d="M83.1976 77.0273H76.8086V83.4164H83.1976V77.0273Z" fill="#E90866"/>
<path d="M115.143 77.0273H108.754V83.4164H115.143V77.0273Z" fill="#E90866"/>
<path d="M127.921 77.0273H121.532V83.4164H127.921V77.0273Z" fill="#E90866"/>
<path d="M166.255 77.0273H159.866V83.4164H166.255V77.0273Z" fill="#E90866"/>
<path d="M172.644 77.0273H166.255V83.4164H172.644V77.0273Z" fill="#E90866"/>
<path d="M19.3076 83.4165H12.9186V89.8055H19.3076V83.4165Z" fill="#E90866"/>
<path d="M25.6966 83.4165H19.3076V89.8055H25.6966V83.4165Z" fill="#E90866"/>
<path d="M51.2528 83.4165H44.8638V89.8055H51.2528V83.4165Z" fill="#E90866"/>
<path d="M70.4199 83.4165H64.0309V89.8055H70.4199V83.4165Z" fill="#E90866"/>
<path d="M76.8089 83.4165H70.4199V89.8055H76.8089V83.4165Z" fill="#E90866"/>
<path d="M89.5869 83.4165H83.1979V89.8055H89.5869V83.4165Z" fill="#E90866"/>
<path d="M102.365 83.4165H95.9758V89.8055H102.365V83.4165Z" fill="#E90866"/>
<path d="M108.754 83.4165H102.365V89.8055H108.754V83.4165Z" fill="#E90866"/>
<path d="M115.143 83.4165H108.754V89.8055H115.143V83.4165Z" fill="#E90866"/>
<path d="M121.532 83.4165H115.143V89.8055H121.532V83.4165Z" fill="#E90866"/>
<path d="M127.921 83.4165H121.532V89.8055H127.921V83.4165Z" fill="#E90866"/>
<path d="M147.088 83.4165H140.699V89.8055H147.088V83.4165Z" fill="#E90866"/>
<path d="M153.477 83.4165H147.088V89.8055H153.477V83.4165Z" fill="#E90866"/>
<path d="M172.644 83.4165H166.255V89.8055H172.644V83.4165Z" fill="#E90866"/>
<path d="M179.033 83.4165H172.644V89.8055H179.033V83.4165Z" fill="#E90866"/>
<path d="M185.422 83.4165H179.033V89.8055H185.422V83.4165Z" fill="#E90866"/>
<path d="M19.3076 89.8055H12.9186V96.1946H19.3076V89.8055Z" fill="#E90866"/>
<path d="M25.6966 89.8055H19.3076V96.1946H25.6966V89.8055Z" fill="#E90866"/>
<path d="M44.8637 89.8055H38.4747V96.1946H44.8637V89.8055Z" fill="#E90866"/>
<path d="M70.4199 89.8055H64.0309V96.1946H70.4199V89.8055Z" fill="#E90866"/>
<path d="M95.9758 89.8055H89.5868V96.1946H95.9758V89.8055Z" fill="#E90866"/>
<path d="M108.754 89.8055H102.365V96.1946H108.754V89.8055Z" fill="#E90866"/>
<path d="M121.532 89.8055H115.143V96.1946H121.532V89.8055Z" fill="#E90866"/>
<path d="M127.921 89.8055H121.532V96.1946H127.921V89.8055Z" fill="#E90866"/>
<path d="M134.31 89.8055H127.921V96.1946H134.31V89.8055Z" fill="#E90866"/>
<path d="M140.699 89.8055H134.31V96.1946H140.699V89.8055Z" fill="#E90866"/>
<path d="M172.644 89.8055H166.255V96.1946H172.644V89.8055Z" fill="#E90866"/>
<path d="M179.033 89.8055H172.644V96.1946H179.033V89.8055Z" fill="#E90866"/>
<path d="M185.422 89.8055H179.033V96.1946H185.422V89.8055Z" fill="#E90866"/>
<path d="M25.6966 96.1945H19.3076V102.583H25.6966V96.1945Z" fill="#E90866"/>
<path d="M32.0858 96.1945H25.6968V102.583H32.0858V96.1945Z" fill="#E90866"/>
<path d="M51.2528 96.1945H44.8638V102.583H51.2528V96.1945Z" fill="#E90866"/>
<path d="M57.6417 96.1945H51.2527V102.583H57.6417V96.1945Z" fill="#E90866"/>
<path d="M70.4199 96.1945H64.0309V102.583H70.4199V96.1945Z" fill="#E90866"/>
<path d="M76.8089 96.1945H70.4199V102.583H76.8089V96.1945Z" fill="#E90866"/>
<path d="M83.1976 96.1945H76.8086V102.583H83.1976V96.1945Z" fill="#E90866"/>
<path d="M89.5869 96.1945H83.1979V102.583H89.5869V96.1945Z" fill="#E90866"/>
<path d="M102.365 96.1945H95.9758V102.583H102.365V96.1945Z" fill="#E90866"/>
<path d="M108.754 96.1945H102.365V102.583H108.754V96.1945Z" fill="#E90866"/>
<path d="M121.532 96.1945H115.143V102.583H121.532V96.1945Z" fill="#E90866"/>
<path d="M147.088 96.1945H140.699V102.583H147.088V96.1945Z" fill="#E90866"/>
<path d="M159.866 96.1945H153.477V102.583H159.866V96.1945Z" fill="#E90866"/>
<path d="M179.033 96.1945H172.644V102.583H179.033V96.1945Z" fill="#E90866"/>
<path d="M6.52963 102.583H0.140625V108.973H6.52963V102.583Z" fill="#E90866"/>
<path d="M19.3076 102.583H12.9186V108.973H19.3076V102.583Z" fill="#E90866"/>
<path d="M25.6966 102.583H19.3076V108.973H25.6966V102.583Z" fill="#E90866"/>
<path d="M32.0858 102.583H25.6968V108.973H32.0858V102.583Z" fill="#E90866"/>
<path d="M44.8637 102.583H38.4747V108.973H44.8637V102.583Z" fill="#E90866"/>
<path d="M70.4199 102.583H64.0309V108.973H70.4199V102.583Z" fill="#E90866"/>
<path d="M76.8089 102.583H70.4199V108.973H76.8089V102.583Z" fill="#E90866"/>
<path d="M108.754 102.583H102.365V108.973H108.754V102.583Z" fill="#E90866"/>
<path d="M127.921 102.583H121.532V108.973H127.921V102.583Z" fill="#E90866"/>
<path d="M134.31 102.583H127.921V108.973H134.31V102.583Z" fill="#E90866"/>
<path d="M140.699 102.583H134.31V108.973H140.699V102.583Z" fill="#E90866"/>
<path d="M159.866 102.583H153.477V108.973H159.866V102.583Z" fill="#E90866"/>
<path d="M166.255 102.583H159.866V108.973H166.255V102.583Z" fill="#E90866"/>
<path d="M179.033 102.583H172.644V108.973H179.033V102.583Z" fill="#E90866"/>
<path d="M12.9189 108.972H6.52991V115.361H12.9189V108.972Z" fill="#E90866"/>
<path d="M19.3076 108.972H12.9186V115.361H19.3076V108.972Z" fill="#E90866"/>
<path d="M38.4746 108.972H32.0856V115.361H38.4746V108.972Z" fill="#E90866"/>
<path d="M51.2528 108.972H44.8638V115.361H51.2528V108.972Z" fill="#E90866"/>
<path d="M83.1976 108.972H76.8086V115.361H83.1976V108.972Z" fill="#E90866"/>
<path d="M89.5869 108.972H83.1979V115.361H89.5869V108.972Z" fill="#E90866"/>
<path d="M102.365 108.972H95.9758V115.361H102.365V108.972Z" fill="#E90866"/>
<path d="M115.143 108.972H108.754V115.361H115.143V108.972Z" fill="#E90866"/>
<path d="M134.31 108.972H127.921V115.361H134.31V108.972Z" fill="#E90866"/>
<path d="M140.699 108.972H134.31V115.361H140.699V108.972Z" fill="#E90866"/>
<path d="M153.477 108.972H147.088V115.361H153.477V108.972Z" fill="#E90866"/>
<path d="M166.255 108.972H159.866V115.361H166.255V108.972Z" fill="#E90866"/>
<path d="M172.644 108.972H166.255V115.361H172.644V108.972Z" fill="#E90866"/>
<path d="M179.033 108.972H172.644V115.361H179.033V108.972Z" fill="#E90866"/>
<path d="M6.52963 115.361H0.140625V121.75H6.52963V115.361Z" fill="#E90866"/>
<path d="M44.8637 115.361H38.4747V121.75H44.8637V115.361Z" fill="#E90866"/>
<path d="M51.2528 115.361H44.8638V121.75H51.2528V115.361Z" fill="#E90866"/>
<path d="M76.8089 115.361H70.4199V121.75H76.8089V115.361Z" fill="#E90866"/>
<path d="M102.365 115.361H95.9758V121.75H102.365V115.361Z" fill="#E90866"/>
<path d="M108.754 115.361H102.365V121.75H108.754V115.361Z" fill="#E90866"/>
<path d="M140.699 115.361H134.31V121.75H140.699V115.361Z" fill="#E90866"/>
<path d="M147.088 115.361H140.699V121.75H147.088V115.361Z" fill="#E90866"/>
<path d="M159.866 115.361H153.477V121.75H159.866V115.361Z" fill="#E90866"/>
<path d="M172.644 115.361H166.255V121.75H172.644V115.361Z" fill="#E90866"/>
<path d="M32.0858 121.751H25.6968V128.14H32.0858V121.751Z" fill="#E90866"/>
<path d="M57.6417 121.751H51.2527V128.14H57.6417V121.751Z" fill="#E90866"/>
<path d="M64.0307 121.751H57.6417V128.14H64.0307V121.751Z" fill="#E90866"/>
<path d="M83.1976 121.751H76.8086V128.14H83.1976V121.751Z" fill="#E90866"/>
<path d="M102.365 121.751H95.9758V128.14H102.365V121.751Z" fill="#E90866"/>
<path d="M115.143 121.751H108.754V128.14H115.143V121.751Z" fill="#E90866"/>
<path d="M121.532 121.751H115.143V128.14H121.532V121.751Z" fill="#E90866"/>
<path d="M127.921 121.751H121.532V128.14H127.921V121.751Z" fill="#E90866"/>
<path d="M153.477 121.751H147.088V128.14H153.477V121.751Z" fill="#E90866"/>
<path d="M172.644 121.751H166.255V128.14H172.644V121.751Z" fill="#E90866"/>
<path d="M12.9189 128.14H6.52991V134.529H12.9189V128.14Z" fill="#E90866"/>
<path d="M19.3076 128.14H12.9186V134.529H19.3076V128.14Z" fill="#E90866"/>
<path d="M32.0858 128.14H25.6968V134.529H32.0858V128.14Z" fill="#E90866"/>
<path d="M44.8637 128.14H38.4747V134.529H44.8637V128.14Z" fill="#E90866"/>
<path d="M51.2528 128.14H44.8638V134.529H51.2528V128.14Z" fill="#E90866"/>
<path d="M83.1976 128.14H76.8086V134.529H83.1976V128.14Z" fill="#E90866"/>
<path d="M89.5869 128.14H83.1979V134.529H89.5869V128.14Z" fill="#E90866"/>
<path d="M108.754 128.14H102.365V134.529H108.754V128.14Z" fill="#E90866"/>
<path d="M115.143 128.14H108.754V134.529H115.143V128.14Z" fill="#E90866"/>
<path d="M121.532 128.14H115.143V134.529H121.532V128.14Z" fill="#E90866"/>
<path d="M134.31 128.14H127.921V134.529H134.31V128.14Z" fill="#E90866"/>
<path d="M140.699 128.14H134.31V134.529H140.699V128.14Z" fill="#E90866"/>
<path d="M147.088 128.14H140.699V134.529H147.088V128.14Z" fill="#E90866"/>
<path d="M153.477 128.14H147.088V134.529H153.477V128.14Z" fill="#E90866"/>
<path d="M159.866 128.14H153.477V134.529H159.866V128.14Z" fill="#E90866"/>
<path d="M166.255 128.14H159.866V134.529H166.255V128.14Z" fill="#E90866"/>
<path d="M172.644 128.14H166.255V134.529H172.644V128.14Z" fill="#E90866"/>
<path d="M57.6417 134.529H51.2527V140.918H57.6417V134.529Z" fill="#E90866"/>
<path d="M64.0307 134.529H57.6417V140.918H64.0307V134.529Z" fill="#E90866"/>
<path d="M76.8089 134.529H70.4199V140.918H76.8089V134.529Z" fill="#E90866"/>
<path d="M83.1976 134.529H76.8086V140.918H83.1976V134.529Z" fill="#E90866"/>
<path d="M89.5869 134.529H83.1979V140.918H89.5869V134.529Z" fill="#E90866"/>
<path d="M95.9758 134.529H89.5868V140.918H95.9758V134.529Z" fill="#E90866"/>
<path d="M108.754 134.529H102.365V140.918H108.754V134.529Z" fill="#E90866"/>
<path d="M134.31 134.529H127.921V140.918H134.31V134.529Z" fill="#E90866"/>
<path d="M159.866 134.529H153.477V140.918H159.866V134.529Z" fill="#E90866"/>
<path d="M166.255 134.529H159.866V140.918H166.255V134.529Z" fill="#E90866"/>
<path d="M172.644 134.529H166.255V140.918H172.644V134.529Z" fill="#E90866"/>
<path d="M179.033 134.529H172.644V140.918H179.033V134.529Z" fill="#E90866"/>
<path d="M185.422 134.529H179.033V140.918H185.422V134.529Z" fill="#E90866"/>
<path d="M57.6417 140.918H51.2527V147.307H57.6417V140.918Z" fill="#E90866"/>
<path d="M76.8089 140.918H70.4199V147.307H76.8089V140.918Z" fill="#E90866"/>
<path d="M83.1976 140.918H76.8086V147.307H83.1976V140.918Z" fill="#E90866"/>
<path d="M89.5869 140.918H83.1979V147.307H89.5869V140.918Z" fill="#E90866"/>
<path d="M108.754 140.918H102.365V147.307H108.754V140.918Z" fill="#E90866"/>
<path d="M127.921 140.918H121.532V147.307H127.921V140.918Z" fill="#E90866"/>
<path d="M134.31 140.918H127.921V147.307H134.31V140.918Z" fill="#E90866"/>
<path d="M147.088 140.918H140.699V147.307H147.088V140.918Z" fill="#E90866"/>
<path d="M159.866 140.918H153.477V147.307H159.866V140.918Z" fill="#E90866"/>
<path d="M166.255 140.918H159.866V147.307H166.255V140.918Z" fill="#E90866"/>
<path d="M179.033 140.918H172.644V147.307H179.033V140.918Z" fill="#E90866"/>
<path d="M57.6417 147.307H51.2527V153.696H57.6417V147.307Z" fill="#E90866"/>
<path d="M64.0307 147.307H57.6417V153.696H64.0307V147.307Z" fill="#E90866"/>
<path d="M70.4199 147.307H64.0309V153.696H70.4199V147.307Z" fill="#E90866"/>
<path d="M76.8089 147.307H70.4199V153.696H76.8089V147.307Z" fill="#E90866"/>
<path d="M121.532 147.307H115.143V153.696H121.532V147.307Z" fill="#E90866"/>
<path d="M127.921 147.307H121.532V153.696H127.921V147.307Z" fill="#E90866"/>
<path d="M134.31 147.307H127.921V153.696H134.31V147.307Z" fill="#E90866"/>
<path d="M159.866 147.307H153.477V153.696H159.866V147.307Z" fill="#E90866"/>
<path d="M166.255 147.307H159.866V153.696H166.255V147.307Z" fill="#E90866"/>
<path d="M179.033 147.307H172.644V153.696H179.033V147.307Z" fill="#E90866"/>
<path d="M64.0307 153.696H57.6417V160.085H64.0307V153.696Z" fill="#E90866"/>
<path d="M76.8089 153.696H70.4199V160.085H76.8089V153.696Z" fill="#E90866"/>
<path d="M83.1976 153.696H76.8086V160.085H83.1976V153.696Z" fill="#E90866"/>
<path d="M95.9758 153.696H89.5868V160.085H95.9758V153.696Z" fill="#E90866"/>
<path d="M102.365 153.696H95.9758V160.085H102.365V153.696Z" fill="#E90866"/>
<path d="M115.143 153.696H108.754V160.085H115.143V153.696Z" fill="#E90866"/>
<path d="M134.31 153.696H127.921V160.085H134.31V153.696Z" fill="#E90866"/>
<path d="M140.699 153.696H134.31V160.085H140.699V153.696Z" fill="#E90866"/>
<path d="M147.088 153.696H140.699V160.085H147.088V153.696Z" fill="#E90866"/>
<path d="M153.477 153.696H147.088V160.085H153.477V153.696Z" fill="#E90866"/>
<path d="M159.866 153.696H153.477V160.085H159.866V153.696Z" fill="#E90866"/>
<path d="M172.644 153.696H166.255V160.085H172.644V153.696Z" fill="#E90866"/>
<path d="M179.033 153.696H172.644V160.085H179.033V153.696Z" fill="#E90866"/>
<path d="M57.6417 160.084H51.2527V166.473H57.6417V160.084Z" fill="#E90866"/>
<path d="M64.0307 160.084H57.6417V166.473H64.0307V160.084Z" fill="#E90866"/>
<path d="M70.4199 160.084H64.0309V166.473H70.4199V160.084Z" fill="#E90866"/>
<path d="M89.5869 160.084H83.1979V166.473H89.5869V160.084Z" fill="#E90866"/>
<path d="M95.9758 160.084H89.5868V166.473H95.9758V160.084Z" fill="#E90866"/>
<path d="M102.365 160.084H95.9758V166.473H102.365V160.084Z" fill="#E90866"/>
<path d="M108.754 160.084H102.365V166.473H108.754V160.084Z" fill="#E90866"/>
<path d="M115.143 160.084H108.754V166.473H115.143V160.084Z" fill="#E90866"/>
<path d="M140.699 160.084H134.31V166.473H140.699V160.084Z" fill="#E90866"/>
<path d="M159.866 160.084H153.477V166.473H159.866V160.084Z" fill="#E90866"/>
<path d="M166.255 160.084H159.866V166.473H166.255V160.084Z" fill="#E90866"/>
<path d="M185.422 160.084H179.033V166.473H185.422V160.084Z" fill="#E90866"/>
<path d="M57.6417 166.474H51.2527V172.863H57.6417V166.474Z" fill="#E90866"/>
<path d="M64.0307 166.474H57.6417V172.863H64.0307V166.474Z" fill="#E90866"/>
<path d="M76.8089 166.474H70.4199V172.863H76.8089V166.474Z" fill="#E90866"/>
<path d="M95.9758 166.474H89.5868V172.863H95.9758V166.474Z" fill="#E90866"/>
<path d="M108.754 166.474H102.365V172.863H108.754V166.474Z" fill="#E90866"/>
<path d="M121.532 166.474H115.143V172.863H121.532V166.474Z" fill="#E90866"/>
<path d="M127.921 166.474H121.532V172.863H127.921V166.474Z" fill="#E90866"/>
<path d="M140.699 166.474H134.31V172.863H140.699V166.474Z" fill="#E90866"/>
<path d="M153.477 166.474H147.088V172.863H153.477V166.474Z" fill="#E90866"/>
<path d="M172.644 166.474H166.255V172.863H172.644V166.474Z" fill="#E90866"/>
<path d="M185.422 166.474H179.033V172.863H185.422V166.474Z" fill="#E90866"/>
<path d="M64.0307 172.863H57.6417V179.252H64.0307V172.863Z" fill="#E90866"/>
<path d="M83.1976 172.863H76.8086V179.252H83.1976V172.863Z" fill="#E90866"/>
<path d="M89.5869 172.863H83.1979V179.252H89.5869V172.863Z" fill="#E90866"/>
<path d="M102.365 172.863H95.9758V179.252H102.365V172.863Z" fill="#E90866"/>
<path d="M108.754 172.863H102.365V179.252H108.754V172.863Z" fill="#E90866"/>
<path d="M127.921 172.863H121.532V179.252H127.921V172.863Z" fill="#E90866"/>
<path d="M134.31 172.863H127.921V179.252H134.31V172.863Z" fill="#E90866"/>
<path d="M140.699 172.863H134.31V179.252H140.699V172.863Z" fill="#E90866"/>
<path d="M147.088 172.863H140.699V179.252H147.088V172.863Z" fill="#E90866"/>
<path d="M153.477 172.863H147.088V179.252H153.477V172.863Z" fill="#E90866"/>
<path d="M159.866 172.863H153.477V179.252H159.866V172.863Z" fill="#E90866"/>
<path d="M166.255 172.863H159.866V179.252H166.255V172.863Z" fill="#E90866"/>
<path d="M179.033 172.863H172.644V179.252H179.033V172.863Z" fill="#E90866"/>
<path d="M57.6417 179.251H51.2527V185.64H57.6417V179.251Z" fill="#E90866"/>
<path d="M70.4199 179.251H64.0309V185.64H70.4199V179.251Z" fill="#E90866"/>
<path d="M89.5869 179.251H83.1979V185.64H89.5869V179.251Z" fill="#E90866"/>
<path d="M95.9758 179.251H89.5868V185.64H95.9758V179.251Z" fill="#E90866"/>
<path d="M102.365 179.251H95.9758V185.64H102.365V179.251Z" fill="#E90866"/>
<path d="M121.532 179.251H115.143V185.64H121.532V179.251Z" fill="#E90866"/>
<path d="M127.921 179.251H121.532V185.64H127.921V179.251Z" fill="#E90866"/>
<path d="M134.31 179.251H127.921V185.64H134.31V179.251Z" fill="#E90866"/>
<path d="M153.477 179.251H147.088V185.64H153.477V179.251Z" fill="#E90866"/>
<path d="M179.033 179.251H172.644V185.64H179.033V179.251Z" fill="#E90866"/>
<path d="M38.1552 0.359375H6.84908H0.140625V7.06783V38.374V45.0824H6.84908H38.1552H44.8637V38.374V7.06783V0.359375H38.1552ZM38.1552 38.374H6.84908V7.06783H38.1552V38.374Z" fill="#E90866"/>
<path d="M178.713 0.359375H147.407H140.699V7.06783V38.374V45.0824H147.407H178.713H185.422V38.374V7.06783V0.359375H178.713ZM178.713 38.374H147.407V7.06783H178.713V38.374Z" fill="#E90866"/>
<path d="M38.1552 140.918H6.84908H0.140625V147.626V178.932V185.641H6.84908H38.1552H44.8637V178.932V147.626V140.918H38.1552ZM38.1552 178.932H6.84908V147.626H38.1552V178.932Z" fill="#E90866"/>
<path d="M32.0856 13.1373H12.9186V32.3044H32.0856V13.1373Z" fill="#E90866"/>
<path d="M172.644 13.1373H153.477V32.3044H172.644V13.1373Z" fill="#E90866"/>
<path d="M32.0856 153.696H12.9186V172.863H32.0856V153.696Z" fill="#E90866"/>
</svg>
