<?xml version="1.0" encoding="UTF-8"?>
<svg id="Calque_2" data-name="Calque 2" xmlns="http://www.w3.org/2000/svg" viewBox="0 0 31.1 40">
  <defs>
    <style>
      .cls-1 {
        fill: #cc0f0f;
      }
    </style>
  </defs>
  <g id="room-gauge-indicator-3">
    <g>
      <path class="cls-1" d="m7.61,26.89H1.24c.68,1.8,1.62,3.49,2.8,5.04,1.88,2.46,4.32,4.47,7.13,5.87,2.81,1.4,5.91,2.15,9.06,2.2h.15c-8.01-2.92-11.87-7.99-12.77-13.11Z"/>
      <path class="cls-1" d="m12.75,13.43l-6.86-7.44c-.2.2-.4.39-.58.59-2.12,2.28-3.66,4.99-4.53,7.94C.16,16.63-.08,18.82.03,20.99h7.82c.77-3,2.5-5.69,4.91-7.57h-.01Z"/>
      <path class="cls-1" d="m22.21.07c-3.14-.25-6.3.21-9.23,1.34-.8.31-1.57.67-2.32,1.06l7.78,8.44c3.71-.64,8.09.3,12.66,3.62V2.84C28.39,1.26,25.35.31,22.21.07Z"/>
    </g>
  </g>
</svg>