<?xml version="1.0" encoding="UTF-8"?>
<svg id="Calque_2" data-name="Calque 2" xmlns="http://www.w3.org/2000/svg" viewBox="0 0 40 40">
  <defs>
    <style>
      .cls-1 {
        fill: var(--app-black);
      }
    </style>
  </defs>
  <g id="room-gauge-indicator-full">
    <path class="cls-1" d="m34.09,5.91c-7.75-7.82-20.36-7.88-28.19-.14-7.82,7.75-7.88,20.36-.14,28.19.05.05.09.09.14.14,7.75,7.82,20.36,7.88,28.19.14,7.82-7.75,7.88-20.36.14-28.19-.05-.05-.09-.09-.14-.14ZM13.59,15.73c1.18,0,2.14.96,2.14,2.14s-.96,2.14-2.14,2.14-2.14-.96-2.14-2.14h0c0-1.18.95-2.13,2.12-2.14,0,0,0,0,.01,0Zm-2.11,13.33c1.07-3.59,4.47-6.21,8.51-6.21s7.44,2.63,8.52,6.21c.11.38-.11.77-.49.88-.07.02-.13.03-.2.03h-15.63c-.39,0-.72-.31-.72-.7,0-.07,0-.14.03-.2h0Zm14.92-9.06c-1.18,0-2.14-.96-2.14-2.14s.96-2.14,2.14-2.14,2.14.96,2.14,2.14c0,1.18-.95,2.13-2.12,2.14,0,0,0,0-.01,0Z"/>
  </g>
</svg>
