<?xml version="1.0" encoding="utf-8"?>
<!-- Generator: Adobe Illustrator 27.5.0, SVG Export Plug-In . SVG Version: 6.00 Build 0)  -->
<svg version="1.1" id="Calque_1" xmlns="http://www.w3.org/2000/svg" xmlns:xlink="http://www.w3.org/1999/xlink" x="0px" y="0px"
	 viewBox="0 0 230 148" style="enable-background:new 0 0 230 148;" xml:space="preserve">
<style type="text/css">
	.st0{clip-path:url(#SVGID_00000000201441144420740540000010185248748231809427_);}
	.themeColor{fill:var(--voxxrin-event-theme-colors-primary-hex);}
	.st2{fill:none;}
</style>
<g>
	<defs>
		<rect id="SVGID_1_" width="230" height="148"/>
	</defs>
	<clipPath id="SVGID_00000048491237227092095960000006803363340704072120_">
		<use xlink:href="#SVGID_1_"  style="overflow:visible;"/>
	</clipPath>
	<g style="clip-path:url(#SVGID_00000048491237227092095960000006803363340704072120_);">
		<path class="themeColor" d="M4,91.1c0,0-9.2-19.7,9.8-26.3L26,60.9l25.2,78.3l-18.6,6.6c0,0-12.3,1.8-15-7.6c-2.7-9.5-3.6-16.8-3.6-16.8
			s16.4-5,10.5-19.1C18.5,88.1,8.4,90.7,4,91.1L4,91.1z"/>
		<path class="st2" d="M86.4,52.1l37.1-12.9c0,0,6.9,17.3,3.9,18.3c-3,1-35.3,13.6-35.3,13.6L86.4,52.1L86.4,52.1z"/>
		<g>
			<path d="M230,68.7c0,0,0-0.1-0.1-0.1c-0.2-0.1-0.2-0.3-0.2-0.5c0-0.5,0-1,0-1.4c0-0.5,0.2-1.1-0.3-1.4c0-0.4-0.1-0.8,0-1.1
				c0.1-0.5-0.4-0.7-0.4-1.1c0-0.4,0.2-0.9-0.1-1.3c-0.3-0.4,0-0.9-0.2-1.3c-0.1-0.3-0.4-0.6-0.3-1c-0.5-0.2-0.2-0.8-0.4-1.1
				c-0.4-0.3,0-0.8-0.3-1c-0.4-0.3,0-0.9-0.4-1.1c-0.1,0-0.1-0.2-0.1-0.3c0.1-0.5-0.2-1-0.4-1.4c-0.1-0.2-0.3-0.3-0.2-0.5
				c0.1-0.5-0.2-0.9-0.5-1.2c-0.1-0.1-0.1-0.3-0.1-0.4c0-0.2-0.2-0.4-0.2-0.5c-0.1-0.4-0.5-0.6-0.7-1c-0.1-0.4-0.5-0.7-0.7-1
				c-0.2-0.3-0.5-0.4-0.7-0.3c-0.2,0.1-0.5,0.2-0.6,0.3c-0.1,0.1-0.1,0.1-0.2,0c-0.4-0.5-1-0.1-1.5-0.2c-0.5,0.6-1.1,0.3-1.6,0.3
				c-0.3,0-0.6,0-1,0c-0.5,0-0.9,0-1.4,0c-0.5,0-0.9-0.2-1.3-0.3c-0.3-0.1-0.7,0.1-0.9-0.2c-0.3-0.4-0.6-0.1-1-0.3
				c-0.4-0.3-1.1-0.3-1.4-0.8c0,0-0.1,0-0.2,0c-0.5-0.2-1-0.5-1.4-0.9c-0.1-0.1-0.3-0.3-0.5-0.3c-0.4-0.1-0.5-0.6-0.8-0.6
				c-0.4-0.1-0.6-0.5-0.9-0.6c-0.4-0.1-0.7-0.4-1-0.7c-0.3-0.3-0.5-0.5-0.8-0.8c-0.3-0.3-0.7-0.5-0.8-0.9c-0.2-0.4-0.5-0.7-0.7-1
				c-0.3-0.5-0.5-1-0.7-1.4c-0.2-0.4-0.4-0.7-0.3-1.1c-0.5-0.3-0.3-0.8-0.3-1.3c0-0.2,0.1-0.5,0-0.6c-0.4-0.3-0.1-0.8-0.3-1.1
				c-0.2-0.4-0.3-0.7-0.3-1.1c0-0.4,0-0.8,0-1.3s0-0.8,0-1.3c0-0.1-0.1-0.3-0.2-0.4c-0.1-0.1-0.1-0.2,0-0.2c0.3-0.2,0.3-0.4,0.2-0.7
				c0-0.3,0.1-0.5,0.3-0.8c0.1-0.2,0-0.6,0-0.9c0-0.1,0.2-0.1,0.2-0.2c0.1-0.4,0.4-0.7,0.7-1c0.3-0.3,0.5-0.7,0.8-1.1
				c0.5-0.7,1.4-0.9,1.9-1.6c0.6,0,0.8-0.6,1.2-0.9c0.3-0.2,0.6-0.4,0.9-0.4c0.5,0,0.8-0.3,1.2-0.5c0.3-0.1,0.7-0.2,0.9-0.5
				c0.3-0.3,0.7-0.4,1-0.5c0.4-0.1,0.5-0.6,0.8-0.6c0.6,0,0.4-0.5,0.6-0.7c0.3-0.3,0.3-0.8,0-1.1c-0.2-0.3,0-0.7-0.2-0.8
				c-0.3-0.3-0.3-0.5-0.3-0.8c0.1-0.4-0.3-0.6-0.3-1c0-0.4,0-0.8,0-1.3c0-0.1-0.1-0.2-0.2-0.2c-0.3-0.2,0-0.7-0.2-0.8
				c-0.3-0.3-0.3-0.6-0.2-0.9c0.1-0.4-0.3-0.5-0.3-0.8c0-0.4,0-0.7,0-1.1c-0.4-0.3-0.3-0.7-0.3-1.1c0,0,0-0.1,0-0.2
				c-0.3-0.2-0.2-0.5-0.3-0.8c-0.1-0.3-0.3-0.6-0.3-1c0-0.3-0.3-0.6-0.5-0.9c-0.3-0.3,0.1-0.9-0.4-1.1c-0.1,0,0-0.4-0.1-0.4
				c-0.4-0.3-0.4-0.8-0.8-1.1c0.1-0.5-0.6-0.7-0.7-1.1s-0.7-0.6-0.7-1.1c0-0.1-0.2-0.2-0.3-0.3c-0.1-0.1-0.2-0.3-0.3-0.3
				c-0.5-0.1-0.8-0.5-1-1c-0.1-0.2-0.3-0.3-0.4-0.5c-0.1-0.1-0.1-0.2-0.2-0.2c-0.2,0-0.4-0.1-0.5-0.2c-0.2-0.2-0.5-0.2-0.8-0.4
				c0,0-0.2,0-0.3,0L203.5,1c0-0.6-0.5-0.7-0.8-0.9c-0.2-0.1-0.3-0.2-0.5,0c-0.4,0.2-0.8,0.6-1.4,0.5c-0.1,0-0.3,0-0.4,0.1
				c-0.3,0.4-0.7,0.5-1.2,0.5c-0.4,0-0.7,0.5-1.1,0.3c0,0-0.1,0.1-0.2,0.2c-0.2,0.2-0.5,0.2-0.8,0.4c-0.2,0.1-0.5-0.1-0.7,0.1
				c-0.3,0.3-0.6,0.2-0.9,0.2c-0.4,0-0.5,0.5-1,0.3c-0.1,0-0.3,0.1-0.4,0.1c-0.5,0.3-1,0.6-1.7,0.5c-0.1,0-0.4,0-0.4,0.1
				c-0.2,0.3-0.6,0.1-0.8,0.4c-0.2,0.3-0.6-0.1-0.8,0.2c-0.2,0.3-0.5,0.2-0.8,0.4c-0.2,0.2-0.6-0.1-0.8,0.2
				c-0.2,0.3-0.6,0.1-0.9,0.2c-0.1,0-0.3,0-0.3,0.1c-0.2,0.3-0.6,0.2-0.8,0.4c-0.3,0.3-0.8,0-1,0.2c-0.3,0.3-0.6,0.3-1,0.3
				c0,0-0.1,0.1-0.1,0.1c0,0.6-0.4,0.6-0.7,0.5c-0.6-0.1-1,0.4-1.6,0.3c-0.2,0-0.3,0.4-0.6,0.3c-0.4-0.1-0.5,0.2-0.8,0.3
				c-0.5,0.2-0.9,0.3-1.3,0.3c-0.3,0-0.6-0.1-0.9,0.1c-0.3,0.2-0.6,0.3-0.9,0.5c-0.5-0.2-0.7,0.3-1.1,0.3c-0.2,0-0.3,0.1-0.3,0.3
				c0,0.1,0,0.2-0.1,0.3c-0.1,0-0.3,0-0.5,0c-0.3,0-0.6,0-0.9,0c-0.3,0-0.7-0.2-1,0.2c-0.2,0.2-0.6,0.1-0.8,0.4c0,0-0.2,0-0.3,0
				c-0.3,0-0.5,0-0.5,0.4c0,0.1-0.2,0.2-0.3,0.2c-0.4,0-0.7,0-1.1,0c-0.2,0.4-0.6,0.3-1,0.3c-0.5,0-0.6,0.6-1,0.6
				c-0.3,0-0.5,0.6-0.8,0c-0.3,0.5-0.8,0.3-1.1,0.3c-0.1,0-0.2,0.1-0.3,0.1c-0.4,0.1-0.7,0.5-1.1,0.5c-0.4,0-0.7,0.5-1.1,0.3
				c-0.1,0-0.3,0.1-0.4,0.2c-0.3,0.4-0.6,0.5-1.1,0.4c-0.3,0-0.6,0-0.9,0c-0.2,0.4-0.7,0.2-0.9,0.4c-0.3,0.2-0.8,0.3-1,0.6
				c-0.1,0.1-1,0.5-1.2,0.5c-0.4,0-0.7,0-1,0.3c-0.5-0.2-0.8,0.4-1.3,0.3c-0.5-0.1-0.8,0.2-1,0.5c-0.2,0.3-0.5,0.2-0.7,0
				c-0.1-0.1-0.1-0.2-0.2,0c-0.1,0.1-0.3,0.3-0.4,0.4c-0.1,0.1-0.1,0.1-0.2,0c-0.2-0.3-0.6-0.3-0.8-0.1c-0.3,0.2-0.6,0.2-0.8,0.3
				c-0.3,0.1-0.5,0.3-0.8,0.4c-0.1,0.1-0.1,0.5-0.2,0.5c-0.4,0-0.7,0.5-1.1,0.4c-0.2,0-0.4-0.1-0.6,0.1c-0.2,0.3-0.6,0.3-0.9,0.5
				c-0.2,0.1-0.6,0-0.8,0.3c-0.2,0.2-0.7-0.1-0.9,0.3c-0.1-0.1-0.3-0.3-0.3-0.3c-0.2,0.1-0.3,0.3-0.5,0.4c-0.3,0.3-0.5,0.5-0.8,0.8
				c-0.3-0.2-0.6-0.3-1-0.3c-0.3,0-0.6,0-0.7,0.1c-0.2,0.3-0.6,0.1-0.8,0.4c-0.2,0.3-0.6,0-0.8,0.2c-0.3,0.3-0.7,0.4-1,0.5
				c-0.3-0.3-0.7,0.6-1,0c-0.2,0.2-0.5,0.2-0.8,0.4c-0.2,0.2-0.3,0.2-0.5,0c-0.2-0.2-0.4-0.1-0.5,0c-0.2,0.2-0.3,0.4-0.5,0.4
				c-0.3-0.5-0.5,0.1-0.7,0.1c-0.3-0.1-0.6,0-0.8,0.3c-0.1,0.2-0.2,0.3-0.5,0.3c-0.5-0.1-1.1,0.1-1.6,0.3c-0.4,0.1-0.8,0-1.1,0.3
				c-0.5-0.1-0.8,0.3-1.3,0.4c-0.1,0-0.3,0.2-0.4,0.2c-0.5-0.1-0.9,0.5-1.5,0.3c-0.2,0.4-0.7,0.2-0.9,0.4c-0.3,0.3-0.7,0.2-1,0.3
				c-0.1,0-0.3,0.1-0.4,0.2c-0.3,0.2-0.5,0.2-0.8,0.4c-0.3,0.2-0.7,0-0.9,0.4c-0.5-0.2-0.8,0.2-1.1,0.3c-0.2,0.1-0.6-0.1-0.8,0
				c-0.2,0.1-0.5,0.2-0.7,0.3c-0.2,0.1-0.4,0.3-0.7,0.3c-0.3,0-0.6,0-0.8,0.3c-0.2,0.2-0.7,0-0.9,0.4c-0.4-0.1-0.5,0.3-0.8,0.3
				c-0.3,0.1-0.6,0.3-0.9,0.4c-0.4,0.2-1,0.3-1.6,0.2c-0.1,0-0.3,0.1-0.3,0.2c0,0.6-0.7,0.3-0.8,0.7c-0.4-0.5-0.5,0-0.8,0.2
				c-0.1,0.1-0.3,0.1-0.4,0.2c-0.3,0.1-0.6-0.1-0.9,0.2c-0.2,0.3-0.6,0-0.8,0.2c-0.2,0.3-0.6,0.2-0.8,0.4c-0.2,0.2-0.3,0.2-0.5,0
				c-0.1-0.1-0.2-0.3-0.3,0c-0.1,0.2-0.3,0.2-0.5,0.2c-0.4,0-0.7,0.1-0.9,0.4c-0.3,0.3-0.7,0.4-1,0.5c-0.2,0.1-0.5,0.1-0.8,0
				c-0.4-0.1-0.5,0.3-0.8,0.3c-0.3,0-0.7-0.1-1,0.2c-0.2,0.3-0.8-0.1-1,0.3c-0.5,0-0.8,0.3-1.3,0.4c-0.3,0-0.5,0.1-0.7,0.3
				c-0.2,0.3-0.5,0.4-0.8,0.3c-0.4-0.1-0.6,0.3-1,0.3c-0.4,0-0.7,0-1.1,0c0,0-0.1,0.1-0.1,0.1c-0.2,0.3-0.5,0.2-0.8,0.4
				c-0.2,0.2-0.7,0-1,0.3c-0.2,0.2-0.6,0-0.8,0.2c-0.2,0.2-0.5,0.2-0.6,0.4c-0.3,0.3-0.9-0.1-1.1,0.4c-0.3,0-0.5,0-0.8,0
				c-0.1,0-0.2,0-0.3,0.1c-0.2,0.3-0.7,0-0.8,0.2c-0.3,0.3-0.5,0.2-0.8,0.3c-0.3,0-0.5,0.4-0.8,0.3c-0.3-0.1-0.5,0.4-0.8,0.3
				c-0.5-0.1-0.8,0.1-1.1,0.3c-0.4,0.2-0.7,0.5-1.1,0.3c-0.2,0-0.4,0.1-0.5,0.2c-0.6,0.3-1.3,0.6-1.9,0.7c-0.4,0.1-0.8,0.1-1.1,0.3
				c-0.5-0.2-0.7,0.4-1.1,0.3c-0.3,0.5-1,0.1-1.3,0.6c-0.6-0.2-1.1,0.3-1.6,0.3c-0.4,0-0.5,0.4-1,0.4c-0.3,0-0.6,0.2-0.9,0.4
				c-0.1,0-0.2,0.3-0.4,0.2c-0.3-0.1-0.6,0.1-0.8,0.3c-0.2,0.1-0.6,0-0.8,0.3c-0.1,0.1-0.5,0-0.7,0.1c-0.3,0.3-0.5,0.3-0.8,0.3
				c-0.1,0-0.4,0-0.4,0.1c-0.2,0.4-0.8,0.1-1,0.3c-0.3,0.4-0.7,0-1,0.3c-0.3,0.3-0.7,0.2-1,0.2c-0.1,0-0.3,0.1-0.4,0.2
				c-0.3,0.2-1.1,0.7-1.3,0.7c-0.4-0.1-0.8,0.2-1.1,0.3c-0.9,0.3-1.1,0.3-1.6,0.8c-0.2,0.2-0.3,0.1-0.5,0c-0.1-0.1-0.2-0.1-0.3-0.1
				c-0.4,0.2-0.7,0.3-1,0.6c-0.8,0.8-1.6,1.6-2.5,2.4c-0.3,0.3-0.3,0.7-0.6,1c-0.1,0.2,0,0.5-0.1,0.6c-0.3,0.2-0.1,0.5-0.3,0.7
				c-0.1,0.2-0.2,0.5-0.3,0.6c-0.3,0.2-0.4-0.1-0.7-0.3c-0.1-0.1-0.3,0-0.5,0c-0.5,0.1-0.8-0.3-1.2-0.5c-0.3-0.1-0.4-0.5-0.7-0.6
				c-0.3-0.2-0.6-0.4-0.9-0.5c-0.4-0.1-0.8-0.1-1.3,0c-0.5,0.1-0.7-0.3-1.1-0.4c-0.5,0-0.8,0.3-1.1,0.3c-0.3,0-0.6,0.1-0.8,0.4
				c-0.2,0.3-0.4,0.3-0.6,0c-0.2,0.2-0.5,0.3-0.8,0.3c-0.3,0-0.6,0.3-0.9,0.4c-0.1,0.1-0.3,0.2-0.4,0.2c-0.5-0.1-0.9,0.2-1.3,0.3
				c-0.5,0.1-0.8,0.4-1.2,0.5c-0.3,0.1-0.4,0.6-0.8,0.1c-0.1,0.1-0.3,0.3-0.3,0.3c-0.5-0.2-0.8,0.3-1.3,0.3c-0.4,0-0.8,0.4-1.3,0.4
				c-0.2,0.4-0.7,0.1-0.9,0.3c-0.3,0.3-0.6,0.3-0.9,0.2c-0.4-0.1-0.5,0.5-1,0.3c-0.3-0.1-0.5,0-0.5,0.4c0,0.1-0.1,0.2-0.2,0.2
				c-0.8-0.1-1.5,0-2.1,0.6c-0.1,0.1-0.2,0.1-0.3,0c-0.5-0.2-0.9,0.4-1.5,0.3c-0.1,0-0.3,0.1-0.4,0.2c-0.3,0.4-0.7,0.5-1.1,0.4
				c-0.5-0.1-0.8,0.2-1.1,0.3c-0.3,0-0.5,0.1-0.7,0.3c-0.4,0.2-0.9,0.5-1.4,0.4c-0.4-0.1-0.7,0.1-0.9,0.4c-0.2,0.3-0.5,0.3-0.7,0.2
				c-0.3,0-0.6,0-0.8,0.3c-0.2,0.2-0.4,0.3-0.7,0.3c-0.3,0-0.6-0.1-0.8,0.3c-0.6-0.1-1,0.5-1.6,0.4c-0.3,0-0.5,0.2-0.7,0.3
				c-0.2,0.1-0.5,0.2-0.6,0.4c-0.4-0.1-0.8,0.3-1.1,0.3c-0.5,0-0.7,0.4-1.1,0.4c-0.3,0-0.5,0.3-0.8,0.3c-0.6-0.1-1,0.3-1.4,0.4
				c-0.2,0.1-0.3,0.3-0.5,0.2c-0.5-0.2-0.9,0.3-1.4,0.4c-0.4,0.2-0.9,0.4-1.3,0.7c-0.1,0-0.2,0.1-0.2,0.2c-0.3,0-0.6,0-1,0
				c-0.3,0.1-0.5,0.3-0.8,0.3c-0.3,0.1-0.6,0.1-0.9,0c-0.4-0.1-0.5,0.3-0.8,0.3c-0.3,0-0.6-0.1-0.8,0c-0.3,0.2-0.5,0.3-0.8,0.3
				c-0.3,0.1-0.6,0.3-0.9,0.4c-0.7,0.3-1.2,0.8-2,0.8c-0.2,0.5-0.8,0.1-1.1,0.4c-0.3,0.3-0.7,0.2-0.9,0.5c-0.4-0.1-0.5,0.3-0.8,0.3
				c-0.3,0.1-0.6,0.4-0.8,0.7c-0.3,0.3-0.6,0.3-0.9,0.5c-0.9,1-1.9,2-2.9,2.9c-0.4,0.4-0.4,0.9-0.9,1.2c-0.1,0,0,0.3-0.2,0.4
				c-0.3,0.2-0.3,0.6-0.5,0.9c-0.2,0.2-0.4,0.6-0.4,0.9c0,0.4-0.3,0.6-0.4,1c-0.1,0.4-0.4,0.8-0.6,1.2c-0.2,0.4-0.5,0.7-0.3,1.1
				c-0.6,0.2-0.1,0.9-0.5,1.2c0,0.3-0.1,0.7-0.1,1.1c0,0.4-0.5,0.7-0.3,1.1c0.1,0.3,0.1,0.8,0,1.1c-0.1,0.3,0.6,0.5,0,0.8
				c0.5,0.5,0.2,1.2,0.3,1.8c0,0.1,0,0.2,0.1,0.3c0.3,0.2,0.3,0.6,0.2,0.8c-0.1,0.4,0.4,0.5,0.3,1c-0.1,0.3-0.2,0.8,0.1,1.1
				c0.3,0.3,0.1,0.7,0.2,1c0,0.1,0.1,0.2,0.2,0.3c0.3,0.4,0.3,1,0.8,1.4c0,0.5,0.5,0.8,0.3,1.3c-0.1,0.2,0,0.5,0,0.8
				c0,0.3,0.3,0.5,0.3,0.8c0,0.6,0.5,0.9,1,1c0.3,0,0.5,0.2,0.8,0.3c0.3,0.1,0.6,0,0.9,0c0.5,0.1,0.7-0.3,1.1-0.3
				c0.4-0.1,0.7,0.5,1.1,0.3c0.2,0,0.4,0.1,0.5,0c0.4-0.4,1-0.3,1.5-0.3c0.7,0,1.4,0,2.1,0c0.4,0,0.7,0,1,0.3c0.2,0.2,0.6,0,0.8,0.2
				c0.2,0.2,0.6,0.4,0.9,0.4c0.3,0,0.5,0.2,0.8,0.3c0.5,0.2,1.1,0.5,1.6,0.8c0.4,0.2,0.7,0.3,1,0.6c0.6,0.7,1.3,1.4,2,2
				c0.3,0.3,0.5,0.6,0.7,1c0.2,0.3,0.2,0.7,0.5,0.9c0.3,0.2,0.4,0.6,0.6,0.8c0.3,0.4,1.2,2.1,1.2,2.6c0,0.3,0.4,0.5,0.3,0.8
				c0,0.3,0,0.7,0.3,1c0.2,0.2-0.1,0.7,0.2,1c0.4,0.4,0.2,0.8,0.2,1.2c0,1,0,1.9,0,2.8c0,0.4,0,0.8,0,1.1c0,0.3-0.3,0.5-0.3,0.8
				c0,0.6-0.5,1-0.7,1.6c-0.8,0.8-1.6,1.6-2.4,2.4c-0.3,0.3-0.8,0.5-1.2,0.6c-0.1,0-0.2,0.1-0.2,0.2c-0.3,0.4-0.8,0.4-1.1,0.8
				c-0.5-0.1-0.6,0.7-1.2,0.6c-0.8,0.6-1.8,0.8-2.5,1.5c-0.2,0.2-0.6,0.4-0.9,0.4c-0.5,0-0.7,0.4-1,0.7c-0.3,0.2-0.1,0.5-0.2,0.7
				c0,0.3,0,0.6-0.2,0.9c-0.3,0.7-0.2,1.3,0.3,1.8c0.2,0.2,0.1,0.6,0.4,0.8c0.1,0.1,0.1,0.4,0.1,0.6c0,0.5-0.1,1,0.3,1.5
				c0.2,0.2-0.1,0.7,0.2,1c0.3,0.3,0.1,0.8,0.2,1.2c0,0.1,0,0.2,0.1,0.3c0.6,0.4-0.1,1.2,0.6,1.5c0,0.4,0,0.7,0,1.1
				c0,0.3,0.4,0.6,0.3,1c0,0.3-0.2,0.7,0.2,1c0,0.4,0,0.8,0.1,1.2c0,0.1,0.1,0.2,0.1,0.3c0.4,0.5,0.5,1.2,0.5,1.8
				c0,0.3,0,0.3,0.5,0.4c0.2,0,0.4,0,0.4,0.3v0.5c0.1,0.5-0.2,1,0.3,1.3c-0.1,0.5,0.2,1,0.5,1.4c0.1,0.3,0.1,0.6,0.4,0.8
				c0.3,0.2,0.3,0.5,0.5,0.7c0.3,0.3,0.5,0.6,0.7,1c0.2,0.3,0.5,0.7,0.9,0.9c0.4,0.2,0.8,0.5,1.1,0.8c0.2,0.2,0.4,0.5,0.5,0.5
				c0.5,0,0.6,0.6,1,0.7c0.4,0.1,0.5,0.3,0.7,0.5c0.2,0.2,0.6,0.1,0.8,0.4c0.6,0,1.1,0.3,1.5,0.6c0.3,0.2,0.8-0.1,1,0.3
				c0,0.1,0.2,0.1,0.3,0.1h1.1c0.4,0,0.9,0,1.3,0c0.4,0,0.5,0.4,1,0.4c0.5,0,1-0.2,1.5-0.3c0.7-0.1,1.4,0.2,2.1-0.3
				c0.4,0,0.8,0,1.2-0.1c0.3-0.5,1,0,1.2-0.5c0.9-0.3,1.5-0.6,2-1c0.1-0.1,0.2-0.3,0.4-0.3c0.3,0,0.6,0,0.8-0.3
				c0.4,0.2,0.5-0.5,1-0.3c0.4,0.1,0.5-0.3,0.8-0.3c0.1,0,0.2-0.2,0.4-0.2c0.2-0.1,0.6,0,0.7-0.2c0.3-0.3,0.5-0.2,0.9-0.3
				c0.2,0,0.3-0.4,0.6-0.3c0.3,0.1,0.5-0.2,0.7-0.3c0.2-0.1,0.5,0.1,0.7-0.1c0.3-0.3,0.7-0.5,1-0.5c0.5,0,0.8-0.6,1.3-0.4
				c0.3-0.2,0.6-0.3,1-0.3c0.3,0,0.6-0.3,0.9-0.5c0.1,0,0.2-0.1,0.3-0.1c0.5,0.1,0.9-0.5,1.4-0.3c0.2-0.3,0.5-0.3,0.8-0.3
				c0.3-0.1,0.6-0.3,1-0.3c0.3,0,0.6-0.3,1-0.3c0.3,0,0.6-0.3,0.9-0.5c0.1,0,0.2-0.1,0.3-0.1c0.4,0.1,0.6-0.4,1-0.3
				c0.4,0.1,0.6-0.3,1-0.3c0.3,0,0.5-0.4,0.8-0.3c0.4,0.1,0.5-0.4,1-0.3c0.2,0,0.4-0.3,0.6-0.3c0.3,0,0.6,0,0.8-0.3
				c0.5,0,0.8-0.5,1.3-0.3c0.2,0.1,0.4-0.1,0.5-0.2c0.3-0.2,0.8-0.2,1-0.5c0.4-0.4,1,0,1.2-0.5c0.5,0.1,0.8-0.3,1.1-0.3
				c0.5,0,0.9-0.5,1.4-0.4c0.2-0.3,0.5-0.3,0.8-0.3c0.3,0,0.3-0.4,0.6-0.3c0.4,0.1,0.6-0.4,0.8-0.3c0.5,0.1,0.7-0.4,1.1-0.3
				c0.2-0.5,0.7-0.2,1.1-0.4c0.3-0.2,0.7-0.3,1-0.5c0.5,0.2,0.7-0.5,1.1-0.3c0.4,0.1,0.5-0.4,1-0.3c0.4,0,0.7-0.4,1.1-0.3
				c0.2-0.3,0.6-0.2,0.8-0.5c0.3-0.3,0.8,0,1-0.3c0.2-0.3,0.6-0.1,0.8-0.2c0.3-0.2,0.6-0.4,0.9-0.5c0.3-0.1,0.6,0,0.9,0
				c0,0,0.1,0,0.1-0.1c0.2-0.3,0.6-0.2,0.8-0.4c0.2-0.3,0.5,0,0.7-0.1c0.3-0.3,0.5-0.3,0.8-0.3c0.3-0.1,0.6-0.3,0.9-0.5
				c0.5-0.3,0.7-1,1.4-1.1c0.4-0.5,0.9-0.9,1.3-1.3c0.4-0.4,0.5-1,1-1.3c0.1-0.1,0-0.4,0.2-0.5c0.2-0.2,0-0.4,0.1-0.6
				c0.1-0.2,0.2-0.4,0.3-0.6c0.1-0.3,0.1-0.3,0.3-0.2c0.4,0.4,0.8,0.8,1.2,1.2c0.2,0.2,0.4,0.3,0.7,0.3c0.1,0,0.3,0.1,0.4,0.2
				c0.6,0.3,1.1,0.4,1.6,0.4c0.4,0,0.8,0.1,1.1-0.3c0.8,0.1,1.5,0,2.1-0.6c0.1-0.1,0.3-0.1,0.4,0c0.6,0.1,1.1-0.2,1.6-0.4
				c0.3-0.1,0.5-0.2,0.7-0.2c0.2,0,0.5-0.3,0.7-0.3c0.4,0.1,0.6-0.4,1-0.3c0.5,0.1,0.7-0.4,1.1-0.4c0.2,0,0.3-0.3,0.5-0.3
				c0.4,0.1,0.7-0.4,1.1-0.3c0.4,0,0.7-0.5,1.1-0.3c0.2-0.2,0.3-0.4,0.7-0.3c0.4,0.1,0.5-0.4,0.8-0.3c0.4,0.1,0.6-0.4,1-0.3
				c0.5,0.1,0.7-0.4,1.1-0.4c0.2-0.3,0.4-0.2,0.7-0.3c0.2,0,0.4-0.3,0.7-0.3c0.3,0,0.6,0,0.8-0.3c0.4,0.1,0.5-0.5,1-0.3
				c0.4,0.1,0.5-0.4,1-0.3c0.2,0,0.6-0.3,0.8-0.3c0.4,0.1,0.6-0.4,1-0.3c0.2-0.3,0.8-0.3,1-0.6c0.4,0.1,0.7,0,1-0.3
				c0.5,0.2,0.8-0.4,1.1-0.3c0.4,0.1,0.6-0.5,1-0.3c0.4,0.1,0.6-0.4,1-0.4c0.2,0,0.3-0.4,0.7-0.3c0.4,0.1,0.5-0.4,0.8-0.3
				c0.4,0.1,0.6-0.4,1-0.3c0.4,0.1,0.6-0.3,1-0.3c0.3,0,0.2-0.3,0.3-0.5c0,0,0-0.1,0.1-0.1c0,0,0.1,0,0.1,0c0.3,0.4,0.4,0.1,0.5-0.1
				c0.6,0.2,1-0.5,1.6-0.3c0.2-0.4,0.7-0.2,1-0.3c0.3-0.3,0.6-0.2,0.8-0.3c0.3-0.1,0.6-0.4,1-0.3c0.2-0.5,0.8-0.2,1.1-0.4
				c0.2-0.3,0.6-0.1,0.8-0.4c0.2-0.3,0.6,0.1,0.8-0.2c0.2-0.3,0.6-0.1,0.8-0.4c0-0.1,0.3,0,0.4,0c0.4,0,0.5-0.5,1-0.3
				c0.4,0.1,0.6-0.3,1-0.3c0.4,0.1,0.6-0.4,1-0.3c0.4,0.1,0.6-0.3,1-0.3c0.3,0,0.5-0.4,0.8-0.3c0.4,0.1,0.5-0.3,1-0.3
				c0.4,0,0.8-0.3,1.2-0.4c0.1-0.3,0.5-0.1,0.7-0.3c0.2-0.3,0.6-0.2,0.8-0.2c0.3-0.5,0.9-0.1,1.2-0.5c0.5,0,0.9-0.3,1.4-0.4
				c0.4-0.1,0.9-0.2,1.2-0.6c0.2-0.3,0.5-0.4,0.8-0.3c0.5,0.1,0.9-0.2,1.3-0.3c0.3-0.1,0.5-0.2,0.7-0.3c0.4-0.1,0.8-0.6,1.3-0.4
				c0.2-0.2,0.5-0.3,0.8-0.3c0.3,0,0.6-0.3,0.9-0.4c0.1-0.1,0.3-0.2,0.4-0.2c0.6,0.1,1.1-0.2,1.6-0.5c0.1-0.1,0.3-0.2,0.4-0.2
				c0.5,0.1,0.7-0.4,1.1-0.4c0.3,0,0.7-0.3,1-0.5c0.1-0.1,0.3-0.1,0.4-0.1c0.5,0.2,0.8-0.3,1.3-0.4c0.2,0,0.3-0.3,0.5-0.3
				c0.5,0.1,1-0.2,1.4-0.4c0.3-0.1,0.6-0.5,0.9-0.5c0.4,0,0.8-0.3,1.1-0.3c0.4,0,0.6-0.4,1-0.3c0.3,0,0.6-0.3,0.8-0.3
				c0.4,0,0.6-0.2,1-0.3c0.3-0.1,0.6-0.5,1.1-0.3c0.2,0,0.3-0.4,0.6-0.3c0.4,0.1,0.5-0.3,0.8-0.3c0.3,0,0.6-0.3,1-0.3
				c0.3,0,0.8-0.2,1-0.5c0.5,0.1,0.9-0.4,1.3-0.3c0.6,0.1,1-0.5,1.6-0.3c0.2-0.5,0.8-0.2,1.1-0.4c0.7-0.6,1.7-0.5,2.4-1.1
				c0-0.1,0.2-0.1,0.3,0c0.4,0.1,0.5-0.4,0.8-0.3c0.4,0.1,0.6-0.3,1-0.3c0.3,0,0.6-0.3,1-0.3c0.4-0.1,0.7-0.3,1.1-0.3
				c0.4,0,0.7-0.3,1-0.5c0.4-0.3,0.9,0.1,1.2-0.2c0.2-0.2,0.5-0.1,0.7-0.3c0.2-0.3,0.6-0.1,0.8-0.3c0.3-0.2,0.5-0.2,0.8-0.3
				c0.3-0.1,0.6-0.3,0.9-0.5c0.2-0.2,0.4-0.2,0.6-0.1c0.3,0,0.5-0.5,0.8-0.3c0.4,0.2,0.6-0.5,1-0.3c0.2-0.4,0.6-0.3,1-0.3
				c0.5,0,0.6-0.5,1-0.6c0,0,0.1,0,0.2,0c0.6,0.1,1-0.3,1.5-0.5c0.3-0.1,0.6-0.1,0.8-0.4c0,0,0.2,0,0.3,0c0.5,0.2,0.8-0.3,1.3-0.3
				c0.2-0.4,0.7-0.2,1-0.3c0.3-0.1,0.6-0.4,0.9-0.5c0.1,0,0.2-0.1,0.3,0c0.4,0.1,0.8-0.1,1.1-0.3c0.4-0.2,0.7-0.4,1.1-0.3
				c0.2,0.1,0.4-0.1,0.5-0.2c0.8-0.3,1.3-0.9,2.2-0.8c0.1,0,0.2-0.3,0.3-0.3c0.4,0.1,0.5-0.4,0.8-0.3c0.5,0.1,0.9-0.5,1.4-0.3
				c0.2-0.3,0.5-0.3,0.8-0.3c0.2,0,0.5-0.3,0.7-0.3c0.4,0,0.6-0.4,0.8-0.3c0.5,0.2,0.7-0.4,1.1-0.3c0.4,0.1,0.7-0.3,1.1-0.4
				c0.2-0.5,0.8,0,1.1-0.5c0.4-0.1,0.9-0.1,1.2-0.5c0.1-0.1,0.3-0.1,0.4-0.2c0.3,0,0.6,0.1,0.9-0.2c0.2-0.3,0.6,0,0.8-0.2
				c0.2-0.3,0.6-0.1,0.8-0.4c0.5-0.1,0.8-0.5,1.4-0.4c0.4,0.1,0.7-0.5,1.1-0.3c0,0,0.2-0.1,0.2-0.2c0.3-0.3,0.5-0.5,0.9-0.5
				c0.4,0,0.7-0.4,1.1-0.3c0.4,0.1,0.8-0.2,1.1-0.3c0.2-0.1,0.3-0.3,0.5-0.3c0.4,0,0.7-0.1,1-0.3c0.2-0.2,0.5-0.3,0.8-0.3
				c0.4,0.1,0.6-0.4,1-0.4c0.2,0,0.3-0.4,0.6-0.3c0.4,0.1,0.5-0.4,0.8-0.3c0.3,0.1,0.6-0.3,0.8-0.3c0.4,0,0.7-0.2,1-0.3
				c0.3-0.1,0.7-0.5,1.1-0.3c0.2-0.2,0.5-0.4,0.8-0.3c0.3,0,0.4-0.5,0.8-0.3c0.2-0.2,0.4-0.4,0.7-0.3c0.2,0,0.4,0,0.6,0
				c0.2,0,0.5,0.1,0.7-0.1c0.3-0.3,0.6-0.5,1-0.7c0.1-0.5,0.4-0.9,0.6-1.3c-0.2-0.5,0.3-0.7,0.5-1.1c0.3-0.5,0.5-1,0.8-1.6
				c0.1-0.3-0.1-0.7,0.3-1c0-0.4,0-0.8,0.1-1.2c0-0.1,0.1-0.2,0.1-0.3c0.3-0.3,0.1-0.5-0.1-0.8C229.4,69.3,230.2,69.2,230,68.7z
				 M48.5,138.2L48.5,138.2c-0.2,0-0.4-0.1-0.6,0.1c-0.3,0.2-0.6,0.5-0.9,0.5c-0.4,0-0.7,0.3-1,0.3c-0.4,0-0.7,0.3-1,0.3
				c-0.3,0.1-0.5,0.5-1,0.4c-0.3-0.1-0.6,0.5-1,0.3c-0.1,0-0.2,0.1-0.3,0.1c-0.3,0.2-0.6,0.5-0.9,0.5c-0.4,0-0.7,0.3-1,0.3
				c-0.4,0-0.7,0.3-1,0.3c-0.3,0.1-0.5,0.4-1,0.4c-0.3-0.1-0.5,0.4-1,0.3c-0.3-0.1-0.5,0.4-0.8,0.3c-0.3-0.1-0.5,0.4-0.8,0.3
				c-0.4-0.1-0.5,0.3-0.8,0.3c-0.4,0-0.5,0.5-1,0.4c-0.3-0.1-0.5,0.4-1,0.3c-0.3-0.1-0.3,0.3-0.5,0.3c-0.2,0-0.4,0.1-0.5,0.2
				c-0.2,0.2-0.7,0.1-1.1,0.1c-0.2,0-0.4,0-0.6,0.1c-0.1,0-0.2,0.2-0.4,0.2c-0.2,0-0.4,0-0.6,0c-0.1,0-0.3,0.1-0.4,0.2
				c-0.1,0-0.4,0.2-0.4,0.1c-0.6-0.6-1.3-0.2-1.9-0.3c-0.2,0-0.4-0.1-0.5-0.3c-0.2-0.3-0.5-0.5-0.9-0.4c-0.3,0-0.5,0-0.8,0
				c-0.1,0-0.3-0.1-0.4-0.2c-0.3-0.3-0.5-0.5-0.8-0.8c-0.5,0.1-0.6-0.3-0.9-0.5c-0.3-0.3-0.6-0.5-0.8-0.8c-0.3-0.4-1-0.6-1.1-1.3
				c-0.4-0.4-0.8-0.7-1.1-1.1c-0.2-0.3-0.4-0.6-0.5-0.9c-0.1-0.3,0-0.5,0-0.8c0-0.2-0.4-0.3-0.3-0.6c0.1-0.4-0.3-0.5-0.3-0.8v-0.8
				c-0.5-0.2-0.1-0.8-0.5-1.1c-0.4-0.3,0-0.7-0.3-1c-0.3-0.2-0.2-0.6-0.2-0.9c0-0.4-0.5-0.6-0.3-1c0.1-0.3-0.4-0.5-0.3-0.8
				c0.1-0.3,0.1-0.7-0.3-1v-1c-0.5-0.2-0.2-0.8-0.4-1.1c-0.1-0.1-0.2-0.3-0.2-0.4c0-0.3,0-0.5,0-0.8c-0.5-0.2-0.1-0.8-0.5-1.1
				c-0.3-0.2-0.1-0.5-0.2-0.7c0-0.2-0.2-0.3-0.3-0.5c0-0.1,0-0.3,0-0.5c0-0.1,0.2-0.1,0.4-0.2c0.3-0.1,0.5-0.4,0.8-0.3
				c0.1,0,0.3-0.1,0.4-0.2c0.2-0.2,0.4-0.5,0.8-0.5c0.2,0,0.3-0.4,0.7-0.3c0.1-0.3,0.5-0.3,0.8-0.5c0.2-0.2,0.4-0.5,0.7-0.5
				c0.3,0,0.6-0.3,0.9-0.5c0.3-0.1,0.6-0.2,0.8-0.4c0.2-0.3,0.5-0.5,0.8-0.8c0.3-0.5,1-0.5,1.3-1c0.4-0.5,0.8-0.8,1.2-1.2
				c0.1-0.1,0.3-0.3,0.3-0.3c-0.1-0.7,0.5-1,0.8-1.4c0.2-0.3,0.4-0.6,0.4-0.9c0-0.6,0.2-1,0.5-1.5c0.2-0.5,0.3-0.5,0-1
				c-0.3-0.5-0.2-0.8,0.2-1.1c0.3-0.2,0.4-0.4,0.3-0.8c-0.1-0.4,0.1-0.8-0.3-1.1c0.5-0.3,0-0.5,0-0.7c0-0.2,0-0.5,0.1-0.7
				c0.3-0.4,0.3-0.5,0-1c-0.2-0.3-0.1-0.5,0.1-0.7c0,0,0.1-0.1,0.1-0.1c-0.3-0.2-0.3-0.4,0-0.7c0,0-0.1-0.1-0.1-0.1
				c-0.2-0.5-0.5-0.9-0.5-1.5c0-0.4-0.5-0.7-0.3-1.1c-0.4-0.3-0.2-0.7-0.4-1c-0.1-0.3-0.2-0.5-0.3-0.8c0-0.3-0.2-0.7-0.5-0.9
				c-0.4-0.4-0.5-1.1-0.9-1.5c-0.4-0.4-0.6-0.9-0.8-1.4c-0.2-0.4-0.7-0.6-0.7-1.1c-0.7-0.4-0.9-1.2-1.4-1.8c-0.6-0.7-1.5-1-2-1.7
				c-0.7-0.3-1.4-0.7-2.1-1.1c-0.4-0.2-0.9-0.6-1.3-0.6c-0.5,0-0.8-0.5-1.3-0.3c-0.3-0.2-0.7-0.4-1.1-0.3c-0.3-0.5-0.8-0.3-1.1-0.3
				c-0.4,0-0.8,0-1.3,0H9.7c-0.2,0-0.4,0-0.6,0.1c-0.6,0.3-1,0.3-1.6,0c-0.2-0.1-0.4-0.1-0.6-0.1H5c-0.5,0-0.6-0.2-0.5-0.7
				c0-0.2,0.5-0.4,0-0.7c0-0.3,0.1-0.7,0-0.9c-0.4-0.5-0.3-1-0.3-1.5c-0.1-0.5,0.2-1.1-0.3-1.4v-1.6c-0.5-0.4-0.3-1.1-0.3-1.6
				c0-0.4-0.5-0.5-0.4-1C3.3,80,3,79.5,3.4,79.2c0,0-0.1-0.1-0.1-0.2c-0.2-0.3-0.3-0.7,0-0.8c0.4-0.3,0-1,0.5-1.2
				c-0.1-0.5,0.2-0.8,0.4-1.1c0.3-0.4,0.6-0.9,0.5-1.5c0-0.2,0.1-0.3,0.3-0.4c0.5-0.1,0.7-0.4,0.6-0.9c0-0.3,0-0.7,0.3-0.8
				c0.8-0.3,1.3-1,1.8-1.6c0.3-0.2,0.5-0.7,0.8-0.7c0.3-0.1,0.5-0.4,0.8-0.4c0.3,0,0.4-0.3,0.6-0.5c0.3-0.3,0.7-0.4,1-0.7
				c0.3-0.2,0.5-0.4,0.9-0.5c0.1,0,0.1-0.2,0.2-0.2c0.7,0.1,1.1-0.4,1.6-0.6c0.3-0.1,0.5-0.5,1-0.4c0.3,0.1,0.5-0.4,1-0.3
				c0.2,0,0.4-0.2,0.7-0.3c0.3,0,0.5,0,0.7-0.2c0.1-0.1,0.3-0.1,0.4-0.1c0.2,0,0.3,0,0.4-0.1c0.3-0.4,0.7-0.5,1.2-0.5
				c0.3,0,0.5-0.3,0.8-0.3c0.3,0,0.6,0,1,0c0.2,0,0.3-0.3,0.5-0.3c0.2,0,0.5,0,0.7-0.2c0.1-0.1,0.4-0.1,0.5-0.3
				c0.3-0.3,0.7-0.2,0.9-0.5c0.4,0.1,0.7-0.1,1-0.3c0.1-0.1,0.6,0.3,0.7,0.5c0,0.1,0,0.3,0,0.5c0,0.2,0.1,0.3,0.3,0.3
				c0.2,0,0.4,0,0.2,0.3c-0.4,0.7-0.3,0.9,0.5,1.3c0.3,0.2,0.3,0.3,0.2,0.6c-0.1,0.1-0.2,0.3-0.2,0.4c0,0.4,0,0.7,0,1.1
				c0.5,0.2,0.1,0.8,0.4,1.1c0.4,0.3,0,0.7,0.3,1c0.3,0.2,0.1,0.6,0.2,0.9c0.2,0.5,0.4,0.9,0.3,1.4c0.4,0.3,0.3,0.8,0.3,1.3
				c0.4,0.2,0.3,0.6,0.3,1c0.5,0.2,0.1,0.8,0.5,1.1c0.3,0.3,0,0.7,0.2,1c0.1,0.3,0.3,0.6,0.3,1c0,0.3,0.3,0.5,0.3,0.8
				c0,0.2,0.2,0.4,0.3,0.6c0.2,0.4,0.5,0.7,0.3,1.1c-0.1,0.4,0.3,0.5,0.3,0.8c0,0.3-0.1,0.7,0.2,1c0.2,0.2-0.1,0.6,0.2,0.8
				c0.1,0,0.1,0.2,0.2,0.3c0,0.4-0.2,0.8,0.3,1.1c0,0.4-0.1,0.8,0.3,1c-0.1,0.4,0.3,0.8,0.3,1.1c0,0.5,0.4,0.7,0.4,1.1
				c0,0.3,0.2,0.5,0.3,0.8c0.2,0.3,0.4,0.6,0.3,1c-0.1,0.4,0.5,0.7,0.3,1.1c-0.2,0.4,0.2,0.7,0.3,1c0.1,0.4,0.4,0.7,0.3,1.1
				c0,0.5,0.4,0.8,0.3,1.3c0.5,0.2,0.1,0.8,0.4,1.1c0.3,0.3,0,0.9,0.5,1.1c-0.2,0.5,0.5,0.9,0.3,1.4c-0.1,0.3,0.4,0.5,0.3,0.8
				c-0.1,0.4,0.4,0.5,0.3,0.8c-0.1,0.3,0.2,0.5,0.3,0.8c0.2,0.4,0.3,0.8,0.3,1.3c0,0.4,0.4,0.7,0.3,1.1c0.5,0.3,0.1,1,0.6,1.3
				c-0.1,0.5,0.3,1,0.5,1.4c0.2,0.3,0.2,0.5,0.1,0.7c-0.1,0.5,0.2,0.9,0.4,1.3c0.2,0.3,0.3,0.6,0.3,1c0.4,0.2,0.3,0.6,0.3,1
				c0,0.5,0.5,0.8,0.3,1.3c0.5,0.2,0.1,0.8,0.5,1.1c0.3,0.3,0,0.9,0.4,1.1c-0.2,0.5,0.4,0.9,0.4,1.4c0,0.2,0.2,0.4,0.3,0.7
				c0,0.3,0.1,0.5,0.2,0.7c0.2,0.4,0.1,0.9,0.6,1.2c0.1,0,0.2,0.2,0.2,0.3c0,0.3,0,0.5,0,0.8c0,0.2,0.4,0.3,0.3,0.7
				c-0.1,0.4,0.3,0.5,0.3,0.8c0,0.3-0.1,0.5,0.2,0.7c0.1,0.6,0.3,1.1,0.7,1.6c0.1,0.1,0.1,0.3,0.1,0.4c0,0.3,0,0.6,0.3,0.8
				c0.1,0.1,0,0.6,0.1,0.7c0.3,0.3,0.1,0.6,0.3,0.8c0.2,0.3,0.3,0.5,0.3,0.8c0,0,0,0.1,0,0.1c0.5,0.2,0.1,0.8,0.4,1.1
				c0.3,0.2,0.2,0.6,0.4,0.8c0.2,0.2-0.1,0.6,0.2,0.8c0.3,0.2,0.1,0.6,0.2,0.9c0,0.1,0.1,0.3,0.2,0.4c0.2,0.2,0.1,0.5,0.3,0.7
				c0.3,0.2-0.1,0.6,0.3,0.8c0.3,0.2,0.2,0.5,0.2,0.7c0,0.3,0.4,0.5,0.3,0.8c-0.1,0.3,0.3,0.4,0.3,0.6c0,0.3,0,0.6,0.3,0.8
				c-0.2,0.5,0.4,0.9,0.4,1.4c0,0.2,0.3,0.4,0.3,0.7c0,0.3,0,0.5,0.2,0.7c0.1,0.2,0,0.5,0.2,0.7c0.1,0.2,0.3,0.4,0.3,0.7
				C48.8,138.1,48.8,138.2,48.5,138.2z M225.6,70v0.6c0,0.3,0,0.6,0,0.9c0.1,0.4-0.3,0.5-0.3,0.8c0,0.3,0.2,0.7-0.1,0.9
				c-0.2,0.1-0.5,0-0.8,0l-1,0.5c-0.3,0.3-1,0.6-1.4,0.7c-0.2,0-0.3,0.3-0.5,0.3c-0.4,0-0.6,0.5-1.1,0.4c-0.3-0.1-0.5,0.5-1,0.3
				c0,0-0.2,0-0.2,0c-0.2,0.6-0.9,0.1-1.2,0.5c-0.2,0.2-0.6,0.4-0.9,0.4c-0.3,0-0.5,0.3-0.8,0.3c-0.4,0-0.6,0.3-1,0.3
				c-0.3,0.1-0.5,0.5-1,0.3c-0.3-0.1-0.5,0.4-0.8,0.3c-0.2,0.4-0.7,0.2-0.9,0.4c-0.3,0.2-0.5,0.2-0.8,0.3c-0.3,0.1-0.5,0.3-0.8,0.3
				c-0.2,0-0.4,0.2-0.7,0.3c-0.3,0.2-0.7,0.4-1.1,0.3c-0.1,0-0.3,0-0.4,0.1c-0.3,0.2-0.7,0.5-1,0.5c-0.4,0-0.6,0.4-1,0.3
				c-0.5-0.1-0.7,0.5-1.1,0.3c-0.3-0.1-0.4,0.4-0.8,0.3c-0.3-0.1-0.5,0.2-0.7,0.3c-0.4,0.1-0.7,0-1,0.3c-0.4-0.1-0.6,0.6-1.1,0.3
				c-0.3,0.2-0.6,0.3-0.9,0.5c-0.3,0.3-0.7,0-0.8,0.2c-0.2,0.3-0.5,0.1-0.7,0.3c-0.3,0.3-0.7,0.1-0.8,0.2c-0.3,0.3-0.6,0.3-1,0.3
				c-0.2,0.4-0.7,0.2-1,0.3c-0.3,0.1-0.6,0.5-0.9,0.5c-0.5,0-0.8,0.4-1.3,0.4c-0.4,0-0.5,0.4-0.8,0.3c-0.4-0.1-0.6,0.4-1,0.3
				c-0.4,0-0.6,0.3-0.8,0.3c-0.4,0-0.5,0.5-1,0.4c-0.3-0.1-0.5,0.4-1,0.3c-0.3-0.1-0.5,0.4-0.8,0.3c-0.3-0.1-0.5,0.3-0.7,0.3
				c-0.4,0-0.7,0-1,0.3c-0.4-0.1-0.5,0.4-0.8,0.3c-0.4-0.1-0.6,0.3-1,0.4c-0.3,0.1-0.6,0.3-1,0.3c-0.2,0-0.4,0-0.6,0.2
				c-0.3,0.2-0.6,0.4-0.9,0.4c-0.3,0-0.6,0.1-0.8,0.3c-0.5-0.2-0.8,0.2-1.1,0.3c-0.3,0.1-0.6,0.3-1,0.3c-0.3,0-0.5,0.4-0.8,0.3
				c-0.3-0.1-0.4,0.4-0.8,0.3c-0.3-0.1-0.5,0.3-0.6,0.3c-0.4,0-0.5,0.4-0.8,0.3c-0.3-0.1-0.6,0.1-0.8,0.3c-0.5-0.2-0.8,0.3-1.3,0.4
				c-0.1,0-0.3,0.3-0.4,0.2c-0.4-0.1-0.7,0.3-1,0.3c-0.4-0.1-0.7,0.4-1,0.3c-0.4-0.1-0.6,0.3-1,0.3c-0.3,0-0.5,0.4-0.8,0.3
				c-0.4-0.1-0.7,0.2-1,0.3c-0.3,0.1-0.5,0.5-0.8,0.4c-0.2-0.1-0.4,0-0.5,0.2c-0.3,0.2-0.6,0.4-0.9,0.4c-0.4,0-0.6,0.4-1,0.3
				c-0.4-0.1-0.6,0.4-1,0.3c-0.4-0.1-0.5,0.3-0.8,0.3c-0.4,0-0.5,0.4-1,0.3c-0.3-0.1-0.5,0.5-1,0.3c-0.1,0-0.2,0.1-0.3,0.1
				c-0.3,0.2-0.6,0.5-0.9,0.5c-0.4,0-0.7,0.3-1,0.3c-0.4,0-0.6,0.3-1,0.3c-0.3,0.1-0.5,0.5-1,0.4c-0.3-0.1-0.5,0.4-1,0.3
				c-0.1,0-0.2,0.1-0.3,0.1c-0.3,0.2-0.6,0.5-0.9,0.5c-0.4,0-0.7,0.3-1,0.3c-0.4,0-0.7,0.3-1,0.3c-0.3,0.1-0.6,0-0.8,0.3
				c-0.5-0.2-0.9,0.5-1.4,0.3c0,0-0.1,0-0.1,0c-0.6,0.6-1.6,0.6-2.3,1c-0.1,0.1-0.3,0.3-0.4,0.2c-0.4-0.1-0.7,0.3-1,0.3
				c-0.4,0-0.6,0.4-1,0.3c-0.4-0.1-0.7,0.2-1,0.4c-0.5,0.3-1.1,0.2-1.5,0.6c-0.5-0.2-0.8,0.3-1.3,0.3c-0.3,0-0.7,0.3-1,0.5
				c-0.3,0.2-0.8-0.1-1,0.3c-0.4,0-0.7,0.5-1.1,0.4c-0.4-0.1-0.5,0.4-1,0.3c-0.3-0.1-0.5,0.4-1,0.3c-0.3-0.1-0.5,0.4-0.8,0.3
				c-0.2,0.3-0.5,0.3-0.8,0.3c-0.2,0-0.4,0.3-0.7,0.3c-0.3,0-0.5,0.1-0.7,0.3c-0.2,0.1-0.5,0-0.7,0.2c-0.2,0.2-0.5,0.1-0.6,0.3
				c-0.3,0.4-0.7,0.1-1,0.3c-0.3,0.3-0.7,0.2-0.9,0.5c-0.5-0.2-0.8,0.3-1.1,0.3c-0.4,0-0.6,0.4-1,0.3c-0.5-0.1-0.7,0.4-1.1,0.4
				c-0.3,0-0.7,0.3-1,0.5c-0.3,0.2-0.5,0-0.7,0.1c-0.2,0.1-0.3,0.3-0.5,0.3c-0.3,0-0.5,0-0.7,0.2c-0.4,0-0.6,0.5-1.1,0.4
				c-0.4-0.1-0.5,0.5-1,0.3c-0.3-0.1-0.5,0.4-0.8,0.3c-0.4-0.1-0.5,0.3-0.8,0.3c-0.3,0-0.5,0.4-1,0.3c-0.3,0-0.5,0.4-0.8,0.3
				c-0.2,0.4-0.7,0.1-1,0.3c-0.3,0.3-0.5,0.2-0.8,0.3c-0.3,0.5-1,0.1-1.3,0.6c-0.5-0.2-0.9,0.5-1.4,0.3c-0.1,0-0.2,0.1-0.3,0.1
				c-0.4,0.2-0.7,0.5-1.1,0.5c-0.5,0-0.7,0.4-1.1,0.4c-0.3,0-0.7,0.2-0.9,0.4c-0.3,0.4-0.8,0-1,0.3c-0.3,0.4-0.7,0-1,0.3
				c-0.3,0.4-0.7,0-1,0.3c-0.2,0.3-0.5,0.2-0.8,0.4c-0.2,0.2-0.7,0-0.9,0.4c-0.5-0.2-0.9,0.5-1.4,0.3c-0.1,0-0.2,0.1-0.3,0.1
				c-0.3,0.2-0.6,0.5-0.9,0.5c-0.4,0-0.7,0.2-1,0.3c-0.5-0.2-0.8,0.4-1.3,0.4c-0.3,0-0.7,0.3-1,0.5c-0.3,0.2-0.9-0.1-1.1,0.4
				c-0.5-0.2-0.8,0.2-1.1,0.3c-0.3,0.1-0.6,0.3-1,0.3c-0.3,0-0.5,0.3-0.8,0.3c-0.2,0-0.4,0.2-0.6,0.3c-0.3,0.1-0.5,0-0.7,0.2
				c-0.3,0.3-0.7,0-1,0.3c-0.2,0.2-0.5,0.4-0.8,0.4c-0.4,0-0.7,0.2-1,0.3c-0.2,0.1-0.5,0-0.6,0.1c-0.2,0.3-0.6,0.1-0.8,0.4
				c-0.1,0.1-0.4,0.2-0.4,0.1c-0.5-0.6-1.2-0.2-1.8-0.3c-0.2,0-0.3,0.2-0.5,0.3c-0.6,0.2-1.1-0.1-1.6-0.4c-0.4-0.3-0.7-0.7-1-1
				c0,0,0-0.2,0-0.3c0-0.7-0.6-1.1-0.7-1.8c-0.6-0.4-0.5-1.1-0.8-1.7c-0.1-0.2,0-0.4-0.2-0.6c-0.3-0.3-0.6-0.6-0.9-0.9
				c-0.1,0-0.2-0.1-0.3,0c-0.2,0-0.2,0.1-0.3,0.3c0,0.3,0.2,0.8-0.2,1c-0.1,0.5-0.2,1.1,0.2,1.6c0.1,0.2,0.2,0.5,0.1,0.6
				c-0.4,0.5-0.3,1.1-0.3,1.6c0,0.3,0,0.6,0,0.9c-0.5,0.4-0.3,1-0.3,1.4c0,0.1-0.1,0.3-0.2,0.4c-0.2,0.3-0.5,0.4-0.7,0.7
				c-0.2,0.2-0.1,0.3,0.1,0.5c0.2,0.3,0.1,0.3-0.3,0.7c-0.5,0.5-1,0.8-1.6,1c-0.1,0-0.3,0.3-0.4,0.2c-0.4-0.1-0.7,0.3-1,0.3
				c-0.4,0-0.7,0.4-1,0.3c-0.4-0.1-0.6,0.3-1,0.4c-0.3,0.1-0.6,0.3-1,0.3c-0.3,0-0.5,0.4-0.8,0.3c-0.5,0.3-1.1,0.3-1.6,0.6
				c-0.3,0.1-0.4,0.5-0.8,0.3c-0.3-0.1-0.5,0.2-0.7,0.3c-0.5-0.2-0.8,0.3-1.3,0.3c-0.4,0-0.8,0.3-1.2,0.5c-0.2,0.2-0.6-0.1-0.8,0.3
				c-0.2,0.3-0.7-0.1-1,0.3c-0.4,0.1-0.7,0.5-1.1,0.4c-0.4-0.1-0.5,0.5-1,0.3c-0.1,0-0.3,0.1-0.4,0.1c-0.4,0.1-0.6,0.5-1,0.5
				c-0.5,0-0.7,0.5-1.1,0.3c-0.1,0-0.3,0.2-0.4,0.2c-0.5,0.1-0.8,0.6-1.4,0.4c-0.1,0-0.3,0-0.3,0c-0.5,0.5-1.2,0.5-1.7,0.8
				c-0.2,0.1-0.5,0.2-0.6,0.3c-0.3,0.3-0.6-0.1-0.9,0.2c-0.2,0.3-0.4,0.2-0.7,0.2c-0.1,0-0.1,0-0.2,0c-0.3,0.5-0.9,0.1-1.2,0.6
				c-0.4-0.1-0.6,0.5-1.1,0.4c-0.3-0.1-0.5,0.5-1,0.3c-0.3-0.1-0.4,0.4-0.8,0.3c-0.3-0.1-0.5,0.3-0.6,0.3c-0.4,0-0.5,0.4-0.8,0.3
				c-0.3,0-0.5,0-0.7,0.3c-0.2-0.1-0.4-0.3-0.5-0.5c-0.1-0.1,0-0.3,0-0.5c0-0.3-0.1-0.5-0.2-0.7c-0.2-0.4-0.5-0.8-0.4-1.4
				c0-0.4-0.5-0.7-0.3-1.1c-0.5-0.2-0.1-0.8-0.4-1.1c-0.4-0.3,0-0.8-0.3-1c-0.4-0.3,0-0.9-0.4-1.1c-0.1,0-0.1-0.3,0-0.4
				c0.1-0.6-0.5-1-0.4-1.6c-0.4-0.2-0.2-0.6-0.3-0.8c-0.2-0.3-0.3-0.5-0.3-0.8c0-0.3-0.4-0.5-0.3-1c0.1-0.3-0.2-0.6-0.3-0.8
				c-0.1-0.4-0.2-0.7-0.3-1c-0.1-0.3,0-0.6-0.3-0.8c-0.1,0,0-0.3,0-0.4c0-0.2,0-0.3,0-0.5c0,0,0-0.1-0.1-0.1c-0.5-0.2,0-0.8-0.5-1.1
				c-0.1-0.1-0.1-0.3-0.1-0.4c0-0.1,0-0.3-0.1-0.4c-0.5-0.7-0.5-0.7-0.5-1.3c0-0.3,0-0.5-0.3-0.7c0.2-0.3-0.6-0.6-0.1-1
				c-0.4-0.3-0.2-0.8-0.3-1.1c-0.1-0.4-0.4-0.7-0.3-1.1c0-0.1-0.3-0.3-0.3-0.5c0.1-0.5-0.1-0.9-0.3-1.3c-0.2-0.3-0.4-0.6-0.3-1
				c0.2-0.5-0.3-0.8-0.3-1.3c-0.3-0.2-0.3-0.6-0.5-0.9c-0.1-0.2-0.1-0.6-0.1-0.9c0-0.3-0.4-0.5-0.3-0.8c0-0.3,0.1-0.6-0.3-0.8
				c0,0,0-0.2,0-0.3c0-0.3,0.1-0.6-0.2-0.9c-0.3-0.2,0-0.5-0.2-0.7c-0.2-0.3-0.3-0.5-0.4-0.8c-0.1-0.1-0.2-0.3-0.2-0.4
				c-0.1-0.3,0.1-0.7-0.1-0.9c-0.4-0.3,0-0.7-0.3-1c-0.3-0.2,0-0.6-0.3-0.8c-0.3-0.2-0.2-0.6-0.4-0.8c-0.1-0.1-0.2-0.3-0.1-0.4
				c0-0.4-0.2-0.5-0.5-0.6c-0.1,0-0.1-0.1,0-0.2c0.4-0.4,0.3-0.9,0.1-1.3c-0.1-0.3-0.1-0.5-0.2-0.7c0-0.2-0.3-0.4-0.3-0.5
				c0.1-0.5-0.3-0.8-0.4-1.3c0-0.2-0.3-0.3-0.2-0.5c0-0.3,0-0.6-0.1-0.8c-0.3-0.3-0.2-0.8-0.7-1c-0.3-0.1-0.1-0.3,0-0.4
				c0.1-0.1,0.1-0.3,0-0.4c-0.4-0.5-0.6-1.1-0.6-1.8C37,89.9,37.4,89.3,37,89c-0.3-0.2,0-0.6-0.2-0.9c-0.2-0.2-0.2-0.5-0.3-0.6
				c-0.2-0.2-0.1-0.6-0.4-0.8c0.1-0.6-0.5-1.1-0.4-1.8c0-0.3,0.1-0.6,0-0.8c-0.2-0.3-0.2-0.6-0.4-0.8c-0.3-0.2-0.2-0.5-0.4-0.8
				c-0.2-0.2-0.1-0.6-0.1-0.9c0.1-0.4-0.4-0.6-0.3-1c0.1-0.4-0.4-0.6-0.3-1c0.1-0.4-0.3-0.5-0.3-0.8c0-0.3-0.4-0.5-0.3-1
				c0-0.3-0.4-0.5-0.3-1c0.1-0.3-0.4-0.4-0.3-0.8c0.1-0.4-0.4-0.5-0.3-1c0-0.3-0.1-0.6-0.3-0.8c-0.2-0.3-0.4-0.6-0.3-1
				c0-0.3-0.1-0.5-0.3-0.7c-0.3-0.2-0.3-0.5-0.3-0.8c0-0.3,0.1-0.6,0-0.8c-0.1-0.2-0.2-0.5-0.3-0.7c-0.3-0.4-0.5-0.8-0.5-1.2
				c0-0.4-0.5-0.7-0.4-1.1c0-0.1-0.1-0.3-0.2-0.4c-0.2-0.3-0.2-0.5-0.4-0.8c-0.1-0.2,0-0.5,0-0.8c0-0.3-0.3-0.6-0.3-0.8
				c0-0.4-0.5-0.5-0.4-1c0.1-0.3-0.5-0.5-0.3-1c0-0.1-0.1-0.3-0.2-0.4c-0.2-0.3-0.6-0.4-0.4-0.8c0.1-0.3,0.5,0,0.7-0.2
				c0.3-0.4,0.9-0.1,1.1-0.4c0.3-0.4,0.8,0,1.1-0.4c0.3-0.3,0.8,0,1.1-0.2c0.3-0.2,0.7-0.4,1.1-0.5c0.4,0,0.8,0,1.1-0.3
				c0.4,0.1,0.7-0.3,1-0.3c0.3-0.1,0.6,0,0.8-0.3c0.5,0.2,0.8-0.4,1.3-0.3c0.4,0.1,0.6-0.5,1.1-0.3c0.2,0.1,0.4-0.4,0.8-0.3
				c0.3,0.1,0.4-0.3,0.7-0.3c0.3,0,0.6,0,0.8-0.3c0.5,0.2,0.9-0.4,1.4-0.4c0.3,0,0.7-0.4,1.1-0.3c0.3-0.5,1-0.1,1.3-0.6
				c0.5,0.1,0.9-0.5,1.4-0.3c0.3-0.5,1-0.1,1.3-0.6c0.3-0.1,0.6,0.1,0.8-0.2c0.2-0.3,0.8,0.1,1-0.3c0.3,0,0.6,0,0.9-0.1
				c0.3-0.1,0.6-0.3,1-0.3c0.3,0,0.6-0.3,1-0.3c0.3,0,0.6-0.3,0.9-0.5c0.3-0.3,0.9,0.1,1.1-0.4c0.4,0,0.7-0.1,1-0.3
				c0.2-0.1,0.6,0,0.8-0.3c0-0.1,0.2,0,0.3-0.1c0.3,0,0.6,0.1,0.9-0.2c0.2-0.3,0.5,0,0.7-0.2c0.3-0.2,0.6-0.2,0.8-0.4
				c0.2-0.2,0.5-0.2,0.7-0.2c0.3,0,0.3,0.2,0.5,0.3c0.1,0.1,0.3,0.3,0.3,0.3c0.7-0.3,0.9,0.6,1.5,0.7c0.1,0,0.1,0.2,0.2,0.3
				c0.1,0.2,0.3,0.4,0.5,0.6c0.2,0.1,0.6-0.1,0.7,0.1c0.1,0.2,0,0.6,0.2,0.7c0.2,0.2,0.1,0.5,0.3,0.7c0.3,0.3,0.1,0.6,0.2,0.8
				c0.1,0.2,0.3,0.4,0.3,0.7c0.1,0.2,0.2,0.4,0.3,0.6c0.1,0.2,0.3,0.4,0.5,0.6c0.3,0.2,0.4,0.4,0.4,0.8c-0.1,0.3,0,0.6,0.3,0.8
				c0.1,0.1,0.1,0.4,0.3,0.5c0.1,0.1,0,0.3,0.1,0.4c0.1,0.2,0.3,0.3,0.3,0.5c0,0.1,0.1,0.3,0.2,0.4c0.1,0.1,0.1,0.1,0.5,0
				c0.1,0,0.1-0.1,0.2,0.1c0.1,0.1,0.2,0.1,0.3,0c0.3-0.3,0.5-0.7,0.3-1c-0.3-0.3-0.2-0.7-0.3-1c-0.1-0.4-0.4-0.8-0.4-1.3
				c-0.4-0.3-0.3-0.6,0-0.9c0.2-0.2,0.4-0.3,0.3-0.7c-0.1-0.3,0.2-0.8-0.1-1c-0.3-0.3-0.1-0.7-0.2-0.9c-0.3-0.3-0.3-0.5-0.3-0.8
				c0-0.3,0.2-0.8-0.3-1c0-0.6-0.3-1.3,0.2-1.9c0,0,0-0.1,0-0.1c0.1-0.3-0.1-0.7,0.2-1c0.2-0.2,0.2-0.6,0.5-0.8
				c0-0.3,0.1-0.5,0.4-0.5c0.2,0,0.4,0,0.4-0.1c0.4-0.6,0.9-0.6,1.5-0.5c0.2,0,0.4-0.1,0.5-0.2c0.3-0.2,0.6-0.4,0.9-0.4
				c0.4,0,0.6-0.4,1-0.3c0.5,0.1,0.8-0.5,1.3-0.3c0.3-0.4,0.7-0.3,1.1-0.3c0.4-0.1,0.7-0.4,1.1-0.3c0.2-0.5,0.9-0.1,1.2-0.5
				c0.5,0,0.8-0.3,1.3-0.4c0.5,0,0.8-0.5,1.3-0.3c0.2-0.2,0.5-0.3,0.8-0.4c0.1-0.1,0.2-0.3,0.4-0.2c0.3,0,0.5,0,0.8,0
				c0.2-0.5,0.8-0.2,1.1-0.4c0.2-0.2,0.4-0.2,0.6-0.3c0.1,0,0.3-0.2,0.4-0.2c0.4,0,0.8,0,1.1-0.3c0.4,0.1,0.7-0.2,1-0.3
				c0.4-0.1,0.7-0.4,1.1-0.3c0.2,0.1,0.4,0,0.5-0.2c0.3-0.3,0.5-0.5,0.9-0.4c0.4,0,0.8,0,1.1-0.3c0.4-0.2,0.8-0.4,1.3-0.3
				c0.1,0,0.3,0,0.3-0.1c0.3-0.5,0.8,0,1.1-0.4c0.2-0.3,0.7,0.1,1-0.3c0.2-0.3,0.6,0,0.9-0.2c0.3-0.2,0.6-0.4,0.9-0.5
				c0,0,0.1,0,0.1,0c0.4,0,0.7,0,1-0.3c0.2-0.2,0.7,0,1-0.3c0.2-0.2,0.6,0.1,0.8-0.2c0.2-0.2,0.5,0,0.7-0.3c0.4,0,0.8-0.3,1.3-0.4
				c0.4-0.1,0.8,0,1.1-0.3c0.4,0.1,0.7-0.2,1-0.3c0.3-0.1,0.7-0.5,1.1-0.3c0.3-0.4,0.7-0.3,1.1-0.3c0.1,0,0.2,0,0.2,0
				c0.2-0.5,0.7-0.2,1.1-0.4c0.5-0.3,0.9-0.6,1.5-0.5c0.1,0,0.3-0.1,0.4-0.2c0.2-0.1,0.5-0.2,0.6-0.3c0.3-0.3,0.6,0.1,0.8-0.2
				c0.2-0.3,0.5-0.1,0.7-0.2c0.4-0.2,0.7-0.4,1.1-0.3c0.2-0.5,0.8-0.1,1.1-0.4c0.2-0.3,0.5-0.1,0.7-0.2c0.2-0.1,0.3-0.4,0.7-0.3
				c0.4,0.1,0.5-0.3,0.8-0.3c0.3,0,0.5,0,0.7-0.2c0.2-0.2,0.5,0,0.7-0.1c0.2-0.1,0.3-0.3,0.5-0.3c0.3,0,0.5-0.1,0.7-0.3
				c0.2-0.1,0.5,0,0.7-0.1c0.2-0.2,0.5-0.2,0.7-0.3c0.2-0.1,0.3-0.3,0.5-0.2c0.5,0.1,0.8-0.2,1.1-0.3c0.4-0.2,0.7-0.5,1.1-0.3
				c0.1,0,0.3,0,0.3,0c0.3-0.5,0.8-0.1,1.1-0.5c0.3-0.3,0.7,0,1-0.3c0.3-0.5,0.8-0.5,1.2-0.5c0.3,0,0.6,0,0.8-0.3
				c0.5,0,0.8-0.5,1.3-0.3c0.4,0.1,0.8-0.5,1.3-0.3c0.2-0.5,0.8-0.1,1.1-0.5c0.3-0.3,0.8,0,1.1-0.4c0.5,0.2,0.9-0.5,1.4-0.4
				c0.2,0,0.4-0.2,0.7-0.3c0.2,0,0.4,0.1,0.6-0.1c0.2-0.3,0.5-0.1,0.7-0.2c0.2,0,0.3-0.3,0.5-0.3c0.4,0,0.6-0.2,1-0.3
				c0.3-0.1,0.6,0,0.8-0.3c0.6,0.2,1-0.5,1.6-0.3c0.2-0.5,0.9-0.1,1.2-0.5c0.2-0.3,0.7-0.3,1-0.5c0.2-0.1,0.3-0.3,0.5-0.3
				c0.5,0.1,0.9-0.1,1.2-0.5c0.1-0.1,0.1-0.1,0.2,0c0.2,0.3,0.3,0.1,0.4,0c0.4-0.3,1,0.2,1.3-0.3c0.5,0.1,0.8-0.3,1.3-0.4
				c0.2,0,0.4,0,0.6-0.2c0.2-0.2,0.5-0.2,0.8-0.4c0.2-0.2,0.6,0,0.8-0.2c0.2-0.2,0.5-0.3,0.8-0.4c0.3-0.1,0.6,0,0.8-0.3
				c0.1-0.1,0.4-0.1,0.6,0c0.4,0.1,0.5-0.3,0.8-0.3c0.3,0,0.7,0,0.9-0.1c0.3-0.3,0.6-0.1,0.9-0.2c0.2-0.1,0.4-0.4,0.7-0.3
				c0.2-0.3,0.5-0.3,0.8-0.4c0.1-0.1,0.3-0.2,0.4-0.2c0.3,0,0.7,0.1,1-0.3c0.2-0.2,0.7,0,1-0.3c0.2-0.2,0.6,0.1,0.8-0.2
				c0.2-0.3,0.6-0.1,0.9-0.1c0,0,0.1,0,0.2,0c0.2-0.5,0.7-0.2,1.1-0.4c0.4-0.3,0.9-0.7,1.5-0.5c0.2,0,0.3-0.2,0.5-0.3
				c0.4-0.1,0.8-0.6,1.3-0.4c0.3-0.4,0.7-0.3,1.1-0.3c0,0,0.1,0,0.1,0c0.2-0.5,0.8-0.2,1.1-0.4c0.5-0.3,0.9-0.6,1.5-0.5
				c0.1,0,0.3-0.1,0.4-0.2c0.5-0.3,0.9-0.5,1.5-0.5c0.4,0,0.7-0.4,1.1-0.3c0.2-0.6,0.9-0.1,1.2-0.5c0.5,0,0.8-0.3,1.3-0.4
				c0.5,0,0.8-0.5,1.3-0.3c0.3-0.3,0.6-0.4,1-0.3c0.3-0.3,0.6-0.4,1-0.3c0.2-0.4,0.6-0.3,1-0.3c0.2-0.4,0.7-0.2,0.9-0.3
				c0.3-0.2,0.6-0.2,0.8-0.3c0.3-0.1,0.6-0.4,1-0.3c0.3-0.5,1-0.1,1.3-0.6c0.6,0.2,0.9-0.4,1.5-0.3c0.2,0,0.4-0.2,0.6-0.3
				c0.3-0.2,0.6-0.4,1-0.3c0.5,0.1,0.7-0.5,1.1-0.3c0.3,0.1,0.5-0.3,1-0.3c0.4,0,0.7-0.4,1.1-0.3c0.2-0.4,0.6-0.3,1-0.3
				c0.2-0.4,0.7-0.2,0.9-0.4c0.3-0.2,0.6-0.2,0.8-0.3c0.3-0.1,0.7-0.2,1-0.3c0.3-0.1,0.6-0.3,1-0.3c0.3-0.3,0.7-0.2,1-0.3
				c0.3-0.2,0.5-0.3,0.8-0.3c0.3,0,0.6-0.3,1-0.3c0.3,0,0.5-0.3,0.8-0.3c0.2,0,0.4-0.3,0.7-0.3c0.3,0,0.6,0,0.8-0.3
				c0.5,0.2,0.8-0.4,1.3-0.3c0.4,0.1,0.6-0.5,1.1-0.3c0.3,0.1,0.4-0.4,0.8-0.3c0.3,0.1,0.4-0.3,0.7-0.3c0.3,0,0.6,0,0.8-0.3
				c0.4,0.1,0.8-0.3,1.1-0.3c0.7-0.1,1.4,0,2.1,0c0.3,0.5,1,0.1,1.3,0.7c0.1,0.3,0.5,0.2,0.6,0.3c0.3,0.3,0.3,0.9,0.9,0.9
				c0.3,0.3,0.7,0.7,1,1c0.2,0.2,0.1,0.4,0.1,0.6c0,0.3,0,0.6,0.3,0.8c0.2,0.2,0.4,0.4,0.3,0.7c0,0.3,0,0.5,0,0.8
				c0,0.2,0.2,0.3,0.3,0.5c0.1,0.2-0.1,0.5,0.1,0.7c0.1,0.1,0.1,0.3,0.3,0.5c0.2,0.3,0.5,0.6,0.5,0.9c0,0.4,0.4,0.7,0.4,1.1
				c0,0.4,0.4,0.7,0.3,1.1c-0.1,0.4,0.5,0.5,0.3,1c-0.1,0.3,0,0.6,0.3,0.8c0.1,0.1-0.3,0.2-0.2,0.4c0.1,0.2,0.3,0.3,0.4,0.5
				c0,0,0.1,0.1,0.1,0.1c0,0.3,0,0.5,0,0.8c0,0.2,0.2,0.4,0.3,0.7c0.2,0.8-0.3,1.1-0.8,1.5c-0.1,0.1-0.3,0.1-0.4,0.1
				c-0.3,0.3-0.5,0.7-0.8,0.8c-0.4,0.1-0.6,0.3-0.8,0.6c-0.2,0.2-0.5,0-0.7,0.3c-0.1,0.2-0.4,0.4-0.5,0.6c-0.2,0.3-0.5,0.5-0.9,0.5
				c-0.1,0.3-0.2,0.6-0.5,0.8c-0.3,0.1-0.5,0.3-0.7,0.6c-0.1,0.3-0.4,0.5-0.6,0.7c-0.3,0.3-0.6,0.5-0.8,0.8
				c-0.1,0.3-0.2,0.6-0.5,0.7c-0.3,0.2-0.2,0.5-0.3,0.7c-0.2,0.2-0.3,0.3-0.2,0.5c0,0.2-0.1,0.4-0.2,0.5c-0.1,0.3-0.3,0.5-0.4,0.8
				c-0.1,0.4-0.2,0.7-0.3,1c-0.1,0.3,0,0.6,0,0.9c0,0.5,0.1,1.1-0.3,1.6v2.4c0.6,0.6,0.3,1.4,0.3,2.1c0,0.4,0.3,0.6,0.3,1
				c0,0.3-0.1,0.7,0.2,1c0,0,0.1,0.1,0.1,0.1c0.3,2.2,0.4,2.5,1.6,4.7c0,0.1,0,0.2,0,0.3c0.3,0.4,0.8,0.7,1,1.2
				c0.2,0.4,0.7,0.8,1,1.1c0.4,0.4,0.7,0.7,1.1,1.1c0.1,0.1,0.1,0.1,0.2,0.2c0.4,0.2,0.8,0.2,1.2,0.6l0.9,0.9c0.8,0.1,1,0.9,1.7,1.1
				c0.6,0.2,1.1,0.5,1.7,0.8c0.5,0.3,1.1,0.7,1.8,0.7c0.2,0.3,0.4,0.3,0.7,0.2c0.5-0.2,0.7,0.4,1.1,0.3c0.4,0,0.8,0,1.3,0
				c0.1,0,0.2,0.2,0.3,0.3c0.3-0.6,0.6,0.2,1,0c0.3-0.1,0.7,0,1.1,0h1.3c0.4-0.5,1-0.3,1.5-0.3c0.4,0,0.4,0.2,0.4,0.5
				c0,0.1,0.1,0.3,0.1,0.4c0.2,0.3,0.5,0.7,0.5,1.1c0,0.5,0.5,0.7,0.4,1.1c0,0.2,0.2,0.4,0.3,0.6c0.1,0.3,0,0.5,0.2,0.7
				c0.4,0.4-0.1,1.1,0.4,1.4c-0.2,0.5,0.4,0.8,0.3,1.3v0.3c0,0.4,0,0.8,0,1.1c0,0.3,0.4,0.5,0.3,0.8c0,0.3-0.1,0.7,0.1,0.9
				c0.2,0.3,0.2,0.5,0.2,0.8v1c0.5,0.5,0.2,1.2,0.3,1.8c0.1,0.4,0.4,0.7,0.3,1.1C225.5,69.2,225.6,69.6,225.6,70z"/>
			<path d="M195.7,67.8c0.2-0.2-0.1-0.2-0.2-0.2c-0.5,0-0.2-0.2-0.1-0.4c0.1-0.1,0.1-0.3,0-0.4c-0.1-0.1-0.3-0.1-0.4-0.1
				c-0.1,0-0.2,0.2-0.4,0.3c-0.1,0.1-0.7-0.3-0.7-0.5c0,0,0.1-0.1,0.1-0.1c0.2,0,0.4,0,0.6,0c0.1,0,0.1-0.1,0.2-0.2
				c0,0-0.1-0.1-0.1-0.1c-0.5,0-1.1-0.3-1.6,0.3c-0.3,0-0.6,0.1-0.9,0c-0.4-0.1-0.5,0.4-0.8,0.3c-0.5-0.1-1.1,0-1.6,0.3
				c-0.3,0.1-0.6-0.1-0.9,0.2c-0.3,0.3-0.7,0-0.8,0.2c-0.2,0.3-0.5,0.3-0.8,0.4c-0.4,0.2-0.7,0.5-1.2,0.5c-0.3,0-0.6,0.4-1,0.3
				c-0.1,0-0.2,0.2-0.4,0.2c-0.5,0-0.8,0.5-1.3,0.4c-0.3,0.4-0.8,0.2-1.1,0.4c-0.3,0.2-0.5,0.2-0.7,0.2c-0.2,0-0.5,0.3-0.7,0.3
				c-0.5-0.1-0.7,0.4-1.1,0.3c-0.4,0-0.7,0.4-1.1,0.5c-0.4,0.1-0.8,0.4-1.2,0.5c-0.4,0.1-0.8,0.3-1.2,0.6c-0.5-0.3-0.8,0.3-1.3,0.3
				c-0.4,0-0.9-0.1-1.3,0.3c-0.5-0.2-0.8,0.4-1.3,0.4c-0.3,0.5-1,0-1.2,0.5c0,0-0.1,0-0.2,0c-0.5-0.2-0.9,0.5-1.4,0.3
				c-0.2,0.4-0.7,0.2-0.9,0.4c-0.3,0.3-0.7,0.3-1,0.3c-0.3,0-0.4,0.3-0.5,0.3c-0.4,0-0.6,0.5-1,0.4c-0.4-0.1-0.5,0.4-0.8,0.3
				c-0.4-0.1-0.6,0.3-1,0.3c-0.3,0-0.6,0.3-0.8,0.3c-0.4,0.1-0.7,0.1-1,0.3c-0.2,0.1-0.4,0.3-0.7,0.3c-0.3,0-0.6,0-0.8,0.3
				c-0.6-0.2-1,0.5-1.6,0.3c-0.4-0.1-0.7,0.5-1.1,0.3c-0.1,0-0.2,0.1-0.3,0.1c-0.5,0.2-1,0.5-1.5,0.6c-0.5,0.1-0.9,0.6-1.5,0.5
				c-0.2,0.3-0.5,0.3-0.8,0.3c-0.3,0-0.7,0.2-0.9,0.4c-0.3,0.3-0.9,0-1.1,0.4c0,0-0.2,0.1-0.3,0c-0.5-0.2-0.9,0.2-1.3,0.3
				c-0.3,0.2-0.6,0.4-1,0.3c-0.2,0.4-0.6,0.3-1,0.3c-0.2,0.4-0.7,0.4-1,0.6c-0.2,0.2-0.5,0.3-0.8,0.3c-0.4,0-0.8,0.1-1.1,0.3
				c-0.5-0.2-0.7,0.4-1.1,0.3c-0.2,0.5-0.8,0.2-1.1,0.4c-0.3,0.2-0.7,0.5-1.1,0.5c-0.4,0-0.6,0.4-1,0.3c-0.5-0.1-0.7,0.4-1.1,0.3
				c-0.3-0.1-0.5,0.4-1,0.3c-0.3,0-0.6,0.3-0.9,0.4c-0.1,0.1-0.3,0.2-0.4,0.2c-0.5-0.1-0.7,0.4-1.1,0.3c-0.4,0-0.7,0.3-1,0.5
				c-0.1,0-0.2,0.1-0.3,0.1c-0.4-0.1-0.6,0.3-1,0.3c-0.3,0-0.5,0.4-0.8,0.3c-0.4-0.1-0.5,0.4-1,0.4c-0.1,0-0.2,0.3-0.4,0.3
				c-0.3,0-0.6,0-0.8,0.3c-0.4-0.1-0.6,0.5-1,0.3c-0.4-0.1-0.5,0.3-0.8,0.3c-0.2,0-0.5,0.3-0.7,0.3c-0.3,0-0.6,0.1-0.8,0.4
				c-0.1,0.1-0.2,0.3-0.3,0.3c-0.6-0.1-1.1,0.1-1.5,0.6c0,0-0.2,0-0.3,0c-0.2,0-0.4,0-0.4,0.1c-0.2,0.3-0.5,0.2-0.7,0.2
				c-0.2,0-0.5,0.3-0.7,0.3c-0.4-0.1-0.6,0.4-1,0.3c-0.4-0.1-0.6,0.3-1,0.4c-0.3,0-0.5,0.4-0.8,0.3c-0.3-0.1-0.5,0.5-0.8,0.3
				c-0.4-0.1-0.5,0.4-0.8,0.3c-0.3,0-0.6,0.2-0.8,0.3c-0.3,0.1-0.7,0.2-1,0.3c-0.3,0.1-0.5,0.5-1,0.4c-0.4-0.1-0.5,0.5-1,0.3
				c-0.3-0.1-0.4,0.4-0.8,0.3c-0.4-0.2-0.6,0.5-1,0.3c-0.2,0.3-0.5,0.3-0.8,0.3c-0.4,0.4-1,0.3-1.5,0.6c-0.3,0.2-0.7,0.5-1.1,0.3
				c-0.3,0.3-0.6,0.4-1,0.3c-0.2,0.4-0.7,0.3-0.9,0.5c0,0.1-0.2,0.1-0.3,0.1c-0.6,0.2-1.1,0.4-1.6,0.8c-0.2,0.2-0.3,0-0.3-0.1
				c-0.1-0.1-0.2-0.1-0.2,0c-0.2,0.3-0.6,0.2-0.8,0.4c-0.1,0.2-0.5,0.1-0.6,0.3c-0.2,0.2-0.5,0-0.8,0.2c-0.8,0.5-1.8,0.8-2.6,1.3
				c-0.2,0.1-0.4,0.1-0.5,0.2c-0.1,0.1,0,0.4-0.3,0.5c-0.7,0.1-0.8,0.6-0.7,1.1c0,0.4,0.6,1,1,1.1c0.1,0,0.2-0.1,0.3-0.1
				c0.1,0,0.2-0.1,0.2-0.1c0.3,0.4,0.8,0.2,1.2,0.3l0-0.2c0.5,0,1,0.1,1.4-0.3c0.4,0.1,0.7-0.2,1-0.3c0.3-0.1,0.7,0.1,1-0.2
				c0.3-0.3,0.9,0.1,1.1-0.4c0.5,0.2,0.8-0.4,1.3-0.3c0.3,0,0.6,0,0.8-0.2c0.2-0.2,0.7,0.1,0.9-0.3c0.4,0.1,0.5-0.4,0.8-0.3
				c0.5,0.1,0.9-0.6,1.4-0.3c0.3-0.5,1-0.1,1.3-0.6c0.5,0.1,1-0.2,1.4-0.3c0.3-0.1,0.7,0.1,1-0.3c0.4,0.1,0.8-0.2,1.1-0.3
				c0.3-0.1,0.5-0.4,1-0.4c0.3,0,0.6-0.4,1-0.3c0.3,0,0.5-0.4,0.8-0.3c0.4,0.1,0.7-0.2,1-0.3c0.3-0.1,0.5-0.5,1-0.4
				c0.2,0,0.4-0.3,0.7-0.3c0.3,0,0.6,0,0.8-0.3c0.4,0.1,0.5-0.4,0.8-0.3c0.4,0.1,0.6-0.4,1-0.3c0.4,0.1,0.6-0.3,0.8-0.3
				c0.4,0,0.7-0.3,1-0.3c0.3-0.1,0.5-0.4,1-0.3c0.3,0.1,0.6-0.4,1-0.3c0.3,0,0.6-0.4,1-0.3c0.1,0,0.2-0.2,0.4-0.2
				c0.4-0.1,0.8-0.6,1.3-0.4c0.3-0.3,0.6-0.4,1-0.3c0.2-0.3,0.7-0.2,0.9-0.5c0.1-0.1,0.2-0.1,0.3-0.1c0.4,0.2,0.6-0.4,1-0.3
				c0.4,0.1,0.6-0.3,1-0.3c0.3,0,0.4-0.4,0.7-0.3c0.4,0.1,0.5-0.3,0.8-0.3c0.4,0.1,0.7-0.4,1-0.3c0.4,0.1,0.6-0.3,1-0.3
				c0.3-0.1,0.6-0.4,1-0.3c0.3-0.3,0.7-0.3,1.1-0.4c0.3-0.5,1,0,1.2-0.5c0.5,0.2,0.9-0.4,1.4-0.3c0.3,0,0.6-0.4,1-0.3
				c0.1,0,0.2-0.2,0.4-0.2c0.5,0,0.8-0.5,1.3-0.4c0.3-0.2,0.5-0.3,0.8-0.3c0.3,0,0.6-0.3,0.9-0.4c0.1-0.1,0.3-0.2,0.4-0.2
				c0.2,0,0.4,0,0.6,0c0.2,0,0.5-0.3,0.7-0.3c0.5,0.1,0.7-0.4,1.1-0.4c0.4,0,0.7-0.3,1.1-0.5c0.3-0.1,0.6-0.4,0.9-0.4
				c0.5,0,0.9-0.6,1.4-0.4c0.2-0.4,0.7-0.2,0.9-0.4c0.3-0.3,0.7-0.3,1-0.3c0.1,0,0.3,0,0.3,0c0.3-0.3,0.7-0.3,1-0.6
				c0.5,0.2,0.7-0.3,1.1-0.3c0.2,0,0.3-0.3,0.7-0.3c0.3,0,0.6,0.1,0.9-0.2c0.2-0.3,0.6,0.1,0.8-0.2c0.3-0.4,0.8,0,1.1-0.5
				c0.5,0.1,0.8-0.3,1.3-0.3c0.3,0,0.5-0.2,0.7-0.3c0.2-0.1,0.6,0.1,0.7-0.1c0.2-0.3,0.5-0.1,0.7-0.3c0.3-0.4,0.9,0,1.1-0.4
				c0-0.1,0.2-0.1,0.3-0.1c0.4,0,0.8,0,1.1-0.3c0.5,0.1,0.8-0.3,1.3-0.4c0.1,0,0.3-0.2,0.4-0.2c0.2,0,0.4,0,0.6,0
				c0.2,0,0.5-0.3,0.7-0.3c0.4,0.1,0.6-0.4,1-0.3c0.5,0.1,0.7-0.4,1.1-0.4c0.1,0,0.2-0.2,0.4-0.2c0.3,0,0.5,0,0.8,0
				c0.2,0,0.4-0.4,0.7-0.3c0.4,0.2,0.6-0.5,1-0.3c0.4,0.2,0.5-0.5,1-0.3c0.2-0.2,0.4-0.3,0.7-0.3c0.3,0,0.6,0,0.8-0.2
				c0.2-0.2,0.7,0.1,0.9-0.3c0.4,0.1,0.5-0.4,0.8-0.3c0.5,0.1,0.9-0.6,1.4-0.3c0.2-0.2,0.4-0.4,0.7-0.3c0.4,0.1,0.5-0.4,0.8-0.3
				c0.4,0.1,0.6-0.4,1-0.3c0.5,0.1,0.7-0.4,1.1-0.4c0.2-0.4,0.7-0.1,1-0.3c0.3-0.2,0.7-0.3,1-0.5c0.5,0.2,0.8-0.5,1.3-0.3
				c0.3-0.2,0.6-0.3,1-0.3c0.3,0,0.6-0.3,0.9-0.5c0.1,0,0.2-0.1,0.3-0.1c0.5,0.1,0.7-0.4,1.1-0.3c0.4,0.1,0.7-0.5,1.1-0.3
				c0.5-0.3,1-0.5,1.3-0.9c0.1-0.1,0.2-0.3,0.2-0.4c-0.1-0.5,0.3-0.6,0.5-0.9c0.2-0.2,0.1-0.2-0.1-0.3c-0.5-0.2-0.5-0.3-0.2-0.7
				C195.5,68.1,195.6,68,195.7,67.8z"/>
			<path d="M101.7,85.2c0.4,0.1,0.7-0.4,1-0.3c0.4,0.1,0.6-0.3,1-0.3c0.3,0,0.5-0.4,0.8-0.3c0.4,0.1,0.5-0.5,1-0.3
				c0.3,0.1,0.5-0.4,0.8-0.3c0.4,0.2,0.6-0.5,1-0.3c0.2-0.3,0.5-0.3,0.8-0.3c0.3,0,0.6-0.4,1-0.3c0.1,0,0.2-0.1,0.3-0.1
				c0.2-0.3,0.5-0.2,0.8-0.4c0.2-0.2,0.6,0.1,0.8-0.2c0.2-0.2,0.6-0.1,0.8-0.5c0,0,0.1,0,0.2,0c0.4,0.2,0.7-0.4,1.1-0.3
				c0.2-0.5,0.7-0.2,1.1-0.4c0.4-0.2,0.7-0.5,1.2-0.5c0.4-0.1,0.8-0.3,1.2-0.6c0,0,0.1,0,0.2,0c0.4,0.2,0.6-0.3,1-0.3
				c0.3,0,0.5-0.3,0.8-0.3c0.3,0,0.6-0.2,0.9-0.3c0.3-0.1,0.6-0.4,0.9-0.5c0.3-0.1,0.7,0,1-0.3c0.4,0.1,0.8-0.1,1.1-0.3
				c0.3-0.2,0.7-0.4,1.1-0.3c0.2-0.2,0.5-0.2,0.6-0.3c0.3-0.3,0.6-0.2,0.8-0.3c0.3-0.1,0.6-0.2,0.8-0.4c0.3-0.4,0.7,0,1-0.3
				c0.3-0.3,0.7-0.2,0.9-0.5c0.4,0.1,0.7-0.2,1-0.3c0.3-0.1,0.6,0,0.8-0.3c0.2-0.2,0.7,0,0.9-0.4c0.4,0.1,0.5-0.4,0.8-0.3
				c0.4,0.1,0.6-0.3,1-0.3c0.3-0.1,0.6-0.4,1-0.3c0.2,0,0.3-0.2,0.5-0.3c0.2-0.1,0.5,0,0.7-0.2c0.4-0.3,0.8-0.5,1.4-0.5
				c0.2,0,0.4-0.4,0.7-0.3c0.4,0.1,0.5-0.3,0.8-0.3c0.3,0,0.6-0.4,1-0.3c0.4-0.4,1.2-0.2,1.6-0.8c0-0.1,0.2-0.1,0.3-0.1
				c0.2,0,0.4,0,0.6,0c0.2-0.1,0.4-0.2,0.7-0.3c0.2,0,0.4,0,0.6,0c0.2,0,0.4-0.2,0.7-0.3c0.3-0.1,0.6-0.4,1-0.3
				c0.3,0,0.5-0.3,0.8-0.3c0.3,0,0.6-0.2,0.9-0.4c0.1-0.1,0.3-0.2,0.4-0.2c0.3-0.1,0.7,0.1,0.9-0.1c0.3-0.3,0.7-0.2,1-0.2
				c0.1,0,0.2,0,0.2,0c0.2-0.4,0.6-0.3,1-0.3c0.2-0.5,0.8-0.1,1.1-0.5c0.3-0.3,0.8,0,1.1-0.4c0,0,0.1,0,0.1,0c0.3,0,0.6,0,0.9-0.1
				c0.2-0.4,0.7,0,1-0.3c0.3-0.3,0.7-0.1,0.8-0.2c0.3-0.2,0.5-0.3,0.8-0.3c0.2,0,0.5-0.3,0.7-0.3c0.4,0,0.5-0.2,0.8-0.3
				c0.2-0.1,0.5,0.1,0.7-0.2c0.3-0.3,0.6-0.1,0.9-0.1c0.1,0,0.3,0,0.3-0.1c0.2-0.5,0.8,0,1.1-0.4c0.3-0.3,0.8,0.1,1.1-0.4
				c0.5,0.2,0.8-0.3,1.1-0.3c0.5,0.1,0.7-0.5,1.1-0.3c0.5,0.2,0.7-0.4,1.1-0.3c0.4,0.1,0.6-0.5,1-0.3c0.6,0.2,1-0.5,1.6-0.3
				c0.2-0.5,0.8-0.2,1.1-0.4c0.7-0.4,1.5-0.8,2.2-1.1c0.7-0.3,0.8-0.5,1-1.2c0.1-0.4,0.5-0.6,0.3-1c0.1,0,0.2,0,0.3,0
				c0.1,0,0.3-0.1,0.3-0.1c0-0.4,0.1-0.8,0.3-1.1c0.1-0.2,0.1-0.5-0.2-0.7c-0.2-0.2-0.5-0.4-0.5-0.8c-0.2-0.2-0.4-0.5-0.8-0.5
				c-0.2,0-0.4,0-0.6,0c-0.4,0-0.7,0.1-1-0.3c0-0.1-0.3-0.1-0.4,0.1c0,0.1-0.1,0.2-0.2,0.2c-0.4,0-0.8,0.1-1.1,0
				c-0.5-0.1-0.7,0.4-1.1,0.3c-0.5-0.1-1,0.2-1.3,0.5c-0.3,0.3-0.6,0.6-1.1,0.4c-0.6-0.2-1,0.5-1.6,0.3c-0.2,0.4-0.7,0.2-0.9,0.4
				c-0.4,0.3-0.8,0.3-1.1,0.8c-0.2,0.3-0.5,0.2-0.6,0c-0.1-0.1-0.1-0.1-0.2,0c-0.1,0.1-0.1,0.2-0.2,0.2c-0.4,0.1-0.8-0.1-1.2,0.2
				c-0.3,0.3-0.8,0-1.1,0.4c-0.5-0.2-0.7,0.3-1.1,0.3c-0.5,0-0.8,0.5-1.3,0.3c-0.2,0-0.3,0.4-0.6,0.3c-0.4-0.1-0.5,0.3-0.8,0.3
				c-0.3,0-0.5,0.4-0.8,0.3c-0.4-0.1-0.5,0.4-1,0.3c-0.2,0-0.5,0.3-0.8,0.3c-0.6-0.1-1,0.3-1.4,0.4c-0.2,0-0.3,0.3-0.5,0.2
				c-0.4-0.2-0.5,0.5-1,0.3c-0.4-0.2-0.5,0.5-1,0.3c-0.2,0.3-0.4,0.3-0.6,0c0,0-0.3-0.1-0.3,0c-0.3,0.4-0.8,0.2-1.1,0.4
				c-0.2,0.2-0.5,0.2-0.7,0.2c-0.1,0-0.3,0-0.3,0.1c0,0.6-0.5,0.6-0.9,0.5c-0.5-0.2-0.8,0.4-1.3,0.3c-0.2,0-0.3,0.1-0.5,0.3
				c-0.5,0.3-1.2,0.4-1.8,0.7c-0.2,0.1-0.5,0-0.7,0.2c-0.2,0.2-0.5,0.2-0.8,0.4c-0.2,0.3-0.9,0.5-1.5,0.6c-0.1,0-0.2,0.1-0.2,0.2
				c0.1,0.5-0.2,0.5-0.6,0.5c-0.4,0-0.9-0.1-1.3,0c-0.4,0.1-0.9,0.2-1.2,0.6c-0.5-0.1-0.8,0.2-1.1,0.3c-0.3,0.1-0.6-0.1-0.8,0
				c-0.2,0.1-0.4,0.2-0.6,0.3c-0.2,0.1-0.4,0.2-0.7,0.3c-0.6,0.2-1.2,0.5-1.7,0.8c-0.3,0.3-0.7,0.5-1.1,0.4c-0.2,0-0.5-0.1-0.6,0
				c-0.2,0.3-0.6,0.2-0.8,0.4c-0.3,0.3-0.7,0-1,0.3c-0.4,0.3-0.8,0.6-1.4,0.5c-0.2,0.5-0.8,0.2-1.1,0.4c-0.4,0.3-0.9,0.4-1.3,0.7
				c-0.5,0.3-1,0.5-1.5,0.6c-0.5,0.1-0.8,0.5-1.3,0.5c-0.5,0-1,0.5-1.5,0.7c-0.2,0.1-0.4,0.2-0.7,0.3c-0.3,0-0.8,0.2-0.9,0.4
				c-0.3,0.4-0.8,0.1-1.1,0.4c-0.4,0.3-1,0.5-1.6,0.8c-0.3,0.1-0.5,0.4-0.8,0.4c-0.2,0.3-0.6,0.2-0.8,0.3c-0.3,0.2-0.7,0.2-0.9,0.5
				c-0.3,0.3-0.9-0.1-1.1,0.4c-0.7,0.2-1.3,0.7-2,0.9c-0.3,0.1-0.5,0.5-0.8,0.3c-0.4-0.2-0.6,0.5-1,0.3c-0.2,0.3-0.5,0.2-0.8,0.3
				c-0.4,0.1-0.7,0.3-1,0.5c-0.3,0.2-0.8-0.1-1,0.3c-0.4,0-0.7,0.3-1.1,0.5c-0.3,0.2-0.5,0.2-0.7,0.2c-0.3,0-0.6,0.4-1,0.3
				c-0.1,0-0.2,0.2-0.4,0.2c-0.7,0.3-1.3,0.6-1.9,1c-0.3-0.1-0.5,0.4-0.8,0.3c-0.5-0.1-0.6,0.3-0.9,0.5c-0.4,0.3-0.3,0.6-0.3,1
				l0.1,0.6c0,0.1,0,0.1,0,0.1c0.3,0.2,0.1,0.6,0.1,0.9c0,0.2,0.1,0.3,0.3,0.3c0.3,0,0.5,0.5,0.8,0.3c0.3,0.5,0.8,0.3,1.3,0.3
				c0.2-0.5,0.8-0.1,1.1-0.5c0.3-0.4,0.9,0,1.2-0.2c0.3-0.3,0.6-0.2,0.8-0.3c0.3-0.1,0.6-0.4,1-0.3
				C101.2,85.6,101.4,85.1,101.7,85.2z M170.1,58.5c0.1-0.2,0.2-0.1,0.3,0c0,0,0,0.1,0,0.1c0,0-0.1,0-8.5,2.8
				C167.3,59.5,170.1,58.5,170.1,58.5z"/>
			<path d="M95.3,72.7c0.2-0.4,0.6-0.4,1-0.4c0.3,0,0.5-0.1,0.7-0.3c0.2-0.4,0.7-0.3,1-0.6c0.2,0.3,0.3,0.3,0.5,0
				c0.2-0.3,0.4-0.4,0.8-0.4c0.6,0,1-0.3,1.3-0.8c0.1-0.1,0.1-0.1,0.2,0c0.1,0.1,0.2,0.2,0.3,0.1c0.3-0.2,0.7-0.3,1-0.7l1.1-0.5
				c0.5,0.2,0.8-0.3,1.3-0.4c0.4-0.1,0.7-0.4,1-0.6c0.5,0.2,0.8-0.4,1.3-0.3c0.3,0,0.4-0.2,0.5-0.3c0.2-0.3,0.5-0.4,0.8-0.3
				c0.5,0.1,0.7-0.4,1.1-0.3c0.2-0.2,0.4-0.4,0.7-0.3c0.5,0.1,1-0.2,1.5-0.3c0.3-0.1,0.5-0.1,0.7-0.3c0.2-0.2,0.6,0.1,0.9-0.2
				c0.3-0.3,0.9,0.1,1-0.5c0.5,0.1,0.6-0.5,1-0.6c0,0,0.1,0,0.2,0c0.3-0.2,0.6-0.4,1-0.3c0.3-0.4,0.8-0.2,1.1-0.4
				c0.3-0.3,0.7-0.2,1-0.2c0.3,0,0.4-0.5,0.8-0.3c0,0,0.1-0.3,0.2-0.4c0-0.1,0.1-0.2,0.2-0.2c0.2,0,0.4,0,0.6,0
				c0.5,0.1,0.8-0.1,1.1-0.5c0-0.1,0.2-0.1,0.2-0.1c0.1,0.1,0.2,0.3,0.5,0.1c0.2-0.2,0.6-0.1,0.8-0.4c0.5,0,0.6-0.4,0.9-0.6
				c0,0,0.2,0,0.2,0.1c0.2,0.2,0.4,0.2,0.7,0c0.1-0.1,0.2-0.2,0.3-0.3c0.2-0.2,0.3,0,0.3,0.1c0.1,0.1,0.2,0.1,0.2,0
				c0-0.6,0.3-0.5,0.6-0.2c0.1,0,0.3-0.1,0.4-0.2c0.3-0.3,0.5-0.5,0.8-0.8c0.4,0.1,0.6-0.3,0.9-0.5c0.1-0.1,0.1-0.1,0.2,0
				c0.1,0.1,0.2,0.2,0.3,0c0.1-0.2,0.3-0.3,0.3-0.5c0.3-0.6,0.5-1.2,0.9-1.7c0.2-0.2,0.4-0.4,0.4-0.8c0-0.4-0.1-0.8,0-1.1
				c0.1-0.3,0.3-0.5,0.3-0.9c0-0.2,0-0.5-0.2-0.7c-0.3-0.3,0.1-0.8-0.3-1c0-0.3,0-0.5,0-0.8c0-0.3,0-0.6,0-0.9
				c0-0.3,0.1-0.7-0.1-0.9c-0.2-0.3-0.3-0.6-0.2-0.8c0.1-0.4-0.4-0.6-0.3-1c0-0.3,0.1-0.6-0.2-0.9c-0.3-0.2,0-0.6-0.2-0.7
				c-0.2-0.3-0.2-0.6-0.4-0.8c-0.4-0.3,0-0.9-0.4-1.1c-0.1,0-0.1-0.2-0.1-0.3c0.1-0.5-0.2-1-0.4-1.4c-0.1-0.2-0.2-0.3-0.3-0.5
				c0-0.4,0.2-0.8-0.2-1.2c-0.3-0.3,0.1-0.9-0.5-1.1c-0.3-0.9-0.6-1.5-1-2c-0.2-0.2-0.3-0.5-0.5-0.7c-0.4,0-0.5-0.3-0.8-0.5
				c-0.1-0.1-0.3-0.2-0.4-0.1c-0.3,0.3-0.6,0.3-1,0.3c-0.3,0-0.6,0-1,0c-0.3,0-0.6-0.1-0.9,0.2c-0.2,0.3-0.6,0-0.9,0.1
				c-0.1,0-0.2,0.1-0.3,0.1c-0.5,0.2-0.9,0.6-1.5,0.5c-0.2,0.4-0.7,0.1-1,0.3c-0.3,0.4-0.7,0.1-1,0.3c-0.4,0.2-0.9,0.2-1.2,0.4
				c-0.3,0.2-0.6,0.1-0.8,0.4c-0.2,0.3-0.6-0.1-0.8,0.2c-0.2,0.3-0.6,0.1-0.8,0.5c0,0-0.2,0.1-0.3,0c-0.6-0.2-0.9,0.3-1.4,0.4
				c-0.1,0-0.3,0.2-0.4,0.2c-0.2,0-0.4,0-0.6,0c-0.2,0.1-0.5,0.3-0.7,0.3c-0.5-0.1-0.7,0.4-1.1,0.4c-0.4,0-0.7,0.3-1,0.5
				c-0.3,0.1-0.6,0.4-0.9,0.4c-0.4,0-0.6,0.3-1,0.3c-0.3,0.1-0.5,0.4-1,0.4c-0.3,0-0.6,0.3-0.9,0.4c-0.1,0-0.2,0.2-0.3,0.2
				c-0.3,0-0.6,0-0.8,0.3c-0.4-0.1-0.6,0.5-1,0.3c-0.4-0.1-0.5,0.3-0.8,0.3c-0.4,0.1-0.7,0.4-1.1,0.3c-0.1,0-0.3,0-0.4,0.1
				c-0.3,0.2-0.5,0.6-0.9,0.5c-0.4-0.1-0.5,0.3-1,0.3c-0.4,0-0.8,0.3-1.3,0.4c-0.1,0.3-0.5,0.1-0.6,0.3c-0.2,0.3-0.6,0.1-0.9,0.2
				c-0.3,0.5-1,0.1-1.3,0.6c-0.5-0.1-0.9,0.5-1.4,0.3c-0.2,0.2-0.5,0.4-0.8,0.3c-0.3-0.1-0.4,0.5-0.8,0.3c-0.3,0.3-0.8,0.5-1.2,0.6
				c-0.2,0.1-0.5,0.1-0.7,0.3C88,50,87.6,50,87.5,50.3c-0.2,0.3-0.5,0.3-0.8,0.5c-0.3,0.2-0.5,0.5-0.9,0.6c-0.5,0.1-0.4,0.8-0.8,1.1
				c0.4,0.2,0.3,0.6,0.3,1c0,0.5,0,0.9,0,1.4c0,0.5,0.2,0.9,0.3,1.3c0.1,0.4,0.1,0.8,0.3,1.1c0.2,0.3-0.1,0.8,0.3,1.1
				c0,0.4,0.1,0.8,0,1.1c-0.1,0.5,0.4,0.7,0.3,1.1c0,0.4-0.2,1,0.3,1.3c-0.2,0.5,0.3,0.8,0.4,1.3c0,0.2,0.3,0.3,0.3,0.5
				c-0.1,0.5,0.3,0.9,0.4,1.4c0,0.1,0.2,0.2,0.2,0.4c0,0.4,0,0.7,0,1.1c0.4,0.3,0.3,0.7,0.3,1.1c0,0.3,0,0.5,0,0.8
				c0,0.1,0,0.3,0.1,0.4c0.2,0.3,0.5,0.7,0.5,1c0,0.5,0.6,0.8,0.3,1.3c0.2,0.3,0.4,0.7,0.6,1c0.4,0.4,0.8,0.8,1.2,1.2
				c0.2,0.2,0.3,0.2,0.5,0.2c0.3,0,0.6,0,0.9,0c0.4,0.1,0.5-0.5,1-0.3c0.2,0,0.5,0.1,0.7-0.1C94.7,72.9,95.1,73,95.3,72.7z
				 M93.8,68.5c-0.1-0.2-0.3-0.5-0.4-0.7c-0.2-0.3-0.4-0.4-0.4-0.8c0-0.3,0.2-0.7-0.2-1.1c-0.3-0.3,0-0.7-0.2-1
				c-0.1-0.2-0.4-0.3-0.3-0.7c-0.5-0.4-0.8-0.8-0.6-1.5c0-0.1-0.1-0.2-0.1-0.2c-0.5-0.3-0.5-0.7-0.5-1.2c0-0.1-0.1-0.3-0.2-0.4
				c-0.4-0.5-0.5-0.9-0.8-1.6c-0.1-0.4-0.4-0.7-0.3-1.1c0.1-0.4-0.5-0.5-0.3-1c-0.3-0.5-0.3-1.3-0.8-1.7c-0.3-0.2-0.4-0.6-0.4-0.9
				c0-0.5-0.5-0.9-0.4-1.4c0-0.2-0.4-0.3,0.1-0.5c0.6-0.2,1.1-0.6,1.8-0.7c0.2,0,0.3-0.3,0.5-0.2c0.4,0,0.7,0,1-0.3
				c0.2-0.2,0.6,0.1,0.8-0.3c0,0,0.1-0.1,0.1-0.1c0.4-0.1,0.8,0.1,1-0.1c0.3-0.3,0.6-0.2,0.9-0.2c0.4,0.1,0.5-0.4,0.8-0.3
				c0.4,0.1,0.5-0.3,0.8-0.3c0.3-0.1,0.6,0,0.8-0.3c0.2-0.2,0.6,0.1,0.8-0.2c0-0.1,0.2-0.1,0.3-0.1c0.3-0.1,0.7,0.1,1-0.2
				c0.2-0.3,0.7,0.1,1-0.3c0.2-0.3,0.8,0.1,1-0.3c0.6,0,1-0.5,1.6-0.4c0.1,0,0.3,0,0.4-0.1c0.3-0.3,0.7-0.3,1-0.5
				c0.4,0.1,0.6-0.3,1-0.3c0.3,0,0.4-0.4,0.8-0.3c0.3,0.1,0.4-0.3,0.6-0.3c0.4,0,0.7-0.2,1-0.3c0.4-0.1,0.7-0.5,1.1-0.3
				c0.2-0.3,0.6-0.3,0.9-0.5c0.3-0.3,0.8,0,1.2-0.2c0.3-0.2,0.6-0.4,0.9-0.5c0.3-0.1,0.7,0.2,1-0.2c0.2-0.2,0.6-0.1,0.8-0.4
				c0,0,0.1,0,0.1,0c0.4,0,0.9,0.1,1.1-0.3c0.4,0,0.7,0,1-0.3c0.5,0.2,0.8-0.3,1.3-0.3c0.4,0,0.9-0.2,1.2-0.6
				c0.5,0.1,0.8-0.4,1.3-0.3c0.4,0,0.5-0.3,0.8-0.3c0.3,0,0.5,0,0.7-0.2c0.1-0.1,0.3-0.1,0.4-0.1c0.4,0,0.6-0.5,1.1-0.4
				c0.4,0.1,0.5,0,0.6,0.7c0,0.3,0.4,0.5,0.3,1c-0.1,0.3,0.4,0.4,0.4,0.8c0,0.1,0.3,0.3,0.3,0.5c-0.2,0.6,0.4,1,0.3,1.6
				c0.3,0.3,0.4,0.6,0.3,1c-0.1,0.3,0.3,0.5,0.3,0.7c0,0.5,0.5,0.8,0.4,1.3c-0.1,0.4,0.5,0.6,0.3,1.1c-0.1,0.4,0,0.8,0,1.2
				c0.6,0.8,0.2,1.6,0.3,2.3v0.9c0,0.5-0.1,1,0.3,1.5c0.1,0.1,0,0.4-0.1,0.6h0c0,0-0.3,0.1-0.4,0.1c-0.5,0-0.8,0.5-1.3,0.4
				c-0.2,0.3-0.6,0.2-0.8,0.3c-0.3,0.1-0.6,0.3-1,0.3c-0.3,0-0.5,0.3-0.8,0.3c-0.1,0-0.3,0.2-0.4,0.2c-0.5,0.1-0.8,0.6-1.4,0.4
				c-0.1,0-0.2,0-0.3,0c-0.3,0.2-0.6,0.4-0.9,0.5c-0.3,0.2-0.6,0-0.9,0.2c-0.4,0.3-0.9,0.5-1.5,0.5c-0.3,0-0.7,0.4-1.1,0.3
				c-0.7,0.6-1.7,0.6-2.4,1.1c-0.3,0.3-0.9-0.1-1.1,0.5c-0.4-0.1-0.7,0.4-1.1,0.3c-0.3,0-0.6,0.4-1,0.3c-0.3,0.3-0.7,0.3-1.1,0.4
				c-0.3,0.1-0.6,0.5-0.9,0.5c-0.3,0-0.5,0.4-0.8,0.4c-0.3,0-0.6,0.1-0.8,0.3c-0.5-0.2-0.8,0.3-1.3,0.3c-0.4,0-0.9,0.2-1.2,0.6
				c-0.4,0-0.8,0.2-1.1,0.3c-0.3,0.2-0.7,0.5-1.1,0.3c-0.1,0.3-0.5,0.3-0.8,0.4c-0.3,0.2-0.7,0.4-1,0.5c-0.3,0.1-0.6,0.4-1,0.3
				c-0.3,0.3-0.8,0.3-1,0.6c-0.5-0.2-0.8,0.3-1.1,0.3c-0.4,0-0.6,0.3-1,0.3c-0.2,0-0.4,0-0.6,0.1C94.3,68.3,93.9,68.2,93.8,68.5z"/>
			<path d="M67.2,97.4c0,0-0.1-0.2-0.2-0.2c-0.5,0-0.9,0.1-1.3-0.3c0,0-0.2,0-0.3,0c-0.2,0.3-0.6,0.2-0.8,0.3
				c-0.3,0.1-0.6,0.3-0.9,0.5c-0.1,0.1-0.3,0.2-0.4,0.1c-0.5-0.2-0.8,0.4-1.3,0.3c-0.2,0.3-0.5,0.3-0.8,0.5c-0.3,0.3-0.7,0.1-1,0.2
				c-0.1,0-0.2,0.1-0.3,0.2c-0.2,0.2-0.4,0.1-0.6,0.2c-0.2,0.1-0.5,0.3-0.6,0.3c-0.5-0.2-0.7,0.5-1.1,0.3c-0.6-0.2-1,0.5-1.6,0.3
				c-0.2,0.3-0.6,0.2-0.8,0.5c-0.3,0.3-0.6,0.1-0.9,0.2c-0.3,0.2-0.6,0.4-0.9,0.5c-0.3,0.1-0.6-0.1-0.9,0.2
				c-0.3,0.2-0.6,0.4-0.9,0.5c-0.3,0.1-0.5,0.5-1,0.3c-0.5,0.4-1.3,0.5-1.8,1c-0.1,0.1-0.1,0.2-0.2,0.2c-0.3,0.2-0.2,0.5-0.2,0.7
				c0,0.3,0.3,0.2,0.4,0.3c0.2,0.2,0.6,0.2,0.8,0.4c0.3,0.3,0.7,0.3,1,0c0.3-0.3,0.9,0.1,1.1-0.4c0,0,0.1,0,0.1,0
				c0.6,0.2,1-0.3,1.6-0.3c0.4,0,0.7-0.5,1.1-0.3c0.3-0.5,0.8-0.3,1.3-0.3c0,0,0.1-0.1,0.1-0.1c0.3-0.4,1,0,1.2-0.5
				c0.5,0.2,0.8-0.3,1.3-0.3c0.3,0,0.5-0.3,0.8-0.3c0.5,0.1,0.9-0.3,1.4-0.4c0.2,0,0.3-0.2,0.5-0.2c0.3,0,0.7,0,1-0.3
				c0.5,0.2,0.8-0.4,1.3-0.3c0.4,0.1,0.7-0.1,1-0.3c0.2-0.1,0.4-0.4,0.6-0.3c0.7,0.1,1.2-0.5,1.8-0.7c0.3-0.1,0.6-0.4,0.5-0.8h0
				C67.6,98.4,67,98,67.2,97.4z"/>
			<path d="M49.4,87.5c0,0,0.2,0,0.3,0c0.4,0,0.7,0,1-0.3c0.5,0.1,0.8-0.2,1.1-0.5c0.1-0.1,0.2-0.2,0.3-0.2c0.3,0,0.6,0,0.9,0
				c0.4,0,0.5-0.4,1-0.3c0.3,0.1,0.7,0.1,0.9-0.1c0.3-0.2,0.6-0.1,0.8-0.2c0.3-0.2,0.5-0.3,0.8-0.4c0.1-0.1,0.3-0.2,0.4-0.2
				c0.4,0,0.8,0.1,1.1-0.3c0.5,0.2,0.9-0.4,1.4-0.3c0.3,0,0.6-0.3,0.9-0.5c-0.1-0.3,0.3-0.4,0.3-0.7c0-0.4,0-0.8,0-1.2
				c-0.1-0.3-0.3-0.6-0.5-0.9c-0.1-0.1-0.3-0.2-0.4-0.2c-0.2,0-0.3,0-0.5,0l0,0c0,0,0,0,0,0c-0.3,0-0.6,0-0.9,0
				c-0.1,0-0.2,0.2-0.2,0.2c-0.9,0-1.6,0.9-2.5,0.7c0,0-0.1,0.1-0.2,0.2c-0.5,0.2-0.8,0.6-1.4,0.5c-0.2,0.3-0.5,0.3-0.8,0.3
				c-0.2,0-0.5,0.3-0.7,0.3c-0.3,0-0.5,0.3-0.8,0.3c-0.3,0.1-0.5,0.1-0.8,0.3c-0.2,0.2-0.5,0.3-0.7,0.5c-0.2,0.2-0.3,0.2-0.5,0.2
				c-0.4,0-0.8-0.1-1,0.3c-0.2,0.5-0.8,0.1-1.1,0.4c0,0,0,0.1,0,0.1c0,0.2-0.1,0.3-0.2,0.3c-0.4-0.1-0.7,0.2-1,0.3
				c-0.5,0.1-0.7,0.4-0.7,0.8c0,0-0.2,0.1-0.3,0.1c-0.4,0-0.5,0.4-0.8,0.7c-0.2,0.2-0.2,1,0,1.1c0.3,0.2,0.4,0,0.6-0.2
				c0.2-0.1,0.4,0,0.6-0.1c0.4-0.1,0.9,0.2,1.3-0.3c0.5,0.1,0.9-0.3,1.4-0.4C48.5,87.6,49.2,88,49.4,87.5z"/>
			<path d="M45.7,74.5c0.3-0.1,0.7,0.1,1-0.2c0.3-0.3,0.9,0.1,1.1-0.4c0.5,0.2,0.9-0.5,1.4-0.3c0.4-0.4,1.1-0.2,1.5-0.6
				c0.3,0,0.6,0,0.8-0.3c0.2-0.2,0.7,0,0.9-0.4c0.6,0.2,1-0.5,1.6-0.3c0.2-0.4,0.6-0.3,0.9-0.5c0.3-0.2,0.8,0,1.1-0.4
				c0.4,0,0.6-0.3,0.7-0.5c0.1-0.3,0.1-0.6,0-0.9c-0.1-0.3-0.3-0.6-0.5-0.9c-0.1-0.1-0.3-0.2-0.4-0.2c-0.2,0-0.3,0-0.5,0l0,0
				c-0.2,0-0.5-0.1-0.6,0c-0.2,0.3-0.5,0.3-0.8,0.3c-0.1,0-0.2,0.2-0.4,0.2c-0.5,0-0.8,0.5-1.3,0.4c-0.3,0.2-0.5,0.4-0.8,0.3
				c-0.3-0.1-0.5,0.4-0.8,0.3c-0.2,0-0.4,0.4-0.7,0.3c-0.4-0.1-0.5,0.4-0.8,0.3c-0.4-0.1-0.6,0.4-1,0.3c-0.5-0.1-0.7,0.4-1.1,0.4
				c-0.2,0.5-0.9,0-1.2,0.5c0,0-0.2,0-0.3,0c-0.4-0.1-0.8,0.1-1.1,0.3c-0.3,0.2-0.6,0.3-0.9,0.4c-0.3,0.2-0.6,0.3-0.9,0.5
				c-0.3,0.2-0.6,0.2-0.9,0.4c-0.3,0.2-0.6,0.3-0.8,0.6c-0.3,0.3-0.7,0.2-0.9,0.5c-0.2,0.3-0.6,0.3-0.9,0.5
				c-0.1,0.1-0.2,0.2-0.2,0.2c-0.1,0.1-0.2,0.7-0.1,0.7c0.1,0.1,0.3,0.1,0.4,0.2c0.1,0,0.3,0,0.4,0.1c0.8,0.3,0.8,0.3,1.5-0.1
				c0.4,0.1,0.7-0.4,1.1-0.3c0.3,0,0.5-0.4,1-0.3c0.1,0,0.2-0.2,0.4-0.2c0.6-0.3,1.1-0.5,1.7-0.8C45.4,74.7,45.6,74.6,45.7,74.5z"/>
			<path d="M82.9,104.4c0-0.4,0-0.8,0-1.2c0-0.1-0.1-0.2-0.2-0.3c-0.5-0.9-0.8-1.9-1.4-2.7c0.1-0.8-0.8-0.6-1.1-1.1
				c0,0-0.3,0.1-0.4,0.1c-0.4,0.2-0.4,0.6-0.4,0.9c0.4,0.3,0.3,0.7,0.3,1.1c0,0.3-0.1,0.7,0.2,1c0.3,0.3,0,0.8,0.1,1.2
				c0,0.1,0.2,0.3,0.2,0.4c0.1,0.5,0.4,0.7,0.7,1c0.1,0.2,0.4,0.3,0.3,0.5c-0.1,0.6,0.4,0.8,0.7,1.2c0.2,0.2,0.5,0.1,0.7,0.1
				c0.2,0,0.5-0.5,0.5-0.7v-0.5C83.2,105.1,83.4,104.7,82.9,104.4z M81.1,102.9c0,0-0.1-0.1-0.1-0.1c0-0.1,0.1-0.1,0.1-0.2
				c0,0,0.1,0,0.1,0.1C81.2,102.8,81.2,102.8,81.1,102.9z"/>
			<path d="M78.2,88.2c0.1-0.8-0.3-1.3-0.6-1.9c-0.4-0.8-0.7-1-1.5-1c-0.7,0-0.7,0-0.7,0.8c0,0.3-0.2,0.4-0.3,0.6
				c0.2,0.2,0.3,0.4,0.3,0.7c0,0.3-0.2,0.7,0.1,1c0.3,0.3,0.1,0.7,0.2,1c0,0,0,0.1,0,0.1c0.4,0.3,0.4,0.9,0.7,1.3
				c0.3,0.4,0.6,0.7,1,1c0.1,0.1,0.2,0.1,0.3,0c0.4-0.3,1-0.6,0.9-1.3c0-0.2,0-0.4,0-0.6C78.4,89.3,78.7,88.7,78.2,88.2z M76.1,86.8
				c0,0-0.1-0.1-0.1-0.1c0.1,0,0.1-0.1,0.2-0.1c0,0,0.1,0,0.1,0.1C76.2,86.7,76.1,86.8,76.1,86.8z M77.1,89
				c-0.1-0.1-0.2-0.2-0.2-0.3c0-0.1-0.1-0.3,0.1-0.3c0-0.1,0,0-0.2,0c0,0-0.1-0.1-0.2-0.2c0-0.2,0-0.4,0-0.6c0,0,0.1-0.1,0.1-0.1
				c0.1,0,0.2,0.1,0.2,0.2c0,0.1,0,0.3,0,0.5c0,0.1,0.1,0.2,0.1,0.3c0,0,0.1,0.1,0.2,0.2v0.1c-0.1-0.1-0.1-0.2-0.1-0.2
				C77.2,88.9,77.1,89,77.1,89z"/>
			<path d="M72.5,72.6c0-0.4,0-0.7,0-1.1c-0.4-0.2-0.2-0.7-0.3-1c-0.1-0.2-0.2-0.3-0.3-0.5c-0.1-0.3-0.4-0.5-0.6-0.7
				c-0.1-0.1-0.3-0.2-0.3-0.3c0.1-0.5-0.3-0.5-0.6-0.5c-0.1,0-0.2,0-0.3,0c-0.3,0-0.4,0.1-0.4,0.4c0,0.3,0,0.5-0.2,0.7
				C68.9,70,69,70.5,69.1,71c0.3,0.2,0.3,0.5,0.3,0.8c0,0.2,0,0.4,0.2,0.6c0.1,0.1,0.1,0.4,0.3,0.5c0.2,0.2,0.3,0.3,0.2,0.5
				c0.4,0.2,0.3,0.6,0.5,0.9c0.3,0.3,0.7,0.2,0.9,0.5c0.2-0.2,0.4-0.3,0.6-0.4c0.3-0.1,0.5-0.5,0.5-0.9c-0.1-0.3,0.3-0.3,0.3-0.5
				C72.8,73,72.5,72.9,72.5,72.6L72.5,72.6z M71.2,72.1c-0.1-0.1-0.3-0.2-0.3-0.3v0c0.3,0.3,0.3,0.4,0.2,0.5
				c-0.1-0.1-0.2-0.2-0.2-0.3c0,0,0-0.1,0-0.2c0,0-0.1-0.1-0.1-0.1h0c-0.2-0.2-0.2-0.3-0.2-0.5c0,0,0.1-0.1,0.1-0.1
				c0.1,0,0.2,0.1,0.2,0.2c0,0.1,0,0.3,0,0.4h-0.1l0.1,0.1c0,0,0.1-0.1,0.2,0c0.1,0,0.1,0.1,0.2,0.2C71.2,72,71.2,72,71.2,72.1z"/>
		</g>
	</g>
</g>
</svg>
