<?xml version="1.0" encoding="utf-8"?>
<!-- Generator: $$$/GeneralStr/196=Adobe Illustrator 27.6.0, SVG Export Plug-In . SVG Version: 6.00 Build 0)  -->
<svg version="1.1" id="Calque_1" xmlns="http://www.w3.org/2000/svg" xmlns:xlink="http://www.w3.org/1999/xlink" x="0px" y="0px"
	 viewBox="0 0 1920 376.1" style="enable-background:new 0 0 1920 376.1;" xml:space="preserve">
<style type="text/css">
	.st0{fill:#E61167;}
	.st1{fill:#DC5985;}
	.st2{fill:#E998B3;}
</style>
<g>
	<g>
		<g class="letters">
			<path d="M604.5,376.1c-27.4,0-51-5.7-70.6-16.9c-19.6-11.3-34.8-27-45.4-47.3s-15.9-43.7-15.9-70.5c0-26.9,5.3-50.4,15.9-70.6
				c10.6-20.3,25.7-36,45.4-47.3c19.6-11.3,43.2-16.9,70.6-16.9c27.4,0,51,5.7,70.6,16.9s34.8,27,45.4,47.3
				c10.6,20.3,15.9,43.8,15.9,70.6c0,26.7-5.3,50.3-15.9,70.5c-10.6,20.3-25.7,36-45.4,47.3C655.5,370.4,631.9,376.1,604.5,376.1z
				 M605,313.3c10,0,18.4-3.1,25.4-9.2c6.9-6.1,12.2-14.6,15.9-25.5s5.5-23.5,5.5-37.7c0-14.5-1.8-27.2-5.5-38.1s-9-19.4-15.9-25.5
				s-15.4-9.2-25.4-9.2c-10.3,0-19,3.1-26.1,9.2c-7.1,6.1-12.5,14.6-16.1,25.5c-3.7,10.9-5.5,23.6-5.5,38.1
				c0,14.3,1.8,26.9,5.5,37.7c3.7,10.9,9,19.4,16.1,25.5C586,310.3,594.7,313.3,605,313.3z"/>
			<path d="M840.7,109.9l43,86.1l44.6-86.1h83.8l-73,130.6l75.7,130.6h-83.1l-47.9-86.7L837,371.1h-84.3l75.9-130.6L756.4,110
				L840.7,109.9L840.7,109.9z"/>
			<path d="M1120.9,109.9l43,86.1l44.6-86.1h83.8l-73,130.6l75.7,130.6h-83.1l-47.9-86.7l-46.8,86.8h-84.3l75.9-130.6L1036.6,110
				L1120.9,109.9L1120.9,109.9z"/>
			<path d="M1330.4,371.1V109.9h80.8v47.6h2.7c4.8-17.3,12.5-30.1,23.3-38.5s23.3-12.7,37.6-12.7c3.8,0,7.8,0.3,11.9,0.8
				s7.9,1.3,11.4,2.3v72.2c-4-1.4-9.2-2.4-15.5-3.2c-6.4-0.8-12.1-1.2-17.1-1.2c-9.9,0-18.8,2.2-26.6,6.5
				c-7.9,4.4-14,10.4-18.5,18.2s-6.7,16.9-6.7,27.3V371L1330.4,371.1L1330.4,371.1z"/>
			<path d="M1573.9,79.5c-11.8,0-21.9-3.9-30.2-11.7s-12.6-17.1-12.6-28.1c0-10.9,4.2-20.2,12.6-28S1562.1,0,1573.8,0
				c11.8,0,21.9,3.9,30.2,11.7s12.5,17.1,12.5,28.1c0,10.9-4.2,20.2-12.5,28C1595.6,75.6,1585.6,79.5,1573.9,79.5z M1532.1,371.1
				V109.9h83.1v261.2H1532.1L1532.1,371.1z"/>
			<path d="M1751.1,222.2v148.9H1668V109.9h79.1v47.9h2.9c5.8-16,15.6-28.5,29.6-37.7c13.9-9.1,30.6-13.7,49.8-13.7
				c18.4,0,34.3,4.1,47.9,12.3c13.5,8.2,24.1,19.6,31.6,34.3s11.3,31.9,11.2,51.4v166.5h-83.2V221c0.1-14.5-3.6-25.9-11-34
				c-7.4-8.2-17.7-12.3-30.9-12.3c-8.7,0-16.4,1.9-23,5.7s-11.7,9.2-15.3,16.3C1753.1,203.7,1751.2,212.2,1751.1,222.2z"/>
		</g>
	</g>
	<g>
		<polygon class="st0" points="0,0.3 187.9,376.1 281.8,376.1 93.9,0.3 		"/>
		<path class="st1" d="M472.6,0.3c0,0-10.8,64.7-57.6,157.7s-93.1,143.7-93.1,143.7l-23.5-46.9l-23.5-46.9c0,0,37.2-33.1,69.6-96.8
			C378.6,43.9,378.6,0.3,378.6,0.3h46.9H472.6z"/>
		<path class="st2" d="M188.6,35.8L212.4,83l23.8,47.2c0,0,28.4-14.5,49.7-57.9C304.7,34,300.2,0.4,300.2,0.4h-46.9h-46.9
			L188.6,35.8z"/>
	</g>
</g>
</svg>
