<?xml version="1.0" encoding="utf-8"?>
<!-- Generator: $$$/GeneralStr/196=Adobe Illustrator 27.6.0, SVG Export Plug-In . SVG Version: 6.00 Build 0)  -->
<svg version="1.1" id="Calque_1" xmlns="http://www.w3.org/2000/svg" xmlns:xlink="http://www.w3.org/1999/xlink" x="0px" y="0px"
	 viewBox="0 0 164 161" style="enable-background:new 0 0 164 161;" xml:space="preserve">
<style type="text/css">
	.st0{clip-path:url(#SVGID_00000012460045183035693760000016898946830969334944_);}
	.themeColor{fill:var(--voxxrin-event-theme-colors-primary-hex);}
	.st2{fill:#333333;}
	.st3{fill:#B3B3B3;}
</style>
<g>
	<defs>
		<rect id="SVGID_1_" y="0" width="164" height="161"/>
	</defs>
	<clipPath id="SVGID_00000085236479045430983480000015184892640981897872_">
		<use xlink:href="#SVGID_1_"  style="overflow:visible;"/>
	</clipPath>
	<g style="clip-path:url(#SVGID_00000085236479045430983480000015184892640981897872_);">
		<path class="themeColor" d="M35.7,61c0,0-5.1-2.9-1.1-7.2c4.1-4.3,10.1-10.5,10.1-10.5s2.4-1.2,5.6,2L47,50c0,0,8.3,7.8,4.4,11.7
			s-11.9-4.3-11.9-4.3L35.7,61L35.7,61z"/>
		<path class="st2" d="M12.5,79.3l13.9-14.9l74,69.9l-14.9,16.1L12.5,79.3z"/>
		<path class="st3" d="M55.4,35l14.2-14.5l76.1,74L130,108.7L55.4,35z"/>
		<path d="M147.8,94.8c-1.4,1.4-2.6,2.7-4,3.9c-0.5,0.5-1,1.1-1.6,1.4c-0.3,0.2-0.6,0.5-0.8,0.8c-0.4,0.7-0.9,1.1-1.5,1.6
			c-1.1,0.8-2.1,1.6-3.2,2.3c-0.3,0.2-0.5,0.4-0.8,0.7c-0.5,0.6-1,1.3-1.5,2c-0.3,0.3-0.5,0.6-0.8,0.9c-0.3,0.2-0.6,0.5-0.8,0.8
			c-0.2,0.3-0.6,0.5-0.9,0.6c-1.2,0.4-2.2,0.1-3.1-0.8c-0.5-0.5-1.1-0.9-1.5-1.3c-0.4-0.1-0.4,0.2-0.6,0.4c-0.1,0.1-0.2,0.3-0.3,0.3
			c-2.4,1.8-4.3,4.1-6.4,6.1c-0.4,0.3-0.7,0.7-1.1,1c-1.2,0.8-2.1,1.9-3.1,2.9c-1.1,1-2.1,2-3.1,3c-1,1-2,2-3.1,3
			c-0.3,0.3-0.7,0.6-1,0.9c-0.1,0.1-0.2,0.1-0.3,0.2c-0.8,1.5-2.4,2.2-3.5,3.4c-1.1,1.2-2.2,2.2-3.4,3.3c-0.1,0.1-0.2,0.2-0.3,0.4
			c0.3,0.3,0.7,0.6,1,1c0.3,0.4,0.3,0.9,0.5,1.4c-0.5,0.7-1.1,1.3-1.8,1.8c-0.2,0.2-0.5,0.3-0.7,0.6c-0.6,1-1.5,1.7-2.3,2.5
			c-0.6,0.6-1.3,1.2-1.7,2c-0.1,0.2-0.3,0.3-0.4,0.4c-0.3,0.3-0.6,0.5-0.9,0.7c-0.3,0.3-0.3,0.7-0.6,1c-1.1,1.2-2.2,2.6-3.3,3.8
			c-0.5,0.5-1,0.9-1.5,1.4c-0.5,0.5-1.1,0.9-1.5,1.4c-0.3,0.4-0.8,0.7-1.4,0.5c-0.2-0.1-0.6,0.1-0.8,0.2c-0.6,0.1-1.2,0.1-1.6-0.5
			c-0.3-0.3-0.6-0.6-0.9-0.9c-0.5-0.1-0.7,0.2-0.9,0.5c-0.3,0.5-0.7,0.8-1.1,1.2c-1.2,1.2-2.4,2.3-3.6,3.5c-0.3,0.3-0.6,0.6-1.1,0.7
			c-0.5,0.2-1.1,0.6-1.5,0.9c-0.8,0.7-1.6,1.3-2.6,1.7c-0.6,0.3-1.2,0.7-1.8,1c-1.1,0.6-3.4,1.2-4.8,1.3c-0.6,0-0.9-0.5-1.3-0.5
			c-0.4,0-0.9,0.4-1.3,0.1c-0.6-0.4-1.4-0.4-2-0.9c-0.6-0.5-1.4-0.5-1.9-1c-0.3-0.2-0.6-0.4-0.8-0.6c-0.7-0.7-1.5-1.2-2.3-1.8
			c-0.5-0.4-1-0.8-1.4-1.3c-0.9-1.2-1.9-2.2-3.1-3.1c-0.2-0.2-0.5-0.4-0.7-0.6c-0.9-1-2-1.8-2.9-2.9c-0.3-0.3-0.5-0.6-0.9-0.8
			c-0.6-0.3-1-0.8-1.5-1.3c-0.8-0.8-1.6-1.8-2.6-2.5c-0.8-0.6-1.5-1.3-2.2-2c-0.7-0.7-1.5-1.3-2.2-2c-0.3-0.3-0.5-0.6-0.8-0.9
			c-0.4-0.4-0.8-0.7-1.2-1.1c-0.2-0.2-0.4-0.3-0.6-0.5c-0.9-1.1-2.1-2-3.2-3.1c-1.2-1.2-2.5-2.2-3.8-3.3c-0.2-0.2-0.3-0.4-0.5-0.6
			c-0.5-0.7-1.1-1.3-1.8-1.7c-0.2-0.1-0.4-0.2-0.5-0.4c-0.6-1.3-2.2-1.7-2.8-3c-1.2-1.2-2.4-2.3-3.6-3.5c-1-0.5-1.7-1.5-2.6-2.2
			c-0.6-0.5-1.1-1.2-1.6-1.7c-0.6-0.6-1.1-1.2-1.9-1.7c-0.3-0.2-0.5-0.5-0.7-0.7c-1.5-1.6-3.1-3-4.7-4.4c-1-0.8-1.8-1.8-2.8-2.7
			c-0.4-0.3-0.7-0.6-1.1-0.9c-0.2-0.2-0.4-0.3-0.6-0.5c-0.7-0.8-1.3-1.6-2-2.4c-0.2-0.2-0.3-0.4-0.4-0.6c-0.7-0.6-1-1.4-1.2-2.1
			c-0.2-0.7-0.4-1.4-0.6-2.1c-0.1-0.3,0.1-0.7,0.1-1c0-0.7,0.5-2.2,0.8-2.8c0.3-0.4,0.5-0.8,0.8-1.2c0.1-0.2,0.3-0.4,0.5-0.5
			c0.6-0.3,1.1-0.9,1.5-1.4c0.1-0.2,0.3-0.4,0.4-0.4c0.5-0.1,0.7-0.4,0.9-0.8c0.1-0.2,0.2-0.4,0.3-0.5c0.9-0.5,1.3-1.6,2.1-2.2
			c1.3-0.9,2.2-2.3,3.3-3.3c0.1-0.1,0.2-0.2,0.3-0.3c0.2-0.4,0.4-0.8,0.6-1.1c0.3-0.3,0.7-0.5,1-0.8c0.3-0.3,0.3-0.7-0.1-1
			c-0.4-0.3-0.8-0.6-0.8-1.2c0-0.2-0.3-0.4-0.5-0.7c-0.3-0.5-0.3-1.1-0.1-1.7c0.4-0.8,0.9-1.5,1.6-2.1c0.3-0.2,0.7-0.1,0.9-0.5
			c0.7-1.1,1.9-1.8,2.3-3c0-0.1-0.1-0.2-0.1-0.3c-1.3-0.9-2.4-2-3.3-3.3c-0.6-0.8-1.3-1.5-1.7-2.4c-0.6-1.4-1.5-2.8-2.1-4.2
			c-0.5-1-0.9-2.1-1-3.2c-0.1-0.4-0.2-0.9-0.4-1.3c-0.8-1.5-1-3.2-1.6-4.7c-0.1-0.2-0.1-0.4-0.1-0.6c0-0.5,0-1.1-0.2-1.6
			c-0.1-0.3-0.1-0.7-0.1-1c0-0.3,0-0.6-0.1-0.9c-0.4-1-0.3-2.1-0.2-3.2c0.1-0.8,0.1-1.5,0-2.2c0-0.1-0.1-0.2,0-0.3
			c0.4-0.9,0.2-1.8,0.3-2.8c0-0.3,0-0.5,0.1-0.7c0.2-0.4,0.2-0.9,0.2-1.3c0-0.7,0.1-1.5,0.4-2.2c0.3-0.7,0.6-1.5,0.8-2.2
			c0.3-0.9,0.6-1.7,1.3-2.3c0.1-0.1,0.2-0.2,0.2-0.4c0.1-1,0.8-1.8,1.2-2.6c0.2-0.5,0.8-0.9,1.1-1.4c0.2-0.6,0.6-1,0.8-1.5
			c0.1-0.1,0.2-0.3,0.3-0.3c0.5-0.2,0.7-0.6,0.9-1.1c0.1-0.3,0.4-0.5,0.6-0.6c0.6-0.5,1.2-0.9,1.6-1.6c0.1-0.2,0.4-0.4,0.7-0.6
			c0.5-0.4,1.1-0.7,1.2-1.4c0-0.1,0.1-0.2,0.1-0.3c0.9-0.6,1.5-1.5,2.5-2c1.2-0.6,2.2-1.5,3.2-2.3c0.5-0.4,0.9-0.9,1.6-0.9
			c0.3,0,0.5-0.2,0.7-0.4c0.7-0.7,1.5-1.1,2.4-1.4c0.6-0.2,1.1-0.5,1.6-0.7c0.8-0.3,1.6-0.6,2.4-0.9c0.7-0.2,1.4-0.4,2.1-0.6
			c0.3-0.1,0.6-0.1,0.9-0.1c0.3-0.1,0.7-0.1,1-0.1c1.8-0.3,3.6-0.2,5.5-0.1c0.7,0.4,1.5,0.1,2.2,0.4c2.3,0.2,4.5,0.9,6.6,1.8
			c0.7,0.3,1.4,0.6,2.1,0.9c1.5,0.6,2.7,1.6,4.1,2.4c1.9,1.2,3.6,2.5,5.4,3.8c0.1,0.1,0.2,0.2,0.3,0.3c0.9,0.8,1.8,1.6,2.8,2.5
			c0.7-0.5,1.2-1.1,1.7-1.7c0.4-0.5,0.9-0.9,1.3-1.4c1.1-1.1,2.2-1.4,3.6-0.8c0.5,0.2,1.1,0.1,1.5,0.5c0.2,0.2,0.5,0.1,0.7-0.1
			c0.2-0.2,0.4-0.3,0.5-0.5c0.8-0.9,1.7-1.7,2.3-2.6c0.8-1.2,2.1-2,2.7-3.3c0.9-0.7,1.6-1.6,2.4-2.4c0.4-0.4,0.7-0.8,1.1-1.2
			c0.4-0.6,0.9-1.2,1.5-1.6c0.7-0.5,1.2-1.3,1.9-1.8c0.6-0.5,1.2-1.2,1.7-1.8c0.3-0.3,0.5-0.7,0.8-1.1c1.1-1.8,2.8-2.8,4.8-3.3
			c1-0.3,2-0.4,3,0c0.2,0.1,0.5,0.1,0.7,0.1c1.6-0.2,2.7,0.7,3.8,1.7c1.3,1.3,2.6,2.6,3.9,3.9c1.2,1.1,2.4,2.2,3.6,3.3
			c1.2,1.1,2.3,2.3,3.5,3.4c0.9,0.9,1.9,1.7,2.8,2.6c1.2,1.2,2.5,2.4,3.7,3.6c0.3,0.3,0.7,0.6,1,0.8c0.1,0.1,0.3,0.2,0.3,0.3
			c0.8,1.3,2.3,2,3.2,3.2c0.7,0.9,1.6,1.6,2.5,2.3c1,0.9,1.8,1.9,2.9,2.7c1,0.8,1.8,1.8,2.8,2.7c0.6,0.6,1.1,1.3,1.9,1.6
			c1.2,1.3,2.6,2.4,3.7,3.8c0.2,0.2,0.4,0.5,0.6,0.6c1.3,0.8,2.2,2,3.3,3c0.4,0.4,0.7,0.8,1.3,1c0.2,0.1,0.3,0.2,0.4,0.4
			c0.6,0.8,1.4,1.4,2.1,2.1c0.7,0.7,1.4,1.4,2.1,2.1c0.5,0.5,1,1.1,1.7,1.4c0.1,0.1,0.2,0.2,0.3,0.3c1,1.2,2.2,2.1,3.2,3.2
			c1.1,1.1,2.2,2.2,3.3,3.2c1.1,1.1,2.1,2.2,3.3,3.2c1.3,1.2,2.3,2.7,3.4,4.1c0.5,0.7,1,1.4,1.5,2.1c0.5,0.8,1.1,1.6,1.1,2.7
			c0,0.2,0.1,0.4,0.2,0.6c0.1,0.7,0.2,1.3-0.3,2c-0.4,0.6-0.6,1.4-0.7,2.1c-0.2,1-0.7,1.8-1.2,2.6c-0.2,0.3-0.4,0.6-0.5,1
			c-0.1,0.3-0.2,0.6-0.4,0.8c-0.7,0.8-1.4,1.7-2.1,2.5c-0.4,0.4-0.7,0.8-1.3,0.9c-0.3,0.1-0.6,0.5-0.9,0.7c-2.1,2-4.1,4.1-6.2,6.2
			c-0.4,0.4-0.8,0.9-1.4,1.1c-0.1,0-0.2,0.1-0.2,0.2c-1.4,1.4-2.9,2.9-4.3,4.3c0.2,0.7,0.7,1.2,1.2,1.5c1.1,0.6,1.4,1.6,2.1,2.6
			L147.8,94.8z M98.2,130.2c0.2-0.2,0.4-0.3,0.5-0.4c0.6-0.8,1.5-1.3,1.9-2.2c0.1-0.1,0.2-0.2,0.3-0.3c0.8-0.5,1.5-1.2,2.2-1.9
			c0.5-0.6,1.3-0.8,1.6-1.5c0-0.1,0.2-0.1,0.3-0.1c0.3-0.1,0.5-0.2,0.7-0.5c0.3-0.4,0.6-0.6,0.9-0.9c0.2-0.3,0.7-0.4,0.8-0.8
			c0.1-0.6,0.8-0.4,1-0.7c0.3-0.4,0.7-0.6,0.7-1c0-0.3,0.2-0.6,0.5-0.7c0.7-0.3,1.2-0.9,1.6-1.5c0.5-0.5,1.3-0.8,1.5-1.6
			c0-0.1,0.3-0.2,0.5-0.3c0.2-0.1,0.4-0.2,0.5-0.3c0.3-0.6,0.8-0.8,1.3-1.1c0.2-0.1,0.2-0.4,0.3-0.5c0.2-0.1,0.5-0.1,0.6-0.4
			c0.2-0.5,0.7-0.5,1-0.8c0.3-0.4,0.6-0.8,0.9-1.1c0.2-0.2,0.4-0.4,0.5-0.7c0.1-0.2,0.2-0.3,0.3-0.5c0.9-0.8,1.7-1.6,2.6-2.3
			c0.4-0.3,0.8-0.6,1-1c0.1-0.2,0.4-0.5,0.5-0.5c0.4,0,0.5-0.2,0.6-0.4c0.2-0.4,0.4-0.7,0.6-1.1c-0.9-0.9-1.9-1.8-2.7-2.8
			c-1.1-1.3-2.7-2.1-3.7-3.6c-0.1-0.1-0.2-0.1-0.2-0.2c-0.7-0.4-1.2-1-1.7-1.6c-0.8-1-1.7-2-2.7-2.9c-0.8-0.8-1.7-1.7-2.5-2.5
			c-0.4-0.4-0.8-0.9-1.2-1.3c-1.2-1.2-2.6-2.2-3.7-3.5c-0.3-0.3-0.6-0.7-0.9-1c-0.6-0.6-1.3-1.3-1.9-1.9s-1.3-1.3-1.9-1.9
			c-0.6-0.6-1.4-1.2-1.8-1.9c-0.5-0.7-1.3-1.2-1.9-1.8c-0.3-0.4-0.8-0.6-1.1-1c-0.5-0.6-1.1-1.2-1.5-1.8c-0.4-0.7-1.3-0.9-1.7-1.6
			c-0.3-0.4-0.9-0.7-1.2-1.1c-0.5-0.7-1.1-1.2-1.7-1.8c-0.6-0.6-1.2-1.3-1.8-1.9c-0.6-0.6-1.1-1.2-1.8-1.6c-0.3-0.2-0.5-0.5-0.7-0.8
			c-0.2-0.3-0.4-0.6-0.7-0.8c-0.7-0.6-1.2-1.2-2-1.7c-0.7-0.5-1.2-1.2-1.9-1.6C81,62,80.3,61.9,80,61.4c-0.3-0.6-0.8-0.6-1.2-1
			c-0.6-0.6-1.3-1.3-2-1.8c-0.6-0.4-1.1-0.9-1.7-1.4c-0.6-0.5-1.2-1-1.8-1.5c-1.1-1-2.3-2-3.4-3c-0.3-0.2-0.5-0.4-0.7-0.7
			c-0.5-0.6-1.2-1.2-1.7-1.8c-0.5-0.7-1.3-1.2-1.7-1.9c-1.6-1.5-3-3.1-4.4-4.7c-0.7-1.3-2.1-2.1-3-3.2c-0.1-0.1-0.2-0.1-0.4-0.1
			c-0.5,0.4-0.9,0.9-1.4,1.4c-0.8,0.8-1.7,1.6-2.4,2.4c-0.5,0.7-1.1,1.3-1.7,1.9c-1.2,1.2-2.4,2.5-3.6,3.7c0.2,0.2,0.3,0.4,0.5,0.6
			c0.5,0.5,1,1,1.5,1.5c1.2,1.1,1.9,2.5,2.5,3.9c0.2,0.4,0.3,0.7,0.5,1.1c0.4,0.7,0.5,1.4,0.4,2.1c-0.1,0.8-0.2,1.6-0.3,2.3
			c0,0.1-0.1,0.2-0.1,0.3c-0.6,1-1.4,2-2.4,2.6c-2.1,1.3-4.3,1.4-6.4,0.2c-1.2-0.6-2.1-1.7-3.1-2.5c-0.1-0.1-0.2-0.2-0.3-0.3
			c-0.4-0.6-0.8-1.1-1.2-1.7c-0.2-0.2-0.3-0.5-0.7-0.5c-0.3,0.3-0.5,0.6-0.8,0.9c-0.3,0.3-0.5,0.7-0.7,0.9c-1,0.8-1.8,1.8-2.7,2.7
			c-0.9,1-1.8,2-2.7,3.1c0,0,0,0.1,0,0.1c0,0.1,0,0.1,0,0.2c1.1,1.2,2.1,2.3,3.3,3.4c0.8,0.7,1.3,1.7,2.3,2.2
			c0.3,0.2,0.5,0.6,0.7,0.9c0.2,0.2,0.3,0.5,0.6,0.7c0.6,0.4,1,1.1,1.5,1.6c0.5,0.5,1.1,0.9,1.7,1.4c0.2,0.1,0.2,0.3,0.4,0.5
			c0.2,0.2,0.4,0.4,0.6,0.6c0.3,0.3,0.6,0.5,0.9,0.8c0.9,1,2,1.8,2.7,2.9c1.1,0.8,2.1,1.8,3,2.8c0.2,0.2,0.5,0.4,0.6,0.6
			c0.4,0.7,1,1.2,1.5,1.8c0.8,0.8,1.5,1.5,2.3,2.3c0.3,0.3,0.7,0.6,0.9,1c0.4,0.7,1,1.2,1.6,1.8c1.2,1.1,2.2,2.4,3.6,3.3
			c0.6,0.8,1.4,1.4,2.1,2.1c1.5,1.5,3.1,3.1,4.6,4.6c0.3,0.3,0.6,0.6,0.9,0.8c1.3,1,2.5,2,3.7,3.1c0.7,0.7,1.5,1.4,2.3,2
			c1.2,0.8,2.2,1.8,3.3,2.7c0.3,0.3,0.6,0.5,0.8,0.8c0.3,0.5,0.7,0.8,1.2,1.1c0.7,0.4,1.2,1,1.8,1.5c0.7,0.7,1.4,1.4,2.2,2
			c0.3,0.3,0.7,0.5,1,0.8c0.9,0.9,1.9,1.8,2.7,2.7c0.9,1,2.1,1.6,2.9,2.7c0.4,0.5,0.9,1,1.4,1.5c1.5,1.6,3.2,2.9,4.9,4.2
			c0.5,0.4,1,0.8,1.3,1.4c0.1,0.1,0.2,0.2,0.4,0.3L98.2,130.2z M141.7,88.2c0.5-0.4,1-0.6,1.4-1c0.6-0.7,1.5-1.2,1.9-2
			c0.1-0.2,0.3-0.3,0.4-0.4c0.8-0.7,1.7-1.5,2.5-2.2c0.4-0.4,0.7-0.8,1.1-1.2c0.5-0.7,1.1-1.4,1.9-1.7c0.2-0.1,0.3-0.3,0.3-0.4
			c0.1-0.3,0.3-0.5,0.5-0.7c0.4-0.3,0.8-0.6,1.1-0.9c0.9-0.9,1.8-1.8,2.7-2.7c0.6-0.6,1.2-1.3,1.7-2c0.4-0.7,0.9-1.4,1.4-2
			c0.4-0.4,0.6-1,0.9-1.5c0.3-0.5,0.4-1,0.5-1.5c0.1-0.8,0-1.6,0.4-2.4c-0.1-0.2-0.3-0.4-0.4-0.6c-0.5-1.4-1.5-2.4-2.6-3.3
			c-0.6-0.5-1.2-1-1.7-1.6c-0.2-0.2-0.4-0.4-0.6-0.6c-0.9-0.9-1.9-1.8-2.9-2.8c-0.4-0.4-0.8-0.7-1.2-1.1c-1.5-1.4-2.9-2.8-4.5-4.2
			c-0.9-0.8-1.6-1.8-2.6-2.5c-0.4-0.3-0.7-0.8-1.1-1.2c-0.6-0.6-1.2-1.1-1.8-1.7c-0.6-0.5-1.1-1.2-1.7-1.7c-0.6-0.5-1.3-1-1.7-1.8
			c-0.1-0.1-0.1-0.2-0.2-0.2c-1.1-0.6-1.7-1.7-2.7-2.4c-1.6-1.8-3.7-3.1-5.1-5.1c0,0-0.1-0.1-0.1-0.1c-0.8-0.4-1.4-1.2-2.1-1.9
			c-0.4-0.4-0.6-0.9-1-1.3c-0.4-0.4-0.9-0.6-1.3-1c-1.3-1.3-2.6-2.6-3.9-3.9c-0.5-0.5-0.9-0.9-1.4-1.3c-1.1-0.8-2-1.7-2.9-2.7
			c-0.5-0.5-1.1-1-1.5-1.6c-0.4-0.7-1.2-0.9-1.6-1.5c-0.3-0.4-0.8-0.6-1.1-0.9c-0.4-0.4-0.7-0.9-1-1.3c-0.6-0.6-1.2-1.2-1.8-1.7
			c-0.6-0.4-1.1-0.9-1.5-1.4c-0.3-0.3-0.5-0.7-0.9-1c-1.1-0.8-2-1.8-2.9-2.8c-0.9-1-2.1-1.7-2.9-2.9c-0.3-0.4-0.8-0.5-1-0.9
			c-0.8-1.2-1.9-1.8-3.1-2.4c-0.9-0.5-1.9-0.5-2.9-0.3C94.4,4,94.2,4.1,94,4.1c-0.9,0.2-1.6,0.5-2.3,1.2c-0.5,0.4-1,0.9-1.6,1
			c-0.8,0.3-1.4,0.8-1.8,1.4c-0.4,0.6-0.9,1-1.4,1.6c-0.8,0.8-1.6,1.7-2.4,2.6c-0.5,0.6-1.1,1.2-1.6,1.7c-0.5,0.5-1.1,1-1.4,1.7
			c-0.1,0.2-0.3,0.4-0.5,0.5c-0.6,0.4-1.1,1-1.5,1.5c-0.5,0.6-1.1,1-1.5,1.6c-0.7,1-1.6,1.8-2.5,2.7c-0.1,0.1-0.2,0.3-0.3,0.5
			c0.3,0.3,0.6,0.6,0.8,0.9c0.4,0.4,0.8,0.7,1.2,1.1c0.4,0.4,0.6,0.9,1,1.3c0.4,0.4,0.8,0.8,1.2,1.3c0.7,0.7,1.3,1.5,1.8,2.3
			c0.1,0.2,0.3,0.5,0.5,0.5c0.6,0.2,1,0.7,1.5,1.1c0.4,0.3,0.8,0.6,1.1,1c0.6,0.7,1.2,1.3,1.9,1.8c1.1,0.8,1.9,1.7,2.7,2.7
			c0.4,0.4,0.7,1.1,1.4,1.2c0.3,0,0.6,0.4,0.7,0.7c0.9,1.4,2.2,2.4,3.4,3.5c0.4,0.3,0.7,0.7,1.1,1c0.4,0.4,0.7,0.8,1.1,1.2
			c0.5,0.6,1,1.2,1.6,1.7c0.8,0.5,1.4,1.2,2.1,1.8c1.9,1.9,3.9,3.8,5.8,5.8c0.4,0.4,0.7,0.8,1.1,1.2c0.8,0.8,1.9,1.4,2.6,2.3
			c0.6,0.7,1.6,1.2,1.9,2.2c0,0.1,0.2,0.2,0.3,0.3c0.2,0.2,0.5,0.4,0.7,0.6c0.7,0.7,1.5,1.5,2.2,2.2c0.7,0.7,1.5,1.4,2.3,2
			c0.3,0.3,0.6,0.5,0.8,0.9c0.3,0.6,0.9,0.9,1.3,1.4c0.3,0.3,0.7,0.6,1,0.9c0.4,0.5,0.8,1,1.3,1.4c0.6,0.4,1,0.9,1.5,1.4
			c0.3,0.2,0.5,0.5,0.8,0.7c0.9,0.5,1.5,1.3,2.2,2c0.1,0.1,0.2,0.3,0.4,0.5c0.9,0.7,1.7,1.4,2.3,2.3c0.1,0.1,0.2,0.2,0.3,0.3
			c0.8,0.5,1.4,1.2,2,1.9c0.4,0.5,0.9,1.1,1.4,1.5c0.8,0.6,1.3,1.6,2.3,2.1c0.2,0.1,0.3,0.5,0.5,0.7c0.5,0.6,0.8,1.3,1.4,1.7
			c0.9,0.7,1.6,1.6,2.5,2.3c0.4,0.3,0.8,0.5,1,0.9C140.3,87.2,141.1,87.6,141.7,88.2L141.7,88.2z M144.1,94.2
			c-1.1-0.8-1.5-2.1-2.7-2.7c-0.2-0.1-0.2-0.3-0.3-0.5c-0.2-0.3-0.5-0.5-0.7-0.7c-0.4-0.3-0.8-0.6-1.1-0.9c-0.8-0.8-1.6-1.6-2.4-2.4
			c-0.8-0.8-1.7-1.4-2.5-2.3c-1-1.1-2.1-2-3.2-3.1c-0.6-0.6-1.2-1.2-1.8-1.7c-0.8-0.7-1.6-1.4-2.4-2.1c-1-1-1.9-1.9-2.9-2.9
			c-0.9-0.9-1.9-1.8-2.8-2.8c-0.9-1-2-1.9-2.9-2.9c-3.5-3.5-7.1-7.1-10.6-10.6c-0.3-0.3-0.6-0.6-0.9-0.9c-0.8-0.7-1.7-1.3-2.3-2.3
			c-0.1-0.2-0.4-0.3-0.5-0.5c-1.1-0.8-2-1.7-2.9-2.9c-0.2-0.2-0.4-0.5-0.6-0.6c-0.5-0.3-0.9-0.7-1.3-1.2
			c-5.9-5.9-11.8-11.7-17.6-17.6c-0.9-0.9-1.8-1.9-2.9-2.5c-0.2-0.1-0.3-0.3-0.5-0.4c-1-0.8-1.9-1.7-3-2.4c-0.7-0.5-1.3-1.4-2.1-1.8
			c-0.2-0.1-0.2-0.3-0.3-0.5c-0.7-0.9-1.4-1.8-2.6-2c-0.3-0.1-0.5-0.3-0.8-0.5c-1.1,1.2-2.3,2.1-3.2,3.5c-0.6,0.8-1.4,1.4-1.9,2.2
			c-0.1,0.1-0.1,0.2-0.2,0.2c-0.7,0.5-1.4,0.9-2,1.5c-1.1,1-2.1,2-3,3c-0.3,0.3-0.5,0.6-0.8,0.8c-0.6,0.4-1.1,0.9-1.3,1.7
			c1.5,1.4,3.1,2.6,4.5,4.1c0.8,0.9,1.7,1.7,2.5,2.5c0.3,0.3,0.5,0.6,0.8,0.8c1,0.7,1.8,1.6,2.7,2.5c1.6,1.6,3.3,3.3,4.9,4.9
			c0.3,0.3,0.5,0.5,0.7,0.7c0.7,0.4,1.3,1.1,1.9,1.6c0.6,0.6,1.3,1.1,1.9,1.6c0.5,0.4,0.9,0.8,1.5,1.2c1,0.7,1.9,1.6,2.8,2.4
			c0.6,0.5,1.1,1.2,1.7,1.6c1.6,1.3,3.1,2.6,4.5,4c0.7,0.7,1.4,1.4,2.1,2.1c0.7,0.6,1.3,1.4,2.1,2.1c0.3,0.3,0.7,0.6,1,0.9
			c0.3,0.3,0.7,0.5,1,0.8c3.6,3.6,7.3,7.3,10.9,10.9c0.7,0.7,1.3,1.3,1.9,2c0.5,0.6,1,1.2,1.6,1.7c0.7,0.7,1.5,1.4,2.3,2.1
			c1.1,0.9,2,2,3,3c0.2,0.2,0.3,0.4,0.5,0.5c0.8,0.6,1.3,1.6,2.2,2.1c0.1,0.1,0.2,0.2,0.3,0.3c0.6,1,1.5,1.8,2.4,2.6
			c0.7,0.6,1.4,1.2,2.1,1.9c2.3,2.2,4.5,4.5,6.8,6.8c0.4,0.4,0.7,0.7,1.1,1c0.4,0.3,0.8,0.6,1,1c0.2,0.4,0.6,0.8,0.9,0.9
			c0.5-0.4,0.8-0.7,1.2-1c0.6-0.4,1.1-0.9,1.4-1.5c0.3-0.5,0.7-0.9,1.3-1.2c0.8-0.6,1.8-1,2.6-1.7c1.2-1,2.5-1.8,3.5-3.1
			c0.2-0.3,0.5-0.5,0.7-0.7C142.4,96.3,143.2,95.3,144.1,94.2L144.1,94.2z M13.8,79.6c0.8,0.9,1.5,1.8,2.3,2.7
			c0.3,0.3,0.6,0.5,0.9,0.7c0.3,0.2,0.6,0.5,0.9,0.7c0,0.6,0.6,0.7,0.9,1c0.2,0.2,0.5,0.3,0.6,0.5c0.2,0.4,0.5,0.6,0.9,0.7
			c0.2,0.1,0.4,0.2,0.5,0.3c0.3,0.5,0.9,0.7,1.2,1.1c0.3,0.5,0.8,0.7,1.3,0.9c0.1,0.1,0.2,0.1,0.2,0.2c0.3,0.6,0.8,0.8,1.3,1.2
			c0.3,0.2,0.6,0.5,0.9,0.7c0.5,0.5,1.1,0.9,1.5,1.4c0.5,0.5,0.9,1.1,1.6,1.5c0.2,0.1,0.3,0.3,0.4,0.4c0.5,0.9,1.4,1.4,2.1,2.1
			c1.2,1.2,2.3,2.5,3.5,3.7c1.4,1.5,2.8,3,4.2,4.5c0.7,0.7,1.5,1.4,2.2,2.2c0.5,0.7,1.2,1.4,1.8,2c2,2,4.1,4,6.1,6.1
			c0.2,0.2,0.4,0.5,0.6,0.6c0.9,0.5,1.5,1.3,2.2,2c0.6,0.6,1.1,1.2,1.6,1.7c0.6,0.6,1.2,1.2,1.8,1.7c2.8,2.8,5.6,5.6,8.4,8.4
			c0.3,0.3,0.5,0.5,0.7,0.7c0.9,0.6,1.6,1.4,2.4,2.2c1.3,1.2,2.4,2.4,3.8,3.5c1.6,1.4,3.1,2.9,4.7,4.3c1.4,1.2,2.6,2.6,3.9,3.9
			c0.4,0.4,0.8,0.8,1,1.3c0.1,0.3,0.3,0.5,0.6,0.6c1,0.5,1.7,1.3,2.6,1.9c0.4,0.3,0.7,0.6,1.1,0.9c0.1,0.1,0.1,0.2,0.1,0.2
			c-0.1,0.3,0.1,0.5,0.4,0.5c0.8-0.7,1.6-1.5,2.1-2.4c0.6-1.1,1.3-2.1,2.4-2.8c1-0.6,1.6-1.6,2.5-2.3c0.4-0.3,0.7-0.8,1.2-1
			c0.2-0.1,0.3-0.2,0.5-0.4c1-0.8,1.8-2,2.9-2.7c0.1-0.1,0.2-0.2,0.3-0.3c0.2-0.4,0.5-0.7,0.9-0.9c0.5-0.3,0.8-0.8,0.9-1.4
			c-0.1-0.2-0.2-0.3-0.3-0.4c-0.7-0.5-1.4-1.1-2.1-1.6c-0.2-0.2-0.4-0.3-0.6-0.5c-0.9-1.3-2.1-2.3-3.2-3.5c-0.2-0.3-0.5-0.5-0.8-0.7
			c-0.5-0.3-0.8-0.7-1.2-1c-0.8-0.8-1.8-1.6-2.5-2.5c-0.8-1-1.8-1.7-2.6-2.6c-0.6-0.7-1.3-1.3-2-2c-0.3-0.3-0.5-0.5-0.8-0.7
			c-0.6-0.3-1.1-0.8-1.6-1.3c-0.2-0.2-0.3-0.4-0.6-0.5c-0.7-0.3-1.1-1-1.7-1.5c-0.6-0.5-1.3-0.9-1.8-1.5c-1.4-1.5-3-2.7-4.6-3.9
			c-0.7-0.6-1.4-1.2-2.1-1.8c-1.4-1.4-2.9-2.6-4.3-3.9c-1-0.9-2.1-1.8-3-2.8c-0.9-0.9-1.9-1.9-2.8-2.8c-0.2-0.2-0.4-0.5-0.6-0.6
			c-0.9-0.5-1.6-1.3-2.4-2c-0.7-0.6-1.3-1.3-2-1.9c-0.5-0.6-1.1-1.2-1.6-1.7c-0.3-0.3-0.6-0.7-0.9-1c-0.3-0.3-0.5-0.7-0.8-1
			c-3-3-6.1-6.1-9.1-9.1c-0.3-0.3-0.5-0.5-0.7-0.7c-0.8-0.5-1.4-1.1-2-1.7c-0.9-0.9-1.8-1.7-2.6-2.6s-1.7-1.7-2.5-2.7
			c-0.8-1-1.9-1.9-2.8-2.9c-0.9-1-1.9-1.9-2.8-3c-0.7-0.9-1.8-1.4-2.7-2c-0.6,0.6-1.3,1.2-1.9,1.9c-1.1,1.4-2.3,2.5-3.5,3.8
			c-0.2,0.3-0.6,0.5-0.7,0.7c-0.4,0.8-1.2,1.3-1.8,2c-0.4,0.5-0.9,0.9-1.3,1.4c-0.7,0.9-1.4,1.7-2.4,2.4
			C14.6,78.6,14.2,79,13.8,79.6L13.8,79.6z M15.2,85c-0.8,0.8-1.7,1.4-2.3,2.2c-0.6,0.8-1.4,1.6-2.1,2.3c-0.8,0.8-1.7,1.7-2.5,2.5
			c-0.4,0.4-0.7,0.8-0.7,1.4c0,0.3-0.2,0.6-0.3,0.8c-0.4,0.6-0.8,1.2-1.4,1.7c-0.7,0.6-1.3,1.3-2,2c-0.6,0.6-0.9,1.3-0.6,2.1
			c0.2,0.7,0.5,1.4,0.7,2.1c0.3,0.9,1,1.6,1.7,2.2c0.3,0.2,0.6,0.4,0.8,0.6c0.9,0.9,1.7,1.7,2.6,2.6c0.8,0.8,1.6,1.7,2.5,2.5
			c0.9,0.8,1.8,1.7,2.7,2.5c0.7,0.6,1.3,1.2,1.9,1.9c0.6,0.7,1.6,1,2,1.9c0,0.1,0.2,0.1,0.2,0.2c0.4,0.3,0.8,0.6,1.1,0.9
			c1.4,1.4,2.9,2.8,4.3,4.3c0.3,0.3,0.5,0.5,0.7,0.7c1.2,0.7,2,1.8,2.9,2.7c0.8,0.8,1.5,1.7,2.5,2.4c0.9,0.7,1.6,1.4,2.4,2.2
			c1.6,1.5,3.1,3.1,4.6,4.6c0.3,0.3,0.5,0.5,0.7,0.7c0.8,0.5,1.4,1.2,2,1.7c0.6,0.5,1.1,1.1,1.7,1.7c0.5,0.6,1.3,0.9,1.7,1.6
			c0.8,0.5,1.4,1.2,2.1,1.9c0.7,0.7,1.5,1.5,2.2,2.2c1,1,1.9,2,3,2.9c1.3,1,2.3,2.1,3.5,3.2c0.5,0.5,1,1,1.5,1.5
			c0.3,0.3,0.5,0.4,0.9,0.4c0.6,0,1,0.3,1.4,0.7c0.5,0.5,1,1,1.6,1.3c0.3,0.7,1,1,1.6,1.5c1.2,1,2.5,1.9,4.1,2.2
			c1.3,0.2,2.5,0.3,3.7-0.4c0.8-0.5,1.7-0.9,2.5-1.3c0.5-0.2,0.8-0.7,1.3-1c0.1-0.6,0.7-0.8,1-1.2c0.5-0.5,1.2-0.9,1.6-1.5
			c0.1-0.1,0.2-0.2,0.3-0.3c0.5-0.2,0.9-0.6,1.1-1.1c0.1-0.2,0.3-0.4,0.5-0.5c0.6-0.4,1-1,1.7-1.4c0.6-0.3,1-0.9,1.5-1.3
			c-0.1-0.1-0.2-0.3-0.3-0.4c-0.6-0.6-1.1-1.1-1.7-1.7c-0.6-0.6-1.2-1.2-1.8-1.7c-0.6-0.5-1.1-1.1-1.6-1.7c-0.1-0.2-0.3-0.3-0.4-0.4
			c-1.1-0.6-1.7-1.8-2.9-2.3c-1.3-1.4-2.8-2.5-4.1-3.8c-0.7-0.7-1.3-1.5-2.1-2c-1.1-0.8-1.9-1.7-2.8-2.6c-1.1-1-2.1-2.1-3.2-3.1
			c-1-1-2.1-1.9-3-3c-0.5-0.6-1.1-1.2-1.7-1.7c-0.7-0.5-1.4-1-1.8-1.7c-0.1-0.1-0.2-0.2-0.3-0.3c-0.8-0.5-1.4-1.2-2-2
			c-0.4-0.6-0.7-1.3-1.6-1.5c-0.2,0-0.3-0.2-0.5-0.4c-1.1-1-2.1-2.1-3.2-3.1c-1-1.1-2.4-1.8-3.1-3.1c-1-0.7-1.6-1.7-2.5-2.5
			c-0.9-0.8-1.7-1.7-2.6-2.6c-0.5-0.6-1.1-1.1-1.6-1.8c-0.5-0.7-1.2-1.3-1.7-2c-0.2-0.3-0.5-0.6-0.9-0.8c-0.6-0.3-1-0.8-1.5-1.3
			c-0.8-0.8-1.6-1.7-2.4-2.6c-1-1.2-2.2-2.2-3.4-3.3c-0.2-0.2-0.4-0.3-0.4-0.5c0-0.1-0.2-0.3-0.3-0.3c-0.9-0.1-1.1-0.8-1.4-1.5
			c-0.5-0.1-1.2-0.1-1.4-0.5c-0.4-0.7-1.3-1-1.5-1.9c-0.1-0.3-0.4-0.6-0.8-0.6c-0.9-0.1-1.4-0.8-2-1.4C17,86.9,16.2,85.9,15.2,85
			L15.2,85z M52.9,25.3c-0.2-0.1-0.3-0.2-0.5-0.3c-0.8-0.4-1.6-0.9-2.5-1.3c-1-0.5-1.9-1.1-3.1-1.3c-0.1,0-0.2-0.1-0.3-0.1
			c-1.2-0.7-2.5-0.9-3.8-0.9c-1.4-0.1-2.9-0.3-4.3,0.2c-0.1,0-0.2,0.1-0.3,0c-0.4-0.2-0.8,0-1.1,0.1c-1.2,0.3-2.3,0.7-3.3,1.3
			c-0.3,0.2-0.5,0.3-0.8,0.4c-1.5,0.3-2.7,1.4-4,2.1c-0.5,0.3-0.8,0.8-1.3,1.2c-0.8,0.6-1.6,1.3-2.4,1.9c-0.2,0.2-0.4,0.4-0.6,0.7
			c-0.3,0.3-0.5,0.6-0.7,0.9c-1.1,1.2-2.1,2.4-2.9,3.9c-0.3,0.6-0.6,1.2-1.1,1.8c-0.7,1-1.3,2-1.6,3.1c-0.4,1.2-1,2.2-1.3,3.4
			c-0.1,0.2-0.1,0.4-0.2,0.6c-0.1,0.5-0.2,1.1-0.4,1.6c-0.2,0.4-0.2,0.8-0.3,1.3c0,0.3-0.1,0.7-0.1,1c-0.1,0.3-0.1,0.7-0.1,1
			c0,2,0,3.9,0,5.9c0,0.3,0,0.6,0.1,0.9c0.3,1.2,0.4,2.4,0.5,3.6c0.1,0.8,0.3,1.6,0.8,2.2c0.4,0.5,1,0.5,1.6,0.7
			c0.2,0.1,0.4,0.1,0.6,0.2c1.1,0.2,1.9,0.8,2.5,1.7c0.2,0.3,0.5,0.5,0.7,0.8c0.2,0.2,0.3,0.5,0.5,0.7c0.2,0.3,0.3,0.6,0.4,0.9
			c0.6-0.5,1.2-0.8,1.7-1.3c0.5-0.5,0.9-0.7,1.6-0.6c0.4,0,0.8,0,1.1,0.1c0.8,0.6,1.6,1.3,2.5,1.7c0.2-0.3,0.5-0.5,0.6-0.7
			c0.5-0.8,1.1-1.5,1.8-2.1c0.5-0.3,0.9-0.7,1.2-1.3c-0.3-0.6-0.8-0.9-1.2-1.3c-0.8-0.8-1-1.7-0.8-2.7c0.2-1,0.5-2,1.2-2.8
			c0.7-0.8,1.3-1.7,1.9-2.6c0.2-0.2,0.4-0.4,0.7-0.6c1.3-1,2.4-2.2,3.5-3.4c1.1-1.3,2.1-2.6,3.3-3.8c1.2-1.2,2.6-1.9,4.4-1.7
			c0.1,0,0.2,0,0.3,0c1.2,0.1,2.3,0.3,3,1.2c0.1,0.1,0.2,0.1,0.3,0.2c1.7-1.5,3.1-3.3,4.6-4.9c0.3-0.3,0.3-0.7,0-0.9
			c-0.2-0.3-0.5-0.5-0.7-0.7c-1.2-1.3-0.9-1.6-0.3-2.9c0.2-0.4,0.5-0.8,0.8-1.2c-0.3-0.3-0.6-0.5-0.9-0.8c-0.9-0.8-1.2-1.9-0.9-3.1
			C53.4,27.7,53.4,26.5,52.9,25.3z M21.8,67.4c-0.4-1.1-0.9-2.1-1.8-2.7c-0.9-0.7-1.9-1.4-3.2-1.4c-1.1,0-1.9-0.8-2.3-1.7
			c-0.4-0.8-0.7-1.7-0.7-2.7c-0.1-1.2-0.3-2.4-0.3-3.7c0-0.2,0-0.3-0.1-0.4c-0.3-0.5-0.2-1-0.2-1.5c0-0.9-0.3-1.7-0.1-2.6
			c-0.2-0.3-0.1-0.7-0.1-1c0-0.4,0-0.7,0.1-1c0.1-0.2,0-0.5,0.1-0.7c0-0.6,0-1.2,0-1.8c0.1-0.6,0.2-1.3,0.3-1.9
			c0.3-1.2,0.6-2.5,0.9-3.7c0.4-1.2,0.9-2.3,1.4-3.4c1.3-3.3,3.2-6.2,5.6-8.7c1.4-1.5,2.9-2.9,4.5-4.2c1.3-1.1,2.9-1.8,4.4-2.7
			c0.8-0.4,1.6-0.7,2.4-1.1c0.4-0.2,0.8-0.3,1.2-0.5c1.1-0.5,2.3-0.5,3.4-0.8c0.6-0.2,1.3-0.3,1.9-0.3c0.6-0.1,1.3,0,1.9,0
			c0.8-0.1,1.6,0.2,2.3,0.3c1.7,0.2,3.3,0.6,4.8,1.3c1.3,0.6,2.5,1,3.8,1.6c0.8,0.4,1.7,0.9,2.4,1.4c0.9,0.5,1.5,1.3,1.6,2.4
			c0.1,0.6,0.1,1.3-0.1,1.9C56,28.3,56,28.8,56,29.4c0.3,0.4,0.6,0.8,0.9,1.4c0.4-0.4,0.8-0.8,1.2-1.2c0.8-0.8,1.6-1.7,2.6-2.4
			c0.3-0.2,0.6-0.5,0.8-0.8c0.3-0.3,0.6-0.5,0.7-0.9c-0.1-0.2-0.3-0.3-0.4-0.4c-0.8-0.8-1.7-1.5-2.5-2.3c-0.9-0.8-1.9-1.6-2.9-2.2
			c-1.4-0.8-2.6-1.7-4-2.6c-0.8-0.5-1.6-1-2.4-1.4c-1-0.5-2.1-0.9-3.1-1.3c-0.3-0.1-0.6-0.2-0.8-0.2c-0.3-0.1-0.7-0.2-1-0.2
			c-1.8-0.4-3.6-0.8-5.5-0.7c-0.7,0-1.4,0-2.1,0c-1.2,0-2.3,0.4-3.5,0.4c-0.1,0-0.1,0-0.1,0.1c-1,0.4-2.1,0.7-3.1,1.1
			c-1.1,0.4-2.1,0.9-3.1,1.4c-1.5,0.7-3,1.5-4.3,2.6c-1.7,1.5-3.7,2.6-5.3,4.2c-0.7,0.7-1.4,1.4-2.1,2.1c-0.5,0.5-1,1.1-1.4,1.7
			c-0.5,0.8-1.1,1.5-1.6,2.2c-1,1.5-2.3,2.8-2.9,4.6c-0.3,0.9-0.8,1.7-1.1,2.6c-0.2,0.6-0.3,1.3-0.4,1.9c-0.3,1.3-0.6,2.5-0.5,3.8
			c0,0.5,0.1,1.1-0.2,1.6v3.4c0.3,0.6,0.3,1.3,0.2,1.9c-0.1,1.3,0.4,2.4,0.4,3.7c0,0.1,0.1,0.2,0.1,0.3c0.3,1.2,0.7,2.5,1,3.7
			c0.6,2.4,1.5,4.8,2.6,7c0.6,1.3,1.3,2.6,2.2,3.7c0.3,0.9,1.1,1.4,1.6,2.1c0.5,0.8,1.3,1.1,1.9,1.8C19.5,70.4,20.7,68.9,21.8,67.4
			L21.8,67.4z M39,55.9c0.6,0.2,1.1,0.3,1.5,0.5c0.3,0.1,0.7,0.2,0.9,0.4c1.3,1,2.6,2.1,3.8,3.2c1,0.9,2,1.4,3.3,1.3
			c0.3,0,0.7,0,1,0c0.6,0,1-0.4,1.2-0.9c0.1-0.4,0.2-0.8,0.4-1.1c0.1-0.3,0.1-0.7,0-1c-0.2-0.4-0.4-0.8-0.5-1.2
			c-0.1-0.2-0.3-0.4-0.3-0.6c-0.1-0.8-0.6-1.4-1.1-2c-0.6-0.7-1.2-1.4-1.9-2c-0.9-0.7-1.3-1.9-1.9-2.8c-0.1-0.1-0.1-0.3-0.1-0.4
			c0.3-0.6,0.2-1.5,1.2-1.7c0.2,0,0.4-0.2,0.6-0.4c0.5-0.5,0.9-1.1,1.4-1.7c-0.3-0.7-0.9-0.8-1.4-1.2c-0.3-0.3-0.6-0.2-0.9,0
			c-1.4,0.9-2.6,2.1-3.6,3.5c-0.6,0.8-1.2,1.6-1.9,2.2c-0.7,0.7-1.6,1.4-2.1,2.3c-0.1,0.1-0.2,0.2-0.3,0.3c-1.4,0.8-2.3,2.1-3.2,3.4
			c-0.5,0.6-0.6,1.4-0.4,2.1c0.1,0.4,0.3,0.8,0.4,1.3c0.6,0.1,1.1-0.1,1.3-0.6C37.1,57.6,38.1,56.8,39,55.9L39,55.9z"/>
		<path d="M44.2,55.5c0.8-0.8,0.9-0.9,1.7-0.5c0.8,0.4,1.6,0.9,2.4,1.4c0.2,0.1,0.3,0.4,0.5,0.5c0.3,0.5,0.5,0.9,0.8,1.5
			c-0.3,0.6-0.9,0.9-1.6,1.1c-0.5,0.2-1.2,0-1.5-0.4C45.7,58,44.7,56.9,44.2,55.5L44.2,55.5z"/>
	</g>
</g>
</svg>
