<?xml version="1.0" encoding="utf-8"?>
<!-- Generator: Adobe Illustrator 27.3.1, SVG Export Plug-In . SVG Version: 6.00 Build 0)  -->
<svg version="1.1" id="Calque_1" xmlns="http://www.w3.org/2000/svg" xmlns:xlink="http://www.w3.org/1999/xlink" x="0px" y="0px"
	 viewBox="0 0 24 24" style="enable-background:new 0 0 24 24;" xml:space="preserve">
<g>
	<path d="M5.5,21.6C4.6,21.6,4,21,4,20.1V5c0-1.7,1.3-3,3-3h10c1.6,0,2.9,1.3,3.1,2.9l0,15.2c0,0.2-0.1,0.4-0.2,0.5
		c0,0.1-0.1,0.1-0.1,0.2c-0.4,0.7-1.3,0.9-2,0.5l-5.3-3c-0.3-0.2-0.7-0.2-1,0l-5.1,2.9C6.2,21.4,5.9,21.6,5.5,21.6z M19.8,20.8
		L19.8,20.8L19.8,20.8z M4.7,20.5C4.7,20.5,4.7,20.5,4.7,20.5C4.7,20.5,4.7,20.5,4.7,20.5z M4.7,20.5L4.7,20.5L4.7,20.5z M20,20.3
		C20,20.3,20,20.3,20,20.3C20,20.3,20,20.3,20,20.3z M19.1,20.1L19.1,20.1L19.1,20.1z M12,16.2c0.5,0,1.1,0.2,1.6,0.5l4.5,2.6V5
		C18,4.5,17.6,4,17,4H7C6.4,4,6,4.4,6,5v14.2l4.5-2.6C10.9,16.3,11.5,16.2,12,16.2z"/>
</g>
<path d="M15.9,9.5l-1.6,1.6l0.4,2.2c0,0.2,0,0.4-0.2,0.5s-0.3,0.1-0.5,0l-1.9-1l-1.9,1c-0.2,0.1-0.4,0.1-0.5,0
	c-0.2-0.1-0.2-0.3-0.2-0.5l0.4-2.2L8.1,9.5C8,9.4,8,9.2,8,9c0.1-0.2,0.2-0.3,0.4-0.3l2.2-0.3l1-2c0.1-0.2,0.2-0.3,0.4-0.3
	s0.4,0.1,0.4,0.3l1,2l2.2,0.3c0.2,0,0.3,0.2,0.4,0.3C16,9.2,16,9.4,15.9,9.5z"/>
</svg>
